<svg width="89" height="89" viewBox="0 0 89 89" fill="none" xmlns="http://www.w3.org/2000/svg">
<g clip-path="url(#clip0_2214_2808)">
<path d="M60.1455 19.6284H27.9215C22.9339 19.6284 18.8906 23.7674 18.8906 28.8732V60.6694C18.8906 65.7751 22.9339 69.9141 27.9215 69.9141H60.1455C65.1331 69.9141 69.1763 65.7751 69.1763 60.6694V28.8732C69.1763 23.7674 65.1331 19.6284 60.1455 19.6284Z" fill="#2D0402"/>
<path d="M57.8307 39.7637H53.2305V56.9767H57.8307V39.7637Z" fill="#FF9A00"/>
<path d="M55.5307 37.9782C56.991 37.9782 58.1747 36.7664 58.1747 35.2716C58.1747 33.7767 56.991 32.5649 55.5307 32.5649C54.0705 32.5649 52.8867 33.7767 52.8867 35.2716C52.8867 36.7664 54.0705 37.9782 55.5307 37.9782Z" fill="#FF9A00"/>
<path d="M43.2659 34.2974H37.3396C37.3396 35.3171 37.1668 36.3294 36.8288 37.2889L29.8945 56.9776H34.7496L36.494 51.5527L44.2739 51.495L46.0516 56.9776H51.185L43.2659 34.2974ZM37.7698 47.1131L40.2993 38.3083L42.9531 47.1131H37.7698Z" fill="#FF9A00"/>
</g>
<defs>
<clipPath id="clip0_2214_2808">
<rect width="50.2857" height="50.2857" fill="white" transform="translate(18.8906 19.6294)"/>
</clipPath>
</defs>
</svg>
