<svg width="89" height="89" viewBox="0 0 89 89" fill="none" xmlns="http://www.w3.org/2000/svg">
<g clip-path="url(#clip0_2214_2801)">
<path d="M27.9215 19.6284H60.1451C65.1296 19.6284 69.1759 23.771 69.1759 28.8732V60.6694C69.1759 65.7719 65.1292 69.9141 60.1451 69.9141H27.9215C22.937 69.9141 18.8906 65.7715 18.8906 60.6694V28.8732C18.8906 23.771 22.9374 19.6284 27.9215 19.6284Z" fill="#001E36"/>
<path d="M38.6138 32.5112H30.418V54.8667H35.0182V47.8841H38.6138C40.6872 47.8841 42.5644 47.0234 43.9233 45.6327C45.2818 44.2416 46.1226 42.3201 46.1226 40.1975C46.1226 35.9527 42.7607 32.5112 38.6142 32.5112H38.6138ZM40.5375 42.7624C39.896 43.4183 39.0106 43.8246 38.0323 43.8246H35.0182V36.5712H38.0323C39.9889 36.5712 41.5751 38.1949 41.5751 40.1979C41.5751 41.1994 41.1786 42.1057 40.5375 42.7624Z" fill="#30A8FF"/>
<path d="M60.4792 49.8537C60.4792 51.3375 59.8032 52.7535 58.7364 53.7429C57.5341 54.8582 55.8643 55.3338 54.277 55.4576C54.0867 55.4726 53.8964 55.4817 53.7056 55.4859C51.9417 55.5228 50.0874 55.1386 48.4846 54.3805C48.4675 54.3727 48.4505 54.3643 48.4334 54.3565C48.4363 53.0401 48.4387 51.7242 48.4416 50.4078C48.4416 50.4797 49.7165 50.7954 49.8747 50.8486C51.3298 51.337 53.0665 51.703 54.5996 51.502C54.9234 51.4596 55.2561 51.3769 55.5069 51.1634C56.4523 50.3596 55.4939 49.3598 54.7233 48.976C53.8874 48.5602 52.9874 48.2973 52.1341 47.9214C51.325 47.5654 50.5532 47.1031 49.9088 46.4883C47.7769 44.4546 47.8597 41.0397 50.0326 39.0646C51.2629 37.9464 52.9241 37.5912 54.5281 37.5189C56.1882 37.4442 57.864 37.747 59.4002 38.3942C59.4591 38.4191 59.5216 38.4477 59.5544 38.5034C59.5824 38.5512 59.5832 38.6097 59.5832 38.665C59.5849 40.0087 59.5865 41.3529 59.5877 42.6967C59.3373 42.4778 58.9953 42.3872 58.6983 42.2543C58.3765 42.1102 58.0478 41.9835 57.7134 41.8734C56.5294 41.485 54.9919 41.1265 53.7766 41.5527C53.3299 41.7093 52.9972 42.035 52.9972 42.5413C52.9972 43.3243 53.747 43.7011 54.3597 43.9873C55.1189 44.3416 55.9285 44.5572 56.6856 44.9165C58.6512 45.8498 60.4784 47.4507 60.4784 49.8525L60.4792 49.8537Z" fill="#30A8FF"/>
</g>
<defs>
<clipPath id="clip0_2214_2801">
<rect width="50.2857" height="50.2857" fill="white" transform="translate(18.8906 19.6294)"/>
</clipPath>
</defs>
</svg>
