<svg width="41" height="40" viewBox="0 0 41 40" fill="none" xmlns="http://www.w3.org/2000/svg">
<path d="M35.1995 25.5418C35.5395 24.7318 34.5679 24.0418 33.7529 24.4018C32.1236 25.1161 30.3635 25.4839 28.5845 25.4818C21.6095 25.4818 15.9562 19.9418 15.9562 13.1068C15.9555 10.7993 16.611 8.53914 17.8462 6.5901C18.3195 5.84343 17.7512 4.8101 16.8845 5.0301C10.2029 6.7351 5.26953 12.6884 5.26953 19.7701C5.26953 28.1818 12.2279 35.0001 20.8129 35.0001C27.3129 35.0001 32.8795 31.0918 35.1995 25.5418Z" fill="white"/>
<path d="M26.2884 5.17157C25.405 4.58157 24.3517 5.6349 24.94 6.51823L25.99 8.09323C26.4164 8.73168 26.644 9.48218 26.644 10.2499C26.644 11.0176 26.4164 11.7681 25.99 12.4066L24.94 13.9816C24.3517 14.8649 25.4067 15.9182 26.29 15.3282L27.8634 14.2782C28.5018 13.8519 29.2523 13.6243 30.02 13.6243C30.7878 13.6243 31.5383 13.8519 32.1767 14.2782L33.7517 15.3282C34.635 15.9182 35.6884 14.8649 35.0984 13.9816L34.0484 12.4066C33.622 11.7681 33.3944 11.0176 33.3944 10.2499C33.3944 9.48218 33.622 8.73168 34.0484 8.09323L35.0984 6.51823C35.6884 5.6349 34.635 4.58157 33.75 5.17157L32.1767 6.22157C31.5383 6.64793 30.7878 6.87549 30.02 6.87549C29.2523 6.87549 28.5018 6.64793 27.8634 6.22157L26.2884 5.17157Z" fill="white"/>
</svg>
