<svg width="24" height="25" viewBox="0 0 24 25" fill="none" xmlns="http://www.w3.org/2000/svg">
<g id="uil:behance">
<path id="Vector" d="M20.07 7.12201H15V8.53201H20.09L20.07 7.12201ZM19 16.822C18.6154 17.0769 18.1612 17.2061 17.7 17.192C17.3947 17.2238 17.0862 17.1923 16.7937 17.0994C16.5011 17.0065 16.2309 16.8542 16 16.652C15.573 16.1679 15.3507 15.5369 15.38 14.892H22C22.0477 14.2206 21.9904 13.5458 21.83 12.892C21.6749 12.27 21.4034 11.683 21.03 11.162C20.6541 10.6566 20.1686 10.2429 19.61 9.95201C18.9884 9.64555 18.3029 9.49131 17.61 9.50201C16.9583 9.49724 16.3123 9.62305 15.71 9.87201C15.1585 10.1045 14.6588 10.4444 14.24 10.872C13.8224 11.3081 13.499 11.8255 13.29 12.392C13.0657 13.0036 12.9539 13.6507 12.96 14.302C12.9497 14.9626 13.0581 15.6197 13.28 16.242C13.4685 16.8055 13.7677 17.3257 14.16 17.772C14.5659 18.2102 15.0648 18.5519 15.62 18.772C16.2391 19.0079 16.8976 19.1233 17.56 19.112C18.4894 19.141 19.407 18.8977 20.2 18.412C21.0009 17.8429 21.5775 17.0115 21.83 16.062H19.62C19.5017 16.3761 19.284 16.643 19 16.822ZM15.57 12.702C15.6478 12.4527 15.777 12.2224 15.9493 12.0261C16.1215 11.8297 16.3329 11.6717 16.57 11.562C16.884 11.4207 17.2258 11.3523 17.57 11.362C17.8186 11.3408 18.0689 11.3736 18.3036 11.4582C18.5384 11.5427 18.7521 11.6771 18.93 11.852C19.2698 12.2679 19.4878 12.7698 19.56 13.302H15.41C15.4262 13.0988 15.463 12.8978 15.52 12.702H15.57ZM10.28 12.222C10.789 12.0101 11.2312 11.6646 11.56 11.222C11.8622 10.752 12.0124 10.2003 11.99 9.64201C12.0096 9.13285 11.9103 8.62612 11.7 8.16201C11.5233 7.75993 11.2397 7.41404 10.88 7.16201C10.4987 6.89998 10.0656 6.72267 9.61 6.64201C9.07082 6.52892 8.52087 6.47527 7.97 6.48201H2V19.062H8.1C8.65669 19.0624 9.21116 18.9918 9.75 18.852C10.2607 18.7199 10.7446 18.4999 11.18 18.202C11.6017 17.9097 11.9452 17.5182 12.18 17.062C12.4399 16.5518 12.5672 15.9844 12.55 15.412C12.5689 14.7027 12.37 14.0047 11.98 13.412C11.5606 12.8159 10.9385 12.3929 10.23 12.222H10.28ZM4.77 8.63201H7.36C7.59795 8.63172 7.83548 8.65179 8.07 8.69201C8.28595 8.72401 8.49334 8.79881 8.68 8.91201C8.86035 9.01402 9.00648 9.16712 9.1 9.35201C9.21582 9.57373 9.27102 9.82211 9.26 10.072C9.27863 10.2872 9.24572 10.5038 9.16399 10.7038C9.08225 10.9038 8.95405 11.0814 8.79 11.222C8.43212 11.468 8.00388 11.5909 7.57 11.572H4.77V8.63201ZM9.61 16.072C9.50726 16.2758 9.35189 16.4484 9.16 16.572C8.9603 16.6962 8.74027 16.7842 8.51 16.832C8.25406 16.8893 7.99224 16.9162 7.73 16.912H4.73V13.462H7.73C8.24482 13.4395 8.75322 13.5832 9.18 13.872C9.37281 14.045 9.52217 14.261 9.61599 14.5025C9.7098 14.744 9.74543 15.0042 9.72 15.262C9.74704 15.5369 9.70936 15.8143 9.61 16.072Z" fill="#121212"/>
</g>
</svg>
