<svg width="84" height="85" viewBox="0 0 84 85" fill="none" xmlns="http://www.w3.org/2000/svg">
<g id="Competitor Research Icon">
<rect y="0.772461" width="84" height="84" rx="20" fill="#F0F2F5"/>
<g id="Vector">
<path fill-rule="evenodd" clip-rule="evenodd" d="M58.2188 34.335C55.8206 34.335 53.6731 33.2439 52.2445 31.5328L45.0059 31.5331L43.0142 33.5248C48.7542 33.7613 53.3512 38.5041 53.3512 44.3013C53.3512 46.3316 52.7871 48.2325 51.8078 49.8559L54.0998 52.08C54.284 52.0081 54.4797 51.9697 54.6774 51.9664C54.8957 51.9623 55.1127 52.0015 55.3157 52.0819C55.5187 52.1622 55.7038 52.282 55.8602 52.4344L61.3718 57.7829C62.0296 58.4213 62.0454 59.4757 61.4072 60.1335L59.4172 62.1842C59.0918 62.5196 58.658 62.6881 58.2239 62.6881C57.7917 62.6889 57.3764 62.5208 57.0664 62.2197L51.5547 56.8713C51.0175 56.3501 50.9088 55.5514 51.2345 54.9178L49.1171 52.8631C47.2994 54.2576 45.0273 55.0877 42.5646 55.0877C41.3751 55.0887 40.1937 54.8921 39.0687 54.5059V57.4381C39.0687 57.5698 39.0341 57.6991 38.9683 57.8132C38.9024 57.9272 38.8077 58.0218 38.6937 58.0876L33.2292 61.2425C32.2613 64.4386 29.2892 66.7725 25.7812 66.7725C21.4906 66.7725 18 63.2819 18 58.9912C18 54.7006 21.4907 51.2102 25.7813 51.2102C30.072 51.2102 33.5626 54.7007 33.5626 58.9914C33.5626 59.1026 33.5588 59.2129 33.5542 59.3231L37.5687 57.0052V53.8588C34.1295 52.0538 31.7779 48.4472 31.7779 44.3012C31.7779 42.8626 32.0617 41.4891 32.5751 40.2331H29.5275C29.3958 40.2331 29.2665 40.1984 29.1525 40.1326C29.0385 40.0668 28.9438 39.9721 28.878 39.8581L25.6879 34.3326C21.4403 34.2822 18 30.8131 18 26.5537C18 22.2631 21.4906 18.7725 25.7812 18.7725C30.0719 18.7725 33.5625 22.2631 33.5625 26.5537C33.5625 30.3136 30.8819 33.4588 27.3315 34.1794L29.9605 38.733H33.3293C34.9215 36.102 37.6058 34.2031 40.7491 33.668L44.1647 30.2524C44.3054 30.1118 44.4961 30.0328 44.695 30.0328H51.2617C50.7189 28.9534 50.4366 27.7619 50.4375 26.5537C50.4375 22.2631 53.9281 18.7725 58.2188 18.7725C62.5094 18.7725 66 22.2631 66 26.5537C66 30.8444 62.5094 34.335 58.2188 34.335ZM58.2188 27.9819C56.2132 27.9819 54.5209 29.3946 54.1392 31.3241C55.2377 32.2648 56.6625 32.835 58.2188 32.835C59.775 32.835 61.1998 32.2648 62.2983 31.3241C61.9166 29.3946 60.2243 27.9819 58.2188 27.9819ZM56.4863 24.7492C56.4863 25.7045 57.2635 26.4818 58.2188 26.4818C59.1742 26.4818 59.9513 25.7045 59.9513 24.7492C59.9513 23.7939 59.1742 23.0167 58.2188 23.0167C57.2635 23.0167 56.4863 23.7939 56.4863 24.7492ZM64.5 26.5537C64.5 23.0902 61.6823 20.2725 58.2188 20.2725C54.7552 20.2725 51.9375 23.0902 51.9375 26.5537C51.9375 27.8276 52.3197 29.0134 52.9741 30.0046C53.5219 28.653 54.5719 27.5745 55.8848 26.9823C55.329 26.4015 54.9863 25.6149 54.9863 24.7493C54.9863 22.9669 56.4365 21.5168 58.2188 21.5168C60.0012 21.5168 61.4513 22.9668 61.4513 24.7493C61.4513 25.6149 61.1087 26.4015 60.5527 26.9823C61.8656 27.5746 62.9156 28.653 63.4634 30.0046C64.1178 29.0134 64.5 27.8276 64.5 26.5537ZM24.0488 24.7492C24.0488 25.7045 24.826 26.4818 25.7813 26.4818C26.7367 26.4818 27.5138 25.7045 27.5138 24.7492C27.5138 23.7939 26.7367 23.0167 25.7813 23.0167C24.826 23.0167 24.0488 23.7939 24.0488 24.7492ZM29.8608 31.324C29.4791 29.3945 27.7868 27.9818 25.7812 27.9818C23.7757 27.9818 22.0835 29.3945 21.7017 31.3241C22.8002 32.2648 24.225 32.835 25.7812 32.835C27.3375 32.835 28.7623 32.2648 29.8608 31.324ZM32.0625 26.5537C32.0625 23.0902 29.2448 20.2725 25.7812 20.2725C22.3177 20.2725 19.5 23.0902 19.5 26.5537C19.5 27.8276 19.8822 29.0134 20.5366 30.0046C21.0844 28.6529 22.1344 27.5744 23.4473 26.9823C22.8915 26.4015 22.5488 25.6149 22.5488 24.7493C22.5488 22.9669 23.999 21.5168 25.7813 21.5168C27.5637 21.5168 29.0138 22.9668 29.0138 24.7493C29.0138 25.6149 28.6712 26.4015 28.1153 26.9823C29.4281 27.5746 30.4781 28.653 31.0259 30.0046C31.6803 29.0134 32.0625 27.8276 32.0625 26.5537ZM25.7812 60.4193C23.7757 60.4193 22.0834 61.832 21.7017 63.7616C22.8002 64.7023 24.225 65.2725 25.7812 65.2725C27.3375 65.2725 28.7623 64.7023 29.8608 63.7616C29.479 61.832 27.7868 60.4193 25.7812 60.4193ZM24.0488 57.1867C24.0488 58.142 24.826 58.9192 25.7813 58.9192C26.7367 58.9192 27.5138 58.142 27.5138 57.1867C27.5138 56.2314 26.7367 55.4542 25.7813 55.4542C24.826 55.4542 24.0488 56.2314 24.0488 57.1867ZM28.1153 59.4197C29.4282 60.012 30.4781 61.0904 31.026 62.4421C31.6803 61.4509 32.0625 60.2651 32.0625 58.9912C32.0625 55.5277 29.2448 52.71 25.7812 52.71C22.3177 52.71 19.5 55.5277 19.5 58.9912C19.5 60.2651 19.8822 61.4509 20.5365 62.4421C21.0844 61.0903 22.1344 60.0119 23.4473 59.4196C22.8914 58.8389 22.5488 58.0523 22.5488 57.1867C22.5488 55.4043 23.999 53.9542 25.7813 53.9542C27.5637 53.9542 29.0138 55.4042 29.0138 57.1867C29.0138 58.0523 28.6713 58.8389 28.1153 59.4197ZM54.7026 53.4661H54.6998C54.6786 53.466 54.6575 53.4703 54.6379 53.4786C54.6183 53.4868 54.6005 53.4989 54.5857 53.5141L52.5956 55.565C52.5662 55.5962 52.5501 55.6377 52.5507 55.6806C52.5514 55.7235 52.5687 55.7644 52.5991 55.7947L58.1107 61.143C58.142 61.1724 58.1834 61.1885 58.2263 61.1878C58.2692 61.1872 58.3101 61.1698 58.3404 61.1395L60.3305 59.0888C60.3917 59.0256 60.3901 58.9204 60.3269 58.8591L54.8153 53.5108C54.7776 53.474 54.7337 53.4661 54.7026 53.4661ZM52.2272 53.7908L52.9458 53.0503L50.9337 51.0977C50.7163 51.3649 50.4864 51.6216 50.2447 51.867L52.2272 53.7908ZM42.5645 53.5877C47.6851 53.5877 51.8511 49.4218 51.8511 44.3011C51.8511 39.1805 47.6851 35.0145 42.5645 35.0145C37.4438 35.0145 33.2778 39.1805 33.2778 44.3011C33.2778 49.4218 37.4438 53.5877 42.5645 53.5877ZM42.5646 52.1771C38.2218 52.1771 34.6885 48.6438 34.6885 44.3011C34.6885 39.9582 38.2218 36.4251 42.5646 36.4251C46.9073 36.4251 50.4406 39.9583 50.4406 44.3011C50.4406 48.6438 46.9073 52.1771 42.5646 52.1771ZM42.5645 50.6771C46.0802 50.6771 48.9405 47.8168 48.9405 44.3011C48.9405 40.7853 46.0802 37.9251 42.5645 37.9251C39.0487 37.9251 36.1884 40.7853 36.1884 44.3011C36.1884 47.8168 39.0487 50.6771 42.5645 50.6771Z" fill="#121212"/>
<path d="M58.2188 26.4818C57.2635 26.4818 56.4863 25.7045 56.4863 24.7492C56.4863 23.7939 57.2635 23.0167 58.2188 23.0167C59.1742 23.0167 59.9513 23.7939 59.9513 24.7492C59.9513 25.7045 59.1742 26.4818 58.2188 26.4818Z" fill="#E37300"/>
<path d="M25.7813 26.4818C24.826 26.4818 24.0488 25.7045 24.0488 24.7492C24.0488 23.7939 24.826 23.0167 25.7813 23.0167C26.7367 23.0167 27.5138 23.7939 27.5138 24.7492C27.5138 25.7045 26.7367 26.4818 25.7813 26.4818Z" fill="#E37300"/>
<path d="M25.7813 58.9192C24.826 58.9192 24.0488 58.142 24.0488 57.1867C24.0488 56.2314 24.826 55.4542 25.7813 55.4542C26.7367 55.4542 27.5138 56.2314 27.5138 57.1867C27.5138 58.142 26.7367 58.9192 25.7813 58.9192Z" fill="#E37300"/>
<path d="M48.9405 44.3011C48.9405 47.8168 46.0802 50.6771 42.5645 50.6771C39.0487 50.6771 36.1884 47.8168 36.1884 44.3011C36.1884 40.7853 39.0487 37.9251 42.5645 37.9251C46.0802 37.9251 48.9405 40.7853 48.9405 44.3011Z" fill="#D9D9D9"/>
<path d="M54.6998 53.4661H54.7026C54.7337 53.4661 54.7776 53.474 54.8153 53.5108L60.3269 58.8591C60.3901 58.9204 60.3917 59.0256 60.3305 59.0888L58.3404 61.1395C58.3101 61.1698 58.2692 61.1872 58.2263 61.1878C58.1834 61.1885 58.142 61.1724 58.1107 61.143L52.5991 55.7947C52.5687 55.7644 52.5514 55.7235 52.5507 55.6806C52.5501 55.6377 52.5662 55.5962 52.5956 55.565L54.5857 53.5141C54.6005 53.4989 54.6183 53.4868 54.6379 53.4786C54.6575 53.4703 54.6786 53.466 54.6998 53.4661Z" fill="#121212"/>
<path fill-rule="evenodd" clip-rule="evenodd" d="M51.8511 44.3011C51.8511 49.4218 47.6851 53.5877 42.5645 53.5877C37.4438 53.5877 33.2778 49.4218 33.2778 44.3011C33.2778 39.1805 37.4438 35.0145 42.5645 35.0145C47.6851 35.0145 51.8511 39.1805 51.8511 44.3011ZM42.5646 52.1771C38.2218 52.1771 34.6885 48.6438 34.6885 44.3011C34.6885 39.9582 38.2218 36.4251 42.5646 36.4251C46.9073 36.4251 50.4406 39.9583 50.4406 44.3011C50.4406 48.6438 46.9073 52.1771 42.5646 52.1771Z" fill="white"/>
<path d="M52.9458 53.0503L52.2272 53.7908L50.2447 51.867C50.4864 51.6216 50.7163 51.3649 50.9337 51.0977L52.9458 53.0503Z" fill="white"/>
<path d="M54.1392 31.3241C54.5209 29.3946 56.2132 27.9819 58.2188 27.9819C60.2243 27.9819 61.9166 29.3946 62.2983 31.3241C61.1998 32.2648 59.775 32.835 58.2188 32.835C56.6625 32.835 55.2377 32.2648 54.1392 31.3241Z" fill="white"/>
<path d="M25.7812 27.9818C27.7868 27.9818 29.4791 29.3945 29.8608 31.324C28.7623 32.2648 27.3375 32.835 25.7812 32.835C24.225 32.835 22.8002 32.2648 21.7017 31.3241C22.0835 29.3945 23.7757 27.9818 25.7812 27.9818Z" fill="white"/>
<path d="M21.7017 63.7616C22.0834 61.832 23.7757 60.4193 25.7812 60.4193C27.7868 60.4193 29.479 61.832 29.8608 63.7616C28.7623 64.7023 27.3375 65.2725 25.7812 65.2725C24.225 65.2725 22.8002 64.7023 21.7017 63.7616Z" fill="white"/>
<path d="M31.026 62.4421C30.4781 61.0904 29.4282 60.012 28.1153 59.4197C28.6713 58.8389 29.0138 58.0523 29.0138 57.1867C29.0138 55.4042 27.5637 53.9542 25.7813 53.9542C23.999 53.9542 22.5488 55.4043 22.5488 57.1867C22.5488 58.0523 22.8914 58.8389 23.4473 59.4196C22.1344 60.0119 21.0844 61.0903 20.5365 62.4421C19.8822 61.4509 19.5 60.2651 19.5 58.9912C19.5 55.5277 22.3177 52.71 25.7812 52.71C29.2448 52.71 32.0625 55.5277 32.0625 58.9912C32.0625 60.2651 31.6803 61.4509 31.026 62.4421Z" fill="white"/>
<path d="M25.7812 20.2725C29.2448 20.2725 32.0625 23.0902 32.0625 26.5537C32.0625 27.8276 31.6803 29.0134 31.0259 30.0046C30.4781 28.653 29.4281 27.5746 28.1153 26.9823C28.6712 26.4015 29.0138 25.6149 29.0138 24.7493C29.0138 22.9668 27.5637 21.5168 25.7813 21.5168C23.999 21.5168 22.5488 22.9669 22.5488 24.7493C22.5488 25.6149 22.8915 26.4015 23.4473 26.9823C22.1344 27.5744 21.0844 28.6529 20.5366 30.0046C19.8822 29.0134 19.5 27.8276 19.5 26.5537C19.5 23.0902 22.3177 20.2725 25.7812 20.2725Z" fill="white"/>
<path d="M58.2188 20.2725C61.6823 20.2725 64.5 23.0902 64.5 26.5537C64.5 27.8276 64.1178 29.0134 63.4634 30.0046C62.9156 28.653 61.8656 27.5746 60.5527 26.9823C61.1087 26.4015 61.4513 25.6149 61.4513 24.7493C61.4513 22.9668 60.0012 21.5168 58.2188 21.5168C56.4365 21.5168 54.9863 22.9669 54.9863 24.7493C54.9863 25.6149 55.329 26.4015 55.8848 26.9823C54.5719 27.5745 53.5219 28.653 52.9741 30.0046C52.3197 29.0134 51.9375 27.8276 51.9375 26.5537C51.9375 23.0902 54.7552 20.2725 58.2188 20.2725Z" fill="white"/>
</g>
</g>
</svg>
