<svg xmlns="http://www.w3.org/2000/svg" width="357" height="298" fill="none" xmlns:v="https://vecta.io/nano"><style><![CDATA[.B{stroke:#fff}.C{stroke-linecap:round}.D{fill:#262a36}.E{stroke-width:.587}.F{fill:#fff}.G{stroke-width:1.174}]]></style><g filter="url(#A)"><rect x="2.933" y="2.781" width="351.133" height="292.929" rx="10" class="F"/><path d="M55.44 50.109h3.407l4.074 7.368h.163l4.074-7.368h3.407l-6.058 10.442v6.213h-3.009v-6.213L55.44 50.109zm20.255 16.899c-1.22 0-2.277-.268-3.172-.805s-1.588-1.288-2.082-2.253c-.488-.965-.732-2.093-.732-3.383s.244-2.421.732-3.391c.493-.97 1.187-1.724 2.082-2.261s1.952-.805 3.172-.805 2.277.268 3.171.805 1.586 1.29 2.074 2.261c.493.971.74 2.101.74 3.391s-.247 2.418-.74 3.383c-.488.965-1.179 1.716-2.074 2.253s-1.952.805-3.171.805zm.016-2.358c.661 0 1.214-.182 1.659-.545.445-.369.775-.862.992-1.48.222-.618.333-1.306.333-2.065 0-.764-.111-1.456-.333-2.074-.217-.623-.548-1.12-.992-1.488s-.997-.553-1.659-.553c-.678 0-1.242.184-1.692.553-.445.369-.778.865-1 1.488-.217.618-.325 1.309-.325 2.074 0 .759.108 1.447.325 2.066.222.618.556 1.111 1 1.48.45.363 1.014.545 1.692.545zM92.14 61.51v-7.238h2.944v12.491h-2.854v-2.22h-.13c-.282.699-.745 1.271-1.391 1.716-.64.444-1.428.667-2.366.667-.819 0-1.542-.182-2.171-.545-.623-.369-1.111-.903-1.464-1.602-.352-.705-.529-1.556-.529-2.553v-7.953h2.944v7.498c0 .791.217 1.42.65 1.887s1.003.699 1.708.699a2.7 2.7 0 0 0 1.26-.317c.407-.211.74-.526 1-.943.266-.423.398-.952.398-1.586zm5.971 5.253V54.273h2.854v2.082h.13c.228-.721.618-1.277 1.171-1.667.559-.396 1.196-.594 1.911-.594l.545.024c.206.011.377.03.512.057v2.708c-.124-.043-.322-.081-.593-.114-.266-.038-.523-.057-.773-.057-.537 0-1.019.117-1.447.35a2.56 2.56 0 0 0-1.001.951c-.244.407-.366.876-.366 1.407v7.343h-2.943zm29.145-11.035h-3.041c-.087-.499-.247-.941-.48-1.325a3.56 3.56 0 0 0-.87-.992c-.347-.271-.743-.474-1.188-.61-.439-.141-.913-.212-1.423-.212-.905 0-1.707.228-2.407.683-.699.45-1.247 1.111-1.642 1.984-.396.867-.594 1.927-.594 3.18 0 1.274.198 2.348.594 3.22.401.867.948 1.523 1.642 1.968.7.439 1.499.659 2.399.659.499 0 .965-.065 1.399-.195a3.83 3.83 0 0 0 1.179-.594 3.49 3.49 0 0 0 .887-.96c.243-.379.412-.813.504-1.301l3.041.016a6.54 6.54 0 0 1-.74 2.228 6.57 6.57 0 0 1-1.472 1.838c-.607.526-1.317.938-2.13 1.236-.814.293-1.716.439-2.708.439-1.464 0-2.771-.339-3.92-1.016s-2.055-1.656-2.716-2.936-.992-2.814-.992-4.603c0-1.794.333-3.329 1-4.603.667-1.279 1.575-2.258 2.724-2.936s2.451-1.017 3.904-1.017c.927 0 1.789.13 2.586.39s1.507.642 2.13 1.147c.624.499 1.136 1.111 1.537 1.838.407.721.672 1.545.797 2.472zm10.594 5.782v-7.238h2.944v12.491h-2.854v-2.22h-.13c-.282.699-.746 1.271-1.391 1.716s-1.429.667-2.366.667c-.819 0-1.543-.182-2.172-.545-.623-.369-1.111-.903-1.464-1.602-.352-.705-.528-1.556-.528-2.553v-7.953h2.944v7.498c0 .791.217 1.42.65 1.887s1.003.699 1.708.699c.434 0 .854-.106 1.26-.317a2.56 2.56 0 0 0 1.001-.943c.265-.423.398-.952.398-1.586zm5.971 5.253V54.273h2.855v2.082h.13c.227-.721.618-1.277 1.171-1.667a3.22 3.22 0 0 1 1.911-.594l.545.024c.206.011.376.03.512.057v2.708c-.125-.043-.323-.081-.594-.114a5.46 5.46 0 0 0-.772-.057c-.537 0-1.019.117-1.448.35-.423.228-.756.545-1 .951s-.366.876-.366 1.407v7.343h-2.944zm9.08 0V54.273h2.854v2.082h.13c.228-.721.618-1.277 1.171-1.667.559-.396 1.196-.594 1.911-.594l.545.024c.206.011.377.03.512.057v2.708c-.124-.043-.322-.081-.593-.114-.266-.038-.523-.057-.773-.057-.536 0-1.019.117-1.447.35a2.56 2.56 0 0 0-1.001.951c-.243.407-.365.876-.365 1.407v7.343h-2.944zm14.095.244c-1.253 0-2.334-.26-3.245-.781a5.29 5.29 0 0 1-2.09-2.228c-.488-.965-.732-2.101-.732-3.407 0-1.285.244-2.413.732-3.383a5.53 5.53 0 0 1 2.066-2.277c.883-.548 1.921-.821 3.114-.821a6.31 6.31 0 0 1 2.18.374 4.93 4.93 0 0 1 1.821 1.139c.531.515.949 1.171 1.252 1.968.304.791.456 1.735.456 2.83v.903h-10.238v-1.984h7.416c-.005-.564-.127-1.065-.366-1.505a2.66 2.66 0 0 0-1-1.049c-.423-.255-.916-.382-1.48-.382-.602 0-1.131.146-1.586.439a3.03 3.03 0 0 0-1.065 1.139c-.25.466-.377.979-.382 1.537v1.732c0 .726.132 1.35.398 1.87.266.515.637.911 1.114 1.187.477.271 1.036.407 1.675.407.429 0 .816-.06 1.163-.179.347-.125.648-.306.903-.545s.447-.534.577-.886l2.749.309a4.29 4.29 0 0 1-.992 1.903c-.483.537-1.101.954-1.854 1.252-.754.293-1.616.439-2.586.439zm10.988-7.563v7.319h-2.944V54.273h2.814v2.122H178c.288-.699.746-1.255 1.375-1.667s1.417-.618 2.35-.618c.862 0 1.613.184 2.253.553s1.143.903 1.496 1.602c.358.699.534 1.548.528 2.545v7.953h-2.943v-7.498c0-.835-.217-1.488-.651-1.96-.428-.472-1.022-.707-1.781-.707-.515 0-.973.114-1.374.342a2.36 2.36 0 0 0-.935.968c-.223.423-.334.935-.334 1.537zm17.248-5.172v2.277h-7.18v-2.277h7.18zm-5.407-2.993h2.943v11.727c0 .396.06.699.179.911a.97.97 0 0 0 .488.423c.201.076.423.114.667.114a2.88 2.88 0 0 0 .504-.041l.358-.073.496 2.301c-.157.054-.382.114-.675.179-.287.065-.64.103-1.057.114-.737.022-1.402-.089-1.992-.333a3.1 3.1 0 0 1-1.407-1.155c-.342-.52-.51-1.171-.504-1.952V51.28zm13.68 15.484V50.109h6.245c1.28 0 2.353.222 3.221.667s1.531 1.068 1.976 1.87c.45.797.675 1.727.675 2.789 0 1.068-.228 1.995-.684 2.781-.449.781-1.114 1.385-1.992 1.813-.878.423-1.957.634-3.236.634h-4.449V58.16h4.042c.748 0 1.361-.103 1.838-.309.477-.211.829-.518 1.057-.919.233-.407.35-.905.35-1.496s-.117-1.095-.35-1.513c-.233-.423-.588-.743-1.065-.96-.477-.222-1.093-.333-1.846-.333h-2.765v14.134h-3.017zm8.604-7.547l4.122 7.547h-3.366l-4.05-7.547h3.294zm11.429 7.79c-1.22 0-2.277-.268-3.171-.805s-1.589-1.288-2.082-2.253-.732-2.093-.732-3.383.244-2.421.732-3.391a5.45 5.45 0 0 1 2.082-2.261c.894-.537 1.951-.805 3.171-.805s2.277.268 3.172.805 1.585 1.29 2.073 2.261c.494.971.74 2.101.74 3.391s-.246 2.418-.74 3.383c-.488.965-1.179 1.716-2.073 2.253s-1.952.805-3.172.805zm.016-2.358c.662 0 1.215-.182 1.659-.545.445-.369.776-.862.993-1.48.222-.618.333-1.306.333-2.065 0-.764-.111-1.456-.333-2.074-.217-.623-.548-1.12-.993-1.488s-.997-.553-1.659-.553c-.677 0-1.241.184-1.691.553s-.778.865-1 1.488c-.217.618-.326 1.309-.326 2.074 0 .759.109 1.447.326 2.066s.555 1.111 1 1.48c.45.363 1.014.545 1.691.545zm16.429-3.139v-7.238h2.944v12.491h-2.854v-2.22h-.13c-.282.699-.746 1.271-1.391 1.716-.64.444-1.428.667-2.366.667-.819 0-1.543-.182-2.172-.545-.623-.369-1.111-.903-1.463-1.602-.353-.705-.529-1.556-.529-2.553v-7.953h2.944v7.498c0 .791.217 1.42.65 1.887s1.003.699 1.708.699a2.7 2.7 0 0 0 1.261-.317c.406-.211.74-.526 1-.943.266-.423.398-.952.398-1.586zm12.209-7.238v2.277h-7.181v-2.277h7.181zm-5.408-2.993h2.944v11.727c0 .396.059.699.179.911.124.206.287.347.487.423s.423.114.667.114c.185 0 .353-.014.504-.041l.358-.073.496 2.301c-.157.054-.382.114-.675.179a5.51 5.51 0 0 1-1.057.114c-.737.022-1.401-.089-1.992-.333a3.1 3.1 0 0 1-1.407-1.155c-.342-.52-.51-1.171-.504-1.952V51.28zm7.87 15.484V54.273h2.943v12.491h-2.943zm1.48-14.264c-.467 0-.868-.154-1.204-.464-.336-.314-.504-.691-.504-1.13 0-.445.168-.821.504-1.13a1.7 1.7 0 0 1 1.204-.472 1.68 1.68 0 0 1 1.203.472c.336.309.504.686.504 1.13 0 .439-.168.816-.504 1.13-.33.309-.732.464-1.203.464zm7.434 6.945v7.319h-2.943V54.273h2.813v2.122h.147c.287-.699.745-1.255 1.374-1.667s1.418-.618 2.35-.618c.862 0 1.613.184 2.253.553s1.144.903 1.496 1.602c.358.699.534 1.548.529 2.545v7.953h-2.944v-7.498c0-.835-.217-1.488-.651-1.96-.428-.472-1.022-.707-1.781-.707-.515 0-.973.114-1.374.342-.396.222-.707.545-.935.968-.222.423-.334.935-.334 1.537zm16.541 7.563c-1.252 0-2.334-.26-3.245-.781a5.29 5.29 0 0 1-2.09-2.228c-.487-.965-.731-2.101-.731-3.407 0-1.285.244-2.413.731-3.383.494-.976 1.182-1.735 2.066-2.277.884-.548 1.922-.821 3.115-.821.769 0 1.496.125 2.179.374.689.244 1.296.624 1.822 1.139s.948 1.171 1.252 1.968c.304.791.455 1.735.455 2.83v.903h-10.238v-1.984h7.417c-.006-.564-.128-1.065-.366-1.505a2.66 2.66 0 0 0-1.001-1.049c-.423-.255-.916-.382-1.48-.382-.601 0-1.13.146-1.585.439-.456.287-.811.667-1.066 1.139-.249.466-.377.979-.382 1.537v1.732c0 .726.133 1.35.398 1.87.266.515.638.911 1.115 1.187.477.271 1.035.407 1.675.407.428 0 .816-.06 1.163-.179a2.57 2.57 0 0 0 .902-.545c.255-.239.448-.534.578-.886l2.748.309a4.28 4.28 0 0 1-.992 1.903c-.482.537-1.1.954-1.854 1.252-.753.293-1.615.439-2.586.439z" class="D"/><use href="#H" transform="translate(54.935 88.18)" class="D"/><path d="M91.905 90.379l-34.989 34.989" class="B C G"/><path d="M57.046 90.244l35.078 35.078" class="B C G"/><use href="#I" transform="translate(230.74 98.914)" class="D"/><path d="M249.225 100.014l-17.494 17.494" class="B C E"/><path d="M231.796 99.945l17.539 17.539" class="B C E"/><g clip-path="url(#B)"><use href="#I" transform="translate(254.356 99.152)" class="D"/><path d="M272.841 100.252l-17.495 17.495" class="B C E"/><path d="M255.411 100.184l17.54 17.539" class="B C E"/></g><g clip-path="url(#C)"><use href="#I" transform="translate(277.734 99.391)" class="D"/><path d="M296.218 100.49l-17.495 17.495" class="B C E"/><path d="M278.789 100.422l17.539 17.539" class="B C E"/></g><rect x="105.506" y="118.234" width="107.821" height="9.542" rx="4.771" class="D"/><path d="M108.103 110.656V94.002h6.246c1.279 0 2.353.222 3.22.667.873.445 1.532 1.068 1.976 1.87.45.797.675 1.727.675 2.789 0 1.068-.227 1.995-.683 2.781-.45.781-1.114 1.386-1.992 1.814s-1.957.634-3.237.634h-4.448v-2.505h4.042c.748 0 1.36-.103 1.837-.309s.83-.517 1.058-.918c.233-.407.349-.906.349-1.497s-.116-1.095-.349-1.512c-.234-.423-.589-.743-1.066-.96-.477-.222-1.092-.333-1.846-.333h-2.765v14.133h-3.017zm8.604-7.546l4.123 7.546h-3.367l-4.049-7.546h3.293zm11.43 7.79c-1.22 0-2.277-.268-3.172-.805s-1.588-1.287-2.082-2.252c-.487-.965-.731-2.093-.731-3.383s.244-2.421.731-3.391c.494-.971 1.188-1.725 2.082-2.261s1.952-.805 3.172-.805 2.277.268 3.171.805 1.586 1.29 2.074 2.261.74 2.1.74 3.391-.247 2.418-.74 3.383a5.41 5.41 0 0 1-2.074 2.252c-.894.537-1.951.805-3.171.805zm.016-2.358c.661 0 1.214-.182 1.659-.545.445-.369.775-.862.992-1.48s.334-1.307.334-2.066-.112-1.455-.334-2.073c-.217-.624-.547-1.12-.992-1.488s-.998-.553-1.659-.553c-.678 0-1.241.184-1.691.553s-.778.864-1.001 1.488c-.217.618-.325 1.309-.325 2.073s.108 1.448.325 2.066c.223.618.556 1.111 1.001 1.48.45.363 1.013.545 1.691.545zm16.429-3.139v-7.238h2.944v12.491h-2.855v-2.22h-.13a3.75 3.75 0 0 1-1.39 1.716c-.64.445-1.429.667-2.367.667-.818 0-1.542-.182-2.171-.545-.623-.369-1.111-.903-1.464-1.602-.352-.705-.528-1.556-.528-2.553v-7.954h2.943v7.498c0 .792.217 1.421.651 1.887s1.003.699 1.708.699c.433 0 .854-.106 1.26-.317s.74-.526 1-.943c.266-.423.399-.952.399-1.586zm12.208-7.238v2.277h-7.18v-2.277h7.18zm-5.408-2.993h2.944v11.726c0 .396.06.7.179.911.125.206.287.347.488.423a1.87 1.87 0 0 0 .667.114 2.89 2.89 0 0 0 .504-.041l.358-.073.496 2.301c-.157.054-.382.114-.675.179-.287.065-.64.103-1.057.114-.737.022-1.402-.089-1.993-.333a3.11 3.11 0 0 1-1.406-1.155c-.342-.521-.51-1.171-.505-1.952V95.173zm7.87 15.483V98.165h2.944v12.491h-2.944zm1.48-14.264c-.466 0-.867-.154-1.203-.463-.336-.314-.504-.691-.504-1.13 0-.445.168-.821.504-1.13a1.7 1.7 0 0 1 1.203-.472c.472 0 .873.157 1.204.472.336.309.504.686.504 1.13 0 .439-.168.816-.504 1.13a1.7 1.7 0 0 1-1.204.463zm7.435 6.945v7.319h-2.944V98.165h2.814v2.123h.146c.288-.7.746-1.255 1.375-1.667.634-.412 1.417-.618 2.35-.618.862 0 1.613.184 2.252.553.646.369 1.144.903 1.497 1.602s.534 1.548.528 2.545v7.953h-2.943v-7.498c0-.834-.217-1.488-.651-1.959-.428-.472-1.022-.708-1.781-.708a2.73 2.73 0 0 0-1.374.342c-.396.222-.708.545-.935.967s-.334.936-.334 1.537zm16.541 7.563c-1.253 0-2.334-.26-3.245-.78a5.29 5.29 0 0 1-2.09-2.229c-.488-.965-.732-2.1-.732-3.407 0-1.285.244-2.413.732-3.383a5.53 5.53 0 0 1 2.066-2.277c.883-.547 1.922-.821 3.114-.821.77 0 1.497.125 2.18.374.688.244 1.295.623 1.821 1.138.532.515.949 1.171 1.253 1.968s.455 1.735.455 2.83v.903h-10.238v-1.984h7.416c-.005-.564-.127-1.066-.366-1.505-.238-.444-.572-.794-1-1.049s-.916-.382-1.48-.382c-.602 0-1.13.146-1.586.439-.455.287-.81.667-1.065 1.139a3.26 3.26 0 0 0-.382 1.537v1.732c0 .726.132 1.35.398 1.87.266.515.637.911 1.114 1.187s1.036.407 1.675.407c.429 0 .816-.06 1.163-.179a2.58 2.58 0 0 0 .903-.545c.255-.238.447-.534.577-.886l2.749.309a4.28 4.28 0 0 1-.992 1.903c-.483.536-1.101.954-1.854 1.252s-1.616.439-2.586.439zm15.994-.244h-3.221l5.864-16.654h3.724l5.871 16.654h-3.22l-4.448-13.239h-.13l-4.44 13.239zm.105-6.53h8.783v2.424h-8.783v-2.424z" class="D"/><use href="#H" transform="translate(55.89 151.156)" class="D"/><path d="M92.859 153.355l-34.989 34.99" class="B C G"/><path d="M58 153.223l35.078 35.078" class="B C G"/><use href="#I" transform="translate(231.695 161.895)" class="D"/><path d="M250.179 162.996l-17.494 17.495" class="B C E"/><path d="M232.75 162.926l17.539 17.539" class="B C E"/><g clip-path="url(#D)"><use href="#I" transform="translate(255.31 162.133)" class="D"/><path d="M273.795 163.234L256.3 180.729" class="B C E"/><path d="M256.366 163.168l17.539 17.539" class="B C E"/></g><g clip-path="url(#E)"><use href="#I" transform="translate(278.688 162.371)" class="D"/><path d="M297.172 163.473l-17.495 17.494" class="B C E"/><path d="M279.743 163.406l17.539 17.539" class="B C E"/></g><rect x="106.46" y="181.215" width="107.821" height="9.542" rx="4.771" class="D"/><path d="M109.057 173.633v-16.655h6.246c1.279 0 2.352.223 3.22.667.873.445 1.531 1.068 1.976 1.87.45.797.675 1.727.675 2.79s-.228 1.995-.683 2.781c-.45.781-1.114 1.385-1.993 1.813s-1.957.635-3.236.635h-4.448v-2.505h4.041c.748 0 1.361-.103 1.838-.309.477-.211.83-.518 1.057-.919.233-.407.35-.905.35-1.496s-.117-1.095-.35-1.513-.588-.743-1.065-.959c-.477-.223-1.092-.334-1.846-.334h-2.765v14.134h-3.017zm8.604-7.547l4.123 7.547h-3.367l-4.05-7.547h3.294zm11.43 7.791c-1.22 0-2.277-.269-3.172-.805a5.47 5.47 0 0 1-2.082-2.253c-.488-.965-.732-2.093-.732-3.383s.244-2.421.732-3.391c.494-.97 1.187-1.724 2.082-2.261s1.952-.805 3.172-.805 2.277.269 3.171.805 1.586 1.291 2.074 2.261.74 2.101.74 3.391-.247 2.418-.74 3.383-1.179 1.716-2.074 2.253-1.952.805-3.171.805zm.016-2.359c.661 0 1.214-.181 1.659-.544.444-.369.775-.862.992-1.48s.333-1.307.333-2.066-.111-1.456-.333-2.074c-.217-.623-.548-1.119-.992-1.488s-.998-.553-1.659-.553c-.678 0-1.242.185-1.692.553-.444.369-.778.865-1 1.488-.217.618-.325 1.31-.325 2.074s.108 1.448.325 2.066.556 1.111 1 1.48c.45.363 1.014.544 1.692.544zm16.429-3.139v-7.237h2.944v12.491h-2.855v-2.22h-.13c-.282.699-.745 1.271-1.391 1.716-.639.444-1.428.666-2.366.666-.819 0-1.542-.181-2.171-.544-.624-.369-1.112-.903-1.464-1.602-.352-.705-.529-1.556-.529-2.554v-7.953h2.944v7.498c0 .791.217 1.42.651 1.886s1.003.7 1.707.7c.434 0 .854-.106 1.261-.317a2.56 2.56 0 0 0 1-.944c.266-.423.399-.951.399-1.586zm12.208-7.237v2.277h-7.181v-2.277h7.181zm-5.408-2.993h2.944v11.727c0 .396.06.699.179.911a.96.96 0 0 0 .488.422c.2.076.423.114.667.114.184 0 .352-.013.504-.04l.358-.074.496 2.302c-.158.054-.382.114-.675.179a5.55 5.55 0 0 1-1.057.114c-.738.021-1.402-.09-1.993-.334s-1.06-.634-1.407-1.155c-.341-.52-.509-1.171-.504-1.951v-12.215zm7.87 15.484v-12.491h2.944v12.491h-2.944zm1.48-14.264a1.72 1.72 0 0 1-1.204-.463c-.336-.315-.504-.692-.504-1.131 0-.444.168-.821.504-1.13a1.7 1.7 0 0 1 1.204-.472 1.68 1.68 0 0 1 1.204.472c.336.309.504.686.504 1.13 0 .439-.168.816-.504 1.131-.331.309-.732.463-1.204.463zm7.435 6.945v7.319h-2.944v-12.491h2.814v2.122h.146c.287-.699.746-1.255 1.374-1.667.635-.412 1.418-.618 2.351-.618.862 0 1.612.185 2.252.553s1.144.903 1.496 1.602c.358.7.534 1.548.529 2.546v7.953h-2.944v-7.498c0-.835-.217-1.488-.65-1.96s-1.022-.707-1.781-.707c-.515 0-.973.114-1.375.341-.395.223-.707.545-.935.968-.222.423-.333.935-.333 1.537zm16.541 7.563c-1.253 0-2.334-.26-3.245-.781-.906-.526-1.602-1.269-2.09-2.228-.488-.965-.732-2.101-.732-3.407 0-1.285.244-2.413.732-3.383.493-.976 1.182-1.735 2.065-2.277.884-.548 1.922-.822 3.115-.822a6.31 6.31 0 0 1 2.179.374c.689.244 1.296.624 1.822 1.139s.949 1.171 1.252 1.968c.304.791.456 1.735.456 2.83v.902h-10.239v-1.984h7.417c-.006-.564-.127-1.065-.366-1.504-.239-.445-.572-.794-1-1.049s-.917-.382-1.48-.382c-.602 0-1.131.146-1.586.439-.455.287-.811.666-1.065 1.138-.25.466-.377.979-.383 1.537v1.732c0 .727.133 1.35.399 1.871.266.515.637.91 1.114 1.187.477.271 1.035.407 1.675.407a3.57 3.57 0 0 0 1.163-.179c.347-.125.648-.307.903-.545s.447-.534.577-.887l2.749.309c-.174.727-.504 1.361-.992 1.903s-1.101.954-1.854 1.253c-.754.292-1.616.439-2.586.439zm13.855-.244v-16.655h6.375c1.204 0 2.204.19 3.001.57.802.374 1.401.886 1.797 1.536.401.651.602 1.388.602 2.212 0 .678-.13 1.258-.39 1.741-.261.477-.61.864-1.05 1.163s-.929.512-1.471.642v.163c.591.032 1.157.214 1.699.545.548.325.995.786 1.342 1.382s.52 1.317.52 2.163c0 .862-.208 1.637-.626 2.326-.417.683-1.046 1.222-1.886 1.618s-1.898.594-3.172.594h-6.741zm3.017-2.521h3.244c1.095 0 1.884-.209 2.367-.626.488-.423.732-.965.732-1.627 0-.493-.122-.938-.366-1.333-.244-.402-.591-.716-1.041-.944s-.987-.349-1.61-.349h-3.326v4.879zm0-7.051h2.984c.521 0 .989-.095 1.407-.284a2.37 2.37 0 0 0 .984-.822c.244-.357.366-.78.366-1.268 0-.645-.228-1.177-.683-1.594s-1.12-.626-2.009-.626h-3.049v4.594z" class="D"/><use href="#H" transform="translate(55.89 214.129)" class="D"/><path d="M92.859 216.328L57.87 251.317" class="B C G"/><path d="M58 216.195l35.078 35.079" class="B C G"/><use href="#I" transform="translate(231.695 224.863)" class="D"/><path d="M250.179 225.965L232.685 243.46" class="B C E"/><path d="M232.75 225.898l17.539 17.54" class="B C E"/><g clip-path="url(#F)"><use href="#I" transform="translate(255.311 225.102)" class="D"/><path d="M273.796 226.203l-17.495 17.495" class="B C E"/><path d="M256.366 226.137l17.54 17.539" class="B C E"/></g><g clip-path="url(#G)"><use href="#I" transform="translate(278.688 225.34)" class="D"/><path d="M297.172 226.441l-17.494 17.495" class="B C E"/><path d="M279.743 226.375l17.539 17.539" class="B C E"/></g><rect x="106.46" y="244.188" width="107.821" height="9.542" rx="4.771" class="D"/><path d="M109.057 236.609v-16.654h6.245c1.28 0 2.353.222 3.221.667.873.444 1.531 1.068 1.976 1.87.45.797.675 1.727.675 2.789 0 1.068-.228 1.995-.683 2.782-.45.78-1.114 1.385-1.993 1.813s-1.957.634-3.236.634h-4.448v-2.504h4.041c.748 0 1.361-.103 1.838-.309.477-.212.83-.518 1.057-.919.233-.407.35-.906.35-1.497s-.117-1.095-.35-1.512c-.233-.423-.588-.743-1.065-.96s-1.093-.333-1.846-.333h-2.765v14.133h-3.017zm8.604-7.546l4.123 7.546h-3.367l-4.05-7.546h3.294zm11.429 7.79c-1.219 0-2.277-.268-3.171-.805s-1.589-1.287-2.082-2.252-.732-2.093-.732-3.383.244-2.421.732-3.391 1.187-1.724 2.082-2.261 1.952-.805 3.171-.805 2.277.268 3.172.805 1.586 1.29 2.074 2.261.74 2.1.74 3.391-.247 2.418-.74 3.383-1.18 1.716-2.074 2.252-1.952.805-3.172.805zm.017-2.358c.661 0 1.214-.182 1.659-.545s.775-.862.992-1.48.333-1.306.333-2.065c0-.765-.111-1.456-.333-2.074-.217-.624-.548-1.12-.992-1.488s-.998-.553-1.659-.553c-.678 0-1.242.184-1.692.553-.444.368-.778.864-1 1.488-.217.618-.325 1.309-.325 2.074 0 .759.108 1.447.325 2.065s.556 1.112 1 1.48c.45.363 1.014.545 1.692.545zm16.429-3.139v-7.238h2.943v12.491h-2.854v-2.22h-.13c-.282.7-.746 1.272-1.391 1.716-.639.445-1.428.667-2.366.667-.819 0-1.543-.182-2.171-.545s-1.112-.902-1.464-1.602c-.353-.705-.529-1.556-.529-2.553v-7.954h2.944v7.498c0 .792.217 1.421.651 1.887s1.003.699 1.707.699c.434 0 .854-.105 1.261-.317s.74-.526 1-.943c.266-.423.399-.952.399-1.586zm12.208-7.238v2.277h-7.181v-2.277h7.181zm-5.408-2.992h2.944v11.726c0 .396.059.7.179.911.124.206.287.347.488.423s.423.114.667.114a2.89 2.89 0 0 0 .504-.041l.358-.073.496 2.301c-.158.055-.383.114-.675.179s-.64.103-1.058.114c-.737.022-1.401-.089-1.992-.333-.591-.25-1.06-.635-1.407-1.155-.341-.52-.509-1.171-.504-1.952v-12.214zm7.87 15.483v-12.491h2.944v12.491h-2.944zm1.48-14.263a1.72 1.72 0 0 1-1.204-.464c-.336-.314-.504-.691-.504-1.13 0-.445.168-.822.504-1.131.336-.314.738-.471 1.204-.471a1.68 1.68 0 0 1 1.203.471c.337.309.505.686.505 1.131a1.49 1.49 0 0 1-.505 1.13c-.33.309-.731.464-1.203.464zm7.435 6.944v7.319h-2.944v-12.491h2.814v2.123h.146c.287-.699.745-1.255 1.374-1.667.635-.412 1.418-.618 2.35-.618.862 0 1.613.184 2.253.553s1.144.902 1.496 1.602c.358.699.534 1.548.529 2.545v7.953h-2.944v-7.497c0-.835-.217-1.489-.65-1.96s-1.022-.708-1.781-.708c-.515 0-.974.114-1.375.342-.395.222-.707.545-.935.968-.222.422-.333.935-.333 1.536zm16.54 7.563c-1.252 0-2.334-.26-3.244-.78-.906-.526-1.602-1.269-2.09-2.229s-.732-2.1-.732-3.407c0-1.285.244-2.412.732-3.383s1.182-1.735 2.065-2.277 1.922-.821 3.115-.821a6.31 6.31 0 0 1 2.179.374c.689.244 1.296.623 1.822 1.138s.949 1.171 1.252 1.968.456 1.735.456 2.83v.903h-10.239v-1.984h7.417c-.006-.564-.128-1.066-.366-1.505a2.67 2.67 0 0 0-1-1.049c-.423-.255-.917-.382-1.48-.382-.602 0-1.131.146-1.586.439a3.03 3.03 0 0 0-1.066 1.139c-.249.466-.376.978-.382 1.537v1.732c0 .726.133 1.35.399 1.87.265.515.637.911 1.114 1.187s1.035.407 1.675.407a3.57 3.57 0 0 0 1.163-.179 2.58 2.58 0 0 0 .903-.545c.254-.238.447-.534.577-.886l2.749.309a4.3 4.3 0 0 1-.992 1.903c-.483.537-1.101.954-1.855 1.252s-1.615.439-2.586.439zm28.111-11.279h-3.041c-.087-.499-.247-.941-.48-1.325a3.57 3.57 0 0 0-.87-.993c-.347-.271-.743-.474-1.188-.609-.439-.141-.913-.212-1.423-.212-.905 0-1.707.228-2.407.683s-1.247 1.112-1.642 1.984-.594 1.928-.594 3.18c0 1.274.198 2.348.594 3.22s.948 1.524 1.642 1.968c.7.44 1.499.659 2.399.659.499 0 .965-.065 1.399-.195.439-.136.832-.334 1.179-.594s.648-.58.886-.959c.244-.38.412-.814.505-1.301l3.041.016c-.114.791-.36 1.534-.74 2.228-.374.694-.865 1.307-1.472 1.838-.607.526-1.317.938-2.131 1.236s-1.715.439-2.707.439c-1.464 0-2.771-.339-3.92-1.016s-2.055-1.657-2.716-2.936-.992-2.814-.992-4.603c0-1.794.333-3.329 1-4.603s1.575-2.258 2.724-2.935 2.451-1.017 3.904-1.017c.927 0 1.789.13 2.586.39s1.507.643 2.13 1.147a6.09 6.09 0 0 1 1.537 1.838c.407.721.672 1.545.797 2.472z" class="D"/></g><defs><filter id="A" x=".933" y=".781" width="355.133" height="296.93" filterUnits="userSpaceOnUse" color-interpolation-filters="sRGB"><feFlood flood-opacity="0" result="A"/><feColorMatrix in="SourceAlpha" values="0 0 0 0 0 0 0 0 0 0 0 0 0 0 0 0 0 0 127 0" result="B"/><feOffset/><feGaussianBlur stdDeviation="1"/><feComposite in2="B" operator="out"/><feColorMatrix values="0 0 0 0 0 0 0 0 0 0 0 0 0 0 0 0 0 0 0.25 0"/><feBlend in2="A"/><feBlend in="SourceGraphic"/></filter><clipPath id="B"><path transform="translate(254.356 99.152)" d="M0 0h19.56v19.56H0z" class="F"/></clipPath><clipPath id="C"><path transform="translate(277.734 99.391)" d="M0 0h19.56v19.56H0z" class="F"/></clipPath><clipPath id="D"><path transform="translate(255.31 162.133)" d="M0 0h19.56v19.56H0z" class="F"/></clipPath><clipPath id="E"><path transform="translate(278.688 162.371)" d="M0 0h19.56v19.56H0z" class="F"/></clipPath><clipPath id="F"><path transform="translate(255.311 225.102)" d="M0 0h19.56v19.56H0z" class="F"/></clipPath><clipPath id="G"><path transform="translate(278.688 225.34)" d="M0 0h19.56v19.56H0z" class="F"/></clipPath><path id="H" d="M0 0h39.121v39.121H0z"/><path id="I" d="M0 0h19.56v19.56H0z"/></defs></svg>