<svg xmlns="http://www.w3.org/2000/svg" width="356" height="805" fill="none" xmlns:v="https://vecta.io/nano"><style><![CDATA[.B{fill:#262a36}.C{stroke-width:8.588}.D{stroke-linecap:round}]]></style><g filter="url(#A)"><rect x="2.32" y="2.236" width="351.133" height="800.546" rx="10" fill="#fff"/><path transform="translate(34.762 104.332)" d="M0 0h286.25v286.25H0z" class="B"/><path d="M305.268 120.424L49.248 376.443" stroke="#fff" class="C D"/><path d="M50.202 119.426L306.873 376.097" stroke="#fff" class="C D"/><path d="M126.424 49.566v16.654h-2.684l-7.847-11.344h-.139v11.344h-3.017V49.566h2.7l7.84 11.352h.146V49.566h3.001zm3.157 16.654V53.73h2.944v12.491h-2.944zm1.48-14.264c-.466 0-.867-.154-1.203-.464a1.49 1.49 0 0 1-.505-1.13c0-.445.168-.821.505-1.13a1.7 1.7 0 0 1 1.203-.472c.472 0 .873.157 1.204.472.336.309.504.686.504 1.13 0 .439-.168.816-.504 1.13a1.7 1.7 0 0 1-1.204.464zm8.085 14.516c-.791 0-1.504-.141-2.138-.423-.629-.287-1.128-.71-1.497-1.269-.363-.558-.544-1.247-.544-2.065 0-.705.13-1.288.39-1.748s.615-.829 1.065-1.106.957-.485 1.521-.626c.569-.146 1.157-.252 1.765-.317l1.78-.203c.456-.065.787-.163.993-.293.211-.136.317-.344.317-.626v-.049c0-.613-.182-1.087-.545-1.423s-.887-.504-1.57-.504c-.721 0-1.293.157-1.715.472s-.7.686-.846 1.114l-2.749-.39c.217-.759.575-1.393 1.074-1.903a4.66 4.66 0 0 1 1.829-1.155c.721-.26 1.518-.39 2.391-.39a7.78 7.78 0 0 1 1.797.211 5.05 5.05 0 0 1 1.635.699c.493.32.889.756 1.187 1.309.304.553.456 1.244.456 2.074v8.36h-2.83v-1.716h-.098a3.6 3.6 0 0 1-.756.976c-.32.298-.724.539-1.212.724-.482.179-1.049.268-1.7.268zm.765-2.163c.591 0 1.103-.117 1.537-.35.434-.239.767-.553 1-.943a2.4 2.4 0 0 0 .358-1.277v-1.472c-.092.076-.25.146-.472.211a6.68 6.68 0 0 1-.732.171l-.805.13-.691.098c-.439.06-.832.157-1.179.293s-.621.325-.821.569c-.201.239-.301.548-.301.927 0 .542.197.951.593 1.228s.9.415 1.513.415zm14.239 2.155c-1.247 0-2.318-.274-3.212-.821a5.48 5.48 0 0 1-2.057-2.269c-.478-.97-.716-2.087-.716-3.35 0-1.269.244-2.388.732-3.358.488-.976 1.176-1.735 2.065-2.277.895-.548 1.952-.821 3.172-.821 1.014 0 1.911.187 2.692.561.786.369 1.412.892 1.878 1.569.466.672.732 1.458.797 2.358h-2.814c-.113-.602-.385-1.103-.813-1.505-.423-.407-.989-.61-1.699-.61-.602 0-1.131.163-1.586.488-.456.32-.811.781-1.066 1.382-.249.602-.374 1.323-.374 2.163 0 .851.125 1.583.374 2.196.25.607.6 1.076 1.05 1.407.455.325.989.488 1.602.488.433 0 .821-.081 1.162-.244.347-.168.637-.409.871-.724s.393-.697.479-1.147h2.814c-.07.884-.331 1.667-.781 2.35-.45.678-1.062 1.209-1.837 1.594-.776.38-1.687.569-2.733.569zm7.768-.244V53.73h2.944v12.491h-2.944zm1.48-14.264c-.466 0-.867-.154-1.203-.464-.336-.314-.504-.691-.504-1.13 0-.445.168-.821.504-1.13a1.7 1.7 0 0 1 1.203-.472c.472 0 .873.157 1.204.472.336.309.504.686.504 1.13 0 .439-.168.816-.504 1.13a1.7 1.7 0 0 1-1.204.464zm7.435 6.945v7.319h-2.944V53.73h2.814v2.123h.146c.288-.699.746-1.255 1.375-1.667.634-.412 1.417-.618 2.35-.618.862 0 1.613.184 2.253.553.645.369 1.143.903 1.496 1.602s.534 1.548.528 2.545v7.953h-2.943v-7.498c0-.835-.217-1.488-.651-1.96-.428-.472-1.022-.708-1.781-.708-.515 0-.973.114-1.374.342-.396.222-.708.545-.935.968s-.334.935-.334 1.537zm14.605 7.571c-.791 0-1.504-.141-2.138-.423-.629-.287-1.128-.71-1.497-1.269-.363-.558-.544-1.247-.544-2.065 0-.705.13-1.288.39-1.748s.615-.829 1.065-1.106.957-.485 1.521-.626c.569-.146 1.157-.252 1.765-.317l1.78-.203c.456-.065.787-.163.993-.293.211-.136.317-.344.317-.626v-.049c0-.613-.182-1.087-.545-1.423s-.887-.504-1.57-.504c-.721 0-1.293.157-1.716.472-.417.314-.699.686-.845 1.114l-2.749-.39c.217-.759.575-1.393 1.074-1.903a4.66 4.66 0 0 1 1.829-1.155c.721-.26 1.518-.39 2.391-.39a7.78 7.78 0 0 1 1.797.211 5.05 5.05 0 0 1 1.635.699c.493.32.889.756 1.187 1.309.304.553.456 1.244.456 2.074v8.36h-2.83v-1.716h-.098a3.6 3.6 0 0 1-.756.976c-.32.298-.724.539-1.212.724-.482.179-1.049.268-1.7.268zm.765-2.163c.591 0 1.103-.117 1.537-.35.434-.239.767-.553 1-.943a2.4 2.4 0 0 0 .358-1.277v-1.472c-.092.076-.25.146-.472.211a6.68 6.68 0 0 1-.732.171l-.805.13-.691.098c-.439.06-.832.157-1.179.293s-.621.325-.822.569c-.2.239-.3.548-.3.927 0 .542.197.951.593 1.228s.9.415 1.513.415zm8.791 1.911V53.73h2.813v2.123h.147a3.31 3.31 0 0 1 1.293-1.675c.601-.407 1.32-.61 2.155-.61.845 0 1.558.206 2.138.618.586.407.998.962 1.237 1.667h.13a3.41 3.41 0 0 1 1.398-1.659c.662-.417 1.445-.626 2.351-.626 1.149 0 2.087.363 2.813 1.09s1.09 1.786 1.09 3.18v8.384h-2.952v-7.929c0-.775-.206-1.342-.618-1.7-.412-.363-.916-.545-1.513-.545-.71 0-1.265.222-1.667.667-.395.439-.593 1.011-.593 1.716v7.791h-2.887V58.17c0-.645-.195-1.16-.586-1.545-.385-.385-.889-.577-1.512-.577-.423 0-.808.108-1.155.325a2.27 2.27 0 0 0-.83.903c-.206.385-.309.835-.309 1.35v7.595h-2.943zm20.551 0V53.73h2.944v12.491h-2.944zm1.481-14.264c-.467 0-.868-.154-1.204-.464-.336-.314-.504-.691-.504-1.13 0-.445.168-.821.504-1.13a1.7 1.7 0 0 1 1.204-.472c.471 0 .872.157 1.203.472.336.309.504.686.504 1.13 0 .439-.168.816-.504 1.13-.331.309-.732.464-1.203.464zm9.126 14.483c-.981 0-1.86-.252-2.635-.756s-1.388-1.236-1.838-2.196-.675-2.125-.675-3.497c0-1.388.228-2.559.683-3.513.461-.959 1.082-1.683 1.863-2.171a4.78 4.78 0 0 1 2.61-.74c.732 0 1.334.125 1.805.374.472.244.846.539 1.122.886.277.342.491.664.643.968h.122v-6.229h2.952v16.654h-2.895v-1.968h-.179c-.152.304-.371.626-.659.968-.287.336-.667.623-1.138.862s-1.066.358-1.781.358zm.821-2.415c.624 0 1.155-.168 1.594-.504.439-.342.773-.816 1-1.423s.342-1.315.342-2.123-.114-1.51-.342-2.106c-.222-.596-.553-1.06-.992-1.391-.434-.331-.968-.496-1.602-.496-.656 0-1.203.171-1.643.512s-.769.813-.992 1.415-.333 1.29-.333 2.066c0 .781.111 1.477.333 2.09.228.607.561 1.087 1.001 1.439.444.347.989.52 1.634.52zm14.498 2.44c-1.253 0-2.334-.26-3.245-.781a5.29 5.29 0 0 1-2.09-2.228c-.488-.965-.732-2.101-.732-3.407 0-1.285.244-2.413.732-3.383a5.53 5.53 0 0 1 2.066-2.277c.883-.548 1.921-.821 3.114-.821a6.31 6.31 0 0 1 2.18.374 4.93 4.93 0 0 1 1.821 1.139c.531.515.949 1.171 1.252 1.968.304.791.456 1.735.456 2.83v.903h-10.238v-1.984h7.416c-.005-.564-.127-1.065-.366-1.504a2.66 2.66 0 0 0-1-1.049c-.423-.255-.916-.382-1.48-.382-.602 0-1.131.146-1.586.439a3.03 3.03 0 0 0-1.065 1.139c-.25.466-.377.979-.383 1.537v1.732c0 .727.133 1.35.399 1.87.266.515.637.911 1.114 1.187.477.271 1.036.407 1.675.407.429 0 .816-.06 1.163-.179.347-.125.648-.306.903-.545s.447-.534.577-.886l2.749.309a4.29 4.29 0 0 1-.992 1.903c-.483.537-1.101.954-1.854 1.252-.754.293-1.616.439-2.586.439z" class="B"/><rect x="34.762" y="79.525" width="286.25" height="9.542" rx="4.771" class="B"/><rect x="34.762" y="446.879" width="286.25" height="9.542" rx="4.771" class="B"/><rect x="34.762" y="547.066" width="286.25" height="9.542" rx="4.771" class="B"/><rect x="34.762" y="647.254" width="286.25" height="9.542" rx="4.771" class="B"/><rect x="34.762" y="464.053" width="286.25" height="9.542" rx="4.771" class="B"/><rect x="34.762" y="564.24" width="286.25" height="9.542" rx="4.771" class="B"/><rect x="34.762" y="664.428" width="286.25" height="9.542" rx="4.771" class="B"/><rect x="34.762" y="481.229" width="286.25" height="9.542" rx="4.771" class="B"/><rect x="34.762" y="581.416" width="286.25" height="9.542" rx="4.771" class="B"/><rect x="34.762" y="681.604" width="286.25" height="9.542" rx="4.771" class="B"/><path d="M36.404 413.103h3.692l4.944 12.068h.195l4.944-12.068h3.692v16.655h-2.895v-11.442h-.154l-4.603 11.393h-2.163l-4.603-11.417h-.154v11.466h-2.895v-16.655zm24.217 16.907c-.791 0-1.504-.141-2.139-.423-.629-.287-1.128-.71-1.496-1.269-.363-.558-.545-1.246-.545-2.065 0-.705.13-1.288.39-1.749a3.02 3.02 0 0 1 1.065-1.105 5.36 5.36 0 0 1 1.521-.627 12.41 12.41 0 0 1 1.765-.317l1.781-.203c.455-.065.786-.163.992-.293.211-.135.317-.344.317-.626v-.049c0-.612-.182-1.087-.545-1.423s-.886-.504-1.569-.504c-.721 0-1.293.157-1.716.472-.418.314-.699.685-.846 1.114l-2.749-.391c.217-.759.575-1.393 1.073-1.903s1.109-.9 1.83-1.154c.721-.261 1.518-.391 2.391-.391.602 0 1.201.071 1.797.212s1.141.374 1.635.699.889.756 1.187 1.309c.304.553.455 1.245.455 2.074v8.36h-2.83v-1.716h-.098a3.6 3.6 0 0 1-.756.976c-.32.298-.724.539-1.212.724-.482.178-1.049.268-1.7.268zm.764-2.163c.591 0 1.103-.117 1.537-.35s.767-.553 1-.943c.239-.391.358-.816.358-1.277v-1.472c-.092.076-.249.146-.472.212a6.52 6.52 0 0 1-.732.17l-.805.13-.691.098c-.439.06-.832.157-1.179.293s-.621.325-.821.569-.301.548-.301.927c0 .542.198.952.594 1.228s.9.415 1.513.415zm8.791 1.911v-12.491h2.944v12.491h-2.944zm1.48-14.264c-.466 0-.868-.154-1.204-.463-.336-.315-.504-.692-.504-1.131s.168-.821.504-1.13c.336-.315.737-.472 1.204-.472a1.68 1.68 0 0 1 1.204.472c.336.309.504.686.504 1.13s-.168.816-.504 1.131c-.331.309-.732.463-1.204.463zm7.435 6.945v7.319h-2.944v-12.491h2.814v2.122h.146a3.57 3.57 0 0 1 1.374-1.667c.634-.412 1.418-.618 2.35-.618.862 0 1.613.185 2.253.553.645.369 1.144.903 1.496 1.602.358.7.534 1.548.529 2.546v7.953h-2.944v-7.498c0-.835-.217-1.488-.651-1.96-.428-.471-1.022-.707-1.781-.707-.515 0-.973.114-1.374.341-.396.223-.707.545-.935.968-.222.423-.333.935-.333 1.537zm16.821 7.319v-16.655h6.376c1.203 0 2.203.19 3 .57.803.374 1.402.886 1.798 1.536s.601 1.388.601 2.212c0 .678-.13 1.258-.39 1.741a3.29 3.29 0 0 1-1.049 1.163 4.44 4.44 0 0 1-1.472.642v.163a3.6 3.6 0 0 1 1.7.545c.547.325.995.786 1.341 1.382s.521 1.317.521 2.163c0 .862-.209 1.637-.626 2.326-.418.683-1.047 1.222-1.887 1.618s-1.897.594-3.171.594h-6.742zm3.017-2.521h3.245c1.095 0 1.884-.209 2.366-.626.488-.423.732-.965.732-1.627 0-.493-.122-.938-.366-1.333-.244-.402-.591-.716-1.041-.944s-.986-.349-1.61-.349H98.93v4.879zm0-7.051h2.985a3.37 3.37 0 0 0 1.406-.284c.418-.195.746-.469.984-.822.244-.357.366-.78.366-1.268 0-.645-.227-1.177-.683-1.594-.45-.418-1.119-.626-2.008-.626h-3.05v4.594zm17.433 9.816c-1.252 0-2.334-.26-3.244-.781s-1.602-1.269-2.09-2.228c-.488-.965-.732-2.101-.732-3.407 0-1.285.244-2.413.732-3.383.493-.976 1.182-1.735 2.065-2.277.884-.548 1.922-.822 3.115-.822a6.31 6.31 0 0 1 2.179.374c.689.244 1.296.624 1.822 1.139.531.515.949 1.171 1.252 1.968.304.791.456 1.735.456 2.83v.902h-10.239v-1.984h7.417c-.006-.564-.128-1.065-.366-1.504a2.66 2.66 0 0 0-1.001-1.049c-.422-.255-.916-.382-1.48-.382-.601 0-1.13.146-1.585.439a3.02 3.02 0 0 0-1.066 1.138c-.249.466-.376.979-.382 1.537v1.732c0 .727.133 1.35.399 1.871a2.84 2.84 0 0 0 1.114 1.187c.477.271 1.035.407 1.675.407a3.57 3.57 0 0 0 1.163-.179c.347-.125.648-.307.903-.545s.447-.534.577-.887l2.749.309c-.174.727-.505 1.361-.993 1.903-.482.537-1.1.954-1.854 1.253-.753.292-1.615.439-2.586.439zm10.989-7.563v7.319h-2.944v-12.491h2.814v2.122h.146c.287-.699.746-1.255 1.374-1.667.635-.412 1.418-.618 2.351-.618.862 0 1.612.185 2.252.553.645.369 1.144.903 1.496 1.602.358.7.534 1.548.529 2.546v7.953h-2.944v-7.498c0-.835-.217-1.488-.65-1.96s-1.022-.707-1.781-.707c-.515 0-.973.114-1.375.341-.395.223-.707.545-.935.968-.222.423-.333.935-.333 1.537zm17.337-5.172v2.277h-7.384v-2.277h7.384zm-5.538 12.491v-13.67c0-.841.174-1.54.521-2.098a3.29 3.29 0 0 1 1.415-1.253c.591-.276 1.247-.414 1.968-.414a6.74 6.74 0 0 1 1.358.122l.878.219-.585 2.277c-.125-.038-.282-.076-.472-.114s-.401-.065-.634-.065c-.548 0-.935.133-1.163.399-.222.26-.334.634-.334 1.122v13.475h-2.952zm7.844 0v-12.491h2.944v12.491h-2.944zm1.48-14.264a1.72 1.72 0 0 1-1.204-.463c-.336-.315-.504-.692-.504-1.131s.168-.821.504-1.13a1.7 1.7 0 0 1 1.204-.472c.472 0 .873.157 1.203.472.337.309.505.686.505 1.13s-.168.816-.505 1.131c-.33.309-.731.463-1.203.463zm10.728 1.773v2.277h-7.18v-2.277h7.18zm-5.408-2.993h2.944v11.727c0 .396.06.699.179.911a.96.96 0 0 0 .488.422 1.87 1.87 0 0 0 .667.114c.184 0 .352-.013.504-.04l.358-.074.496 2.302c-.157.054-.382.114-.675.179-.287.065-.64.103-1.057.114-.738.021-1.402-.09-1.993-.334a3.09 3.09 0 0 1-1.406-1.155c-.342-.52-.51-1.171-.505-1.951v-12.215zm17.564 6.295l-2.684.292c-.076-.271-.209-.526-.398-.764s-.434-.431-.749-.578-.699-.219-1.154-.219c-.613 0-1.128.133-1.545.398s-.616.61-.61 1.033a1.08 1.08 0 0 0 .398.887c.277.227.732.414 1.366.561l2.131.455c1.182.255 2.06.659 2.635 1.212.58.553.873 1.277.878 2.171-.005.786-.236 1.48-.691 2.082-.45.596-1.076 1.062-1.879 1.399s-1.724.504-2.765.504c-1.528 0-2.759-.32-3.692-.96s-1.488-1.542-1.667-2.692l2.871-.276c.13.564.407.989.829 1.277s.974.431 1.651.431c.7 0 1.261-.144 1.684-.431s.642-.643.642-1.066c0-.357-.138-.653-.415-.886-.271-.233-.694-.412-1.268-.537l-2.131-.447c-1.198-.249-2.084-.67-2.659-1.26-.575-.597-.859-1.35-.854-2.261-.005-.77.203-1.437.626-2.001s1.022-1.008 1.781-1.317c.765-.315 1.645-.472 2.643-.472 1.464 0 2.616.312 3.456.935.846.624 1.369 1.467 1.57 2.53z" class="B"/><path d="M45.455 517.869c-.076-.71-.396-1.263-.96-1.659-.558-.396-1.285-.593-2.179-.593-.629 0-1.168.094-1.618.284s-.794.447-1.033.773-.36.696-.366 1.114c0 .347.079.648.236.902.163.255.382.472.659.651a4.6 4.6 0 0 0 .919.439c.336.119.675.22 1.016.301l1.561.39a10.85 10.85 0 0 1 1.813.594c.586.249 1.109.564 1.57.943a4.19 4.19 0 0 1 1.106 1.375c.271.536.407 1.165.407 1.886 0 .976-.249 1.835-.748 2.578s-1.22 1.315-2.163 1.732c-.938.412-2.074.618-3.407.618-1.296 0-2.421-.2-3.375-.601-.949-.402-1.691-.987-2.228-1.757-.531-.77-.819-1.708-.862-2.814h2.968c.043.58.222 1.063.537 1.448s.724.672 1.228.862c.51.19 1.079.285 1.708.285.656 0 1.231-.098 1.724-.293.499-.201.889-.477 1.171-.83s.426-.775.431-1.252c-.005-.434-.133-.792-.382-1.073-.249-.288-.599-.526-1.049-.716-.444-.195-.965-.369-1.561-.521l-1.895-.487c-1.372-.353-2.456-.887-3.253-1.603-.791-.721-1.187-1.677-1.187-2.87 0-.981.266-1.841.797-2.578.537-.737 1.266-1.309 2.188-1.716.922-.412 1.965-.618 3.131-.618 1.182 0 2.217.206 3.106.618.895.407 1.597.973 2.106 1.7.51.721.773 1.55.789 2.488h-2.903zm8.374 8.157l-.008-3.554h.472l4.489-5.018h3.44l-5.522 6.148h-.61l-2.261 2.424zm-2.684 3.919v-16.654h2.944v16.654h-2.944zm7.839 0l-4.066-5.684 1.984-2.074 5.603 7.758h-3.521zm5.199 0v-12.491h2.944v12.491h-2.944zm1.48-14.263c-.466 0-.867-.155-1.204-.464s-.504-.691-.504-1.13c0-.445.168-.822.504-1.131a1.7 1.7 0 0 1 1.204-.471c.472 0 .873.157 1.204.471.336.309.504.686.504 1.131 0 .439-.168.816-.504 1.13-.331.309-.732.464-1.204.464zm7.435 6.944v7.319h-2.944v-12.491h2.814v2.123h.146a3.57 3.57 0 0 1 1.374-1.667c.634-.412 1.418-.618 2.35-.618.862 0 1.613.184 2.253.553.645.368 1.144.902 1.496 1.602.358.699.534 1.548.529 2.545v7.953h-2.944v-7.497c0-.835-.217-1.489-.651-1.96-.428-.472-1.022-.708-1.781-.708-.515 0-.973.114-1.374.342a2.37 2.37 0 0 0-.935.967c-.222.423-.333.936-.333 1.537zm16.089-6.806v-2.529h13.288v2.529h-5.148v14.125h-2.993V515.82h-5.148zm16.118 18.809c-.402 0-.773-.032-1.114-.097s-.605-.13-.806-.212l.684-2.293c.428.125.81.184 1.146.179s.632-.111.887-.317c.26-.201.479-.537.658-1.008l.252-.675-4.529-12.752h3.123l2.878 9.434h.13l2.887-9.434h3.131l-5.001 14.004c-.233.661-.542 1.228-.927 1.699a3.76 3.76 0 0 1-1.415 1.09c-.553.255-1.214.382-1.984.382zm11.364 0v-17.175h2.895v2.066h.171a5.41 5.41 0 0 1 .643-.968c.276-.347.65-.642 1.122-.886.471-.25 1.073-.374 1.805-.374.965 0 1.835.246 2.61.74.781.488 1.399 1.211 1.855 2.171.46.954.691 2.125.691 3.513 0 1.372-.225 2.537-.675 3.497s-1.063 1.691-1.838 2.196-1.654.756-2.635.756c-.715 0-1.309-.119-1.781-.358s-.851-.526-1.138-.862c-.282-.341-.502-.664-.659-.968h-.122v6.652h-2.944zm2.887-10.929c0 .808.114 1.515.342 2.122.233.608.566 1.082 1 1.423s.97.505 1.594.505c.65 0 1.195-.174 1.634-.521.44-.352.77-.832.993-1.439.227-.613.341-1.309.341-2.09 0-.775-.111-1.464-.333-2.066s-.553-1.073-.992-1.415-.987-.512-1.643-.512c-.629 0-1.163.165-1.602.496s-.773.794-1 1.391-.334 1.298-.334 2.106zm16.956 6.489c-1.253 0-2.334-.26-3.245-.78a5.29 5.29 0 0 1-2.09-2.229c-.488-.965-.732-2.1-.732-3.407 0-1.285.244-2.412.732-3.383s1.182-1.735 2.066-2.277c.883-.547 1.921-.821 3.114-.821.77 0 1.496.124 2.18.374a4.93 4.93 0 0 1 1.821 1.138c.531.515.949 1.171 1.252 1.968.304.792.456 1.735.456 2.83v.903h-10.238v-1.984h7.416c-.005-.564-.127-1.066-.366-1.505s-.572-.794-1-1.049-.916-.382-1.48-.382c-.602 0-1.131.146-1.586.439-.455.287-.81.667-1.065 1.139-.25.466-.377.978-.383 1.537v1.732c0 .726.133 1.35.399 1.87s.637.911 1.114 1.187c.477.271 1.036.407 1.675.407.429 0 .816-.06 1.163-.179a2.58 2.58 0 0 0 .903-.545c.255-.238.447-.534.577-.886l2.749.309a4.29 4.29 0 0 1-.992 1.903c-.483.537-1.101.954-1.854 1.252s-1.616.439-2.586.439zm17.917-9.433l-2.684.293c-.076-.271-.209-.526-.398-.765s-.434-.431-.749-.577-.699-.22-1.154-.22c-.613 0-1.128.133-1.545.399s-.616.61-.61 1.033c-.006.363.127.658.398.886.277.228.732.415 1.366.561l2.131.456c1.182.254 2.06.658 2.635 1.211.58.553.873 1.277.878 2.172-.005.786-.236 1.48-.691 2.081s-1.076 1.063-1.879 1.399-1.724.504-2.765.504c-1.528 0-2.759-.32-3.692-.959-.932-.645-1.488-1.543-1.667-2.692l2.871-.277c.13.564.407.99.829 1.277s.974.431 1.651.431c.7 0 1.261-.143 1.684-.431.428-.287.642-.642.642-1.065 0-.358-.138-.653-.415-.886-.271-.234-.694-.413-1.268-.537l-2.131-.447c-1.198-.25-2.084-.67-2.659-1.261s-.859-1.35-.854-2.261c-.005-.77.203-1.436.626-2 .428-.569 1.022-1.009 1.781-1.318.765-.314 1.645-.471 2.643-.471 1.464 0 2.616.311 3.456.935a3.93 3.93 0 0 1 1.57 2.529z" class="B"/><path d="M39.421 613.478v16.655h-3.017v-16.655h3.017zm6.081 9.336v7.319h-2.944v-12.491h2.814v2.122h.146a3.57 3.57 0 0 1 1.374-1.667c.634-.412 1.418-.618 2.35-.618.862 0 1.613.185 2.253.553.645.369 1.144.903 1.496 1.602.358.7.534 1.548.529 2.546v7.953h-2.944v-7.498c0-.835-.217-1.488-.651-1.96-.428-.471-1.022-.707-1.781-.707-.515 0-.973.114-1.374.341-.396.223-.708.545-.935.968-.222.423-.333.935-.333 1.537zm16.443 12.263c-1.057 0-1.965-.144-2.724-.431-.759-.282-1.369-.661-1.83-1.138s-.781-1.006-.96-1.586l2.651-.643c.119.244.293.486.52.724.228.244.534.445.919.602.39.163.881.244 1.472.244.835 0 1.526-.203 2.074-.61.547-.401.821-1.063.821-1.984v-2.367h-.146c-.152.304-.374.616-.667.936-.287.319-.67.588-1.147.805-.472.216-1.065.325-1.781.325-.96 0-1.83-.225-2.61-.675-.775-.455-1.393-1.133-1.854-2.033-.455-.905-.683-2.039-.683-3.399 0-1.372.228-2.529.683-3.473.461-.948 1.082-1.667 1.862-2.155.781-.493 1.651-.74 2.61-.74.732 0 1.334.125 1.805.374.477.244.857.54 1.139.887.282.341.496.664.642.967h.163v-2.065h2.903v12.694c0 1.068-.255 1.952-.764 2.651s-1.206 1.223-2.09 1.57-1.887.52-3.009.52zm.024-7.433c.624 0 1.155-.151 1.594-.455s.773-.74 1-1.309.342-1.253.342-2.05c0-.786-.114-1.474-.342-2.065-.222-.591-.553-1.049-.992-1.374-.434-.331-.968-.497-1.602-.497-.656 0-1.204.171-1.643.513s-.77.81-.992 1.407c-.222.591-.333 1.263-.333 2.016 0 .765.111 1.434.333 2.009.228.569.561 1.014 1 1.334.445.314.989.471 1.635.471zm8.856 2.489v-12.491h2.854v2.082h.13c.228-.721.618-1.277 1.171-1.667a3.22 3.22 0 0 1 1.911-.594l.545.024c.206.011.377.03.512.057v2.708c-.125-.043-.323-.081-.594-.114a5.6 5.6 0 0 0-.772-.056c-.537 0-1.019.116-1.448.349a2.56 2.56 0 0 0-1 .952c-.244.406-.366.875-.366 1.407v7.343h-2.944zm14.095.244c-1.252 0-2.334-.26-3.245-.781a5.29 5.29 0 0 1-2.09-2.228c-.488-.965-.732-2.101-.732-3.407 0-1.285.244-2.413.732-3.383.493-.976 1.182-1.735 2.066-2.277.884-.548 1.922-.822 3.115-.822.77 0 1.496.125 2.179.374a4.93 4.93 0 0 1 1.822 1.139c.531.515.949 1.171 1.252 1.968.304.791.455 1.735.455 2.83v.902H80.236v-1.984h7.416c-.005-.564-.127-1.065-.366-1.504a2.66 2.66 0 0 0-1-1.049c-.423-.255-.916-.382-1.48-.382-.602 0-1.13.146-1.586.439a3.02 3.02 0 0 0-1.065 1.138c-.249.466-.377.979-.382 1.537v1.732c0 .727.133 1.35.398 1.871.266.515.637.91 1.114 1.187.477.271 1.035.407 1.675.407a3.57 3.57 0 0 0 1.163-.179c.347-.125.648-.307.903-.545a2.27 2.27 0 0 0 .577-.887l2.749.309a4.28 4.28 0 0 1-.992 1.903c-.483.537-1.101.954-1.854 1.253-.754.292-1.615.439-2.586.439zm12.68-.025c-.981 0-1.859-.252-2.635-.756s-1.388-1.236-1.838-2.196-.675-2.125-.675-3.496c0-1.388.228-2.559.683-3.513.461-.96 1.082-1.684 1.862-2.172.781-.493 1.651-.74 2.61-.74.732 0 1.334.125 1.805.374s.846.54 1.122.887c.277.341.491.664.643.967h.122v-6.229h2.952v16.655h-2.895v-1.968h-.179c-.152.303-.372.626-.659.968-.287.336-.667.623-1.139.862s-1.065.357-1.781.357zm.821-2.415c.623 0 1.155-.168 1.594-.504.439-.342.772-.816 1-1.423s.342-1.315.342-2.123-.114-1.51-.342-2.106c-.222-.596-.553-1.06-.992-1.39-.434-.331-.968-.497-1.602-.497-.656 0-1.204.171-1.643.513s-.77.813-.992 1.415-.333 1.29-.333 2.065c0 .781.111 1.478.333 2.09.228.608.561 1.087 1 1.44.445.347.989.52 1.635.52zm8.968 2.196v-12.491h2.943v12.491h-2.943zm1.48-14.264c-.467 0-.868-.154-1.204-.463-.336-.315-.504-.692-.504-1.131s.168-.821.504-1.13c.336-.315.737-.472 1.204-.472a1.68 1.68 0 0 1 1.203.472c.336.309.504.686.504 1.13s-.168.816-.504 1.131c-.331.309-.732.463-1.203.463zm10.02 14.508c-1.252 0-2.334-.26-3.244-.781s-1.602-1.269-2.09-2.228c-.488-.965-.732-2.101-.732-3.407 0-1.285.244-2.413.732-3.383.493-.976 1.182-1.735 2.065-2.277.884-.548 1.922-.822 3.115-.822a6.31 6.31 0 0 1 2.179.374c.689.244 1.296.624 1.822 1.139.531.515.949 1.171 1.252 1.968.304.791.456 1.735.456 2.83v.902h-10.239v-1.984h7.417c-.006-.564-.128-1.065-.366-1.504-.239-.445-.572-.794-1-1.049s-.917-.382-1.481-.382c-.601 0-1.13.146-1.585.439a3.02 3.02 0 0 0-1.066 1.138c-.249.466-.376.979-.382 1.537v1.732c0 .727.133 1.35.399 1.871a2.84 2.84 0 0 0 1.114 1.187c.477.271 1.035.407 1.675.407a3.57 3.57 0 0 0 1.163-.179c.347-.125.648-.307.903-.545s.447-.534.577-.887l2.749.309c-.174.727-.505 1.361-.993 1.903-.482.537-1.1.954-1.854 1.253-.753.292-1.615.439-2.586.439zm10.989-7.563v7.319h-2.944v-12.491h2.814v2.122h.146c.287-.699.746-1.255 1.374-1.667.635-.412 1.418-.618 2.351-.618.862 0 1.612.185 2.252.553s1.144.903 1.497 1.602.534 1.548.528 2.546v7.953h-2.944v-7.498c0-.835-.217-1.488-.65-1.96s-1.022-.707-1.781-.707c-.515 0-.973.114-1.375.341-.395.223-.707.545-.935.968-.222.423-.333.935-.333 1.537zm17.248-5.172v2.277h-7.181v-2.277h7.181zm-5.408-2.993h2.944v11.727c0 .396.06.699.179.911a.96.96 0 0 0 .488.422c.2.076.423.114.667.114.184 0 .352-.013.504-.04l.358-.074.496 2.302c-.157.054-.382.114-.675.179a5.55 5.55 0 0 1-1.057.114c-.738.021-1.402-.09-1.993-.334s-1.06-.634-1.407-1.155c-.341-.52-.509-1.171-.504-1.951v-12.215zm27.936 4.449h-3.041c-.087-.499-.247-.941-.48-1.326-.233-.39-.523-.721-.87-.992s-.743-.474-1.188-.61c-.439-.141-.913-.211-1.423-.211-.905 0-1.707.227-2.407.683-.699.45-1.247 1.111-1.643 1.984-.395.867-.593 1.927-.593 3.18 0 1.274.198 2.347.593 3.22.402.867.949 1.523 1.643 1.968.7.439 1.499.659 2.399.659a4.85 4.85 0 0 0 1.399-.196c.439-.135.832-.333 1.179-.593a3.49 3.49 0 0 0 .886-.96c.244-.379.412-.813.505-1.301l3.041.016a6.55 6.55 0 0 1-.74 2.228c-.374.694-.865 1.307-1.472 1.838s-1.317.938-2.131 1.236-1.715.44-2.708.44c-1.463 0-2.77-.339-3.919-1.017s-2.055-1.656-2.716-2.936-.992-2.813-.992-4.602c0-1.795.333-3.329 1-4.603.667-1.28 1.575-2.258 2.724-2.936s2.451-1.016 3.903-1.016c.928 0 1.79.13 2.586.39s1.508.642 2.131 1.147c.624.498 1.136 1.111 1.537 1.837.407.721.672 1.545.797 2.473zm8.081 11.279c-1.22 0-2.277-.269-3.171-.805s-1.589-1.288-2.082-2.253-.732-2.093-.732-3.383.244-2.421.732-3.391 1.187-1.724 2.082-2.261 1.951-.805 3.171-.805 2.277.269 3.172.805 1.586 1.291 2.073 2.261c.494.97.74 2.101.74 3.391s-.246 2.418-.74 3.383c-.487.965-1.179 1.716-2.073 2.253s-1.952.805-3.172.805zm.017-2.359c.661 0 1.214-.181 1.658-.544.445-.369.776-.862.993-1.48.222-.618.333-1.307.333-2.066s-.111-1.456-.333-2.074c-.217-.623-.548-1.119-.993-1.488s-.997-.553-1.658-.553c-.678 0-1.242.185-1.692.553-.444.369-.778.865-1 1.488-.217.618-.325 1.31-.325 2.074s.108 1.448.325 2.066.556 1.111 1 1.48c.45.363 1.014.544 1.692.544zm8.467 2.115v-12.491h2.814v2.122h.146c.26-.715.691-1.274 1.293-1.675.602-.406 1.32-.61 2.155-.61.846 0 1.559.206 2.139.618a3.24 3.24 0 0 1 1.236 1.667h.13c.277-.694.743-1.247 1.399-1.659s1.445-.626 2.35-.626c1.149 0 2.087.363 2.814 1.09s1.089 1.786 1.089 3.18v8.384h-2.952v-7.929c0-.775-.206-1.342-.618-1.7-.412-.363-.916-.544-1.512-.544-.71 0-1.266.222-1.667.666s-.594 1.011-.594 1.716v7.791h-2.887v-8.051c0-.645-.195-1.16-.585-1.545-.385-.385-.889-.577-1.513-.577-.423 0-.808.108-1.155.325-.347.211-.623.512-.829.903-.206.384-.309.834-.309 1.349v7.596h-2.944zm20.682 0v-16.655h2.944v6.229h.122a5.45 5.45 0 0 1 .642-.967c.277-.347.651-.643 1.123-.887s1.073-.374 1.805-.374a4.76 4.76 0 0 1 2.61.74c.781.488 1.399 1.212 1.854 2.172.461.954.692 2.125.692 3.513 0 1.371-.225 2.537-.675 3.496s-1.063 1.692-1.838 2.196-1.654.756-2.635.756c-.716 0-1.309-.119-1.781-.357s-.851-.526-1.138-.862c-.282-.342-.502-.665-.659-.968h-.171v1.968h-2.895zm2.887-6.246c0 .808.114 1.516.341 2.123.234.607.567 1.081 1.001 1.423.439.336.97.504 1.594.504.65 0 1.195-.173 1.634-.52.439-.353.77-.832.992-1.44.228-.612.342-1.309.342-2.09 0-.775-.111-1.463-.334-2.065s-.553-1.074-.992-1.415-.986-.513-1.642-.513c-.629 0-1.163.166-1.602.497s-.773.794-1.001 1.39c-.222.596-.333 1.299-.333 2.106zm11.407 6.246v-12.491h2.944v12.491h-2.944zm1.48-14.264c-.466 0-.867-.154-1.203-.463-.336-.315-.504-.692-.504-1.131s.168-.821.504-1.13c.336-.315.737-.472 1.203-.472a1.68 1.68 0 0 1 1.204.472c.336.309.504.686.504 1.13s-.168.816-.504 1.131c-.331.309-.732.463-1.204.463zm7.435 6.945v7.319h-2.944v-12.491h2.814v2.122h.146c.288-.699.746-1.255 1.375-1.667s1.417-.618 2.35-.618c.862 0 1.613.185 2.252.553.646.369 1.144.903 1.497 1.602s.534 1.548.528 2.546v7.953h-2.943v-7.498c0-.835-.217-1.488-.651-1.96-.428-.471-1.022-.707-1.781-.707a2.74 2.74 0 0 0-1.374.341c-.396.223-.708.545-.935.968s-.334.935-.334 1.537zm14.605 7.571c-.791 0-1.504-.141-2.138-.423s-1.128-.71-1.497-1.269c-.363-.558-.545-1.246-.545-2.065 0-.705.131-1.288.391-1.749s.615-.829 1.065-1.105a5.36 5.36 0 0 1 1.521-.627 12.4 12.4 0 0 1 1.764-.317l1.781-.203c.456-.065.786-.163.992-.293.212-.135.318-.344.318-.626v-.049c0-.612-.182-1.087-.545-1.423s-.887-.504-1.57-.504c-.721 0-1.293.157-1.716.472-.417.314-.699.685-.845 1.114l-2.749-.391c.217-.759.575-1.393 1.073-1.903s1.109-.9 1.83-1.154c.721-.261 1.518-.391 2.391-.391a7.78 7.78 0 0 1 1.797.212c.597.141 1.141.374 1.635.699s.889.756 1.187 1.309c.304.553.455 1.245.455 2.074v8.36h-2.83v-1.716h-.097c-.179.347-.431.672-.756.976-.32.298-.724.539-1.212.724-.483.178-1.049.268-1.7.268zm.765-2.163c.591 0 1.103-.117 1.537-.35s.767-.553 1-.943a2.4 2.4 0 0 0 .358-1.277v-1.472c-.092.076-.25.146-.472.212a6.53 6.53 0 0 1-.732.17l-.805.13-.691.098c-.439.06-.832.157-1.179.293s-.621.325-.822.569c-.2.239-.3.548-.3.927 0 .542.197.952.593 1.228s.9.415 1.513.415zm15.028-10.58v2.277h-7.181v-2.277h7.181zm-5.408-2.993h2.944v11.727c0 .396.059.699.179.911.124.206.287.347.488.422s.423.114.667.114c.184 0 .352-.013.504-.04l.358-.074.496 2.302a6.72 6.72 0 0 1-.675.179c-.288.065-.64.103-1.058.114-.737.021-1.401-.09-1.992-.334s-1.06-.634-1.407-1.155c-.341-.52-.509-1.171-.504-1.951v-12.215zm7.87 15.484v-12.491h2.944v12.491h-2.944zm1.48-14.264c-.466 0-.868-.154-1.204-.463-.336-.315-.504-.692-.504-1.131s.168-.821.504-1.13a1.7 1.7 0 0 1 1.204-.472c.472 0 .873.157 1.203.472.337.309.505.686.505 1.13s-.168.816-.505 1.131c-.33.309-.731.463-1.203.463zm9.939 14.508c-1.219 0-2.277-.269-3.171-.805s-1.589-1.288-2.082-2.253-.732-2.093-.732-3.383.244-2.421.732-3.391 1.187-1.724 2.082-2.261 1.952-.805 3.171-.805 2.277.269 3.172.805 1.586 1.291 2.074 2.261.74 2.101.74 3.391-.247 2.418-.74 3.383a5.42 5.42 0 0 1-2.074 2.253c-.895.536-1.952.805-3.172.805zm.017-2.359c.661 0 1.214-.181 1.659-.544.444-.369.775-.862.992-1.48s.333-1.307.333-2.066-.111-1.456-.333-2.074c-.217-.623-.548-1.119-.992-1.488s-.998-.553-1.659-.553c-.678 0-1.242.185-1.692.553-.444.369-.778.865-1 1.488-.217.618-.325 1.31-.325 2.074s.108 1.448.325 2.066c.222.618.556 1.111 1 1.48.45.363 1.014.544 1.692.544zm11.411-5.204v7.319h-2.944v-12.491h2.814v2.122h.146c.288-.699.746-1.255 1.375-1.667s1.417-.618 2.35-.618c.862 0 1.613.185 2.252.553.646.369 1.144.903 1.497 1.602s.534 1.548.528 2.546v7.953h-2.944v-7.498c0-.835-.216-1.488-.65-1.96-.428-.471-1.022-.707-1.781-.707a2.74 2.74 0 0 0-1.374.341c-.396.223-.708.545-.936.968-.222.423-.333.935-.333 1.537z" class="B"/><path transform="translate(34.762 714.045)" d="M0 0h286.25v47.083H0z" class="B"/><path d="M107.08 733.51c-.076-.71-.395-1.263-.959-1.659-.559-.396-1.285-.594-2.18-.594-.629 0-1.168.095-1.618.285s-.794.447-1.033.772-.36.697-.366 1.114c0 .347.079.648.236.903.163.255.382.472.659.651.276.173.583.32.919.439a10.15 10.15 0 0 0 1.016.301l1.562.39c.629.146 1.233.344 1.813.594a6.39 6.39 0 0 1 1.57.943 4.21 4.21 0 0 1 1.106 1.374c.271.537.406 1.166.406 1.887 0 .976-.249 1.835-.748 2.578-.499.737-1.22 1.315-2.163 1.732-.938.412-2.074.618-3.407.618-1.296 0-2.421-.201-3.375-.602s-1.692-.986-2.228-1.756c-.531-.77-.819-1.708-.862-2.814h2.969c.043.58.222 1.063.536 1.448s.724.672 1.228.862c.51.189 1.079.284 1.708.284.656 0 1.231-.097 1.724-.293.499-.2.889-.477 1.171-.829a2 2 0 0 0 .431-1.252c-.005-.434-.133-.792-.382-1.074s-.599-.526-1.049-.715c-.445-.196-.965-.369-1.561-.521l-1.895-.488c-1.372-.352-2.456-.886-3.253-1.602-.791-.721-1.187-1.678-1.187-2.871 0-.981.266-1.84.797-2.577.537-.738 1.266-1.31 2.187-1.716.922-.412 1.965-.618 3.131-.618 1.182 0 2.217.206 3.106.618.895.406 1.597.973 2.107 1.699s.772 1.551.788 2.489h-2.903zm8.635 4.757v7.319h-2.944v-16.655h2.879v6.287h.146c.293-.705.745-1.261 1.358-1.668.618-.412 1.404-.618 2.358-.618.868 0 1.624.182 2.269.545s1.144.895 1.496 1.594c.358.699.537 1.553.537 2.562v7.953h-2.944v-7.498c0-.84-.217-1.493-.65-1.96s-1.03-.707-1.806-.707c-.52 0-.986.114-1.398.341s-.727.545-.96.968c-.228.423-.341.935-.341 1.537zm16.548 7.563c-1.219 0-2.277-.268-3.171-.805s-1.589-1.288-2.082-2.253-.732-2.092-.732-3.383.244-2.42.732-3.391 1.187-1.724 2.082-2.261 1.952-.805 3.171-.805 2.277.269 3.172.805 1.586 1.291 2.074 2.261c.493.971.74 2.101.74 3.391s-.247 2.418-.74 3.383a5.42 5.42 0 0 1-2.074 2.253c-.895.537-1.952.805-3.172.805zm.017-2.358c.661 0 1.214-.182 1.659-.545.444-.369.775-.862.992-1.48s.333-1.307.333-2.066-.111-1.456-.333-2.074c-.217-.623-.548-1.119-.992-1.488s-.998-.553-1.659-.553c-.678 0-1.242.185-1.692.553-.444.369-.778.865-1 1.488-.217.618-.325 1.31-.325 2.074s.108 1.448.325 2.066c.222.618.556 1.111 1 1.48.45.363 1.014.545 1.692.545zm8.467 6.798v-17.175h2.895v2.066h.171a5.42 5.42 0 0 1 .642-.968c.277-.347.651-.643 1.123-.887.471-.249 1.073-.374 1.805-.374a4.76 4.76 0 0 1 2.61.74c.781.488 1.399 1.212 1.855 2.172.46.954.691 2.125.691 3.513 0 1.371-.225 2.537-.675 3.497s-1.063 1.691-1.838 2.195-1.654.757-2.635.757c-.715 0-1.309-.12-1.781-.358s-.851-.526-1.138-.862a5.57 5.57 0 0 1-.659-.968h-.122v6.652h-2.944zm2.887-10.93c0 .808.114 1.516.342 2.123s.566 1.082 1 1.423.97.504 1.594.504c.65 0 1.195-.173 1.634-.52.439-.353.77-.832.992-1.44.228-.612.342-1.309.342-2.09 0-.775-.111-1.463-.333-2.065s-.553-1.074-.993-1.415-.986-.512-1.642-.512c-.629 0-1.163.165-1.602.496s-.773.794-1 1.39-.334 1.299-.334 2.106zm17.236 6.246v-16.655h6.246c1.279 0 2.352.239 3.22.716s1.531 1.133 1.976 1.968c.45.829.675 1.773.675 2.83 0 1.068-.225 2.017-.675 2.846s-1.114 1.483-1.992 1.96-1.96.708-3.245.708h-4.139v-2.481h3.732c.748 0 1.361-.13 1.838-.39s.83-.618 1.057-1.074c.233-.455.35-.978.35-1.569s-.117-1.111-.35-1.561c-.227-.45-.582-.8-1.065-1.049-.477-.255-1.092-.383-1.846-.383h-2.765v14.134h-3.017zm14.607 0v-12.491h2.855v2.082h.13c.228-.721.618-1.277 1.171-1.667a3.22 3.22 0 0 1 1.911-.594l.545.025a3.56 3.56 0 0 1 .512.056v2.708c-.125-.043-.322-.081-.594-.113-.265-.038-.523-.057-.772-.057-.537 0-1.019.116-1.448.349-.422.228-.756.545-1 .952s-.366.875-.366 1.407v7.343h-2.944zm14.014.244c-1.22 0-2.277-.268-3.171-.805s-1.589-1.288-2.082-2.253-.732-2.092-.732-3.383.244-2.42.732-3.391 1.187-1.724 2.082-2.261 1.951-.805 3.171-.805 2.277.269 3.172.805 1.585 1.291 2.073 2.261c.494.971.74 2.101.74 3.391s-.246 2.418-.74 3.383c-.488.965-1.179 1.716-2.073 2.253s-1.952.805-3.172.805zm.016-2.358c.662 0 1.215-.182 1.659-.545.445-.369.776-.862.992-1.48.223-.618.334-1.307.334-2.066s-.111-1.456-.334-2.074c-.216-.623-.547-1.119-.992-1.488s-.997-.553-1.659-.553c-.677 0-1.241.185-1.691.553s-.778.865-1 1.488c-.217.618-.326 1.31-.326 2.074s.109 1.448.326 2.066.555 1.111 1 1.48c.45.363 1.014.545 1.691.545zm13.103 2.334c-.981 0-1.859-.253-2.635-.757s-1.388-1.236-1.838-2.195-.674-2.126-.674-3.497c0-1.388.227-2.559.683-3.513.46-.96 1.081-1.684 1.862-2.172.781-.493 1.651-.74 2.61-.74.732 0 1.334.125 1.806.374.471.244.845.54 1.122.887a5.42 5.42 0 0 1 .642.968h.122v-6.23h2.952v16.655h-2.895v-1.968h-.179c-.152.304-.371.626-.658.968-.288.336-.667.623-1.139.862s-1.065.358-1.781.358zm.821-2.416c.624 0 1.155-.168 1.594-.504s.773-.816 1.001-1.423.341-1.315.341-2.123-.114-1.509-.341-2.106-.553-1.06-.992-1.39c-.434-.331-.968-.496-1.603-.496-.655 0-1.203.17-1.642.512s-.77.813-.992 1.415-.334 1.29-.334 2.065c0 .781.111 1.478.334 2.09s.561 1.087 1 1.44c.444.347.989.52 1.634.52zm16.929-3.057v-7.238h2.944v12.491h-2.854v-2.22h-.13c-.282.699-.746 1.271-1.391 1.716-.639.444-1.428.667-2.366.667-.819 0-1.543-.182-2.171-.545-.624-.369-1.112-.903-1.464-1.602-.353-.705-.529-1.556-.529-2.554v-7.953h2.944v7.498c0 .791.217 1.42.651 1.886s1.003.7 1.707.7c.434 0 .854-.106 1.261-.317s.74-.526 1-.944c.266-.423.398-.951.398-1.585zm11.42 5.497c-1.247 0-2.318-.274-3.212-.821s-1.575-1.304-2.058-2.269c-.477-.971-.715-2.088-.715-3.351s.244-2.388.732-3.358a5.46 5.46 0 0 1 2.065-2.277c.895-.548 1.952-.822 3.172-.822 1.014 0 1.911.187 2.691.562.787.368 1.413.891 1.879 1.569.466.672.732 1.458.797 2.358h-2.814c-.114-.601-.385-1.103-.813-1.504-.423-.407-.989-.61-1.7-.61-.601 0-1.13.163-1.585.488s-.811.781-1.066 1.382c-.249.602-.374 1.323-.374 2.163 0 .852.125 1.584.374 2.196s.599 1.076 1.049 1.407c.456.325.99.488 1.602.488.434 0 .822-.081 1.163-.244a2.33 2.33 0 0 0 .87-.724c.234-.314.393-.696.48-1.146h2.814c-.071.883-.331 1.667-.781 2.35-.45.677-1.062 1.209-1.838 1.594-.775.379-1.686.569-2.732.569zm14.006-12.735v2.277h-7.181v-2.277h7.181zm-5.408-2.993h2.943v11.727c0 .396.06.699.179.911a.97.97 0 0 0 .488.423c.201.075.423.113.667.113.184 0 .353-.013.504-.04l.358-.073.496 2.301c-.157.054-.382.114-.675.179-.287.065-.639.103-1.057.114-.737.021-1.401-.09-1.992-.334s-1.06-.634-1.407-1.154-.51-1.171-.504-1.952v-12.215zm17.563 6.295l-2.684.292c-.076-.271-.208-.525-.398-.764a1.97 1.97 0 0 0-.748-.577c-.315-.147-.7-.22-1.155-.22-.613 0-1.128.133-1.545.399s-.615.609-.61 1.032a1.08 1.08 0 0 0 .398.887c.277.227.732.414 1.367.561l2.13.455c1.182.255 2.06.659 2.635 1.212s.873 1.277.878 2.171a3.39 3.39 0 0 1-.691 2.082c-.45.596-1.076 1.063-1.878 1.399s-1.724.504-2.765.504c-1.529 0-2.76-.32-3.692-.96s-1.488-1.542-1.667-2.691l2.87-.277c.13.564.407.99.83 1.277s.973.431 1.651.431c.699 0 1.26-.144 1.683-.431s.642-.643.642-1.065a1.11 1.11 0 0 0-.414-.887c-.271-.233-.694-.412-1.269-.537l-2.131-.447c-1.198-.249-2.084-.669-2.659-1.26-.574-.597-.859-1.35-.854-2.261-.005-.77.204-1.437.626-2.001.429-.569 1.022-1.008 1.781-1.317.765-.314 1.646-.472 2.643-.472 1.464 0 2.616.312 3.456.936a3.93 3.93 0 0 1 1.57 2.529z" fill="#fff"/></g><defs><filter id="A" x=".32" y=".236" width="355.133" height="804.545" filterUnits="userSpaceOnUse" color-interpolation-filters="sRGB"><feFlood flood-opacity="0" result="A"/><feColorMatrix in="SourceAlpha" values="0 0 0 0 0 0 0 0 0 0 0 0 0 0 0 0 0 0 127 0" result="B"/><feOffset/><feGaussianBlur stdDeviation="1"/><feComposite in2="B" operator="out"/><feColorMatrix values="0 0 0 0 0 0 0 0 0 0 0 0 0 0 0 0 0 0 0.25 0"/><feBlend in2="A"/><feBlend in="SourceGraphic"/></filter></defs></svg>