<svg xmlns="http://www.w3.org/2000/svg" width="356" height="227" fill="none" xmlns:v="https://vecta.io/nano"><style><![CDATA[.B{fill:#262a36}.C{stroke:#fff}.D{stroke-width:1.03}.E{stroke-linecap:round}]]></style><g filter="url(#A)"><rect x="2.867" y="2.781" width="351.133" height="221.367" rx="10" fill="#fff"/><path d="M87.569 66.449h2.555l3.056 5.526h.122l3.056-5.526h2.556L94.37 74.28v4.66h-2.257v-4.66l-4.544-7.831zm15.191 12.674c-.915 0-1.707-.201-2.378-.604s-1.192-.966-1.562-1.689-.549-1.57-.549-2.537.183-1.815.549-2.543a4.09 4.09 0 0 1 1.562-1.695c.671-.403 1.463-.604 2.378-.604s1.708.201 2.379.604a4.05 4.05 0 0 1 1.555 1.695c.37.728.555 1.576.555 2.543s-.185 1.813-.555 2.537-.884 1.287-1.555 1.689-1.464.604-2.379.604zm.013-1.769c.496 0 .91-.136 1.244-.409s.581-.647.744-1.11.25-.98.25-1.549-.083-1.092-.25-1.555-.411-.84-.744-1.116-.748-.415-1.244-.415c-.509 0-.932.138-1.269.415s-.584.648-.75 1.116-.244.982-.244 1.555.081 1.086.244 1.549.417.834.75 1.11.76.409 1.269.409zm12.321-2.354v-5.428h2.208v9.368h-2.141v-1.665h-.097a2.82 2.82 0 0 1-1.043 1.287c-.48.333-1.072.5-1.775.5-.614 0-1.157-.136-1.629-.409a2.84 2.84 0 0 1-1.097-1.201c-.265-.529-.397-1.167-.397-1.915v-5.965h2.208v5.623c0 .594.163 1.065.488 1.415s.752.525 1.281.525c.325 0 .64-.079.945-.238a1.92 1.92 0 0 0 .75-.707c.2-.317.299-.714.299-1.189zm4.478 3.94v-9.368h2.141v1.561h.098c.171-.541.463-.957.878-1.25s.897-.445 1.433-.445l.409.018c.154.008.283.022.384.043v2.031a2.31 2.31 0 0 0-.445-.085c-.199-.029-.392-.043-.579-.043-.403 0-.765.087-1.086.262a1.92 1.92 0 0 0-.75.713 2.01 2.01 0 0 0-.275 1.055v5.507h-2.208zm21.86-8.276h-2.282c-.065-.374-.185-.706-.359-.994a2.68 2.68 0 0 0-.653-.744 2.72 2.72 0 0 0-.89-.458c-.33-.106-.686-.158-1.068-.158-.679 0-1.281.171-1.805.512s-.935.834-1.232 1.488-.445 1.445-.445 2.385c0 .956.148 1.761.445 2.415s.711 1.143 1.232 1.476 1.124.494 1.799.494c.374 0 .724-.049 1.049-.146s.624-.25.885-.445.485-.435.664-.72.309-.61.378-.976l2.282.012a4.94 4.94 0 0 1-1.659 3.05c-.456.394-.988.703-1.598.927s-1.287.329-2.031.329c-1.098 0-2.078-.254-2.94-.762s-1.541-1.242-2.037-2.202-.744-2.11-.744-3.452.25-2.497.75-3.452 1.181-1.694 2.043-2.202 1.838-.762 2.928-.762c.695 0 1.341.098 1.939.293a4.97 4.97 0 0 1 1.598.86c.468.374.852.834 1.153 1.378s.504 1.159.598 1.854zm7.945 4.336v-5.428h2.208v9.368h-2.141v-1.665h-.097a2.82 2.82 0 0 1-1.043 1.287c-.48.333-1.072.5-1.775.5-.614 0-1.157-.136-1.629-.409a2.84 2.84 0 0 1-1.097-1.201c-.265-.529-.397-1.167-.397-1.915v-5.965h2.208v5.623c0 .594.163 1.065.488 1.415s.752.525 1.281.525c.325 0 .64-.079.945-.238a1.92 1.92 0 0 0 .75-.707c.199-.317.299-.714.299-1.189zm4.478 3.94v-9.368h2.141v1.561h.098c.17-.541.463-.957.878-1.25s.897-.445 1.433-.445l.409.018a2.76 2.76 0 0 1 .384.043v2.031a2.31 2.31 0 0 0-.445-.085c-.199-.029-.392-.043-.58-.043a2.23 2.23 0 0 0-1.085.262 1.92 1.92 0 0 0-.75.713 2.01 2.01 0 0 0-.275 1.055v5.507h-2.208zm6.81 0v-9.368h2.141v1.561h.097c.171-.541.464-.957.879-1.25s.896-.445 1.433-.445l.409.018a2.76 2.76 0 0 1 .384.043v2.031c-.094-.033-.242-.061-.445-.085a4.11 4.11 0 0 0-.58-.043c-.402 0-.764.087-1.086.262a1.92 1.92 0 0 0-.75.713 2.01 2.01 0 0 0-.274 1.055v5.507h-2.208zm10.571.183c-.939 0-1.75-.195-2.433-.585s-1.202-.951-1.568-1.671-.549-1.576-.549-2.555c0-.964.183-1.809.549-2.537s.887-1.301 1.549-1.708 1.442-.616 2.336-.616a4.73 4.73 0 0 1 1.635.281c.516.183.972.468 1.366.854s.712.878.939 1.476.342 1.301.342 2.122v.677h-7.679v-1.488h5.562c-.004-.423-.095-.799-.274-1.128s-.429-.596-.75-.787-.687-.287-1.11-.287c-.452 0-.848.11-1.19.329a2.27 2.27 0 0 0-.798.854c-.188.35-.283.734-.287 1.153v1.299c0 .545.099 1.012.299 1.403s.477.683.835.89.777.305 1.257.305a2.67 2.67 0 0 0 .872-.134c.26-.093.486-.23.677-.409s.335-.401.433-.665l2.061.232a3.21 3.21 0 0 1-.744 1.427c-.362.403-.825.716-1.39.939s-1.212.329-1.94.329zm8.242-5.672v5.489h-2.208v-9.368h2.11v1.592h.11c.215-.525.559-.941 1.031-1.25s1.063-.464 1.762-.464c.647 0 1.21.138 1.69.415s.858.677 1.122 1.201.4 1.161.396 1.909v5.965h-2.208v-5.623c0-.626-.162-1.116-.488-1.47-.321-.354-.766-.531-1.335-.531a2.05 2.05 0 0 0-1.031.256 1.77 1.77 0 0 0-.701.726c-.167.317-.25.701-.25 1.153zm12.936-3.879v1.708h-5.386v-1.708h5.386zm-4.056-2.244h2.208v8.795c0 .297.044.524.134.683a.72.72 0 0 0 .366.317 1.4 1.4 0 0 0 .5.085c.138 0 .264-.01.378-.031l.268-.055.372 1.726a4.82 4.82 0 0 1-.506.134 4.14 4.14 0 0 1-.793.085c-.553.016-1.051-.067-1.494-.25s-.795-.476-1.055-.866-.382-.878-.378-1.464v-9.161zm10.26 11.613V66.449h4.684c.96 0 1.765.167 2.415.5s1.149.801 1.482 1.403.507 1.295.507 2.092-.171 1.496-.513 2.086-.835 1.039-1.494 1.36-1.468.476-2.427.476h-3.337v-1.879h3.032c.561 0 1.02-.077 1.378-.232a1.64 1.64 0 0 0 .793-.689c.175-.305.262-.679.262-1.122s-.087-.821-.262-1.134-.441-.557-.799-.72-.819-.25-1.385-.25h-2.073v10.6h-2.263zm6.453-5.66l3.092 5.66h-2.525l-3.037-5.66h2.47zm8.572 5.843c-.915 0-1.708-.201-2.379-.604s-1.191-.966-1.561-1.689-.549-1.57-.549-2.537.183-1.815.549-2.543.891-1.293 1.561-1.695 1.464-.604 2.379-.604 1.708.201 2.379.604a4.05 4.05 0 0 1 1.555 1.695c.37.728.555 1.576.555 2.543s-.185 1.813-.555 2.537-.884 1.287-1.555 1.689-1.464.604-2.379.604zm.012-1.769c.496 0 .911-.136 1.244-.409s.582-.647.745-1.11.25-.98.25-1.549-.084-1.092-.25-1.555-.411-.84-.745-1.116-.748-.415-1.244-.415c-.508 0-.931.138-1.268.415s-.584.648-.751 1.116-.243.982-.243 1.555.081 1.086.243 1.549.417.834.751 1.11.76.409 1.268.409zm12.322-2.354v-5.428h2.208v9.368h-2.141v-1.665h-.098c-.211.525-.559.954-1.043 1.287-.479.333-1.071.5-1.774.5-.614 0-1.157-.136-1.629-.409s-.833-.677-1.098-1.201-.396-1.167-.396-1.915v-5.965h2.208v5.623c0 .594.162 1.065.488 1.415s.752.525 1.281.525c.325 0 .64-.079.945-.238a1.92 1.92 0 0 0 .75-.707c.199-.317.299-.714.299-1.189zm9.156-5.428v1.708h-5.385v-1.708h5.385zm-4.056-2.244h2.208v8.795c0 .297.045.524.134.683s.216.26.366.317.317.085.5.085c.139 0 .265-.01.379-.031l.268-.055.372 1.726c-.118.041-.287.085-.506.134s-.48.077-.793.085c-.553.016-1.051-.067-1.494-.25s-.795-.476-1.056-.866-.382-.878-.378-1.464v-9.161zm5.903 11.613v-9.368h2.208v9.368h-2.208zm1.11-10.698c-.35 0-.651-.116-.903-.348a1.12 1.12 0 0 1-.378-.848c0-.334.126-.616.378-.848s.553-.354.903-.354a1.26 1.26 0 0 1 .902.354c.252.232.378.514.378.848a1.12 1.12 0 0 1-.378.848c-.248.232-.549.348-.902.348zm5.576 5.209v5.489h-2.208v-9.368h2.11v1.592h.11c.215-.525.559-.941 1.031-1.25s1.063-.464 1.762-.464c.647 0 1.21.138 1.69.415a2.79 2.79 0 0 1 1.122 1.201c.268.525.401 1.161.396 1.909v5.965h-2.207v-5.623c0-.626-.163-1.116-.488-1.47s-.767-.531-1.336-.531c-.386 0-.73.085-1.031.256s-.53.409-.701.726-.25.701-.25 1.153zm12.405 5.672c-.939 0-1.75-.195-2.433-.585s-1.202-.951-1.568-1.671-.549-1.576-.549-2.555c0-.964.183-1.809.549-2.537s.887-1.301 1.549-1.708 1.442-.616 2.336-.616a4.73 4.73 0 0 1 1.635.281c.516.183.972.468 1.366.854s.712.878.939 1.476.342 1.301.342 2.122v.677h-7.679v-1.488h5.563c-.004-.423-.096-.799-.275-1.128s-.429-.596-.75-.787-.687-.287-1.11-.287c-.451 0-.848.11-1.189.329s-.608.5-.799.854-.283.734-.287 1.153v1.299c0 .545.1 1.012.299 1.403s.478.683.835.89.777.305 1.257.305a2.67 2.67 0 0 0 .872-.134c.26-.093.486-.23.677-.409s.335-.401.433-.665l2.061.232a3.21 3.21 0 0 1-.744 1.427 3.62 3.62 0 0 1-1.39.939c-.565.22-1.212.329-1.94.329z" class="B"/><use href="#B" transform="translate(75.889 94.143)" class="B"/><path d="M108.336 96.072l-30.709 30.71" class="C D E"/><path d="M77.741 95.953l30.788 30.788" class="C D E"/><rect x="53.915" y="158.008" width="77.598" height="6.867" rx="3.434" class="B"/><path d="M55.783 152.719v-11.986h4.495c.921 0 1.693.159 2.318.479s1.102.769 1.422 1.347.486 1.242.486 2.007-.164 1.436-.492 2.002c-.324.561-.802.997-1.434 1.305s-1.409.456-2.329.456h-3.201v-1.802h2.909c.538 0 .979-.074 1.323-.223s.597-.372.761-.661.252-.652.252-1.077-.084-.788-.252-1.089a1.6 1.6 0 0 0-.767-.69c-.343-.16-.786-.24-1.329-.24h-1.99v10.172h-2.171zm6.192-5.432l2.967 5.432H62.52l-2.915-5.432h2.37zm8.226 5.607c-.878 0-1.639-.193-2.282-.579s-1.143-.927-1.498-1.621-.527-1.506-.527-2.435.175-1.742.527-2.441.855-1.24 1.498-1.627 1.405-.579 2.282-.579 1.639.193 2.282.579 1.141.929 1.492 1.627.533 1.512.533 2.441-.178 1.74-.533 2.435-.849 1.235-1.492 1.621-1.405.579-2.282.579zm.012-1.697c.476 0 .874-.131 1.194-.392s.558-.62.714-1.065.24-.941.24-1.487-.08-1.047-.24-1.492-.394-.806-.714-1.071-.718-.398-1.194-.398c-.488 0-.893.132-1.217.398s-.56.622-.72 1.071-.234.942-.234 1.492.078 1.042.234 1.487.4.8.72 1.065.73.392 1.217.392zm11.824-2.259v-5.209h2.119v8.99h-2.054v-1.598h-.094c-.203.503-.536.915-1.001 1.235s-1.028.48-1.703.48c-.589 0-1.11-.131-1.563-.392s-.8-.65-1.053-1.153-.38-1.12-.38-1.838v-5.724h2.119v5.396c0 .57.156 1.022.468 1.358s.722.503 1.229.503c.312 0 .614-.076.907-.228a1.84 1.84 0 0 0 .72-.679c.191-.304.287-.685.287-1.141zm8.786-5.209v1.639h-5.168v-1.639h5.168zm-3.892-2.154h2.119v8.44c0 .285.043.503.129.655s.207.25.351.305a1.36 1.36 0 0 0 .48.082 2.02 2.02 0 0 0 .363-.03l.257-.052.357 1.656c-.113.039-.275.082-.486.129s-.46.074-.761.082c-.531.015-1.009-.065-1.434-.24-.425-.18-.763-.457-1.013-.831s-.367-.843-.363-1.405v-8.791zm5.664 11.144v-8.99h2.119v8.99h-2.119zm1.065-10.266c-.336 0-.624-.111-.866-.333s-.363-.498-.363-.814a1.06 1.06 0 0 1 .363-.813 1.22 1.22 0 0 1 .866-.34c.339 0 .628.113.866.34a1.06 1.06 0 0 1 .363.813c0 .316-.121.587-.363.814s-.527.333-.866.333zm5.351 4.998v5.268h-2.119v-8.99h2.025v1.528h.105c.207-.504.537-.904.989-1.2s1.02-.445 1.691-.445c.621 0 1.161.133 1.621.398.465.265.824.65 1.077 1.153.258.503.385 1.114.381 1.832v5.724h-2.119v-5.396c0-.601-.156-1.071-.468-1.411s-.736-.509-1.282-.509c-.371 0-.7.082-.989.246s-.509.392-.673.696-.24.673-.24 1.106zm11.904 5.443c-.901 0-1.679-.187-2.335-.562a3.8 3.8 0 0 1-1.504-1.603c-.351-.695-.527-1.512-.527-2.452 0-.925.176-1.737.527-2.435s.851-1.249 1.487-1.639 1.383-.591 2.241-.591c.554 0 1.077.09 1.569.269s.932.449 1.311.82.682.842.901 1.416.328 1.249.328 2.037v.649h-7.369v-1.428h5.338c-.004-.406-.092-.766-.264-1.082s-.411-.572-.719-.755-.66-.276-1.066-.276c-.433 0-.813.106-1.141.317a2.17 2.17 0 0 0-.767.819c-.179.335-.271.704-.275 1.106v1.247c0 .522.096.971.287 1.346a2.05 2.05 0 0 0 .802.854c.343.195.745.293 1.206.293a2.55 2.55 0 0 0 .836-.129 1.85 1.85 0 0 0 .65-.392c.183-.172.322-.384.416-.638l1.978.222c-.125.523-.363.98-.714 1.37s-.792.687-1.335.901-1.162.316-1.861.316zm11.511-.175h-2.318l4.22-11.986h2.681l4.225 11.986h-2.317l-3.202-9.528h-.093l-3.196 9.528zm.076-4.7h6.321v1.744h-6.321v-1.744z" class="B"/><use href="#B" transform="translate(161.041 94.143)" class="B"/><path d="M193.488 96.072l-30.709 30.71" class="C D E"/><path d="M162.893 95.953l30.788 30.788" class="C D E"/><rect x="139.066" y="158.008" width="77.598" height="6.867" rx="3.434" class="B"/><path d="M140.935 152.719v-11.986h4.495c.92 0 1.693.159 2.317.479s1.102.769 1.422 1.347.486 1.242.486 2.007-.164 1.436-.491 2.002c-.324.561-.802.997-1.434 1.305s-1.409.456-2.33.456h-3.201v-1.802h2.909c.538 0 .979-.074 1.322-.223s.597-.372.761-.661.252-.652.252-1.077-.084-.788-.252-1.089a1.6 1.6 0 0 0-.767-.69c-.343-.16-.786-.24-1.328-.24h-1.99v10.172h-2.171zm6.192-5.432l2.967 5.432h-2.423l-2.915-5.432h2.371zm8.226 5.607c-.878 0-1.639-.193-2.283-.579s-1.143-.927-1.498-1.621-.527-1.506-.527-2.435.176-1.742.527-2.441a3.93 3.93 0 0 1 1.498-1.627c.644-.386 1.405-.579 2.283-.579s1.638.193 2.282.579a3.9 3.9 0 0 1 1.493 1.627c.355.699.532 1.512.532 2.441s-.177 1.74-.532 2.435-.849 1.235-1.493 1.621-1.404.579-2.282.579zm.011-1.697c.476 0 .874-.131 1.194-.392s.558-.62.714-1.065.24-.941.24-1.487-.08-1.047-.24-1.492-.394-.806-.714-1.071-.718-.398-1.194-.398c-.487 0-.893.132-1.217.398s-.56.622-.72 1.071-.234.942-.234 1.492.078 1.042.234 1.487.4.8.72 1.065.73.392 1.217.392zm11.824-2.259v-5.209h2.119v8.99h-2.054v-1.598h-.094c-.203.503-.537.915-1.001 1.235s-1.028.48-1.703.48c-.589 0-1.11-.131-1.563-.392a2.73 2.73 0 0 1-1.053-1.153c-.254-.508-.381-1.12-.381-1.838v-5.724h2.119v5.396c0 .57.156 1.022.468 1.358s.722.503 1.229.503c.313 0 .615-.076.908-.228a1.84 1.84 0 0 0 .719-.679c.192-.304.287-.685.287-1.141zm8.786-5.209v1.639h-5.167v-1.639h5.167zm-3.892-2.154h2.119v8.44c0 .285.043.503.129.655s.207.25.351.305.304.082.48.082a2.02 2.02 0 0 0 .363-.03l.257-.052.357 1.656c-.113.039-.275.082-.485.129s-.461.074-.761.082c-.531.015-1.009-.065-1.434-.24a2.24 2.24 0 0 1-1.013-.831c-.245-.375-.366-.843-.363-1.405v-8.791zm5.664 11.144v-8.99h2.119v8.99h-2.119zm1.066-10.266c-.336 0-.625-.111-.867-.333s-.362-.498-.362-.814a1.06 1.06 0 0 1 .362-.813c.242-.227.531-.34.867-.34a1.21 1.21 0 0 1 .866.34 1.06 1.06 0 0 1 .363.813c0 .316-.121.587-.363.814s-.527.333-.866.333zm5.35 4.998v5.268h-2.118v-8.99h2.025v1.528h.105a2.57 2.57 0 0 1 .989-1.2c.457-.297 1.02-.445 1.692-.445.62 0 1.16.133 1.621.398s.823.65 1.077 1.153.384 1.114.38 1.832v5.724h-2.119v-5.396c0-.601-.156-1.071-.468-1.411s-.735-.509-1.282-.509a1.97 1.97 0 0 0-.989.246 1.71 1.71 0 0 0-.673.696c-.16.305-.24.673-.24 1.106zm11.905 5.443c-.902 0-1.68-.187-2.336-.562-.651-.378-1.153-.913-1.504-1.603-.351-.695-.526-1.512-.526-2.452 0-.925.175-1.737.526-2.435s.851-1.249 1.487-1.639 1.383-.591 2.241-.591c.554 0 1.077.09 1.569.269s.932.449 1.311.82.683.842.901 1.416.328 1.249.328 2.037v.649h-7.368v-1.428h5.337c-.004-.406-.092-.766-.263-1.082s-.412-.572-.72-.755-.66-.276-1.065-.276c-.433 0-.814.106-1.142.317a2.17 2.17 0 0 0-.766.819 2.35 2.35 0 0 0-.275 1.106v1.247c0 .522.095.971.286 1.346s.459.655.802.854.745.293 1.206.293c.308 0 .587-.043.837-.129s.466-.22.649-.392a1.63 1.63 0 0 0 .416-.638l1.978.222c-.125.523-.363.98-.714 1.37s-.792.687-1.334.901-1.163.316-1.861.316zm11.51-.175h-2.317l4.219-11.986h2.681l4.226 11.986h-2.318l-3.201-9.528h-.094l-3.196 9.528zm.076-4.7h6.321v1.744h-6.321v-1.744z" class="B"/><use href="#B" transform="translate(246.193 94.143)" class="B"/><path d="M278.641 96.072l-30.71 30.71" class="C D E"/><path d="M248.046 95.953l30.787 30.788" class="C D E"/><rect x="224.219" y="158.008" width="77.598" height="6.867" rx="3.434" class="B"/><path d="M226.088 152.719v-11.986h4.495c.921 0 1.693.159 2.317.479s1.103.769 1.423 1.347.485 1.242.485 2.007-.163 1.436-.491 2.002c-.324.561-.802.997-1.434 1.305s-1.409.456-2.329.456h-3.202v-1.802h2.909c.538 0 .979-.074 1.323-.223s.597-.372.76-.661c.168-.293.252-.652.252-1.077s-.084-.788-.252-1.089-.423-.534-.766-.69-.786-.24-1.329-.24h-1.99v10.172h-2.171zm6.192-5.432l2.967 5.432h-2.423l-2.914-5.432h2.37zm8.226 5.607c-.878 0-1.639-.193-2.283-.579a3.94 3.94 0 0 1-1.498-1.621c-.351-.695-.527-1.506-.527-2.435s.176-1.742.527-2.441.855-1.24 1.498-1.627 1.405-.579 2.283-.579 1.639.193 2.283.579 1.141.929 1.492 1.627.533 1.512.533 2.441-.178 1.74-.533 2.435a3.9 3.9 0 0 1-1.492 1.621c-.644.386-1.405.579-2.283.579zm.012-1.697c.476 0 .874-.131 1.194-.392s.558-.62.714-1.065.24-.941.24-1.487-.08-1.047-.24-1.492-.394-.806-.714-1.071-.718-.398-1.194-.398c-.488 0-.894.132-1.218.398s-.56.622-.72 1.071-.234.942-.234 1.492.078 1.042.234 1.487.4.8.72 1.065.73.392 1.218.392zm11.824-2.259v-5.209h2.118v8.99h-2.054v-1.598h-.094c-.203.503-.536.915-1.001 1.235s-1.028.48-1.703.48c-.589 0-1.11-.131-1.562-.392s-.8-.65-1.054-1.153-.38-1.12-.38-1.838v-5.724h2.118v5.396c0 .57.157 1.022.469 1.358s.721.503 1.229.503c.312 0 .614-.076.907-.228a1.85 1.85 0 0 0 .72-.679c.191-.304.287-.685.287-1.141zm8.786-5.209v1.639h-5.168v-1.639h5.168zm-3.892-2.154h2.118v8.44c0 .285.043.503.129.655s.207.25.351.305.305.082.48.082a2.02 2.02 0 0 0 .363-.03l.258-.052.357 1.656c-.113.039-.275.082-.486.129s-.46.074-.761.082c-.531.015-1.009-.065-1.434-.24-.425-.18-.763-.457-1.012-.831s-.367-.843-.363-1.405v-8.791zm5.664 11.144v-8.99h2.118v8.99H262.9zm1.065-10.266c-.336 0-.624-.111-.866-.333s-.363-.498-.363-.814a1.06 1.06 0 0 1 .363-.813 1.22 1.22 0 0 1 .866-.34 1.21 1.21 0 0 1 .866.34 1.06 1.06 0 0 1 .363.813c0 .316-.121.587-.363.814s-.527.333-.866.333zm5.351 4.998v5.268h-2.119v-8.99h2.025v1.528h.105a2.57 2.57 0 0 1 .989-1.2c.457-.297 1.021-.445 1.692-.445.62 0 1.161.133 1.621.398s.823.65 1.077 1.153.384 1.114.38 1.832v5.724h-2.118v-5.396c0-.601-.156-1.071-.468-1.411s-.736-.509-1.282-.509c-.371 0-.701.082-.989.246s-.509.392-.673.696-.24.673-.24 1.106zm11.904 5.443c-.901 0-1.68-.187-2.335-.562a3.8 3.8 0 0 1-1.504-1.603c-.352-.695-.527-1.512-.527-2.452 0-.925.175-1.737.527-2.435s.85-1.249 1.486-1.639 1.383-.591 2.242-.591c.554 0 1.077.09 1.568.269a3.54 3.54 0 0 1 1.311.82c.383.37.683.842.902 1.416s.327 1.249.327 2.037v.649h-7.368v-1.428h5.337a2.26 2.26 0 0 0-.263-1.082c-.172-.32-.412-.572-.72-.755s-.659-.276-1.065-.276c-.433 0-.813.106-1.141.317-.328.206-.584.479-.767.819s-.271.704-.275 1.106v1.247c0 .522.096.971.287 1.346s.458.655.802.854.745.293 1.205.293c.308 0 .587-.043.837-.129a1.86 1.86 0 0 0 .65-.392 1.63 1.63 0 0 0 .415-.638l1.979.222c-.125.523-.363.98-.714 1.37s-.793.687-1.335.901-1.163.316-1.861.316zm11.511-.175h-2.318l4.22-11.986h2.68l4.226 11.986h-2.318l-3.201-9.528h-.094l-3.195 9.528zm.076-4.7h6.321v1.744h-6.321v-1.744z" class="B"/></g><defs><filter id="A" x=".867" y=".781" width="355.133" height="225.367" filterUnits="userSpaceOnUse" color-interpolation-filters="sRGB"><feFlood flood-opacity="0" result="A"/><feColorMatrix in="SourceAlpha" values="0 0 0 0 0 0 0 0 0 0 0 0 0 0 0 0 0 0 127 0" result="B"/><feOffset/><feGaussianBlur stdDeviation="1"/><feComposite in2="B" operator="out"/><feColorMatrix values="0 0 0 0 0 0 0 0 0 0 0 0 0 0 0 0 0 0 0.25 0"/><feBlend in2="A"/><feBlend in="SourceGraphic"/></filter><path id="B" d="M0 0h34.335v34.335H0z"/></defs></svg>