<svg xmlns="http://www.w3.org/2000/svg" width="356" height="268" fill="none" xmlns:v="https://vecta.io/nano"><style><![CDATA[.B{fill:#262a36}.C{stroke:#fff}.D{stroke-width:2.405}.E{stroke-linecap:round}]]></style><g filter="url(#A)"><rect x="2.867" y="2.711" width="351.133" height="262.396" rx="10" fill="#fff"/><use href="#B" transform="translate(35.308 87.633)" class="B"/><use href="#C" class="C D E"/><use href="#D" class="C D E"/><use href="#B" transform="translate(138.358 87.633)" class="B"/><use href="#C" x="103.05" class="C D E"/><use href="#D" x="103.05" class="C D E"/><use href="#B" transform="translate(241.408 87.633)" class="B"/><use href="#C" x="206.1" class="C D E"/><use href="#D" x="206.1" class="C D E"/><rect x="35.308" y="179.23" width="80.15" height="9.542" rx="4.771" class="B"/><rect x="138.358" y="179.23" width="80.15" height="9.542" rx="4.771" class="B"/><rect x="241.408" y="179.23" width="80.15" height="9.542" rx="4.771" class="B"/><rect x="35.308" y="196.406" width="80.15" height="9.542" rx="4.771" class="B"/><rect x="138.358" y="196.406" width="80.15" height="9.542" rx="4.771" class="B"/><rect x="241.408" y="196.406" width="80.15" height="9.542" rx="4.771" class="B"/><rect x="35.308" y="213.582" width="80.15" height="9.542" rx="4.771" class="B"/><rect x="138.358" y="213.582" width="80.15" height="9.542" rx="4.771" class="B"/><rect x="241.408" y="213.582" width="80.15" height="9.542" rx="4.771" class="B"/><path d="M51.833 58.368c0 1.794-.336 3.331-1.008 4.611-.667 1.274-1.578 2.25-2.732 2.928-1.149.678-2.453 1.017-3.912 1.017s-2.765-.339-3.92-1.017c-1.149-.683-2.06-1.662-2.732-2.936-.667-1.279-1-2.814-1-4.603 0-1.794.333-3.329 1-4.603.672-1.28 1.583-2.258 2.732-2.936 1.155-.678 2.461-1.017 3.92-1.017s2.762.339 3.912 1.017c1.155.678 2.066 1.656 2.732 2.936.672 1.274 1.008 2.808 1.008 4.603zm-3.033 0c0-1.263-.198-2.329-.594-3.196-.39-.873-.932-1.532-1.626-1.976-.694-.45-1.494-.675-2.399-.675s-1.705.225-2.399.675c-.694.445-1.239 1.103-1.635 1.976-.39.867-.586 1.933-.586 3.196s.195 2.331.586 3.204c.396.867.941 1.526 1.635 1.976.694.444 1.494.667 2.399.667s1.705-.222 2.399-.667c.694-.45 1.236-1.109 1.626-1.976.396-.873.594-1.941.594-3.204zm13.717 3.074v-7.238h2.944v12.491h-2.854v-2.22h-.13c-.282.699-.745 1.271-1.391 1.716-.64.445-1.428.667-2.366.667-.819 0-1.542-.182-2.171-.545-.623-.369-1.111-.903-1.464-1.602-.352-.705-.529-1.556-.529-2.553v-7.953h2.944v7.498c0 .791.217 1.42.65 1.887s1.003.699 1.708.699a2.7 2.7 0 0 0 1.261-.317c.407-.212.74-.526 1-.943.266-.423.398-.951.398-1.586zm5.971 5.253V54.204h2.854v2.082h.13c.228-.721.618-1.277 1.171-1.667.558-.396 1.195-.594 1.911-.594l.545.024a3.66 3.66 0 0 1 .512.057v2.708c-.125-.043-.323-.081-.594-.114-.266-.038-.523-.057-.773-.057-.537 0-1.019.117-1.448.35a2.56 2.56 0 0 0-1 .952c-.244.407-.366.876-.366 1.407v7.343h-2.944zM82.645 52.57v-2.529h13.288v2.529h-5.148v14.125h-2.993V52.57h-5.148zm19.357 14.369c-1.22 0-2.277-.268-3.172-.805s-1.588-1.288-2.082-2.253c-.488-.965-.732-2.093-.732-3.383s.244-2.421.732-3.391c.493-.971 1.187-1.724 2.082-2.261s1.952-.805 3.172-.805 2.276.268 3.171.805a5.4 5.4 0 0 1 2.074 2.261c.493.97.74 2.101.74 3.391s-.247 2.418-.74 3.383a5.41 5.41 0 0 1-2.074 2.253c-.895.537-1.952.805-3.171.805zm.016-2.358c.661 0 1.214-.182 1.659-.545.444-.369.775-.862.992-1.48.222-.618.333-1.307.333-2.066 0-.764-.111-1.456-.333-2.074-.217-.623-.548-1.12-.992-1.488s-.998-.553-1.659-.553c-.678 0-1.242.184-1.692.553-.444.369-.778.865-1 1.488-.217.618-.325 1.309-.325 2.074 0 .759.108 1.448.325 2.066.222.618.556 1.111 1 1.48.45.363 1.014.545 1.692.545zm8.467 6.798V54.204h2.895v2.066h.171a5.41 5.41 0 0 1 .643-.968c.276-.347.65-.642 1.122-.886.471-.249 1.073-.374 1.805-.374.965 0 1.835.247 2.611.74.78.488 1.398 1.212 1.854 2.171.46.954.691 2.125.691 3.513 0 1.372-.225 2.537-.675 3.497s-1.063 1.691-1.838 2.196-1.653.756-2.635.756c-.715 0-1.309-.119-1.781-.358s-.851-.526-1.138-.862a5.57 5.57 0 0 1-.659-.968h-.122v6.652h-2.944zm2.887-10.93c0 .808.114 1.515.342 2.122.233.607.566 1.082 1 1.423.439.336.97.504 1.594.504.65 0 1.195-.173 1.634-.52.44-.352.77-.832.993-1.439.227-.613.341-1.309.341-2.09 0-.775-.111-1.464-.333-2.066s-.553-1.073-.992-1.415-.987-.512-1.643-.512c-.629 0-1.163.165-1.602.496s-.773.794-1 1.391-.334 1.298-.334 2.106zm17.236 6.245V50.041h6.246c1.279 0 2.353.239 3.22.716.873.477 1.532 1.133 1.976 1.968.45.829.675 1.773.675 2.83 0 1.068-.225 2.017-.675 2.846s-1.114 1.483-1.992 1.96c-.879.472-1.96.708-3.245.708h-4.139v-2.48h3.732c.749 0 1.361-.13 1.838-.39a2.46 2.46 0 0 0 1.057-1.073c.234-.455.35-.979.35-1.57s-.116-1.111-.35-1.561c-.227-.45-.582-.8-1.065-1.049-.477-.255-1.092-.382-1.846-.382h-2.765v14.134h-3.017zm14.607 0V54.204h2.944v12.491h-2.944zm1.481-14.264c-.467 0-.868-.155-1.204-.464-.336-.315-.504-.691-.504-1.13 0-.444.168-.821.504-1.13a1.7 1.7 0 0 1 1.204-.472c.471 0 .872.157 1.203.472.336.309.504.686.504 1.13 0 .439-.168.816-.504 1.13-.331.309-.732.464-1.203.464zm9.939 14.508c-1.247 0-2.318-.274-3.212-.821s-1.575-1.304-2.058-2.269c-.477-.971-.715-2.087-.715-3.35 0-1.269.244-2.388.732-3.359.488-.976 1.176-1.735 2.065-2.277.895-.548 1.952-.821 3.172-.821 1.014 0 1.911.187 2.691.561.787.369 1.413.892 1.879 1.57.466.672.732 1.458.797 2.358h-2.814c-.114-.602-.385-1.103-.813-1.505-.423-.407-.989-.61-1.7-.61-.601 0-1.13.163-1.585.488-.456.32-.811.781-1.066 1.382-.249.602-.374 1.323-.374 2.163 0 .851.125 1.583.374 2.196.25.607.599 1.076 1.049 1.407.456.325.99.488 1.602.488a2.67 2.67 0 0 0 1.163-.244c.347-.168.637-.409.87-.724s.393-.697.48-1.147h2.814c-.071.884-.331 1.667-.781 2.35-.45.678-1.062 1.209-1.838 1.594-.775.379-1.686.569-2.732.569zm10.452-4.164l-.008-3.554h.471l4.489-5.017h3.44l-5.522 6.148h-.609l-2.261 2.423zm-2.684 3.92V50.041h2.944v16.655h-2.944zm7.84 0l-4.067-5.684 1.985-2.074 5.603 7.758h-3.521zm15.07-9.189l-2.683.293c-.076-.271-.209-.526-.399-.764a1.97 1.97 0 0 0-.748-.577c-.314-.146-.699-.22-1.155-.22-.612 0-1.127.133-1.545.398-.412.266-.615.61-.61 1.033a1.08 1.08 0 0 0 .399.886c.276.228.732.415 1.366.561l2.131.455c1.182.255 2.06.659 2.634 1.212.581.553.873 1.277.879 2.171-.006.786-.236 1.48-.692 2.082-.449.596-1.076 1.063-1.878 1.399s-1.724.504-2.765.504c-1.529 0-2.759-.32-3.692-.96-.932-.645-1.488-1.542-1.667-2.692l2.871-.276c.13.564.406.989.829 1.277s.973.431 1.651.431c.699 0 1.26-.144 1.683-.431.429-.287.643-.642.643-1.065a1.11 1.11 0 0 0-.415-.886c-.271-.233-.694-.412-1.269-.537l-2.13-.447c-1.198-.249-2.085-.669-2.659-1.261-.575-.596-.86-1.35-.854-2.261-.006-.77.203-1.437.626-2 .428-.569 1.022-1.008 1.781-1.317.764-.314 1.645-.472 2.643-.472 1.464 0 2.616.312 3.456.935.846.623 1.369 1.466 1.569 2.529zm8.507 9.189V50.041h10.669v2.529h-7.652v4.521h6.92v2.529h-6.92v7.075h-3.017zm17.819.244c-1.22 0-2.277-.268-3.172-.805s-1.588-1.288-2.081-2.253-.732-2.093-.732-3.383.244-2.421.732-3.391 1.187-1.724 2.081-2.261 1.952-.805 3.172-.805 2.277.268 3.172.805 1.585 1.29 2.073 2.261c.494.97.74 2.101.74 3.391s-.246 2.418-.74 3.383c-.488.965-1.179 1.716-2.073 2.253s-1.952.805-3.172.805zm.016-2.358c.662 0 1.215-.182 1.659-.545.445-.369.775-.862.992-1.48.223-.618.334-1.307.334-2.066 0-.764-.111-1.456-.334-2.074-.217-.623-.547-1.12-.992-1.488s-.997-.553-1.659-.553c-.677 0-1.241.184-1.691.553s-.778.865-1 1.488c-.217.618-.326 1.309-.326 2.074 0 .759.109 1.448.326 2.066.222.618.555 1.111 1 1.48.45.363 1.014.545 1.691.545zm8.468 2.114V54.204h2.854v2.082h.13c.228-.721.618-1.277 1.171-1.667.559-.396 1.196-.594 1.911-.594l.545.024a3.68 3.68 0 0 1 .513.057v2.708c-.125-.043-.323-.081-.594-.114a5.46 5.46 0 0 0-.773-.057c-.536 0-1.019.117-1.447.35-.423.228-.756.545-1 .952a2.68 2.68 0 0 0-.366 1.407v7.343h-2.944zm16.589 4.684a5.96 5.96 0 0 1-1.114-.098c-.336-.06-.604-.13-.805-.211l.683-2.293c.429.125.811.184 1.147.179s.631-.111.886-.317c.26-.201.48-.537.659-1.008l.252-.675-4.53-12.751h3.123l2.879 9.433h.13l2.887-9.433h3.131l-5.001 14.003c-.234.661-.543 1.228-.927 1.7a3.77 3.77 0 0 1-1.415 1.09c-.553.255-1.215.382-1.985.382zm16.389-4.44c-1.22 0-2.277-.268-3.172-.805s-1.588-1.288-2.082-2.253c-.488-.965-.732-2.093-.732-3.383s.244-2.421.732-3.391c.494-.971 1.187-1.724 2.082-2.261s1.952-.805 3.172-.805 2.277.268 3.171.805a5.4 5.4 0 0 1 2.074 2.261c.493.97.74 2.101.74 3.391s-.247 2.418-.74 3.383a5.41 5.41 0 0 1-2.074 2.253c-.894.537-1.952.805-3.171.805zm.016-2.358c.661 0 1.214-.182 1.659-.545.444-.369.775-.862.992-1.48.222-.618.333-1.307.333-2.066 0-.764-.111-1.456-.333-2.074-.217-.623-.548-1.12-.992-1.488s-.998-.553-1.659-.553c-.678 0-1.242.184-1.692.553-.444.369-.778.865-1 1.488-.217.618-.325 1.309-.325 2.074 0 .759.108 1.448.325 2.066s.556 1.111 1 1.48c.45.363 1.014.545 1.692.545zm16.429-3.139v-7.238h2.943v12.491h-2.854v-2.22h-.13a3.75 3.75 0 0 1-1.391 1.716c-.639.445-1.428.667-2.366.667-.819 0-1.542-.182-2.171-.545-.624-.369-1.112-.903-1.464-1.602-.352-.705-.529-1.556-.529-2.553v-7.953h2.944v7.498c0 .791.217 1.42.651 1.887s1.003.699 1.707.699c.434 0 .854-.106 1.261-.317s.74-.526 1-.943c.266-.423.399-.951.399-1.586z" class="B"/></g><defs><filter id="A" x=".867" y=".711" width="355.133" height="266.395" filterUnits="userSpaceOnUse" color-interpolation-filters="sRGB"><feFlood flood-opacity="0" result="A"/><feColorMatrix in="SourceAlpha" values="0 0 0 0 0 0 0 0 0 0 0 0 0 0 0 0 0 0 127 0" result="B"/><feOffset/><feGaussianBlur stdDeviation="1"/><feComposite in2="B" operator="out"/><feColorMatrix values="0 0 0 0 0 0 0 0 0 0 0 0 0 0 0 0 0 0 0.25 0"/><feBlend in2="A"/><feBlend in="SourceGraphic"/></filter><path id="B" d="M0 0h80.15v80.15H0z"/><path id="C" d="M111.05 92.137l-71.686 71.685"/><path id="D" d="M39.631 91.859l71.868 71.868"/></defs></svg>