<svg xmlns="http://www.w3.org/2000/svg" width="355" height="528" fill="none" xmlns:v="https://vecta.io/nano"><style><![CDATA[.B{fill:#262a36}.C{stroke-width:8.588}.D{stroke-linecap:round}]]></style><g filter="url(#A)"><rect x="2.186" y="2.236" width="350.494" height="522.883" rx="10" fill="#fff"/><path transform="translate(34.628 104.332)" d="M0 0h117.363v309.15H0z" class="B"/><path d="M45.429 118.967l97.02 280.204" stroke="#fff" class="C D"/><path d="M138.082 120.424L45.124 399.171" stroke="#fff" class="C D"/><path d="M126.29 49.566v16.654h-2.683l-7.848-11.344h-.138v11.344h-3.017V49.566h2.7l7.839 11.352h.147V49.566h3zm3.158 16.654V53.73h2.943v12.491h-2.943zm1.48-14.264c-.467 0-.868-.154-1.204-.464-.336-.314-.504-.691-.504-1.13 0-.445.168-.821.504-1.13a1.7 1.7 0 0 1 1.204-.472c.471 0 .872.157 1.203.472.336.309.504.686.504 1.13 0 .439-.168.816-.504 1.13-.331.309-.732.464-1.203.464zm8.085 14.516c-.792 0-1.504-.141-2.139-.423a3.49 3.49 0 0 1-1.496-1.269c-.363-.558-.545-1.247-.545-2.065 0-.705.13-1.288.39-1.748a3.03 3.03 0 0 1 1.066-1.106 5.38 5.38 0 0 1 1.52-.626c.57-.146 1.158-.252 1.765-.317l1.781-.203c.455-.065.786-.163.992-.293.212-.136.317-.344.317-.626v-.049c0-.613-.181-1.087-.545-1.423s-.886-.504-1.569-.504c-.721 0-1.293.157-1.716.472-.417.314-.699.686-.846 1.114l-2.748-.39c.217-.759.574-1.393 1.073-1.903.499-.515 1.109-.9 1.83-1.155.721-.26 1.518-.39 2.391-.39.601 0 1.201.07 1.797.211s1.141.374 1.634.699c.494.32.89.756 1.188 1.309s.455 1.244.455 2.074v8.36h-2.83v-1.716h-.097c-.179.347-.431.672-.757.976-.32.298-.723.539-1.211.724-.483.179-1.049.268-1.7.268zm.764-2.163c.591 0 1.104-.117 1.537-.35.434-.239.768-.553 1.001-.943s.357-.816.357-1.277v-1.472c-.092.076-.249.146-.471.211a6.68 6.68 0 0 1-.732.171l-.805.13-.691.098c-.44.06-.833.157-1.18.293a1.96 1.96 0 0 0-.821.569c-.201.239-.301.548-.301.927 0 .542.198.951.594 1.228s.9.415 1.512.415zm14.24 2.155c-1.247 0-2.318-.274-3.212-.821s-1.575-1.304-2.058-2.269c-.477-.97-.716-2.087-.716-3.35 0-1.269.244-2.388.732-3.358.488-.976 1.177-1.735 2.066-2.277.894-.548 1.952-.821 3.171-.821 1.014 0 1.912.187 2.692.561.786.369 1.412.892 1.879 1.569.466.672.732 1.458.797 2.358h-2.814c-.114-.602-.385-1.103-.813-1.505-.423-.407-.99-.61-1.7-.61-.602 0-1.13.163-1.586.488-.455.32-.81.781-1.065 1.382-.249.602-.374 1.323-.374 2.163 0 .851.125 1.583.374 2.196.249.607.599 1.076 1.049 1.407.455.325.989.488 1.602.488.434 0 .821-.081 1.163-.244.347-.168.637-.409.87-.724s.393-.697.48-1.147h2.814c-.071.884-.331 1.667-.781 2.35-.45.678-1.063 1.209-1.838 1.594-.775.38-1.686.569-2.732.569zm7.768-.244V53.73h2.944v12.491h-2.944zm1.48-14.264a1.72 1.72 0 0 1-1.204-.464c-.336-.314-.504-.691-.504-1.13 0-.445.168-.821.504-1.13.337-.314.738-.472 1.204-.472.472 0 .873.157 1.204.472.336.309.504.686.504 1.13 0 .439-.168.816-.504 1.13a1.7 1.7 0 0 1-1.204.464zm7.435 6.945v7.319h-2.944V53.73h2.814v2.123h.146c.287-.699.745-1.255 1.374-1.667.635-.412 1.418-.618 2.35-.618.862 0 1.613.184 2.253.553s1.144.903 1.496 1.602c.358.699.534 1.548.529 2.545v7.953h-2.944v-7.498c0-.835-.217-1.488-.65-1.96s-1.022-.708-1.781-.708a2.74 2.74 0 0 0-1.375.342c-.395.222-.707.545-.935.968-.222.423-.333.935-.333 1.537zm14.605 7.571c-.792 0-1.504-.141-2.139-.423a3.49 3.49 0 0 1-1.496-1.269c-.363-.558-.545-1.247-.545-2.065 0-.705.13-1.288.39-1.748a3.03 3.03 0 0 1 1.066-1.106 5.38 5.38 0 0 1 1.52-.626c.57-.146 1.158-.252 1.765-.317l1.781-.203c.455-.065.786-.163.992-.293.212-.136.317-.344.317-.626v-.049c0-.613-.181-1.087-.545-1.423s-.886-.504-1.569-.504c-.721 0-1.293.157-1.716.472-.417.314-.699.686-.846 1.114l-2.748-.39c.217-.759.574-1.393 1.073-1.903.499-.515 1.109-.9 1.83-1.155.721-.26 1.518-.39 2.391-.39.601 0 1.201.07 1.797.211s1.141.374 1.634.699c.494.32.89.756 1.188 1.309s.455 1.244.455 2.074v8.36h-2.83v-1.716h-.097c-.179.347-.431.672-.757.976-.32.298-.723.539-1.211.724-.483.179-1.049.268-1.7.268zm.764-2.163c.591 0 1.104-.117 1.537-.35.434-.239.767-.553 1.001-.943s.357-.816.357-1.277v-1.472c-.092.076-.249.146-.471.211a6.68 6.68 0 0 1-.732.171l-.805.13-.691.098c-.44.06-.833.157-1.18.293a1.96 1.96 0 0 0-.821.569c-.201.239-.301.548-.301.927 0 .542.198.951.594 1.228s.9.415 1.512.415zm8.791 1.911V53.73h2.814v2.123h.146a3.32 3.32 0 0 1 1.293-1.675c.602-.407 1.32-.61 2.155-.61.846 0 1.559.206 2.139.618.586.407.998.962 1.236 1.667h.13c.277-.694.743-1.247 1.399-1.659.661-.417 1.445-.626 2.35-.626 1.149 0 2.087.363 2.814 1.09s1.09 1.786 1.09 3.18v8.384h-2.952v-7.929c0-.775-.206-1.342-.618-1.7-.412-.363-.917-.545-1.513-.545-.71 0-1.266.222-1.667.667-.396.439-.594 1.011-.594 1.716v7.791h-2.887V58.17c0-.645-.195-1.16-.585-1.545s-.889-.577-1.513-.577a2.13 2.13 0 0 0-1.154.325 2.27 2.27 0 0 0-.83.903c-.206.385-.309.835-.309 1.35v7.595h-2.944zm20.552 0V53.73h2.944v12.491h-2.944zm1.48-14.264c-.466 0-.867-.154-1.203-.464a1.49 1.49 0 0 1-.505-1.13c0-.445.168-.821.505-1.13a1.7 1.7 0 0 1 1.203-.472c.472 0 .873.157 1.204.472.336.309.504.686.504 1.13 0 .439-.168.816-.504 1.13a1.7 1.7 0 0 1-1.204.464zm9.126 14.483c-.981 0-1.859-.252-2.634-.756s-1.388-1.236-1.838-2.196-.675-2.125-.675-3.497c0-1.388.227-2.559.683-3.513.461-.959 1.081-1.683 1.862-2.171.781-.493 1.651-.74 2.61-.74.732 0 1.334.125 1.806.374.471.244.846.539 1.122.886.277.342.491.664.642.968h.122v-6.229h2.952v16.654h-2.895v-1.968h-.179c-.151.304-.371.626-.658.968-.288.336-.667.623-1.139.862s-1.065.358-1.781.358zm.822-2.415c.623 0 1.154-.168 1.594-.504.439-.342.772-.816 1-1.423s.341-1.315.341-2.123-.113-1.51-.341-2.106c-.222-.596-.553-1.06-.992-1.391s-.968-.496-1.602-.496c-.656 0-1.204.171-1.643.512s-.77.813-.992 1.415-.334 1.29-.334 2.066c0 .781.112 1.477.334 2.09.228.607.561 1.087 1 1.439.445.347.99.52 1.635.52zm14.497 2.44c-1.252 0-2.334-.26-3.245-.781a5.28 5.28 0 0 1-2.089-2.228c-.488-.965-.732-2.101-.732-3.407 0-1.285.244-2.413.732-3.383.493-.976 1.181-1.735 2.065-2.277.884-.548 1.922-.821 3.115-.821a6.3 6.3 0 0 1 2.179.374c.689.244 1.296.624 1.822 1.139s.948 1.171 1.252 1.968c.304.791.455 1.735.455 2.83v.903h-10.238v-1.984h7.417c-.006-.564-.128-1.065-.366-1.504a2.66 2.66 0 0 0-1.001-1.049c-.422-.255-.916-.382-1.48-.382-.601 0-1.13.146-1.585.439-.456.287-.811.667-1.066 1.139-.249.466-.377.979-.382 1.537v1.732c0 .727.133 1.35.399 1.87.265.515.637.911 1.114 1.187.477.271 1.035.407 1.675.407.428 0 .816-.06 1.163-.179a2.57 2.57 0 0 0 .902-.545c.255-.239.448-.534.578-.886l2.748.309a4.28 4.28 0 0 1-.992 1.903c-.482.537-1.1.954-1.854 1.252-.753.293-1.615.439-2.586.439z" class="B"/><rect x="34.628" y="79.525" width="286.25" height="9.542" rx="4.771" class="B"/><rect x="163.441" y="143.453" width="157.438" height="9.542" rx="4.771" class="B"/><rect x="163.441" y="160.629" width="157.438" height="9.542" rx="4.771" class="B"/><rect x="163.441" y="177.803" width="157.438" height="9.542" rx="4.771" class="B"/><path d="M165.083 109.677h3.692l4.945 12.069h.195l4.944-12.069h3.692v16.655h-2.895V114.89h-.154l-4.603 11.393h-2.163l-4.603-11.417h-.154v11.466h-2.896v-16.655zm24.218 16.907c-.792 0-1.505-.141-2.139-.423-.629-.287-1.128-.71-1.496-1.268s-.545-1.247-.545-2.066c0-.705.13-1.287.39-1.748s.616-.83 1.066-1.106.957-.485 1.52-.626a12.3 12.3 0 0 1 1.765-.318l1.781-.203c.455-.065.786-.163.992-.293.211-.135.317-.344.317-.626v-.049c0-.612-.181-1.087-.545-1.423s-.886-.504-1.569-.504c-.721 0-1.293.157-1.716.472-.417.314-.699.686-.846 1.114l-2.748-.391c.216-.759.574-1.393 1.073-1.902.499-.515 1.109-.9 1.83-1.155.721-.26 1.518-.391 2.391-.391.601 0 1.2.071 1.797.212a5.06 5.06 0 0 1 1.634.699c.494.32.889.757 1.188 1.31s.455 1.244.455 2.073v8.36h-2.83v-1.716h-.098c-.178.347-.431.672-.756.976-.32.298-.724.539-1.212.724-.482.179-1.049.268-1.699.268zm.764-2.163c.591 0 1.104-.117 1.537-.35a2.59 2.59 0 0 0 1.001-.943c.238-.39.357-.816.357-1.277v-1.472c-.092.076-.249.147-.471.212a6.75 6.75 0 0 1-.732.171l-.805.13-.692.097c-.439.06-.832.157-1.179.293s-.62.325-.821.569-.301.548-.301.927c0 .542.198.952.594 1.228s.9.415 1.512.415zm8.791 1.911v-12.491h2.944v12.491h-2.944zm1.48-14.264c-.466 0-.867-.154-1.203-.463-.337-.315-.505-.691-.505-1.131s.168-.821.505-1.13a1.7 1.7 0 0 1 1.203-.472c.472 0 .873.158 1.204.472.336.309.504.686.504 1.13s-.168.816-.504 1.131c-.331.309-.732.463-1.204.463zm7.435 6.945v7.319h-2.944v-12.491h2.814v2.123h.146a3.57 3.57 0 0 1 1.375-1.667c.634-.413 1.417-.619 2.35-.619.862 0 1.613.185 2.252.553.645.369 1.144.903 1.497 1.602s.534 1.548.528 2.546v7.953h-2.944v-7.498c0-.835-.217-1.488-.65-1.96s-1.022-.707-1.781-.707a2.74 2.74 0 0 0-1.374.341c-.396.223-.708.545-.936.968-.222.423-.333.935-.333 1.537zm16.821 7.319v-16.655h6.376c1.203 0 2.204.19 3 .57.803.374 1.402.886 1.798 1.537.401.65.601 1.388.601 2.212 0 .677-.13 1.257-.39 1.74a3.28 3.28 0 0 1-1.049 1.163 4.44 4.44 0 0 1-1.472.642v.163a3.6 3.6 0 0 1 1.7.545c.547.325.995.786 1.342 1.382s.52 1.318.52 2.163a4.4 4.4 0 0 1-.626 2.326c-.418.683-1.046 1.223-1.887 1.618s-1.897.594-3.171.594h-6.742zm3.017-2.521h3.245c1.095 0 1.884-.209 2.366-.626.488-.423.732-.965.732-1.627a2.49 2.49 0 0 0-.366-1.333c-.244-.401-.591-.716-1.041-.944-.45-.233-.986-.349-1.61-.349h-3.326v4.879zm0-7.05h2.985c.52 0 .989-.095 1.407-.285s.745-.469.984-.821c.243-.358.365-.781.365-1.269 0-.645-.227-1.176-.683-1.594-.45-.417-1.119-.626-2.008-.626h-3.05v4.595zm17.433 9.815c-1.252 0-2.334-.26-3.244-.781a5.28 5.28 0 0 1-2.09-2.228c-.488-.965-.732-2.101-.732-3.407 0-1.285.244-2.413.732-3.383.493-.976 1.182-1.735 2.065-2.277.884-.548 1.922-.822 3.115-.822.77 0 1.496.125 2.179.375.689.244 1.296.623 1.822 1.138s.949 1.171 1.252 1.968c.304.792.456 1.735.456 2.83v.903h-10.239v-1.985h7.417c-.006-.563-.128-1.065-.366-1.504-.239-.445-.572-.794-1-1.049s-.917-.382-1.48-.382c-.602 0-1.131.146-1.586.439-.456.287-.811.667-1.066 1.138a3.29 3.29 0 0 0-.382 1.537v1.732c0 .727.133 1.35.399 1.871.265.515.637.911 1.114 1.187.477.271 1.035.407 1.675.407a3.57 3.57 0 0 0 1.163-.179 2.58 2.58 0 0 0 .903-.545 2.28 2.28 0 0 0 .577-.886l2.749.309c-.174.726-.505 1.36-.992 1.903-.483.536-1.101.954-1.855 1.252s-1.615.439-2.586.439zm10.989-7.563v7.319h-2.944v-12.491h2.814v2.123h.146a3.57 3.57 0 0 1 1.374-1.667c.635-.413 1.418-.619 2.351-.619.862 0 1.613.185 2.252.553.645.369 1.144.903 1.497 1.602s.534 1.548.528 2.546v7.953h-2.944v-7.498c0-.835-.217-1.488-.65-1.96s-1.022-.707-1.781-.707c-.515 0-.973.114-1.375.341-.395.223-.707.545-.935.968-.222.423-.333.935-.333 1.537zm17.338-5.172v2.277h-7.384v-2.277h7.384zm-5.538 12.491v-13.67c0-.84.173-1.54.52-2.098a3.28 3.28 0 0 1 1.415-1.252c.591-.277 1.247-.415 1.968-.415a6.74 6.74 0 0 1 1.358.122l.878.219-.585 2.277c-.125-.038-.282-.076-.472-.114s-.401-.065-.634-.065c-.548 0-.935.133-1.163.399-.222.26-.333.634-.333 1.122v13.475h-2.952zm7.843 0v-12.491h2.944v12.491h-2.944zm1.48-14.264a1.72 1.72 0 0 1-1.204-.463c-.336-.315-.504-.691-.504-1.131s.168-.821.504-1.13.738-.472 1.204-.472c.472 0 .873.158 1.204.472s.504.686.504 1.13-.168.816-.504 1.131c-.331.309-.732.463-1.204.463zm10.728 1.773v2.277h-7.18v-2.277h7.18zm-5.408-2.992h2.944v11.726c0 .396.06.699.179.911.125.206.287.347.488.423a1.87 1.87 0 0 0 .667.114 2.89 2.89 0 0 0 .504-.041l.358-.073.496 2.301c-.157.054-.382.114-.675.179-.287.065-.64.103-1.057.114-.737.021-1.402-.09-1.993-.334a3.1 3.1 0 0 1-1.406-1.154c-.342-.521-.51-1.171-.505-1.952v-12.214zm17.564 6.294l-2.684.293c-.076-.272-.209-.526-.398-.765s-.434-.431-.748-.577-.7-.22-1.155-.22c-.613 0-1.128.133-1.545.399-.412.265-.616.61-.61 1.032a1.08 1.08 0 0 0 .398.887c.277.227.732.415 1.366.561l2.131.455c1.182.255 2.06.659 2.635 1.212s.873 1.277.878 2.171c-.005.786-.236 1.48-.691 2.082-.45.596-1.076 1.063-1.879 1.399s-1.724.504-2.765.504c-1.528 0-2.759-.32-3.692-.96s-1.488-1.542-1.667-2.691l2.871-.277c.13.564.407.99.829 1.277s.974.431 1.651.431c.7 0 1.261-.144 1.684-.431s.642-.643.642-1.065a1.11 1.11 0 0 0-.415-.887c-.271-.233-.694-.412-1.268-.536l-2.131-.448c-1.198-.249-2.084-.669-2.659-1.26-.575-.597-.859-1.35-.854-2.261-.005-.77.203-1.437.626-2 .429-.57 1.022-1.009 1.781-1.318.765-.314 1.646-.472 2.643-.472 1.464 0 2.616.312 3.456.936a3.93 3.93 0 0 1 1.57 2.529z" class="B"/><rect x="163.441" y="243.641" width="157.438" height="9.542" rx="4.771" class="B"/><rect x="163.441" y="260.816" width="157.438" height="9.542" rx="4.771" class="B"/><rect x="163.441" y="277.99" width="157.438" height="9.542" rx="4.771" class="B"/><path d="M174.135 214.443a2.22 2.22 0 0 0-.96-1.659c-.558-.395-1.285-.593-2.179-.593-.629 0-1.169.095-1.619.284s-.794.448-1.033.773-.36.697-.365 1.114c0 .347.078.648.235.903.163.255.383.471.659.65a4.62 4.62 0 0 0 .919.439 9.65 9.65 0 0 0 1.016.301l1.562.391a10.74 10.74 0 0 1 1.813.593c.586.25 1.109.564 1.57.944a4.18 4.18 0 0 1 1.106 1.374c.271.537.406 1.166.406 1.887 0 .975-.249 1.835-.748 2.577s-1.22 1.315-2.163 1.733c-.938.412-2.074.618-3.407.618-1.296 0-2.421-.201-3.375-.602s-1.692-.987-2.228-1.757-.819-1.707-.862-2.813h2.968c.043.58.222 1.062.537 1.447s.723.672 1.228.862 1.078.285 1.707.285c.656 0 1.231-.098 1.724-.293.499-.201.889-.477 1.171-.829.282-.358.426-.776.431-1.253-.005-.434-.132-.791-.382-1.073-.249-.288-.599-.526-1.049-.716-.444-.195-.965-.369-1.561-.52l-1.895-.488c-1.372-.353-2.456-.887-3.253-1.602-.791-.721-1.187-1.678-1.187-2.871 0-.981.265-1.84.797-2.578.537-.737 1.266-1.309 2.187-1.716s1.966-.618 3.131-.618c1.182 0 2.218.206 3.107.618s1.596.973 2.106 1.7c.509.721.772 1.55.789 2.488h-2.903zm8.374 8.157l-.009-3.554h.472l4.489-5.017h3.44l-5.522 6.147h-.61l-2.26 2.424zm-2.684 3.92v-16.655h2.944v16.655h-2.944zm7.839 0l-4.066-5.685 1.984-2.073 5.603 7.758h-3.521zm5.199 0v-12.491h2.944v12.491h-2.944zm1.48-14.264a1.72 1.72 0 0 1-1.204-.464c-.336-.314-.504-.691-.504-1.13 0-.445.168-.821.504-1.13a1.7 1.7 0 0 1 1.204-.472c.471 0 .873.157 1.203.472.336.309.505.685.505 1.13 0 .439-.169.816-.505 1.13-.33.309-.732.464-1.203.464zm7.435 6.945v7.319h-2.944v-12.491h2.813v2.122h.147c.287-.699.745-1.255 1.374-1.667s1.418-.618 2.35-.618c.862 0 1.613.184 2.253.553.645.369 1.144.903 1.496 1.602.358.699.534 1.548.529 2.545v7.954h-2.944v-7.498c0-.835-.217-1.488-.651-1.96-.428-.472-1.022-.708-1.781-.708a2.73 2.73 0 0 0-1.374.342c-.396.222-.707.545-.935.968-.222.423-.333.935-.333 1.537zm16.089-6.807v-2.529h13.288v2.529h-5.148v14.126h-2.992v-14.126h-5.148zm16.118 18.81a5.96 5.96 0 0 1-1.114-.098c-.336-.06-.605-.13-.805-.211l.683-2.294c.428.125.81.185 1.146.179s.632-.111.887-.317c.26-.2.479-.537.658-1.008l.252-.675-4.529-12.751h3.123l2.878 9.433h.131l2.886-9.433h3.131l-5.001 14.003c-.233.662-.542 1.228-.927 1.7s-.857.84-1.415 1.089c-.553.255-1.214.383-1.984.383zm11.364 0v-17.175h2.895v2.065h.171c.152-.303.366-.626.643-.968.276-.347.65-.642 1.122-.886s1.073-.374 1.805-.374c.965 0 1.835.247 2.611.74s1.398 1.212 1.854 2.171c.461.954.691 2.125.691 3.513 0 1.372-.225 2.538-.675 3.497s-1.063 1.692-1.838 2.196-1.653.756-2.635.756c-.715 0-1.309-.119-1.781-.358s-.851-.526-1.138-.862c-.282-.341-.502-.664-.659-.967h-.122v6.652h-2.944zm2.887-10.93c0 .808.114 1.515.342 2.123s.566 1.081 1 1.423c.439.336.97.504 1.594.504.651 0 1.195-.174 1.635-.521s.769-.832.992-1.439c.227-.613.341-1.309.341-2.09 0-.775-.111-1.464-.333-2.065s-.553-1.074-.992-1.415-.987-.513-1.643-.513c-.629 0-1.163.166-1.602.496s-.773.795-1 1.391-.334 1.298-.334 2.106zm16.956 6.489c-1.253 0-2.334-.26-3.245-.78-.905-.526-1.602-1.269-2.09-2.228-.488-.965-.732-2.101-.732-3.408 0-1.285.244-2.412.732-3.383s1.182-1.735 2.066-2.277c.883-.547 1.921-.821 3.114-.821a6.32 6.32 0 0 1 2.18.374 4.93 4.93 0 0 1 1.821 1.139c.531.515.949 1.171 1.253 1.968.303.791.455 1.734.455 2.829v.903h-10.238v-1.984h7.416c-.005-.564-.127-1.065-.366-1.505s-.572-.794-1-1.049-.916-.382-1.48-.382c-.602 0-1.131.147-1.586.439s-.81.667-1.065 1.139a3.26 3.26 0 0 0-.382 1.537v1.732c0 .726.132 1.35.398 1.87a2.85 2.85 0 0 0 1.114 1.188c.477.271 1.036.406 1.675.406a3.54 3.54 0 0 0 1.163-.179c.347-.124.648-.306.903-.545s.447-.534.577-.886l2.749.309c-.174.727-.504 1.361-.992 1.903s-1.101.954-1.854 1.252c-.754.293-1.616.439-2.586.439zm17.917-9.433l-2.684.293c-.076-.271-.209-.526-.398-.764a1.99 1.99 0 0 0-.748-.578c-.315-.146-.7-.219-1.155-.219-.613 0-1.128.132-1.545.398s-.616.61-.61 1.033c-.006.363.127.659.398.886.277.228.732.415 1.366.561l2.131.456c1.182.255 2.06.659 2.635 1.211s.873 1.277.878 2.172c-.005.786-.236 1.48-.691 2.082-.45.596-1.076 1.062-1.879 1.398s-1.724.504-2.765.504c-1.528 0-2.759-.319-3.692-.959-.932-.645-1.488-1.542-1.667-2.692l2.871-.276c.13.564.407.989.829 1.276s.974.431 1.651.431c.7 0 1.261-.143 1.684-.431s.642-.642.642-1.065c0-.358-.138-.653-.415-.886-.271-.233-.694-.412-1.268-.537l-2.131-.447c-1.198-.25-2.084-.67-2.659-1.261s-.859-1.35-.854-2.26c-.005-.77.203-1.437.626-2.001.429-.569 1.022-1.008 1.781-1.317.765-.315 1.646-.472 2.643-.472 1.464 0 2.616.312 3.456.935.846.624 1.369 1.467 1.57 2.529z" class="B"/><rect x="163.441" y="369.592" width="157.438" height="9.542" rx="4.771" class="B"/><rect x="163.441" y="386.766" width="157.438" height="9.542" rx="4.771" class="B"/><rect x="163.441" y="403.941" width="157.438" height="9.542" rx="4.771" class="B"/><path d="M168.1 310.052v16.655h-3.017v-16.655h3.017zm6.081 9.336v7.319h-2.944v-12.491h2.814v2.123h.147c.287-.7.745-1.255 1.374-1.667s1.418-.619 2.35-.619c.862 0 1.613.185 2.253.553s1.144.903 1.496 1.602c.358.7.534 1.548.529 2.546v7.953h-2.944v-7.498c0-.835-.217-1.488-.651-1.96-.428-.471-1.022-.707-1.781-.707a2.74 2.74 0 0 0-1.374.341c-.396.223-.708.545-.935.968s-.334.935-.334 1.537zm16.443 12.263c-1.057 0-1.965-.143-2.724-.431-.759-.282-1.369-.661-1.83-1.138s-.78-1.006-.959-1.586l2.651-.642a2.91 2.91 0 0 0 .52.723c.228.244.534.445.919.602.391.163.881.244 1.472.244.835 0 1.526-.203 2.074-.61.547-.401.821-1.062.821-1.984v-2.366h-.146c-.152.303-.374.615-.667.935-.287.32-.67.588-1.147.805-.471.217-1.065.325-1.781.325-.959 0-1.829-.225-2.61-.675-.775-.455-1.393-1.133-1.854-2.033-.455-.905-.683-2.038-.683-3.399 0-1.372.228-2.529.683-3.472.461-.949 1.081-1.668 1.862-2.155.781-.494 1.651-.741 2.611-.741.731 0 1.333.125 1.805.375.477.244.856.539 1.138.886.282.342.496.664.643.968h.162v-2.066h2.904v12.694c0 1.068-.255 1.952-.765 2.651s-1.206 1.223-2.09 1.57-1.886.52-3.009.52zm.025-7.432c.623 0 1.155-.152 1.594-.456s.772-.74 1-1.309.341-1.252.341-2.049c0-.786-.113-1.475-.341-2.066-.222-.591-.553-1.049-.992-1.374-.434-.331-.968-.496-1.602-.496-.656 0-1.204.17-1.643.512s-.77.811-.992 1.407-.333 1.263-.333 2.017c0 .764.111 1.434.333 2.008.228.57.561 1.014 1 1.334.445.314.99.472 1.635.472zm8.856 2.488v-12.491h2.854v2.082h.13c.228-.721.618-1.277 1.171-1.667.559-.396 1.196-.594 1.911-.594l.545.025c.206.01.377.029.512.057v2.708c-.124-.044-.322-.082-.593-.114a5.46 5.46 0 0 0-.773-.057c-.537 0-1.019.116-1.447.349a2.56 2.56 0 0 0-1.001.952c-.244.406-.366.875-.366 1.407v7.343h-2.943zm14.095.244c-1.253 0-2.334-.26-3.245-.781-.905-.526-1.602-1.268-2.09-2.228-.488-.965-.732-2.101-.732-3.407 0-1.285.244-2.413.732-3.383.493-.976 1.182-1.735 2.065-2.277.884-.548 1.922-.822 3.115-.822.77 0 1.496.125 2.179.375.689.244 1.296.623 1.822 1.138s.949 1.171 1.252 1.968.456 1.735.456 2.83v.903h-10.238v-1.985h7.416c-.005-.563-.127-1.065-.366-1.504-.238-.445-.572-.794-1-1.049s-.916-.382-1.48-.382c-.602 0-1.131.146-1.586.439-.455.287-.811.667-1.065 1.138a3.28 3.28 0 0 0-.383 1.537v1.732c0 .727.133 1.35.399 1.871.266.515.637.911 1.114 1.187s1.036.407 1.675.407c.429 0 .816-.06 1.163-.179a2.58 2.58 0 0 0 .903-.545 2.27 2.27 0 0 0 .577-.886l2.749.309c-.174.726-.504 1.36-.992 1.903-.483.536-1.101.954-1.854 1.252s-1.616.439-2.586.439zm12.68-.024c-.982 0-1.86-.252-2.635-.757s-1.388-1.236-1.838-2.195-.675-2.126-.675-3.497c0-1.388.228-2.559.683-3.513.461-.96 1.082-1.684 1.862-2.171.781-.494 1.651-.741 2.611-.741.732 0 1.333.125 1.805.375.472.244.846.539 1.122.886a5.41 5.41 0 0 1 .643.968h.122v-6.23h2.952v16.655h-2.895v-1.968h-.179a5.06 5.06 0 0 1-.659.968c-.287.336-.667.623-1.138.862s-1.066.358-1.781.358zm.821-2.416c.623 0 1.155-.168 1.594-.504s.772-.816 1-1.423.342-1.315.342-2.122-.114-1.51-.342-2.107c-.222-.596-.553-1.06-.992-1.39s-.968-.496-1.602-.496c-.656 0-1.204.17-1.643.512s-.77.813-.992 1.415-.333 1.29-.333 2.066.111 1.477.333 2.09c.228.607.561 1.087 1 1.439.445.347.99.52 1.635.52zm8.968 2.196v-12.491h2.943v12.491h-2.943zm1.48-14.264c-.467 0-.868-.154-1.204-.463-.336-.315-.504-.691-.504-1.131s.168-.821.504-1.13a1.7 1.7 0 0 1 1.204-.472c.471 0 .872.158 1.203.472s.504.686.504 1.13-.168.816-.504 1.131c-.331.309-.732.463-1.203.463zm10.02 14.508c-1.252 0-2.333-.26-3.244-.781a5.28 5.28 0 0 1-2.09-2.228c-.488-.965-.732-2.101-.732-3.407 0-1.285.244-2.413.732-3.383.493-.976 1.182-1.735 2.065-2.277.884-.548 1.922-.822 3.115-.822.77 0 1.496.125 2.179.375.689.244 1.296.623 1.822 1.138s.949 1.171 1.252 1.968.456 1.735.456 2.83v.903h-10.239v-1.985h7.417c-.006-.563-.128-1.065-.366-1.504-.239-.445-.572-.794-1-1.049s-.917-.382-1.48-.382c-.602 0-1.131.146-1.586.439-.456.287-.811.667-1.065 1.138a3.28 3.28 0 0 0-.383 1.537v1.732c0 .727.133 1.35.399 1.871.265.515.637.911 1.114 1.187s1.035.407 1.675.407a3.57 3.57 0 0 0 1.163-.179 2.58 2.58 0 0 0 .903-.545 2.28 2.28 0 0 0 .577-.886l2.749.309c-.174.726-.505 1.36-.992 1.903-.483.536-1.101.954-1.855 1.252s-1.615.439-2.586.439zm10.989-7.563v7.319h-2.944v-12.491h2.814v2.123h.146a3.57 3.57 0 0 1 1.375-1.667c.634-.413 1.417-.619 2.35-.619.862 0 1.613.185 2.252.553.645.369 1.144.903 1.497 1.602s.534 1.548.528 2.546v7.953h-2.944v-7.498c0-.835-.216-1.488-.65-1.96-.428-.471-1.022-.707-1.781-.707a2.74 2.74 0 0 0-1.374.341c-.396.223-.708.545-.936.968-.222.423-.333.935-.333 1.537zm17.248-5.172v2.277h-7.181v-2.277h7.181zm-5.408-2.992h2.944v11.726c0 .396.06.699.179.911.125.206.287.347.488.423a1.87 1.87 0 0 0 .667.114 2.89 2.89 0 0 0 .504-.041l.358-.073.496 2.301c-.157.054-.382.114-.675.179-.287.065-.64.103-1.057.114-.738.021-1.402-.09-1.993-.334s-1.06-.634-1.407-1.154c-.341-.521-.509-1.171-.504-1.952v-12.214zm-91.059 32.448h-3.041c-.087-.499-.247-.941-.48-1.326s-.523-.721-.87-.992-.743-.474-1.188-.61c-.439-.141-.913-.211-1.423-.211-.905 0-1.707.227-2.407.683-.699.45-1.247 1.111-1.642 1.984s-.594 1.927-.594 3.18c0 1.274.198 2.347.594 3.22.401.867.948 1.523 1.642 1.968.7.439 1.499.659 2.399.659.499 0 .965-.065 1.399-.195.439-.136.832-.334 1.179-.594s.648-.58.886-.96c.244-.379.412-.813.505-1.301l3.041.016c-.114.792-.36 1.535-.74 2.229a6.58 6.58 0 0 1-1.472 1.838c-.607.525-1.317.937-2.13 1.236-.814.292-1.716.439-2.708.439-1.464 0-2.771-.339-3.92-1.017s-2.055-1.656-2.716-2.935-.992-2.814-.992-4.603c0-1.795.333-3.329 1-4.603s1.575-2.258 2.724-2.936 2.451-1.016 3.904-1.016c.927 0 1.789.13 2.586.39s1.507.643 2.13 1.147a6.09 6.09 0 0 1 1.537 1.838c.407.721.672 1.545.797 2.472zm8.081 11.279c-1.219 0-2.277-.268-3.171-.805s-1.589-1.288-2.082-2.253-.732-2.092-.732-3.383.244-2.42.732-3.391 1.187-1.724 2.082-2.26 1.952-.806 3.171-.806 2.277.269 3.172.806 1.586 1.29 2.074 2.26.74 2.101.74 3.391-.247 2.418-.74 3.383a5.42 5.42 0 0 1-2.074 2.253c-.895.537-1.952.805-3.172.805zm.017-2.358c.661 0 1.214-.182 1.659-.545.444-.369.775-.862.992-1.48.222-.618.333-1.307.333-2.066s-.111-1.455-.333-2.073c-.217-.624-.548-1.12-.992-1.489s-.998-.553-1.659-.553c-.678 0-1.242.185-1.692.553-.444.369-.778.865-1 1.489-.217.618-.325 1.309-.325 2.073s.108 1.448.325 2.066.556 1.111 1 1.48c.45.363 1.014.545 1.692.545zm8.467 2.114v-12.491h2.814v2.123h.146c.26-.716.691-1.274 1.293-1.676s1.32-.61 2.155-.61c.846 0 1.559.206 2.139.619.586.406.998.962 1.236 1.667h.13c.277-.694.743-1.247 1.399-1.659.661-.418 1.445-.627 2.35-.627 1.149 0 2.087.364 2.814 1.09s1.089 1.787 1.089 3.18v8.384h-2.951v-7.929c0-.775-.206-1.342-.619-1.699-.412-.364-.916-.545-1.512-.545-.71 0-1.266.222-1.667.667-.396.439-.594 1.011-.594 1.715v7.791h-2.887v-8.051c0-.645-.195-1.16-.585-1.545-.385-.385-.889-.577-1.513-.577-.423 0-.808.108-1.155.325-.347.211-.623.512-.829.903-.206.385-.309.835-.309 1.35v7.595h-2.944zm20.682 0v-16.655h2.944v6.23h.122c.152-.304.366-.626.642-.968.277-.347.651-.642 1.123-.886.471-.25 1.073-.375 1.805-.375.965 0 1.835.247 2.61.741.781.487 1.399 1.211 1.854 2.171.461.954.692 2.125.692 3.513 0 1.371-.225 2.537-.675 3.497s-1.063 1.691-1.838 2.195-1.654.757-2.635.757c-.716 0-1.309-.12-1.781-.358s-.851-.526-1.138-.862a5.57 5.57 0 0 1-.659-.968h-.171v1.968h-2.895zm2.887-6.245c0 .807.114 1.515.342 2.122s.566 1.082 1 1.423.97.504 1.594.504c.65 0 1.195-.173 1.634-.52s.77-.832.992-1.439c.228-.613.342-1.31.342-2.09s-.111-1.464-.333-2.066-.553-1.073-.993-1.415-.986-.512-1.642-.512c-.629 0-1.163.165-1.602.496s-.773.794-1.001 1.39c-.222.597-.333 1.299-.333 2.107zm11.407 6.245v-12.491h2.944v12.491h-2.944zm1.48-14.264c-.466 0-.867-.154-1.203-.463-.336-.315-.504-.691-.504-1.131s.168-.821.504-1.13a1.7 1.7 0 0 1 1.203-.472c.472 0 .873.158 1.204.472.336.309.504.686.504 1.13s-.168.816-.504 1.131c-.331.309-.732.463-1.204.463zm7.435 6.945v7.319h-2.944v-12.491h2.814v2.123h.146a3.57 3.57 0 0 1 1.375-1.667c.634-.413 1.417-.619 2.35-.619.862 0 1.613.185 2.252.553.646.369 1.144.903 1.497 1.602s.534 1.548.528 2.546v7.953h-2.943v-7.498c0-.835-.217-1.488-.651-1.96-.428-.471-1.022-.707-1.781-.707a2.74 2.74 0 0 0-1.374.341c-.396.223-.708.545-.935.968s-.334.935-.334 1.537zm14.605 7.571c-.791 0-1.504-.141-2.138-.423s-1.128-.71-1.497-1.268c-.363-.559-.545-1.247-.545-2.066 0-.705.131-1.287.391-1.748s.615-.83 1.065-1.106a5.36 5.36 0 0 1 1.521-.626 12.25 12.25 0 0 1 1.765-.318l1.78-.203c.456-.065.787-.163.993-.293s.317-.344.317-.626v-.049c0-.612-.182-1.087-.545-1.423s-.887-.504-1.57-.504c-.721 0-1.293.157-1.716.472-.417.314-.699.686-.845 1.114l-2.749-.391c.217-.759.575-1.393 1.074-1.902.498-.515 1.108-.9 1.829-1.155s1.518-.391 2.391-.391a7.78 7.78 0 0 1 1.797.212c.597.141 1.141.374 1.635.699s.889.757 1.187 1.31c.304.553.456 1.244.456 2.073v8.36h-2.83v-1.716h-.098c-.179.347-.431.672-.756.976-.32.298-.724.539-1.212.724-.483.179-1.049.268-1.7.268zm.765-2.163c.591 0 1.103-.117 1.537-.35.433-.238.767-.553 1-.943a2.4 2.4 0 0 0 .358-1.277v-1.472c-.092.076-.25.147-.472.212a6.75 6.75 0 0 1-.732.171l-.805.13-.691.097c-.439.06-.832.157-1.179.293s-.621.325-.822.569-.3.548-.3.927c0 .542.197.952.593 1.228s.9.415 1.513.415zm15.028-10.58v2.277h-7.181v-2.277h7.181zm-5.408-2.992h2.944v11.726c0 .396.06.699.179.911.125.206.287.347.488.423s.423.114.667.114a2.89 2.89 0 0 0 .504-.041l.358-.073.496 2.301a6.72 6.72 0 0 1-.675.179c-.288.065-.64.103-1.058.114-.737.021-1.401-.09-1.992-.334s-1.06-.634-1.407-1.154c-.341-.521-.509-1.171-.504-1.952v-12.214zm7.87 15.483v-12.491h2.944v12.491h-2.944zm1.48-14.264a1.72 1.72 0 0 1-1.204-.463c-.336-.315-.504-.691-.504-1.131s.168-.821.504-1.13.738-.472 1.204-.472c.472 0 .873.158 1.204.472s.504.686.504 1.13-.168.816-.504 1.131c-.331.309-.732.463-1.204.463zm9.939 14.508c-1.219 0-2.277-.268-3.171-.805s-1.589-1.288-2.082-2.253-.732-2.092-.732-3.383.244-2.42.732-3.391 1.187-1.724 2.082-2.26 1.952-.806 3.171-.806 2.277.269 3.172.806 1.586 1.29 2.074 2.26.74 2.101.74 3.391-.247 2.418-.74 3.383a5.42 5.42 0 0 1-2.074 2.253c-.895.537-1.952.805-3.172.805zm.017-2.358c.661 0 1.214-.182 1.659-.545.444-.369.775-.862.992-1.48s.333-1.307.333-2.066-.111-1.455-.333-2.073c-.217-.624-.548-1.12-.992-1.489s-.998-.553-1.659-.553c-.678 0-1.242.185-1.692.553-.444.369-.778.865-1 1.489-.217.618-.325 1.309-.325 2.073s.108 1.448.325 2.066.556 1.111 1 1.48c.45.363 1.014.545 1.692.545zm11.411-5.205v7.319h-2.944v-12.491h2.814v2.123h.146a3.57 3.57 0 0 1 1.375-1.667c.634-.413 1.417-.619 2.35-.619.862 0 1.613.185 2.252.553.646.369 1.144.903 1.497 1.602s.534 1.548.528 2.546v7.953h-2.943v-7.498c0-.835-.217-1.488-.651-1.96-.428-.471-1.022-.707-1.781-.707a2.74 2.74 0 0 0-1.374.341c-.396.223-.708.545-.936.968-.222.423-.333.935-.333 1.537z" class="B"/><path transform="translate(34.628 436.383)" d="M0 0h286.25v47.083H0z" class="B"/><path d="M106.947 455.848c-.076-.711-.396-1.264-.96-1.659-.558-.396-1.284-.594-2.179-.594-.629 0-1.168.095-1.618.285s-.795.447-1.033.772-.361.697-.366 1.114c0 .347.079.648.236.903s.382.472.659.651c.276.173.582.319.918.439a10.17 10.17 0 0 0 1.017.301l1.561.39c.629.146 1.234.344 1.814.594.585.249 1.108.563 1.569.943.467.379.835.838 1.106 1.374s.407 1.166.407 1.887c0 .976-.25 1.835-.748 2.578-.499.737-1.22 1.314-2.163 1.732-.938.412-2.074.618-3.408.618-1.295 0-2.42-.201-3.375-.602-.948-.401-1.691-.987-2.228-1.756-.531-.77-.819-1.708-.862-2.814h2.968c.044.58.223 1.063.537 1.447s.724.673 1.228.862c.51.19 1.079.285 1.708.285.656 0 1.23-.098 1.724-.293s.889-.477 1.171-.829c.282-.358.425-.775.431-1.253-.006-.433-.133-.791-.382-1.073s-.599-.526-1.049-.716c-.445-.195-.965-.368-1.562-.52l-1.895-.488c-1.371-.352-2.455-.886-3.252-1.602-.791-.721-1.187-1.678-1.187-2.871 0-.981.266-1.84.797-2.578.537-.737 1.266-1.309 2.188-1.715.921-.412 1.965-.618 3.131-.618 1.182 0 2.217.206 3.106.618.895.406 1.597.973 2.106 1.699s.773 1.551.789 2.489h-2.903zm8.634 4.757v7.319h-2.944v-16.655h2.879v6.286h.147c.292-.704.745-1.26 1.358-1.667s1.404-.618 2.358-.618c.867 0 1.624.182 2.269.545s1.144.895 1.496 1.594c.358.699.537 1.553.537 2.562v7.953h-2.944v-7.498c0-.84-.217-1.494-.651-1.96-.428-.471-1.03-.707-1.805-.707-.52 0-.987.114-1.399.341-.406.223-.726.545-.959.968s-.342.935-.342 1.537zm16.549 7.563c-1.22 0-2.277-.269-3.171-.805s-1.589-1.288-2.082-2.253c-.488-.965-.732-2.093-.732-3.383s.244-2.42.732-3.391c.493-.97 1.187-1.724 2.082-2.261s1.951-.805 3.171-.805 2.277.269 3.172.805 1.585 1.291 2.073 2.261c.494.971.74 2.101.74 3.391s-.246 2.418-.74 3.383c-.488.965-1.179 1.716-2.073 2.253s-1.952.805-3.172.805zm.016-2.359c.662 0 1.215-.181 1.659-.544.445-.369.776-.862.992-1.48.223-.618.334-1.307.334-2.066s-.111-1.456-.334-2.074c-.216-.623-.547-1.119-.992-1.488s-.997-.553-1.659-.553c-.677 0-1.241.185-1.691.553s-.778.865-1 1.488-.326 1.31-.326 2.074.109 1.448.326 2.066.555 1.111 1 1.48c.45.363 1.014.544 1.691.544zm8.468 6.799v-17.175h2.895v2.065h.171a5.45 5.45 0 0 1 .642-.967c.277-.347.651-.643 1.122-.887.472-.249 1.074-.374 1.806-.374a4.76 4.76 0 0 1 2.61.74c.781.488 1.399 1.212 1.854 2.172.461.954.691 2.125.691 3.513 0 1.371-.225 2.537-.675 3.496s-1.062 1.692-1.837 2.196-1.654.756-2.635.756c-.716 0-1.309-.119-1.781-.357s-.851-.526-1.139-.862c-.281-.342-.501-.665-.658-.968h-.122v6.652h-2.944zm2.887-10.93c0 .808.114 1.516.341 2.123.233.607.567 1.081 1.001 1.423.439.336.97.504 1.593.504.651 0 1.196-.173 1.635-.52.439-.353.77-.832.992-1.44.228-.612.342-1.309.342-2.09 0-.775-.111-1.463-.334-2.065s-.553-1.074-.992-1.415-.987-.512-1.643-.512c-.628 0-1.162.165-1.602.496s-.772.794-1 1.39c-.222.597-.333 1.299-.333 2.106zm17.236 6.246v-16.655h6.245c1.28 0 2.353.239 3.221.716s1.531 1.133 1.976 1.968c.45.829.675 1.773.675 2.83 0 1.068-.225 2.017-.675 2.846s-1.114 1.483-1.993 1.96-1.96.707-3.244.707h-4.14v-2.48h3.733c.748 0 1.361-.13 1.838-.39s.829-.618 1.057-1.074.35-.978.35-1.569-.117-1.112-.35-1.562-.583-.799-1.065-1.049-1.093-.382-1.846-.382h-2.765v14.134h-3.017zm14.607 0v-12.491h2.854v2.082h.131c.227-.721.618-1.277 1.171-1.667a3.22 3.22 0 0 1 1.911-.594l.544.024c.207.011.377.03.513.057v2.708c-.125-.043-.323-.081-.594-.114a5.59 5.59 0 0 0-.772-.056c-.537 0-1.02.116-1.448.349a2.56 2.56 0 0 0-1 .952c-.244.406-.366.875-.366 1.407v7.343h-2.944zm14.014.244c-1.22 0-2.277-.269-3.172-.805s-1.588-1.288-2.082-2.253c-.488-.965-.731-2.093-.731-3.383s.243-2.42.731-3.391c.494-.97 1.188-1.724 2.082-2.261s1.952-.805 3.172-.805 2.277.269 3.171.805 1.586 1.291 2.074 2.261.74 2.101.74 3.391-.247 2.418-.74 3.383-1.179 1.716-2.074 2.253-1.951.805-3.171.805zm.016-2.359c.661 0 1.214-.181 1.659-.544.444-.369.775-.862.992-1.48s.333-1.307.333-2.066-.111-1.456-.333-2.074-.548-1.119-.992-1.488-.998-.553-1.659-.553c-.678 0-1.242.185-1.691.553s-.778.865-1.001 1.488c-.217.618-.325 1.31-.325 2.074s.108 1.448.325 2.066c.223.618.556 1.111 1.001 1.48.449.363 1.013.544 1.691.544zm13.103 2.334c-.981 0-1.86-.252-2.635-.756s-1.388-1.236-1.838-2.196-.675-2.125-.675-3.496c0-1.388.228-2.559.683-3.513.461-.96 1.082-1.684 1.863-2.172s1.65-.74 2.61-.74c.732 0 1.334.125 1.805.374.472.244.846.54 1.123.887a5.45 5.45 0 0 1 .642.967h.122v-6.229h2.952v16.655h-2.895v-1.968h-.179c-.152.303-.371.626-.659.968-.287.336-.667.623-1.138.862s-1.066.357-1.781.357zm.821-2.415c.624 0 1.155-.168 1.594-.504.439-.342.773-.816 1-1.423s.342-1.315.342-2.123-.114-1.509-.342-2.106c-.222-.596-.553-1.06-.992-1.39-.433-.331-.968-.496-1.602-.496-.656 0-1.203.17-1.642.512s-.77.813-.993 1.415-.333 1.29-.333 2.065c0 .781.111 1.478.333 2.09.228.608.562 1.087 1.001 1.44.444.347.989.52 1.634.52zm16.929-3.058v-7.237h2.944v12.491h-2.854v-2.22h-.13c-.282.699-.746 1.271-1.391 1.716-.64.444-1.429.666-2.366.666-.819 0-1.543-.181-2.172-.544-.623-.369-1.111-.903-1.464-1.602-.352-.705-.528-1.556-.528-2.554v-7.953h2.944v7.498c0 .791.217 1.42.65 1.886s1.003.7 1.708.7a2.7 2.7 0 0 0 1.26-.317 2.57 2.57 0 0 0 1.001-.944c.265-.423.398-.951.398-1.586zm11.42 5.498c-1.247 0-2.318-.274-3.212-.822s-1.575-1.303-2.058-2.268c-.477-.971-.716-2.088-.716-3.351s.244-2.388.732-3.358c.488-.976 1.177-1.735 2.066-2.277.894-.548 1.952-.822 3.171-.822 1.014 0 1.911.187 2.692.561.786.369 1.412.892 1.879 1.57.466.672.732 1.458.797 2.358h-2.814a2.69 2.69 0 0 0-.813-1.504c-.423-.407-.99-.61-1.7-.61-.602 0-1.13.162-1.586.488-.455.32-.81.78-1.065 1.382-.249.602-.374 1.323-.374 2.163 0 .852.125 1.583.374 2.196.249.607.599 1.076 1.049 1.407.455.325.989.488 1.602.488.434 0 .821-.082 1.163-.244a2.33 2.33 0 0 0 .87-.724c.233-.314.393-.697.48-1.147h2.814c-.071.884-.331 1.668-.781 2.351-.45.677-1.063 1.209-1.838 1.594-.775.379-1.686.569-2.732.569zm14.005-12.735v2.277h-7.18v-2.277h7.18zm-5.408-2.993h2.944v11.727c0 .396.06.699.179.911a.96.96 0 0 0 .488.422 1.87 1.87 0 0 0 .667.114c.184 0 .352-.013.504-.04l.358-.074.496 2.302c-.157.054-.382.114-.675.179-.287.065-.64.103-1.057.114-.738.021-1.402-.09-1.993-.334a3.09 3.09 0 0 1-1.406-1.155c-.342-.52-.51-1.171-.505-1.951V452.44zm17.564 6.295l-2.684.292c-.076-.271-.209-.526-.398-.764s-.434-.431-.749-.577-.699-.22-1.154-.22c-.613 0-1.128.133-1.545.398-.412.266-.616.61-.61 1.033a1.08 1.08 0 0 0 .398.887c.277.227.732.414 1.366.561l2.131.455c1.182.255 2.06.659 2.635 1.212.58.553.873 1.277.878 2.171-.005.786-.236 1.48-.691 2.082-.45.596-1.076 1.062-1.879 1.399s-1.724.504-2.765.504c-1.528 0-2.759-.32-3.692-.96-.932-.645-1.488-1.542-1.667-2.692l2.871-.276c.13.564.407.989.829 1.277s.974.431 1.651.431c.7 0 1.261-.144 1.684-.431s.642-.643.642-1.066c0-.357-.138-.653-.415-.886-.271-.233-.694-.412-1.268-.537l-2.131-.447c-1.198-.249-2.084-.67-2.659-1.26-.575-.597-.859-1.35-.854-2.261-.005-.77.203-1.437.626-2.001.428-.569 1.022-1.008 1.781-1.317.765-.315 1.645-.472 2.643-.472 1.464 0 2.616.312 3.456.935.846.624 1.369 1.467 1.57 2.53z" fill="#fff"/></g><defs><filter id="A" x=".186" y=".236" width="354.494" height="526.883" filterUnits="userSpaceOnUse" color-interpolation-filters="sRGB"><feFlood flood-opacity="0" result="A"/><feColorMatrix in="SourceAlpha" values="0 0 0 0 0 0 0 0 0 0 0 0 0 0 0 0 0 0 127 0" result="B"/><feOffset/><feGaussianBlur stdDeviation="1"/><feComposite in2="B" operator="out"/><feColorMatrix values="0 0 0 0 0 0 0 0 0 0 0 0 0 0 0 0 0 0 0.25 0"/><feBlend in2="A"/><feBlend in="SourceGraphic"/></filter></defs></svg>