<svg width="89" height="89" viewBox="0 0 89 89" fill="none" xmlns="http://www.w3.org/2000/svg">
<path d="M38.6185 21.9457V19.6289H33.0938V26.4012H38.6185V24.0844H35.4106V21.9457H38.6185Z" fill="black"/>
<path d="M46.4601 19.6289H40.9354V22.0071L43.2407 24.0844H40.9354V26.4012H46.4601V24.1457L44.3643 21.9457H46.4601V19.6289Z" fill="black"/>
<path d="M48.9552 19.6289H54.48V21.9457H52.295L54.48 24.1457V26.4012H48.9552V24.0844H51.1714L48.9552 22.0071V19.6289Z" fill="black"/>
<path fill-rule="evenodd" clip-rule="evenodd" d="M29.2086 65.8745L25.9648 29.4932H61.6086L58.3613 65.8685L43.7651 69.9154L29.2086 65.8745Z" fill="#0071BC"/>
<path fill-rule="evenodd" clip-rule="evenodd" d="M43.8164 66.8197L55.5962 63.579L58.3562 32.5225H43.8164V66.8197Z" fill="#29ABE2"/>
<path fill-rule="evenodd" clip-rule="evenodd" d="M33.3906 45.889L33.7814 50.3444L43.8175 45.889V41.4263L33.3906 45.889Z" fill="#B3B3B3"/>
<path fill-rule="evenodd" clip-rule="evenodd" d="M54.9317 36.6626L43.8164 41.4263V45.889L54.5485 41.1181L54.9317 36.6626Z" fill="#E6E6E6"/>
<path fill-rule="evenodd" clip-rule="evenodd" d="M43.8163 57.5479L43.7818 57.5531L38.8046 56.2165L38.4794 52.6626H34L34.6251 59.6639L43.7808 62.199L43.8163 62.1906V57.5479Z" fill="#E6E6E6"/>
<path fill-rule="evenodd" clip-rule="evenodd" d="M43.8164 45.8887V50.3441H49.2656L48.7704 56.1693L43.8164 57.5501V62.1925L52.9417 59.6574L54.1434 45.8887H43.8164Z" fill="white"/>
<path fill-rule="evenodd" clip-rule="evenodd" d="M43.8175 45.8887H33.3906L33.7814 50.3441H43.8175V45.8887Z" fill="#E6E6E6"/>
<path fill-rule="evenodd" clip-rule="evenodd" d="M43.8167 41.1181V36.6626H43.7714H32.5977L32.993 41.1181H43.8167Z" fill="#E6E6E6"/>
<path fill-rule="evenodd" clip-rule="evenodd" d="M43.8164 36.6626V41.0622V41.1181H54.5485L54.9317 36.6626H43.8164Z" fill="white"/>
</svg>
