<svg width="84" height="85" viewBox="0 0 84 85" fill="none" xmlns="http://www.w3.org/2000/svg">
<rect y="0.772461" width="84" height="84" rx="20" fill="#F0F2F5"/>
<rect x="22.5" y="28.2725" width="40" height="15" rx="0.5" fill="white" stroke="#121212"/>
<path d="M28.7185 37.7725V33.4088H30.3889C30.7043 33.4088 30.9664 33.4585 31.1752 33.558C31.3854 33.656 31.5423 33.7902 31.646 33.9607C31.7512 34.1311 31.8037 34.3243 31.8037 34.5402C31.8037 34.7178 31.7696 34.8698 31.7014 34.9962C31.6333 35.1212 31.5416 35.2227 31.4266 35.3009C31.3115 35.379 31.183 35.4351 31.0409 35.4692V35.5118C31.1958 35.5203 31.3442 35.5679 31.4862 35.6546C31.6297 35.7398 31.7469 35.8605 31.8378 36.0168C31.9287 36.173 31.9742 36.3619 31.9742 36.5835C31.9742 36.8094 31.9195 37.0125 31.8101 37.1929C31.7007 37.3719 31.536 37.5132 31.3158 37.6169C31.0956 37.7206 30.8186 37.7725 30.4848 37.7725H28.7185ZM29.509 37.1119H30.3591C30.646 37.1119 30.8527 37.0573 30.9791 36.9479C31.107 36.8371 31.1709 36.695 31.1709 36.5218C31.1709 36.3925 31.1389 36.276 31.075 36.1723C31.0111 36.0672 30.9202 35.9848 30.8023 35.9252C30.6844 35.8641 30.5438 35.8335 30.3804 35.8335H29.509V37.1119ZM29.509 35.2646H30.2909C30.4273 35.2646 30.5502 35.2398 30.6595 35.1901C30.7689 35.1389 30.8548 35.0672 30.9173 34.9749C30.9813 34.8811 31.0132 34.7703 31.0132 34.6425C31.0132 34.4735 30.9536 34.3343 30.8343 34.2249C30.7164 34.1155 30.5409 34.0608 30.308 34.0608H29.509V35.2646ZM34.7137 36.396V34.4997H35.485V37.7725H34.7371V37.1908H34.703C34.6292 37.374 34.5077 37.5239 34.3387 37.6404C34.1711 37.7568 33.9644 37.8151 33.7187 37.8151C33.5042 37.8151 33.3145 37.7675 33.1498 37.6723C32.9864 37.5757 32.8586 37.4358 32.7662 37.2526C32.6739 37.0679 32.6278 36.8449 32.6278 36.5835V34.4997H33.3991V36.4642C33.3991 36.6716 33.4559 36.8364 33.5695 36.9585C33.6831 37.0807 33.8323 37.1418 34.017 37.1418C34.1306 37.1418 34.2407 37.1141 34.3472 37.0587C34.4537 37.0033 34.5411 36.9209 34.6093 36.8115C34.6789 36.7007 34.7137 36.5622 34.7137 36.396ZM37.9124 34.4997V35.0963H36.031V34.4997H37.9124ZM36.4955 33.7156H37.2668V36.7881C37.2668 36.8918 37.2824 36.9713 37.3137 37.0267C37.3463 37.0807 37.3889 37.1176 37.4415 37.1375C37.4941 37.1574 37.5523 37.1673 37.6162 37.1673C37.6645 37.1673 37.7085 37.1638 37.7483 37.1567C37.7895 37.1496 37.8208 37.1432 37.8421 37.1375L37.972 37.7405C37.9308 37.7547 37.8719 37.7703 37.7952 37.7874C37.7199 37.8044 37.6276 37.8144 37.5182 37.8172C37.325 37.8229 37.151 37.7938 36.9962 37.7298C36.8414 37.6645 36.7185 37.5637 36.6276 37.4273C36.5381 37.2909 36.4941 37.1205 36.4955 36.9159V33.7156ZM40.1917 34.4997V35.0963H38.3103V34.4997H40.1917ZM38.7748 33.7156H39.5461V36.7881C39.5461 36.8918 39.5617 36.9713 39.593 37.0267C39.6256 37.0807 39.6682 37.1176 39.7208 37.1375C39.7733 37.1574 39.8316 37.1673 39.8955 37.1673C39.9438 37.1673 39.9878 37.1638 40.0276 37.1567C40.0688 37.1496 40.1001 37.1432 40.1214 37.1375L40.2513 37.7405C40.2101 37.7547 40.1512 37.7703 40.0745 37.7874C39.9992 37.8044 39.9069 37.8144 39.7975 37.8172C39.6043 37.8229 39.4303 37.7938 39.2755 37.7298C39.1206 37.6645 38.9978 37.5637 38.9069 37.4273C38.8174 37.2909 38.7733 37.1205 38.7748 36.9159V33.7156ZM42.2291 37.8364C41.9095 37.8364 41.6325 37.7661 41.3982 37.6254C41.1638 37.4848 40.982 37.2881 40.8527 37.0352C40.7249 36.7824 40.661 36.4869 40.661 36.1489C40.661 35.8108 40.7249 35.5146 40.8527 35.2604C40.982 35.0061 41.1638 34.8087 41.3982 34.6681C41.6325 34.5274 41.9095 34.4571 42.2291 34.4571C42.5487 34.4571 42.8257 34.5274 43.0601 34.6681C43.2945 34.8087 43.4756 35.0061 43.6034 35.2604C43.7327 35.5146 43.7973 35.8108 43.7973 36.1489C43.7973 36.4869 43.7327 36.7824 43.6034 37.0352C43.4756 37.2881 43.2945 37.4848 43.0601 37.6254C42.8257 37.7661 42.5487 37.8364 42.2291 37.8364ZM42.2334 37.2185C42.4067 37.2185 42.5516 37.1709 42.6681 37.0757C42.7845 36.9791 42.8712 36.8499 42.928 36.6879C42.9862 36.526 43.0154 36.3456 43.0154 36.1468C43.0154 35.9465 42.9862 35.7654 42.928 35.6034C42.8712 35.4401 42.7845 35.3101 42.6681 35.2135C42.5516 35.1169 42.4067 35.0686 42.2334 35.0686C42.0558 35.0686 41.9081 35.1169 41.7902 35.2135C41.6737 35.3101 41.5864 35.4401 41.5281 35.6034C41.4713 35.7654 41.4429 35.9465 41.4429 36.1468C41.4429 36.3456 41.4713 36.526 41.5281 36.6879C41.5864 36.8499 41.6737 36.9791 41.7902 37.0757C41.9081 37.1709 42.0558 37.2185 42.2334 37.2185ZM45.2233 35.8548V37.7725H44.452V34.4997H45.1892V35.0558H45.2275C45.3028 34.8726 45.4229 34.727 45.5876 34.6191C45.7538 34.5111 45.9591 34.4571 46.2034 34.4571C46.4292 34.4571 46.626 34.5054 46.7936 34.602C46.9626 34.6986 47.0933 34.8385 47.1856 35.0218C47.2794 35.205 47.3256 35.4273 47.3241 35.6887V37.7725H46.5528V35.808C46.5528 35.5892 46.496 35.4181 46.3824 35.2945C46.2702 35.1709 46.1146 35.1091 45.9157 35.1091C45.7808 35.1091 45.6608 35.1389 45.5557 35.1986C45.452 35.2568 45.3703 35.3414 45.3106 35.4521C45.2524 35.5629 45.2233 35.6972 45.2233 35.8548Z" fill="#121212"/>
<rect x="14.5" y="48.2725" width="10" height="9" rx="0.5" fill="#0478FF" stroke="#121212"/>
<rect x="29.5" y="48.2725" width="10" height="9" rx="0.5" fill="#FF2C56" stroke="#121212"/>
<rect x="44.5" y="48.2725" width="10" height="9" rx="0.5" fill="#FFA506" stroke="#121212"/>
<rect x="59.5" y="48.2725" width="10" height="9" rx="0.5" fill="#34C75F" stroke="#121212"/>
<path d="M54.0346 37.9558L54.0013 37.9891L53.9646 37.9558C52.3813 36.5191 51.3346 35.5691 51.3346 34.6058C51.3346 33.9391 51.8346 33.4391 52.5013 33.4391C53.0146 33.4391 53.5146 33.7725 53.6913 34.2258H54.3113C54.488 33.7725 54.988 33.4391 55.5013 33.4391C56.168 33.4391 56.668 33.9391 56.668 34.6058C56.668 35.5691 55.6213 36.5191 54.0346 37.9558ZM55.5013 32.7725C54.9213 32.7725 54.3646 33.0425 54.0013 33.4658C53.638 33.0425 53.0813 32.7725 52.5013 32.7725C51.4746 32.7725 50.668 33.5758 50.668 34.6058C50.668 35.8625 51.8013 36.8925 53.518 38.4491L54.0013 38.8891L54.4846 38.4491C56.2013 36.8925 57.3346 35.8625 57.3346 34.6058C57.3346 33.5758 56.528 32.7725 55.5013 32.7725Z" fill="#121212"/>
</svg>
