<svg width="84" height="85" viewBox="0 0 84 85" fill="none" xmlns="http://www.w3.org/2000/svg">
<g id="Design Thinking Icon">
<rect y="0.772461" width="84" height="84" rx="20" fill="#F0F2F5"/>
<g id="Group">
<g id="Group_2">
<g id="Group_3">
<g id="Vector">
<path d="M59.9527 34.2565C60.0651 35.0305 60.1216 35.8156 60.1216 36.5789L60.1233 39.4087C60.128 45.6108 57.0676 51.4187 51.9477 54.9436L51.6071 55.1759V65.2242H36.1233V58.2565H28.3812V48.8128L23.3636 47.6678L27.8957 39.5875L27.8516 39.3111C27.5637 37.6172 27.5474 35.8047 27.7975 34.2565H28.3812H36.1231H59.9527Z" fill="#E37300"/>
<path fill-rule="evenodd" clip-rule="evenodd" d="M63.2199 18.7871L58.7195 22.1558L54.1936 32.7081H50.5541L49.125 29.6112H50.0587C51.7666 29.6112 53.1555 28.2371 53.1555 26.5292V23.4176H54.704V18.7725H50.0587V23.4176H51.6071V26.5292C51.6071 27.3824 50.9127 28.0628 50.0587 28.0628H48.4105L46.4315 23.7816L48.8021 22.6001L41.04 19.2756L39.2152 25.662C39.1656 21.8623 36.0634 18.7864 32.252 18.7864C28.4098 18.7864 25.2843 21.9119 25.2843 25.7542C25.2843 28.076 26.4603 30.2537 28.3812 31.5412V32.7079H26.5061L26.3853 33.3428C26.0091 35.2946 25.9742 37.3005 26.2816 39.301L21 48.7153L26.8327 50.0476V59.8047H34.5747V66.7725H53.1554V55.9841C58.5747 52.1503 61.6699 45.9862 61.6653 39.4101L61.667 36.5859C61.667 35.5214 61.5686 34.4275 61.3704 33.3498L61.2558 32.7079H59.736L63.2199 24.3613V18.7871ZM51.607 20.3355V21.8839H53.1554V20.3355H51.607ZM45.9121 32.7079H48.8486L47.4195 29.6111H44.5046L45.9121 32.7079ZM45.1224 22.7116L42.0449 21.3931L41.2211 24.2716L41.9141 23.9217L43.8008 28.0628H46.7048L44.3962 23.0677L45.1224 22.7116ZM40.7684 32.7081H44.2112L42.8037 29.6114H42.3168C41.4627 29.6114 40.7684 30.3206 40.7684 31.1744V32.7081ZM42.11 28.0984L41.1709 26.032L39.0782 27.0781C38.7236 28.8827 37.6723 30.503 36.1231 31.5412V32.7079H39.2199V31.1743C39.2199 29.5369 40.4996 28.2069 42.11 28.0984ZM32.2522 20.3357C29.2646 20.3357 26.8329 22.7674 26.8329 25.755C26.8329 27.678 27.8718 29.4742 29.5433 30.4427L29.9296 30.6664V32.7081H31.478V27.9344C30.5791 27.6138 29.9296 26.7622 29.9296 25.7542C29.9296 24.4737 30.9717 23.4314 32.2522 23.4314C33.5327 23.4314 34.5748 24.4735 34.5748 25.754C34.5748 26.762 33.9253 27.6138 33.0264 27.9342V32.7079H34.5748V30.6664L34.9611 30.4435C36.6326 29.475 37.6715 27.6781 37.6715 25.755C37.6715 22.7674 35.2398 20.3357 32.2522 20.3357ZM31.478 25.755C31.478 26.1814 31.8248 26.5292 32.2522 26.5292C32.6796 26.5292 33.0264 26.1824 33.0264 25.755C33.0264 25.3276 32.6796 24.9808 32.2522 24.9808C31.8248 24.9808 31.478 25.3276 31.478 25.755ZM60.1216 36.5789C60.1216 35.8156 60.0651 35.0305 59.9527 34.2565H36.1231H28.3812H27.7975C27.5474 35.8047 27.5637 37.6172 27.8516 39.3111L27.8957 39.5875L23.3636 47.6678L28.3812 48.8128V58.2565H36.1233V65.2242H51.6071V55.1759L51.9477 54.9436C57.0676 51.4187 60.128 45.6108 60.1233 39.4087L60.1216 36.5789ZM55.8775 32.7079H58.0583L61.4532 24.5649L59.7368 23.7102L55.8775 32.7079ZM60.8152 22.525L61.6715 22.9531V21.8839L60.8152 22.525Z" fill="#121212"/>
<path d="M26.8329 25.755C26.8329 22.7674 29.2646 20.3357 32.2522 20.3357C35.2398 20.3357 37.6715 22.7674 37.6715 25.755C37.6715 27.6781 36.6326 29.475 34.9611 30.4435L34.5748 30.6664V32.7079H33.0264V27.9342C33.9253 27.6138 34.5748 26.762 34.5748 25.754C34.5748 24.4735 33.5327 23.4314 32.2522 23.4314C30.9717 23.4314 29.9296 24.4737 29.9296 25.7542C29.9296 26.7622 30.5791 27.6138 31.478 27.9344V32.7081H29.9296V30.6664L29.5433 30.4427C27.8718 29.4742 26.8329 27.678 26.8329 25.755Z" fill="#FFD02F"/>
<path d="M61.6715 22.9531L60.8152 22.525L61.6715 21.8839V22.9531Z" fill="#0000FF"/>
<path d="M58.0583 32.7079H55.8775L59.7368 23.7102L61.4532 24.5649L58.0583 32.7079Z" fill="white"/>
<path d="M51.607 21.8839V20.3355H53.1554V21.8839H51.607Z" fill="white"/>
<path d="M42.0449 21.3931L45.1224 22.7116L44.3962 23.0677L46.7048 28.0628H43.8008L41.9141 23.9217L41.2211 24.2716L42.0449 21.3931Z" fill="#34A853"/>
<path d="M48.8486 32.7079H45.9121L44.5046 29.6111H47.4195L48.8486 32.7079Z" fill="#34A853"/>
</g>
<path id="Vector_2" d="M33.8007 38.9017C32.5202 38.9017 31.4781 38.1275 31.4781 36.5791H29.9297C29.9297 38.9017 31.6662 40.4501 33.8007 40.4501C35.9353 40.4501 37.6718 38.9017 37.6718 36.5791H36.1234C36.1232 38.1275 35.0812 38.9017 33.8007 38.9017Z" fill="#121212"/>
</g>
</g>
</g>
</g>
</svg>
