<svg width="24" height="25" viewBox="0 0 24 25" fill="none" xmlns="http://www.w3.org/2000/svg">
<g id="ion:logo-dribbble">
<path id="Vector" d="M12 2.27246C6.20297 2.27246 1.5 6.97543 1.5 12.7725C1.5 18.5695 6.20297 23.2725 12 23.2725C17.797 23.2725 22.5 18.5746 22.5 12.7725C22.5 6.97027 17.797 2.27246 12 2.27246ZM18.6666 7.1123C19.8815 8.54051 20.6046 10.3217 20.7291 12.1926C18.8367 12.0942 16.5727 12.0942 14.7572 12.2639C14.5275 11.684 14.2922 11.1154 14.0353 10.5684C16.1288 9.6609 17.7422 8.4684 18.6666 7.1123ZM12 4.0223C14.0395 4.01876 16.0156 4.73109 17.5837 6.03512C16.6322 7.23793 15.1392 8.28512 13.2797 9.07543C12.2625 7.19434 11.092 5.57574 9.84375 4.30121C10.5482 4.11936 11.2725 4.02567 12 4.0223ZM8.04047 4.97949C9.30375 6.23715 10.4906 7.83887 11.5298 9.71387C9.55547 10.3171 7.29141 10.6631 4.875 10.6631C4.41562 10.6631 3.9675 10.6467 3.52453 10.619C3.83266 9.41181 4.3949 8.28426 5.17367 7.31173C5.95244 6.33919 6.92981 5.54407 8.04047 4.97949ZM3.26625 12.3567C3.76406 12.3787 4.26703 12.3895 4.77562 12.3843C7.53187 12.3515 10.0969 11.9193 12.3009 11.2125C12.5088 11.6446 12.7056 12.0876 12.8916 12.5414C12.6252 12.5997 12.3637 12.678 12.1092 12.7757C9.09609 14.0414 6.72281 16.0809 5.4375 18.5475C4.02813 16.9538 3.25007 14.8999 3.24984 12.7725C3.24984 12.6318 3.25547 12.4936 3.26625 12.3567ZM12 21.5226C10.056 21.525 8.16724 20.8761 6.63516 19.6795C7.8 17.3718 9.87797 15.4607 12.4978 14.2762C12.7439 14.1614 13.072 14.0686 13.4494 13.9865C13.7619 14.8503 14.0408 15.7471 14.2861 16.6771C14.6525 18.0808 14.9223 19.5079 15.0938 20.9484C14.1061 21.3268 13.0576 21.5214 12 21.5226ZM16.7306 20.1281C16.5595 18.6726 16.2871 17.2308 15.9155 15.8132C15.728 15.1021 15.5166 14.4131 15.2869 13.7404C17.0039 13.5998 19.0603 13.62 20.6953 13.7404C20.5512 15.033 20.1206 16.2772 19.4347 17.3822C18.7488 18.4873 17.825 19.4253 16.7306 20.1281Z" fill="#121212"/>
</g>
</svg>
