<svg width="89" height="89" viewBox="0 0 89 89" fill="none" xmlns="http://www.w3.org/2000/svg">
<path d="M44.0312 44.7997C44.0312 40.1761 47.7783 36.4214 52.4096 36.4214C57.0333 36.4214 60.788 40.1684 60.788 44.7997C60.788 49.4311 57.041 53.1781 52.4096 53.1781C47.7783 53.1781 44.0312 49.4311 44.0312 44.7997Z" fill="#1ABCFE"/>
<path d="M27.2812 61.5488C27.2812 56.9252 31.0283 53.1704 35.6596 53.1704H44.038V61.5488C44.038 66.1724 40.291 69.9271 35.6596 69.9271C31.0283 69.9271 27.2812 66.1801 27.2812 61.5488Z" fill="#0ACF83"/>
<path d="M44.0312 19.6801V36.4291H52.4096C57.0333 36.4291 60.788 32.6821 60.788 28.0507C60.788 23.4194 57.041 19.6724 52.4096 19.6724H44.0312V19.6801Z" fill="#FF7262"/>
<path d="M27.2812 28.0508C27.2812 32.6744 31.0283 36.4291 35.6596 36.4291H44.038V19.6802H35.6596C31.0283 19.6802 27.2812 23.4272 27.2812 28.0508Z" fill="#F24E1E"/>
<path d="M27.2812 44.7998C27.2812 49.4234 31.0283 53.1782 35.6596 53.1782H44.038V36.4292H35.6596C31.0283 36.4292 27.2812 40.1762 27.2812 44.7998Z" fill="#A259FF"/>
</svg>
