<svg xmlns="http://www.w3.org/2000/svg" width="267" height="253" fill="none" xmlns:v="https://vecta.io/nano"><g filter="url(#A)"><rect x="2.227" y="2.482" width="262.66" height="248.042" rx="10" fill="#fff" shape-rendering="crispEdges"/><path opacity=".85" d="M20.152 39.092h-3.236l4.203-12.458h4.009l4.203 12.458h-3.236l-2.926-9.319h-.097l-2.92 9.319zm-.432-4.903h6.764v2.287H19.72v-2.287zm16.793.87v-5.311h2.968v9.344h-2.835v-1.74h-.097c-.207.572-.56 1.026-1.059 1.363s-1.093.499-1.794.499c-.637 0-1.196-.146-1.679-.438s-.858-.7-1.125-1.223-.404-1.144-.408-1.849v-5.955h2.975v5.371c.004.507.138.906.402 1.198s.622.438 1.077.438a1.62 1.62 0 0 0 .797-.195c.239-.134.428-.326.566-.578s.213-.564.213-.925zm9.947-5.311v2.19h-5.895v-2.19h5.895zM41.8 27.51h2.975v8.644c0 .182.028.331.085.444a.53.53 0 0 0 .262.237c.114.045.249.067.408.067.113 0 .233-.01.359-.03l.292-.061.45 2.147-.602.152c-.255.061-.562.099-.919.116-.697.032-1.296-.049-1.794-.243s-.874-.507-1.138-.925-.385-.943-.377-1.576V27.51zm10.25 11.759c-.981 0-1.825-.201-2.531-.602s-1.243-.969-1.624-1.691-.566-1.567-.566-2.524.189-1.803.566-2.525.923-1.29 1.624-1.691 1.549-.608 2.531-.608 1.823.203 2.524.608 1.247.965 1.624 1.691.572 1.563.572 2.525-.191 1.799-.572 2.524-.919 1.285-1.624 1.691-1.543.602-2.524.602zm.018-2.245c.357 0 .659-.109.906-.328s.436-.523.566-.912.201-.84.201-1.351c0-.519-.067-.973-.201-1.363s-.318-.693-.566-.912-.55-.328-.906-.328a1.39 1.39 0 0 0-.937.328c-.251.219-.444.523-.578.912s-.195.844-.195 1.363c0 .511.065.961.195 1.351s.326.694.578.912a1.39 1.39 0 0 0 .937.328zm6.038 2.068v-9.344h2.829v1.715h.103c.195-.568.523-1.016.986-1.344s1.014-.493 1.655-.493c.649 0 1.204.166 1.667.499s.756.779.882 1.338h.097c.174-.556.515-1 1.022-1.332s1.105-.505 1.794-.505c.884 0 1.602.284 2.153.852s.827 1.338.827 2.324v6.29h-2.975v-5.609c0-.466-.12-.821-.359-1.065s-.55-.371-.931-.371c-.41 0-.732.134-.967.401s-.347.618-.347 1.064v5.578h-2.859v-5.639c0-.434-.118-.777-.353-1.028s-.545-.377-.931-.377c-.26 0-.489.063-.687.188s-.355.296-.468.523-.164.495-.164.803v5.529h-2.975zm18.304.158c-.596 0-1.125-.099-1.588-.298s-.821-.507-1.089-.913-.395-.923-.395-1.539c0-.519.091-.957.274-1.314a2.34 2.34 0 0 1 .754-.87c.32-.223.689-.391 1.107-.505s.864-.197 1.338-.237l1.284-.152c.324-.057.56-.136.706-.237a.51.51 0 0 0 .225-.444v-.03c0-.312-.108-.553-.322-.724s-.505-.255-.87-.255c-.393 0-.71.085-.949.255s-.391.406-.456.706l-2.744-.097c.081-.568.29-1.075.627-1.521s.807-.803 1.399-1.059 1.312-.389 2.147-.389c.596 0 1.146.071 1.648.213s.941.341 1.314.608a2.75 2.75 0 0 1 .864.973c.207.385.31.825.31 1.32v6.351h-2.798V37.79h-.073c-.166.316-.379.584-.639.803s-.558.383-.906.493-.734.164-1.168.164zm.919-1.947a1.88 1.88 0 0 0 .864-.195c.259-.13.466-.308.62-.535s.231-.499.231-.803v-.888c-.085.045-.188.085-.31.122l-.389.103-.438.085-.432.067c-.28.045-.519.114-.718.207s-.345.215-.45.365-.152.32-.152.523c0 .308.109.543.328.706s.505.243.846.243zm11.57-7.555v2.19h-5.894v-2.19h5.894zm-4.66-2.239h2.975v8.644c0 .182.028.331.085.444a.53.53 0 0 0 .262.237c.114.045.249.067.408.067.113 0 .233-.01.359-.03l.292-.061.45 2.147-.602.152c-.255.061-.562.099-.919.116-.697.032-1.296-.049-1.794-.243s-.874-.507-1.138-.925-.385-.943-.377-1.576V27.51zm5.989 11.582v-9.344h2.975v9.344h-2.975zm1.49-10.432c-.418 0-.777-.138-1.077-.414a1.33 1.33 0 0 1-.45-1.01c0-.389.15-.722.45-.998s.659-.42 1.077-.42a1.51 1.51 0 0 1 1.077.42c.3.276.45.608.45.998a1.33 1.33 0 0 1-.45 1.01c-.296.276-.655.414-1.077.414zm7.551 10.609c-.981 0-1.825-.201-2.531-.602s-1.243-.969-1.624-1.691-.566-1.567-.566-2.524.189-1.803.566-2.525.923-1.29 1.624-1.691 1.549-.608 2.531-.608 1.823.203 2.524.608a4.05 4.05 0 0 1 1.624 1.691c.382.722.572 1.563.572 2.525s-.19 1.799-.572 2.524a4.1 4.1 0 0 1-1.624 1.691c-.701.402-1.543.602-2.524.602zm.018-2.245c.357 0 .659-.109.906-.328s.436-.523.566-.912.201-.84.201-1.351c0-.519-.067-.973-.201-1.363s-.318-.693-.566-.912-.549-.328-.906-.328a1.39 1.39 0 0 0-.937.328c-.251.219-.444.523-.578.912s-.195.844-.195 1.363c0 .511.065.961.195 1.351s.326.694.578.912a1.39 1.39 0 0 0 .937.328zm9.012-3.261v5.329h-2.974v-9.344h2.828v1.715h.104c.206-.572.559-1.02 1.058-1.344s1.093-.493 1.782-.493c.657 0 1.227.148 1.71.444a2.96 2.96 0 0 1 1.131 1.229c.272.523.406 1.136.402 1.837v5.955h-2.975V33.72c.004-.519-.128-.925-.395-1.217s-.631-.438-1.101-.438a1.63 1.63 0 0 0-.828.207c-.235.134-.417.327-.547.578s-.191.556-.195.913zm15.851-1.162l-2.731.073c-.028-.195-.105-.367-.231-.517s-.29-.274-.493-.359-.43-.134-.693-.134c-.345 0-.639.069-.882.207s-.357.324-.353.56c-.004.183.069.341.219.474s.428.241.821.322l1.801.341c.932.178 1.626.474 2.08.888s.689.961.693 1.642c-.004.641-.194 1.198-.571 1.673s-.884.843-1.533 1.107-1.391.389-2.227.389c-1.334 0-2.386-.274-3.157-.821s-1.204-1.29-1.314-2.214l2.938-.073c.065.341.234.6.505.779s.619.268 1.04.268c.382 0 .692-.071.931-.213s.361-.331.365-.566c-.004-.211-.097-.379-.28-.505s-.468-.231-.857-.304l-1.631-.31c-.936-.17-1.634-.485-2.092-.943s-.686-1.05-.682-1.764c-.004-.625.163-1.158.499-1.6s.815-.787 1.436-1.022 1.352-.353 2.196-.353c1.265 0 2.263.266 2.993.797s1.133 1.253 1.21 2.178zm8.917 6.679c-.876 0-1.632-.156-2.269-.468s-1.119-.732-1.46-1.259-.511-1.121-.511-1.77c0-.479.093-.9.28-1.265a3.68 3.68 0 0 1 .785-1.016c.336-.312.727-.618 1.174-.918l2.615-1.673c.296-.186.505-.383.627-.59s.188-.414.188-.62c0-.223-.087-.426-.261-.608s-.424-.272-.761-.268a1.12 1.12 0 0 0-.559.134c-.158.089-.282.209-.371.359s-.128.32-.128.511c0 .247.071.501.213.76s.332.535.572.827l.809.967 5.967 6.71h-3.029l-4.994-5.42-.895-1.065a6.33 6.33 0 0 1-.79-1.29c-.215-.47-.323-.981-.323-1.533 0-.62.146-1.182.438-1.685s.702-.902 1.229-1.198 1.15-.45 1.855-.45c.682 0 1.27.14 1.764.42a2.99 2.99 0 0 1 1.144 1.113c.268.462.402.969.402 1.521 0 .584-.144 1.121-.432 1.612s-.696.919-1.223 1.296l-2.561 1.831c-.272.195-.485.404-.639.627a1.22 1.22 0 0 0-.231.718c0 .268.063.501.189.7s.312.355.547.468.511.17.827.17c.422 0 .844-.099 1.266-.298a3.98 3.98 0 0 0 1.156-.852c.348-.369.628-.805.839-1.308s.316-1.062.316-1.667h2.397c0 .746-.079 1.44-.237 2.08a5.91 5.91 0 0 1-.712 1.715 4.34 4.34 0 0 1-1.162 1.253l-.426.231-.425.231c-.479.345-.998.592-1.558.742a6.28 6.28 0 0 1-1.642.225zM154.8 26.634v12.458h-2.555l-4.958-7.19h-.079v7.19h-3.011V26.634h2.592l4.903 7.178h.103v-7.178h3.005zm6.067 12.635c-.982 0-1.825-.201-2.531-.602a4.15 4.15 0 0 1-1.624-1.691c-.377-.726-.566-1.567-.566-2.524s.189-1.803.566-2.525a4.1 4.1 0 0 1 1.624-1.691c.706-.405 1.549-.608 2.531-.608s1.822.203 2.524.608a4.05 4.05 0 0 1 1.624 1.691c.381.722.572 1.563.572 2.525s-.191 1.799-.572 2.524a4.1 4.1 0 0 1-1.624 1.691c-.702.402-1.543.602-2.524.602zm.018-2.245c.357 0 .659-.109.906-.328s.436-.523.566-.912.201-.84.201-1.351c0-.519-.067-.973-.201-1.363s-.318-.693-.566-.912-.549-.328-.906-.328c-.369 0-.681.109-.937.328s-.444.523-.578.912-.195.844-.195 1.363c0 .511.065.961.195 1.351s.327.694.578.912.568.328.937.328zm11.311-7.275v2.19h-5.894v-2.19h5.894zm-4.659-2.239h2.974v8.644c0 .182.029.331.086.444a.53.53 0 0 0 .261.237 1.12 1.12 0 0 0 .408.067c.113 0 .233-.01.359-.03l.292-.061.45 2.147-.602.152c-.256.061-.562.099-.919.116-.697.032-1.296-.049-1.794-.243s-.874-.507-1.138-.925-.385-.943-.377-1.576V27.51zm5.989 11.582v-9.344h2.974v9.344h-2.974zm1.49-10.432c-.418 0-.776-.138-1.077-.414a1.33 1.33 0 0 1-.45-1.01c0-.389.15-.722.45-.998s.659-.42 1.077-.42a1.51 1.51 0 0 1 1.077.42c.3.276.45.608.45.998a1.33 1.33 0 0 1-.45 1.01c-.296.276-.655.414-1.077.414zm8.5 1.089v2.19h-6.01v-2.19h6.01zm-4.757 9.344v-9.818c0-.722.136-1.32.407-1.795s.649-.835 1.132-1.071 1.04-.359 1.673-.359c.413 0 .803.032 1.168.097l.821.164-.475 2.178c-.109-.037-.243-.067-.401-.091s-.3-.037-.438-.037c-.349 0-.588.077-.718.231s-.194.365-.194.633v9.867h-2.975zm6 0v-9.344h2.974v9.344h-2.974zm1.49-10.432c-.418 0-.777-.138-1.077-.414a1.33 1.33 0 0 1-.45-1.01c0-.389.15-.722.45-.998s.659-.42 1.077-.42a1.51 1.51 0 0 1 1.077.42c.3.276.45.608.45.998a1.33 1.33 0 0 1-.45 1.01c-.296.276-.655.414-1.077.414zm7.551 10.609c-.986 0-1.831-.203-2.537-.608a4.11 4.11 0 0 1-1.618-1.691c-.377-.726-.566-1.565-.566-2.518s.189-1.797.566-2.518.923-1.292 1.624-1.697 1.547-.608 2.525-.608c.863 0 1.616.156 2.256.468s1.148.754 1.509 1.326.558 1.235.578 2.001h-2.78c-.057-.479-.219-.854-.487-1.125s-.608-.408-1.034-.408c-.345 0-.647.097-.906.292s-.463.475-.609.852c-.141.373-.212.835-.212 1.387s.071 1.018.212 1.399c.146.377.349.663.609.858s.561.286.906.286c.276 0 .519-.059.73-.176s.391-.29.529-.517.225-.511.262-.839h2.78c-.028.77-.221 1.444-.578 2.02s-.85 1.024-1.49 1.344-1.393.474-2.269.474zm8.305-.018c-.596 0-1.126-.099-1.588-.298s-.821-.507-1.089-.913-.395-.923-.395-1.539c0-.519.091-.957.274-1.314a2.33 2.33 0 0 1 .754-.87 3.54 3.54 0 0 1 1.107-.505c.418-.118.864-.197 1.338-.237l1.284-.152c.324-.057.559-.136.705-.237a.51.51 0 0 0 .225-.444v-.03c0-.312-.107-.553-.322-.724s-.505-.255-.87-.255c-.393 0-.709.085-.949.255s-.391.406-.456.706l-2.743-.097c.081-.568.289-1.075.626-1.521s.807-.803 1.399-1.059 1.312-.389 2.148-.389c.596 0 1.145.071 1.648.213s.941.341 1.314.608.661.588.864.973.31.825.31 1.32v6.351h-2.798V37.79h-.073a2.64 2.64 0 0 1-.639.803c-.255.219-.558.383-.906.493s-.734.164-1.168.164zm.918-1.947c.321 0 .609-.065.864-.195a1.6 1.6 0 0 0 .621-.535c.154-.231.231-.499.231-.803v-.888c-.085.045-.189.085-.311.122l-.389.103-.438.085-.432.067c-.28.045-.519.114-.718.207a1.14 1.14 0 0 0-.45.365c-.101.146-.152.32-.152.523 0 .308.11.543.329.706s.505.243.845.243zm11.571-7.555v2.19h-5.895v-2.19h5.895zm-4.66-2.239h2.974v8.644c0 .182.029.331.086.444a.53.53 0 0 0 .261.237 1.12 1.12 0 0 0 .408.067c.113 0 .233-.01.359-.03l.292-.061.45 2.147-.602.152c-.256.061-.562.099-.919.116-.697.032-1.296-.049-1.794-.243s-.874-.507-1.138-.925-.385-.943-.377-1.576V27.51zm5.989 11.582v-9.344h2.974v9.344h-2.974zm1.49-10.432c-.418 0-.776-.138-1.077-.414a1.33 1.33 0 0 1-.45-1.01c0-.389.15-.722.45-.998s.659-.42 1.077-.42a1.51 1.51 0 0 1 1.077.42c.3.276.45.608.45.998a1.33 1.33 0 0 1-.45 1.01c-.296.276-.655.414-1.077.414zm7.551 10.609c-.981 0-1.825-.201-2.531-.602-.701-.406-1.243-.969-1.624-1.691s-.566-1.567-.566-2.524.189-1.803.566-2.525.923-1.29 1.624-1.691c.706-.405 1.55-.608 2.531-.608s1.823.203 2.524.608a4.06 4.06 0 0 1 1.625 1.691c.381.722.571 1.563.571 2.525s-.19 1.799-.571 2.524a4.11 4.11 0 0 1-1.625 1.691c-.701.402-1.543.602-2.524.602zm.018-2.245c.357 0 .659-.109.907-.328s.436-.523.565-.912.201-.84.201-1.351c0-.519-.067-.973-.201-1.363s-.318-.693-.565-.912a1.32 1.32 0 0 0-.907-.328c-.369 0-.681.109-.937.328-.251.219-.444.523-.577.912s-.195.844-.195 1.363c0 .511.065.961.195 1.351s.326.694.577.912c.256.219.568.328.937.328zm9.012-3.261v5.329h-2.974v-9.344h2.828v1.715h.104c.207-.572.56-1.02 1.058-1.344s1.093-.493 1.783-.493c.657 0 1.226.148 1.709.444s.864.701 1.131 1.229.406 1.136.402 1.837v5.955h-2.975V33.72c.004-.519-.127-.925-.395-1.217s-.631-.438-1.101-.438c-.312 0-.588.069-.827.207a1.37 1.37 0 0 0-.548.578c-.126.252-.19.556-.195.913zm15.852-1.162l-2.732.073c-.028-.195-.105-.367-.231-.517s-.29-.274-.493-.359c-.198-.089-.429-.134-.693-.134-.345 0-.639.069-.882.207s-.357.324-.353.56c-.004.183.069.341.219.474s.428.241.821.322l1.801.341c.933.178 1.626.474 2.08.888s.69.961.694 1.642c-.004.641-.195 1.198-.572 1.673s-.884.843-1.533 1.107-1.391.389-2.226.389c-1.335 0-2.387-.274-3.157-.821a3.06 3.06 0 0 1-1.314-2.214l2.938-.073c.065.341.233.6.505.779s.618.268 1.04.268c.381 0 .691-.071.931-.213s.36-.331.365-.566c-.005-.211-.098-.379-.28-.505s-.469-.231-.858-.304l-1.63-.31c-.937-.17-1.635-.485-2.093-.943s-.685-1.05-.681-1.764c-.004-.625.162-1.158.499-1.6s.815-.787 1.435-1.022 1.353-.353 2.196-.353c1.266 0 2.263.266 2.993.797a2.85 2.85 0 0 1 1.211 2.178z" fill="#121212"/><g filter="url(#B)"><path transform="translate(55.043 70.66)" fill="#ffd966" d="M0 0h157.025v157.025H0z"/><path d="M103.154 143.607v-11.074h4.369c.84 0 1.555.161 2.147.482a3.26 3.26 0 0 1 1.351 1.324c.314.563.471 1.212.471 1.947s-.159 1.384-.476 1.947-.777 1-1.379 1.314-1.323.47-2.174.47h-2.784v-1.876h2.406c.451 0 .822-.078 1.114-.233s.515-.376.659-.654.222-.604.222-.968-.074-.688-.222-.962-.364-.492-.659-.644-.671-.232-1.125-.232h-1.579v9.159h-2.341zm11.656.157c-.53 0-1.002-.092-1.417-.276s-.742-.463-.984-.827-.357-.825-.357-1.373c0-.462.085-.849.255-1.163a2.06 2.06 0 0 1 .692-.757 3.34 3.34 0 0 1 .995-.432c.375-.098.767-.166 1.178-.206l1.168-.14c.296-.047.51-.116.644-.206a.45.45 0 0 0 .2-.4v-.033c0-.342-.108-.607-.325-.794-.212-.188-.515-.282-.908-.282-.415 0-.744.092-.99.276s-.407.408-.486.682l-2.131-.173c.109-.505.321-.941.638-1.309a3.07 3.07 0 0 1 1.228-.854c.505-.202 1.089-.303 1.752-.303.461 0 .903.054 1.325.162s.802.276 1.13.503.593.519.784.876.286.777.286 1.271v5.601h-2.184v-1.151h-.065c-.133.259-.312.488-.535.686a2.48 2.48 0 0 1-.806.46c-.314.108-.676.162-1.087.162zm.66-1.589c.339 0 .638-.067.897-.201s.464-.32.611-.551a1.42 1.42 0 0 0 .222-.784v-.882a1.2 1.2 0 0 1-.297.13l-.417.103-.465.081-.421.06a2.8 2.8 0 0 0-.709.189c-.202.086-.358.204-.47.351s-.168.325-.168.541c0 .314.114.553.341.719s.523.244.876.244zm6.625 4.547c-.292 0-.566-.023-.822-.07s-.462-.099-.628-.168l.52-1.719c.27.082.513.128.729.135a.93.93 0 0 0 .568-.152c.162-.108.294-.292.395-.551l.135-.352-2.979-8.543h2.422l1.72 6.099h.086l1.736-6.099h2.439l-3.229 9.203c-.155.447-.365.836-.632 1.168s-.597.593-1 .773-.891.276-1.46.276zm7.195-3.115v-8.305h2.195v1.465h.097c.173-.486.462-.87.866-1.151s.886-.422 1.449-.422c.569 0 1.054.142 1.454.427s.667.663.801 1.146h.086a2.21 2.21 0 0 1 .919-1.141c.447-.288.975-.432 1.585-.432.775 0 1.404.247 1.887.741s.73 1.186.73 2.087v5.585h-2.298v-5.131c0-.461-.123-.807-.368-1.038s-.552-.346-.919-.346c-.418 0-.745.133-.979.4s-.351.611-.351 1.043v5.072h-2.234v-5.18c0-.407-.117-.731-.351-.973s-.535-.362-.914-.362c-.256 0-.487.065-.692.194a1.34 1.34 0 0 0-.481.536c-.119.227-.179.494-.179.8v4.985h-2.303zm17.369.163c-.855 0-1.59-.173-2.206-.519a3.56 3.56 0 0 1-1.417-1.482c-.332-.642-.498-1.4-.498-2.276 0-.855.166-1.605.498-2.25s.798-1.148 1.4-1.508 1.316-.541 2.131-.541c.548 0 1.058.088 1.53.265s.89.434 1.244.784.634.789.832 1.319.298 1.143.298 1.849v.633h-7.013v-1.427h4.844c0-.332-.072-.626-.216-.882s-.344-.456-.6-.6-.546-.222-.881-.222c-.35 0-.66.081-.93.244-.267.158-.476.373-.628.643s-.229.564-.232.892v1.357c0 .411.076.767.227 1.066a1.66 1.66 0 0 0 .654.692c.281.162.615.243 1.001.243.255 0 .49-.036.702-.108s.395-.18.547-.324a1.43 1.43 0 0 0 .346-.53l2.13.14a2.91 2.91 0 0 1-.665 1.341c-.332.379-.761.674-1.287.887s-1.126.314-1.811.314zm7.314-4.964v4.801h-2.304v-8.305h2.196v1.465h.097c.184-.483.492-.865.925-1.146s.957-.427 1.573-.427c.577 0 1.08.126 1.509.378s.762.613 1 1.082.357 1.02.357 1.665v5.288h-2.303v-4.877c.003-.508-.127-.905-.39-1.189s-.625-.433-1.087-.433a1.65 1.65 0 0 0-.821.2c-.235.133-.419.328-.552.584s-.196.557-.2.914zm11.282-3.504v1.73h-5.002v-1.73h5.002zm-3.867-1.99h2.304v7.743c0 .213.032.379.097.498s.155.196.271.243.256.07.411.07a1.97 1.97 0 0 0 .324-.027l.249-.048.362 1.714c-.115.036-.278.077-.487.124s-.463.081-.762.092c-.555.022-1.042-.052-1.46-.222s-.737-.432-.968-.789-.344-.808-.341-1.352v-8.046zM96.18 166.607v-11.074h4.369c.836 0 1.55.15 2.141.449s1.047.716 1.357 1.26.471 1.177.471 1.909-.159 1.368-.476 1.898-.777.93-1.379 1.211-1.323.422-2.174.422h-2.925V160.8h2.547c.447 0 .818-.061 1.114-.184a1.32 1.32 0 0 0 .659-.551c.148-.245.222-.55.222-.914s-.074-.678-.222-.93-.366-.444-.665-.573-.669-.2-1.119-.2h-1.579v9.159H96.18zm5.98-5.039l2.752 5.039h-2.584l-2.693-5.039h2.525zm7.316 5.202c-.855 0-1.59-.173-2.207-.519s-1.085-.844-1.416-1.482-.498-1.4-.498-2.276c0-.855.166-1.605.498-2.25s.798-1.148 1.4-1.508 1.316-.541 2.131-.541c.548 0 1.058.088 1.53.265s.89.434 1.244.784.634.789.832 1.319.298 1.143.298 1.849v.633h-7.013v-1.427h4.844c0-.332-.072-.626-.216-.882s-.344-.456-.6-.6-.546-.222-.881-.222a1.77 1.77 0 0 0-.931.244 1.71 1.71 0 0 0-.627.643c-.151.267-.229.564-.232.892v1.357c0 .411.075.767.227 1.066a1.66 1.66 0 0 0 .654.692 1.97 1.97 0 0 0 1 .243c.256 0 .491-.036.703-.108s.395-.18.547-.324a1.43 1.43 0 0 0 .346-.53l2.13.14a2.91 2.91 0 0 1-.665 1.341c-.332.379-.761.674-1.287.887s-1.126.314-1.811.314zm5.01-.163v-8.305h2.196v1.465h.097c.173-.486.461-.87.865-1.151s.887-.422 1.449-.422c.57 0 1.055.142 1.455.427s.667.663.8 1.146h.087c.169-.476.475-.856.919-1.141s.975-.432 1.584-.432c.775 0 1.404.247 1.887.741s.73 1.186.73 2.087v5.585h-2.298v-5.131c0-.461-.122-.807-.368-1.038s-.551-.346-.919-.346c-.418 0-.744.133-.978.4s-.352.611-.352 1.043v5.072h-2.233v-5.18c0-.407-.117-.731-.352-.973s-.535-.362-.913-.362a1.28 1.28 0 0 0-.693.194 1.35 1.35 0 0 0-.481.536 1.7 1.7 0 0 0-.178.8v4.985h-2.304zm13.584 0v-8.305h2.304v8.305h-2.304zm1.157-9.376a1.25 1.25 0 0 1-.881-.34c-.242-.231-.362-.507-.362-.828s.12-.589.362-.816a1.24 1.24 0 0 1 .881-.346 1.22 1.22 0 0 1 .876.346c.245.227.368.499.368.816a1.1 1.1 0 0 1-.368.828 1.23 1.23 0 0 1-.876.34zm4.991 4.575v4.801h-2.304v-8.305h2.196v1.465h.097c.184-.483.492-.865.925-1.146s.957-.427 1.573-.427c.577 0 1.08.126 1.509.378s.762.613 1 1.082.357 1.02.357 1.665v5.288h-2.304v-4.877c.004-.508-.126-.905-.389-1.189s-.625-.433-1.087-.433c-.31 0-.584.067-.822.2a1.39 1.39 0 0 0-.551.584c-.13.252-.197.557-.2.914zm9.924 4.937a3.14 3.14 0 0 1-1.714-.487c-.508-.328-.912-.809-1.211-1.444s-.443-1.42-.443-2.346c0-.952.153-1.743.459-2.374s.714-1.109 1.222-1.422 1.073-.476 1.682-.476c.465 0 .852.079 1.162.238s.566.349.757.584.343.458.444.681h.07v-4.164h2.298v11.074h-2.271v-1.33h-.097c-.108.231-.261.46-.46.687-.194.223-.449.409-.762.557s-.689.222-1.136.222zm.73-1.833a1.47 1.47 0 0 0 .941-.303c.26-.206.458-.492.595-.86s.211-.798.211-1.292-.069-.923-.206-1.287-.335-.645-.594-.844-.575-.297-.947-.297c-.378 0-.697.103-.957.308s-.456.49-.589.854-.2.786-.2 1.266.066.91.2 1.281.333.656.589.865.579.309.957.309zm9.371 1.86c-.855 0-1.59-.173-2.207-.519s-1.085-.844-1.416-1.482-.498-1.4-.498-2.276c0-.855.166-1.605.498-2.25s.798-1.148 1.4-1.508 1.316-.541 2.131-.541c.548 0 1.058.088 1.53.265s.89.434 1.244.784.634.789.832 1.319.298 1.143.298 1.849v.633h-7.013v-1.427h4.844c0-.332-.072-.626-.216-.882s-.344-.456-.6-.6-.546-.222-.881-.222a1.77 1.77 0 0 0-.931.244 1.71 1.71 0 0 0-.627.643c-.151.267-.229.564-.232.892v1.357c0 .411.075.767.227 1.066a1.66 1.66 0 0 0 .654.692 1.97 1.97 0 0 0 1 .243c.256 0 .491-.036.703-.108s.395-.18.547-.324a1.43 1.43 0 0 0 .346-.53l2.13.14a2.91 2.91 0 0 1-.665 1.341c-.332.379-.761.674-1.287.887s-1.126.314-1.811.314zm5.01-.163v-8.305h2.234v1.449h.086c.151-.515.406-.905.762-1.168s.768-.4 1.233-.4a3.33 3.33 0 0 1 .373.022c.134.014.251.034.352.059v2.044a3.05 3.05 0 0 0-.449-.086c-.191-.026-.366-.038-.524-.038-.339 0-.642.074-.909.221s-.472.346-.627.606-.227.559-.227.898v4.698h-2.304zm12.837-5.937l-2.109.13c-.036-.18-.114-.342-.233-.487s-.275-.265-.47-.351a1.6 1.6 0 0 0-.687-.135c-.357 0-.658.075-.903.227s-.368.346-.368.595c0 .198.08.366.238.503s.431.246.817.329l1.503.303c.808.166 1.41.433 1.806.8s.595.851.595 1.45c0 .544-.161 1.022-.481 1.433s-.754.731-1.309.962-1.188.341-1.909.341c-1.099 0-1.975-.229-2.628-.687s-1.029-1.089-1.14-1.882l2.265-.119c.069.336.234.591.498.768s.6.26 1.011.26c.404 0 .728-.078.973-.233s.375-.362.379-.611c-.004-.209-.092-.38-.265-.514s-.44-.241-.801-.313l-1.438-.287c-.811-.162-1.415-.443-1.811-.843s-.59-.911-.59-1.531c0-.533.144-.993.433-1.378s.701-.683 1.227-.893 1.15-.313 1.86-.313c1.049 0 1.875.222 2.477.665s.959 1.047 1.06 1.811z" fill="#262a36"/></g></g><defs><filter id="A" x=".227" y=".139" width="266.66" height="252.387" filterUnits="userSpaceOnUse" color-interpolation-filters="sRGB"><feFlood flood-opacity="0" result="A"/><feColorMatrix in="SourceAlpha" values="0 0 0 0 0 0 0 0 0 0 0 0 0 0 0 0 0 0 127 0" result="B"/><feOffset/><feGaussianBlur stdDeviation="1"/><feComposite in2="B" operator="out"/><feColorMatrix values="0 0 0 0 0 0 0 0 0 0 0 0 0 0 0 0 0 0 0.25 0"/><feBlend in2="A"/><feBlend in="SourceGraphic"/></filter><filter id="B" x="51.236" y="70.66" width="164.639" height="164.639" filterUnits="userSpaceOnUse" color-interpolation-filters="sRGB"><feFlood flood-opacity="0" result="A"/><feColorMatrix in="SourceAlpha" values="0 0 0 0 0 0 0 0 0 0 0 0 0 0 0 0 0 0 127 0" result="B"/><feOffset dy="3.80667"/><feGaussianBlur stdDeviation="1.903"/><feComposite in2="B" operator="out"/><feColorMatrix values="0 0 0 0 0 0 0 0 0 0 0 0 0 0 0 0 0 0 0.25 0"/><feBlend in2="A"/><feBlend in="SourceGraphic"/></filter></defs></svg>