<svg xmlns="http://www.w3.org/2000/svg" width="267" height="613" fill="none" xmlns:v="https://vecta.io/nano"><style><![CDATA[.B{color-interpolation-filters:sRGB}.C{flood-opacity:0}.D{fill:#ffd966}.E{fill:#262a36}]]></style><g filter="url(#A)"><g clip-path="url(#E)"><rect x="2" y="2.482" width="262.66" height="608.115" rx="10" fill="#fff"/><path opacity=".85" d="M39.966 39.436V26.977h8.504v2.445h-5.493v2.555h4.952v2.452h-4.952v5.006h-3.011zm9.832 0v-9.344h2.975v9.344h-2.975zm1.49-10.432c-.418 0-.777-.138-1.077-.414a1.33 1.33 0 0 1-.45-1.01c0-.389.15-.722.45-.998s.659-.42 1.077-.42a1.51 1.51 0 0 1 1.077.42c.3.276.45.608.45.998a1.33 1.33 0 0 1-.45 1.01c-.296.276-.655.414-1.077.414zm6.164 5.104v5.329h-2.975v-9.344h2.829v1.715h.103c.207-.572.56-1.02 1.059-1.344s1.093-.493 1.782-.493c.657 0 1.227.148 1.709.444s.864.702 1.131 1.229.406 1.135.401 1.837v5.955h-2.975v-5.371c.004-.519-.128-.925-.395-1.217s-.631-.438-1.101-.438c-.312 0-.588.069-.827.207a1.37 1.37 0 0 0-.547.578c-.126.251-.191.556-.195.913zm10.328 5.487c-.596 0-1.125-.099-1.588-.298s-.821-.507-1.089-.912-.395-.923-.395-1.539c0-.519.091-.957.274-1.314a2.34 2.34 0 0 1 .754-.87 3.55 3.55 0 0 1 1.107-.505c.418-.118.864-.197 1.338-.237l1.284-.152c.324-.057.56-.136.706-.237a.51.51 0 0 0 .225-.444v-.03c0-.312-.108-.554-.322-.724s-.505-.255-.87-.255c-.393 0-.71.085-.949.255s-.391.405-.456.706l-2.743-.097c.081-.568.29-1.075.627-1.521s.807-.803 1.399-1.058 1.312-.389 2.147-.389a6.05 6.05 0 0 1 1.648.213c.503.138.941.341 1.314.608a2.75 2.75 0 0 1 .864.973c.207.385.31.825.31 1.32v6.351h-2.798v-1.302h-.073c-.166.316-.379.584-.639.803s-.558.383-.906.493-.734.164-1.168.164zm.919-1.947a1.88 1.88 0 0 0 .864-.195c.26-.13.466-.308.621-.535s.231-.499.231-.803v-.888a1.76 1.76 0 0 1-.31.122l-.389.103-.438.085-.432.067c-.28.045-.519.114-.718.207s-.345.215-.45.365-.152.32-.152.523c0 .308.109.543.328.706s.505.243.846.243zm9.271-3.54v5.329h-2.975v-9.344h2.829v1.715h.103a2.62 2.62 0 0 1 1.059-1.344c.499-.329 1.093-.493 1.782-.493.657 0 1.227.148 1.709.444s.864.702 1.132 1.229.406 1.135.401 1.837v5.955h-2.975v-5.371c.004-.519-.128-.925-.395-1.217s-.631-.438-1.101-.438c-.312 0-.588.069-.827.207a1.37 1.37 0 0 0-.547.578c-.126.251-.191.556-.195.913zm12.055 5.505c-.985 0-1.831-.203-2.537-.608s-1.241-.969-1.618-1.691-.566-1.565-.566-2.518.189-1.797.566-2.518.923-1.292 1.624-1.697 1.547-.608 2.525-.608c.864 0 1.616.156 2.257.468s1.148.754 1.509 1.326.558 1.235.578 2.001h-2.78c-.057-.479-.219-.854-.487-1.125s-.608-.408-1.034-.408a1.47 1.47 0 0 0-.906.292c-.26.191-.462.474-.608.852s-.213.835-.213 1.387.071 1.018.213 1.399.349.663.608.858a1.49 1.49 0 0 0 .906.286c.276 0 .519-.059.73-.176s.391-.29.529-.517.225-.511.262-.84h2.78c-.028.77-.221 1.444-.578 2.02s-.85 1.024-1.49 1.344-1.393.474-2.269.474zm5.671-.177v-9.344h2.975v9.344h-2.975zm1.49-10.432c-.418 0-.777-.138-1.077-.414a1.33 1.33 0 0 1-.45-1.01c0-.389.15-.722.45-.998s.659-.42 1.077-.42a1.51 1.51 0 0 1 1.077.42c.3.276.45.608.45.998a1.33 1.33 0 0 1-.45 1.01c-.296.276-.655.414-1.077.414zm5.823 10.591c-.596 0-1.126-.099-1.588-.298s-.821-.507-1.089-.912c-.263-.41-.395-.923-.395-1.539 0-.519.091-.957.274-1.314s.434-.647.754-.87.689-.391 1.107-.505.864-.197 1.338-.237l1.284-.152c.324-.057.56-.136.706-.237a.51.51 0 0 0 .225-.444v-.03c0-.312-.108-.554-.323-.724s-.505-.255-.87-.255c-.393 0-.709.085-.949.255s-.391.405-.456.706l-2.743-.097a3.25 3.25 0 0 1 .626-1.521c.341-.45.807-.803 1.399-1.058s1.312-.389 2.148-.389c.596 0 1.145.071 1.648.213a4.08 4.08 0 0 1 1.314.608c.373.264.661.588.864.973s.31.825.31 1.32v6.351h-2.798v-1.302h-.073a2.64 2.64 0 0 1-.639.803c-.255.219-.557.383-.906.493s-.734.164-1.168.164zm.918-1.947c.321 0 .609-.065.864-.195.26-.13.467-.308.621-.535s.231-.499.231-.803v-.888c-.085.045-.189.085-.31.122l-.39.103-.438.085-.432.067c-.279.045-.519.114-.717.207s-.345.215-.451.365-.152.32-.152.523c0 .308.11.543.329.706s.505.243.845.243zm9.271-10.67v12.458h-2.974V26.977h2.974zm5.197 0h3.729l3.163 7.713h.146l3.163-7.713h3.729v12.458h-2.932v-7.652h-.103l-2.993 7.573h-1.874l-2.993-7.616h-.103v7.695h-2.932V26.977zm18.254 12.616c-.596 0-1.125-.099-1.588-.298s-.821-.507-1.089-.912-.395-.923-.395-1.539c0-.519.091-.957.274-1.314s.434-.647.754-.87.689-.391 1.107-.505.864-.197 1.338-.237l1.284-.152c.324-.057.56-.136.706-.237a.51.51 0 0 0 .225-.444v-.03c0-.312-.108-.554-.323-.724s-.505-.255-.87-.255c-.393 0-.709.085-.949.255s-.391.405-.456.706l-2.743-.097a3.25 3.25 0 0 1 .626-1.521c.341-.45.807-.803 1.399-1.058s1.312-.389 2.148-.389c.596 0 1.145.071 1.648.213a4.08 4.08 0 0 1 1.314.608c.373.264.661.588.864.973s.31.825.31 1.32v6.351h-2.798v-1.302h-.073a2.64 2.64 0 0 1-.639.803c-.255.219-.557.383-.906.493s-.734.164-1.168.164zm.919-1.947c.32 0 .608-.065.863-.195s.467-.308.621-.535.231-.499.231-.803v-.888c-.085.045-.189.085-.31.122l-.39.103-.438.085-.431.067a2.68 2.68 0 0 0-.718.207c-.195.093-.345.215-.45.365a.89.89 0 0 0-.153.523c0 .308.11.543.329.706s.505.243.846.243zm9.27-3.54v5.329h-2.974v-9.344h2.828v1.715h.104a2.62 2.62 0 0 1 1.058-1.344c.499-.329 1.093-.493 1.783-.493.656 0 1.226.148 1.709.444s.864.702 1.131 1.229.406 1.135.402 1.837v5.955h-2.975v-5.371c.004-.519-.128-.925-.395-1.217s-.631-.438-1.101-.438a1.63 1.63 0 0 0-.828.207c-.235.134-.417.327-.547.578s-.191.556-.195.913zm10.328 5.487c-.596 0-1.125-.099-1.588-.298s-.821-.507-1.089-.912-.395-.923-.395-1.539c0-.519.091-.957.274-1.314s.434-.647.754-.87.69-.391 1.107-.505a7.19 7.19 0 0 1 1.339-.237l1.283-.152c.324-.057.56-.136.706-.237a.51.51 0 0 0 .225-.444v-.03c0-.312-.108-.554-.323-.724s-.505-.255-.87-.255c-.393 0-.709.085-.949.255s-.391.405-.456.706l-2.743-.097a3.25 3.25 0 0 1 .626-1.521c.341-.45.807-.803 1.399-1.058s1.312-.389 2.148-.389c.596 0 1.145.071 1.648.213a4.08 4.08 0 0 1 1.314.608c.373.264.661.588.864.973s.31.825.31 1.32v6.351h-2.798v-1.302h-.073a2.64 2.64 0 0 1-.639.803c-.255.219-.557.383-.906.493s-.734.164-1.168.164zm.919-1.947c.32 0 .608-.065.863-.195s.467-.308.621-.535.231-.499.231-.803v-.888c-.085.045-.189.085-.31.122l-.39.103-.438.085-.431.067a2.68 2.68 0 0 0-.718.207c-.195.093-.345.215-.45.365a.89.89 0 0 0-.152.523c0 .308.109.543.328.706s.505.243.846.243zm10.651 5.487c-.888 0-1.648-.124-2.281-.371s-1.129-.586-1.49-1.016a2.81 2.81 0 0 1-.651-1.46l2.816-.158c.053.191.15.357.292.499a1.46 1.46 0 0 0 .566.328 2.66 2.66 0 0 0 .827.116c.499 0 .911-.122 1.235-.365s.493-.659.493-1.259v-1.642h-.104c-.117.288-.296.545-.535.773s-.537.406-.894.535-.758.195-1.217.195a3.78 3.78 0 0 1-1.873-.474c-.564-.32-1.016-.815-1.357-1.484-.336-.673-.505-1.539-.505-2.597 0-1.091.175-1.989.523-2.695s.805-1.235 1.369-1.576a3.5 3.5 0 0 1 1.831-.511c.491 0 .911.085 1.259.256.353.166.643.381.87.645s.4.537.517.821h.085v-1.6h2.963v9.38c0 .791-.199 1.458-.596 2.001s-.953.955-1.667 1.235-1.539.426-2.476.426zm.091-5.992c.361 0 .67-.095.925-.286s.452-.464.59-.821.207-.785.207-1.283c0-.507-.069-.943-.207-1.308s-.33-.653-.59-.852a1.46 1.46 0 0 0-.925-.298c-.369 0-.681.101-.936.304s-.45.489-.584.858-.195.797-.195 1.296.067.927.201 1.283.326.631.578.821.567.286.936.286zm10.724 2.47c-.978 0-1.821-.193-2.531-.578s-1.249-.943-1.63-1.661-.566-1.58-.566-2.573c0-.965.191-1.809.572-2.53s.918-1.29 1.612-1.691 1.51-.608 2.451-.608a5.16 5.16 0 0 1 1.825.31c.552.207 1.028.513 1.43.919s.714.906.937 1.503.334 1.271.334 2.038v.742h-8.121v-1.728h5.353c-.004-.316-.079-.598-.225-.846s-.346-.44-.602-.578c-.251-.142-.541-.213-.87-.213s-.63.075-.894.225a1.66 1.66 0 0 0-.627.602c-.154.251-.235.537-.243.858v1.758c0 .381.075.716.225 1.004a1.62 1.62 0 0 0 .639.663c.276.158.604.237.985.237.264 0 .503-.036.718-.109s.4-.18.554-.322a1.33 1.33 0 0 0 .346-.523l2.732.079c-.114.612-.363 1.146-.748 1.6s-.883.801-1.503 1.052-1.338.371-2.153.371zm5.765-.177v-9.344h2.829v1.715h.103c.195-.568.523-1.016.986-1.344s1.013-.493 1.654-.493c.649 0 1.205.166 1.667.499s.756.779.882 1.338h.097c.175-.556.515-1 1.022-1.332s1.105-.505 1.795-.505c.884 0 1.602.284 2.153.852s.827 1.338.827 2.324v6.29h-2.974v-5.609c0-.466-.12-.821-.359-1.065s-.55-.371-.931-.371c-.409 0-.732.134-.967.401s-.347.618-.347 1.065v5.578h-2.859v-5.639c0-.434-.117-.777-.353-1.028s-.545-.377-.93-.377a1.26 1.26 0 0 0-.688.189c-.198.122-.355.296-.468.523s-.164.495-.164.803v5.529h-2.975zm20.038.177c-.978 0-1.821-.193-2.531-.578a4 4 0 0 1-1.63-1.661c-.377-.722-.566-1.58-.566-2.573 0-.965.191-1.809.572-2.53a4.13 4.13 0 0 1 1.612-1.691c.694-.406 1.511-.608 2.452-.608.665 0 1.273.104 1.825.31a3.92 3.92 0 0 1 1.429.919 4.18 4.18 0 0 1 .937 1.503c.223.592.334 1.271.334 2.038v.742h-8.121v-1.728h5.354c-.004-.316-.079-.598-.225-.846s-.347-.44-.603-.578-.541-.213-.87-.213-.63.075-.894.225-.472.347-.626.602-.236.537-.244.858v1.758c0 .381.075.716.225 1.004a1.62 1.62 0 0 0 .639.663c.276.158.604.237.986.237a2.22 2.22 0 0 0 .717-.109c.215-.073.4-.18.554-.322a1.33 1.33 0 0 0 .347-.523l2.731.079c-.114.612-.363 1.146-.748 1.6s-.882.801-1.503 1.052-1.338.371-2.153.371zm8.74-5.505v5.329h-2.975v-9.344h2.829v1.715h.103c.207-.572.56-1.02 1.059-1.344s1.093-.493 1.782-.493c.657 0 1.227.148 1.709.444s.864.702 1.132 1.229.405 1.135.401 1.837v5.955h-2.974v-5.371c.004-.519-.128-.925-.396-1.217s-.63-.438-1.101-.438c-.312 0-.588.069-.827.207s-.418.327-.547.578-.191.556-.195.913zm12.968-4.015v2.19h-5.895v-2.19h5.895zm-4.66-2.239h2.975v8.644c0 .183.028.331.085.444s.148.189.261.237a1.12 1.12 0 0 0 .408.067c.114 0 .233-.01.359-.03l.292-.061.45 2.147-.602.152a5.01 5.01 0 0 1-.919.116c-.697.032-1.295-.049-1.794-.243s-.874-.507-1.138-.925c-.259-.418-.385-.943-.377-1.576v-8.973z" fill="#121212"/><g filter="url(#B)"><use href="#F" transform="translate(54.816 71.002)" class="D"/><path d="M79.023 147.138c-.043-.436-.229-.775-.557-1.016s-.773-.363-1.335-.363c-.382 0-.705.054-.968.163s-.465.25-.606.438-.206.4-.206.638a.91.91 0 0 0 .124.519c.094.148.222.276.384.384a2.93 2.93 0 0 0 .562.275 5.76 5.76 0 0 0 .681.195l.995.238c.483.108.927.252 1.33.433s.753.402 1.049.665a2.76 2.76 0 0 1 .687.93c.166.357.251.766.254 1.227-.004.678-.177 1.265-.519 1.763s-.829.878-1.471 1.152-1.408.405-2.309.405c-.894 0-1.673-.137-2.336-.411s-1.175-.679-1.546-1.216-.561-1.21-.579-2.006h2.266c.025.371.132.681.319.93s.445.43.763.556.683.184 1.087.184c.397 0 .741-.057 1.033-.173s.524-.275.687-.481a1.11 1.11 0 0 0 .243-.708c0-.249-.074-.458-.222-.628s-.357-.313-.638-.432a6.55 6.55 0 0 0-1.022-.325l-1.206-.302c-.934-.227-1.671-.582-2.212-1.066s-.809-1.133-.806-1.952c-.004-.67.175-1.256.535-1.757s.863-.892 1.498-1.173 1.355-.422 2.163-.422c.822 0 1.539.141 2.152.422s1.096.672 1.438 1.173.519 1.082.53 1.741h-2.244zm8.948 4.353v-4.769h2.303v8.305h-2.212v-1.508h-.087a2.45 2.45 0 0 1-.935 1.173c-.433.296-.961.443-1.584.443-.555 0-1.044-.126-1.465-.378a2.6 2.6 0 0 1-.99-1.076c-.234-.465-.353-1.022-.357-1.671v-5.288h2.303v4.877c.004.49.135.878.395 1.163s.607.427 1.044.427a1.66 1.66 0 0 0 .779-.189c.242-.13.436-.321.584-.574s.225-.564.222-.935zm3.841 3.536v-8.305h2.233v1.449h.087c.151-.515.406-.905.762-1.168s.768-.4 1.233-.4c.115 0 .24.007.373.022s.251.034.352.059v2.044c-.108-.032-.258-.061-.449-.087s-.366-.037-.524-.037a1.84 1.84 0 0 0-.909.221 1.63 1.63 0 0 0-.627.606c-.151.259-.227.559-.227.897v4.699h-2.303zm5.926 3.115v-11.42h2.271v1.395h.103c.101-.224.247-.451.438-.681.194-.235.447-.429.757-.584s.703-.238 1.168-.238c.605 0 1.164.158 1.676.476.512.313.921.787 1.227 1.422s.46 1.422.46 2.373c0 .927-.15 1.709-.449 2.347s-.699 1.116-1.211 1.444-1.078.487-1.709.487c-.447 0-.827-.074-1.141-.222s-.564-.334-.762-.557-.35-.456-.454-.687h-.07v4.445h-2.304zm2.255-7.267c0 .493.068.924.205 1.292s.336.654.595.86.575.302.946.302.692-.102.952-.308a1.91 1.91 0 0 0 .589-.865c.137-.371.206-.798.206-1.281s-.067-.902-.2-1.266-.33-.649-.59-.854-.578-.308-.957-.308-.692.099-.951.297-.453.48-.59.844-.205.793-.205 1.287zm9.38-6.922v11.074h-2.304v-11.074h2.304zm6.866 7.538v-4.769h2.304v8.305h-2.212v-1.508h-.086a2.45 2.45 0 0 1-.936 1.173c-.432.296-.96.443-1.584.443-.555 0-1.044-.126-1.465-.378a2.6 2.6 0 0 1-.99-1.076c-.234-.465-.353-1.022-.357-1.671v-5.288h2.304v4.877c.003.49.135.878.394 1.163s.608.427 1.044.427a1.66 1.66 0 0 0 .779-.189 1.49 1.49 0 0 0 .584-.574c.151-.252.225-.564.221-.935zm10.752-2.401l-2.109.13c-.036-.18-.113-.342-.232-.487s-.276-.265-.471-.351-.419-.135-.686-.135c-.357 0-.658.075-.903.227s-.368.346-.368.595c0 .198.079.365.238.502s.431.247.816.33l1.504.303c.807.166 1.409.433 1.806.8s.594.851.594 1.45c0 .544-.16 1.021-.481 1.432s-.753.732-1.308.963-1.188.341-1.909.341c-1.1 0-1.975-.229-2.628-.687s-1.029-1.089-1.141-1.882l2.266-.119c.068.335.234.591.497.768s.6.26 1.011.26c.404 0 .729-.078.974-.233s.375-.362.378-.611c-.003-.209-.092-.38-.265-.514s-.44-.241-.8-.313l-1.438-.287c-.811-.162-1.415-.443-1.812-.843s-.589-.911-.589-1.531c0-.533.144-.993.432-1.378s.702-.684 1.228-.893 1.15-.313 1.86-.313c1.049 0 1.874.221 2.476.665s.959 1.047 1.06 1.811zm4.598-5.137h2.888l3.049 7.441h.13l3.05-7.441h2.887v11.074h-2.271v-7.207h-.092l-2.866 7.153h-1.546l-2.866-7.18h-.092v7.234h-2.271v-11.074zm15.954 11.231c-.53 0-1.002-.092-1.417-.276s-.742-.463-.984-.827-.357-.825-.357-1.373c0-.462.085-.849.254-1.163a2.06 2.06 0 0 1 .692-.757c.292-.191.624-.335.995-.432a7.55 7.55 0 0 1 1.179-.206l1.168-.141c.296-.046.51-.115.644-.205s.2-.224.2-.4v-.033c0-.342-.109-.607-.325-.794s-.515-.282-.908-.282c-.415 0-.745.092-.99.276s-.407.407-.486.681l-2.131-.173c.108-.504.321-.94.638-1.308s.727-.656 1.228-.854 1.088-.303 1.752-.303c.461 0 .903.054 1.324.162s.802.276 1.13.503a2.44 2.44 0 0 1 .784.876c.192.353.287.777.287 1.27v5.602h-2.184v-1.151h-.065a2.35 2.35 0 0 1-.536.686c-.223.195-.492.348-.805.46s-.676.162-1.087.162zm.66-1.59c.338 0 .638-.066.897-.2s.463-.32.611-.551a1.42 1.42 0 0 0 .222-.784v-.882c-.072.047-.171.091-.298.13l-.416.103-.465.081-.422.06c-.27.039-.506.102-.708.189s-.359.203-.47.351-.168.325-.168.541c0 .314.113.553.341.719s.522.243.876.243zm7.803-3.368v4.801h-2.303v-8.305h2.195v1.465h.097c.184-.483.492-.865.925-1.146s.957-.427 1.573-.427c.577 0 1.08.126 1.509.378s.762.613 1 1.082.357 1.02.357 1.665v5.288h-2.303v-4.877c.003-.508-.126-.905-.39-1.19s-.625-.432-1.086-.432c-.31 0-.584.067-.822.2s-.418.328-.552.584-.196.557-.2.914zm9.232 4.958c-.529 0-1.002-.092-1.416-.276a2.27 2.27 0 0 1-.984-.827c-.238-.368-.357-.825-.357-1.373 0-.462.085-.849.254-1.163a2.05 2.05 0 0 1 .692-.757c.292-.191.624-.335.995-.432a7.55 7.55 0 0 1 1.179-.206l1.168-.141c.295-.046.51-.115.643-.205a.45.45 0 0 0 .2-.4v-.033c0-.342-.108-.607-.324-.794s-.516-.282-.909-.282c-.414 0-.744.092-.989.276a1.27 1.27 0 0 0-.487.681l-2.13-.173c.108-.504.321-.94.638-1.308s.726-.656 1.227-.854 1.089-.303 1.752-.303a5.32 5.32 0 0 1 1.325.162c.425.108.802.276 1.13.503a2.44 2.44 0 0 1 .784.876c.191.353.287.777.287 1.27v5.602h-2.185v-1.151h-.065c-.133.259-.312.488-.535.686a2.48 2.48 0 0 1-.806.46c-.313.108-.676.162-1.087.162zm.66-1.59c.339 0 .638-.066.898-.2s.463-.32.611-.551a1.42 1.42 0 0 0 .221-.784v-.882a1.2 1.2 0 0 1-.297.13l-.416.103-.465.081-.422.06c-.27.039-.507.102-.708.189s-.359.203-.471.351-.167.325-.167.541c0 .314.113.553.34.719s.523.243.876.243zm9.242 4.721c-.746 0-1.386-.103-1.92-.308s-.951-.478-1.265-.828-.517-.742-.611-1.178l2.131-.287a1.37 1.37 0 0 0 .308.465c.14.144.326.26.557.346s.519.135.854.135c.501 0 .914-.122 1.238-.367s.492-.647.492-1.217v-1.519h-.097a2.2 2.2 0 0 1-.454.654c-.202.205-.462.373-.779.503s-.695.194-1.135.194c-.624 0-1.192-.144-1.704-.432s-.913-.737-1.216-1.336-.449-1.362-.449-2.282c0-.94.153-1.726.46-2.357s.713-1.103 1.222-1.417a3.16 3.16 0 0 1 1.681-.47c.465 0 .855.079 1.168.238s.566.349.757.584c.195.23.345.457.449.681h.087v-1.395h2.287v8.386c0 .707-.173 1.298-.519 1.774s-.826.833-1.439 1.071-1.31.362-2.103.362zm.049-5.137c.371 0 .685-.092.941-.276a1.75 1.75 0 0 0 .594-.8c.141-.35.211-.768.211-1.254s-.068-.909-.205-1.266-.336-.64-.595-.838-.575-.297-.946-.297c-.379 0-.698.103-.957.308s-.456.483-.59.844-.2.776-.2 1.249c0 .479.067.894.2 1.243s.334.615.59.806.578.281.957.281zm9.325 2.012c-.854 0-1.589-.173-2.206-.52s-1.085-.843-1.416-1.481-.498-1.401-.498-2.277c0-.854.166-1.604.498-2.249s.798-1.148 1.4-1.509 1.316-.54 2.13-.54c.548 0 1.058.088 1.531.265s.89.434 1.243.784a3.55 3.55 0 0 1 .833 1.319c.198.526.297 1.143.297 1.849v.633h-7.013v-1.427h4.845c0-.332-.072-.626-.216-.882s-.344-.456-.6-.6-.546-.222-.882-.222c-.349 0-.659.081-.93.244s-.476.373-.627.643-.229.564-.232.892v1.357c0 .411.075.766.227 1.066a1.66 1.66 0 0 0 .654.692 1.97 1.97 0 0 0 1 .243c.256 0 .49-.036.703-.108s.395-.18.546-.325.267-.32.346-.529l2.131.14a2.91 2.91 0 0 1-.665 1.341c-.332.379-.761.674-1.287.887s-1.127.314-1.812.314zm5.011-.163v-8.305h2.233v1.449h.087c.151-.515.405-.905.762-1.168s.768-.4 1.233-.4c.115 0 .24.007.373.022s.251.034.352.059v2.044c-.109-.032-.258-.061-.449-.087s-.366-.037-.525-.037c-.339 0-.641.073-.908.221a1.63 1.63 0 0 0-.627.606c-.152.259-.227.559-.227.897v4.699h-2.304z" class="E"/></g><g filter="url(#C)"><use href="#F" transform="translate(54.818 250.867)" class="D"/><path d="M109.077 334.893v-11.074h4.434c.814 0 1.494.12 2.038.362s.954.577 1.228 1.006.411.915.411 1.47c0 .433-.087.813-.26 1.141s-.411.592-.714.801-.641.351-1.027.438v.108a2.48 2.48 0 0 1 1.184.357c.371.219.672.528.903.924s.346.862.346 1.406c0 .588-.146 1.112-.438 1.574s-.715.82-1.281 1.086-1.264.401-2.093.401h-4.731zm2.341-1.915h1.909c.652 0 1.128-.124 1.427-.373s.449-.587.449-1.005c0-.307-.074-.577-.222-.811s-.358-.419-.632-.552-.593-.2-.968-.2h-1.963v2.941zm0-4.525h1.736a2.06 2.06 0 0 0 .854-.168c.252-.115.451-.278.595-.487s.222-.459.222-.751c0-.4-.143-.723-.428-.968s-.681-.368-1.2-.368h-1.779v2.742zm7.378 6.44v-8.306h2.303v8.306h-2.303zm1.157-9.377a1.25 1.25 0 0 1-.881-.34c-.242-.231-.363-.507-.363-.827a1.08 1.08 0 0 1 .363-.817c.245-.231.538-.346.881-.346a1.22 1.22 0 0 1 .876.346c.245.227.368.499.368.817s-.123.596-.368.827-.534.34-.876.34zm4.99-1.697v11.074h-2.303v-11.074h2.303zm3.845 0v11.074h-2.304v-11.074h2.304zm4.803 11.074v-11.074h4.369c.84 0 1.556.16 2.147.481a3.26 3.26 0 0 1 1.352 1.325c.313.562.47 1.211.47 1.946s-.159 1.384-.476 1.947-.777 1-1.379 1.314-1.323.47-2.173.47h-2.785v-1.876h2.406c.451 0 .822-.078 1.114-.233s.515-.376.66-.654.221-.604.221-.968-.074-.688-.221-.962-.364-.492-.66-.644-.67-.232-1.125-.232h-1.579v9.16h-2.341zm11.656.156c-.53 0-1.002-.092-1.416-.275a2.29 2.29 0 0 1-.985-.828c-.237-.367-.356-.825-.356-1.373 0-.462.084-.849.254-1.163a2.06 2.06 0 0 1 .692-.757 3.34 3.34 0 0 1 .995-.432 7.55 7.55 0 0 1 1.179-.206l1.168-.14c.295-.047.51-.116.643-.206a.45.45 0 0 0 .2-.4v-.032c0-.343-.108-.608-.324-.795s-.516-.281-.909-.281c-.414 0-.744.092-.989.275s-.408.408-.487.682l-2.13-.173c.108-.505.32-.941.638-1.309s.726-.656 1.227-.854 1.089-.303 1.752-.303c.461 0 .903.054 1.325.162s.802.276 1.13.503a2.44 2.44 0 0 1 .784.876c.191.353.286.777.286 1.271v5.602h-2.184v-1.152h-.065c-.133.259-.312.488-.535.687s-.492.347-.806.459-.676.162-1.087.162zm.66-1.589c.339 0 .638-.067.898-.2s.463-.321.611-.552a1.43 1.43 0 0 0 .221-.784v-.881c-.072.047-.171.09-.297.129l-.416.103-.466.081-.421.06a2.8 2.8 0 0 0-.709.189c-.201.087-.358.204-.47.351s-.168.325-.168.541c0 .314.114.554.341.719s.523.244.876.244zm6.625 4.547c-.292 0-.566-.023-.822-.07s-.462-.099-.627-.168l.519-1.719c.27.083.513.128.73.135a.92.92 0 0 0 .567-.152c.163-.108.294-.291.395-.551l.135-.352-2.979-8.543h2.422l1.72 6.099h.086l1.736-6.099h2.439l-3.228 9.203c-.155.447-.366.836-.633 1.168s-.597.593-1 .773-.891.276-1.46.276z" class="E"/></g><g filter="url(#D)"><use href="#F" transform="translate(54.818 430.732)" class="D"/><path d="M103.743 496.141h-2.369c-.043-.306-.131-.579-.264-.817a2.09 2.09 0 0 0-.514-.616 2.27 2.27 0 0 0-.725-.389c-.27-.09-.564-.135-.881-.135-.573 0-1.072.142-1.498.427s-.755.692-.989 1.233-.352 1.189-.352 1.957c0 .789.117 1.453.352 1.99s.57.942.995 1.216.917.411 1.476.411c.314 0 .604-.041.871-.124s.51-.204.719-.362c.209-.163.383-.359.519-.59.141-.23.238-.494.292-.789l2.369.011a4.28 4.28 0 0 1-.46 1.47c-.241.469-.568.889-.978 1.26s-.894.66-1.46.876-1.199.319-1.909.319c-.988 0-1.871-.223-2.65-.67s-1.388-1.094-1.838-1.941-.671-1.873-.671-3.077.227-2.235.681-3.082 1.071-1.493 1.849-1.936 1.655-.67 2.628-.67c.642 0 1.236.09 1.784.27s1.04.443 1.466.789a4.08 4.08 0 0 1 1.038 1.26c.27.498.443 1.067.519 1.709zm1.331 7.197v-8.306h2.233v1.45h.087c.151-.516.405-.905.762-1.168s.768-.401 1.233-.401a3.6 3.6 0 0 1 .373.022 2.57 2.57 0 0 1 .351.06v2.044c-.108-.033-.257-.062-.448-.087s-.366-.038-.525-.038a1.84 1.84 0 0 0-.908.222c-.263.144-.472.346-.627.605s-.228.559-.228.898v4.699h-2.303zm9.324.162c-.854 0-1.589-.173-2.206-.519a3.56 3.56 0 0 1-1.417-1.482c-.331-.641-.497-1.4-.497-2.276 0-.854.166-1.604.497-2.249s.799-1.149 1.401-1.509 1.316-.541 2.13-.541c.548 0 1.058.089 1.531.265s.89.435 1.243.784.635.79.833 1.32.297 1.142.297 1.849v.633h-7.013v-1.428h4.845c0-.332-.072-.625-.216-.881s-.344-.456-.6-.601-.547-.221-.882-.221c-.349 0-.659.081-.93.243a1.7 1.7 0 0 0-.627.644c-.151.266-.229.564-.233.892v1.357c0 .411.076.766.228 1.065a1.66 1.66 0 0 0 .654.692c.281.163.614.244 1 .244.256 0 .49-.036.703-.109s.395-.18.546-.324a1.4 1.4 0 0 0 .346-.53l2.131.141a2.91 2.91 0 0 1-.665 1.341c-.332.378-.761.674-1.287.886s-1.127.314-1.812.314zm8.072-.027c-.631 0-1.203-.162-1.715-.487s-.912-.809-1.211-1.443-.443-1.421-.443-2.347c0-.952.153-1.743.459-2.374s.714-1.108 1.222-1.422 1.073-.476 1.682-.476c.465 0 .853.08 1.163.238s.566.35.757.584.342.458.443.681h.07v-4.163h2.298v11.074h-2.271v-1.33h-.097c-.108.23-.261.459-.46.686s-.448.41-.762.557-.688.222-1.135.222zm.729-1.833a1.47 1.47 0 0 0 .941-.303c.26-.205.458-.492.595-.86s.211-.798.211-1.292-.068-.923-.205-1.287-.336-.645-.595-.843a1.51 1.51 0 0 0-.947-.298c-.378 0-.697.103-.957.309s-.456.49-.589.854-.2.786-.2 1.265.067.91.2 1.282.333.656.589.865.579.308.957.308zm5.586 1.698v-8.306h2.303v8.306h-2.303zm1.157-9.376a1.25 1.25 0 0 1-.881-.341c-.242-.231-.363-.506-.363-.827a1.08 1.08 0 0 1 .363-.817 1.24 1.24 0 0 1 .881-.346c.342 0 .634.116.876.346s.368.5.368.817-.123.596-.368.827-.534.341-.876.341zm7.105 1.07v1.731h-5.002v-1.731h5.002zm-3.867-1.989h2.304v7.743c0 .212.032.378.097.497a.53.53 0 0 0 .271.243c.119.047.256.071.411.071a1.97 1.97 0 0 0 .324-.027l.249-.049.362 1.714a6.5 6.5 0 0 1-.487.125 3.88 3.88 0 0 1-.762.091c-.555.022-1.042-.052-1.46-.221a2.04 2.04 0 0 1-.968-.79c-.231-.357-.344-.807-.341-1.352v-8.045zm18.096 3.098h-2.368c-.043-.306-.132-.579-.265-.817s-.305-.447-.514-.616a2.26 2.26 0 0 0-.724-.389c-.271-.09-.565-.135-.882-.135-.573 0-1.072.142-1.498.427s-.755.692-.989 1.233-.352 1.189-.352 1.957c0 .789.118 1.453.352 1.99s.57.942.995 1.216.917.411 1.476.411a2.92 2.92 0 0 0 .871-.124c.27-.083.51-.204.719-.362a2.1 2.1 0 0 0 .519-.59c.14-.23.238-.494.292-.789l2.368.011c-.061.508-.214.998-.459 1.47a4.42 4.42 0 0 1-.979 1.26c-.407.368-.894.66-1.46.876s-1.199.319-1.909.319c-.988 0-1.871-.223-2.649-.67s-1.388-1.094-1.839-1.941-.67-1.873-.67-3.077.227-2.235.681-3.082 1.071-1.493 1.849-1.936 1.655-.67 2.628-.67c.642 0 1.237.09 1.785.27a4.52 4.52 0 0 1 1.465.789 4.08 4.08 0 0 1 1.038 1.26c.27.498.444 1.067.519 1.709zm3.7 7.354c-.53 0-1.002-.092-1.417-.276s-.743-.463-.984-.827-.357-.826-.357-1.374c0-.461.085-.849.254-1.162a2.06 2.06 0 0 1 .692-.757c.292-.191.624-.336.995-.433a7.55 7.55 0 0 1 1.179-.205l1.168-.141c.296-.047.51-.115.643-.205s.2-.224.2-.401v-.032c0-.342-.108-.607-.324-.795s-.515-.281-.908-.281c-.415 0-.745.092-.99.276a1.27 1.27 0 0 0-.487.681l-2.13-.173c.108-.505.321-.941.638-1.309s.726-.656 1.228-.854 1.088-.303 1.751-.303c.462 0 .903.054 1.325.163s.802.275 1.13.502a2.44 2.44 0 0 1 .784.876c.191.354.287.777.287 1.271v5.602h-2.185v-1.152h-.064a2.34 2.34 0 0 1-.536.687c-.223.195-.492.348-.805.459s-.676.163-1.087.163zm.659-1.59c.339 0 .638-.067.898-.2s.463-.321.611-.552a1.42 1.42 0 0 0 .222-.784v-.881a1.25 1.25 0 0 1-.298.13l-.416.102-.465.082-.422.059a2.89 2.89 0 0 0-.708.189c-.202.087-.359.204-.471.352a.86.86 0 0 0-.167.541c0 .313.113.553.34.719s.523.243.876.243zm5.5 1.433v-8.306h2.234v1.45h.086c.152-.516.406-.905.763-1.168a2 2 0 0 1 1.232-.401 3.62 3.62 0 0 1 .374.022c.133.015.25.034.351.06v2.044c-.108-.033-.258-.062-.449-.087s-.366-.038-.524-.038c-.339 0-.642.074-.909.222s-.472.346-.627.605-.227.559-.227.898v4.699h-2.304zm8.6.135a3.13 3.13 0 0 1-1.714-.487c-.508-.328-.912-.809-1.211-1.443s-.443-1.421-.443-2.347c0-.952.153-1.743.459-2.374s.714-1.108 1.222-1.422 1.073-.476 1.682-.476c.465 0 .852.08 1.162.238s.566.35.757.584.343.458.444.681h.07v-4.163h2.298v11.074h-2.271v-1.33h-.097c-.108.23-.262.459-.46.686s-.449.41-.762.557-.689.222-1.136.222zm.73-1.833a1.47 1.47 0 0 0 .941-.303c.26-.205.458-.492.595-.86s.211-.798.211-1.292-.069-.923-.206-1.287-.335-.645-.595-.843-.574-.298-.946-.298c-.378 0-.697.103-.957.309s-.456.49-.589.854-.2.786-.2 1.265.066.91.2 1.282.333.656.589.865.579.308.957.308zm-83.002 13.624h2.887l3.05 7.44h.13l3.05-7.44h2.887v11.074h-2.271v-7.208h-.092l-2.866 7.154h-1.546l-2.866-7.181h-.092v7.235h-2.271v-11.074zm15.953 11.231c-.529 0-1.002-.092-1.416-.276s-.743-.463-.984-.827-.357-.826-.357-1.374c0-.461.085-.849.254-1.162a2.05 2.05 0 0 1 .692-.757c.292-.191.624-.336.995-.433a7.55 7.55 0 0 1 1.179-.205l1.168-.141c.295-.047.51-.115.643-.205s.2-.224.2-.401v-.032c0-.342-.108-.607-.324-.795s-.516-.281-.909-.281c-.414 0-.744.092-.989.276a1.27 1.27 0 0 0-.487.681l-2.13-.173c.108-.505.321-.941.638-1.309s.726-.656 1.227-.854 1.089-.303 1.752-.303c.462 0 .903.054 1.325.163s.802.275 1.13.502a2.44 2.44 0 0 1 .784.876c.191.354.287.777.287 1.271v5.602h-2.185v-1.152h-.065c-.133.26-.312.489-.535.687a2.46 2.46 0 0 1-.806.459c-.313.109-.676.163-1.087.163zm.66-1.59c.339 0 .638-.067.898-.2s.463-.321.611-.552.221-.492.221-.784v-.881a1.24 1.24 0 0 1-.297.13l-.416.102-.465.082-.422.059a2.88 2.88 0 0 0-.708.189c-.202.087-.359.204-.471.352s-.167.324-.167.541c0 .313.113.553.34.719s.523.243.876.243zm7.804-3.369v4.802h-2.304v-8.306h2.196v1.466h.097a2.32 2.32 0 0 1 .925-1.147c.432-.284.957-.427 1.573-.427.577 0 1.08.126 1.509.379s.762.613 1 1.081.357 1.02.357 1.666v5.288h-2.304v-4.877c.004-.509-.126-.905-.389-1.19s-.625-.433-1.087-.433c-.31 0-.584.067-.822.201s-.418.328-.551.583-.197.557-.2.914zm9.232 4.959c-.53 0-1.002-.092-1.417-.276a2.29 2.29 0 0 1-.984-.827c-.238-.368-.357-.826-.357-1.374 0-.461.085-.849.255-1.162a2.05 2.05 0 0 1 .692-.757c.292-.191.623-.336.995-.433s.767-.166 1.178-.205l1.168-.141c.296-.047.51-.115.644-.205s.2-.224.2-.401v-.032c0-.342-.108-.607-.325-.795s-.515-.281-.908-.281c-.415 0-.744.092-.989.276a1.26 1.26 0 0 0-.487.681l-2.131-.173c.109-.505.321-.941.638-1.309a3.07 3.07 0 0 1 1.228-.854c.505-.202 1.089-.303 1.752-.303a5.28 5.28 0 0 1 1.325.163c.425.108.802.275 1.13.502s.593.519.784.876.286.777.286 1.271v5.602h-2.184v-1.152h-.065c-.133.26-.312.489-.535.687a2.46 2.46 0 0 1-.806.459c-.314.109-.676.163-1.087.163zm.66-1.59c.339 0 .638-.067.897-.2a1.58 1.58 0 0 0 .611-.552 1.42 1.42 0 0 0 .222-.784v-.881a1.24 1.24 0 0 1-.297.13l-.417.102-.465.082-.421.059c-.271.04-.507.103-.709.189s-.358.204-.47.352-.168.324-.168.541c0 .313.114.553.341.719s.523.243.876.243zm9.242 4.72c-.747 0-1.386-.102-1.92-.308s-.952-.477-1.265-.827-.517-.743-.611-1.179l2.13-.286a1.42 1.42 0 0 0 .308.465c.141.144.327.259.557.346.235.09.519.135.855.135.501 0 .914-.123 1.238-.368s.492-.647.492-1.216v-1.52h-.097c-.101.231-.253.449-.454.654s-.462.374-.779.503-.696.195-1.136.195c-.623 0-1.191-.144-1.703-.433s-.914-.737-1.217-1.335-.448-1.363-.448-2.282c0-.941.153-1.727.459-2.358s.714-1.103 1.222-1.416 1.073-.471 1.682-.471c.465 0 .854.08 1.168.238s.566.35.757.584a3.14 3.14 0 0 1 .449.681h.086v-1.395h2.287v8.387c0 .707-.173 1.298-.519 1.774s-.825.832-1.438 1.07-1.31.362-2.103.362zm.048-5.136c.372 0 .685-.092.941-.276a1.75 1.75 0 0 0 .595-.8c.141-.35.211-.768.211-1.255s-.069-.908-.206-1.265-.335-.64-.594-.838a1.51 1.51 0 0 0-.947-.298c-.378 0-.697.103-.957.309s-.456.483-.589.843-.2.777-.2 1.249c0 .48.067.894.2 1.244a1.8 1.8 0 0 0 .589.805c.26.188.579.282.957.282zm9.326 2.011c-.854 0-1.59-.173-2.206-.519a3.56 3.56 0 0 1-1.417-1.482c-.331-.641-.497-1.4-.497-2.276 0-.854.166-1.604.497-2.249s.799-1.149 1.401-1.509 1.315-.541 2.13-.541c.548 0 1.058.089 1.53.265a3.4 3.4 0 0 1 1.244.784c.357.35.634.79.833 1.32s.297 1.142.297 1.849v.633h-7.013v-1.428h4.845c0-.332-.072-.625-.216-.881s-.345-.456-.601-.601-.546-.221-.881-.221c-.35 0-.66.081-.93.243a1.7 1.7 0 0 0-.627.644c-.152.266-.229.564-.233.892v1.357c0 .411.076.766.227 1.065s.373.53.655.692.614.244 1 .244c.256 0 .49-.036.703-.109a1.46 1.46 0 0 0 .546-.324 1.41 1.41 0 0 0 .346-.53l2.13.141a2.9 2.9 0 0 1-.665 1.341c-.331.378-.76.674-1.287.886s-1.126.314-1.811.314zm5.011-.162v-8.306h2.195v1.466h.097c.173-.487.462-.871.866-1.152s.886-.422 1.449-.422c.569 0 1.054.143 1.454.427s.667.664.8 1.147h.087a2.21 2.21 0 0 1 .919-1.141c.447-.289.975-.433 1.585-.433.775 0 1.404.247 1.887.741s.73 1.186.73 2.087v5.586h-2.298v-5.132c0-.461-.123-.807-.368-1.038s-.552-.346-.919-.346c-.419 0-.745.134-.979.4s-.352.611-.352 1.044v5.072h-2.233v-5.18c0-.408-.117-.732-.351-.973s-.535-.363-.914-.363c-.256 0-.487.065-.692.195s-.362.304-.481.535-.179.494-.179.8v4.986h-2.303zm17.369.162c-.855 0-1.59-.173-2.206-.519s-1.086-.844-1.417-1.482-.498-1.4-.498-2.276c0-.854.166-1.604.498-2.249s.798-1.149 1.4-1.509 1.316-.541 2.131-.541c.548 0 1.058.089 1.53.265a3.41 3.41 0 0 1 1.244.784c.356.35.634.79.832 1.32s.298 1.142.298 1.849v.633h-7.013v-1.428h4.844c0-.332-.072-.625-.216-.881s-.344-.456-.6-.601-.546-.221-.881-.221c-.35 0-.66.081-.93.243a1.71 1.71 0 0 0-.628.644 1.81 1.81 0 0 0-.232.892v1.357c0 .411.075.766.227 1.065a1.66 1.66 0 0 0 .654.692 1.96 1.96 0 0 0 1 .244 2.15 2.15 0 0 0 .703-.109c.213-.072.395-.18.547-.324s.266-.321.346-.53l2.13.141a2.91 2.91 0 0 1-.665 1.341c-.332.378-.761.674-1.287.886s-1.126.314-1.811.314zm7.314-4.964v4.802h-2.304v-8.306h2.196v1.466h.097a2.32 2.32 0 0 1 .925-1.147c.432-.284.957-.427 1.573-.427.577 0 1.08.126 1.509.379s.762.613 1 1.081.357 1.02.357 1.666v5.288h-2.303v-4.877c.003-.509-.127-.905-.39-1.19s-.625-.433-1.087-.433c-.31 0-.584.067-.822.201s-.418.328-.551.583-.197.557-.2.914zm11.282-3.504v1.731h-5.002v-1.731h5.002zm-3.867-1.989h2.304v7.743c0 .212.032.378.097.497a.53.53 0 0 0 .271.243c.119.047.256.071.411.071a1.97 1.97 0 0 0 .324-.027l.249-.049.362 1.714a6.5 6.5 0 0 1-.487.125 3.88 3.88 0 0 1-.762.091c-.555.022-1.042-.052-1.46-.221a2.04 2.04 0 0 1-.968-.79c-.231-.357-.344-.807-.341-1.352v-8.045z" class="E"/></g></g></g><defs><filter id="A" x="0" y=".482" width="266.66" height="612.115" filterUnits="userSpaceOnUse" class="B"><feFlood result="A" class="C"/><feColorMatrix in="SourceAlpha" values="0 0 0 0 0 0 0 0 0 0 0 0 0 0 0 0 0 0 127 0" result="B"/><feOffset/><feGaussianBlur stdDeviation="1"/><feComposite in2="B" operator="out"/><feColorMatrix values="0 0 0 0 0 0 0 0 0 0 0 0 0 0 0 0 0 0 0.25 0"/><feBlend in2="A"/><feBlend in="SourceGraphic"/></filter><filter id="B" x="51.01" y="71.002" width="164.639" height="164.639" filterUnits="userSpaceOnUse" class="B"><feFlood result="A" class="C"/><feColorMatrix in="SourceAlpha" values="0 0 0 0 0 0 0 0 0 0 0 0 0 0 0 0 0 0 127 0" result="B"/><feOffset dy="3.80667"/><feGaussianBlur stdDeviation="1.903"/><feComposite in2="B" operator="out"/><feColorMatrix values="0 0 0 0 0 0 0 0 0 0 0 0 0 0 0 0 0 0 0.25 0"/><feBlend in2="A"/><feBlend in="SourceGraphic"/></filter><filter id="C" x="51.012" y="250.867" width="164.639" height="164.639" filterUnits="userSpaceOnUse" class="B"><feFlood result="A" class="C"/><feColorMatrix in="SourceAlpha" values="0 0 0 0 0 0 0 0 0 0 0 0 0 0 0 0 0 0 127 0" result="B"/><feOffset dy="3.80667"/><feGaussianBlur stdDeviation="1.903"/><feComposite in2="B" operator="out"/><feColorMatrix values="0 0 0 0 0 0 0 0 0 0 0 0 0 0 0 0 0 0 0.25 0"/><feBlend in2="A"/><feBlend in="SourceGraphic"/></filter><filter id="D" x="51.012" y="430.732" width="164.639" height="164.639" filterUnits="userSpaceOnUse" class="B"><feFlood result="A" class="C"/><feColorMatrix in="SourceAlpha" values="0 0 0 0 0 0 0 0 0 0 0 0 0 0 0 0 0 0 127 0" result="B"/><feOffset dy="3.80667"/><feGaussianBlur stdDeviation="1.903"/><feComposite in2="B" operator="out"/><feColorMatrix values="0 0 0 0 0 0 0 0 0 0 0 0 0 0 0 0 0 0 0.25 0"/><feBlend in2="A"/><feBlend in="SourceGraphic"/></filter><clipPath id="E"><rect x="2" y="2.482" width="262.66" height="608.115" rx="10" fill="#fff"/></clipPath><path id="F" d="M0 0h157.025v157.025H0z"/></defs></svg>