<svg xmlns="http://www.w3.org/2000/svg" width="267" height="433" fill="none" xmlns:v="https://vecta.io/nano"><style><![CDATA[.B{color-interpolation-filters:sRGB}.C{flood-opacity:0}]]></style><g filter="url(#A)"><g clip-path="url(#D)"><rect x="2.113" y="2.482" width="262.66" height="428.25" rx="10" fill="#fff"/><path opacity=".85" d="M58.576 39.436V26.977h8.504v2.445h-5.493v2.555h4.952v2.452h-4.952v5.006h-3.011zm9.832 0v-9.344h2.975v9.344h-2.975zm1.49-10.432c-.418 0-.777-.138-1.077-.414a1.33 1.33 0 0 1-.45-1.01c0-.389.15-.722.45-.998s.659-.42 1.077-.42a1.51 1.51 0 0 1 1.077.42c.3.276.45.608.45.998a1.33 1.33 0 0 1-.45 1.01c-.296.276-.655.414-1.077.414zm6.164 5.104v5.329h-2.975v-9.344h2.829v1.715h.103c.207-.572.56-1.02 1.058-1.344s1.093-.493 1.782-.493c.657 0 1.227.148 1.709.444s.864.702 1.132 1.229.406 1.135.401 1.837v5.955h-2.975v-5.371c.004-.519-.128-.925-.395-1.217s-.631-.438-1.101-.438c-.312 0-.588.069-.827.207a1.37 1.37 0 0 0-.547.578c-.126.251-.191.556-.195.913zm10.328 5.487c-.596 0-1.125-.099-1.588-.298s-.821-.507-1.089-.912-.395-.923-.395-1.539c0-.519.091-.957.274-1.314a2.34 2.34 0 0 1 .754-.87 3.55 3.55 0 0 1 1.107-.505c.418-.118.864-.197 1.338-.237l1.284-.152c.324-.057.56-.136.706-.237a.51.51 0 0 0 .225-.444v-.03c0-.312-.108-.554-.322-.724s-.505-.255-.87-.255c-.393 0-.71.085-.949.255s-.391.405-.456.706l-2.743-.097c.081-.568.29-1.075.627-1.521s.807-.803 1.399-1.058 1.312-.389 2.147-.389a6.05 6.05 0 0 1 1.648.213c.503.138.941.341 1.314.608a2.75 2.75 0 0 1 .864.973c.207.385.31.825.31 1.32v6.351h-2.798v-1.302h-.073c-.166.316-.379.584-.639.803s-.558.383-.906.493-.734.164-1.168.164zm.919-1.947a1.88 1.88 0 0 0 .864-.195c.26-.13.466-.308.621-.535s.231-.499.231-.803v-.888c-.085.045-.189.085-.31.122l-.389.103-.438.085-.432.067c-.28.045-.519.114-.718.207s-.345.215-.45.365-.152.32-.152.523c0 .308.11.543.328.706s.505.243.846.243zm9.271-3.54v5.329h-2.975v-9.344h2.829v1.715h.103a2.62 2.62 0 0 1 1.058-1.344c.499-.329 1.093-.493 1.782-.493.657 0 1.226.148 1.709.444s.864.702 1.132 1.229.405 1.135.401 1.837v5.955h-2.975v-5.371c.004-.519-.128-.925-.395-1.217s-.631-.438-1.101-.438c-.312 0-.588.069-.827.207a1.37 1.37 0 0 0-.547.578c-.126.251-.191.556-.195.913zm12.056 5.505c-.986 0-1.831-.203-2.537-.608-.701-.405-1.241-.969-1.618-1.691s-.566-1.565-.566-2.518.189-1.797.566-2.518.923-1.292 1.624-1.697c.706-.406 1.547-.608 2.525-.608.864 0 1.616.156 2.257.468s1.147.754 1.508 1.326.558 1.235.578 2.001h-2.78c-.057-.479-.219-.854-.487-1.125s-.608-.408-1.034-.408c-.344 0-.647.097-.906.292s-.462.474-.608.852-.213.835-.213 1.387.071 1.018.213 1.399.348.663.608.858a1.49 1.49 0 0 0 .906.286c.276 0 .519-.059.73-.176s.392-.29.529-.517.226-.511.262-.84h2.78c-.028.77-.221 1.444-.578 2.02s-.849 1.024-1.49 1.344-1.393.474-2.269.474zm5.671-.177v-9.344h2.975v9.344h-2.975zm1.49-10.432c-.417 0-.776-.138-1.076-.414s-.451-.616-.451-1.01.15-.722.451-.998.659-.42 1.076-.42a1.51 1.51 0 0 1 1.077.42c.3.276.45.608.45.998a1.33 1.33 0 0 1-.45 1.01c-.296.276-.655.414-1.077.414zm5.823 10.591c-.596 0-1.125-.099-1.587-.298s-.821-.507-1.089-.912-.396-.923-.396-1.539c0-.519.092-.957.274-1.314a2.34 2.34 0 0 1 .755-.87c.32-.223.689-.391 1.107-.505s.863-.197 1.338-.237l1.283-.152c.325-.057.56-.136.706-.237a.51.51 0 0 0 .225-.444v-.03c0-.312-.107-.554-.322-.724s-.505-.255-.87-.255c-.393 0-.71.085-.949.255s-.391.405-.456.706l-2.744-.097a3.24 3.24 0 0 1 .627-1.521c.34-.45.807-.803 1.399-1.058s1.312-.389 2.147-.389c.596 0 1.146.071 1.649.213a4.08 4.08 0 0 1 1.314.608c.373.264.661.588.864.973s.31.825.31 1.32v6.351h-2.798v-1.302h-.073a2.67 2.67 0 0 1-.639.803 2.55 2.55 0 0 1-.907.493c-.344.11-.734.164-1.168.164zm.919-1.947c.32 0 .608-.065.864-.195a1.6 1.6 0 0 0 .62-.535c.154-.231.231-.499.231-.803v-.888c-.085.045-.188.085-.31.122l-.389.103-.438.085-.432.067a2.69 2.69 0 0 0-.718.207c-.194.093-.345.215-.45.365s-.152.32-.152.523c0 .308.109.543.328.706.224.162.505.243.846.243zm9.271-10.67v12.458h-2.975V26.977h2.975zm5.197 12.458V26.977h5.146c.933 0 1.738.183 2.415.547s1.206.866 1.575 1.515.554 1.395.554 2.251-.189 1.612-.566 2.257a3.79 3.79 0 0 1-1.6 1.49c-.693.353-1.516.529-2.469.529h-3.176v-2.372h2.616c.454 0 .833-.079 1.138-.237s.541-.379.699-.663.237-.622.237-1.004-.079-.718-.237-.998a1.59 1.59 0 0 0-.699-.657c-.309-.154-.688-.231-1.138-.231h-1.484v10.031h-3.011zm13.96-12.458v12.458h-2.974V26.977h2.974zm4.339 12.616c-.596 0-1.125-.099-1.587-.298s-.822-.507-1.089-.912-.396-.923-.396-1.539c0-.519.092-.957.274-1.314s.434-.647.754-.87a3.56 3.56 0 0 1 1.108-.505c.417-.118.863-.197 1.338-.237l1.283-.152c.325-.057.56-.136.706-.237a.51.51 0 0 0 .225-.444v-.03c0-.312-.107-.554-.322-.724s-.505-.255-.87-.255c-.394 0-.71.085-.949.255s-.392.405-.456.706l-2.744-.097a3.24 3.24 0 0 1 .627-1.521c.34-.45.807-.803 1.399-1.058s1.312-.389 2.147-.389c.596 0 1.146.071 1.649.213a4.09 4.09 0 0 1 1.314.608 2.74 2.74 0 0 1 .863.973c.207.385.311.825.311 1.32v6.351h-2.799v-1.302h-.073c-.166.316-.379.584-.638.803a2.55 2.55 0 0 1-.907.493c-.344.11-.734.164-1.168.164zm.919-1.947c.32 0 .608-.065.864-.195a1.6 1.6 0 0 0 .62-.535c.154-.231.231-.499.231-.803v-.888c-.085.045-.188.085-.31.122l-.389.103-.438.085-.432.067a2.69 2.69 0 0 0-.718.207c-.195.093-.345.215-.45.365s-.152.32-.152.523c0 .308.109.543.328.706s.505.243.846.243zm9.271-3.54v5.329h-2.975v-9.344h2.829v1.715h.103c.207-.572.56-1.02 1.059-1.344s1.092-.493 1.782-.493c.657 0 1.227.148 1.709.444s.864.702 1.132 1.229.405 1.135.401 1.837v5.955h-2.974v-5.371c.004-.519-.128-.925-.396-1.217s-.63-.438-1.101-.438c-.312 0-.588.069-.827.207s-.418.327-.548.578-.19.556-.194.913zm10.668 0v5.329h-2.975v-9.344h2.829v1.715h.103c.207-.572.56-1.02 1.059-1.344s1.093-.493 1.782-.493c.657 0 1.227.148 1.71.444s.863.702 1.131 1.229.406 1.135.402 1.837v5.955h-2.975v-5.371c.004-.519-.128-.925-.395-1.217s-.631-.438-1.102-.438c-.312 0-.588.069-.827.207s-.418.327-.547.578-.191.556-.195.913zm7.694 5.329v-9.344h2.974v9.344h-2.974zm1.49-10.432c-.418 0-.776-.138-1.077-.414a1.33 1.33 0 0 1-.45-1.01c0-.389.15-.722.45-.998s.659-.42 1.077-.42a1.51 1.51 0 0 1 1.077.42c.3.276.45.608.45.998a1.33 1.33 0 0 1-.45 1.01c-.296.276-.655.414-1.077.414zm6.164 5.104v5.329h-2.975v-9.344h2.829v1.715h.103c.207-.572.56-1.02 1.059-1.344s1.093-.493 1.782-.493c.657 0 1.227.148 1.71.444s.863.702 1.131 1.229.406 1.135.402 1.837v5.955h-2.975v-5.371c.004-.519-.128-.925-.396-1.217s-.63-.438-1.101-.438c-.312 0-.588.069-.827.207s-.418.327-.547.578-.191.556-.195.913zm12.049 9.027c-.888 0-1.648-.124-2.281-.371s-1.129-.586-1.49-1.016a2.81 2.81 0 0 1-.651-1.46l2.816-.158c.053.191.15.357.292.499a1.46 1.46 0 0 0 .566.328 2.66 2.66 0 0 0 .827.116c.499 0 .911-.122 1.235-.365.329-.239.493-.659.493-1.259v-1.642h-.103c-.118.288-.297.545-.536.773s-.537.406-.894.535-.758.195-1.217.195c-.681 0-1.305-.158-1.873-.474s-1.016-.815-1.357-1.484-.505-1.539-.505-2.597c0-1.091.175-1.989.523-2.695s.805-1.235 1.369-1.576a3.5 3.5 0 0 1 1.831-.511c.491 0 .911.085 1.259.256s.643.381.87.645.4.537.517.821h.085v-1.6h2.963v9.38c0 .791-.199 1.458-.596 2.001s-.953.955-1.667 1.235-1.539.426-2.476.426zm.091-5.992c.361 0 .67-.095.925-.286s.452-.464.59-.821.207-.785.207-1.283c0-.507-.069-.943-.207-1.308s-.33-.653-.59-.852a1.46 1.46 0 0 0-.925-.298c-.369 0-.681.101-.936.304s-.45.489-.584.858-.195.797-.195 1.296.067.927.201 1.283.326.631.578.821.567.286.936.286z" fill="#121212"/><g filter="url(#B)"><path transform="translate(54.93 71.002)" fill="#ffd966" d="M0 0h157.025v157.025H0z"/><path d="M76.471 147.138c-.043-.436-.229-.775-.557-1.016s-.773-.363-1.336-.363c-.382 0-.705.054-.968.163s-.465.25-.606.438-.205.4-.205.638c-.007.198.034.371.124.519s.222.276.384.384.35.196.562.275a5.76 5.76 0 0 0 .681.195l.995.238c.483.108.926.252 1.33.433a4.04 4.04 0 0 1 1.049.665 2.76 2.76 0 0 1 .687.93c.166.357.251.766.254 1.227-.004.678-.177 1.265-.519 1.763s-.829.878-1.471 1.152-1.408.405-2.309.405c-.894 0-1.673-.137-2.336-.411s-1.175-.679-1.547-1.216-.56-1.21-.578-2.006h2.266c.025.371.132.681.319.93s.445.43.762.556.683.184 1.087.184c.397 0 .741-.057 1.033-.173s.525-.275.687-.481a1.11 1.11 0 0 0 .243-.708c0-.249-.074-.458-.222-.628s-.357-.313-.638-.432-.618-.227-1.022-.325l-1.206-.302c-.934-.227-1.671-.582-2.212-1.066s-.809-1.133-.806-1.952c-.004-.67.175-1.256.535-1.757s.863-.892 1.498-1.173 1.355-.422 2.163-.422c.822 0 1.539.141 2.152.422s1.096.672 1.438 1.173.519 1.082.53 1.741h-2.244zm5.991 8.046c-.53 0-1.002-.092-1.417-.276s-.743-.463-.984-.827-.357-.825-.357-1.373c0-.462.085-.849.254-1.163s.4-.566.692-.757a3.35 3.35 0 0 1 .995-.432c.375-.098.768-.166 1.179-.206l1.168-.141c.296-.046.51-.115.643-.205s.2-.224.2-.4v-.033c0-.342-.108-.607-.324-.794s-.516-.282-.908-.282c-.415 0-.744.092-.99.276s-.407.407-.487.681l-2.13-.173c.108-.504.321-.94.638-1.308s.726-.656 1.227-.854 1.089-.303 1.752-.303a5.32 5.32 0 0 1 1.325.162c.425.108.802.276 1.13.503a2.44 2.44 0 0 1 .784.876c.191.353.287.777.287 1.27v5.602h-2.184v-1.151h-.065c-.133.259-.312.488-.535.686s-.492.348-.806.46-.676.162-1.087.162zm.66-1.59c.339 0 .638-.066.898-.2s.463-.32.611-.551.222-.492.222-.784v-.882c-.072.047-.171.091-.297.13l-.416.103-.465.081-.422.06a2.8 2.8 0 0 0-.708.189c-.202.086-.359.203-.471.351s-.168.325-.168.541c0 .314.114.553.341.719s.523.243.876.243zm12.946-6.872l-2.904 8.305h-2.596l-2.904-8.305h2.433l1.725 5.942h.087l1.72-5.942h2.439zm.874 8.305v-8.305h2.303v8.305h-2.303zm1.157-9.376a1.25 1.25 0 0 1-.881-.34c-.242-.231-.362-.507-.362-.828a1.08 1.08 0 0 1 .362-.816 1.24 1.24 0 0 1 .881-.346 1.22 1.22 0 0 1 .876.346c.245.227.368.499.368.816s-.123.597-.368.828-.533.34-.876.34zm4.991 4.575v4.801h-2.304v-8.305h2.196v1.465h.097a2.32 2.32 0 0 1 .924-1.146c.433-.285.958-.427 1.574-.427.577 0 1.08.126 1.509.378s.762.613 1 1.082.357 1.02.357 1.665v5.288h-2.304v-4.877c.004-.508-.126-.905-.389-1.19s-.625-.432-1.087-.432c-.31 0-.584.067-.822.2a1.39 1.39 0 0 0-.551.584c-.13.252-.197.557-.2.914zm10.606 8.089c-.747 0-1.387-.103-1.92-.308s-.952-.478-1.265-.828-.518-.742-.611-1.178l2.13-.287a1.4 1.4 0 0 0 .308.465c.141.144.327.26.557.346s.519.135.855.135c.501 0 .913-.122 1.238-.367s.492-.647.492-1.217v-1.519h-.097c-.101.23-.253.448-.455.654a2.3 2.3 0 0 1-.778.503c-.318.129-.696.194-1.136.194-.623 0-1.191-.144-1.703-.432s-.914-.737-1.217-1.336-.448-1.362-.448-2.282c0-.94.153-1.726.459-2.357s.714-1.103 1.222-1.417 1.073-.47 1.682-.47c.465 0 .854.079 1.168.238s.566.349.757.584a3.13 3.13 0 0 1 .449.681h.086v-1.395h2.287v8.386c0 .707-.173 1.298-.519 1.774s-.825.833-1.438 1.071-1.31.362-2.103.362zm.048-5.137c.371 0 .685-.092.941-.276s.458-.454.595-.8.211-.768.211-1.254-.069-.909-.206-1.266-.335-.64-.595-.838-.575-.297-.946-.297c-.378 0-.697.103-.957.308a1.85 1.85 0 0 0-.589.844c-.134.36-.2.776-.2 1.249 0 .479.066.894.2 1.243s.333.615.589.806.579.281.957.281zm12.451-4.088l-2.109.13c-.036-.18-.113-.342-.232-.487s-.276-.265-.471-.351-.419-.135-.686-.135c-.357 0-.658.075-.903.227s-.368.346-.368.595c0 .198.079.365.238.502s.431.247.816.33l1.504.303c.807.166 1.409.433 1.806.8s.594.851.594 1.45c0 .544-.16 1.021-.481 1.432s-.753.732-1.308.963-1.188.341-1.909.341c-1.1 0-1.975-.229-2.628-.687s-1.029-1.089-1.141-1.882l2.266-.119c.068.335.234.591.497.768s.6.26 1.011.26c.404 0 .729-.078.974-.233s.375-.362.378-.611c-.003-.209-.092-.38-.265-.514s-.44-.241-.8-.313l-1.438-.287c-.811-.162-1.415-.443-1.812-.843s-.589-.911-.589-1.531c0-.533.144-.993.432-1.378s.702-.684 1.228-.893 1.15-.313 1.86-.313c1.049 0 1.874.221 2.476.665s.959 1.047 1.06 1.811zm14.775.4c0 1.208-.229 2.235-.687 3.082s-1.074 1.495-1.86 1.942-1.662.665-2.639.665c-.984 0-1.867-.224-2.649-.671s-1.401-1.094-1.855-1.941-.681-1.873-.681-3.077.227-2.235.681-3.082 1.072-1.492 1.855-1.936 1.665-.67 2.649-.67c.977 0 1.857.224 2.639.67s1.406 1.089 1.86 1.936.687 1.875.687 3.082zm-2.374 0c0-.782-.117-1.442-.352-1.979-.23-.537-.557-.944-.978-1.222s-.916-.416-1.482-.416-1.06.139-1.481.416-.75.685-.985 1.222-.346 1.197-.346 1.979.116 1.442.346 1.979.563.945.985 1.222.915.417 1.481.417 1.06-.139 1.482-.417.748-.684.978-1.222c.235-.537.352-1.196.352-1.979zm11.503-2.768l-2.903 8.305h-2.596l-2.903-8.305h2.433l1.725 5.942h.086l1.72-5.942h2.438zm4.392 8.468c-.854 0-1.59-.173-2.206-.52a3.55 3.55 0 0 1-1.417-1.481c-.332-.642-.497-1.401-.497-2.277 0-.854.165-1.604.497-2.249s.799-1.148 1.401-1.509 1.315-.54 2.13-.54c.548 0 1.058.088 1.53.265s.891.434 1.244.784.634.789.833 1.319.297 1.143.297 1.849v.633h-7.013v-1.427h4.845c0-.332-.072-.626-.217-.882s-.344-.456-.6-.6-.546-.222-.881-.222c-.35 0-.66.081-.93.244s-.476.373-.627.643-.229.564-.233.892v1.357c0 .411.076.766.227 1.066a1.66 1.66 0 0 0 .654.692c.282.162.615.243 1.001.243.256 0 .49-.036.703-.108s.394-.18.546-.325.267-.32.346-.529l2.13.14a2.91 2.91 0 0 1-.665 1.341c-.331.379-.76.674-1.287.887-.522.209-1.126.314-1.811.314zm5.011-.163v-8.305h2.233v1.449h.086c.152-.515.406-.905.763-1.168s.768-.4 1.233-.4c.115 0 .239.007.373.022s.25.034.351.059v2.044c-.108-.032-.258-.061-.449-.087a4.06 4.06 0 0 0-.524-.037c-.339 0-.642.073-.909.221a1.63 1.63 0 0 0-.627.606 1.75 1.75 0 0 0-.227.897v4.699h-2.303zm13.921-8.305l-2.903 8.305h-2.596l-2.903-8.305h2.433l1.725 5.942h.086l1.72-5.942h2.438zm.875 8.305v-8.305h2.303v8.305h-2.303zm1.157-9.376c-.343 0-.636-.113-.882-.34s-.362-.507-.362-.828.121-.589.362-.816a1.24 1.24 0 0 1 .882-.346 1.22 1.22 0 0 1 .876.346c.245.227.367.499.367.816s-.122.597-.367.828-.534.34-.876.34zm6.472 9.539c-.854 0-1.59-.173-2.206-.52a3.55 3.55 0 0 1-1.417-1.481c-.332-.642-.497-1.401-.497-2.277 0-.854.165-1.604.497-2.249s.799-1.148 1.401-1.509 1.315-.54 2.13-.54c.548 0 1.058.088 1.53.265s.891.434 1.244.784.634.789.833 1.319.297 1.143.297 1.849v.633h-7.013v-1.427h4.845c0-.332-.072-.626-.217-.882s-.344-.456-.6-.6-.546-.222-.881-.222c-.35 0-.66.081-.93.244s-.476.373-.627.643-.229.564-.233.892v1.357c0 .411.076.766.227 1.066a1.66 1.66 0 0 0 .654.692c.282.162.615.243 1.001.243.256 0 .49-.036.703-.108s.394-.18.546-.325.267-.32.346-.529l2.13.14a2.91 2.91 0 0 1-.665 1.341c-.331.379-.76.674-1.287.887-.522.209-1.126.314-1.811.314zm6.59-.163l-2.261-8.305h2.331l1.287 5.58h.075l1.341-5.58h2.288l1.362 5.548h.071l1.265-5.548h2.325l-2.255 8.305h-2.439l-1.427-5.223h-.103l-1.427 5.223h-2.433z" fill="#262a36"/></g><g filter="url(#C)"><path transform="translate(54.932 250.867)" fill="#ffd966" d="M0 0h157.025v157.025H0z"/><path d="M80.957 334.893v-11.074h2.341v9.143h4.748v1.931h-7.089zm12.044.162c-.84 0-1.566-.179-2.179-.536s-1.08-.861-1.411-1.503-.498-1.393-.498-2.244c0-.858.166-1.607.498-2.249a3.62 3.62 0 0 1 1.411-1.503c.613-.361 1.339-.541 2.179-.541s1.565.18 2.174.541a3.61 3.61 0 0 1 1.417 1.503c.332.642.497 1.391.497 2.249 0 .851-.166 1.599-.497 2.244s-.804 1.143-1.417 1.503-1.334.536-2.174.536zm.011-1.785c.382 0 .701-.108.957-.324s.449-.519.579-.898.2-.809.2-1.292-.067-.914-.2-1.292-.323-.678-.579-.898-.575-.33-.957-.33-.71.11-.973.33-.456.519-.589.898a3.97 3.97 0 0 0-.195 1.292 3.97 3.97 0 0 0 .195 1.292c.133.379.33.678.589.898s.588.324.973.324zm7.639 1.779c-.53 0-1.002-.092-1.416-.275s-.743-.464-.984-.828-.357-.825-.357-1.373c0-.462.085-.849.254-1.163a2.06 2.06 0 0 1 .692-.757 3.35 3.35 0 0 1 .995-.432 7.55 7.55 0 0 1 1.178-.206l1.168-.14c.296-.047.51-.116.644-.206a.45.45 0 0 0 .2-.4v-.032c0-.343-.108-.608-.325-.795s-.515-.281-.908-.281c-.414 0-.744.092-.989.275s-.408.408-.487.682l-2.13-.173c.108-.505.321-.941.638-1.309s.726-.656 1.227-.854 1.089-.303 1.752-.303c.461 0 .903.054 1.325.162s.802.276 1.13.503.593.519.784.876.286.777.286 1.271v5.602h-2.184v-1.152h-.065c-.133.259-.312.488-.535.687s-.492.347-.806.459-.676.162-1.087.162zm.66-1.589c.339 0 .638-.067.897-.2a1.58 1.58 0 0 0 .611-.552 1.42 1.42 0 0 0 .222-.784v-.881c-.072.047-.171.09-.297.129l-.417.103-.465.081-.421.06a2.8 2.8 0 0 0-.709.189c-.202.087-.358.204-.47.351s-.168.325-.168.541c0 .314.114.554.341.719s.523.244.876.244zm7.803-3.369v4.802h-2.303v-8.306h2.195v1.465h.098c.183-.483.492-.865.924-1.146s.957-.427 1.574-.427c.576 0 1.079.126 1.508.378s.763.613 1.001 1.082.356 1.02.356 1.665v5.289h-2.303v-4.878c.004-.508-.126-.905-.389-1.189-.263-.289-.626-.433-1.087-.433-.31 0-.584.067-.822.2s-.418.328-.552.584-.196.557-.2.914zm20.304-.735c0 1.207-.229 2.235-.687 3.082s-1.074 1.494-1.86 1.941-1.662.665-2.639.665c-.984 0-1.867-.224-2.649-.671s-1.401-1.094-1.855-1.941-.681-1.872-.681-3.076.227-2.235.681-3.082 1.072-1.493 1.855-1.936 1.665-.671 2.649-.671c.977 0 1.857.224 2.639.671s1.406 1.088 1.86 1.936.687 1.874.687 3.082zm-2.374 0c0-.783-.117-1.442-.352-1.979s-.557-.945-.978-1.222-.916-.417-1.482-.417-1.06.139-1.481.417-.75.684-.985 1.222-.346 1.196-.346 1.979.116 1.442.346 1.979.563.944.985 1.222.915.416 1.481.416 1.06-.139 1.482-.416.748-.685.978-1.222.352-1.197.352-1.979zm11.503-2.769l-2.903 8.306h-2.596l-2.903-8.306h2.433l1.725 5.943h.086l1.72-5.943h2.438zm4.392 8.468c-.854 0-1.59-.173-2.206-.519a3.56 3.56 0 0 1-1.417-1.482c-.332-.642-.497-1.4-.497-2.276 0-.855.165-1.604.497-2.25s.799-1.148 1.401-1.508 1.315-.541 2.13-.541c.548 0 1.058.088 1.53.265s.891.434 1.244.784.634.789.833 1.319.297 1.143.297 1.85v.632h-7.013v-1.427h4.845c0-.332-.072-.626-.217-.882s-.344-.456-.6-.6-.546-.222-.881-.222c-.35 0-.66.082-.93.244s-.476.373-.627.643-.229.564-.233.892v1.358c0 .411.076.766.227 1.065a1.66 1.66 0 0 0 .654.692c.282.162.615.243 1.001.243.256 0 .49-.036.703-.108a1.47 1.47 0 0 0 .546-.324 1.41 1.41 0 0 0 .346-.53l2.13.14a2.9 2.9 0 0 1-.665 1.341c-.331.379-.76.674-1.287.887-.522.209-1.126.314-1.811.314zm5.011-.162v-8.306h2.233v1.449h.086c.152-.515.406-.905.763-1.168a2.01 2.01 0 0 1 1.233-.4c.115 0 .239.007.373.022s.25.034.351.059v2.044a3.05 3.05 0 0 0-.449-.086c-.191-.026-.366-.038-.524-.038-.339 0-.642.074-.909.222s-.472.346-.627.605-.227.559-.227.898v4.699h-2.303zm13.921-8.306l-2.903 8.306h-2.596l-2.903-8.306h2.433l1.725 5.943h.086l1.72-5.943h2.438zm.875 8.306v-8.306h2.303v8.306h-2.303zm1.157-9.377c-.343 0-.636-.113-.882-.34s-.362-.507-.362-.827.121-.59.362-.817a1.24 1.24 0 0 1 .882-.346 1.22 1.22 0 0 1 .876.346c.245.227.368.499.368.817s-.123.596-.368.827-.534.34-.876.34zm6.472 9.539c-.854 0-1.59-.173-2.206-.519a3.56 3.56 0 0 1-1.417-1.482c-.332-.642-.497-1.4-.497-2.276 0-.855.165-1.604.497-2.25s.799-1.148 1.401-1.508 1.315-.541 2.13-.541c.548 0 1.058.088 1.53.265s.891.434 1.244.784.634.789.833 1.319.297 1.143.297 1.85v.632h-7.013v-1.427h4.845c0-.332-.072-.626-.217-.882s-.344-.456-.6-.6-.546-.222-.881-.222c-.35 0-.66.082-.93.244s-.476.373-.627.643-.229.564-.233.892v1.358c0 .411.076.766.227 1.065a1.66 1.66 0 0 0 .654.692c.282.162.615.243 1.001.243.256 0 .49-.036.703-.108a1.47 1.47 0 0 0 .546-.324 1.41 1.41 0 0 0 .346-.53l2.13.14a2.91 2.91 0 0 1-.665 1.341c-.331.379-.76.674-1.287.887s-1.126.314-1.811.314zm6.59-.162l-2.261-8.306h2.331l1.287 5.58h.075l1.341-5.58h2.288l1.362 5.548h.071l1.265-5.548h2.325l-2.255 8.306h-2.438l-1.428-5.224h-.103l-1.427 5.224h-2.433z" fill="#262a36"/></g></g></g><defs><filter id="A" x=".113" y=".482" width="266.66" height="432.25" filterUnits="userSpaceOnUse" class="B"><feFlood result="A" class="C"/><feColorMatrix in="SourceAlpha" values="0 0 0 0 0 0 0 0 0 0 0 0 0 0 0 0 0 0 127 0" result="B"/><feOffset/><feGaussianBlur stdDeviation="1"/><feComposite in2="B" operator="out"/><feColorMatrix values="0 0 0 0 0 0 0 0 0 0 0 0 0 0 0 0 0 0 0.25 0"/><feBlend in2="A"/><feBlend in="SourceGraphic"/></filter><filter id="B" x="51.123" y="71.002" width="164.639" height="164.639" filterUnits="userSpaceOnUse" class="B"><feFlood result="A" class="C"/><feColorMatrix in="SourceAlpha" values="0 0 0 0 0 0 0 0 0 0 0 0 0 0 0 0 0 0 127 0" result="B"/><feOffset dy="3.80667"/><feGaussianBlur stdDeviation="1.903"/><feComposite in2="B" operator="out"/><feColorMatrix values="0 0 0 0 0 0 0 0 0 0 0 0 0 0 0 0 0 0 0.25 0"/><feBlend in2="A"/><feBlend in="SourceGraphic"/></filter><filter id="C" x="51.125" y="250.867" width="164.639" height="164.639" filterUnits="userSpaceOnUse" class="B"><feFlood result="A" class="C"/><feColorMatrix in="SourceAlpha" values="0 0 0 0 0 0 0 0 0 0 0 0 0 0 0 0 0 0 127 0" result="B"/><feOffset dy="3.80667"/><feGaussianBlur stdDeviation="1.903"/><feComposite in2="B" operator="out"/><feColorMatrix values="0 0 0 0 0 0 0 0 0 0 0 0 0 0 0 0 0 0 0.25 0"/><feBlend in2="A"/><feBlend in="SourceGraphic"/></filter><clipPath id="D"><rect x="2.113" y="2.482" width="262.66" height="428.25" rx="10" fill="#fff"/></clipPath></defs></svg>