<svg width="89" height="89" viewBox="0 0 89 89" fill="none" xmlns="http://www.w3.org/2000/svg">
<g clip-path="url(#clip0_2214_2789)">
<path d="M53.3516 25.6073V63.1892C53.3516 67.3976 56.2521 69.7376 59.3305 69.7376C62.1776 69.7376 65.3094 67.7446 65.3094 63.1892V25.8921C65.3094 22.0396 62.4623 19.6284 59.3305 19.6284C56.1987 19.6284 53.3516 22.2887 53.3516 25.6073Z" fill="#F8AB00"/>
<path d="M37.6953 44.6825V63.1888C37.6953 67.3972 40.5958 69.7371 43.6742 69.7371C46.5214 69.7371 49.6532 67.7441 49.6532 63.1888V44.9673C49.6532 41.1148 46.8061 38.7036 43.6742 38.7036C40.5424 38.7036 37.6953 41.3639 37.6953 44.6825Z" fill="#E37300"/>
<path d="M33.993 63.7592C33.993 67.0601 31.315 69.7381 28.0141 69.7381C24.7132 69.7381 22.0352 67.0601 22.0352 63.7592C22.0352 60.4583 24.7132 57.7803 28.0141 57.7803C31.315 57.7803 33.993 60.4583 33.993 63.7592Z" fill="#E37300"/>
</g>
<defs>
<clipPath id="clip0_2214_2789">
<rect width="44" height="50.2857" fill="white" transform="translate(22.0352 19.6294)"/>
</clipPath>
</defs>
</svg>
