<svg width="89" height="89" viewBox="0 0 89 89" fill="none" xmlns="http://www.w3.org/2000/svg">
<path d="M31.2407 19.6289H28.9375V26.5203H31.2408V24.2126H33.3479V26.5203H35.6512V19.6289H33.3478V21.9046H31.2407V19.6289Z" fill="black"/>
<path d="M36.6524 21.9142H38.6802L38.6803 26.5203H40.9837V21.9142H43.0124V19.6289H36.6524V21.9142Z" fill="black"/>
<path d="M44.0218 19.6289H46.4235L47.9009 22.0503L49.3769 19.6289H51.7795V26.5203H49.4856V23.1045L47.9009 25.5548H47.8613L46.2755 23.1045V26.5203H44.0218V19.6289Z" fill="black"/>
<path d="M55.2299 19.6289H52.9258V26.5203H58.4691V24.2424H55.2299V19.6289Z" fill="black"/>
<path fill-rule="evenodd" clip-rule="evenodd" d="M28.8652 65.8108L25.5703 28.855H61.7753L58.4769 65.805L43.6506 69.9153L28.8652 65.8108Z" fill="#E44D26"/>
<path fill-rule="evenodd" clip-rule="evenodd" d="M43.6719 66.7734L55.6522 63.452L58.4709 31.8765H43.6719V66.7734Z" fill="#F16529"/>
<path d="M37.6762 45.5835H43.6739V50.116H33.5311L32.3086 36.4097H43.6739V40.9422H37.262L37.6762 45.5835Z" fill="#EBEBEB"/>
<path d="M43.654 57.3602L43.6739 57.3549V62.0705L43.653 62.0763L34.3686 59.4989L33.7336 52.3823H38.2835L38.6062 55.9971L43.654 57.3602Z" fill="#EBEBEB"/>
<path d="M43.6562 36.4097H55.0102L54.6043 40.9422H43.6562V36.4097Z" fill="white"/>
<path d="M43.6562 50.116V45.5835H54.1919L54.0813 46.8006L52.9481 59.4989L43.6562 62.0741V57.3587L48.7114 55.9942L49.2375 50.116H43.6562Z" fill="white"/>
</svg>
