<svg xmlns="http://www.w3.org/2000/svg" width="1142" height="422" fill="none" xmlns:v="https://vecta.io/nano"><style><![CDATA[.B{fill:#f0f2f5}.C{stroke:#b42b36}.D{stroke-width:4}.E{fill:#393d48}.F{fill:#121212}.G{fill:#b42b36}]]></style><rect x="155.322" y="80.762" width="160.08" height="30.415" rx="12.166" class="B C D"/><path d="M213.793 96.171c0 1.097-.206 2.037-.617 2.819s-.964 1.375-1.67 1.789-1.5.622-2.392.622-1.69-.207-2.396-.622-1.26-1.015-1.671-1.794-.611-1.72-.611-2.814.204-2.035.611-2.814.968-1.38 1.671-1.795 1.505-.621 2.396-.621 1.689.207 2.392.621 1.262 1.013 1.67 1.795.617 1.717.617 2.814zm-1.855 0c0-.772-.121-1.424-.363-1.954s-.57-.936-.994-1.208-.913-.413-1.467-.413-1.042.138-1.466.413-.758.675-1 1.208-.358 1.182-.358 1.954.12 1.425.358 1.959.575.933 1 1.208.913.408 1.466.408 1.043-.136 1.467-.408.756-.678.994-1.208.363-1.186.363-1.959zm10.186-2.545l-2.72 7.637h-1.988l-2.72-7.637h1.919l1.755 5.672h.08l1.76-5.672h1.914zm4.212 7.786c-.766 0-1.427-.159-1.984-.477s-.979-.776-1.277-1.363-.448-1.284-.448-2.083c0-.785.149-1.475.448-2.068s.722-1.061 1.263-1.392 1.174-.502 1.904-.502a3.86 3.86 0 0 1 1.332.229c.421.149.792.381 1.114.696s.58.716.765 1.203.279 1.061.279 1.73v.552h-6.26v-1.213h4.535c-.004-.345-.078-.651-.224-.92a1.63 1.63 0 0 0-.612-.641c-.258-.156-.56-.234-.905-.234-.367 0-.691.09-.969.269s-.495.408-.651.696-.231.598-.234.94v1.059c0 .444.081.825.244 1.143s.389.557.681.726.633.249 1.024.249c.262 0 .499-.037.711-.109a1.58 1.58 0 0 0 .552-.333 1.39 1.39 0 0 0 .353-.542l1.68.189c-.106.444-.308.832-.606 1.164s-.673.583-1.134.765-.988.269-1.581.269zm4.764-.149v-7.637h1.745v1.273h.08c.139-.441.378-.781.716-1.019a1.97 1.97 0 0 1 1.168-.363l.333.015a2.23 2.23 0 0 1 .313.035v1.655c-.076-.026-.197-.05-.363-.07s-.319-.035-.472-.035c-.328 0-.623.071-.885.214s-.462.333-.611.582a1.64 1.64 0 0 0-.224.86v4.49h-1.8zm12.45-7.637l-2.719 7.637h-1.989l-2.719-7.637h1.919l1.755 5.672h.079l1.76-5.672h1.914zm1.092 7.637v-7.637h1.8v7.637h-1.8zm.905-8.721a1.05 1.05 0 0 1-.736-.283.91.91 0 0 1-.308-.691.9.9 0 0 1 .308-.691 1.04 1.04 0 0 1 .736-.288c.288 0 .533.096.735.288a.9.9 0 0 1 .309.691c0 .269-.103.499-.309.691s-.447.283-.735.283zm5.972 8.87c-.766 0-1.427-.159-1.984-.477s-.979-.776-1.277-1.363-.448-1.284-.448-2.083c0-.785.149-1.475.448-2.068s.722-1.061 1.262-1.392 1.175-.502 1.904-.502a3.86 3.86 0 0 1 1.333.229c.421.149.792.381 1.113.696s.58.716.766 1.203.279 1.061.279 1.73v.552h-6.26v-1.213h4.534c-.003-.345-.078-.651-.223-.92a1.63 1.63 0 0 0-.612-.641c-.258-.156-.56-.234-.905-.234a1.75 1.75 0 0 0-.969.269c-.279.176-.496.408-.651.696s-.231.598-.234.94v1.059c0 .444.081.825.244 1.143s.389.557.681.726.633.249 1.024.249c.262 0 .499-.037.711-.109a1.58 1.58 0 0 0 .552-.333 1.4 1.4 0 0 0 .353-.542l1.68.189c-.106.444-.308.832-.607 1.164a2.95 2.95 0 0 1-1.133.765c-.461.179-.988.269-1.581.269zm6.299-.149l-2.158-7.637h1.835l1.342 5.369h.07l1.372-5.369h1.815l1.372 5.339h.074l1.323-5.339h1.839l-2.162 7.637h-1.875l-1.431-5.161h-.105l-1.432 5.161h-1.879z" class="E"/><rect x="155.322" y="132.113" width="160.08" height="30.415" rx="12.166" class="B C D"/><path d="M206.46 152.613h-1.969l3.585-10.182h2.277l3.589 10.182h-1.968l-2.72-8.093h-.079l-2.715 8.093zm.065-3.992h5.369v1.482h-5.369v-1.482zm11.126 4.127c-.6 0-1.137-.155-1.611-.463s-.848-.756-1.123-1.342-.413-1.299-.413-2.138c0-.848.139-1.564.418-2.148s.661-1.029 1.138-1.327 1.01-.453 1.596-.453c.448 0 .816.077 1.104.229s.517.33.686.542.3.406.393.592h.074v-3.809h1.805v10.182h-1.77v-1.203h-.109c-.093.186-.227.383-.403.592s-.408.381-.696.527-.651.219-1.089.219zm.502-1.477c.382 0 .706-.103.975-.308a1.93 1.93 0 0 0 .611-.87c.139-.372.209-.804.209-1.298s-.07-.923-.209-1.288-.338-.648-.606-.85-.592-.303-.98-.303c-.401 0-.735.104-1.004.313s-.471.497-.606.865-.204.789-.204 1.263.068.903.204 1.278.343.664.611.88.605.318.999.318zm8.163 1.477c-.6 0-1.137-.155-1.611-.463s-.849-.756-1.124-1.342-.412-1.299-.412-2.138c0-.848.139-1.564.417-2.148s.661-1.029 1.139-1.327a2.92 2.92 0 0 1 1.596-.453c.447 0 .815.077 1.103.229s.517.33.686.542.3.406.393.592h.075v-3.809h1.804v10.182h-1.77v-1.203h-.109c-.093.186-.227.383-.403.592a2.21 2.21 0 0 1-.696.527c-.288.146-.651.219-1.088.219zm.502-1.477c.381 0 .706-.103.974-.308s.472-.499.612-.87.208-.804.208-1.298-.069-.923-.208-1.288-.338-.648-.607-.85-.592-.303-.979-.303c-.401 0-.736.104-1.005.313a1.9 1.9 0 0 0-.606.865c-.136.368-.204.789-.204 1.263s.068.903.204 1.278.343.664.611.88.605.318 1 .318zm17.442-5.404h-1.86a2.33 2.33 0 0 0-.293-.811 2.2 2.2 0 0 0-.532-.606 2.21 2.21 0 0 0-.726-.373c-.268-.086-.558-.129-.87-.129a2.64 2.64 0 0 0-1.472.417c-.427.276-.762.68-1.004 1.213s-.363 1.179-.363 1.944c0 .779.121 1.436.363 1.969s.58.931 1.004 1.203.917.403 1.467.403a2.98 2.98 0 0 0 .855-.119 2.34 2.34 0 0 0 .721-.363 2.14 2.14 0 0 0 .542-.587 2.21 2.21 0 0 0 .308-.795l1.86.01c-.07.483-.221.938-.453 1.362s-.529.799-.9 1.123-.805.574-1.302.756-1.049.268-1.656.268c-.895 0-1.693-.207-2.396-.621s-1.256-1.013-1.661-1.795-.606-1.72-.606-2.814.204-2.035.611-2.814.963-1.38 1.666-1.794 1.498-.622 2.386-.622c.567 0 1.094.08 1.581.239s.922.393 1.303.701.694.679.939 1.123.411.945.488 1.512zm3.653 6.9c-.484 0-.92-.086-1.308-.258a2.14 2.14 0 0 1-.915-.776c-.222-.341-.333-.762-.333-1.262 0-.431.08-.788.239-1.069s.376-.507.651-.677.585-.296.93-.382.707-.154 1.079-.194l1.088-.124c.279-.04.481-.1.607-.179s.194-.211.194-.383v-.03c0-.375-.111-.665-.333-.87s-.542-.308-.96-.308c-.441 0-.79.096-1.049.288s-.427.419-.517.681l-1.68-.239c.132-.464.351-.851.656-1.163s.678-.55 1.119-.706.928-.239 1.461-.239c.368 0 .734.044 1.099.13s.698.228.999.427.544.463.726.801.278.76.278 1.267v5.111h-1.73v-1.049h-.059a2.22 2.22 0 0 1-.463.597 2.21 2.21 0 0 1-.74.442c-.295.11-.642.164-1.039.164zm.467-1.322c.361 0 .674-.071.939-.214a1.58 1.58 0 0 0 .612-.577c.146-.238.219-.498.219-.78v-.9a.85.85 0 0 1-.289.129c-.132.04-.281.075-.447.105l-.492.079-.423.06c-.268.036-.509.096-.721.179s-.379.199-.502.348-.184.335-.184.567c0 .331.121.581.363.75s.55.254.925.254zm5.22 1.168v-7.636h1.745v1.273h.08c.139-.441.378-.781.716-1.02s.73-.362 1.168-.362l.333.014a2.39 2.39 0 0 1 .313.035v1.656a1.85 1.85 0 0 0-.363-.07c-.162-.023-.32-.035-.472-.035-.328 0-.623.072-.885.214a1.56 1.56 0 0 0-.611.582c-.15.248-.224.535-.224.86v4.489h-1.8zm7.916.135c-.6 0-1.137-.155-1.611-.463s-.848-.756-1.123-1.342-.413-1.299-.413-2.138c0-.848.139-1.564.418-2.148s.661-1.029 1.138-1.327 1.01-.453 1.596-.453c.448 0 .816.077 1.104.229s.517.33.686.542.3.406.393.592h.074v-3.809h1.805v10.182h-1.77v-1.203h-.109c-.093.186-.227.383-.403.592s-.408.381-.696.527-.651.219-1.089.219zm.502-1.477c.382 0 .706-.103.975-.308a1.93 1.93 0 0 0 .611-.87c.14-.372.209-.804.209-1.298s-.069-.923-.209-1.288-.338-.648-.606-.85-.592-.303-.98-.303c-.401 0-.735.104-1.004.313a1.9 1.9 0 0 0-.606.865c-.136.368-.204.789-.204 1.263s.068.903.204 1.278.343.664.611.88.605.318.999.318z" class="E"/><rect x="155.322" y="183.465" width="160.08" height="30.415" rx="12.166" class="B C D"/><path d="M185.412 196.582c-.046-.434-.242-.772-.586-1.014s-.786-.363-1.333-.363c-.384 0-.714.058-.989.174s-.486.273-.631.472-.221.426-.224.681c0 .212.048.396.144.552a1.32 1.32 0 0 0 .403.398c.169.106.356.195.562.268s.412.135.621.184l.955.239a6.47 6.47 0 0 1 1.108.363 3.9 3.9 0 0 1 .96.577c.285.232.51.512.676.84s.248.712.248 1.153c0 .597-.152 1.122-.457 1.576s-.746.804-1.322 1.059-1.268.378-2.083.378c-.793 0-1.48-.123-2.064-.368s-1.034-.603-1.362-1.074-.5-1.044-.527-1.72h1.815c.026.355.136.65.328.885s.442.411.751.527a2.97 2.97 0 0 0 1.044.174c.401 0 .752-.06 1.054-.179a1.72 1.72 0 0 0 .716-.507c.172-.219.26-.474.263-.766-.003-.265-.081-.484-.234-.656s-.366-.321-.641-.437-.59-.226-.955-.319l-1.158-.298c-.838-.215-1.501-.542-1.989-.979s-.725-1.026-.725-1.755c0-.6.162-1.126.487-1.576s.774-.801 1.337-1.049 1.202-.378 1.914-.378c.723 0 1.356.126 1.899.378s.976.595 1.288 1.039a2.65 2.65 0 0 1 .482 1.521h-1.775zm8.192 4.171v-4.425h1.8v7.637h-1.745v-1.357h-.079c-.173.427-.456.777-.851 1.049s-.873.407-1.446.407c-.501 0-.943-.111-1.328-.333a2.32 2.32 0 0 1-.895-.979c-.215-.431-.323-.951-.323-1.561v-4.863h1.8v4.584c0 .484.133.869.398 1.154s.613.427 1.044.427a1.64 1.64 0 0 0 .77-.194c.249-.129.453-.321.612-.576s.243-.582.243-.97zm3.497 3.212v-7.637h1.745v1.273h.079c.14-.441.378-.78.716-1.019s.731-.363 1.169-.363l.333.015c.126.007.23.018.313.035v1.655c-.076-.026-.197-.049-.363-.069s-.32-.035-.472-.035c-.328 0-.623.071-.885.214a1.56 1.56 0 0 0-.612.581c-.149.249-.223.536-.223.86v4.49h-1.8zm5.397 2.863v-10.5h1.77v1.263h.104c.093-.185.224-.383.393-.591s.397-.393.686-.542.656-.229 1.103-.229c.59 0 1.122.151 1.596.452s.855.741 1.134 1.328.422 1.299.422 2.148c0 .838-.137 1.551-.412 2.137s-.65 1.034-1.124 1.343-1.011.462-1.611.462c-.437 0-.8-.073-1.088-.219s-.521-.321-.696-.527-.307-.406-.403-.591h-.075v4.066h-1.799zm1.765-6.681c0 .494.069.926.208 1.297s.347.661.612.87.593.309.974.309c.398 0 .731-.107 1-.319s.47-.508.606-.88a3.65 3.65 0 0 0 .209-1.277c0-.474-.068-.895-.204-1.263a1.9 1.9 0 0 0-.606-.865c-.269-.209-.604-.313-1.005-.313-.384 0-.711.101-.979.303s-.472.485-.612.85-.203.794-.203 1.288zm8.63-6.364v10.182h-1.799v-10.182h1.799zm6.564 6.97v-4.425h1.8v7.637h-1.745v-1.357h-.08c-.172.427-.455.777-.85 1.049s-.873.407-1.447.407c-.5 0-.942-.111-1.327-.333a2.32 2.32 0 0 1-.895-.979c-.215-.431-.323-.951-.323-1.561v-4.863h1.8v4.584c0 .484.132.869.397 1.154s.614.427 1.044.427a1.64 1.64 0 0 0 .771-.194c.249-.129.453-.321.612-.576s.243-.582.243-.97zm9.532-2.406l-1.641.179a1.3 1.3 0 0 0-.243-.467c-.113-.146-.265-.264-.458-.353s-.427-.135-.705-.135c-.375 0-.69.082-.945.244s-.376.373-.373.631a.66.66 0 0 0 .244.542c.169.139.447.254.835.343l1.302.279c.723.156 1.26.402 1.611.74s.534.781.537 1.328c-.003.48-.144.905-.422 1.273s-.658.649-1.149.855-1.054.308-1.69.308c-.935 0-1.687-.196-2.257-.587s-.91-.943-1.019-1.645l1.755-.169c.079.344.248.605.507.78s.595.264 1.009.264c.427 0 .77-.088 1.029-.264s.393-.393.393-.651a.68.68 0 0 0-.254-.542c-.166-.142-.424-.252-.775-.328l-1.303-.273c-.732-.153-1.274-.41-1.626-.771s-.525-.825-.522-1.382a1.96 1.96 0 0 1 .383-1.223c.262-.348.625-.617 1.089-.806s1.006-.288 1.616-.288c.895 0 1.599.191 2.113.572s.836.896.959 1.546zm4.892-4.564h2.257l3.023 7.378h.12l3.022-7.378h2.257v10.182h-1.77v-6.995h-.094l-2.814 6.965h-1.322l-2.814-6.98h-.095v7.01h-1.77v-10.182zm14.652 10.336c-.484 0-.92-.086-1.308-.259s-.689-.434-.915-.775-.333-.762-.333-1.263c0-.431.08-.787.239-1.069s.376-.507.651-.676a3.28 3.28 0 0 1 .93-.383 7.67 7.67 0 0 1 1.079-.194l1.089-.124c.278-.04.48-.099.606-.179s.194-.21.194-.383v-.03c0-.374-.111-.664-.333-.87s-.542-.308-.96-.308c-.44 0-.79.096-1.049.289s-.427.419-.517.681l-1.68-.239c.133-.464.351-.852.656-1.163s.678-.551 1.119-.706a4.28 4.28 0 0 1 1.461-.239 4.77 4.77 0 0 1 1.099.129c.365.086.698.229.999.428s.544.462.726.8.279.761.279 1.268v5.111h-1.73v-1.049h-.06c-.109.212-.264.411-.462.596s-.443.33-.741.443-.641.164-1.039.164zm.467-1.322c.361 0 .675-.072.94-.214s.469-.338.611-.577a1.47 1.47 0 0 0 .219-.781v-.899c-.056.046-.152.089-.288.129a4.09 4.09 0 0 1-.448.104l-.492.08-.423.06a3.16 3.16 0 0 0-.72.178 1.2 1.2 0 0 0-.503.348c-.122.146-.184.335-.184.567 0 .332.121.582.363.751s.551.254.925.254zm7.02-3.307v4.475h-1.8v-7.637h1.721v1.298h.089a2.19 2.19 0 0 1 .84-1.019c.388-.252.867-.378 1.437-.378.527 0 .986.113 1.377.338s.7.552.915.98.326.946.323 1.556v4.862h-1.8v-4.584c0-.51-.132-.91-.397-1.198s-.625-.433-1.089-.433c-.315 0-.595.07-.84.209s-.433.333-.572.592-.204.572-.204.939zm8.775 4.629a3.17 3.17 0 0 1-1.307-.259c-.385-.175-.69-.434-.915-.775s-.333-.762-.333-1.263c0-.431.079-.787.238-1.069s.377-.507.652-.676.585-.297.929-.383a7.67 7.67 0 0 1 1.079-.194l1.089-.124c.278-.04.481-.099.606-.179a.42.42 0 0 0 .194-.383v-.03c0-.374-.111-.664-.333-.87s-.542-.308-.959-.308c-.441 0-.791.096-1.049.289s-.428.419-.517.681l-1.681-.239c.133-.464.352-.852.657-1.163s.677-.551 1.118-.706.928-.239 1.462-.239c.368 0 .734.043 1.099.129s.697.229.999.428.543.462.726.8.278.761.278 1.268v5.111h-1.73v-1.049h-.06c-.109.212-.263.411-.462.596s-.443.33-.741.443-.641.164-1.039.164zm.467-1.322c.362 0 .675-.072.94-.214s.469-.338.612-.577.218-.499.218-.781v-.899c-.056.046-.152.089-.288.129s-.282.074-.447.104l-.493.08-.422.06c-.269.036-.509.096-.721.178s-.38.199-.502.348-.184.335-.184.567c0 .332.121.582.363.751s.55.254.924.254zm8.542 4.191c-.647 0-1.202-.088-1.666-.264s-.837-.404-1.118-.696-.478-.615-.587-.969l1.621-.393c.073.149.179.296.318.442s.326.272.562.368.538.149.9.149c.51 0 .933-.124 1.267-.373s.502-.649.502-1.213v-1.446h-.089a2.56 2.56 0 0 1-.408.571c-.175.196-.409.36-.701.493s-.651.198-1.088.198c-.587 0-1.119-.137-1.596-.412s-.852-.693-1.134-1.243-.417-1.246-.417-2.078c0-.839.139-1.546.417-2.123s.661-1.019 1.139-1.318a2.93 2.93 0 0 1 1.596-.452c.447 0 .815.076 1.103.229a2.12 2.12 0 0 1 .696.542c.173.208.303.406.393.591h.099v-1.263h1.775v7.761c0 .653-.156 1.193-.467 1.621s-.738.747-1.278.959-1.153.319-1.839.319zm.015-4.544c.381 0 .706-.093.974-.279s.472-.452.612-.8.208-.766.208-1.253c0-.481-.069-.902-.208-1.263s-.338-.641-.607-.84-.592-.303-.979-.303c-.401 0-.736.104-1.005.313a1.9 1.9 0 0 0-.606.86 3.48 3.48 0 0 0-.204 1.233c0 .467.068.877.204 1.228s.343.62.611.815.605.289 1 .289zm8.64 1.67c-.765 0-1.426-.159-1.983-.477s-.98-.776-1.278-1.362-.447-1.285-.447-2.084c0-.785.149-1.474.447-2.068s.723-1.06 1.263-1.392 1.175-.502 1.904-.502c.471 0 .915.076 1.332.229s.792.381 1.114.696.58.716.766 1.203.278 1.06.278 1.73v.552h-6.259v-1.213h4.534c-.003-.345-.078-.651-.224-.92s-.35-.486-.611-.641a1.72 1.72 0 0 0-.905-.234c-.368 0-.691.09-.97.269s-.495.407-.651.696-.23.598-.234.939v1.059c0 .444.082.825.244 1.144s.389.556.681.725.633.249 1.024.249c.262 0 .499-.036.711-.109s.396-.188.552-.333.273-.327.353-.542l1.68.189c-.106.444-.308.831-.606 1.163s-.673.583-1.134.766-.987.268-1.581.268zm4.765-.149v-7.637h1.745v1.273h.079c.139-.441.378-.78.716-1.019a1.97 1.97 0 0 1 1.168-.363l.333.015c.126.007.231.018.314.035v1.655c-.077-.026-.198-.049-.363-.069a3.38 3.38 0 0 0-.473-.035 1.81 1.81 0 0 0-.884.214 1.56 1.56 0 0 0-.612.581c-.149.249-.224.536-.224.86v4.49h-1.799z" class="E"/><rect x="155.322" y="234.82" width="160.08" height="30.415" rx="12.166" class="B C D"/><path d="M214.097 255.32h-3.45v-10.182h3.52c1.011 0 1.879.204 2.605.612s1.289.986 1.68 1.745.587 1.667.587 2.724-.197 1.973-.592 2.735a4.09 4.09 0 0 1-1.695 1.755c-.736.407-1.621.611-2.655.611zm-1.606-1.596h1.517c.709 0 1.301-.129 1.774-.387a2.48 2.48 0 0 0 1.069-1.169c.239-.52.358-1.17.358-1.949s-.119-1.425-.358-1.938a2.43 2.43 0 0 0-1.059-1.159c-.464-.258-1.04-.388-1.73-.388h-1.571v6.99zm11.447 1.745c-.765 0-1.426-.159-1.983-.477s-.98-.775-1.278-1.362-.447-1.284-.447-2.083c0-.786.149-1.475.447-2.068s.723-1.061 1.263-1.392 1.175-.502 1.904-.502a3.86 3.86 0 0 1 1.332.228c.421.149.793.381 1.114.696s.58.716.766 1.203.278 1.061.278 1.73v.552h-6.259v-1.213h4.534c-.003-.344-.078-.651-.224-.919s-.349-.486-.611-.642-.56-.233-.905-.233c-.368 0-.691.089-.97.268a1.86 1.86 0 0 0-.651.696c-.152.285-.23.598-.234.94v1.059c0 .444.082.825.244 1.143a1.74 1.74 0 0 0 .681.726c.292.166.633.248 1.024.248.262 0 .499-.036.711-.109s.396-.187.552-.333.274-.326.353-.542l1.68.189a2.62 2.62 0 0 1-.606 1.163c-.295.328-.673.584-1.134.766s-.987.268-1.581.268zm4.765 2.715v-10.5h1.77v1.263h.104c.093-.186.224-.383.393-.592s.397-.393.686-.542.656-.228 1.103-.228c.59 0 1.122.15 1.596.452s.855.741 1.134 1.327.422 1.3.422 2.148c0 .839-.137 1.551-.412 2.138s-.65 1.034-1.124 1.342-1.011.463-1.611.463c-.437 0-.8-.073-1.088-.219a2.21 2.21 0 0 1-.696-.527c-.173-.209-.307-.406-.403-.592h-.075v4.067h-1.799zm1.765-6.682c0 .494.069.927.208 1.298s.347.661.612.87.593.308.974.308c.398 0 .731-.106 1-.318s.47-.509.606-.88a3.66 3.66 0 0 0 .209-1.278c0-.474-.068-.895-.204-1.263a1.9 1.9 0 0 0-.606-.865c-.269-.209-.604-.313-1.005-.313-.384 0-.711.101-.979.303s-.472.486-.612.85-.203.794-.203 1.288zm10.162 3.967c-.746 0-1.392-.164-1.939-.492s-.971-.787-1.273-1.377-.448-1.279-.448-2.068.15-1.48.448-2.073.726-1.054 1.273-1.382 1.193-.492 1.939-.492 1.392.164 1.939.492.969.789 1.267 1.382.453 1.284.453 2.073-.151 1.478-.453 2.068a3.31 3.31 0 0 1-1.267 1.377c-.547.328-1.194.492-1.939.492zm.01-1.441c.404 0 .742-.111 1.014-.333s.474-.527.606-.905a3.71 3.71 0 0 0 .204-1.263c0-.467-.068-.89-.204-1.268s-.334-.684-.606-.91-.61-.338-1.014-.338c-.415 0-.759.113-1.035.338-.271.226-.475.529-.611.91s-.199.801-.199 1.268.066.885.199 1.263.34.679.611.905c.276.222.62.333 1.035.333zm11.058-4.326l-1.641.179a1.32 1.32 0 0 0-.244-.467c-.112-.146-.265-.263-.457-.353s-.427-.134-.706-.134c-.374 0-.689.081-.944.243s-.377.373-.373.632a.66.66 0 0 0 .243.542c.169.139.448.253.835.343l1.303.278c.723.156 1.26.403 1.611.741s.533.781.537 1.327c-.004.481-.144.905-.423 1.273s-.658.65-1.148.855-1.054.308-1.691.308c-.934 0-1.687-.195-2.257-.586a2.36 2.36 0 0 1-1.019-1.646l1.755-.169c.08.345.249.605.507.781s.595.263 1.009.263c.428 0 .771-.088 1.03-.263s.392-.393.392-.652c0-.218-.084-.399-.253-.541s-.424-.252-.776-.329l-1.302-.273c-.733-.152-1.275-.409-1.626-.771s-.525-.825-.522-1.382c-.003-.47.124-.878.383-1.223s.624-.616 1.089-.805 1.005-.288 1.615-.288c.895 0 1.599.19 2.113.571s.837.897.96 1.546zm1.494 5.618v-7.636h1.8v7.636h-1.8zm.905-8.72a1.05 1.05 0 0 1-.736-.283.91.91 0 0 1-.308-.691.9.9 0 0 1 .308-.691c.205-.193.451-.289.736-.289s.533.096.735.289a.9.9 0 0 1 .309.691c0 .268-.103.499-.309.691s-.447.283-.735.283zm6.404 1.084v1.392h-4.39v-1.392h4.39zm-3.306-1.83h1.8v7.169c0 .242.036.428.109.557s.176.212.299.259.258.069.407.069a1.83 1.83 0 0 0 .309-.024l.218-.045.304 1.407a4.21 4.21 0 0 1-.413.109c-.176.04-.391.063-.646.07a2.94 2.94 0 0 1-1.218-.204c-.362-.153-.648-.388-.86-.706s-.312-.716-.309-1.193v-7.468z" class="E"/><rect x="155.322" y="286.172" width="160.08" height="30.415" rx="12.166" class="B C D"/><path d="M204.215 298.036v-1.546h8.123v1.546h-3.147v8.636h-1.829v-8.636h-3.147zm8.663 8.636v-7.636h1.745v1.272h.079c.14-.441.378-.78.716-1.019s.731-.363 1.169-.363l.333.015c.126.007.23.018.313.035v1.655c-.076-.026-.197-.049-.363-.069s-.32-.035-.472-.035c-.328 0-.623.071-.885.214a1.56 1.56 0 0 0-.612.581c-.149.249-.223.536-.223.861v4.489h-1.8zm7.457.154c-.484 0-.919-.086-1.307-.259s-.69-.434-.915-.775-.333-.762-.333-1.263c0-.431.079-.787.239-1.069a1.85 1.85 0 0 1 .651-.676 3.28 3.28 0 0 1 .93-.383c.348-.089.707-.154 1.078-.194l1.089-.124c.279-.04.481-.099.607-.179s.194-.21.194-.383v-.03c0-.374-.111-.664-.334-.87s-.541-.308-.959-.308c-.441 0-.791.096-1.049.289s-.428.419-.517.681l-1.681-.239c.133-.464.352-.852.657-1.163a2.85 2.85 0 0 1 1.118-.706c.441-.159.928-.239 1.462-.239.368 0 .734.043 1.099.129s.697.229.999.428.544.462.726.8.278.761.278 1.268v5.111h-1.73v-1.049h-.059a2.2 2.2 0 0 1-.463.596c-.195.183-.442.33-.741.443s-.641.164-1.039.164zm.468-1.322a1.96 1.96 0 0 0 .939-.214c.265-.146.469-.338.612-.577a1.47 1.47 0 0 0 .219-.78v-.9a.87.87 0 0 1-.289.129c-.132.04-.282.075-.447.104l-.492.08-.423.06c-.269.036-.509.096-.721.179s-.379.198-.502.348-.184.334-.184.566c0 .332.121.582.363.751s.55.254.925.254zm7.02-3.307v4.475h-1.8v-7.636h1.72v1.297h.09c.175-.427.455-.767.84-1.019s.867-.378 1.437-.378c.527 0 .986.113 1.377.338s.699.552.914.98.327.946.324 1.556v4.862h-1.8v-4.584c0-.51-.133-.91-.398-1.198s-.625-.433-1.089-.433c-.314 0-.595.07-.84.209a1.45 1.45 0 0 0-.572.592c-.135.258-.203.572-.203.939zm12.613-1.143l-1.641.179c-.046-.166-.128-.322-.244-.467s-.265-.264-.457-.353-.427-.135-.706-.135c-.374 0-.689.082-.944.244s-.377.373-.373.631a.66.66 0 0 0 .243.542c.169.14.448.254.835.343l1.303.279c.723.156 1.26.402 1.611.741s.533.78.537 1.327c-.004.481-.144.905-.423 1.273s-.658.649-1.148.855-1.054.308-1.691.308c-.934 0-1.687-.196-2.257-.587s-.91-.943-1.019-1.645l1.755-.169c.08.344.249.605.507.78s.595.264 1.009.264c.428 0 .771-.088 1.03-.264s.392-.392.392-.651a.68.68 0 0 0-.253-.542c-.166-.142-.424-.252-.776-.328l-1.302-.273c-.733-.153-1.275-.41-1.626-.771s-.525-.825-.522-1.382c-.003-.471.124-.878.383-1.223s.624-.617 1.088-.806 1.006-.288 1.616-.288c.895 0 1.599.191 2.113.572s.837.896.96 1.546zm5.362-2.018v1.392h-4.515v-1.392h4.515zm-3.386 7.636v-8.357c0-.514.106-.942.318-1.283a2.02 2.02 0 0 1 .865-.766c.362-.169.763-.253 1.203-.253.312 0 .589.025.831.074l.537.135-.358 1.392a2.88 2.88 0 0 0-.289-.07c-.116-.026-.245-.04-.388-.04-.334 0-.571.081-.71.244s-.204.388-.204.686v8.238h-1.805zm7.735.149c-.766 0-1.427-.159-1.984-.477s-.979-.776-1.278-1.362-.447-1.285-.447-2.084c0-.785.149-1.474.447-2.068s.723-1.06 1.263-1.392 1.175-.502 1.904-.502c.471 0 .915.076 1.333.229a3 3 0 0 1 1.113.696c.325.315.58.716.766 1.203s.278 1.061.278 1.73v.552h-6.259v-1.213h4.534c-.003-.345-.078-.651-.224-.92a1.62 1.62 0 0 0-.611-.641c-.259-.156-.56-.234-.905-.234a1.75 1.75 0 0 0-.969.269 1.84 1.84 0 0 0-.652.696c-.152.285-.23.598-.233.939v1.059c0 .444.081.825.243 1.144s.39.556.681.725.633.249 1.025.249c.261 0 .498-.036.71-.109s.397-.188.552-.333.274-.327.353-.542l1.681.189c-.106.444-.309.831-.607 1.163a2.97 2.97 0 0 1-1.133.766c-.461.179-.988.268-1.581.268zm4.764-.149v-7.636h1.745v1.272h.079c.14-.441.378-.78.716-1.019s.731-.363 1.169-.363l.333.015c.126.007.23.018.313.035v1.655c-.076-.026-.197-.049-.363-.069s-.32-.035-.472-.035c-.328 0-.623.071-.885.214a1.56 1.56 0 0 0-.612.581c-.149.249-.223.536-.223.861v4.489h-1.8zm11.432-5.618l-1.64.179a1.32 1.32 0 0 0-.244-.467c-.113-.146-.265-.264-.457-.353s-.428-.135-.706-.135c-.375 0-.69.082-.945.244s-.376.373-.373.631a.66.66 0 0 0 .244.542c.169.14.447.254.835.343l1.302.279c.723.156 1.26.402 1.611.741s.534.78.537 1.327c-.003.481-.144.905-.422 1.273s-.658.649-1.149.855-1.054.308-1.69.308c-.935 0-1.687-.196-2.257-.587s-.91-.943-1.019-1.645l1.755-.169c.079.344.248.605.507.78s.595.264 1.009.264c.427 0 .77-.088 1.029-.264s.393-.392.393-.651a.68.68 0 0 0-.254-.542c-.166-.142-.424-.252-.775-.328l-1.303-.273c-.732-.153-1.274-.41-1.626-.771s-.525-.825-.522-1.382c-.003-.471.125-.878.383-1.223s.625-.617 1.089-.806 1.006-.288 1.616-.288c.895 0 1.599.191 2.113.572s.836.896.959 1.546z" class="E"/><rect x="155.322" y="337.527" width="160.08" height="30.415" rx="12.166" class="B C D"/><path d="M219.227 347.846h2.257l3.023 7.377h.119l3.023-7.377h2.257v10.181h-1.77v-6.995h-.094l-2.814 6.966h-1.322l-2.814-6.981h-.095v7.01h-1.77v-10.181zm15.785 10.33c-.745 0-1.392-.164-1.939-.492s-.971-.787-1.272-1.377-.448-1.279-.448-2.068.149-1.48.448-2.073a3.33 3.33 0 0 1 1.272-1.382c.547-.328 1.194-.492 1.939-.492s1.392.164 1.939.492a3.3 3.3 0 0 1 1.268 1.382c.302.593.452 1.284.452 2.073s-.15 1.478-.452 2.068-.721 1.049-1.268 1.377-1.193.492-1.939.492zm.01-1.441c.405 0 .743-.111 1.014-.333s.474-.527.607-.905a3.71 3.71 0 0 0 .204-1.263c0-.467-.068-.89-.204-1.268s-.335-.684-.607-.91-.609-.338-1.014-.338c-.414 0-.759.113-1.034.338s-.476.529-.611.91-.199.801-.199 1.268.066.885.199 1.263.339.679.611.905.62.333 1.034.333zm5.023 1.292v-7.636h1.745v1.273h.079c.14-.441.378-.781.716-1.019s.731-.363 1.169-.363l.333.015c.126.006.23.018.313.034v1.656a1.85 1.85 0 0 0-.363-.07c-.162-.023-.32-.035-.472-.035-.328 0-.623.072-.885.214a1.56 1.56 0 0 0-.612.582c-.149.248-.223.535-.223.86v4.489h-1.8zm8.463.149c-.766 0-1.427-.159-1.984-.477s-.979-.775-1.277-1.362-.448-1.284-.448-2.083c0-.786.149-1.475.448-2.068s.722-1.061 1.262-1.392 1.175-.502 1.904-.502a3.87 3.87 0 0 1 1.333.228 3 3 0 0 1 1.113.696c.325.315.58.716.766 1.203s.278 1.061.278 1.731v.551h-6.259v-1.213h4.534a1.94 1.94 0 0 0-.223-.919 1.63 1.63 0 0 0-.612-.642c-.258-.156-.56-.233-.905-.233a1.75 1.75 0 0 0-.969.268c-.279.176-.496.408-.651.696s-.231.598-.234.94v1.059c0 .444.081.825.243 1.143a1.74 1.74 0 0 0 .682.726c.291.166.633.249 1.024.249.262 0 .499-.037.711-.11s.396-.187.552-.333a1.4 1.4 0 0 0 .353-.542l1.68.189a2.61 2.61 0 0 1-.607 1.163 2.94 2.94 0 0 1-1.133.766c-.461.179-.988.268-1.581.268z" class="E"/><rect y=".598" width="209.367" height="51.228" rx="20.491" class="G"/><path d="M78.493 33.098V20.007h3.164v5.254h5.158v-5.254h3.158v13.091h-3.158v-5.261h-5.158v5.261h-3.164zm25.478-6.546c0 1.44-.277 2.661-.831 3.663s-1.304 1.762-2.25 2.282-1.998.78-3.17.78-2.235-.262-3.177-.786-1.69-1.285-2.244-2.282-.825-2.22-.825-3.656.275-2.661.825-3.663 1.302-1.762 2.244-2.282 2.001-.78 3.177-.78 2.229.26 3.17.78 1.696 1.281 2.25 2.282.831 2.222.831 3.663zm-3.234 0c0-.852-.121-1.572-.364-2.16s-.584-1.033-1.036-1.336-.986-.454-1.617-.454-1.165.151-1.617.454-.799.748-1.042 1.336-.358 1.308-.358 2.16.119 1.572.358 2.161.59 1.033 1.042 1.336.991.454 1.617.454 1.17-.151 1.617-.454.797-.748 1.036-1.336.364-1.308.364-2.161zm4.74-6.546h3.918l3.324 8.105h.153l3.324-8.105h3.919v13.091h-3.081v-8.041h-.109l-3.145 7.958h-1.969l-3.145-8.003h-.108v8.086h-3.081V20.007zm16.269 13.091V20.007h9.128v2.57h-5.964v2.685h5.497v2.576h-5.497v2.691h5.964v2.57h-9.128z" fill="#fff"/><g class="F"><path d="M106.184 55.828a1.5 1.5 0 1 0-3 0h3zm44.199 41.204a1.5 1.5 0 0 0 0-2.121l-9.546-9.546a1.5 1.5 0 0 0-2.121 2.121l8.485 8.485-8.485 8.485a1.5 1.5 0 0 0 2.121 2.121l9.546-9.546zm-47.199-41.204v16.143h3V55.828h-3zm25.5 41.643h20.639v-3h-20.639v3zm-25.5-25.5c0 14.083 11.416 25.5 25.5 25.5v-3c-12.427 0-22.5-10.074-22.5-22.5h-3z"/><path d="M106.184 55.828a1.5 1.5 0 1 0-3 0h3zm44.199 92.556a1.5 1.5 0 0 0 0-2.122l-9.546-9.545a1.5 1.5 0 0 0-2.121 2.121l8.485 8.485-8.485 8.485a1.5 1.5 0 1 0 2.121 2.122l9.546-9.546zm-47.199-92.556v67.495h3V55.828h-3zm25.5 92.995h20.639v-3h-20.639v3zm-25.5-25.5c0 14.083 11.416 25.5 25.5 25.5v-3c-12.427 0-22.5-10.073-22.5-22.5h-3z"/><path d="M106.184 55.828a1.5 1.5 0 1 0-3 0h3zm44.199 246.614a1.5 1.5 0 0 0 0-2.121l-9.546-9.546a1.5 1.5 0 0 0-2.121 2.121l8.485 8.486-8.485 8.485a1.5 1.5 0 0 0 2.121 2.121l9.546-9.546zM103.184 55.828v221.554h3V55.828h-3zm25.5 247.054h20.639v-3h-20.639v3zm-25.5-25.5c0 14.083 11.416 25.5 25.5 25.5v-3c-12.427 0-22.5-10.074-22.5-22.5h-3z"/><path d="M106.184 55.828a1.5 1.5 0 1 0-3 0h3zm44.199 143.907a1.5 1.5 0 0 0 0-2.121l-9.546-9.546a1.5 1.5 0 0 0-2.121 2.121l8.485 8.486-8.485 8.485a1.5 1.5 0 0 0 2.121 2.121l9.546-9.546zM103.184 55.828v118.847h3V55.828h-3zm25.5 144.347h20.639v-3h-20.639v3zm-25.5-25.5c0 14.083 11.416 25.5 25.5 25.5v-3c-12.427 0-22.5-10.074-22.5-22.5h-3z"/><path d="M106.184 55.828a1.5 1.5 0 1 0-3 0h3zm44.199 297.97a1.5 1.5 0 0 0 0-2.121l-9.546-9.546a1.5 1.5 0 0 0-2.121 2.121l8.485 8.485-8.485 8.485a1.5 1.5 0 1 0 2.121 2.122l9.546-9.546zm-47.199-297.97v272.909h3V55.828h-3zm25.5 298.409h20.639v-3h-20.639v3zm-25.5-25.5c0 14.083 11.416 25.5 25.5 25.5v-3c-12.427 0-22.5-10.073-22.5-22.5h-3z"/><path d="M106.184 55.828a1.5 1.5 0 1 0-3 0h3zm44.199 195.263a1.5 1.5 0 0 0 0-2.122l-9.546-9.545a1.5 1.5 0 0 0-2.121 2.121l8.485 8.485-8.485 8.485a1.5 1.5 0 1 0 2.121 2.122l9.546-9.546zM103.184 55.828V226.03h3V55.828h-3zm25.5 195.702h20.639v-3h-20.639v3zm-25.5-25.5c0 14.083 11.416 25.5 25.5 25.5v-3c-12.427 0-22.5-10.073-22.5-22.5h-3z"/></g><rect x="279.848" y=".738" width="209.367" height="51.228" rx="20.491" class="G"/><path d="M318.852 24.072c-.043-.469-.232-.833-.569-1.093s-.807-.396-1.425-.396c-.409 0-.75.053-1.023.16s-.477.254-.614.441-.206.394-.211.633c-.008.196.03.369.116.518s.217.281.383.396.375.209.614.294.507.16.805.224l1.125.256c.648.141 1.219.328 1.713.563s.916.513 1.253.837.599.697.773 1.119.265.895.269 1.419c-.004.827-.213 1.536-.627 2.129s-1.007 1.046-1.783 1.361-1.702.473-2.793.473-2.05-.164-2.864-.492-1.447-.827-1.898-1.496-.684-1.515-.697-2.538h3.03c.025.422.138.773.339 1.055s.475.494.824.639a3.22 3.22 0 0 0 1.227.217c.427 0 .789-.057 1.087-.173s.535-.275.697-.479a1.13 1.13 0 0 0 .249-.703c-.004-.247-.081-.458-.23-.633s-.379-.332-.69-.46-.699-.254-1.176-.364l-1.368-.32c-1.134-.26-2.027-.68-2.679-1.259s-.976-1.372-.971-2.365c-.005-.81.213-1.519.652-2.128s1.046-1.085 1.821-1.425 1.66-.511 2.653-.511c1.014 0 1.894.173 2.64.518s1.332.82 1.745 1.438.624 1.334.633 2.148h-3.03zM329.651 29v-5.58h3.12v9.818h-2.979V31.41h-.102a2.86 2.86 0 0 1-1.112 1.432c-.52.349-1.149.524-1.886.524-.669 0-1.257-.153-1.764-.46s-.902-.735-1.183-1.285-.424-1.202-.428-1.943V23.42h3.126v5.644c.004.533.145.952.422 1.259s.654.46 1.131.46c.311 0 .59-.068.837-.204a1.51 1.51 0 0 0 .595-.607c.149-.268.223-.592.223-.972zm4.767 4.238V23.42h3.037v1.79h.102c.179-.648.471-1.129.875-1.445s.876-.479 1.413-.479c.145 0 .294.011.448.032s.296.045.428.083v2.717c-.149-.051-.345-.092-.588-.121s-.452-.045-.639-.045c-.371 0-.706.083-1.004.249s-.526.39-.697.684-.249.631-.249 1.023v5.331h-3.126zm7.234 3.682v-13.5h3.094v1.681h.096c.128-.298.309-.586.543-.863.239-.277.542-.503.908-.678s.814-.268 1.33-.268a3.63 3.63 0 0 1 1.911.537c.596.358 1.078.91 1.444 1.656s.55 1.696.55 2.851c0 1.112-.177 2.043-.53 2.793s-.823 1.313-1.419 1.688a3.62 3.62 0 0 1-1.976.563c-.494 0-.922-.081-1.284-.243s-.667-.375-.914-.639-.431-.548-.563-.85h-.064v5.273h-3.126zm3.062-8.591c0 .528.071.989.211 1.381s.352.697.62.914.599.32.978.32.71-.107.978-.32.471-.522.607-.914.211-.852.211-1.381-.07-.986-.211-1.374-.338-.688-.607-.901c-.264-.213-.59-.32-.978-.32s-.709.104-.978.313-.475.507-.62.895-.211.85-.211 1.387zm11.236-8.182v13.091h-3.126V20.147h3.126zM363.932 29v-5.58h3.119v9.818h-2.979V31.41h-.102c-.217.601-.588 1.078-1.112 1.432s-1.148.524-1.886.524c-.669 0-1.257-.153-1.764-.46s-.901-.735-1.182-1.285-.424-1.202-.429-1.943V23.42h3.126v5.644c.004.533.145.952.422 1.259s.654.46 1.131.46c.311 0 .591-.068.838-.204s.449-.343.594-.607.224-.592.224-.972zm13.338-2.582l-2.87.077c-.029-.205-.11-.386-.242-.543s-.305-.288-.518-.377-.452-.141-.729-.141c-.362 0-.671.072-.927.217-.251.145-.375.341-.371.588-.004.192.073.358.231.499s.449.253.863.339l1.892.358c.98.188 1.708.499 2.186.933s.724 1.01.728 1.726c-.004.673-.204 1.259-.601 1.758-.392.499-.928.886-1.61 1.163s-1.462.409-2.34.409c-1.402 0-2.508-.288-3.317-.863s-1.266-1.355-1.381-2.327l3.087-.077c.069.358.245.631.531.818s.65.281 1.093.281c.401 0 .727-.074.978-.224s.379-.347.383-.594c-.004-.222-.102-.399-.294-.531s-.492-.243-.901-.32l-1.713-.326c-.984-.179-1.717-.509-2.199-.991s-.72-1.104-.716-1.854c-.004-.656.171-1.217.524-1.681s.857-.827 1.509-1.074 1.421-.371 2.308-.371c1.329 0 2.377.279 3.144.837s1.191 1.317 1.272 2.288zm4.965-6.271h3.919l3.324 8.105h.153l3.324-8.105h3.918v13.091h-3.081v-8.041h-.108l-3.145 7.958h-1.969l-3.145-8.003h-.109v8.086h-3.081V20.147zm19.037 13.257c-.626 0-1.182-.104-1.668-.313a2.6 2.6 0 0 1-1.144-.959c-.277-.43-.415-.969-.415-1.617 0-.546.095-1.006.287-1.381a2.46 2.46 0 0 1 .793-.914 3.72 3.72 0 0 1 1.163-.53 7.56 7.56 0 0 1 1.406-.249l1.349-.16c.341-.06.588-.143.742-.249s.236-.266.236-.467v-.032c0-.328-.113-.582-.339-.761s-.53-.268-.914-.268c-.413 0-.745.089-.997.268s-.411.426-.479.741l-2.883-.102c.085-.597.305-1.129.658-1.598s.848-.844 1.47-1.112c.627-.273 1.379-.409 2.257-.409.626 0 1.204.075 1.732.224s.989.358 1.381.639.694.618.907 1.023.326.867.326 1.387v6.673h-2.94V31.87h-.077a2.77 2.77 0 0 1-.671.844c-.268.23-.586.403-.952.518s-.772.173-1.228.173zm.966-2.045c.336 0 .639-.068.907-.205.273-.136.49-.324.652-.562s.243-.524.243-.844v-.933c-.089.047-.198.089-.326.128l-.409.109-.46.089-.454.07c-.294.047-.545.119-.754.217a1.19 1.19 0 0 0-.473.384c-.107.153-.16.337-.16.55 0 .324.115.571.345.741.235.171.531.256.889.256zm9.597-3.72v5.6h-3.125V23.42h2.972v1.803h.109c.217-.601.588-1.072 1.112-1.413s1.148-.518 1.873-.518c.69 0 1.289.155 1.796.467s.908.737 1.189 1.291.426 1.193.422 1.93v6.258h-3.126v-5.644c.004-.545-.134-.972-.416-1.278s-.662-.46-1.157-.46a1.71 1.71 0 0 0-.869.217 1.44 1.44 0 0 0-.575.607c-.132.264-.2.584-.205.959zm10.709 5.766c-.627 0-1.183-.104-1.669-.313a2.6 2.6 0 0 1-1.144-.959c-.277-.43-.415-.969-.415-1.617 0-.546.095-1.006.287-1.381a2.46 2.46 0 0 1 .793-.914 3.73 3.73 0 0 1 1.163-.53 7.56 7.56 0 0 1 1.406-.249l1.349-.16c.341-.06.588-.143.742-.249s.236-.266.236-.467v-.032c0-.328-.113-.582-.339-.761s-.53-.268-.914-.268c-.413 0-.745.089-.997.268s-.411.426-.479.741l-2.883-.102c.085-.597.305-1.129.658-1.598s.848-.844 1.47-1.112 1.379-.409 2.257-.409c.626 0 1.204.075 1.732.224s.989.358 1.381.639.694.618.907 1.023c.218.405.326.867.326 1.387v6.673h-2.94V31.87h-.077a2.77 2.77 0 0 1-.671.844c-.268.23-.586.403-.952.518s-.771.173-1.227.173zm.965-2.045c.336 0 .639-.068.907-.205a1.67 1.67 0 0 0 .652-.562c.162-.243.243-.524.243-.844v-.933c-.089.047-.198.089-.326.128l-.409.109-.46.089-.454.07c-.294.047-.545.119-.754.217a1.19 1.19 0 0 0-.473.384c-.107.153-.16.337-.16.55 0 .324.115.571.345.741s.531.256.889.256zm11.048 5.766c-.933 0-1.732-.13-2.397-.39s-1.186-.616-1.566-1.067a2.96 2.96 0 0 1-.684-1.534l2.96-.166a1.17 1.17 0 0 0 .307.524c.153.149.351.264.594.345s.537.121.869.121c.525 0 .957-.128 1.298-.384s.518-.692.518-1.323v-1.726h-.109a2.32 2.32 0 0 1-.562.812c-.252.239-.565.426-.94.563s-.797.204-1.278.204c-.716 0-1.373-.166-1.969-.498s-1.068-.857-1.426-1.56-.53-1.617-.53-2.729c0-1.146.183-2.09.55-2.832s.846-1.298 1.438-1.655 1.238-.537 1.924-.537c.515 0 .957.089 1.323.268s.675.401.914.678a3.18 3.18 0 0 1 .543.863h.09V23.42h3.113v9.857c0 .831-.209 1.532-.627 2.103s-1.001 1.004-1.751 1.298-1.617.447-2.602.447zm.096-6.296a1.58 1.58 0 0 0 .972-.3c.268-.2.475-.488.62-.863s.217-.825.217-1.349c0-.533-.072-.991-.217-1.374s-.347-.686-.62-.895-.592-.313-.972-.313c-.388 0-.716.107-.984.32s-.473.514-.614.901-.204.837-.204 1.362.07.974.211 1.349.343.663.607.863.596.3.984.3zm11.124 2.595c-1.027 0-1.913-.202-2.659-.607s-1.313-.991-1.713-1.745-.595-1.66-.595-2.704c0-1.014.201-1.901.601-2.659s.965-1.355 1.694-1.777 1.588-.639 2.576-.639c.699 0 1.338.109 1.918.326s1.08.539 1.502.965.75.952.984 1.579.352 1.336.352 2.141v.78h-8.534v-1.815h5.625c-.004-.332-.083-.628-.236-.889a1.6 1.6 0 0 0-.633-.607c-.264-.149-.569-.224-.914-.224s-.663.079-.94.236a1.74 1.74 0 0 0-.658.633c-.162.264-.247.565-.256.901v1.847c0 .401.079.752.237 1.055s.381.531.671.697.635.249 1.036.249c.277 0 .528-.038.754-.115s.42-.19.581-.339a1.4 1.4 0 0 0 .365-.55l2.87.083c-.119.643-.382 1.204-.786 1.681s-.927.842-1.579 1.106-1.406.39-2.263.39zm5.914-.185V23.42h3.036v1.79h.103c.179-.648.471-1.129.875-1.445s.876-.479 1.413-.479c.145 0 .294.011.448.032s.296.045.428.083v2.717c-.149-.051-.345-.092-.588-.121s-.452-.045-.639-.045c-.371 0-.706.083-1.004.249s-.526.39-.697.684c-.166.29-.249.631-.249 1.023v5.331h-3.126z" fill="#fff"/><rect x="436.242" y="80.762" width="160.99" height="30.415" rx="12.166" class="B C D"/><path d="M491.423 93.879c-.046-.434-.242-.772-.586-1.014s-.786-.363-1.333-.363c-.384 0-.714.058-.989.174s-.486.273-.631.472-.221.426-.224.681a1.03 1.03 0 0 0 .144.552c.099.156.234.288.403.398s.356.195.561.268.413.134.622.184l.954.239a6.58 6.58 0 0 1 1.109.363c.358.153.678.345.96.577s.51.512.676.84.248.713.248 1.153c0 .597-.152 1.122-.457 1.576s-.746.804-1.322 1.059-1.268.378-2.084.378c-.792 0-1.479-.123-2.063-.368s-1.034-.603-1.362-1.074-.5-1.044-.527-1.72h1.815a1.54 1.54 0 0 0 .328.885c.192.235.442.411.75.527a2.98 2.98 0 0 0 1.045.174c.401 0 .752-.06 1.054-.179a1.71 1.71 0 0 0 .715-.507 1.22 1.22 0 0 0 .264-.766c-.003-.265-.081-.484-.234-.656s-.366-.322-.641-.437a6.18 6.18 0 0 0-.955-.318l-1.158-.298c-.839-.215-1.501-.542-1.989-.979s-.726-1.026-.726-1.755c0-.6.163-1.125.488-1.576s.774-.8 1.337-1.049 1.202-.378 1.914-.378c.723 0 1.356.126 1.899.378s.976.595 1.288 1.039.472.948.482 1.521h-1.775zm8.192 4.171v-4.425h1.8v7.637h-1.745v-1.358h-.079c-.173.427-.456.778-.851 1.049s-.873.408-1.446.408c-.501 0-.943-.111-1.328-.333a2.32 2.32 0 0 1-.895-.979c-.215-.431-.323-.952-.323-1.561v-4.862h1.8v4.584c0 .484.132.868.398 1.153s.613.427 1.044.427c.265 0 .522-.065.77-.194s.453-.322.612-.577.243-.582.243-.969zm3.497 3.212v-7.637h1.72v1.297h.089a2.03 2.03 0 0 1 .791-1.024c.368-.249.807-.373 1.317-.373.517 0 .953.126 1.308.378s.61.588.756 1.019h.079c.169-.424.454-.762.855-1.014s.884-.383 1.437-.383c.703 0 1.276.222 1.72.666s.666 1.092.666 1.944v5.126h-1.804v-4.848c0-.474-.126-.82-.378-1.039s-.56-.333-.925-.333c-.434 0-.774.136-1.019.408s-.363.618-.363 1.049v4.763h-1.765V96.34c0-.394-.119-.709-.358-.945s-.543-.353-.925-.353a1.31 1.31 0 0 0-.706.199c-.212.129-.381.313-.507.552s-.189.51-.189.825v4.644h-1.799zm12.41 0v-7.637h1.72v1.297h.09c.159-.437.422-.779.79-1.024s.807-.373 1.318-.373c.517 0 .953.126 1.307.378s.61.588.756 1.019h.08c.169-.424.454-.762.855-1.014s.883-.383 1.436-.383c.703 0 1.277.222 1.721.666s.666 1.092.666 1.944v5.126h-1.805v-4.848c0-.474-.126-.82-.378-1.039s-.56-.333-.924-.333c-.435 0-.774.136-1.02.408s-.362.618-.362 1.049v4.763h-1.765V96.34c0-.394-.12-.709-.358-.945s-.544-.353-.925-.353c-.259 0-.494.066-.706.199s-.381.313-.507.552-.189.51-.189.825v4.644h-1.8zm14.608.154a3.17 3.17 0 0 1-1.307-.259c-.385-.175-.69-.434-.915-.775s-.333-.763-.333-1.263c0-.431.079-.787.238-1.069a1.85 1.85 0 0 1 .652-.676 3.29 3.29 0 0 1 .929-.383 7.57 7.57 0 0 1 1.079-.194l1.089-.124c.278-.04.481-.099.606-.179s.194-.21.194-.383v-.03c0-.374-.111-.665-.333-.87s-.542-.308-.959-.308c-.441 0-.791.096-1.049.288s-.428.419-.517.681l-1.681-.239c.133-.464.352-.852.657-1.163s.677-.55 1.118-.706a4.28 4.28 0 0 1 1.462-.239c.368 0 .734.043 1.099.129a3.1 3.1 0 0 1 .999.428 2.16 2.16 0 0 1 .726.8c.185.338.278.761.278 1.268v5.111h-1.73v-1.049h-.06c-.109.212-.263.411-.462.596s-.443.33-.741.443-.641.164-1.039.164zm.467-1.323c.362 0 .675-.071.94-.213s.469-.338.612-.577.218-.499.218-.78v-.9a.84.84 0 0 1-.288.129 4.17 4.17 0 0 1-.447.104l-.493.079-.422.06a3.13 3.13 0 0 0-.721.179c-.212.083-.38.199-.502.348s-.184.335-.184.567c0 .331.121.582.363.751s.55.253.924.253zm5.221 1.169v-7.637h1.745v1.273h.079c.139-.441.378-.781.716-1.019s.731-.363 1.169-.363l.333.015a2.23 2.23 0 0 1 .313.035v1.655c-.076-.026-.197-.05-.363-.07s-.32-.035-.472-.035a1.82 1.82 0 0 0-.885.214 1.56 1.56 0 0 0-.612.582 1.64 1.64 0 0 0-.224.86v4.49h-1.799zm6.748 2.863a3.72 3.72 0 0 1-.682-.059 2.55 2.55 0 0 1-.492-.13l.418-1.402c.262.077.495.113.701.11a.86.86 0 0 0 .542-.194c.159-.123.293-.328.402-.617l.155-.412-2.77-7.796h1.909l1.76 5.767h.08l1.765-5.767h1.914l-3.058 8.561c-.142.405-.331.751-.566 1.039s-.524.514-.865.667-.743.233-1.213.233z" class="E"/><rect x="436.242" y="132.113" width="160.99" height="30.415" rx="12.166" class="B C D"/><path d="M497.856 145.23c-.046-.434-.242-.772-.587-1.014s-.785-.363-1.332-.363c-.385 0-.714.058-.989.174s-.486.274-.632.473-.22.426-.224.681c0 .212.048.396.145.552s.233.288.402.397.357.196.562.269.413.134.622.184l.954.238a6.66 6.66 0 0 1 1.109.363c.358.153.678.345.959.577a2.55 2.55 0 0 1 .676.84c.166.328.249.713.249 1.154a2.76 2.76 0 0 1-.457 1.576c-.305.45-.746.803-1.323 1.059s-1.268.377-2.083.377c-.792 0-1.48-.122-2.063-.367s-1.034-.604-1.362-1.074-.501-1.044-.527-1.721h1.814c.027.355.136.65.328.885s.443.411.751.527.66.174 1.044.174c.401 0 .753-.059 1.054-.179s.544-.291.716-.507a1.23 1.23 0 0 0 .264-.765c-.004-.265-.082-.484-.234-.657s-.366-.321-.641-.437-.59-.225-.955-.318l-1.158-.299c-.839-.215-1.502-.541-1.989-.979s-.726-1.026-.726-1.755a2.63 2.63 0 0 1 .487-1.576c.328-.451.774-.8 1.338-1.049s1.201-.378 1.914-.378c.722 0 1.355.126 1.899.378s.976.595 1.288 1.039.472.948.482 1.521h-1.775zm8.192 4.172v-4.425h1.8v7.636h-1.745v-1.357h-.08c-.172.428-.456.777-.85 1.049s-.873.408-1.447.408c-.5 0-.943-.111-1.327-.333s-.68-.552-.895-.98-.323-.951-.323-1.561v-4.862h1.8v4.584c0 .484.132.868.397 1.153s.613.428 1.044.428c.265 0 .522-.065.771-.194a1.57 1.57 0 0 0 .611-.577c.163-.258.244-.582.244-.969zm3.496 3.211v-7.636h1.745v1.273h.08c.139-.441.378-.781.716-1.02s.731-.362 1.168-.362l.333.014a2.37 2.37 0 0 1 .313.035v1.656c-.076-.027-.197-.05-.362-.07a3.38 3.38 0 0 0-.473-.035c-.328 0-.623.072-.885.214a1.56 1.56 0 0 0-.611.582c-.149.248-.224.535-.224.86v4.489h-1.8zm5.397 2.864v-10.5h1.77v1.263h.104c.093-.186.224-.383.393-.592s.398-.393.686-.542.657-.229 1.104-.229c.59 0 1.122.151 1.596.453s.855.741 1.133 1.327.423 1.3.423 2.148c0 .839-.138 1.551-.413 2.138s-.649 1.034-1.123 1.342-1.011.463-1.611.463c-.438 0-.8-.073-1.089-.219s-.52-.322-.696-.527a3.48 3.48 0 0 1-.403-.592h-.074v4.067h-1.8zm1.765-6.682c0 .494.07.926.209 1.298s.346.661.611.87.594.308.975.308c.398 0 .731-.106.999-.318s.471-.509.607-.88a3.66 3.66 0 0 0 .208-1.278 3.63 3.63 0 0 0-.203-1.263c-.136-.368-.338-.656-.607-.865s-.603-.313-1.004-.313c-.385 0-.711.101-.98.303s-.472.486-.611.85-.204.794-.204 1.288zm8.631-6.364v10.182h-1.8v-10.182h1.8zm6.564 6.971v-4.425h1.799v7.636h-1.745v-1.357h-.079c-.172.428-.456.777-.85 1.049s-.874.408-1.447.408c-.5 0-.943-.111-1.327-.333a2.31 2.31 0 0 1-.895-.98c-.216-.431-.323-.951-.323-1.561v-4.862h1.799v4.584c0 .484.133.868.398 1.153s.613.428 1.044.428c.265 0 .522-.065.771-.194a1.57 1.57 0 0 0 .611-.577c.163-.258.244-.582.244-.969zm9.532-2.407l-1.641.179a1.32 1.32 0 0 0-.244-.467c-.112-.146-.265-.263-.457-.353s-.428-.134-.706-.134c-.374 0-.689.081-.945.243s-.376.373-.372.632c-.004.222.077.403.243.542s.448.253.835.343l1.303.278c.723.156 1.259.403 1.611.741s.533.78.537 1.327c-.004.481-.144.905-.423 1.273s-.658.65-1.148.855-1.054.308-1.691.308c-.934 0-1.687-.195-2.257-.586s-.91-.943-1.019-1.646l1.755-.169c.08.345.249.605.507.781s.595.263 1.009.263c.428 0 .771-.088 1.029-.263s.393-.393.393-.652c0-.218-.084-.399-.253-.541s-.425-.252-.776-.329l-1.302-.273c-.733-.153-1.275-.409-1.626-.771s-.525-.825-.522-1.382c-.003-.47.124-.878.383-1.223s.624-.616 1.088-.805 1.006-.289 1.616-.289c.895 0 1.599.191 2.113.572s.837.897.96 1.546z" class="E"/><g class="F"><path d="M386.031 55.965a1.5 1.5 0 1 0-3 0h3zm45.272 41.064a1.5 1.5 0 0 0 0-2.121l-9.546-9.546a1.5 1.5 0 0 0-2.121 2.121l8.485 8.485-8.485 8.485a1.5 1.5 0 0 0 2.121 2.121l9.546-9.546zm-48.272-41.064v16.003h3V55.965h-3zm25.5 41.503h21.711v-3h-21.711v3zm-25.5-25.5c0 14.083 11.417 25.5 25.5 25.5v-3c-12.426 0-22.5-10.074-22.5-22.5h-3z"/><path d="M386.031 55.965a1.5 1.5 0 1 0-3 0h3zm45.272 92.415a1.5 1.5 0 0 0 0-2.121l-9.546-9.546a1.5 1.5 0 0 0-2.121 2.121l8.485 8.485-8.485 8.486a1.5 1.5 0 0 0 2.121 2.121l9.546-9.546zm-48.272-92.415v67.354h3V55.965h-3zm25.5 92.854h21.711v-3h-21.711v3zm-25.5-25.5c0 14.084 11.417 25.5 25.5 25.5v-3c-12.426 0-22.5-10.073-22.5-22.5h-3z"/></g><rect x="567.84" y="183.469" width="160.99" height="30.415" rx="12.166" class="B C D"/><path d="M612.417 198.878c0 1.097-.206 2.037-.617 2.819s-.964 1.375-1.67 1.79-1.5.621-2.391.621-1.691-.207-2.397-.621-1.259-1.016-1.67-1.795-.612-1.72-.612-2.814.204-2.035.612-2.814.968-1.381 1.67-1.795 1.505-.621 2.397-.621 1.688.207 2.391.621 1.263 1.013 1.67 1.795.617 1.717.617 2.814zm-1.855 0c0-.772-.12-1.424-.362-1.954s-.571-.936-.995-1.208-.913-.413-1.466-.413-1.043.138-1.467.413-.757.674-.999 1.208-.358 1.182-.358 1.954.119 1.425.358 1.959.575.933.999 1.208.913.407 1.467.407 1.042-.135 1.466-.407.756-.678.995-1.208.362-1.187.362-1.959zm3.365 7.954v-10.5h1.77v1.263h.104c.093-.185.224-.383.393-.591s.398-.393.686-.542.657-.229 1.104-.229c.59 0 1.122.151 1.596.452s.855.741 1.133 1.328.423 1.299.423 2.148c0 .838-.138 1.551-.413 2.137s-.649 1.034-1.123 1.343-1.011.462-1.611.462c-.438 0-.801-.073-1.089-.219s-.52-.321-.696-.527-.306-.406-.403-.591h-.074v4.066h-1.8zm1.765-6.681c0 .493.07.926.209 1.297s.346.661.611.87.594.308.975.308c.398 0 .731-.106.999-.318s.471-.509.607-.88a3.65 3.65 0 0 0 .208-1.277c0-.474-.068-.895-.203-1.263s-.338-.656-.607-.865-.603-.313-1.004-.313c-.385 0-.711.101-.98.303s-.472.485-.611.85-.204.794-.204 1.288zm10.212 3.967c-.766 0-1.427-.159-1.984-.477s-.979-.776-1.278-1.363-.447-1.284-.447-2.083c0-.785.149-1.475.447-2.068s.723-1.06 1.263-1.392 1.175-.502 1.904-.502c.471 0 .915.076 1.333.229a3 3 0 0 1 1.113.696c.325.315.58.716.766 1.203s.278 1.06.278 1.73v.552h-6.259v-1.213h4.534a1.94 1.94 0 0 0-.223-.92 1.62 1.62 0 0 0-.612-.641c-.258-.156-.56-.234-.905-.234a1.75 1.75 0 0 0-.969.268c-.279.176-.496.408-.652.696s-.23.599-.233.94v1.059c0 .444.081.825.243 1.143a1.74 1.74 0 0 0 .682.726c.291.166.633.249 1.024.249.262 0 .498-.037.711-.109a1.58 1.58 0 0 0 .551-.334c.156-.145.274-.326.353-.541l1.681.188c-.106.445-.308.832-.607 1.164s-.673.583-1.133.765-.988.269-1.581.269zm6.564-4.624v4.475h-1.8v-7.637h1.72v1.298h.09c.175-.428.455-.767.84-1.019s.867-.378 1.437-.378c.527 0 .986.113 1.377.338s.699.552.915.979.326.947.323 1.557v4.862h-1.8v-4.584c0-.51-.133-.91-.398-1.198s-.625-.433-1.089-.433c-.314 0-.594.07-.84.209s-.432.333-.571.592-.204.571-.204.939zm9.975 4.475v-10.182h3.898c.736 0 1.347.116 1.835.348s.856.542 1.098.94.368.848.368 1.352c0 .414-.079.769-.238 1.064s-.373.528-.642.711a2.7 2.7 0 0 1-.9.392v.1c.362.02.708.131 1.04.333a2.32 2.32 0 0 1 .82.845c.212.365.318.806.318 1.323 0 .527-.128 1.001-.383 1.421s-.639.748-1.153.99-1.16.363-1.939.363h-4.122zm1.845-1.541h1.984c.669 0 1.151-.128 1.446-.383s.448-.59.448-.995c0-.301-.075-.573-.224-.815s-.361-.437-.636-.577-.604-.213-.985-.213h-2.033v2.983zm0-4.311h1.824a2.06 2.06 0 0 0 .861-.174 1.45 1.45 0 0 0 .601-.502c.149-.219.224-.477.224-.776a1.26 1.26 0 0 0-.418-.974c-.275-.255-.684-.383-1.228-.383h-1.864v2.809zm9.32 6.006c-.483 0-.919-.086-1.307-.259a2.13 2.13 0 0 1-.915-.775c-.222-.342-.333-.763-.333-1.263 0-.431.08-.787.239-1.069s.376-.507.651-.676a3.28 3.28 0 0 1 .93-.383c.348-.089.707-.154 1.079-.194l1.088-.124c.279-.04.481-.099.607-.179s.194-.21.194-.383v-.03c0-.374-.111-.664-.333-.87s-.542-.308-.96-.308c-.441 0-.79.096-1.049.288a1.44 1.44 0 0 0-.517.682l-1.68-.239c.132-.464.351-.852.656-1.163s.678-.551 1.119-.706.928-.239 1.461-.239c.368 0 .734.043 1.099.129s.698.229.999.428.544.462.726.8.278.761.278 1.268v5.111h-1.73v-1.049h-.059a2.2 2.2 0 0 1-.463.596c-.195.183-.442.33-.74.443s-.642.164-1.04.164zm.468-1.323a1.96 1.96 0 0 0 .939-.213 1.58 1.58 0 0 0 .612-.577 1.47 1.47 0 0 0 .219-.781v-.899a.87.87 0 0 1-.289.129c-.132.04-.281.074-.447.104l-.492.08-.423.059c-.268.037-.509.097-.721.179s-.379.199-.502.348-.184.335-.184.567c0 .332.121.582.363.751s.55.253.925.253zm7.02-9.013v10.182h-1.8v-10.182h1.8zm3.894 10.336c-.484 0-.92-.086-1.308-.259a2.13 2.13 0 0 1-.914-.775c-.222-.342-.333-.763-.333-1.263 0-.431.079-.787.238-1.069s.376-.507.651-.676a3.29 3.29 0 0 1 .93-.383 7.67 7.67 0 0 1 1.079-.194l1.089-.124c.278-.04.48-.099.606-.179a.42.42 0 0 0 .194-.383v-.03c0-.374-.111-.664-.333-.87s-.542-.308-.959-.308c-.441 0-.791.096-1.049.288s-.428.42-.517.682l-1.681-.239c.133-.464.351-.852.656-1.163s.678-.551 1.119-.706.928-.239 1.462-.239a4.76 4.76 0 0 1 1.098.129 3.09 3.09 0 0 1 1 .428c.301.195.543.462.725.8s.279.761.279 1.268v5.111h-1.73v-1.049h-.06c-.109.212-.263.411-.462.596s-.443.33-.741.443-.641.164-1.039.164zm.467-1.323c.362 0 .675-.071.94-.213s.469-.338.611-.577a1.47 1.47 0 0 0 .219-.781v-.899c-.056.046-.152.089-.288.129a4.09 4.09 0 0 1-.448.104l-.492.08-.422.059a3.21 3.21 0 0 0-.721.179c-.212.083-.38.199-.502.348s-.184.335-.184.567c0 .332.121.582.363.751s.55.253.924.253zm7.02-3.306v4.475h-1.799v-7.637h1.72v1.298h.089c.176-.428.456-.767.84-1.019s.867-.378 1.437-.378c.527 0 .986.113 1.377.338a2.27 2.27 0 0 1 .915.979c.219.428.327.947.323 1.557v4.862h-1.799v-4.584c0-.51-.133-.91-.398-1.198s-.625-.433-1.089-.433c-.315 0-.595.07-.84.209s-.433.333-.572.592-.204.571-.204.939zm9.909 4.624c-.763 0-1.417-.167-1.964-.502a3.35 3.35 0 0 1-1.258-1.387c-.291-.594-.437-1.276-.437-2.049s.149-1.46.447-2.053.719-1.06 1.263-1.392 1.193-.502 1.939-.502c.62 0 1.168.114 1.645.343s.864.545 1.149.96.447.891.487 1.441h-1.72c-.07-.368-.235-.674-.497-.919s-.605-.373-1.039-.373c-.368 0-.691.099-.97.298s-.495.477-.651.845-.229.809-.229 1.323c0 .52.076.967.229 1.342s.366.658.641.86.605.298.98.298c.265 0 .502-.049.711-.149a1.44 1.44 0 0 0 .532-.442 1.71 1.71 0 0 0 .293-.701h1.72c-.043.54-.202 1.019-.477 1.436a2.82 2.82 0 0 1-1.124.975c-.474.232-1.031.348-1.67.348zm7.976 0c-.766 0-1.427-.159-1.984-.477a3.23 3.23 0 0 1-1.278-1.363c-.298-.59-.447-1.284-.447-2.083 0-.785.149-1.475.447-2.068s.723-1.06 1.263-1.392 1.175-.502 1.904-.502c.471 0 .915.076 1.332.229s.793.381 1.114.696.58.716.766 1.203.278 1.06.278 1.73v.552h-6.259v-1.213h4.534a1.93 1.93 0 0 0-.224-.92 1.62 1.62 0 0 0-.611-.641c-.259-.156-.56-.234-.905-.234-.368 0-.691.089-.97.268a1.86 1.86 0 0 0-.651.696c-.152.285-.23.599-.233.94v1.059c0 .444.081.825.243 1.143s.39.557.681.726.633.249 1.024.249a2.2 2.2 0 0 0 .711-.109c.212-.077.396-.188.552-.334s.274-.326.353-.541l1.681.188c-.106.445-.309.832-.607 1.164s-.673.583-1.133.765-.988.269-1.581.269z" class="E"/><path d="M518.236 168.531a1.5 1.5 0 1 0-3 0h3zM562.9 199.74c.585-.586.585-1.536 0-2.122l-9.546-9.546c-.586-.585-1.536-.585-2.122 0s-.585 1.536 0 2.122l8.486 8.485-8.486 8.485c-.585.586-.585 1.536 0 2.122s1.536.585 2.122 0l9.546-9.546zm-47.664-31.209v6.148h3v-6.148h-3zm25.5 31.648h21.103v-3h-21.103v3zm-25.5-25.5c0 14.083 11.417 25.5 25.5 25.5v-3c-12.426 0-22.5-10.074-22.5-22.5h-3z" class="F"/><rect x="699.078" y="234.816" width="170" height="30.415" rx="12.166" class="B C D"/><path d="M726.127 248.57h-1.859a2.3 2.3 0 0 0-.294-.81c-.142-.239-.32-.441-.532-.607a2.21 2.21 0 0 0-.726-.373c-.268-.086-.558-.129-.87-.129-.553 0-1.044.139-1.471.418s-.762.679-1.004 1.213-.363 1.178-.363 1.943c0 .779.121 1.436.363 1.969s.58.932 1.004 1.203.916.403 1.466.403a2.99 2.99 0 0 0 .856-.119c.268-.083.508-.204.72-.363s.396-.355.542-.587a2.23 2.23 0 0 0 .309-.795l1.859.01a4.01 4.01 0 0 1-.452 1.362c-.229.424-.529.799-.9 1.123s-.806.574-1.303.756-1.049.269-1.655.269c-.895 0-1.694-.208-2.397-.622s-1.256-1.012-1.66-1.795-.607-1.72-.607-2.814.204-2.035.612-2.813c.407-.783.963-1.381 1.665-1.795s1.498-.622 2.387-.622c.566 0 1.093.08 1.581.239a4.05 4.05 0 0 1 1.302.701c.381.305.694.679.94 1.124s.411.944.487 1.511zm1.455 6.746v-7.636h1.746v1.273h.079c.139-.441.378-.781.716-1.019a1.97 1.97 0 0 1 1.168-.363l.333.015c.126.006.231.018.314.034v1.656c-.077-.027-.198-.05-.363-.07s-.32-.034-.473-.034c-.328 0-.623.071-.885.213a1.57 1.57 0 0 0-.611.582 1.64 1.64 0 0 0-.224.86v4.489h-1.8zm8.464.15c-.766 0-1.427-.16-1.984-.478s-.98-.775-1.278-1.362-.447-1.284-.447-2.083c0-.786.149-1.475.447-2.068s.723-1.061 1.263-1.392 1.175-.502 1.904-.502a3.86 3.86 0 0 1 1.332.228c.421.149.793.381 1.114.696s.58.716.766 1.203.278 1.061.278 1.731v.551h-6.259v-1.213h4.534c-.003-.344-.078-.651-.224-.919s-.349-.486-.611-.642-.56-.233-.905-.233c-.368 0-.691.089-.97.268a1.86 1.86 0 0 0-.651.696c-.152.285-.23.598-.233.94v1.059c0 .444.081.825.243 1.143s.39.557.681.726.633.249 1.024.249c.262 0 .499-.037.711-.11s.396-.187.552-.333.274-.326.353-.542l1.681.189a2.63 2.63 0 0 1-.607 1.163c-.295.329-.673.584-1.134.766s-.987.269-1.58.269zm7.597-.015c-.599 0-1.136-.154-1.61-.463s-.849-.755-1.124-1.342-.413-1.299-.413-2.138c0-.848.14-1.564.418-2.148s.661-1.029 1.139-1.327a2.92 2.92 0 0 1 1.595-.452c.448 0 .816.076 1.104.228s.517.33.686.542.3.406.393.592h.075v-3.808h1.804v10.181h-1.77v-1.203h-.109c-.093.186-.227.383-.403.592a2.21 2.21 0 0 1-.696.527c-.288.146-.651.219-1.089.219zm.503-1.477c.381 0 .706-.103.974-.308s.472-.499.612-.87.208-.804.208-1.298-.069-.923-.208-1.287-.339-.648-.607-.851-.592-.303-.979-.303c-.401 0-.736.105-1.005.313s-.47.498-.606.865-.204.789-.204 1.263.068.903.204 1.278.343.664.611.88.605.318 1 .318zm5.328 1.342v-7.636h1.8v7.636h-1.8zm.905-8.72a1.05 1.05 0 0 1-.736-.283c-.205-.192-.308-.423-.308-.691s.103-.502.308-.691a1.04 1.04 0 0 1 .736-.289c.288 0 .533.097.736.289s.308.419.308.691-.103.499-.308.691a1.04 1.04 0 0 1-.736.283zm6.405 1.084v1.392h-4.39v-1.392h4.39zm-3.306-1.83h1.799v7.17c0 .241.037.427.11.556a.59.59 0 0 0 .298.259c.123.046.258.069.408.069.112 0 .215-.008.308-.024l.219-.045.303 1.407c-.096.033-.234.069-.413.109a3.38 3.38 0 0 1-.646.07 2.94 2.94 0 0 1-1.218-.204c-.361-.152-.648-.388-.86-.706s-.312-.716-.308-1.193v-7.468zm16.77 2.72h-1.859a2.3 2.3 0 0 0-.294-.81 2.17 2.17 0 0 0-.531-.607 2.23 2.23 0 0 0-.726-.373 2.84 2.84 0 0 0-.87-.129c-.554 0-1.044.139-1.472.418s-.762.679-1.004 1.213-.363 1.178-.363 1.943c0 .779.121 1.436.363 1.969s.58.932 1.004 1.203.916.403 1.467.403a2.98 2.98 0 0 0 .855-.119 2.35 2.35 0 0 0 .721-.363 2.14 2.14 0 0 0 .542-.587 2.23 2.23 0 0 0 .308-.795l1.859.01c-.069.484-.22.938-.452 1.362s-.529.799-.9 1.123-.806.574-1.303.756-1.049.269-1.655.269c-.895 0-1.694-.208-2.397-.622s-1.256-1.012-1.66-1.795-.607-1.72-.607-2.814.204-2.035.612-2.813c.408-.783.963-1.381 1.665-1.795s1.499-.622 2.387-.622c.567 0 1.094.08 1.581.239a4.05 4.05 0 0 1 1.302.701c.381.305.695.679.94 1.124a4.16 4.16 0 0 1 .487 1.511zm3.653 6.901c-.484 0-.92-.087-1.307-.259s-.69-.434-.915-.776-.333-.762-.333-1.262c0-.431.079-.788.238-1.069s.377-.507.652-.676.585-.297.929-.383a7.53 7.53 0 0 1 1.079-.194l1.089-.124c.278-.04.481-.1.607-.179s.193-.211.193-.383v-.03c0-.375-.111-.665-.333-.87s-.542-.308-.959-.308c-.441 0-.791.096-1.049.288s-.428.419-.517.681l-1.681-.238c.133-.464.352-.852.657-1.164s.677-.55 1.118-.706.928-.238 1.462-.238c.368 0 .734.043 1.099.129s.697.229.999.427.543.463.726.801.278.761.278 1.268v5.11h-1.73v-1.049h-.06a2.18 2.18 0 0 1-.462.597c-.196.182-.442.33-.741.442s-.641.165-1.039.165zm.467-1.323a1.95 1.95 0 0 0 .94-.214 1.59 1.59 0 0 0 .612-.576c.145-.239.218-.499.218-.781v-.9c-.056.047-.152.09-.288.129s-.282.075-.447.105l-.493.079-.422.06c-.269.037-.509.096-.721.179s-.38.199-.502.348-.184.335-.184.567c0 .331.121.581.363.751s.55.253.924.253zm5.221 1.168v-7.636h1.745v1.273h.079c.14-.441.378-.781.716-1.019s.731-.363 1.169-.363l.333.015c.126.006.23.018.313.034v1.656a1.85 1.85 0 0 0-.363-.07 3.36 3.36 0 0 0-.472-.034c-.328 0-.623.071-.885.213s-.463.333-.612.582a1.64 1.64 0 0 0-.224.86v4.489h-1.799zm7.916.135c-.6 0-1.137-.154-1.611-.463s-.848-.755-1.123-1.342-.413-1.299-.413-2.138c0-.848.139-1.564.418-2.148s.661-1.029 1.138-1.327a2.92 2.92 0 0 1 1.596-.452c.447 0 .815.076 1.104.228s.517.33.686.542a3.26 3.26 0 0 1 .392.592h.075v-3.808h1.805v10.181h-1.77v-1.203h-.11c-.092.186-.227.383-.402.592s-.408.381-.696.527-.652.219-1.089.219zm.502-1.477c.381 0 .706-.103.974-.308s.473-.499.612-.87.209-.804.209-1.298-.07-.923-.209-1.287-.338-.648-.607-.851-.591-.303-.979-.303c-.401 0-.736.105-1.004.313s-.471.498-.607.865-.204.789-.204 1.263.068.903.204 1.278.343.664.612.88.605.318.999.318zm10.034 1.342h-1.969l3.585-10.181h2.277l3.589 10.181h-1.968l-2.72-8.093h-.079l-2.715 8.093zm.065-3.992h5.369v1.482h-5.369v-1.482zm11.624 4.142c-.763 0-1.417-.168-1.964-.503s-.963-.797-1.258-1.387-.438-1.276-.438-2.048.15-1.46.448-2.053a3.33 3.33 0 0 1 1.263-1.392c.547-.335 1.193-.502 1.939-.502.619 0 1.168.114 1.645.343s.864.545 1.149.959.447.892.487 1.442h-1.72a1.65 1.65 0 0 0-.497-.92c-.259-.248-.605-.373-1.04-.373-.367 0-.691.1-.969.299s-.496.477-.651.845-.229.808-.229 1.322c0 .521.076.968.229 1.343s.366.657.641.86.605.298.979.298c.266 0 .503-.05.711-.149s.39-.25.532-.443.241-.426.294-.701h1.72c-.043.541-.202 1.019-.477 1.437s-.65.739-1.124.975-1.031.348-1.67.348zm7.926 0c-.763 0-1.417-.168-1.964-.503s-.963-.797-1.258-1.387-.437-1.276-.437-2.048.149-1.46.447-2.053a3.33 3.33 0 0 1 1.263-1.392c.547-.335 1.193-.502 1.939-.502.619 0 1.168.114 1.645.343s.864.545 1.149.959.447.892.487 1.442h-1.72a1.65 1.65 0 0 0-.497-.92c-.259-.248-.605-.373-1.039-.373-.368 0-.692.1-.97.299s-.495.477-.651.845-.229.808-.229 1.322c0 .521.076.968.229 1.343s.366.657.641.86.605.298.98.298c.265 0 .502-.05.71-.149.213-.103.39-.25.532-.443s.241-.426.294-.701h1.72c-.043.541-.202 1.019-.477 1.437s-.65.739-1.124.975-1.031.348-1.67.348zm7.926 0c-.746 0-1.392-.165-1.939-.493s-.971-.787-1.273-1.377-.447-1.279-.447-2.068.149-1.48.447-2.073.726-1.054 1.273-1.382 1.193-.492 1.939-.492 1.392.164 1.939.492.969.789 1.267 1.382.453 1.284.453 2.073-.151 1.478-.453 2.068a3.31 3.31 0 0 1-1.267 1.377c-.547.328-1.194.493-1.939.493zm.01-1.442c.404 0 .742-.111 1.014-.333s.474-.527.606-.905a3.71 3.71 0 0 0 .204-1.263c0-.467-.068-.89-.204-1.268s-.334-.684-.606-.909-.61-.339-1.014-.339c-.415 0-.759.113-1.034.339s-.476.528-.612.909-.199.801-.199 1.268.066.885.199 1.263.34.679.612.905.619.333 1.034.333zm9.889-1.919v-4.425h1.8v7.636h-1.745v-1.357h-.079c-.173.428-.456.777-.851 1.049s-.873.408-1.446.408c-.501 0-.943-.111-1.328-.333s-.679-.552-.895-.98-.323-.951-.323-1.561v-4.862h1.8v4.584c0 .484.133.868.398 1.153s.613.428 1.044.428a1.65 1.65 0 0 0 .77-.194c.249-.129.453-.322.612-.577s.243-.581.243-.969zm5.297-1.263v4.474h-1.8v-7.636h1.72v1.298h.09c.175-.428.455-.768.84-1.02s.866-.377 1.437-.377c.527 0 .986.112 1.377.338s.699.552.914.979.327.946.324 1.556v4.862h-1.8v-4.583c0-.511-.133-.91-.398-1.199s-.625-.432-1.089-.432c-.315 0-.595.07-.84.209s-.432.333-.572.591-.203.572-.203.94zm10.39-3.162v1.392h-4.39v-1.392h4.39zm-3.306-1.83h1.8v7.17c0 .241.036.427.109.556s.176.212.299.259.258.069.407.069a1.83 1.83 0 0 0 .309-.024l.218-.045.304 1.407a4.21 4.21 0 0 1-.413.109c-.176.04-.391.063-.646.07a2.94 2.94 0 0 1-1.218-.204c-.362-.152-.648-.388-.861-.706-.208-.318-.311-.716-.308-1.193v-7.468z" class="E"/><path d="M649.834 219.883a1.5 1.5 0 1 0-3 0h3zm44.304 31.2a1.5 1.5 0 0 0 0-2.121l-9.546-9.546a1.5 1.5 0 1 0-2.121 2.122l8.485 8.485-8.485 8.485a1.5 1.5 0 0 0 2.121 2.121l9.546-9.546zm-47.304-31.2v6.14h3v-6.14h-3zm25.5 31.64h20.743v-3h-20.743v3zm-25.5-25.5c0 14.083 11.417 25.5 25.5 25.5v-3c-12.426 0-22.5-10.074-22.5-22.5h-3z" class="F"/><rect x="436.242" y="286.168" width="160.99" height="30.415" rx="12.166" class="B C D"/><path d="M495.981 301.577c0 1.097-.206 2.037-.617 2.819s-.964 1.375-1.67 1.79-1.5.621-2.391.621-1.691-.207-2.397-.621-1.259-1.016-1.67-1.795-.612-1.72-.612-2.814.204-2.035.612-2.814.968-1.38 1.67-1.795 1.505-.621 2.397-.621 1.688.207 2.391.621 1.263 1.013 1.67 1.795.617 1.717.617 2.814zm-1.854 0c0-.772-.121-1.423-.363-1.954s-.57-.936-.995-1.208-.913-.413-1.466-.413-1.043.138-1.467.413-.757.675-.999 1.208-.358 1.182-.358 1.954.119 1.425.358 1.959.575.933.999 1.208.913.408 1.467.408 1.042-.136 1.466-.408.756-.678.995-1.208.363-1.187.363-1.959zm8.231 1.879v-4.424h1.8v7.636h-1.745v-1.357h-.079c-.173.427-.456.777-.851 1.049s-.873.407-1.446.407c-.501 0-.943-.111-1.328-.333a2.32 2.32 0 0 1-.895-.979c-.215-.431-.323-.951-.323-1.561v-4.862h1.8v4.583c0 .484.132.869.398 1.154s.613.427 1.044.427a1.64 1.64 0 0 0 .77-.194c.249-.129.453-.321.612-.576s.243-.582.243-.97zm7.31-4.424v1.392h-4.39v-1.392h4.39zm-3.306-1.83h1.8v7.169c0 .242.036.428.109.557s.176.212.298.258.259.07.408.07c.113 0 .215-.008.308-.025l.219-.045.303 1.407c-.096.034-.233.07-.412.11s-.392.063-.647.069c-.451.014-.857-.054-1.218-.203a1.9 1.9 0 0 1-.86-.706c-.209-.319-.311-.716-.308-1.194v-7.467zm7.896 12.489c-.646 0-1.201-.088-1.665-.264s-.837-.404-1.119-.696-.477-.615-.587-.969l1.621-.393c.073.149.179.297.318.442a1.56 1.56 0 0 0 .562.368c.239.1.539.149.9.149.51 0 .933-.124 1.268-.372s.502-.65.502-1.213v-1.447h-.09c-.092.185-.228.376-.407.572a2.11 2.11 0 0 1-.701.492c-.289.132-.652.199-1.089.199-.587 0-1.119-.138-1.596-.413s-.852-.693-1.133-1.243-.418-1.246-.418-2.078c0-.839.139-1.546.418-2.123s.661-1.019 1.138-1.317a2.92 2.92 0 0 1 1.596-.453c.447 0 .815.076 1.104.229a2.14 2.14 0 0 1 .696.542c.172.209.303.406.392.591h.1v-1.262h1.775v7.76c0 .653-.156 1.193-.468 1.621s-.737.747-1.277.96-1.154.318-1.84.318zm.015-4.544c.381 0 .706-.093.974-.279s.473-.452.612-.8.209-.766.209-1.253c0-.481-.07-.902-.209-1.263s-.338-.641-.607-.84-.591-.303-.979-.303c-.401 0-.736.104-1.004.313s-.471.495-.607.86a3.48 3.48 0 0 0-.204 1.233c0 .467.068.877.204 1.228s.343.62.612.815.605.289.999.289zm8.591 1.67c-.746 0-1.392-.164-1.939-.492s-.971-.787-1.273-1.377-.447-1.28-.447-2.068.149-1.48.447-2.074.726-1.054 1.273-1.382 1.193-.492 1.939-.492 1.392.164 1.939.492.969.789 1.268 1.382.452 1.285.452 2.074-.151 1.478-.452 2.068-.721 1.049-1.268 1.377-1.193.492-1.939.492zm.01-1.442c.404 0 .742-.111 1.014-.333s.474-.527.607-.905a3.7 3.7 0 0 0 .204-1.262c0-.468-.068-.89-.204-1.268s-.335-.685-.607-.91-.61-.338-1.014-.338c-.414 0-.759.113-1.034.338a2.04 2.04 0 0 0-.612.91c-.132.378-.198.8-.198 1.268s.066.885.198 1.262a2.04 2.04 0 0 0 .612.905c.275.222.62.333 1.034.333zm5.023 1.293v-7.636h1.799v7.636h-1.799zm.905-8.72c-.286 0-.531-.095-.736-.284a.91.91 0 0 1-.309-.691c0-.271.103-.502.309-.691a1.04 1.04 0 0 1 .736-.288c.288 0 .533.096.735.288s.309.42.309.691a.91.91 0 0 1-.309.691c-.202.189-.447.284-.735.284zm4.391 4.246v4.474h-1.8v-7.636h1.72v1.297h.09c.175-.427.455-.767.84-1.019s.867-.378 1.437-.378c.527 0 .986.113 1.377.338s.699.552.915.98.326.946.323 1.556v4.862h-1.8v-4.584c0-.51-.133-.91-.398-1.198s-.624-.433-1.088-.433a1.68 1.68 0 0 0-.841.209c-.242.136-.432.333-.571.592s-.204.572-.204.94zm9.898 7.497c-.646 0-1.201-.088-1.665-.264s-.837-.404-1.119-.696a2.41 2.41 0 0 1-.586-.969l1.62-.393c.073.149.179.297.319.442.139.15.326.272.561.368s.539.149.9.149c.511 0 .933-.124 1.268-.372s.502-.65.502-1.213v-1.447h-.089c-.093.185-.229.376-.408.572s-.409.359-.701.492-.651.199-1.089.199a3.14 3.14 0 0 1-1.596-.413c-.474-.278-.852-.693-1.133-1.243s-.418-1.246-.418-2.078c0-.839.139-1.546.418-2.123s.661-1.019 1.138-1.317a2.92 2.92 0 0 1 1.596-.453c.448 0 .815.076 1.104.229a2.14 2.14 0 0 1 .696.542 3.05 3.05 0 0 1 .393.591h.099v-1.262h1.775v7.76c0 .653-.156 1.193-.467 1.621s-.738.747-1.278.96-1.154.318-1.84.318zm.015-4.544c.381 0 .706-.093.975-.279s.472-.452.611-.8.209-.766.209-1.253c0-.481-.07-.902-.209-1.263s-.338-.641-.606-.84-.592-.303-.98-.303c-.401 0-.736.104-1.004.313s-.471.495-.607.86-.203.772-.203 1.233c0 .467.068.877.203 1.228s.344.62.612.815.605.289.999.289z" class="E"/><path d="M386.031 55.965a1.5 1.5 0 1 0-3 0h3zm45.272 246.47a1.5 1.5 0 0 0 0-2.122l-9.546-9.546a1.5 1.5 0 1 0-2.121 2.122l8.485 8.485-8.485 8.485a1.5 1.5 0 1 0 2.121 2.122l9.546-9.546zm-48.272-246.47v221.409h3V55.965h-3zm25.5 246.909h21.711v-3h-21.711v3zm-25.5-25.5c0 14.083 11.417 25.5 25.5 25.5v-3c-12.426 0-22.5-10.074-22.5-22.5h-3z" class="F"/><rect x="436.242" y="388.875" width="160.99" height="30.415" rx="12.166" class="B C D"/><path d="M495.054 399.193v10.182h-1.845v-10.182h1.845zm3.563 5.708v4.474h-1.799v-7.636h1.72v1.297h.089c.176-.427.456-.767.841-1.019s.866-.378 1.436-.378c.527 0 .986.113 1.377.338s.7.552.915.98.327.946.323 1.556v4.862h-1.799v-4.584c0-.51-.133-.91-.398-1.198s-.625-.432-1.089-.432c-.315 0-.595.069-.84.208s-.433.333-.572.592-.204.572-.204.94zm9.909 4.623c-.762 0-1.417-.167-1.964-.502s-.963-.797-1.258-1.387-.437-1.276-.437-2.048.149-1.46.447-2.054.719-1.06 1.263-1.392 1.193-.502 1.939-.502c.62 0 1.168.115 1.646.343s.863.545 1.148.96.447.891.487 1.442h-1.72c-.07-.368-.235-.675-.497-.92s-.605-.373-1.039-.373c-.368 0-.691.099-.97.298s-.495.477-.651.845-.229.809-.229 1.323c0 .52.077.968.229 1.342s.366.658.641.86.605.299.98.299c.265 0 .502-.05.711-.15a1.43 1.43 0 0 0 .532-.442c.142-.192.24-.426.293-.701h1.72c-.043.54-.202 1.019-.477 1.437s-.65.739-1.124.974-1.03.348-1.67.348zm7.926 0c-.746 0-1.392-.164-1.939-.492s-.971-.787-1.273-1.377-.447-1.28-.447-2.068.149-1.48.447-2.074.726-1.053 1.273-1.382 1.193-.492 1.939-.492 1.392.164 1.939.492.969.789 1.268 1.382.452 1.285.452 2.074-.151 1.478-.452 2.068-.721 1.049-1.268 1.377-1.193.492-1.939.492zm.01-1.442c.404 0 .742-.111 1.014-.333s.474-.527.607-.905a3.7 3.7 0 0 0 .203-1.262c0-.468-.067-.89-.203-1.268s-.335-.685-.607-.91-.61-.338-1.014-.338c-.414 0-.759.113-1.034.338a2.04 2.04 0 0 0-.612.91c-.132.378-.199.8-.199 1.268s.067.885.199 1.262a2.04 2.04 0 0 0 .612.905c.275.222.62.333 1.034.333zm5.023 1.293v-7.636h1.72v1.297h.089c.159-.437.423-.779.791-1.024s.807-.373 1.317-.373c.517 0 .953.126 1.308.378a1.97 1.97 0 0 1 .755 1.019h.08c.169-.424.454-.762.855-1.014s.883-.383 1.437-.383c.703 0 1.276.222 1.72.666s.666 1.092.666 1.944v5.126h-1.804v-4.847c0-.474-.126-.821-.378-1.039s-.56-.333-.925-.333c-.434 0-.774.135-1.019.407s-.363.618-.363 1.049v4.763h-1.765v-4.922c0-.394-.119-.709-.358-.944s-.544-.353-.925-.353a1.31 1.31 0 0 0-.706.198c-.212.13-.381.314-.507.552s-.189.511-.189.826v4.643h-1.799zm15.791.149c-.766 0-1.427-.159-1.984-.477s-.979-.776-1.278-1.362-.447-1.285-.447-2.083c0-.786.149-1.475.447-2.069s.723-1.06 1.263-1.392 1.175-.502 1.904-.502c.471 0 .915.076 1.333.229a3 3 0 0 1 1.113.696c.325.315.58.716.766 1.203s.278 1.061.278 1.73v.552h-6.259v-1.213h4.534c-.003-.345-.078-.651-.224-.92a1.62 1.62 0 0 0-.611-.641c-.259-.156-.56-.234-.905-.234a1.75 1.75 0 0 0-.969.269 1.84 1.84 0 0 0-.652.696c-.152.285-.23.598-.233.939v1.059c0 .444.081.826.243 1.144s.39.557.681.726.633.248 1.025.248c.261 0 .498-.036.71-.109s.397-.187.552-.333.274-.327.353-.542l1.681.189a2.62 2.62 0 0 1-.607 1.163 2.97 2.97 0 0 1-1.133.766c-.461.179-.988.268-1.581.268z" class="E"/><path d="M386.031 55.965a1.5 1.5 0 1 0-3 0h3zm45.272 349.177a1.5 1.5 0 0 0 0-2.122l-9.546-9.546a1.5 1.5 0 1 0-2.121 2.122l8.485 8.485-8.485 8.485a1.5 1.5 0 1 0 2.121 2.122l9.546-9.546zM383.031 55.965v324.116h3V55.965h-3zm25.5 349.616h21.711v-3h-21.711v3zm-25.5-25.5c0 14.083 11.417 25.5 25.5 25.5v-3c-12.426 0-22.5-10.074-22.5-22.5h-3z" class="F"/><rect x="567.84" y="337.523" width="160.99" height="30.415" rx="12.166" class="B C D"/><path d="M624.997 358.023v-10.181h6.622v1.546h-4.777v2.764h4.434v1.546h-4.434v2.779h4.817v1.546h-6.662zm11.104.135c-.6 0-1.137-.154-1.611-.463s-.848-.755-1.123-1.342-.413-1.299-.413-2.138c0-.848.139-1.564.418-2.148s.661-1.029 1.138-1.327 1.01-.452 1.596-.452c.448 0 .816.076 1.104.228s.517.33.686.542.3.406.393.592h.074v-3.808h1.805v10.181h-1.77v-1.203h-.109c-.093.186-.227.383-.403.592s-.408.381-.696.527-.651.219-1.089.219zm.502-1.477c.382 0 .706-.103.975-.308a1.93 1.93 0 0 0 .611-.87c.139-.371.209-.804.209-1.298s-.07-.923-.209-1.287a1.84 1.84 0 0 0-.606-.851c-.265-.202-.592-.303-.98-.303-.401 0-.735.105-1.004.313s-.471.498-.606.865-.204.789-.204 1.263.068.903.204 1.278.343.664.611.88.605.318.999.318zm5.329 1.342v-7.636h1.799v7.636h-1.799zm.905-8.72a1.05 1.05 0 0 1-.736-.283.91.91 0 0 1-.308-.691.9.9 0 0 1 .308-.691 1.04 1.04 0 0 1 .736-.289 1.03 1.03 0 0 1 .735.289.9.9 0 0 1 .309.691c0 .268-.103.499-.309.691s-.447.283-.735.283zm6.404 1.084v1.392h-4.39v-1.392h4.39zm-3.306-1.829h1.8v7.169c0 .242.036.427.109.556s.176.213.299.259.258.07.407.07c.113 0 .216-.009.309-.025l.218-.045.304 1.407a4.21 4.21 0 0 1-.413.109c-.176.04-.391.063-.646.07a2.94 2.94 0 0 1-1.218-.204 1.89 1.89 0 0 1-.86-.706c-.209-.318-.312-.716-.309-1.193v-7.467zm8.056 9.465v-10.181h3.897c.736 0 1.348.116 1.835.348s.857.542 1.099.939.368.849.368 1.353c0 .414-.08.768-.239 1.063s-.373.529-.641.711a2.7 2.7 0 0 1-.9.393v.1a2.19 2.19 0 0 1 1.039.333c.335.199.608.48.82.845s.318.805.318 1.322a2.69 2.69 0 0 1-.382 1.422c-.256.418-.64.748-1.154.99s-1.16.362-1.939.362h-4.121zm1.844-1.541h1.984c.669 0 1.152-.127 1.447-.383s.447-.59.447-.994c0-.301-.075-.573-.224-.815s-.361-.438-.636-.577-.603-.214-.984-.214h-2.034v2.983zm0-4.31h1.825c.318 0 .605-.058.86-.174s.456-.287.601-.502a1.34 1.34 0 0 0 .224-.776c0-.394-.139-.719-.417-.974s-.685-.383-1.228-.383h-1.865v2.809zm7.123 5.851v-7.636h1.8v7.636h-1.8zm.905-8.72a1.05 1.05 0 0 1-.736-.283c-.205-.192-.308-.423-.308-.691s.103-.502.308-.691a1.04 1.04 0 0 1 .736-.289 1.03 1.03 0 0 1 .736.289c.205.189.308.419.308.691s-.103.499-.308.691-.447.283-.736.283zm4.391-1.461v10.181h-1.799v-10.181h1.799zm3.497 0v10.181h-1.8v-10.181h1.8z" class="E"/><path d="M518.236 322.586a1.5 1.5 0 1 0-3 0h3zm44.664 31.208a1.5 1.5 0 0 0 0-2.121l-9.546-9.546a1.5 1.5 0 1 0-2.122 2.121l8.486 8.486-8.486 8.485a1.5 1.5 0 1 0 2.122 2.121l9.546-9.546zm-47.664-31.208v6.148h3v-6.148h-3zm25.5 31.648h21.103v-3h-21.103v3zm-25.5-25.5c0 14.083 11.417 25.5 25.5 25.5v-3c-12.426 0-22.5-10.074-22.5-22.5h-3z" class="F"/><rect x="558.629" y=".598" width="209.367" height="51.228" rx="20.491" class="G"/><path d="M588.359 24.75h-3.196a2.76 2.76 0 0 0-.263-.889 2.15 2.15 0 0 0-.524-.678c-.217-.187-.475-.33-.773-.428s-.62-.153-.978-.153c-.635 0-1.183.156-1.643.467s-.807.761-1.055 1.349c-.242.588-.364 1.3-.364 2.135 0 .869.124 1.598.371 2.186s.603 1.025 1.055 1.323.995.441 1.617.441c.349 0 .667-.045.952-.134a2.34 2.34 0 0 0 .761-.39 2.17 2.17 0 0 0 .543-.633c.145-.251.245-.535.301-.85l3.196.019c-.056.579-.224 1.15-.505 1.713a5.47 5.47 0 0 1-1.145 1.541c-.485.46-1.078.827-1.777 1.099s-1.491.409-2.39.409c-1.185 0-2.246-.26-3.183-.78s-1.671-1.287-2.212-2.288-.812-2.22-.812-3.656.275-2.661.825-3.663 1.293-1.762 2.231-2.282 1.987-.78 3.151-.78c.792 0 1.525.111 2.199.332s1.265.537 1.777.959.926.931 1.246 1.54.518 1.306.595 2.09zm1.468 8.348V23.28h3.036v1.79h.103c.179-.648.47-1.129.875-1.445s.876-.479 1.413-.479a3.24 3.24 0 0 1 .447.032 2.53 2.53 0 0 1 .429.083v2.717c-.149-.051-.346-.092-.588-.121a5.21 5.21 0 0 0-.64-.045c-.37 0-.705.083-1.003.249s-.526.39-.697.684-.249.631-.249 1.023v5.331h-3.126zm11.314.185c-1.027 0-1.913-.202-2.659-.607s-1.313-.991-1.713-1.745-.595-1.66-.595-2.704c0-1.014.201-1.901.601-2.659a4.34 4.34 0 0 1 1.694-1.777c.729-.426 1.587-.639 2.576-.639.699 0 1.338.109 1.918.326s1.08.539 1.502.965.75.952.984 1.579.352 1.336.352 2.141v.78h-8.534v-1.815h5.625c-.004-.332-.083-.629-.236-.889s-.364-.462-.633-.607-.569-.224-.914-.224-.663.079-.94.236a1.74 1.74 0 0 0-.658.633c-.162.264-.247.565-.256.901v1.847c0 .401.079.752.237 1.055s.381.531.671.697.635.249 1.036.249c.277 0 .528-.038.754-.115a1.6 1.6 0 0 0 .581-.339 1.4 1.4 0 0 0 .365-.55l2.87.083c-.119.643-.382 1.204-.786 1.681s-.927.842-1.579 1.106-1.406.39-2.263.39zm9.5-.045c-.724 0-1.383-.187-1.975-.562s-1.065-.938-1.419-1.688-.531-1.681-.531-2.793c0-1.155.184-2.105.55-2.851s.846-1.298 1.438-1.655c.597-.358 1.238-.537 1.924-.537.516 0 .957.09 1.324.269s.669.401.907.678.42.565.544.863h.063v-4.954h3.126v13.091h-3.094v-1.592h-.095a3.09 3.09 0 0 1-.563.85c-.243.264-.548.477-.914.639s-.791.243-1.285.243zm1.087-2.435c.379 0 .703-.107.971-.32s.476-.522.62-.914.218-.852.218-1.381c0-.537-.073-.999-.218-1.387-.14-.388-.347-.686-.62-.895-.268-.209-.592-.313-.971-.313-.388 0-.716.107-.985.32s-.473.514-.613.901-.205.846-.205 1.374.071.989.211 1.381.343.697.607.914.597.32.985.32zm6.499 2.295V23.28h3.126v9.818h-3.126zm1.566-10.962a1.61 1.61 0 0 1-1.131-.435c-.316-.294-.473-.648-.473-1.061a1.37 1.37 0 0 1 .473-1.048 1.6 1.6 0 0 1 1.131-.441c.443 0 .82.147 1.131.441a1.37 1.37 0 0 1 .473 1.048c0 .413-.157.767-.473 1.061-.311.29-.688.435-1.131.435zm8.749 1.144v2.301h-6.194V23.28h6.194zm-4.896-2.352h3.125v9.083c0 .192.03.347.09.467s.155.198.275.249.262.07.428.07c.119 0 .245-.011.377-.032l.307-.064.473 2.256-.633.16c-.268.064-.59.104-.965.122-.733.034-1.362-.051-1.886-.256s-.918-.533-1.195-.972-.405-.991-.396-1.656v-9.428zm21.557 3.822h-3.196c-.043-.328-.13-.624-.262-.889s-.307-.49-.524-.678a2.25 2.25 0 0 0-.774-.428c-.294-.102-.62-.153-.978-.153-.635 0-1.182.156-1.643.467s-.807.761-1.054 1.349-.365 1.3-.365 2.135c0 .869.124 1.598.371 2.186s.603 1.025 1.055 1.323.995.441 1.617.441c.349 0 .667-.045.952-.134a2.33 2.33 0 0 0 .761-.39 2.14 2.14 0 0 0 .543-.633c.145-.251.245-.535.301-.85l3.196.019c-.056.579-.224 1.15-.505 1.713s-.659 1.076-1.144 1.541-1.078.827-1.777 1.099-1.492.409-2.391.409c-1.185 0-2.246-.26-3.183-.78s-1.671-1.287-2.212-2.288-.812-2.22-.812-3.656.275-2.661.825-3.663 1.293-1.762 2.231-2.282 1.988-.78 3.151-.78c.793 0 1.526.111 2.199.332s1.266.537 1.777.959a4.9 4.9 0 0 1 1.246 1.54c.32.609.518 1.306.595 2.09zm4.236 8.514c-.626 0-1.182-.104-1.668-.313s-.863-.533-1.144-.959-.416-.969-.416-1.617c0-.545.096-1.006.288-1.381s.456-.68.792-.914.725-.411 1.164-.53.907-.207 1.406-.249l1.349-.16c.341-.06.588-.143.741-.249s.237-.266.237-.467v-.032c0-.328-.113-.582-.339-.761s-.531-.268-.914-.268c-.413 0-.746.09-.997.268a1.18 1.18 0 0 0-.48.742l-2.883-.102c.086-.597.305-1.129.659-1.598s.848-.844 1.47-1.112 1.379-.409 2.256-.409c.627 0 1.204.075 1.733.224s.988.358 1.38.639a2.89 2.89 0 0 1 1.234 2.41v6.673h-2.94V31.73h-.077c-.175.332-.398.614-.671.844a2.68 2.68 0 0 1-.953.518c-.362.115-.771.173-1.227.173zm.965-2.045c.337 0 .64-.068.908-.205s.49-.324.652-.562.243-.524.243-.844v-.933a1.88 1.88 0 0 1-.326.128l-.409.109-.46.089-.454.07c-.294.047-.546.119-.755.217s-.362.226-.473.384-.159.337-.159.55c0 .324.115.571.345.742s.53.256.888.256zm6.472 1.879V23.28h3.036v1.79h.103c.179-.648.471-1.129.875-1.445s.876-.479 1.413-.479c.145 0 .294.011.448.032s.296.045.428.083v2.717c-.149-.051-.345-.092-.588-.121s-.452-.045-.639-.045c-.371 0-.706.083-1.004.249s-.526.39-.697.684c-.166.29-.249.631-.249 1.023v5.331h-3.126zm10.311.141a3.62 3.62 0 0 1-1.976-.562c-.592-.375-1.065-.938-1.419-1.688s-.53-1.681-.53-2.793c0-1.155.183-2.105.55-2.851s.845-1.298 1.438-1.655 1.238-.537 1.924-.537c.515 0 .956.09 1.323.269s.669.401.908.678a3.23 3.23 0 0 1 .543.863h.064v-4.954h3.126v13.091h-3.094v-1.592h-.096c-.132.303-.32.586-.563.85s-.547.477-.914.639-.79.243-1.284.243zm1.086-2.435c.38 0 .703-.107.972-.32s.475-.522.62-.914.217-.852.217-1.381c0-.537-.072-.999-.217-1.387s-.347-.686-.62-.895-.592-.313-.972-.313c-.388 0-.716.107-.984.32s-.473.514-.614.901c-.136.388-.204.846-.204 1.374s.07.989.211 1.381.343.697.607.914.596.32.984.32zm12.856 2.295h-3.4l4.417-13.091h4.212l4.417 13.091h-3.401l-3.074-9.793h-.103l-3.068 9.793zm-.454-5.152h7.108v2.403h-7.108v-2.403zm15.135 5.337c-1.035 0-1.924-.213-2.665-.639s-1.304-1.018-1.701-1.777-.594-1.645-.594-2.646.198-1.888.594-2.646a4.36 4.36 0 0 1 1.707-1.783c.741-.426 1.626-.639 2.653-.639.907 0 1.698.164 2.371.492s1.206.793 1.585 1.393.586 1.298.608 2.103h-2.922c-.059-.503-.23-.897-.511-1.183s-.639-.428-1.087-.428c-.362 0-.679.102-.952.307s-.486.499-.639.895-.224.878-.224 1.457.075 1.07.224 1.47.366.697.639.901.59.3.952.3c.29 0 .546-.062.767-.185s.412-.305.557-.543a2.18 2.18 0 0 0 .274-.882h2.922c-.03.81-.233 1.517-.608 2.122s-.892 1.076-1.566 1.413c-.669.332-1.463.499-2.384.499zm10.398 0c-1.035 0-1.924-.213-2.665-.639a4.32 4.32 0 0 1-1.7-1.777c-.397-.763-.595-1.645-.595-2.646s.198-1.888.595-2.646.969-1.357 1.706-1.783c.742-.426 1.626-.639 2.653-.639.908 0 1.698.164 2.371.492s1.206.793 1.586 1.393.586 1.298.607 2.103h-2.921c-.06-.503-.23-.897-.512-1.183-.277-.285-.639-.428-1.086-.428-.363 0-.68.102-.953.307s-.486.499-.639.895-.224.878-.224 1.457.075 1.07.224 1.47.367.697.639.901.59.3.953.3a1.55 1.55 0 0 0 .767-.185c.226-.124.411-.305.556-.543a2.18 2.18 0 0 0 .275-.882h2.921c-.03.81-.232 1.517-.607 2.122s-.893 1.076-1.566 1.413-1.464.499-2.385.499zm10.399 0c-1.032 0-1.918-.211-2.66-.633a4.36 4.36 0 0 1-1.706-1.777c-.397-.763-.595-1.647-.595-2.653s.198-1.894.595-2.653a4.31 4.31 0 0 1 1.706-1.777c.742-.426 1.628-.639 2.66-.639s1.915.213 2.652.639 1.311 1.014 1.707 1.777.601 1.643.601 2.653-.2 1.89-.601 2.653-.965 1.351-1.707 1.777-1.621.633-2.652.633zm.019-2.359c.375 0 .692-.115.952-.345s.458-.55.595-.959.211-.882.211-1.419c0-.545-.071-1.023-.211-1.432s-.335-.729-.595-.959-.577-.345-.952-.345c-.388 0-.716.115-.985.345s-.466.55-.607.959-.204.886-.204 1.432c0 .537.068 1.01.204 1.419s.343.729.607.959.597.345.985.345zm12.535-2.065v-5.58h3.119v9.818h-2.979V31.27h-.102c-.217.601-.588 1.078-1.112 1.432s-1.149.524-1.886.524c-.669 0-1.257-.153-1.764-.46s-.901-.735-1.183-1.285-.424-1.202-.428-1.943V23.28h3.126v5.644c.004.533.145.952.422 1.259s.654.46 1.131.46c.311 0 .59-.068.837-.204a1.51 1.51 0 0 0 .595-.607c.149-.268.224-.592.224-.972zm7.892-1.361v5.6h-3.126V23.28h2.973v1.803h.108c.218-.601.588-1.072 1.113-1.413s1.148-.518 1.872-.518c.691 0 1.289.156 1.797.467a3.12 3.12 0 0 1 1.189 1.291c.285.55.426 1.193.421 1.93v6.258h-3.125v-5.644c.004-.545-.135-.972-.416-1.278s-.662-.46-1.157-.46c-.328 0-.618.072-.869.217a1.44 1.44 0 0 0-.575.607c-.132.264-.201.584-.205.959zm13.482-4.219v2.301h-6.193V23.28h6.193zm-4.896-2.352h3.126v9.083c0 .192.03.347.089.467a.56.56 0 0 0 .275.249c.12.047.262.07.428.07.12 0 .246-.011.378-.032l.306-.064.473 2.256-.632.16c-.269.064-.591.104-.966.122-.733.034-1.361-.051-1.885-.256s-.919-.533-1.196-.972c-.272-.439-.404-.991-.396-1.656v-9.428z" fill="#fff"/><rect x="714.848" y="80.422" width="160.993" height="30.416" rx="12.166" class="B C D"/><path d="M756.136 90.74v10.182h-1.641l-4.797-6.935h-.085v6.935h-1.844V90.74h1.65l4.793 6.94h.089v-6.94h1.835zm1.776 10.182v-7.636h1.8v7.636h-1.8zm.905-8.72a1.05 1.05 0 0 1-.736-.283c-.205-.192-.308-.423-.308-.691s.103-.502.308-.691a1.04 1.04 0 0 1 .736-.288 1.03 1.03 0 0 1 .736.288c.205.189.308.419.308.691s-.103.499-.308.691a1.04 1.04 0 0 1-.736.283zm4.391-1.462v10.182h-1.8V90.74h1.8zm5.077 10.331c-.765 0-1.426-.159-1.983-.477a3.23 3.23 0 0 1-1.278-1.362c-.298-.59-.447-1.284-.447-2.083 0-.785.149-1.475.447-2.068s.723-1.061 1.263-1.392 1.175-.502 1.904-.502c.471 0 .915.076 1.332.229s.793.381 1.114.696.58.716.766 1.203.278 1.061.278 1.73v.552h-6.259v-1.213h4.534a1.93 1.93 0 0 0-.224-.92c-.146-.272-.349-.486-.611-.641a1.72 1.72 0 0 0-.905-.234c-.368 0-.691.09-.97.268s-.495.408-.651.696-.23.598-.234.94v1.059c0 .444.082.825.244 1.143a1.74 1.74 0 0 0 .681.726c.292.166.633.248 1.024.248.262 0 .499-.036.711-.109s.396-.187.552-.333a1.38 1.38 0 0 0 .353-.542l1.68.189a2.62 2.62 0 0 1-.606 1.163c-.295.328-.673.583-1.134.766s-.987.268-1.581.268zm8.163-.149V90.74h3.898c.735 0 1.347.116 1.834.348s.857.542 1.099.94.368.849.368 1.352c0 .414-.08.769-.239 1.064a2.01 2.01 0 0 1-.641.711c-.269.182-.569.313-.9.393v.099c.361.02.707.131 1.039.333s.608.481.82.845.318.805.318 1.322a2.69 2.69 0 0 1-.382 1.422c-.256.418-.64.747-1.154.989s-1.16.363-1.939.363h-4.121zm1.844-1.541h1.984c.669 0 1.152-.128 1.447-.383s.447-.59.447-.994c0-.302-.074-.573-.224-.815s-.361-.437-.636-.577-.603-.214-.984-.214h-2.034v2.983zm0-4.31h1.825c.318 0 .605-.058.86-.174s.456-.287.601-.502.224-.477.224-.776c0-.394-.139-.719-.417-.974s-.685-.383-1.228-.383h-1.865v2.809zm9.321 6.006c-.484 0-.92-.086-1.308-.259a2.13 2.13 0 0 1-.914-.775c-.222-.341-.334-.762-.334-1.263 0-.431.08-.787.239-1.069s.376-.507.651-.676.585-.297.93-.383a7.57 7.57 0 0 1 1.079-.194l1.089-.124c.278-.04.48-.099.606-.179s.194-.21.194-.383v-.03c0-.374-.111-.665-.333-.87s-.542-.308-.959-.308c-.441 0-.791.096-1.049.288a1.43 1.43 0 0 0-.518.681l-1.68-.239c.133-.464.351-.852.656-1.163s.678-.55 1.119-.706a4.28 4.28 0 0 1 1.462-.239 4.76 4.76 0 0 1 1.098.129c.365.086.698.229 1 .428s.543.462.725.8.279.761.279 1.268v5.111h-1.73v-1.049h-.06c-.109.212-.263.411-.462.596s-.443.33-.741.443-.641.164-1.039.164zm.467-1.322c.361 0 .675-.071.94-.214s.469-.338.611-.577a1.47 1.47 0 0 0 .219-.781v-.9c-.056.046-.152.09-.288.129s-.282.075-.448.104l-.492.08-.422.06a3.14 3.14 0 0 0-.721.179c-.212.083-.38.199-.502.348s-.184.335-.184.567c0 .331.121.582.362.751s.551.254.925.254zm7.02-3.306v4.475h-1.8v-7.636h1.721v1.298h.089c.176-.428.456-.767.84-1.019s.867-.378 1.437-.378c.527 0 .986.113 1.377.338a2.27 2.27 0 0 1 .915.98c.219.427.327.946.323 1.556v4.862h-1.8v-4.584c0-.51-.132-.91-.397-1.198s-.625-.432-1.089-.432a1.67 1.67 0 0 0-.84.209c-.242.136-.433.333-.572.592s-.204.572-.204.94zm8.218 2.078l-.005-2.173h.289l2.744-3.067h2.103l-3.376 3.758h-.373l-1.382 1.482zm-1.64 2.396V90.74h1.799v10.182h-1.799zm4.792 0l-2.485-3.475 1.213-1.268 3.425 4.743h-2.153zm15.138-6.747h-1.86c-.053-.305-.15-.575-.293-.81a2.17 2.17 0 0 0-.532-.607c-.212-.166-.454-.29-.726-.373s-.558-.129-.87-.129c-.553 0-1.044.139-1.471.418s-.763.679-1.005 1.213-.362 1.178-.362 1.944c0 .779.121 1.435.362 1.969s.58.931 1.005 1.203.916.403 1.466.403a2.96 2.96 0 0 0 .855-.119c.269-.083.509-.204.721-.363s.396-.355.542-.587a2.21 2.21 0 0 0 .308-.795l1.86.01c-.07.484-.221.938-.453 1.362s-.528.799-.899 1.124-.806.573-1.303.756-1.049.268-1.656.268c-.894 0-1.693-.207-2.396-.621s-1.256-1.013-1.66-1.795-.607-1.72-.607-2.814.204-2.035.612-2.814.962-1.38 1.665-1.795 1.498-.621 2.386-.621c.567 0 1.094.08 1.581.239a4.04 4.04 0 0 1 1.303.701c.381.305.694.679.94 1.124s.411.945.487 1.511zm3.653 6.901c-.484 0-.92-.086-1.308-.259a2.13 2.13 0 0 1-.914-.775c-.223-.341-.334-.762-.334-1.263 0-.431.08-.787.239-1.069s.376-.507.651-.676.585-.297.93-.383a7.57 7.57 0 0 1 1.079-.194l1.089-.124c.278-.04.48-.099.606-.179s.194-.21.194-.383v-.03c0-.374-.111-.665-.333-.87s-.542-.308-.96-.308c-.44 0-.79.096-1.049.288s-.427.419-.517.681l-1.68-.239c.133-.464.351-.852.656-1.163s.678-.55 1.119-.706a4.28 4.28 0 0 1 1.462-.239 4.76 4.76 0 0 1 1.098.129c.365.086.698.229 1 .428s.543.462.725.8.279.761.279 1.268v5.111h-1.73v-1.049h-.06c-.109.212-.263.411-.462.596s-.443.33-.741.443-.641.164-1.039.164zm.467-1.322c.361 0 .675-.071.94-.214s.469-.338.611-.577a1.47 1.47 0 0 0 .219-.781v-.9c-.056.046-.152.09-.288.129s-.282.075-.448.104l-.492.08-.423.06c-.268.036-.508.096-.72.179s-.38.199-.503.348-.183.335-.183.567c0 .331.121.582.362.751s.551.254.925.254zm5.22 1.168v-7.636h1.745v1.273h.08c.139-.441.378-.781.716-1.019a1.97 1.97 0 0 1 1.168-.363l.333.015c.126.007.231.018.314.035v1.656a1.92 1.92 0 0 0-.363-.07 3.35 3.35 0 0 0-.473-.035 1.82 1.82 0 0 0-.885.214c-.258.139-.462.333-.611.582a1.64 1.64 0 0 0-.224.86v4.489h-1.8zm7.917.134c-.6 0-1.137-.154-1.611-.462s-.849-.756-1.124-1.343-.412-1.299-.412-2.138c0-.848.139-1.564.417-2.148s.661-1.029 1.139-1.327 1.009-.452 1.596-.452c.447 0 .815.076 1.103.229s.517.33.686.542.3.406.393.592h.075V90.74h1.804v10.182h-1.77v-1.203h-.109c-.093.186-.227.383-.403.591a2.18 2.18 0 0 1-.696.527c-.288.146-.651.219-1.088.219zm.502-1.477c.381 0 .706-.103.974-.308s.472-.499.612-.87.208-.804.208-1.298-.069-.923-.208-1.288-.338-.648-.607-.85-.591-.303-.979-.303c-.401 0-.736.104-1.005.313s-.47.497-.606.865-.204.789-.204 1.263.068.903.204 1.278.343.665.611.88.605.318 1 .318z" class="E"/><use href="#B" fill="#0d99ff"/><use href="#B" class="F"/><rect x="847.398" y="131.77" width="160.993" height="30.416" rx="12.166" class="B C D"/><path d="M904.557 152.27v-10.182h6.623v1.546h-4.778v2.764h4.435v1.546h-4.435v2.779h4.817v1.547h-6.662zm11.105.134c-.6 0-1.137-.154-1.611-.463s-.849-.755-1.124-1.342-.412-1.299-.412-2.138c0-.848.139-1.564.417-2.147s.661-1.03 1.139-1.328a2.93 2.93 0 0 1 1.596-.452c.447 0 .815.076 1.103.228s.517.33.686.542.3.406.393.592h.075v-3.808h1.804v10.182h-1.77v-1.204h-.109c-.093.186-.227.383-.403.592s-.407.381-.696.527-.651.219-1.088.219zm.502-1.477c.381 0 .706-.103.974-.308s.472-.499.612-.87.208-.804.208-1.298-.069-.923-.208-1.287-.338-.648-.607-.85-.592-.304-.979-.304c-.401 0-.736.105-1.005.314s-.47.497-.606.865-.204.788-.204 1.262.068.904.204 1.278.343.665.611.88.605.318 1 .318zm5.328 1.343v-7.637h1.8v7.637h-1.8zm.905-8.721a1.05 1.05 0 0 1-.736-.283c-.205-.192-.308-.423-.308-.691s.103-.502.308-.691a1.04 1.04 0 0 1 .736-.288 1.03 1.03 0 0 1 .736.288c.205.189.308.419.308.691s-.103.499-.308.691-.448.283-.736.283zm6.405 1.084v1.392h-4.39v-1.392h4.39zm-3.306-1.829h1.799v7.169c0 .242.037.427.11.556s.175.213.298.259.259.07.408.07a1.82 1.82 0 0 0 .308-.025l.219-.045.303 1.407c-.096.033-.234.07-.413.109a3.38 3.38 0 0 1-.646.07 2.94 2.94 0 0 1-1.218-.204c-.361-.152-.648-.388-.86-.706s-.312-.716-.308-1.193v-7.467zm8.055 9.466v-10.182h3.898c.736 0 1.347.116 1.834.348s.857.542 1.099.939.368.849.368 1.353c0 .414-.08.769-.239 1.064a2.01 2.01 0 0 1-.641.71 2.68 2.68 0 0 1-.9.393v.1c.361.02.708.131 1.039.333s.608.48.82.845.319.805.319 1.322a2.69 2.69 0 0 1-.383 1.422c-.255.418-.64.748-1.154.99s-1.16.363-1.938.363h-4.122zm1.845-1.542h1.983c.67 0 1.152-.127 1.447-.382s.447-.59.447-.995c0-.301-.074-.573-.223-.815a1.54 1.54 0 0 0-.637-.577c-.275-.142-.603-.214-.984-.214h-2.033v2.983zm0-4.31h1.824c.318 0 .605-.058.86-.174s.456-.287.602-.502.223-.477.223-.776c0-.394-.139-.719-.417-.974s-.685-.383-1.228-.383h-1.864v2.809zm7.123 5.852v-7.637h1.799v7.637h-1.799zm.905-8.721a1.05 1.05 0 0 1-.736-.283.91.91 0 0 1-.308-.691.9.9 0 0 1 .308-.691 1.04 1.04 0 0 1 .736-.288c.288 0 .533.096.735.288a.9.9 0 0 1 .309.691c0 .268-.103.499-.309.691s-.447.283-.735.283zm4.391-1.461v10.182h-1.8v-10.182h1.8zm3.496 0v10.182h-1.8v-10.182h1.8z" class="E"/><path d="M796.844 116.836a1.5 1.5 0 1 0-3 0h3zm45.614 31.2a1.5 1.5 0 0 0 0-2.121l-9.545-9.546a1.5 1.5 0 1 0-2.122 2.121l8.485 8.486-8.485 8.485a1.5 1.5 0 1 0 2.122 2.121l9.545-9.546zm-48.614-31.2v6.14h3v-6.14h-3zm25.5 31.64h22.054v-3h-22.054v3zm-25.5-25.5c0 14.083 11.416 25.5 25.5 25.5v-3c-12.427 0-22.5-10.074-22.5-22.5h-3z" class="F"/><rect x="978.932" y="183.125" width="160.993" height="30.416" rx="12.166" class="B C D"/><path d="M1025.72 196.879h-1.86a2.31 2.31 0 0 0-.29-.811c-.15-.238-.32-.441-.54-.606-.21-.166-.45-.29-.72-.373a2.85 2.85 0 0 0-.87-.129c-.56 0-1.05.139-1.47.417-.43.275-.77.68-1.01 1.213s-.36 1.178-.36 1.944c0 .779.12 1.435.36 1.969.25.53.58.931 1.01 1.203.42.268.91.403 1.46.403a2.98 2.98 0 0 0 .86-.12 2.28 2.28 0 0 0 .72-.363c.21-.159.4-.354.54-.586.15-.232.25-.497.31-.796l1.86.01a4.05 4.05 0 0 1-.45 1.362c-.23.425-.53.799-.9 1.124a4.26 4.26 0 0 1-1.31.756c-.49.179-1.05.268-1.65.268-.9 0-1.7-.207-2.4-.621s-1.25-1.013-1.66-1.795c-.4-.782-.61-1.72-.61-2.814s.21-2.035.62-2.814a4.33 4.33 0 0 1 1.66-1.795c.7-.414 1.5-.621 2.39-.621.56 0 1.09.08 1.58.239a3.98 3.98 0 0 1 1.3.701c.38.305.7.679.94 1.123.25.441.41.945.49 1.512zm4.78 6.895c-.74 0-1.39-.164-1.93-.492-.55-.328-.98-.787-1.28-1.377-.29-.59-.44-1.28-.44-2.068s.15-1.48.44-2.074c.3-.593.73-1.053 1.28-1.382.54-.328 1.19-.492 1.93-.492.75 0 1.4.164 1.94.492.55.329.97.789 1.27 1.382s.45 1.285.45 2.074-.15 1.478-.45 2.068-.72 1.049-1.27 1.377c-.54.328-1.19.492-1.94.492zm.01-1.442c.41 0 .75-.111 1.02-.333s.47-.527.61-.905c.13-.377.2-.798.2-1.262s-.07-.89-.2-1.268c-.14-.381-.34-.685-.61-.91s-.61-.338-1.02-.338-.75.113-1.03.338c-.27.225-.47.529-.61.91-.13.378-.2.8-.2 1.268s.07.885.2 1.262c.14.378.34.68.61.905.28.222.62.333 1.03.333zm6.83-3.181v4.474h-1.8v-7.636h1.72v1.297h.09a2.12 2.12 0 0 1 .84-1.019c.39-.252.86-.378 1.43-.378.53 0 .99.113 1.38.338.4.226.7.552.92.98.21.427.32.946.32 1.556v4.862h-1.8v-4.584c0-.51-.13-.91-.4-1.198-.26-.288-.62-.432-1.09-.432a1.7 1.7 0 0 0-.84.208 1.46 1.46 0 0 0-.57.592c-.13.258-.2.572-.2.94zm10.44-3.162v1.392h-4.51v-1.392h4.51zm-3.38 7.636v-8.357c0-.514.1-.942.32-1.283a1.98 1.98 0 0 1 .86-.766c.36-.169.76-.253 1.2-.253a4.13 4.13 0 0 1 .83.074l.54.135-.36 1.392c-.07-.023-.17-.047-.29-.07a1.68 1.68 0 0 0-.38-.04c-.34 0-.58.082-.71.244-.14.159-.21.388-.21.686v8.238h-1.8zm4.64 0v-7.636h1.8v7.636h-1.8zm.9-8.72c-.28 0-.53-.095-.73-.284-.21-.192-.31-.422-.31-.691a.89.89 0 0 1 .31-.691c.2-.192.45-.288.73-.288.29 0 .54.096.74.288s.31.42.31.691-.11.499-.31.691-.45.284-.74.284zm2.59 8.72v-7.636h1.75v1.272h.08c.14-.44.38-.78.72-1.019s.73-.363 1.16-.363l.34.015c.12.007.23.018.31.035v1.656a1.98 1.98 0 0 0-.36-.07 3.48 3.48 0 0 0-.48-.035c-.32 0-.62.071-.88.214s-.46.333-.61.582-.23.535-.23.86v4.489h-1.8zm5.4 0v-7.636h1.72v1.297h.09c.16-.437.42-.779.79-1.024s.81-.373 1.32-.373c.52 0 .95.126 1.31.378.35.249.61.588.75 1.019h.08a2.11 2.11 0 0 1 .86-1.014c.4-.255.88-.383 1.43-.383.71 0 1.28.222 1.72.666.45.445.67 1.092.67 1.944v5.126h-1.8v-4.847c0-.474-.13-.821-.38-1.039s-.56-.333-.93-.333c-.43 0-.77.135-1.02.407-.24.269-.36.618-.36 1.049v4.763h-1.76v-4.922c0-.394-.12-.709-.36-.944s-.55-.353-.93-.353a1.28 1.28 0 0 0-.7.198c-.22.13-.38.314-.51.552s-.19.511-.19.826v4.643h-1.8zm14.61.154c-.48 0-.92-.086-1.31-.258a2.12 2.12 0 0 1-.91-.776c-.23-.341-.34-.762-.34-1.263 0-.431.08-.787.24-1.069s.38-.507.65-.676c.28-.169.59-.296.93-.383.35-.089.71-.154 1.08-.193l1.09-.125c.28-.04.48-.099.61-.179s.19-.21.19-.383v-.029c0-.375-.11-.665-.33-.87s-.54-.309-.96-.309c-.44 0-.79.096-1.05.289s-.43.419-.52.681l-1.68-.239c.14-.464.35-.852.66-1.163.3-.315.68-.55 1.12-.706s.93-.239 1.46-.239c.37 0 .73.043 1.1.129a3.14 3.14 0 0 1 1 .428 2.13 2.13 0 0 1 .72.8c.19.339.28.761.28 1.268v5.111h-1.73v-1.049h-.06c-.11.212-.26.411-.46.597s-.44.329-.74.442-.64.164-1.04.164zm.47-1.322c.36 0 .67-.072.94-.214.26-.146.47-.338.61-.577s.22-.499.22-.78v-.9c-.06.046-.16.089-.29.129s-.28.075-.45.104l-.49.08-.42.06c-.27.036-.51.096-.72.179-.22.083-.38.199-.51.348-.12.145-.18.334-.18.566 0 .332.12.582.36.751s.55.254.93.254zm9.03-6.468v1.392h-4.39v-1.392h4.39zm-3.31-1.83h1.8v7.169c0 .242.04.428.11.557.08.126.18.212.3.258a1.13 1.13 0 0 0 .41.07 1.82 1.82 0 0 0 .31-.025l.22-.045.3 1.407c-.1.034-.23.07-.41.11s-.39.063-.65.069c-.45.014-.86-.054-1.22-.203s-.65-.388-.86-.706-.31-.716-.31-1.194v-7.467zm4.66 9.466v-7.636h1.8v7.636h-1.8zm.91-8.72a1.06 1.06 0 0 1-.74-.284c-.21-.192-.31-.422-.31-.691a.89.89 0 0 1 .31-.691 1.05 1.05 0 0 1 .74-.288c.28 0 .53.096.73.288a.89.89 0 0 1 .31.691c0 .269-.1.499-.31.691-.2.189-.45.284-.73.284zm5.92 8.869c-.75 0-1.39-.164-1.94-.492s-.97-.787-1.27-1.377-.45-1.28-.45-2.068.15-1.48.45-2.074.72-1.053 1.27-1.382 1.19-.492 1.94-.492c.74 0 1.39.164 1.94.492a3.37 3.37 0 0 1 1.27 1.382c.3.594.45 1.285.45 2.074s-.15 1.478-.45 2.068a3.37 3.37 0 0 1-1.27 1.377c-.55.328-1.2.492-1.94.492zm.01-1.442c.4 0 .74-.111 1.01-.333s.48-.527.61-.905c.14-.377.2-.798.2-1.262s-.06-.89-.2-1.268c-.13-.381-.34-.685-.61-.91s-.61-.338-1.01-.338c-.42 0-.76.113-1.04.338-.27.225-.47.529-.61.91-.13.378-.2.8-.2 1.268s.07.885.2 1.262c.14.378.34.68.61.905.28.222.62.333 1.04.333zm6.82-3.181v4.474h-1.8v-7.636h1.72v1.297h.09c.18-.427.46-.767.84-1.019.39-.252.87-.378 1.44-.378.52 0 .98.113 1.37.338.4.226.7.552.92.98s.33.946.32 1.556v4.862h-1.8v-4.584c0-.51-.13-.91-.39-1.198-.27-.288-.63-.432-1.09-.432-.32 0-.6.069-.84.208a1.42 1.42 0 0 0-.58.592c-.13.258-.2.572-.2.94z" class="E"/><path d="M929.395 168.188a1.5 1.5 0 1 0-3 0h3zm44.597 31.208c.585-.586.585-1.536 0-2.122l-9.546-9.546c-.586-.585-1.536-.585-2.122 0s-.585 1.536 0 2.122l8.486 8.485-8.486 8.485c-.585.586-.585 1.536 0 2.122s1.536.585 2.122 0l9.546-9.546zm-47.597-31.208v6.147h3v-6.147h-3zm25.5 31.647h21.036v-3h-21.036v3zm-25.5-25.5c0 14.083 11.416 25.5 25.5 25.5v-3c-12.427 0-22.5-10.074-22.5-22.5h-3z" class="F"/><defs ><path id="B" d="M664.812 55.828a1.5 1.5 0 1 0-3 0h3zm45.097 40.865a1.5 1.5 0 0 0 0-2.121l-9.546-9.546a1.5 1.5 0 1 0-2.122 2.121l8.486 8.485-8.486 8.485c-.585.586-.585 1.536 0 2.122s1.536.585 2.122 0l9.546-9.546zm-48.097-40.865v15.804h3V55.828h-3zm25.501 41.304h21.535v-3h-21.535v3zm-25.501-25.5c0 14.083 11.417 25.5 25.501 25.5v-3c-12.427 0-22.501-10.074-22.501-22.5h-3z"/></defs></svg>