<svg width="84" height="85" viewBox="0 0 84 85" fill="none" xmlns="http://www.w3.org/2000/svg">
<g id="Information Architecture Icon">
<rect y="0.772461" width="84" height="84" rx="20" fill="#F0F2F5"/>
<g id="Vector">
<path d="M67.3103 53.5311H64V43.6C64 42.6069 63.3379 41.9449 62.3448 41.9449H44.1379V35.3242H50.7586C51.7517 35.3242 52.4138 34.6621 52.4138 33.669V20.4276C52.4138 19.4345 51.7517 18.7725 50.7586 18.7725H34.2069C33.2138 18.7725 32.5517 19.4345 32.5517 20.4276V33.669C32.5517 34.6621 33.2138 35.3242 34.2069 35.3242H40.8276V41.9449H22.6207C21.6276 41.9449 20.9655 42.6069 20.9655 43.6V53.5311H17.6552C16.6621 53.5311 16 54.1932 16 55.1863V65.1173C16 66.1104 16.6621 66.7725 17.6552 66.7725H27.5862C28.5793 66.7725 29.2414 66.1104 29.2414 65.1173V55.1863C29.2414 54.1932 28.5793 53.5311 27.5862 53.5311H24.2759V45.2552H40.8276V53.5311H37.5172C36.5241 53.5311 35.8621 54.1932 35.8621 55.1863V65.1173C35.8621 66.1104 36.5241 66.7725 37.5172 66.7725H47.4483C48.4414 66.7725 49.1035 66.1104 49.1035 65.1173V55.1863C49.1035 54.1932 48.4414 53.5311 47.4483 53.5311H44.1379V45.2552H60.6897V53.5311H57.3793C56.3862 53.5311 55.7241 54.1932 55.7241 55.1863V65.1173C55.7241 66.1104 56.3862 66.7725 57.3793 66.7725H67.3103C68.3034 66.7725 68.9655 66.1104 68.9655 65.1173V55.1863C68.9655 54.1932 68.3034 53.5311 67.3103 53.5311ZM35.8621 22.0828H42.4828H49.1035V32.0138H35.8621V22.0828ZM25.931 63.4621H19.3103V56.8414H25.931V63.4621ZM45.7931 63.4621H39.1724V56.8414H45.7931V63.4621ZM65.6552 63.4621H59.0345V56.8414H65.6552V63.4621Z" fill="#121212"/>
<path d="M49.1035 22.0828V32.0138H35.8621V22.0828H42.4828H49.1035Z" fill="white"/>
<path d="M45.7931 63.4621H39.1724V56.8414H45.7931V63.4621Z" fill="white"/>
<path d="M65.6552 63.4621H59.0345V56.8414H65.6552V63.4621Z" fill="white"/>
<path d="M25.931 63.4621H19.3103V56.8414H25.931V63.4621Z" fill="white"/>
</g>
</g>
</svg>
