<svg width="89" height="89" viewBox="0 0 89 89" fill="none" xmlns="http://www.w3.org/2000/svg">
<path d="M18.8906 69.9146H69.1763V19.6289H18.8906V69.9146Z" fill="#FF3366"/>
<path d="M36.605 35.3832C38.2126 35.3832 39.563 34.1936 39.563 32.4253C39.563 30.8177 38.2447 29.4673 36.605 29.4673C34.9652 29.4673 33.647 30.6569 33.647 32.4253C33.647 34.1936 34.9652 35.3832 36.605 35.3832ZM30.3997 51.0413C30.2389 51.7808 30.1103 52.5203 30.1103 53.2598C30.1103 55.7676 31.4285 57.536 34.3865 57.536C36.8944 57.536 38.8235 56.057 40.3025 53.7099L39.4022 57.2466H44.2572L47.0544 46.1863C47.7939 43.3891 49.1121 41.9101 51.1698 41.9101C52.7774 41.9101 53.8385 42.939 53.8385 44.5787C53.8385 45.0288 53.8385 45.6076 53.6777 46.1863L52.1987 51.3628C52.0379 52.1023 51.9093 52.8418 51.9093 53.5813C51.9093 55.9284 53.3883 57.6967 56.3463 57.6967C58.8542 57.6967 60.9119 56.0891 62.1015 52.1023L60.1724 51.3628C59.2721 54.0314 58.404 54.4494 57.8253 54.4494C57.2466 54.4494 56.7964 53.9992 56.7964 53.1311C56.7964 52.681 56.9572 52.2309 56.9572 51.8129L58.2754 46.7972C58.5648 45.6076 58.7256 44.5787 58.7256 43.7106C58.7256 40.0131 56.5071 38.1162 53.7098 38.1162C51.202 38.1162 48.5334 40.4633 47.2151 42.8425L48.1154 38.5663H40.7526L39.7237 42.3924H43.0997L41.042 50.4947C39.4344 54.1922 36.3156 54.3208 35.8655 54.1922C35.2868 54.0314 34.8366 53.742 34.8366 53.0025C34.8366 52.5524 34.9974 51.8129 35.126 51.0734L38.3734 38.2448H30.2711L29.2422 42.0709H32.6503L30.3997 51.0413Z" fill="white"/>
</svg>
