<svg width="84" height="85" viewBox="0 0 84 85" fill="none" xmlns="http://www.w3.org/2000/svg">
<g id="Journey Mapping Icon">
<rect y="0.772461" width="84" height="84" rx="20" fill="#F0F2F5"/>
<g id="Group">
<path id="Vector" d="M9.65039 36.3333C9.65039 35.1837 10.5822 34.252 11.7317 34.252H27.4715C28.621 34.252 29.5528 35.1837 29.5528 36.3333V64.0406C29.5528 65.1901 28.621 66.1219 27.4715 66.1219H11.7317C10.5822 66.1219 9.65039 65.1901 9.65039 64.0406V36.3333Z" fill="#E0EDFE"/>
<path id="Vector_2" fill-rule="evenodd" clip-rule="evenodd" d="M9 36.3333C9 34.8246 10.223 33.6016 11.7317 33.6016H27.4715C28.9802 33.6016 30.2032 34.8246 30.2032 36.3333V64.0406C30.2032 65.5493 28.9802 66.7723 27.4715 66.7723H11.7317C10.223 66.7723 9 65.5493 9 64.0406V36.3333ZM11.7317 34.9024C10.9415 34.9024 10.3008 35.543 10.3008 36.3333V64.0406C10.3008 64.8308 10.9415 65.4715 11.7317 65.4715H27.4715C28.2618 65.4715 28.9024 64.8308 28.9024 64.0406V36.3333C28.9024 35.543 28.2618 34.9024 27.4715 34.9024H11.7317Z" fill="#121212"/>
<path id="Vector_3" d="M32.5449 36.3333C32.5449 35.1837 33.4767 34.252 34.6262 34.252H50.3661C51.5156 34.252 52.4474 35.1837 52.4474 36.3333V64.0406C52.4474 65.1901 51.5156 66.1219 50.3661 66.1219H34.6262C33.4767 66.1219 32.5449 65.1901 32.5449 64.0406V36.3333Z" fill="white"/>
<path id="Vector_4" fill-rule="evenodd" clip-rule="evenodd" d="M31.8945 36.3333C31.8945 34.8246 33.1176 33.6016 34.6262 33.6016H50.3661C51.8748 33.6016 53.0978 34.8246 53.0978 36.3333V64.0406C53.0978 65.5493 51.8748 66.7723 50.3661 66.7723H34.6262C33.1176 66.7723 31.8945 65.5493 31.8945 64.0406V36.3333ZM34.6262 34.9024C33.836 34.9024 33.1953 35.543 33.1953 36.3333V64.0406C33.1953 64.8308 33.836 65.4715 34.6262 65.4715H50.3661C51.1563 65.4715 51.797 64.8308 51.797 64.0406V36.3333C51.797 35.543 51.1563 34.9024 50.3661 34.9024H34.6262Z" fill="#121212"/>
<path id="Vector_5" d="M55.4395 36.3333C55.4395 35.1837 56.3712 34.252 57.5208 34.252H73.2606C74.4101 34.252 75.3419 35.1837 75.3419 36.3333V64.0406C75.3419 65.1901 74.4101 66.1219 73.2606 66.1219H57.5208C56.3712 66.1219 55.4395 65.1901 55.4395 64.0406V36.3333Z" fill="#FEF7C1"/>
<path id="Vector_6" fill-rule="evenodd" clip-rule="evenodd" d="M54.7891 36.3333C54.7891 34.8246 56.0121 33.6016 57.5208 33.6016H73.2606C74.7693 33.6016 75.9923 34.8246 75.9923 36.3333V64.0406C75.9923 65.5493 74.7693 66.7723 73.2606 66.7723H57.5208C56.0121 66.7723 54.7891 65.5493 54.7891 64.0406V36.3333ZM57.5208 34.9024C56.7305 34.9024 56.0899 35.543 56.0899 36.3333V64.0406C56.0899 64.8308 56.7305 65.4715 57.5208 65.4715H73.2606C74.0508 65.4715 74.6915 64.8308 74.6915 64.0406V36.3333C74.6915 35.543 74.0508 34.9024 73.2606 34.9024H57.5208Z" fill="#121212"/>
<path id="Vector_7" d="M9.65039 21.5042C9.65039 20.3546 10.5822 19.4229 11.7317 19.4229H27.4715C28.621 19.4229 29.5528 20.3546 29.5528 21.5042V28.1383C29.5528 29.2878 28.621 30.2196 27.4715 30.2196H11.7317C10.5822 30.2196 9.65039 29.2878 9.65039 28.1383V21.5042Z" fill="#3F96FC"/>
<path id="Vector_8" fill-rule="evenodd" clip-rule="evenodd" d="M9 21.5042C9 19.9955 10.223 18.7725 11.7317 18.7725H27.4715C28.9802 18.7725 30.2032 19.9955 30.2032 21.5042V28.1383C30.2032 29.647 28.9802 30.87 27.4715 30.87H11.7317C10.223 30.87 9 29.647 9 28.1383V21.5042ZM11.7317 20.0733C10.9415 20.0733 10.3008 20.7139 10.3008 21.5042V28.1383C10.3008 28.9286 10.9415 29.5692 11.7317 29.5692H27.4715C28.2618 29.5692 28.9024 28.9286 28.9024 28.1383V21.5042C28.9024 20.7139 28.2618 20.0733 27.4715 20.0733H11.7317Z" fill="#121212"/>
<path id="Vector_9" d="M32.5449 21.5042C32.5449 20.3546 33.4767 19.4229 34.6262 19.4229H50.3661C51.5156 19.4229 52.4474 20.3546 52.4474 21.5042V28.1383C52.4474 29.2878 51.5156 30.2196 50.3661 30.2196H34.6262C33.4767 30.2196 32.5449 29.2878 32.5449 28.1383V21.5042Z" fill="white"/>
<path id="Vector_10" fill-rule="evenodd" clip-rule="evenodd" d="M31.8945 21.5042C31.8945 19.9955 33.1176 18.7725 34.6262 18.7725H50.3661C51.8748 18.7725 53.0978 19.9955 53.0978 21.5042V28.1383C53.0978 29.647 51.8748 30.87 50.3661 30.87H34.6262C33.1176 30.87 31.8945 29.647 31.8945 28.1383V21.5042ZM34.6262 20.0733C33.836 20.0733 33.1953 20.7139 33.1953 21.5042V28.1383C33.1953 28.9286 33.836 29.5692 34.6262 29.5692H50.3661C51.1563 29.5692 51.797 28.9286 51.797 28.1383V21.5042C51.797 20.7139 51.1563 20.0733 50.3661 20.0733H34.6262Z" fill="#121212"/>
<path id="Vector_11" d="M55.4395 21.5042C55.4395 20.3546 56.3712 19.4229 57.5208 19.4229H73.2606C74.4101 19.4229 75.3419 20.3546 75.3419 21.5042V28.1383C75.3419 29.2878 74.4101 30.2196 73.2606 30.2196H57.5208C56.3712 30.2196 55.4395 29.2878 55.4395 28.1383V21.5042Z" fill="#F8DB46"/>
<path id="Vector_12" fill-rule="evenodd" clip-rule="evenodd" d="M54.7891 21.5042C54.7891 19.9955 56.0121 18.7725 57.5208 18.7725H73.2606C74.7693 18.7725 75.9923 19.9955 75.9923 21.5042V28.1383C75.9923 29.647 74.7693 30.87 73.2606 30.87H57.5208C56.0121 30.87 54.7891 29.647 54.7891 28.1383V21.5042ZM57.5208 20.0733C56.7305 20.0733 56.0899 20.7139 56.0899 21.5042V28.1383C56.0899 28.9286 56.7305 29.5692 57.5208 29.5692H73.2606C74.0508 29.5692 74.6915 28.9286 74.6915 28.1383V21.5042C74.6915 20.7139 74.0508 20.0733 73.2606 20.0733H57.5208Z" fill="#121212"/>
<path id="Vector_13" d="M72.8707 44.2683C72.8707 48.4352 69.4929 51.8131 65.326 51.8131C61.1591 51.8131 57.7812 48.4352 57.7812 44.2683C57.7812 40.1015 61.1591 36.7236 65.326 36.7236C69.4929 36.7236 72.8707 40.1015 72.8707 44.2683Z" fill="#F8DB46"/>
<path id="Vector_14" fill-rule="evenodd" clip-rule="evenodd" d="M65.326 50.5122C68.7744 50.5122 71.5699 47.7168 71.5699 44.2683C71.5699 40.8199 68.7744 38.0244 65.326 38.0244C61.8775 38.0244 59.0821 40.8199 59.0821 44.2683C59.0821 47.7168 61.8775 50.5122 65.326 50.5122ZM65.326 51.8131C69.4929 51.8131 72.8707 48.4352 72.8707 44.2683C72.8707 40.1015 69.4929 36.7236 65.326 36.7236C61.1591 36.7236 57.7812 40.1015 57.7812 44.2683C57.7812 48.4352 61.1591 51.8131 65.326 51.8131Z" fill="#121212"/>
<path id="Vector_15" d="M63.8938 42.317C63.8938 42.593 63.7842 42.8577 63.589 43.0529C63.3938 43.248 63.1291 43.3577 62.8532 43.3577C62.5772 43.3577 62.3125 43.248 62.1173 43.0529C61.9221 42.8577 61.8125 42.593 61.8125 42.317C61.8125 42.041 61.9221 41.7763 62.1173 41.5812C62.3125 41.386 62.5772 41.2764 62.8532 41.2764C63.1291 41.2764 63.3938 41.386 63.589 41.5812C63.7842 41.7763 63.8938 42.041 63.8938 42.317ZM68.8369 42.317C68.8369 42.593 68.7272 42.8577 68.5321 43.0529C68.3369 43.248 68.0722 43.3577 67.7962 43.3577C67.5202 43.3577 67.2555 43.248 67.0604 43.0529C66.8652 42.8577 66.7556 42.593 66.7556 42.317C66.7556 42.041 66.8652 41.7763 67.0604 41.5812C67.2555 41.386 67.5202 41.2764 67.7962 41.2764C68.0722 41.2764 68.3369 41.386 68.5321 41.5812C68.7272 41.7763 68.8369 42.041 68.8369 42.317Z" fill="#121212"/>
<path id="Vector_16" fill-rule="evenodd" clip-rule="evenodd" d="M62.0226 45.3275C62.188 45.2684 62.3706 45.3526 62.4306 45.5155C62.958 46.948 64.1506 47.6634 65.3428 47.6731C66.5338 47.6827 67.7604 46.988 68.352 45.5075C68.4164 45.3463 68.6013 45.267 68.765 45.3305C68.8037 45.3451 68.8391 45.3673 68.8691 45.3958C68.8992 45.4242 68.9233 45.4584 68.94 45.4962C68.9567 45.5341 68.9658 45.5749 68.9666 45.6163C68.9674 45.6576 68.96 45.6988 68.9448 45.7372C68.2594 47.4524 66.7999 48.3123 65.3376 48.3004C63.8768 48.2885 62.4492 47.4061 61.8317 45.7293C61.7717 45.5664 61.8572 45.3865 62.0226 45.3275Z" fill="#121212"/>
<path id="Vector_17" fill-rule="evenodd" clip-rule="evenodd" d="M61.9375 45.0828C62.2346 44.9768 62.567 45.1265 62.6771 45.426C63.1669 46.756 64.2624 47.4045 65.3474 47.4133C66.4301 47.4221 67.5606 46.7934 68.1128 45.4114C68.2312 45.1152 68.5673 44.9743 68.8615 45.0883C69.1575 45.203 69.308 45.5359 69.1889 45.8341C68.4642 47.6476 66.9085 48.5737 65.3379 48.5609C63.7698 48.5482 62.2451 47.5987 61.59 45.8196C61.4791 45.5182 61.6387 45.1896 61.9375 45.0828ZM62.1889 45.6057C62.183 45.5914 62.1716 45.5799 62.1574 45.5738C62.1431 45.5676 62.127 45.5673 62.1124 45.5728C62.1058 45.5749 62.0995 45.5783 62.0942 45.5828C62.0888 45.5873 62.0844 45.5929 62.0812 45.5991C62.078 45.6054 62.0761 45.6122 62.0756 45.6192C62.0751 45.6261 62.076 45.6332 62.0782 45.6398C62.658 47.2141 63.9886 48.0295 65.3422 48.0406C66.696 48.0516 68.0596 47.2578 68.7056 45.6411C68.7154 45.6169 68.7048 45.5856 68.6735 45.5735C68.6591 45.5675 68.643 45.5675 68.6285 45.5733C68.6141 45.579 68.6024 45.5902 68.5961 45.6044C67.9651 47.1834 66.6424 47.9442 65.3431 47.9337C64.0436 47.923 62.7541 47.1408 62.1889 45.6057Z" fill="#121212"/>
<path id="Vector_18" d="M27.0816 55.9754C27.0816 60.1423 23.7038 63.5201 19.5369 63.5201C15.3701 63.5201 11.9922 60.1423 11.9922 55.9754C11.9922 51.8085 15.3701 48.4307 19.5369 48.4307C23.7038 48.4307 27.0816 51.8085 27.0816 55.9754Z" fill="#3F96FC"/>
<path id="Vector_19" fill-rule="evenodd" clip-rule="evenodd" d="M19.5369 62.2193C22.9854 62.2193 25.7808 59.4238 25.7808 55.9754C25.7808 52.5269 22.9854 49.7315 19.5369 49.7315C16.0884 49.7315 13.293 52.5269 13.293 55.9754C13.293 59.4238 16.0884 62.2193 19.5369 62.2193ZM19.5369 63.5201C23.7038 63.5201 27.0816 60.1423 27.0816 55.9754C27.0816 51.8085 23.7038 48.4307 19.5369 48.4307C15.3701 48.4307 11.9922 51.8085 11.9922 55.9754C11.9922 60.1423 15.3701 63.5201 19.5369 63.5201Z" fill="#121212"/>
<path id="Vector_20" d="M18.1047 54.024C18.1047 54.3 17.9951 54.5647 17.7999 54.7599C17.6048 54.9551 17.3401 55.0647 17.0641 55.0647C16.7881 55.0647 16.5234 54.9551 16.3282 54.7599C16.1331 54.5647 16.0234 54.3 16.0234 54.024C16.0234 53.7481 16.1331 53.4834 16.3282 53.2882C16.5234 53.093 16.7881 52.9834 17.0641 52.9834C17.3401 52.9834 17.6048 53.093 17.7999 53.2882C17.9951 53.4834 18.1047 53.7481 18.1047 54.024ZM23.0478 54.024C23.0478 54.3 22.9382 54.5647 22.743 54.7599C22.5479 54.9551 22.2832 55.0647 22.0072 55.0647C21.7312 55.0647 21.4665 54.9551 21.2713 54.7599C21.0762 54.5647 20.9665 54.3 20.9665 54.024C20.9665 53.7481 21.0762 53.4834 21.2713 53.2882C21.4665 53.093 21.7312 52.9834 22.0072 52.9834C22.2832 52.9834 22.5479 53.093 22.743 53.2882C22.9382 53.4834 23.0478 53.7481 23.0478 54.024Z" fill="#121212"/>
<path id="Vector_21" fill-rule="evenodd" clip-rule="evenodd" d="M16.2335 59.4691C16.3987 59.5282 16.5815 59.444 16.6414 59.2811C17.1689 57.8485 18.3615 57.1332 19.5537 57.1235C20.7447 57.1138 21.9713 57.8086 22.5629 59.2891C22.6273 59.4502 22.8122 59.5296 22.9759 59.4661C23.0146 59.4514 23.05 59.4292 23.08 59.4008C23.1101 59.3723 23.1342 59.3382 23.1509 59.3003C23.1676 59.2625 23.1766 59.2217 23.1775 59.1803C23.1783 59.1389 23.1709 59.0978 23.1557 59.0593C22.4703 57.3442 21.0107 56.4842 19.5485 56.4962C18.0877 56.5081 16.66 57.3905 16.0425 59.0673C15.9827 59.2301 16.068 59.41 16.2335 59.4691Z" fill="#121212"/>
<path id="Vector_22" fill-rule="evenodd" clip-rule="evenodd" d="M16.1465 59.7143C16.4436 59.8203 16.7759 59.6706 16.8861 59.3711C17.3759 58.0411 18.4714 57.3926 19.5564 57.3838C20.6391 57.375 21.7696 58.0037 22.3218 59.3857C22.4402 59.6819 22.7763 59.8228 23.0704 59.7088C23.3665 59.5941 23.517 59.2612 23.3979 58.9629C22.6732 57.1495 21.1175 56.2234 19.5469 56.2362C17.9788 56.2489 16.4541 57.1984 15.799 58.9775C15.6881 59.2789 15.8477 59.6075 16.1465 59.7143ZM16.3979 59.1914C16.3919 59.2057 16.3806 59.2172 16.3663 59.2233C16.3521 59.2294 16.336 59.2298 16.3214 59.2243C16.2896 59.2128 16.2784 59.1816 16.2872 59.1573C16.867 57.583 18.1976 56.7676 19.5512 56.7565C20.905 56.7454 22.2686 57.5393 22.9146 59.156C22.9244 59.1802 22.9138 59.2115 22.8825 59.2236C22.8681 59.2295 22.8519 59.2296 22.8375 59.2238C22.823 59.2181 22.8114 59.2069 22.8051 59.1927C22.174 57.6137 20.8514 56.8529 19.5521 56.8634C18.2526 56.8741 16.9631 57.6563 16.3979 59.1914ZM58.1701 44.919C57.7205 44.919 57.2848 44.9227 56.8631 44.9302C56.7772 44.9325 56.6917 44.9178 56.6115 44.8869C56.5313 44.8559 56.458 44.8095 56.3959 44.7501C56.3338 44.6907 56.2841 44.6196 56.2496 44.5408C56.2152 44.4621 56.1967 44.3774 56.1951 44.2914C56.1936 44.2055 56.2092 44.1202 56.2408 44.0403C56.2725 43.9604 56.3197 43.8876 56.3797 43.826C56.4397 43.7645 56.5112 43.7155 56.5903 43.6817C56.6693 43.648 56.7543 43.6303 56.8402 43.6296C57.2699 43.6221 57.7132 43.6183 58.1701 43.6182C58.3426 43.6182 58.5081 43.6867 58.63 43.8087C58.752 43.9306 58.8205 44.0961 58.8205 44.2686C58.8205 44.4411 58.752 44.6065 58.63 44.7285C58.5081 44.8505 58.3426 44.919 58.1701 44.919ZM54.9396 44.338C54.9501 44.5102 54.8918 44.6795 54.7776 44.8087C54.6633 44.9378 54.5024 45.0164 54.3303 45.0269C53.4138 45.0833 52.5779 45.1604 51.8142 45.256C51.7291 45.2675 51.6425 45.262 51.5595 45.2398C51.4765 45.2176 51.3987 45.1792 51.3306 45.1268C51.2625 45.0744 51.2054 45.009 51.1628 44.9344C51.1201 44.8599 51.0926 44.7776 51.0819 44.6923C51.0713 44.607 51.0776 44.5205 51.1005 44.4377C51.1235 44.3549 51.1626 44.2775 51.2157 44.2099C51.2687 44.1423 51.3347 44.0859 51.4096 44.0439C51.4846 44.0019 51.5672 43.9752 51.6525 43.9654C52.4466 43.8658 53.3102 43.7864 54.2507 43.7286C54.4228 43.7181 54.5921 43.7764 54.7213 43.8906C54.8505 44.0049 54.929 44.1659 54.9396 44.338ZM49.8378 44.9013C49.8761 45.0695 49.8461 45.246 49.7543 45.392C49.6625 45.538 49.5164 45.6416 49.3483 45.68C48.4254 45.8906 47.6546 46.1369 47.0051 46.4093C46.8467 46.4725 46.6698 46.4709 46.5125 46.405C46.3552 46.339 46.2301 46.2139 46.1642 46.0566C46.0982 45.8992 46.0967 45.7223 46.1599 45.5639C46.2232 45.4055 46.3461 45.2782 46.5022 45.2096C47.2315 44.9039 48.0752 44.6362 49.059 44.4118C49.1423 44.3928 49.2285 44.3904 49.3127 44.4047C49.3969 44.419 49.4774 44.4498 49.5498 44.4952C49.6221 44.5407 49.6847 44.5999 49.7342 44.6696C49.7836 44.7393 49.8188 44.818 49.8378 44.9013ZM45.0486 46.7004C45.1601 46.832 45.2149 47.0025 45.2008 47.1744C45.1866 47.3463 45.1048 47.5055 44.9733 47.6171C44.3229 48.1687 43.8762 48.7786 43.5027 49.4324C43.4603 49.5066 43.4037 49.5717 43.3362 49.624C43.2687 49.6763 43.1915 49.7148 43.1091 49.7372C43.0267 49.7597 42.9407 49.7657 42.856 49.755C42.7712 49.7442 42.6894 49.7169 42.6153 49.6745C42.5411 49.6321 42.476 49.5755 42.4237 49.508C42.3714 49.4405 42.3329 49.3633 42.3104 49.2809C42.288 49.1985 42.2819 49.1125 42.2927 49.0278C42.3035 48.943 42.3308 48.8612 42.3732 48.7871C42.7991 48.0416 43.3357 47.3002 44.1319 46.625C44.2635 46.5134 44.4339 46.4587 44.6059 46.4729C44.7778 46.487 44.937 46.5689 45.0486 46.7004ZM42.0873 50.8325C42.2406 50.9114 42.3564 51.0481 42.409 51.2123C42.4616 51.3766 42.4468 51.5551 42.3679 51.7084C41.9762 52.4694 41.5009 53.2476 40.7781 53.966C40.7176 54.0262 40.6457 54.0739 40.5667 54.1064C40.4877 54.1388 40.403 54.1554 40.3176 54.1551C40.2322 54.1549 40.1477 54.1378 40.0689 54.1048C39.99 54.0719 39.9185 54.0238 39.8583 53.9632C39.7981 53.9026 39.7504 53.8308 39.7179 53.7518C39.6855 53.6727 39.6689 53.5881 39.6692 53.5027C39.6694 53.4173 39.6865 53.3327 39.7194 53.2539C39.7524 53.1751 39.8005 53.1035 39.8611 53.0433C40.449 52.459 40.8511 51.813 41.2113 51.1132C41.2504 51.0372 41.3041 50.9697 41.3692 50.9145C41.4344 50.8593 41.5098 50.8175 41.5912 50.7914C41.6725 50.7653 41.7582 50.7555 41.8433 50.7626C41.9284 50.7696 42.0113 50.7934 42.0873 50.8325ZM38.7997 54.6708C38.8363 54.748 38.8573 54.8316 38.8615 54.9169C38.8658 55.0022 38.8531 55.0875 38.8244 55.168C38.7957 55.2484 38.7514 55.3224 38.694 55.3857C38.6367 55.449 38.5675 55.5004 38.4903 55.537C37.771 55.8775 36.9289 56.1752 35.9329 56.4235C35.766 56.4638 35.5899 56.4365 35.4431 56.3476C35.2962 56.2586 35.1905 56.1152 35.149 55.9486C35.1075 55.782 35.1335 55.6057 35.2214 55.4582C35.3094 55.3107 35.452 55.204 35.6183 55.1613C36.5453 54.9302 37.3042 54.6593 37.9335 54.3613C38.0107 54.3248 38.0944 54.3038 38.1797 54.2995C38.265 54.2953 38.3503 54.3079 38.4307 54.3366C38.5112 54.3654 38.5851 54.4097 38.6485 54.467C38.7118 54.5243 38.7632 54.5936 38.7997 54.6708ZM33.9053 56.1744C33.9283 56.3453 33.8825 56.5184 33.7779 56.6556C33.6734 56.7928 33.5186 56.8828 33.3476 56.9058C32.554 57.0129 31.6872 57.0982 30.7385 57.16C30.6532 57.1656 30.5677 57.1543 30.4869 57.1268C30.406 57.0993 30.3314 57.0561 30.2672 56.9998C30.1375 56.886 30.0584 56.7253 30.0472 56.5532C30.0417 56.4679 30.053 56.3825 30.0805 56.3016C30.108 56.2207 30.1511 56.1461 30.2075 56.0819C30.3213 55.9522 30.4819 55.8731 30.654 55.8619C31.5766 55.8018 32.4135 55.7192 33.1738 55.6167C33.3448 55.5937 33.5179 55.6395 33.6551 55.7441C33.7922 55.8487 33.8822 56.0034 33.9053 56.1744ZM28.7885 56.6024C28.7918 56.7748 28.7263 56.9415 28.6066 57.0657C28.487 57.1899 28.3228 57.2615 28.1504 57.2647C27.7212 57.2727 27.2779 57.2767 26.8206 57.2767C26.6481 57.2767 26.4826 57.2082 26.3606 57.0862C26.2387 56.9642 26.1701 56.7988 26.1701 56.6263C26.1701 56.4538 26.2387 56.2884 26.3606 56.1664C26.4826 56.0444 26.6481 55.9759 26.8206 55.9759C27.2703 55.9759 27.7055 55.9719 28.1262 55.964C28.2116 55.9625 28.2965 55.9777 28.376 56.0089C28.4555 56.0402 28.5281 56.0867 28.5896 56.146C28.6511 56.2053 28.7003 56.2761 28.7345 56.3544C28.7686 56.4327 28.787 56.5169 28.7885 56.6024Z" fill="#121212"/>
</g>
</g>
</svg>
