<svg width="24" height="25" viewBox="0 0 24 25" fill="none" xmlns="http://www.w3.org/2000/svg">
<g id="LinkedIn.svg">
<path id="Vector" d="M8.67576 8.10736C8.67558 8.46097 8.53446 8.80001 8.28343 9.04992C8.03241 9.29983 7.69204 9.44013 7.33721 9.43996C6.98238 9.43978 6.64216 9.29914 6.39138 9.04898C6.14061 8.79882 5.99982 8.45963 6 8.10603C6.00018 7.75243 6.1413 7.41338 6.39233 7.16347C6.64336 6.91356 6.98372 6.77326 7.33855 6.77344C7.69338 6.77361 8.0336 6.91425 8.28438 7.16441C8.53515 7.41457 8.67594 7.75376 8.67576 8.10736ZM8.7159 10.4272H6.04014V18.7735H8.7159V10.4272ZM12.9436 10.4272H10.2812V18.7735H12.9168V14.3937C12.9168 11.9539 16.1077 11.7272 16.1077 14.3937V18.7735H18.75V13.4871C18.75 9.37396 14.0273 9.52728 12.9168 11.5472L12.9436 10.4272Z" fill="#121212"/>
</g>
</svg>
