<svg width="293" height="201" viewBox="0 0 293 201" fill="none" xmlns="http://www.w3.org/2000/svg">
<path d="M199.238 46.121V99.4455C199.238 127.738 177.616 150.961 150.287 152.971C149.848 153.016 149.43 153.038 148.97 153.06C148.574 153.06 148.157 153.083 147.762 153.105C147.323 153.105 146.906 153.105 146.467 153.105C146.028 153.105 145.611 153.105 145.172 153.105C144.777 153.105 144.36 153.105 143.965 153.06C143.526 153.06 143.087 153.016 142.648 152.971C115.34 150.984 93.718 127.76 93.718 99.4455V46.121C93.718 54.2715 95.518 61.9977 98.7229 68.9201V99.4455C98.7229 125.259 118.589 146.406 143.569 147.924C143.701 147.924 143.833 147.924 143.965 147.947C144.096 147.947 144.206 147.947 144.316 147.947C145.018 147.969 145.743 148.014 146.467 148.014C147.191 148.014 147.894 148.014 148.618 147.947C148.75 147.947 148.86 147.947 148.991 147.947H149.387C174.367 146.384 194.255 125.237 194.255 99.4232V68.8978C195.836 65.4589 197.087 61.8414 197.943 58.0453C198.316 56.3929 198.601 54.6958 198.843 52.9763C199.128 50.721 199.282 48.421 199.282 46.0986L199.238 46.121Z" fill="#006992"/>
<path d="M198.052 34.6328C197.613 34.6328 197.196 34.6328 196.757 34.6328C195.922 34.6328 195.088 34.6328 194.253 34.6992C193.814 34.6992 193.397 34.7435 192.935 34.7878C171.107 36.36 152.923 51.3735 146.489 71.6792C140.033 51.3956 121.849 36.36 100.043 34.7878C99.6034 34.7657 99.1862 34.7214 98.725 34.6992C97.8905 34.655 97.056 34.6328 96.2215 34.6328C95.7823 34.6328 95.3651 34.6328 94.9258 34.6328C94.5306 34.6328 94.1133 34.6328 93.718 34.6771V46.9226C93.718 55.005 95.5188 62.6667 98.725 69.5313C106.828 86.892 123.958 99.1374 143.986 100.09V147.942C144.117 147.942 144.227 147.942 144.337 147.942C145.04 147.964 145.764 148.009 146.489 148.009C147.214 148.009 147.916 148.009 148.641 147.942C148.773 147.942 148.883 147.942 149.014 147.942V100.09C149.168 100.09 149.344 100.09 149.498 100.067C169.306 98.9381 186.237 86.7591 194.275 69.5534C195.856 66.1655 197.108 62.556 197.942 58.7916C198.316 57.153 198.623 55.47 198.843 53.7871C199.128 51.5506 199.282 49.2698 199.282 46.9669V34.7214C198.887 34.7214 198.491 34.6992 198.074 34.6771L198.052 34.6328ZM143.986 95.0409C118.819 93.7122 98.725 72.6536 98.725 46.9226V39.7259C98.8568 39.7259 98.9885 39.7259 99.1203 39.748C124.111 41.2759 143.986 62.2682 143.986 87.822V95.0409ZM150.486 94.9301C155.471 75.4215 172.315 60.6517 192.76 58.9245C187.775 78.4331 170.931 93.2029 150.486 94.9301ZM194.253 53.765C194.099 53.765 193.924 53.765 193.77 53.7871C174.071 54.8943 157.25 66.9405 149.146 83.9911C151.013 60.1867 170.14 41.1874 193.858 39.748C193.989 39.748 194.121 39.748 194.253 39.7259V53.7871V53.765Z" fill="#006992"/>
<path d="M146.5 39.7287C135.636 39.7287 126.786 30.8644 126.786 19.9835C126.786 9.10258 135.636 0.238281 146.5 0.238281C157.364 0.238281 166.214 9.10258 166.214 19.9835C166.214 30.8644 157.364 39.7287 146.5 39.7287ZM146.5 5.29093C138.402 5.29093 131.831 11.8948 131.831 19.9835C131.831 28.0722 138.424 34.6761 146.5 34.6761C154.576 34.6761 161.169 28.0722 161.169 19.9835C161.169 11.8948 154.576 5.29093 146.5 5.29093Z" fill="#006992"/>
<path d="M19.7458 174.738C21.5708 176.436 22.4941 178.823 22.4941 181.922C22.4941 185.181 21.5708 187.706 19.7458 189.519C17.8992 191.333 15.3227 192.228 12.0161 192.228H6.82009V200.238H0.872559V172.213H11.9947C15.3227 172.213 17.9207 173.039 19.7458 174.738ZM15.5374 185.709C16.4177 184.883 16.8686 183.689 16.8686 182.129C16.8686 180.568 16.4177 179.397 15.5374 178.617C14.6571 177.836 13.3688 177.446 11.6941 177.446H6.79862V186.949H11.6941C13.3688 186.949 14.6571 186.535 15.5374 185.732V185.709Z" fill="#006992"/>
<path d="M36.218 193.057C37.249 194.209 38.6378 194.773 40.3843 194.773C42.1307 194.773 43.4143 194.209 44.4243 193.08C45.4343 191.95 45.9393 190.392 45.9393 188.405V172.213H51.7468V188.405C51.7468 190.821 51.2839 192.921 50.3791 194.706C49.4532 196.49 48.1486 197.845 46.4232 198.816C44.7188 199.787 42.6778 200.238 40.3632 200.238C38.0486 200.238 36.0076 199.764 34.2611 198.816C32.5357 197.845 31.189 196.49 30.2632 194.706C29.3374 192.921 28.8534 190.844 28.8534 188.405V172.213H34.6609V188.405C34.6609 190.37 35.1869 191.905 36.239 193.057H36.218Z" fill="#006992"/>
<path d="M75.5304 200.215L71.3738 192.211H65.322V200.215H59.3779V172.213H70.7923C74.2166 172.213 76.8656 173.061 78.7609 174.759C80.6561 176.456 81.5821 178.841 81.5821 181.937C81.5821 184.093 81.1514 185.927 80.333 187.487C79.4931 189.024 78.2655 190.193 76.6718 190.996L82.2713 200.238H75.5519L75.5304 200.215ZM65.3005 186.937H70.7923C72.4506 186.937 73.7213 186.524 74.6043 185.721C75.4873 184.895 75.9396 183.703 75.9396 182.143C75.9396 180.584 75.4873 179.414 74.6043 178.634C73.7213 177.855 72.4506 177.465 70.7923 177.465H65.3005V186.96V186.937Z" fill="#006992"/>
<path d="M87.3586 172.259H109.77V177.492H94.0098V183.575H108.18V188.808H94.0098V195.005H110.252V200.238H87.3827V172.213L87.3586 172.259Z" fill="#006992"/>
<path d="M147.195 174.141C149.003 175.403 149.908 177.102 149.908 179.259C149.908 180.751 149.467 182.06 148.609 183.161C147.728 184.263 146.545 185.021 145.038 185.411C146.87 185.755 148.308 186.558 149.374 187.821C150.441 189.083 150.951 190.644 150.951 192.48C150.951 194.89 150.001 196.772 148.076 198.15C146.174 199.527 143.553 200.238 140.26 200.238H126.786V172.213H139.82C142.951 172.236 145.432 172.856 147.241 174.118L147.195 174.141ZM142.301 182.725C142.997 182.174 143.322 181.417 143.322 180.43C143.322 179.443 142.974 178.732 142.301 178.181C141.629 177.63 140.678 177.4 139.449 177.423H133.141V183.552H139.449C140.678 183.552 141.629 183.276 142.301 182.725ZM143.02 194.225C143.878 193.628 144.319 192.779 144.319 191.723C144.319 190.667 143.901 189.91 143.02 189.313C142.162 188.739 140.979 188.441 139.449 188.464H133.141V195.12H139.449C140.956 195.12 142.139 194.821 143.02 194.225Z" fill="#006992"/>
<path d="M157.311 172.259H177.232V177.492H163.223V183.575H175.818V188.808H163.223V195.005H177.66V200.238H157.332V172.213L157.311 172.259Z" fill="#006992"/>
<path d="M204.269 200.238L202.167 194.799H189.796L187.694 200.238H181.476L193.081 172.213H199.299L210.729 200.238H204.269ZM191.767 189.726H200.219L196.015 178.823L191.767 189.726Z" fill="#006992"/>
<path d="M220.637 193.057C221.668 194.209 223.057 194.773 224.803 194.773C226.55 194.773 227.833 194.209 228.843 193.08C229.853 191.95 230.358 190.392 230.358 188.405V172.213H236.166V188.405C236.166 190.821 235.703 192.921 234.798 194.706C233.872 196.49 232.568 197.845 230.842 198.816C229.138 199.787 227.097 200.238 224.782 200.238C222.468 200.238 220.427 199.764 218.68 198.816C216.934 197.845 215.608 196.49 214.682 194.706C213.756 192.921 213.272 190.844 213.272 188.405V172.213H219.08V188.405C219.08 190.37 219.606 191.905 220.658 193.057H220.637Z" fill="#006992"/>
<path d="M242.525 172.213H264.147V177.561H256.226V200.238H250.403V177.561H242.525V172.213Z" fill="#006992"/>
<path d="M292.127 172.213L281.986 191.179V200.238H275.719V191.363L265.418 172.236H271.731L278.841 184.804L285.792 172.236H292.105L292.127 172.213Z" fill="#006992"/>
</svg>
