<svg xmlns="http://www.w3.org/2000/svg" width="300" height="163" fill="none" xmlns:v="https://vecta.io/nano"><path d="M152.186 51.409c-.894 3.552-1.524 7.539.082 10.99 2.588 6.285 8.962 9.944 15.046 12.231 8.194 3.47 17.156 4.333 25.96 4.679-2.047-2.803-3.552-5.939-5.347-8.893l-21.249-37.108c-6.185 4.711-12.03 10.53-14.492 18.101zm10.87-24.007L147.494.238l-35.553 61.639c8.011-8.049 16.539-15.714 26.2-21.747 7.81-5.146 16.205-9.327 24.915-12.728z" fill="#b42b36"/><path d="M152.671 35.709c9.126-5.504 18.806-10.014 28.681-13.975-10.776 6.733-21.785 13.459-30.69 22.648-4.686 4.862-9.466 11.015-8.862 18.157 1.159 8.043 8.226 13.812 15.349 16.772-15.242-.29-30.489-.044-45.73-.126-2.532 0-5.07-.082-7.596.157 2.62-2.639 4.743-5.712 7.111-8.572 11.871-13.856 25.891-25.96 41.737-35.061zM54.66 158.174v-.422l1.14-.296a.56.56 0 0 0 .302-.195c.082-.101.12-.208.12-.334v-9.869c0-.138-.038-.252-.12-.346a.54.54 0 0 0-.302-.183l-1.228-.277v-.422h3.01l5.92 8.509.844 1.228v-8.49c0-.138-.038-.252-.12-.346a.58.58 0 0 0-.302-.183l-1.14-.296v-.422h3.899v.422l-1.14.296c-.12.032-.22.095-.302.189s-.126.208-.126.34v9.044l-.271 2.141h-.504l-6.411-9.207-.938-1.373v9.245c0 .139.038.252.12.347a.58.58 0 0 0 .302.182l1.14.296v.422H54.66zm15.519.176a2.23 2.23 0 0 1-1.184-.315 2.19 2.19 0 0 1-.8-.844 2.4 2.4 0 0 1-.29-1.146c0-.548.139-1.008.409-1.386a3.1 3.1 0 0 1 1.046-.907c.422-.233.869-.397 1.329-.497s.888-.152 1.266-.152a4.92 4.92 0 0 1 .334.019l.447.038.34.019.006-1.612c.006-.58-.094-.97-.302-1.172s-.535-.302-.989-.302c-.29 0-.58.05-.857.145s-.542.22-.781.365l-.674.454-.542.409h-.195l-.277-1.417c.233-.132.498-.258.793-.378a5.73 5.73 0 0 1 .983-.302 5.15 5.15 0 0 1 1.146-.12 4.25 4.25 0 0 1 1.48.271c.498.176.907.478 1.241.894s.491.976.479 1.682l-.057 4.692c0 .176.063.315.183.415.12.107.309.158.561.158.057 0 .183-.019.365-.057l.447-.113h.088v.428a4.73 4.73 0 0 1-.46.302 4.16 4.16 0 0 1-.636.309c-.227.088-.447.132-.655.132-.453 0-.8-.101-1.033-.308s-.346-.592-.346-1.153c-.277.416-.586.731-.926.939-.346.207-.686.346-1.02.415-.328.063-.636.095-.919.095zm.869-.983c.334 0 .693-.075 1.083-.227s.693-.39.92-.718l.025-2.796c-.724 0-1.354.069-1.883.208s-.945.365-1.234.668-.434.699-.434 1.19c0 .409.082.743.239.982.157.246.353.422.586.523a1.5 1.5 0 0 0 .699.17zm9.699.895l-3.262-7.74c-.057-.132-.126-.227-.22-.283a1.75 1.75 0 0 0-.391-.158l-.611-.189v-.403h4.005v.403l-1.291.277 2.041 4.919.46 1.121 2.292-5.983-1.266-.334v-.403h3.118v.403l-.611.24c-.17.063-.296.126-.384.17a.5.5 0 0 0-.214.271l-2.349 5.794-.976 1.889h-.34v.006zm5.491-.088v-.403l1.014-.227a.52.52 0 0 0 .29-.183c.076-.088.113-.201.113-.333v-5.902c0-.157-.044-.289-.126-.396s-.227-.196-.428-.271l-.825-.296v-.24l2.885-.617v7.722c0 .138.038.251.113.333a.55.55 0 0 0 .29.177l.932.226v.404h-4.257v.006zm2.072-10.971a1.08 1.08 0 0 1-.542-.145 1.06 1.06 0 0 1-.39-.391c-.094-.163-.145-.346-.145-.554 0-.296.107-.554.315-.762s.46-.315.762-.315a1.09 1.09 0 0 1 .781.315 1.02 1.02 0 0 1 .321.762 1.11 1.11 0 0 1-.145.554c-.101.164-.233.296-.397.391-.176.094-.359.145-.561.145zm7.055 7.891a6.31 6.31 0 0 1-.611-.025c-.189-.019-.384-.05-.579-.1-.239 0-.453.088-.642.258s-.283.371-.283.598c0 .29.088.516.258.674a.86.86 0 0 0 .598.239h2.822c.743 0 1.322.12 1.745.359s.724.536.907.895c.176.352.271.711.271 1.064a2.67 2.67 0 0 1-.611 1.732c-.409.504-.957.9-1.65 1.184-.686.283-1.461.422-2.305.422-.731 0-1.373-.082-1.934-.258-.56-.17-1.001-.422-1.316-.75s-.472-.737-.472-1.215c0-.63.195-1.102.592-1.424s.838-.56 1.335-.705c-.195-.05-.409-.139-.636-.271s-.422-.315-.586-.542c-.164-.233-.246-.51-.246-.837 0-.34.082-.617.258-.838a1.88 1.88 0 0 1 .642-.523c.258-.125.51-.226.749-.289a3.58 3.58 0 0 1-.775-.586c-.233-.227-.409-.51-.548-.844s-.202-.724-.202-1.178a2.51 2.51 0 0 1 .441-1.417c.29-.441.699-.799 1.215-1.07s1.102-.41 1.757-.41c.233 0 .491.026.775.07l.8.176h3.112l-.208 1.064-2.532-.611a2.99 2.99 0 0 1 .844 1.084c.183.403.271.787.271 1.14 0 .844-.283 1.536-.844 2.091s-1.373.843-2.412.843zm.296 6.639a4.38 4.38 0 0 0 1.373-.221 2.57 2.57 0 0 0 1.102-.686c.29-.315.434-.718.434-1.216 0-.359-.132-.705-.403-1.045s-.712-.504-1.335-.504h-2.815c-.214.057-.435.227-.655.491-.22.271-.334.668-.334 1.203 0 .384.088.699.271.957a1.91 1.91 0 0 0 .68.611 2.92 2.92 0 0 0 .863.315c.302.057.573.095.819.095zm-.183-7.149c.372 0 .674-.113.907-.346.233-.227.403-.535.51-.913s.164-.788.164-1.222c0-.674-.145-1.234-.441-1.669-.296-.441-.693-.661-1.184-.661-.397 0-.712.107-.957.321s-.422.497-.535.856a3.82 3.82 0 0 0-.17 1.172c0 .686.151 1.266.453 1.744a1.37 1.37 0 0 0 1.253.718zm8.112 3.766a2.23 2.23 0 0 1-1.184-.315 2.19 2.19 0 0 1-.8-.844 2.4 2.4 0 0 1-.29-1.146c0-.548.139-1.008.41-1.386a3.1 3.1 0 0 1 1.045-.907c.422-.233.869-.397 1.329-.497s.888-.152 1.266-.152a4.92 4.92 0 0 1 .334.019l.447.038.34.019.006-1.612c.007-.58-.094-.97-.302-1.172s-.535-.302-.989-.302c-.289 0-.579.05-.856.145a3.99 3.99 0 0 0-.781.365l-.674.454-.542.409h-.195l-.277-1.417c.233-.132.497-.258.793-.378s.624-.227.983-.302a5.15 5.15 0 0 1 1.146-.12 4.25 4.25 0 0 1 1.48.271c.498.176.907.478 1.241.894s.491.976.479 1.682l-.057 4.692c0 .176.063.315.183.415.119.107.308.158.56.158.057 0 .183-.019.365-.057l.448-.113h.088v.428a5.44 5.44 0 0 1-.454.302c-.195.12-.409.221-.636.309s-.447.132-.655.132c-.453 0-.8-.101-1.033-.308s-.346-.592-.346-1.153c-.277.416-.586.731-.926.939-.346.207-.686.346-1.02.415-.334.063-.643.095-.926.095zm.869-.983c.334 0 .693-.075 1.083-.227s.693-.39.92-.718l.025-2.796c-.724 0-1.354.069-1.883.208s-.945.365-1.234.668-.435.699-.435 1.19c0 .409.082.743.239.982.158.246.353.422.586.523a1.5 1.5 0 0 0 .699.17zm11.5-7.822l-.258.718h-2.803v6.116c0 .233.101.422.296.567a1.87 1.87 0 0 0 .686.314c.259.063.485.101.668.101a2.54 2.54 0 0 0 .668-.101c.252-.069.428-.126.522-.176h.089v.472l-.504.29a5.03 5.03 0 0 1-.775.334c-.296.101-.617.145-.97.145-.416 0-.793-.069-1.121-.202a1.81 1.81 0 0 1-.781-.592c-.189-.258-.29-.579-.29-.963v-6.317h-1.398v-.441l.806-.233a1.04 1.04 0 0 0 .536-.359c.132-.17.208-.428.226-.787l.063-1.103 1.273-.27v2.468h3.067v.019zm4.755 8.849c-.775 0-1.462-.176-2.054-.523s-1.051-.862-1.385-1.536-.498-1.499-.498-2.469c0-.813.158-1.568.479-2.274a4.17 4.17 0 0 1 1.386-1.7c.604-.435 1.322-.649 2.16-.649.711 0 1.31.164 1.807.498s.869.755 1.121 1.278c.252.517.378 1.058.378 1.619l-.006.227c0 .081-.006.157-.019.233-.006.075-.019.144-.031.207h-5.826l.044-.592h4.245c0-.51-.057-.982-.177-1.417-.119-.441-.308-.793-.566-1.064-.265-.271-.618-.409-1.058-.409-.454 0-.832.113-1.134.346s-.542.535-.718.901a4.16 4.16 0 0 0-.378 1.171c-.075.416-.113.806-.113 1.171 0 .649.082 1.279.258 1.884.17.604.466 1.102.894 1.486s1.021.579 1.776.579a3.66 3.66 0 0 0 1.191-.182c.346-.12.648-.265.9-.435a5.6 5.6 0 0 0 .611-.447h.088v.642c-.352.347-.825.674-1.417.983a4.19 4.19 0 0 1-1.958.472zm12.306-.22v-.422l1.317-.239a.51.51 0 0 0 .302-.183c.082-.101.12-.214.12-.346v-3.798l-3.433-6.178a2.26 2.26 0 0 0-.233-.334c-.088-.107-.195-.176-.315-.208l-.825-.214v-.422h4.396v.422l-1.543.296 2.645 4.711.611 1.083.025-.044 3.143-5.712-1.467-.334v-.422h3.413v.422l-.768.214a.69.69 0 0 0-.315.208 2.19 2.19 0 0 0-.239.328l-3.483 6.109v3.867a.51.51 0 0 0 .119.346c.082.094.183.157.303.176l1.322.24v.422h-5.095v.012zm12.917.24c-.837 0-1.561-.189-2.172-.567s-1.084-.907-1.417-1.594-.504-1.492-.504-2.412c0-.856.17-1.631.504-2.324s.812-1.247 1.436-1.662 1.373-.618 2.242-.618c.938 0 1.706.214 2.311.649s1.052.995 1.341 1.688a5.72 5.72 0 0 1 .441 2.229c0 .844-.163 1.613-.497 2.312s-.806 1.253-1.43 1.669c-.617.422-1.373.63-2.255.63zm.126-.592c.479 0 .87-.12 1.184-.366.309-.239.555-.56.737-.951s.309-.806.378-1.253a7.57 7.57 0 0 0 .114-1.266 7.55 7.55 0 0 0-.252-1.952c-.17-.636-.441-1.165-.813-1.587-.378-.416-.875-.63-1.505-.63-.472 0-.863.119-1.171.365-.309.239-.555.554-.737.938a4.52 4.52 0 0 0-.378 1.241c-.076.441-.114.869-.114 1.272 0 .447.038.914.12 1.398a5.66 5.66 0 0 0 .409 1.361c.196.422.454.768.781 1.033.334.271.744.397 1.247.397zm9.234.529a3.11 3.11 0 0 1-1.405-.315c-.416-.208-.743-.542-.982-.995s-.366-1.046-.366-1.776v-4.138c0-.158-.044-.29-.126-.397s-.226-.195-.428-.271l-.825-.296v-.239l2.885-.617v5.391c0 .529.044.995.125 1.385s.265.699.536.914.68.321 1.234.321c.529 0 .976-.095 1.335-.29s.624-.403.788-.63v-5.278c0-.157-.038-.277-.12-.359s-.22-.163-.428-.233l-.844-.296v-.239l2.891-.686v7.192c0 .157.037.29.119.397s.227.195.435.258l.825.258v.24l-2.658.686h-.189v-1.524c-.346.497-.73.875-1.146 1.134-.416.277-.97.403-1.656.403zm6.669-.177v-.403l.995-.227c.12-.031.214-.088.29-.182.075-.088.113-.202.113-.334v-5.882c0-.158-.044-.29-.126-.403s-.227-.208-.428-.278l-.825-.296v-.239l2.783-.617v1.959c.189-.309.41-.624.662-.939s.541-.573.875-.781.718-.315 1.153-.315c.34 0 .592.025.749.082l.548.189v2.097h-.453l-.29-.749c-.05-.12-.183-.208-.409-.265a2.6 2.6 0 0 0-.618-.081c-.289 0-.554.044-.8.138s-.472.233-.692.409c-.214.183-.422.41-.63.687v5.297c0 .289.132.466.403.51l1.153.226v.404h-4.453v-.007zm13.037 0v-.422l1.14-.239c.12-.032.22-.095.302-.189a.5.5 0 0 0 .12-.34v-9.964a.52.52 0 0 0-.12-.352c-.082-.095-.182-.158-.302-.183l-1.14-.233v-.422h9.012v2.878h-.485l-.636-1.889a.65.65 0 0 0-.126-.227c-.056-.063-.132-.088-.239-.088h-4.352v5.032h2.922c.12 0 .208-.025.259-.082a.68.68 0 0 0 .126-.208l.51-1.524h.422v4.308h-.422l-.51-1.505c-.032-.088-.07-.164-.126-.227s-.139-.088-.259-.088h-2.922v4.774c0 .138.038.252.12.346a.5.5 0 0 0 .308.177l1.279.239v.422h-4.881v.006zm10.058 0v-.403l1.014-.227c.119-.031.214-.088.289-.183.076-.088.114-.201.114-.333v-5.902c0-.157-.044-.289-.126-.396s-.227-.196-.429-.271l-.825-.296v-.24l2.885-.617v7.722c0 .138.038.251.113.333a.55.55 0 0 0 .29.177l.932.226v.404h-4.257v.006zm2.072-10.971c-.196 0-.378-.051-.542-.145s-.296-.227-.391-.391a1.08 1.08 0 0 1-.144-.554c0-.296.107-.554.315-.762s.466-.315.762-.315a1.09 1.09 0 0 1 .781.315 1.02 1.02 0 0 1 .321.762 1.12 1.12 0 0 1-.145.554c-.095.17-.233.296-.397.391-.176.094-.359.145-.56.145zm3.256 10.971v-.403l.976-.227c.12-.031.214-.088.29-.182.075-.088.113-.202.113-.334v-5.901c0-.158-.044-.29-.126-.397s-.227-.195-.428-.271l-.825-.296v-.239l2.84-.617v1.448c.302-.422.611-.743.913-.963s.618-.366.932-.441a4.16 4.16 0 0 1 .97-.114c.523 0 .989.107 1.411.315s.756.542 1.001.995.372 1.046.372 1.776v4.673c0 .152.038.271.12.366a.58.58 0 0 0 .283.182l.863.227v.403h-4.138v-.403l.983-.227c.113-.031.207-.088.277-.182s.107-.214.107-.366v-4.112c0-.535-.044-1.002-.139-1.398s-.277-.699-.554-.92-.686-.327-1.234-.327c-.359 0-.737.075-1.134.22s-.724.384-.989.718v5.851c0 .139.038.252.114.334.075.088.17.145.289.176l.863.227v.403h-4.15v.006zm13.181.176c-.447 0-.843-.107-1.184-.315-.346-.214-.61-.491-.799-.844a2.4 2.4 0 0 1-.29-1.146c0-.548.138-1.008.409-1.386s.624-.674 1.046-.907.869-.397 1.329-.497.888-.152 1.265-.152c.07 0 .183.007.334.019l.447.038.341.019.006-1.612c.006-.58-.095-.97-.302-1.172s-.536-.302-.989-.302c-.29 0-.58.05-.857.145s-.541.22-.781.365l-.674.454-.541.409h-.195l-.278-1.417c.233-.132.498-.258.794-.378s.623-.227.982-.302a5.16 5.16 0 0 1 1.147-.12c.491 0 .982.088 1.48.271a2.78 2.78 0 0 1 1.24.894c.334.416.492.976.479 1.682l-.057 4.692c0 .176.063.315.183.415.12.107.309.158.561.158.056 0 .182-.019.365-.057l.447-.113h.088v.428c-.107.082-.258.183-.46.302-.195.12-.409.221-.636.309s-.447.132-.655.132c-.453 0-.8-.101-1.033-.308s-.346-.592-.346-1.153c-.277.416-.586.731-.926.939-.346.207-.686.346-1.02.415-.334.063-.642.095-.92.095zm.87-.983c.333 0 .692-.075 1.083-.227a1.93 1.93 0 0 0 .919-.718l.026-2.796c-.725 0-1.355.069-1.884.208s-.944.365-1.234.668-.435.699-.435 1.19c0 .409.082.743.24.982.157.246.352.422.586.523a1.5 1.5 0 0 0 .699.17zm5.844.807v-.403l.976-.227c.12-.031.214-.088.29-.182.076-.088.113-.202.113-.334v-5.901c0-.158-.044-.29-.126-.397s-.226-.195-.428-.271l-.825-.296v-.239l2.841-.617v1.448c.302-.422.61-.743.913-.963a2.6 2.6 0 0 1 .932-.441c.315-.076.636-.114.97-.114.523 0 .989.107 1.411.315s.755.542 1.001.995.372 1.046.372 1.776v4.673c0 .152.037.271.119.366a.58.58 0 0 0 .284.182l.862.227v.403h-4.144v-.403l.983-.227a.49.49 0 0 0 .277-.182c.069-.095.107-.214.107-.366v-4.112c0-.535-.044-1.002-.139-1.398s-.277-.699-.554-.92-.686-.327-1.234-.327c-.359 0-.737.075-1.134.22s-.724.384-.989.718v5.851c0 .139.038.252.114.334.075.088.17.145.289.176l.863.227v.403h-4.144v.006zm17.817-1.89h.101v.636c-.346.347-.806.68-1.373 1.001s-1.209.479-1.914.479c-.769 0-1.436-.201-2.003-.598a3.85 3.85 0 0 1-1.304-1.575c-.302-.655-.46-1.36-.46-2.116 0-.636.101-1.247.303-1.826a4.75 4.75 0 0 1 .894-1.55c.397-.453.882-.812 1.455-1.077s1.241-.396 1.99-.396c.466 0 .838.044 1.127.132a3.1 3.1 0 0 1 .687.29l.46.258-.277 1.417h-.208l-.857-.586a4.92 4.92 0 0 0-.9-.472c-.315-.126-.674-.189-1.065-.189a1.47 1.47 0 0 0-.674.17c-.22.113-.403.252-.535.409-.113.133-.233.328-.365.592s-.24.58-.328.951-.132.788-.132 1.247c0 1.203.258 2.142.768 2.828s1.279 1.027 2.293 1.027a2.55 2.55 0 0 0 .951-.183c.296-.12.567-.264.8-.428.245-.17.428-.315.566-.441zm5.115 2.11c-.775 0-1.462-.176-2.054-.523s-1.051-.862-1.385-1.536-.498-1.499-.498-2.469c0-.813.158-1.568.479-2.274a4.17 4.17 0 0 1 1.386-1.7c.604-.435 1.322-.649 2.16-.649.711 0 1.31.164 1.807.498s.869.755 1.121 1.278c.252.517.378 1.058.378 1.619l-.006.227c0 .081-.006.157-.019.233-.006.075-.019.144-.031.207h-5.832l.044-.592h4.245c0-.51-.057-.982-.177-1.417-.12-.441-.308-.793-.567-1.064s-.617-.409-1.058-.409c-.453 0-.831.113-1.133.346s-.542.535-.718.901a4.16 4.16 0 0 0-.378 1.171 6.53 6.53 0 0 0-.114 1.171 6.68 6.68 0 0 0 .259 1.884c.17.604.466 1.102.894 1.486s1.02.579 1.776.579a3.65 3.65 0 0 0 1.19-.182c.347-.12.649-.265.901-.435a5.6 5.6 0 0 0 .611-.447h.088v.642c-.353.347-.825.674-1.417.983s-1.241.472-1.952.472zm5.019-.573v-2.362h.454l.34 1.065a.74.74 0 0 0 .277.378l.384.251a6.32 6.32 0 0 0 .844.341c.353.119.693.176 1.02.176.296 0 .58-.05.844-.145s.479-.252.643-.472c.17-.221.252-.523.252-.895 0-.485-.164-.825-.485-1.014-.321-.195-.706-.352-1.147-.472l-.875-.239-.781-.233a2.31 2.31 0 0 1-1.184-.857c-.309-.415-.46-.907-.46-1.48 0-.523.145-.976.441-1.367s.68-.699 1.165-.919a3.8 3.8 0 0 1 1.587-.334c.504 0 .933.032 1.298.101l1.171.264.145 2.4h-.491l-.397-1.077a.9.9 0 0 0-.233-.346 1.59 1.59 0 0 0-.346-.246c-.202-.101-.435-.189-.687-.271-.252-.075-.516-.119-.793-.119-.378 0-.731.1-1.065.302s-.504.56-.504 1.064c0 .51.139.863.41 1.065a3.08 3.08 0 0 0 .863.453l.825.239.661.196c.605.176 1.115.434 1.53.774s.63.832.63 1.48c0 .668-.157 1.216-.472 1.638s-.737.73-1.26.932-1.102.302-1.732.302c-.611 0-1.133-.063-1.581-.195l-1.291-.378z" fill="#004a9c"/><path d="M249.521 152.928h45.598m-291.686 0h44.508" stroke="#b42b36" stroke-width="1.575" stroke-miterlimit="10"/><path d="M0 91.478h7.677l18.478 33.033-.705.768V91.478h6.852v42.895h-7.734L6.147 101.838l.705-.769v33.304H0V91.478zm49.244 42.921h-7.205V91.472h7.205v42.927zm9.743-42.921h7.054v42.927h-7.054V91.478zm3.307 36.164h24.858v6.758H62.294v-6.758zm31.352-36.164h7.054v42.927h-7.053V91.478zm2.922 0h25.242v6.758H96.568v-6.758zm0 18.239h21.992v6.732H96.568v-6.732zm0 17.924h25.242v6.758H96.568v-6.758zm49.452-36.163h7.028v42.927h-7.028V91.478zm3.539 36.251h12.665c2.463 0 4.289-.516 5.492-1.549s1.801-2.475 1.801-4.327v-.088c0-1.279-.239-2.375-.705-3.275-.472-.907-1.203-1.6-2.185-2.079-.983-.485-2.205-.724-3.659-.724h-13.403v-6.613h13.403c1.946 0 3.432-.472 4.459-1.417s1.536-2.311 1.536-4.106c0-1.77-.541-3.118-1.625-4.031s-2.676-1.373-4.78-1.373h-12.986v-6.67h13.666c2.778 0 5.121.466 7.042 1.404 1.92.932 3.363 2.267 4.339 3.999s1.461 3.811 1.461 6.229c0 1.574-.309 3.004-.932 4.295-.617 1.291-1.537 2.368-2.746 3.231-1.209.869-2.689 1.455-4.44 1.77 1.814.258 3.363.85 4.667 1.789a9.21 9.21 0 0 1 2.979 3.57c.686 1.443 1.033 3.068 1.033 4.856v.088c0 2.381-.517 4.453-1.55 6.217s-2.519 3.117-4.459 4.062-4.238 1.417-6.896 1.417h-14.171v-6.676h-.006zm47.469-36.251h5.139l16.117 42.927h-7.59l-11.097-31.975-11.097 31.975h-7.589l16.117-42.927zm-8.528 28.013h22.585v6.758H188.5v-6.758zm35.691-28.013h7.677l18.479 33.033-.706.768V91.478h6.852v42.895h-7.734l-18.428-32.535.706-.769v33.304h-6.852V91.478h.006zm42.335 0h7.054v42.927h-7.054V91.478zm4.812 25.122l18.069-25.122h8.798l-26.804 34.897-.063-9.775zm7.142-4.522l5.845-4.396L300 134.399h-8.47l-13.05-22.321z" fill="#b42b36"/></svg>