<svg width="300" height="91" viewBox="0 0 300 91" fill="none" xmlns="http://www.w3.org/2000/svg">
<path d="M21.8752 6.55865C28.3228 2.76708 35.6969 0.510186 43.1802 0.258364C45.3849 0.210851 47.5943 0.239359 49.7894 0.434164C51.2385 0.619467 52.6829 0.847532 54.1274 1.0851C58.7457 2.05913 63.2214 3.71259 67.3218 6.05501C69.7355 7.39014 71.9687 9.0246 74.1305 10.7303C76.9101 13.2533 79.5993 15.9283 81.7469 19.0262C85.7143 24.59 88.5224 31.0328 89.5059 37.8178C90.5037 43.2201 90.3041 48.7791 89.3016 54.1672C88.4891 58.0965 87.1777 61.9119 85.4482 65.5324C80.5068 75.3724 71.8404 83.2312 61.644 87.3506C56.2085 89.4554 50.3548 90.4912 44.5296 90.3724C42.7716 90.4009 41.0136 90.2631 39.2509 90.2441C39.1701 86.1912 39.2366 82.1288 39.593 78.0902C40.0444 74.1228 40.8236 70.0937 42.7479 66.5492C43.4321 65.2996 44.216 64.0975 45.1663 63.0379C46.3066 61.679 47.5562 60.3582 49.1384 59.5172C52.3646 57.6309 56.237 57.5121 59.867 57.7924C62.2617 58.0205 64.6611 58.2201 67.0463 58.5241C66.2005 57.5026 65.5306 56.3005 64.4425 55.507C63.7536 54.9796 62.8461 55.0367 62.0479 54.7943C57.9759 53.7633 53.8565 52.7275 50.0555 50.8935C52.5547 50.7842 55.0539 50.7699 57.5531 50.7889C60.057 50.9077 62.58 50.9267 65.046 51.4446C69.1274 52.1288 73.204 53.6398 76.2734 56.5001C77.0431 57.1653 77.6655 57.9682 78.3117 58.7475C79.2667 57.0797 80.331 55.4643 81.1055 53.7015C81.9322 51.934 82.5974 50.0905 83.0583 48.1947C83.562 45.3772 83.5097 42.3268 82.1841 39.7278C81.0105 37.0338 78.6918 35.0572 76.2639 33.5083C73.2563 31.7455 69.9398 30.6337 66.6282 29.5932C66.7754 27.4978 67.5167 25.3265 66.7802 23.2644C66.4714 22.2191 65.6399 21.4636 64.8749 20.7414C62.2427 18.4893 58.7789 17.615 55.4387 17.0591C52.987 16.5365 50.4688 16.4842 47.9744 16.3369C35.1742 15.8998 22.4644 17.8336 9.84954 19.7151C9.01331 19.8672 8.15331 19.8957 7.34558 20.1618C8.52392 18.8504 9.46469 17.3442 10.7095 16.0899C13.9024 12.3458 17.6988 9.13863 21.8895 6.55865M4.71334 23.3642C7.59265 21.934 10.9233 22.029 14.0355 22.4519C15.9835 22.6515 17.8983 23.0743 19.8274 23.3832C14.7909 23.4639 9.74501 23.7205 4.71334 23.3689M45.2281 29.2131C47.2474 27.7877 49.5661 26.1817 52.1745 26.6046C54.9208 26.9182 56.9782 28.928 58.9405 30.6812C57.7194 31.2086 56.4555 32.3252 55.0491 31.7741C52.0415 30.1301 48.611 29.4839 45.2281 29.2131ZM2.86031 29.1703C7.46437 28.7712 12.1017 28.5241 16.72 28.8235C17.713 28.871 18.7156 28.9185 19.6991 29.1133C17.6132 29.1418 15.5464 29.4792 13.4701 29.6217C9.63573 30.0588 5.8109 30.6765 2.06684 31.6125C2.31866 30.7905 2.58948 29.978 2.86506 29.1703M17.8746 34.0357C18.8629 33.9454 19.8559 33.7981 20.8489 33.8741C13.8929 35.7129 6.89421 37.5327 0.251821 40.3312C0.399113 39.3239 0.570162 38.3167 0.736459 37.3141C3.92461 36.4019 7.18404 35.7794 10.4292 35.1C12.8904 34.6201 15.3849 34.3018 17.8793 34.0357M0 46.3892C7.47862 43.2296 15.114 40.2742 23.1343 38.8346C18.0979 40.9679 13.0092 42.9967 8.16757 45.5482C5.4498 47.0401 2.75578 48.5891 0.199557 50.3518C0.128286 49.0309 0.0760216 47.7101 0 46.3892ZM1.31612 56.5048C8.93253 51.1405 17.1429 46.4985 26.0279 43.6049C21.8752 46.0043 17.7178 48.4133 13.8549 51.2641C9.78303 54.1196 6.02946 57.4218 2.66551 61.0851C2.21413 59.5552 1.74374 58.0348 1.31612 56.5048ZM8.33862 63.7601C14.4061 57.4123 21.5236 52.0005 29.4489 48.1852C24.0846 52.2334 19.0814 56.7852 14.7719 61.9451C12.3488 64.9527 10.0301 68.0601 8.17707 71.4573C7.18879 70.0177 6.36681 68.464 5.44029 66.9815C6.35255 65.8602 7.32658 64.7864 8.33862 63.7601ZM23.0773 61.4462C26.2274 58.1203 29.6009 54.9654 33.3972 52.3949C26.0279 60.4912 19.5518 69.7373 16.3351 80.3043C15.0428 78.9977 13.7266 77.7101 12.4153 76.4177C15.3088 71.0012 18.9199 65.9695 23.0725 61.4462M35.7777 58.6429C36.6899 57.6594 37.5927 56.6664 38.6237 55.8064C32.3187 64.9005 27.7336 75.3154 26.0659 86.3005C24.5455 85.4928 23.0155 84.7136 21.5094 83.8868C24.555 74.6597 29.1875 65.8412 35.7824 58.6429M40.1679 64.3255C41.2655 62.4393 42.4248 60.5815 43.7504 58.8472C39.536 68.5827 36.4999 78.9882 36.2575 89.6502C34.7276 89.2749 33.2072 88.8805 31.6915 88.4481C33.2309 80.0335 35.9439 71.7804 40.1679 64.3208V64.3255Z" fill="#383C8F"/>
<path d="M122.342 83.9523C122.076 84.5937 121.772 85.2019 121.473 85.8576H121.42C121.116 85.2019 120.855 84.5985 120.575 83.9523L119.449 81.4863H118.261L120.883 86.8316V90.2146H121.995V86.8316L124.618 81.4863H123.468L122.342 83.9523Z" fill="#383C8F"/>
<path d="M128.837 81.3252C126.642 81.3252 125.107 83.0214 125.107 85.82C125.107 88.6185 126.647 90.3765 128.837 90.3765C131.028 90.3765 132.567 88.6138 132.567 85.82C132.567 83.0262 131.028 81.3252 128.837 81.3252ZM128.837 89.4025C127.279 89.4025 126.252 87.9961 126.252 85.82C126.252 83.6438 127.279 82.304 128.837 82.304C130.396 82.304 131.422 83.6438 131.422 85.82C131.422 87.9961 130.396 89.4025 128.837 89.4025Z" fill="#383C8F"/>
<path d="M139.618 86.6415C139.618 88.7416 138.706 89.3973 137.547 89.3973C136.388 89.3973 135.518 88.7369 135.518 86.6415V81.4863H134.406V86.613C134.406 89.4163 135.76 90.3761 137.542 90.3761C139.324 90.3761 140.678 89.4116 140.678 86.613V81.4863H139.614V86.6415H139.618Z" fill="#383C8F"/>
<path d="M148.816 83.9428C148.816 82.123 147.538 81.4863 145.761 81.4863H143.029V90.2193H144.141V86.5275H145.719L147.819 90.2193H149.078L146.854 86.404C148.037 86.1141 148.816 85.3064 148.816 83.9475V83.9428ZM144.136 82.3891H145.6C146.959 82.3891 147.705 82.7977 147.705 83.9475C147.705 85.0974 146.954 85.6295 145.6 85.6295H144.136V82.3891Z" fill="#383C8F"/>
<path d="M160.215 86.2435C160.044 87.17 159.887 88.1156 159.721 89.0563H159.669C159.46 88.1108 159.251 87.1653 159.037 86.2435L157.825 81.4922H156.818L155.606 86.2435C155.397 87.1748 155.188 88.1203 154.994 89.0563H154.941C154.77 88.1203 154.599 87.1796 154.428 86.2435L153.511 81.4922H152.361L154.214 90.2252H155.53L156.823 84.9749C156.975 84.2955 157.127 83.6588 157.26 82.9889H157.312C157.441 83.6588 157.583 84.2955 157.73 84.9749L159.051 90.2252H160.386L162.192 81.4922H161.118L160.201 86.2435H160.215Z" fill="#383C8F"/>
<path d="M164.829 81.4863H163.717V90.2193H164.829V81.4863Z" fill="#383C8F"/>
<path d="M172.374 86.0049C172.374 86.9171 172.459 87.9006 172.516 88.7844H172.464L171.523 86.9789L168.364 81.4911H167.214V90.2241H168.269V85.6533C168.269 84.741 168.183 83.8097 168.126 82.926H168.178L169.119 84.7268L172.279 90.2193H173.429V81.4863H172.374V86.0049Z" fill="#383C8F"/>
<path d="M179.087 86.6134H180.935V88.8846C180.588 89.2077 179.99 89.3977 179.363 89.3977C177.5 89.3977 176.46 88.0198 176.46 85.8295C176.46 83.6391 177.59 82.304 179.348 82.304C180.223 82.304 180.783 82.6698 181.23 83.126L181.838 82.4038C181.325 81.8764 180.531 81.3252 179.32 81.3252C177.006 81.3252 175.314 83.0404 175.314 85.858C175.314 88.6755 176.954 90.3765 179.258 90.3765C180.432 90.3765 181.387 89.9489 181.952 89.3645V85.6964H179.092V86.6182L179.087 86.6134Z" fill="#383C8F"/>
<path d="M187.625 85.5635L186.38 85.0266C185.696 84.7368 184.936 84.4232 184.936 83.5822C184.936 82.803 185.587 82.3089 186.566 82.3089C187.373 82.3089 188.01 82.6224 188.547 83.1261L189.136 82.4134C188.523 81.7815 187.601 81.3301 186.566 81.3301C184.979 81.3301 183.815 82.3136 183.815 83.6487C183.815 84.9839 184.77 85.5493 185.582 85.8961L186.836 86.452C187.663 86.8131 188.295 87.0982 188.295 87.9867C188.295 88.8752 187.616 89.4074 186.471 89.4074C185.563 89.4074 184.689 88.975 184.062 88.3241L183.396 89.0843C184.161 89.8825 185.226 90.3814 186.452 90.3814C188.286 90.3814 189.426 89.2791 189.426 87.9012C189.426 86.6041 188.637 86.0007 187.625 85.5683V85.5635Z" fill="#383C8F"/>
<path d="M192.971 82.4271H195.612V90.2193H196.724V82.4271H199.366V81.4863H192.971V82.4271Z" fill="#383C8F"/>
<path d="M203.832 81.3252C201.637 81.3252 200.103 83.0214 200.103 85.82C200.103 88.6185 201.642 90.3765 203.832 90.3765C206.023 90.3765 207.562 88.6138 207.562 85.82C207.562 83.0262 206.023 81.3252 203.832 81.3252ZM203.832 89.4025C202.274 89.4025 201.248 87.9961 201.248 85.82C201.248 83.6438 202.274 82.304 203.832 82.304C205.391 82.304 206.417 83.6438 206.417 85.82C206.417 87.9961 205.391 89.4025 203.832 89.4025Z" fill="#383C8F"/>
<path d="M211.278 82.4271H213.92V90.2193H215.027V82.4271H217.669V81.4863H211.278V82.4271Z" fill="#383C8F"/>
<path d="M224.401 85.1449H220.343V81.4863H219.231V90.2193H220.343V86.1141H224.401V90.2193H225.513V81.4863H224.401V85.1449Z" fill="#383C8F"/>
<path d="M229.014 86.1046H232.321V85.1639H229.014V82.4271H232.939V81.4863H227.902V90.2193H233.072V89.2785H229.014V86.1046Z" fill="#383C8F"/>
<path d="M244.533 86.2435C244.366 87.17 244.205 88.1156 244.039 89.0563H243.986C243.777 88.1108 243.568 87.1653 243.354 86.2435L242.143 81.4922H241.135L239.924 86.2435C239.715 87.1748 239.506 88.1203 239.311 89.0563H239.259C239.088 88.1203 238.917 87.1796 238.746 86.2435L237.829 81.4922H236.679L238.532 90.2252H239.848L241.14 84.9749C241.292 84.2955 241.444 83.6588 241.577 82.9889H241.63C241.758 83.6588 241.9 84.2955 242.048 84.9749L243.369 90.2252H244.704L246.509 81.4922H245.435L244.518 86.2435H244.533Z" fill="#383C8F"/>
<path d="M251.18 81.3252C248.985 81.3252 247.45 83.0214 247.45 85.82C247.45 88.6185 248.99 90.3765 251.18 90.3765C253.37 90.3765 254.91 88.6138 254.91 85.82C254.91 83.0262 253.37 81.3252 251.18 81.3252ZM251.18 89.4025C249.622 89.4025 248.595 87.9961 248.595 85.82C248.595 83.6438 249.622 82.304 251.18 82.304C252.738 82.304 253.765 83.6438 253.765 85.82C253.765 87.9961 252.738 89.4025 251.18 89.4025Z" fill="#383C8F"/>
<path d="M262.578 83.9428C262.578 82.123 261.3 81.4863 259.523 81.4863H256.791V90.2193H257.903V86.5275H259.48L261.58 90.2193H262.84L260.616 86.404C261.799 86.1141 262.578 85.3064 262.578 83.9475V83.9428ZM257.898 82.3891H259.362C260.72 82.3891 261.466 82.7977 261.466 83.9475C261.466 85.0974 260.72 85.6295 259.362 85.6295H257.898V82.3891Z" fill="#383C8F"/>
<path d="M265.467 81.4863H264.355V90.2193H269.278V89.2785H265.467V81.4863Z" fill="#383C8F"/>
<path d="M273.007 81.4863H270.821V90.2193H273.054C275.691 90.2193 277.131 88.5943 277.131 85.8243C277.131 83.0543 275.691 81.4911 273.007 81.4911V81.4863ZM272.921 89.307H271.933V82.3986H272.921C274.964 82.3986 275.981 83.6149 275.981 85.8243C275.981 88.0337 274.964 89.3118 272.921 89.3118V89.307Z" fill="#383C8F"/>
<path d="M120.446 71.9272H131.308L137.965 40.8486H125.388L115.99 58.3716L114.474 40.8486H101.997L95.3877 71.9272H99.7922L104.491 50.052L106.691 71.9272H113.348L124.946 50.7837L120.446 71.9272Z" fill="#383C8F"/>
<path d="M147.852 71.9272L154.504 40.8486H143.885L137.28 71.9272H147.852Z" fill="#383C8F"/>
<path d="M173.396 40.3594C171.666 40.3594 169.837 40.5494 167.913 40.92C165.988 41.2954 164.216 41.9226 162.601 42.8063C160.985 43.6853 159.65 44.8351 158.586 46.2558C157.526 47.6764 156.994 49.4297 156.994 51.5155C156.994 52.9172 157.232 54.067 157.702 54.965C158.172 55.863 158.771 56.6042 159.489 57.1934C160.206 57.7826 160.995 58.2387 161.864 58.5618C162.729 58.8896 163.551 59.1652 164.335 59.3933C165.152 59.6546 165.941 59.9064 166.711 60.1535C167.476 60.3958 168.155 60.6904 168.739 61.0325C169.329 61.3746 169.79 61.7927 170.136 62.2821C170.483 62.7715 170.649 63.3749 170.649 64.0924C170.649 64.615 170.559 65.1424 170.379 65.6841C170.198 66.221 169.937 66.7104 169.595 67.1522C169.253 67.5941 168.83 67.96 168.321 68.2545C167.813 68.5491 167.238 68.6964 166.582 68.6964C165.993 68.6964 165.504 68.5824 165.114 68.3543C164.725 68.1263 164.42 67.8317 164.207 67.4753C163.993 67.119 163.841 66.7246 163.741 66.3017C163.641 65.8789 163.594 65.4703 163.594 65.0759C163.594 64.7813 163.608 64.3822 163.641 63.8785C163.675 63.3749 163.708 62.971 163.741 62.6812H155.127L153.464 69.3854C153.953 69.9413 154.704 70.4307 155.716 70.8535C156.567 71.2146 157.731 71.5472 159.218 71.8561C160.7 72.1649 162.62 72.3217 164.967 72.3217C167.314 72.3217 169.428 72.1269 171.4 71.7325C173.372 71.3429 175.078 70.7062 176.513 69.8225C177.948 68.9435 179.074 67.7984 179.891 66.3968C180.703 64.9951 181.112 63.2656 181.112 61.2083C181.112 59.7734 180.917 58.576 180.523 57.6115C180.133 56.6517 179.615 55.8678 178.979 55.2644C178.342 54.6609 177.615 54.181 176.802 53.8199C175.985 53.4636 175.173 53.169 174.356 52.9409C173.377 52.6796 172.431 52.4516 171.519 52.2568C170.607 52.0619 169.79 51.8149 169.072 51.525C168.355 51.2305 167.775 50.8551 167.333 50.399C166.891 49.9428 166.673 49.2919 166.673 48.4414C166.673 47.8523 166.777 47.2916 166.991 46.7547C167.205 46.2178 167.495 45.7427 167.87 45.334C168.245 44.9254 168.678 44.5928 169.167 44.3315C169.656 44.0702 170.193 43.9419 170.783 43.9419C171.305 43.9419 171.728 44.0464 172.056 44.2602C172.384 44.474 172.626 44.7686 172.788 45.1392C172.949 45.5146 173.063 45.9375 173.13 46.4126C173.196 46.8877 173.229 47.3676 173.229 47.857C173.229 48.7075 173.182 49.3727 173.082 49.8621H181.207L183.017 43.0581C182.167 42.3407 180.922 41.7135 179.273 41.1719C177.624 40.635 175.657 40.3641 173.377 40.3641L173.396 40.3594Z" fill="#383C8F"/>
<path d="M196.591 58.3715H197.128L201.433 71.9271H212.347L206.669 57.2929C209.149 56.4424 210.926 55.2071 212.005 53.5726C213.083 51.9429 213.62 50.1659 213.62 48.2368C213.62 46.6689 213.326 45.405 212.741 44.4453C212.152 43.4855 211.363 42.7348 210.366 42.1931C209.368 41.6562 208.204 41.2951 206.869 41.1146C205.529 40.934 204.113 40.8438 202.611 40.8438H189.74L183.131 71.9223H193.703L196.591 58.3667V58.3715ZM199.675 44.1792H201.875C202.854 44.1792 203.49 44.4833 203.785 45.0867C204.08 45.6901 204.227 46.4171 204.227 47.2628C204.227 47.947 204.146 48.7547 203.985 49.686C203.823 50.6173 203.552 51.4868 203.177 52.304C202.801 53.1212 202.312 53.8149 201.709 54.3851C201.105 54.9553 200.378 55.2403 199.533 55.2403H197.233L199.68 44.1792H199.675Z" fill="#383C8F"/>
<path d="M245.14 57.293L245.924 53.5252H237.552L239.462 44.5689H249.497L250.277 40.8486H229.675L223.07 71.9272H233.637L236.773 57.293H245.14Z" fill="#383C8F"/>
<path d="M268.237 71.9272L269.068 67.8173H259.138L264.911 40.8486H254.292L247.683 71.9272H268.237Z" fill="#383C8F"/>
<path d="M294.717 40.8486L287.376 53.1356L284.045 40.8486H272.3L277.099 59.3504L274.405 71.9272H285.024L287.523 60.1819L300 40.8486H294.717Z" fill="#383C8F"/>
</svg>
