<svg width="171" height="90" viewBox="0 0 171 90" fill="none" xmlns="http://www.w3.org/2000/svg">
<path d="M119.624 55.7674C119.441 55.9822 119.226 56.0799 119.057 56.1515C118.783 56.2622 118.548 56.2752 118.092 56.3013C117.734 56.3208 117.623 56.3013 116.671 56.3013C116.639 56.3013 116.587 56.3013 116.489 56.3013C113.426 56.3403 111.966 56.3403 111.066 56.3403C108.772 56.3403 106.641 56.3338 104.672 56.3273C104.373 56.3273 104.066 56.3273 103.76 56.3273C103.708 56.3273 103.584 56.3273 103.532 56.3273C103.46 56.3273 103.369 56.3208 103.265 56.2947C103.193 56.2817 103.108 56.2622 103.004 56.2231C102.932 56.1906 102.847 56.158 102.763 56.0799C102.743 56.0604 102.658 55.9822 102.587 55.8585C102.541 55.7739 102.515 55.6958 102.509 55.6372C102.489 55.5655 102.469 55.4809 102.456 55.3897C102.443 55.3246 102.437 55.2725 102.437 55.2595C102.391 54.9275 101.55 49.6667 100.573 42.1662C99.8689 36.326 99.3606 32.0679 99.3149 31.6773C99.2433 31.0001 99.2367 30.9611 99.2367 30.9611C99.2237 30.8504 99.2172 30.7397 99.1976 30.6225C99.1846 30.5183 99.1781 30.4141 99.1585 30.3165C99.3215 30.2644 99.9928 30.0105 100.358 29.3008C100.592 28.832 100.586 28.4023 100.573 28.2265C100.56 28.0898 100.495 27.3931 99.9015 26.8527C99.3801 26.3839 98.6436 26.2081 97.9658 26.397C97.2163 26.6053 96.8448 27.1848 96.7535 27.328C96.4863 27.7642 96.4602 28.1744 96.4602 28.2981C96.4602 28.4153 96.4472 28.845 96.7014 29.3138C97.0208 29.9258 97.5617 30.1863 97.7442 30.2709C97.7116 30.3425 97.6725 30.4402 97.6269 30.5509C97.6269 30.5509 97.5552 30.7267 97.477 30.909C97.2098 31.5861 94.329 39.4382 91.1419 46.6522C91.0767 46.7889 90.9725 47.0363 90.8356 47.3358C90.1056 45.8579 89.317 44.3408 88.4632 42.7847C87.6029 41.2091 86.736 39.7051 85.8692 38.2727C86.0452 38.2011 86.4167 38.0253 86.7165 37.6282C87.0098 37.2505 87.0945 36.8664 87.1206 36.6711C87.1532 36.4432 87.1727 36.0525 86.9967 35.6098C86.8338 35.1931 86.5666 34.9327 86.3971 34.7959C85.9865 34.4639 85.5498 34.3662 85.3217 34.3337C85.3022 34.3337 85.2696 34.3337 85.237 34.3272C84.9893 34.3141 84.4549 34.3272 83.9465 34.6657C83.3599 35.0564 82.9754 35.7726 83.0406 36.5343C83.1057 37.3091 83.6011 37.9863 84.331 38.2792C83.6076 39.7572 82.8646 41.2482 82.0955 42.7522C81.3069 44.3018 80.5183 45.8188 79.7296 47.3033C79.5928 47.0038 79.4885 46.7564 79.4233 46.6196C76.2362 39.4056 73.3554 31.5601 73.0882 30.8764C73.0165 30.6941 72.9383 30.5183 72.9383 30.5183C72.8927 30.4076 72.8601 30.3165 72.821 30.2384C73.0035 30.1602 73.5379 29.8933 73.8638 29.2813C74.1115 28.8125 74.1049 28.3828 74.1049 28.2656C74.1049 28.1484 74.0724 27.7317 73.8117 27.2955C73.7204 27.1457 73.3489 26.5728 72.5994 26.3644C71.9281 26.1756 71.1916 26.3514 70.6637 26.8267C70.0771 27.3606 70.0054 28.0572 69.9989 28.2005C69.9858 28.3763 69.9793 28.8125 70.214 29.2748C70.5789 29.9844 71.2503 30.2384 71.4132 30.2904C71.4002 30.3881 71.3871 30.4923 71.3741 30.5965C71.3611 30.7136 71.348 30.8243 71.335 30.935C71.335 30.935 71.335 30.9741 71.2568 31.6512C71.2177 32.0419 70.7093 36.2999 69.9989 42.1337C69.0212 49.6407 68.1805 54.9014 68.1348 55.2335C68.1348 55.2465 68.1283 55.2986 68.1153 55.3637C68.0957 55.4614 68.0827 55.5395 68.0632 55.6111C68.0501 55.6632 68.0306 55.7478 67.9849 55.8325C67.9132 55.9562 67.835 56.0278 67.809 56.0538C67.7177 56.132 67.633 56.171 67.5613 56.1971C67.4635 56.2427 67.3788 56.2557 67.3006 56.2687C67.1963 56.2882 67.1051 56.3013 67.0334 56.3013C66.9747 56.3013 66.8574 56.3013 66.8053 56.3013C66.4989 56.3013 66.1926 56.3013 65.8863 56.3013C63.9245 56.3143 61.7932 56.3143 59.4991 56.3143C58.5996 56.3143 57.1332 56.3143 54.0764 56.2752C53.9787 56.2752 53.9265 56.2752 53.8939 56.2752C52.9424 56.2752 52.8316 56.2882 52.4731 56.2752C52.0169 56.2492 51.7822 56.2362 51.5085 56.1255C51.339 56.0538 51.124 55.9627 50.9415 55.7413C50.6612 55.3897 50.6808 54.9665 50.6938 54.8428C50.8502 53.469 51.0132 52.1018 51.1696 50.728C51.2282 50.1225 51.326 49.1849 51.4629 48.039C51.4629 48.039 51.9712 43.7158 52.6751 39.015C54.8455 24.4437 58.2998 10.198 59.1862 6.59097C59.675 4.61168 60.0791 3.02954 60.3138 2.11802C60.3659 1.93572 60.4702 1.66878 60.6918 1.42136C61.0763 0.998158 61.6042 0.809344 62.2495 0.815855C63.7681 0.835387 65.3062 0.841898 66.8639 0.841898C67.1637 0.841898 68.552 0.841898 71.3415 0.802833C72.8862 0.77679 74.6589 0.737725 76.6338 0.672616C76.8097 0.666105 77.9373 0.620529 78.7259 1.47996C79.1496 1.94223 79.2734 2.4631 79.3255 2.67144C79.6449 4.03872 80.5313 7.47645 81.724 12.1382C82.7994 15.8754 83.8618 19.6387 84.9111 23.415C85.0349 23.8577 85.1523 24.3005 85.2761 24.7432C85.3934 24.307 85.5172 23.8773 85.6345 23.441C86.6839 19.6647 87.7463 15.908 88.8217 12.1643C90.0144 7.50249 90.9073 4.05825 91.2201 2.69098C91.2657 2.48914 91.3961 1.96827 91.8197 1.506C92.6084 0.646573 93.7424 0.692149 93.9119 0.69866C95.8867 0.763768 97.666 0.802833 99.2042 0.828876C101.994 0.874452 103.388 0.867941 103.682 0.867941C105.233 0.867941 106.771 0.861431 108.296 0.841898C108.941 0.835387 109.463 1.0242 109.847 1.44741C110.069 1.68831 110.173 1.96176 110.225 2.14407C110.46 3.05558 110.864 4.64423 111.353 6.61702C112.239 10.224 115.694 24.4697 117.864 39.041C118.561 43.7418 119.076 48.065 119.076 48.065C119.207 49.2109 119.304 50.1485 119.37 50.754C119.526 52.1278 119.689 53.4951 119.845 54.8689C119.858 54.9991 119.878 55.4223 119.598 55.7674" fill="#121212"/>
<path d="M0 83.9913V67.0566H5.46825L9.24844 76.8294L12.9895 67.0566H18.4969V83.9913H14.632L14.5929 73.255L10.2391 83.8872H8.22518L3.91055 73.255L3.87144 83.9913H0Z" fill="#121212"/>
<path d="M22.8506 82.6885C21.8664 81.6142 21.3711 80.299 21.3711 78.7364C21.3711 77.1738 21.8664 75.8587 22.8506 74.7779C23.8347 73.6971 25.0861 73.1567 26.5917 73.1567C26.6894 73.1567 26.898 73.1567 27.2174 73.1436C27.5367 73.1436 27.8235 73.1306 28.0777 73.1306C28.3319 73.1306 28.6577 73.1306 29.0684 73.1436C29.4724 73.1501 29.8374 73.1697 30.1503 73.1957C30.4696 73.2218 30.8151 73.2543 31.1931 73.2999C31.5711 73.339 31.9035 73.4041 32.1838 73.4822C32.464 73.5603 32.7247 73.658 32.9659 73.7622C33.207 73.8663 33.3895 73.9966 33.5133 74.1528C33.6372 74.3091 33.7024 74.4849 33.7219 74.6737V83.9907H30.0851V82.7992C29.6875 83.2485 29.1792 83.6131 28.5665 83.8865C27.9473 84.16 27.2956 84.2967 26.5917 84.2967C25.0861 84.2967 23.8413 83.7628 22.8506 82.6885ZM25.236 78.7364C25.236 79.0945 25.2947 79.4201 25.412 79.7196C25.5293 80.0191 25.6922 80.2795 25.9073 80.5009C26.1224 80.7223 26.3831 80.8915 26.6894 81.0152C26.9958 81.1389 27.3347 81.1975 27.7062 81.1975C28.1689 81.1975 28.5926 81.0934 28.9576 80.8785C29.3225 80.6637 29.6158 80.3772 29.8179 80.0061C30.0264 79.6349 30.1242 79.2117 30.1242 78.7299C30.1242 78.0072 29.8896 77.4082 29.4268 76.946C28.9641 76.4837 28.384 76.2493 27.6997 76.2493C27.0153 76.2493 26.4157 76.4837 25.9399 76.946C25.4641 77.4082 25.2295 78.0072 25.2295 78.7299L25.236 78.7364Z" fill="#121212"/>
<path d="M36.207 83.9065C36.8132 84.8245 37.7908 85.4821 39.1465 85.8793C40.0329 86.1267 40.8671 86.2504 41.6427 86.2504C41.9881 86.2504 42.327 86.2244 42.6594 86.1658C43.5914 85.9769 44.0607 85.6188 44.0607 85.098C44.0607 84.6748 43.8065 84.4143 43.2982 84.3167C42.8289 84.206 42.0077 84.1539 40.8345 84.1539C39.8113 84.1539 38.9509 83.9651 38.2405 83.5875C37.5301 83.2098 37.1782 82.715 37.1782 82.0965C37.1782 81.9337 37.1977 81.7775 37.2433 81.6212C37.2889 81.4649 37.3411 81.3347 37.3997 81.224C37.4584 81.1133 37.504 80.9962 37.5431 80.8594C37.5822 80.7227 37.6018 80.5925 37.6083 80.4688C37.6148 80.3386 37.5822 80.1823 37.504 79.9935C37.4258 79.8047 37.3085 79.5963 37.1586 79.3684C37.0869 79.2708 37.0022 79.1471 36.9044 78.9908C36.8066 78.8346 36.6763 78.5285 36.5068 78.0663C36.3374 77.6105 36.2527 77.1678 36.2527 76.7446C36.2527 75.8851 36.4677 75.1429 36.9044 74.5179C37.3346 73.8928 37.9472 73.424 38.7359 73.1115C39.5245 72.799 40.45 72.6297 41.5123 72.6167C42.1837 72.6167 42.7442 72.6623 43.1874 72.7534C43.6306 72.8446 44.0998 72.9748 44.5821 73.1506C45.0644 73.3264 45.5141 73.4566 45.9313 73.5412C46.1138 73.5543 46.2702 73.5608 46.4005 73.5608C46.5309 73.5608 46.6547 73.5543 46.759 73.5412C46.9219 73.5152 47.0979 73.424 47.2934 73.2743L47.5998 73.0269L48.3819 75.0778C48.2711 75.2992 48.0755 75.4489 47.7888 75.527C47.6128 75.5791 47.4368 75.6117 47.2739 75.6117C47.1892 75.6117 47.1175 75.6052 47.0458 75.5922L46.7199 75.5531C46.8372 76.0609 46.9024 76.4907 46.9024 76.8487C46.9024 76.9464 46.8959 77.0376 46.8828 77.1352C46.8568 77.3371 46.8046 77.5584 46.7329 77.7798C46.6612 78.0077 46.5569 78.2551 46.4201 78.5285C46.2832 78.802 46.1007 79.0624 45.8791 79.3098C45.6575 79.5573 45.3903 79.7851 45.084 80C44.7776 80.2149 44.4127 80.3841 43.976 80.5209C43.5393 80.6576 43.0635 80.7357 42.5421 80.7487H42.2619C41.5971 80.7618 41.193 80.7813 41.0496 80.8073C40.9062 80.8334 40.8345 80.9115 40.8345 81.0482C40.8345 81.185 40.9518 81.2761 41.1799 81.3217C41.4146 81.3673 41.7861 81.3868 42.301 81.3868C45.9117 81.3868 47.7171 82.5457 47.7171 84.8571C47.7171 86.0355 47.1826 86.9666 46.1138 87.6502C45.0449 88.3339 43.5132 88.692 41.5189 88.718H41.2647C40.8345 88.718 40.45 88.692 40.0915 88.6334C39.6483 88.5618 39.2638 88.4576 38.9379 88.3013C38.612 88.1451 38.3252 87.9888 38.0711 87.8195C37.8234 87.6502 37.6083 87.4354 37.4193 87.1815C37.2368 86.9275 37.0804 86.6866 36.95 86.4522C36.8197 86.2178 36.7089 85.9444 36.6111 85.6189C36.5134 85.2998 36.4351 85.0133 36.3895 84.779C36.3439 84.5446 36.2852 84.2451 36.2266 83.9065H36.207ZM39.544 76.9529C39.5897 77.4608 39.8113 77.8709 40.2153 78.1835C40.5608 78.4569 40.9583 78.5937 41.4015 78.5937C41.4667 78.5937 41.5319 78.5871 41.6101 78.5741C42.138 78.522 42.5486 78.2942 42.8484 77.897C43.1222 77.5259 43.2656 77.1027 43.2656 76.6274V76.5037C43.2265 75.9828 43.0309 75.5661 42.6855 75.2536C42.3857 74.9932 42.0272 74.8629 41.6101 74.8629C41.5189 74.8629 41.4341 74.8694 41.3429 74.8825C40.7824 74.9346 40.3131 75.1689 39.9286 75.5791C39.5766 75.9502 39.4006 76.3669 39.4006 76.8292C39.4984 76.8683 39.5506 76.9139 39.5506 76.9529H39.544Z" fill="#121212"/>
<path d="M52.1123 82.6891C51.1281 81.6148 50.6328 80.2996 50.6328 78.737C50.6328 77.1744 51.1281 75.8592 52.1123 74.7784C53.0965 73.6976 54.3544 73.1572 55.8729 73.1572C57.763 73.1572 58.9232 73.1702 59.3468 73.1962L59.3273 66.3403H63.0032V83.9912H59.3664V82.7997C58.4604 83.8024 57.3003 84.2972 55.8729 84.2972C54.3544 84.2972 53.0965 83.7633 52.1123 82.6891ZM55.2016 76.953C54.7324 77.4153 54.4912 78.0143 54.4912 78.737C54.4912 79.4597 54.7193 80.0522 55.169 80.5144C55.6188 80.9767 56.2184 81.2046 56.9549 81.2046C57.574 81.2046 58.0954 81.0288 58.5386 80.6707C58.9753 80.3126 59.2491 79.8438 59.3598 79.2513V78.2031C59.236 77.6301 58.9492 77.1614 58.506 76.7967C58.0628 76.4321 57.5414 76.2498 56.9549 76.2498C56.2575 76.2498 55.6709 76.4842 55.1951 76.9465L55.2016 76.953Z" fill="#121212"/>
<path d="M65.4043 73.4629H69.5951L72.5345 78.8604L75.0438 73.4629H79.2346L70.9508 89.3298H66.76L70.3968 82.3502L65.4043 73.4629Z" fill="#121212"/>
<path d="M84.9883 83.9913V67.0566H89.8243C92.1316 67.0566 94.1064 67.8575 95.7358 69.4657C97.3652 71.0738 98.1799 73.0857 98.1799 75.5142C98.1799 77.9428 97.3652 79.9742 95.7423 81.5823C94.1194 83.1905 92.1446 83.9979 89.8243 83.9979H84.9883V83.9913ZM88.8532 80.5015C90.828 80.5015 92.2293 80.0718 93.0636 79.2059C93.8978 78.3464 94.3149 77.1159 94.3149 75.5338C94.3149 73.9516 93.8978 72.7146 93.0636 71.8486C92.2293 70.9827 90.8215 70.5465 88.8532 70.5465V80.5015Z" fill="#121212"/>
<path d="M102.842 82.6496C101.682 81.5492 101.102 80.234 101.102 78.717C101.102 77.2 101.669 75.8913 102.809 74.7975C103.943 73.7037 105.312 73.1567 106.896 73.1567C108.479 73.1567 109.894 73.7102 110.956 74.8105C112.019 75.9108 112.546 77.4213 112.546 79.3355H104.966C104.966 79.7587 105.116 80.1624 105.41 80.5335C105.703 80.9046 106.068 81.1846 106.511 81.3734C106.759 81.4776 107.039 81.5362 107.352 81.5362C107.587 81.5362 107.834 81.5036 108.088 81.4385C108.688 81.2953 109.268 80.9502 109.816 80.4228L112.449 81.5036C111.354 83.3788 109.529 84.3163 106.98 84.3163C105.384 84.3163 104.008 83.7629 102.848 82.6626L102.842 82.6496ZM104.986 77.4865H108.994C108.91 76.9135 108.688 76.4382 108.33 76.0736C107.965 75.7025 107.521 75.5202 107.006 75.5202C106.42 75.5202 105.944 75.7155 105.579 76.1127C105.214 76.5098 105.019 76.9656 104.993 77.4865H104.986Z" fill="#121212"/>
<path d="M114.898 82.8649L116.378 80.4168C116.867 80.7554 117.33 81.0158 117.766 81.1981C118.19 81.3934 118.535 81.5041 118.822 81.5302C118.92 81.5432 119.024 81.5497 119.141 81.5497C119.298 81.5627 119.441 81.5497 119.585 81.4911C119.806 81.439 119.969 81.3544 120.067 81.2372C120.165 81.12 120.217 80.9898 120.217 80.8465C120.217 80.6121 120.106 80.3778 119.884 80.1499C119.663 79.922 119.383 79.7202 119.044 79.5444C118.711 79.3686 118.34 79.1733 117.942 78.9649C117.545 78.7566 117.173 78.5482 116.834 78.3464C116.495 78.1445 116.202 77.9036 115.967 77.6237C115.733 77.3437 115.615 77.0442 115.615 76.7317C115.615 76.2955 115.733 75.8527 115.961 75.4035C116.195 74.9477 116.547 74.5375 117.03 74.1599C117.492 73.8018 118.053 73.5153 118.698 73.3135C119.122 73.1833 119.611 73.1182 120.178 73.1182C120.451 73.1182 120.738 73.1312 121.038 73.1637C121.944 73.2679 122.889 73.5674 123.873 74.0557L122.68 76.5559C122.159 76.3215 121.69 76.1522 121.266 76.048C120.842 75.9439 120.504 75.8918 120.262 75.8918C120.021 75.8918 119.813 75.9308 119.656 76.0025C119.493 76.0741 119.389 76.1587 119.337 76.2499C119.285 76.341 119.259 76.4387 119.259 76.5429C119.259 76.7642 119.422 76.9856 119.748 77.207C120.073 77.4283 120.477 77.6432 120.947 77.8516C121.423 78.0599 121.898 78.2878 122.368 78.5352C122.837 78.7826 123.241 79.0951 123.58 79.4793C123.912 79.8569 124.082 80.2671 124.082 80.7163C124.082 81.3218 123.893 81.8818 123.521 82.4091C123.15 82.9365 122.635 83.3532 121.996 83.6592C121.357 83.9652 120.653 84.1736 119.884 84.2843C119.65 84.3103 119.415 84.3233 119.167 84.3233C118.594 84.3233 118.001 84.2387 117.369 84.0759C116.463 83.8415 115.641 83.4379 114.905 82.8649H114.898Z" fill="#121212"/>
<path d="M126.455 83.9909V73.196H130.092V83.9909H126.455ZM127.087 71.0995C126.748 70.7544 126.585 70.3442 126.585 69.8689C126.585 69.3936 126.755 68.9835 127.087 68.6384C127.426 68.2933 127.824 68.124 128.3 68.124C128.775 68.124 129.173 68.2933 129.512 68.6384C129.851 68.9835 130.014 69.3936 130.014 69.8689C130.014 70.3442 129.844 70.7544 129.512 71.0995C129.173 71.4446 128.769 71.6138 128.3 71.6138C127.83 71.6138 127.426 71.4446 127.087 71.0995Z" fill="#121212"/>
<path d="M132.742 83.9065C133.348 84.8245 134.326 85.4821 135.682 85.8793C136.568 86.1267 137.402 86.2504 138.178 86.2504C138.523 86.2504 138.862 86.2244 139.195 86.1658C140.127 85.9769 140.596 85.6188 140.596 85.098C140.596 84.6748 140.342 84.4143 139.833 84.3167C139.364 84.206 138.543 84.1539 137.37 84.1539C136.346 84.1539 135.486 83.9651 134.776 83.5875C134.065 83.2098 133.713 82.715 133.713 82.0965C133.713 81.9337 133.733 81.7775 133.778 81.6212C133.824 81.4649 133.876 81.3347 133.935 81.224C133.994 81.1133 134.039 80.9962 134.078 80.8594C134.117 80.7227 134.137 80.5925 134.143 80.4688C134.15 80.3386 134.117 80.1823 134.039 79.9935C133.961 79.8047 133.844 79.5963 133.694 79.3684C133.622 79.2708 133.537 79.1471 133.44 78.9908C133.342 78.8346 133.211 78.5285 133.042 78.0663C132.873 77.6105 132.788 77.1678 132.788 76.7446C132.788 75.8851 133.003 75.1429 133.44 74.5179C133.87 73.8928 134.482 73.424 135.271 73.1115C136.06 72.799 136.985 72.6297 138.047 72.6167C138.719 72.6167 139.279 72.6623 139.723 72.7534C140.166 72.8446 140.635 72.9748 141.117 73.1506C141.6 73.3264 142.049 73.4566 142.466 73.5412C142.649 73.5543 142.805 73.5608 142.936 73.5608C143.066 73.5608 143.19 73.5543 143.294 73.5412C143.457 73.5152 143.633 73.424 143.829 73.2743L144.135 73.0269L144.917 75.0778C144.806 75.2992 144.611 75.4489 144.324 75.527C144.148 75.5791 143.972 75.6117 143.809 75.6117C143.724 75.6117 143.653 75.6052 143.581 75.5922L143.255 75.5531C143.372 76.0609 143.438 76.4907 143.438 76.8487C143.438 76.9464 143.431 77.0376 143.418 77.1352C143.392 77.3371 143.34 77.5584 143.268 77.7798C143.196 78.0077 143.092 78.2551 142.955 78.5285C142.818 78.802 142.636 79.0624 142.414 79.3098C142.193 79.5573 141.925 79.7851 141.619 80C141.313 80.2149 140.948 80.3841 140.511 80.5209C140.074 80.6576 139.599 80.7357 139.077 80.7487H138.797C138.132 80.7618 137.728 80.7813 137.585 80.8073C137.441 80.8334 137.37 80.9115 137.37 81.0482C137.37 81.185 137.487 81.2761 137.715 81.3217C137.95 81.3673 138.321 81.3868 138.836 81.3868C142.447 81.3868 144.252 82.5457 144.252 84.8571C144.252 86.0355 143.718 86.9666 142.649 87.6502C141.58 88.3339 140.048 88.692 138.054 88.718H137.8C137.37 88.718 136.985 88.692 136.627 88.6334C136.183 88.5618 135.799 88.4576 135.473 88.3013C135.147 88.1451 134.86 87.9888 134.606 87.8195C134.359 87.6502 134.143 87.4354 133.954 87.1815C133.772 86.9275 133.616 86.6866 133.485 86.4522C133.355 86.2178 133.244 85.9444 133.146 85.6189C133.049 85.2998 132.97 85.0133 132.925 84.779C132.879 84.5446 132.82 84.2451 132.762 83.9065H132.742ZM136.073 76.9529C136.118 77.4608 136.34 77.8709 136.744 78.1835C137.089 78.4569 137.487 78.5937 137.93 78.5937C137.995 78.5937 138.061 78.5871 138.139 78.5741C138.667 78.522 139.077 78.2942 139.377 77.897C139.651 77.5259 139.794 77.1027 139.794 76.6274V76.5037C139.755 75.9828 139.56 75.5661 139.214 75.2536C138.914 74.9932 138.556 74.8629 138.139 74.8629C138.047 74.8629 137.963 74.8694 137.872 74.8825C137.311 74.9346 136.842 75.1689 136.457 75.5791C136.105 75.9502 135.929 76.3669 135.929 76.8292C136.027 76.8683 136.079 76.9139 136.079 76.9529H136.073Z" fill="#121212"/>
<path d="M147.232 83.991V73.3198H150.172V73.9188C150.915 73.4109 151.919 73.157 153.183 73.157C155.171 73.157 156.618 73.5411 157.517 74.3159C158.417 75.0907 158.866 76.3538 158.866 78.1052V83.9975H155.229V79.0037C155.229 77.9685 155.073 77.2263 154.767 76.79C154.46 76.3538 153.932 76.1324 153.183 76.1324C152.433 76.1324 151.879 76.3473 151.567 76.79C151.254 77.2263 151.097 77.962 151.097 79.0037V83.9975H147.232V83.991Z" fill="#121212"/>
<path d="M161.357 82.8649L162.837 80.4168C163.326 80.7554 163.788 81.0158 164.225 81.1981C164.649 81.3934 164.994 81.5041 165.281 81.5302C165.379 81.5432 165.483 81.5497 165.6 81.5497C165.757 81.5627 165.9 81.5497 166.044 81.4911C166.265 81.439 166.428 81.3544 166.526 81.2372C166.624 81.12 166.676 80.9898 166.676 80.8465C166.676 80.6121 166.565 80.3778 166.343 80.1499C166.122 79.922 165.842 79.7202 165.503 79.5444C165.17 79.3686 164.799 79.1733 164.401 78.9649C164.004 78.7566 163.632 78.5482 163.293 78.3464C162.954 78.1445 162.661 77.9036 162.426 77.6237C162.192 77.3437 162.074 77.0442 162.074 76.7317C162.074 76.2955 162.192 75.8527 162.42 75.4035C162.654 74.9477 163.006 74.5375 163.489 74.1599C163.951 73.8018 164.512 73.5153 165.157 73.3135C165.581 73.1833 166.07 73.1182 166.637 73.1182C166.91 73.1182 167.197 73.1312 167.497 73.1637C168.403 73.2679 169.348 73.5674 170.332 74.0557L169.139 76.5559C168.618 76.3215 168.149 76.1522 167.725 76.048C167.301 75.9439 166.963 75.8918 166.721 75.8918C166.48 75.8918 166.272 75.9308 166.115 76.0025C165.952 76.0741 165.848 76.1587 165.796 76.2499C165.744 76.341 165.718 76.4387 165.718 76.5429C165.718 76.7642 165.881 76.9856 166.206 77.207C166.532 77.4283 166.936 77.6432 167.406 77.8516C167.882 78.0599 168.357 78.2878 168.827 78.5352C169.296 78.7826 169.7 79.0951 170.039 79.4793C170.371 79.8569 170.541 80.2671 170.541 80.7163C170.541 81.3218 170.352 81.8818 169.98 82.4091C169.609 82.9365 169.094 83.3532 168.455 83.6592C167.816 83.9652 167.112 84.1736 166.343 84.2843C166.109 84.3103 165.874 84.3233 165.626 84.3233C165.053 84.3233 164.46 84.2387 163.828 84.0759C162.922 83.8415 162.1 83.4379 161.364 82.8649H161.357Z" fill="#121212"/>
</svg>
