<svg width="171" height="90" viewBox="0 0 171 90" fill="none" xmlns="http://www.w3.org/2000/svg">
<path d="M119.325 55.9783C119.142 56.1932 118.927 56.2908 118.758 56.3624C118.484 56.4731 118.249 56.4862 117.793 56.5122C117.435 56.5317 117.324 56.5122 116.372 56.5122C116.34 56.5122 116.288 56.5122 116.19 56.5122C113.127 56.5513 111.667 56.5513 110.767 56.5513C108.473 56.5513 106.342 56.5448 104.374 56.5382C104.074 56.5382 103.767 56.5382 103.461 56.5382C103.409 56.5382 103.285 56.5382 103.233 56.5382C103.161 56.5382 103.07 56.5317 102.966 56.5057C102.894 56.4927 102.809 56.4731 102.705 56.4341C102.633 56.4015 102.549 56.369 102.464 56.2908C102.444 56.2713 102.36 56.1932 102.288 56.0695C102.242 55.9848 102.216 55.9067 102.21 55.8481C102.19 55.7765 102.171 55.6918 102.158 55.6007C102.145 55.5356 102.138 55.4835 102.138 55.4705C102.092 55.1384 101.252 49.8776 100.274 42.3772C99.5701 36.5369 99.0617 32.2788 99.0161 31.8882C98.9444 31.2111 98.9379 31.172 98.9379 31.172C98.9249 31.0613 98.9184 30.9506 98.8988 30.8334C98.8858 30.7293 98.8792 30.6251 98.8597 30.5274C99.0226 30.4753 99.694 30.2214 100.059 29.5117C100.294 29.043 100.287 28.6132 100.274 28.4374C100.261 28.3007 100.196 27.6041 99.6027 27.0637C99.0813 26.5949 98.3448 26.4191 97.667 26.6079C96.9175 26.8162 96.546 27.3957 96.4547 27.5389C96.1875 27.9752 96.1614 28.3854 96.1614 28.5091C96.1614 28.6263 96.1484 29.056 96.4026 29.5248C96.7219 30.1368 97.2629 30.3972 97.4454 30.4818C97.4128 30.5535 97.3737 30.6511 97.3281 30.7618C97.3281 30.7618 97.2564 30.9376 97.1782 31.1199C96.9109 31.797 94.0302 39.6491 90.8431 46.8631C90.7779 46.9999 90.6736 47.2473 90.5368 47.5468C89.8068 46.0688 89.0182 44.5518 88.1644 42.9957C87.304 41.4201 86.4372 39.9161 85.5704 38.4837C85.7463 38.4121 86.1178 38.2363 86.4176 37.8391C86.7109 37.4615 86.7957 37.0773 86.8217 36.882C86.8543 36.6541 86.8739 36.2635 86.6979 35.8207C86.535 35.404 86.2677 35.1436 86.0983 35.0069C85.6877 34.6748 85.251 34.5772 85.0229 34.5446C85.0033 34.5446 84.9707 34.5446 84.9382 34.5381C84.6905 34.5251 84.156 34.5381 83.6477 34.8767C83.0611 35.2673 82.6765 35.9835 82.7417 36.7453C82.8069 37.5201 83.3022 38.1972 84.0322 38.4902C83.3088 39.9681 82.5658 41.4591 81.7967 42.9631C81.008 44.5127 80.2194 46.0297 79.4308 47.5142C79.2939 47.2147 79.1896 46.9673 79.1245 46.8306C75.9374 39.6166 73.0566 31.771 72.7894 31.0874C72.7177 30.9051 72.6395 30.7293 72.6395 30.7293C72.5939 30.6186 72.5613 30.5274 72.5222 30.4493C72.7046 30.3712 73.2391 30.1042 73.565 29.4922C73.8126 29.0234 73.8061 28.5937 73.8061 28.4765C73.8061 28.3593 73.7735 27.9426 73.5128 27.5064C73.4216 27.3566 73.0501 26.7837 72.3006 26.5753C71.6293 26.3865 70.8928 26.5623 70.3648 27.0376C69.7783 27.5715 69.7066 28.2682 69.7 28.4114C69.687 28.5872 69.6805 29.0234 69.9151 29.4857C70.2801 30.1954 70.9514 30.4493 71.1144 30.5014C71.1013 30.599 71.0883 30.7032 71.0753 30.8074C71.0622 30.9246 71.0492 31.0353 71.0361 31.146C71.0361 31.146 71.0362 31.185 70.9579 31.8621C70.9188 32.2528 70.4105 36.5109 69.7 42.3446C68.7224 49.8516 67.8816 55.1124 67.836 55.4444C67.836 55.4574 67.8295 55.5095 67.8165 55.5746C67.7969 55.6723 67.7839 55.7504 67.7643 55.822C67.7513 55.8741 67.7317 55.9588 67.6861 56.0434C67.6144 56.1671 67.5362 56.2387 67.5101 56.2648C67.4189 56.3429 67.3342 56.382 67.2625 56.408C67.1647 56.4536 67.08 56.4666 67.0018 56.4796C66.8975 56.4992 66.8062 56.5122 66.7345 56.5122C66.6759 56.5122 66.5586 56.5122 66.5064 56.5122C66.2001 56.5122 65.8938 56.5122 65.5875 56.5122C63.6257 56.5252 61.4944 56.5252 59.2002 56.5252C58.3008 56.5252 56.8343 56.5252 53.7776 56.4862C53.6798 56.4862 53.6277 56.4862 53.5951 56.4862C52.6435 56.4862 52.5327 56.4992 52.1743 56.4862C51.718 56.4601 51.4834 56.4471 51.2097 56.3364C51.0402 56.2648 50.8251 56.1736 50.6426 55.9523C50.3624 55.6007 50.3819 55.1775 50.395 55.0538C50.5514 53.68 50.7143 52.3127 50.8708 50.9389C50.9294 50.3334 51.0272 49.3958 51.164 48.2499C51.164 48.2499 51.6724 43.9267 52.3763 39.2259C54.5467 24.6546 58.001 10.4089 58.8874 6.80191C59.3762 4.82261 59.7803 3.24048 60.0149 2.32896C60.0671 2.14666 60.1713 1.87971 60.3929 1.6323C60.7775 1.2091 61.3054 1.02028 61.9506 1.02679C63.4692 1.04632 65.0074 1.05284 66.5651 1.05284C66.8649 1.05284 68.2531 1.05284 71.0427 1.01377C72.5873 0.987727 74.3601 0.948662 76.3349 0.883554C76.5109 0.877043 77.6385 0.831467 78.4271 1.6909C78.8507 2.15317 78.9746 2.67404 79.0267 2.88238C79.3461 4.24966 80.2325 7.68738 81.4252 12.3491C82.5006 16.0864 83.5629 19.8496 84.6123 23.6259C84.7361 24.0687 84.8534 24.5114 84.9773 24.9541C85.0946 24.5179 85.2184 24.0882 85.3357 23.652C86.385 19.8757 87.4474 16.1189 88.5228 12.3752C89.7155 7.71343 90.6084 4.26919 90.9213 2.90192C90.9669 2.70008 91.0973 2.17921 91.5209 1.71694C92.3095 0.85751 93.4436 0.903086 93.613 0.909597C95.5879 0.974706 97.3672 1.01377 98.9053 1.03981C101.695 1.08539 103.09 1.07888 103.383 1.07888C104.934 1.07888 106.472 1.07237 107.997 1.05284C108.643 1.04632 109.164 1.23514 109.549 1.65834C109.77 1.89925 109.874 2.1727 109.927 2.355C110.161 3.26652 110.565 4.85517 111.054 6.82795C111.94 10.435 115.395 24.6807 117.565 39.252C118.263 43.9528 118.777 48.276 118.777 48.276C118.908 49.4219 119.006 50.3595 119.071 50.965C119.227 52.3387 119.39 53.706 119.546 55.0798C119.56 55.21 119.579 55.6332 119.299 55.9783" fill="white"/>
<path d="M0 83.7804V66.8457H5.46825L9.24844 76.6185L12.9895 66.8457H18.4969V83.7804H14.632L14.5929 73.044L10.2391 83.6762H8.22518L3.91055 73.044L3.87144 83.7804H0Z" fill="white"/>
<path d="M22.8506 82.4776C21.8664 81.4033 21.3711 80.0881 21.3711 78.5255C21.3711 76.9629 21.8664 75.6477 22.8506 74.5669C23.8347 73.4861 25.0861 72.9457 26.5917 72.9457C26.6894 72.9457 26.898 72.9457 27.2174 72.9327C27.5367 72.9327 27.8235 72.9197 28.0777 72.9197C28.3319 72.9197 28.6577 72.9197 29.0684 72.9327C29.4724 72.9392 29.8374 72.9587 30.1503 72.9848C30.4696 73.0108 30.8151 73.0434 31.1931 73.089C31.5711 73.128 31.9035 73.1931 32.1838 73.2713C32.464 73.3494 32.7247 73.4471 32.9659 73.5512C33.207 73.6554 33.3895 73.7856 33.5133 73.9419C33.6372 74.0981 33.7024 74.2739 33.7219 74.4627V83.7798H30.0851V82.5883C29.6875 83.0375 29.1792 83.4021 28.5665 83.6756C27.9473 83.949 27.2956 84.0858 26.5917 84.0858C25.0861 84.0858 23.8413 83.5519 22.8506 82.4776ZM25.236 78.5255C25.236 78.8836 25.2947 79.2091 25.412 79.5086C25.5293 79.8081 25.6922 80.0686 25.9073 80.29C26.1224 80.5113 26.3831 80.6806 26.6894 80.8043C26.9958 80.928 27.3347 80.9866 27.7062 80.9866C28.1689 80.9866 28.5926 80.8824 28.9576 80.6676C29.3225 80.4527 29.6158 80.1662 29.8179 79.7951C30.0264 79.424 30.1242 79.0008 30.1242 78.519C30.1242 77.7963 29.8896 77.1973 29.4268 76.735C28.9641 76.2728 28.384 76.0384 27.6997 76.0384C27.0153 76.0384 26.4157 76.2728 25.9399 76.735C25.4641 77.1973 25.2295 77.7963 25.2295 78.519L25.236 78.5255Z" fill="white"/>
<path d="M36.207 83.6956C36.8132 84.6136 37.7908 85.2712 39.1465 85.6684C40.0329 85.9158 40.8671 86.0395 41.6427 86.0395C41.9881 86.0395 42.327 86.0134 42.6594 85.9548C43.5914 85.766 44.0607 85.4079 44.0607 84.887C44.0607 84.4638 43.8065 84.2034 43.2982 84.1057C42.8289 83.9951 42.0077 83.943 40.8345 83.943C39.8113 83.943 38.9509 83.7542 38.2405 83.3765C37.5301 82.9989 37.1782 82.5041 37.1782 81.8855C37.1782 81.7228 37.1977 81.5665 37.2433 81.4103C37.2889 81.254 37.3411 81.1238 37.3997 81.0131C37.4584 80.9024 37.504 80.7852 37.5431 80.6485C37.5822 80.5118 37.6018 80.3815 37.6083 80.2578C37.6148 80.1276 37.5822 79.9714 37.504 79.7825C37.4258 79.5937 37.3085 79.3854 37.1586 79.1575C37.0869 79.0598 37.0022 78.9361 36.9044 78.7799C36.8066 78.6236 36.6763 78.3176 36.5068 77.8553C36.3374 77.3996 36.2527 76.9568 36.2527 76.5336C36.2527 75.6742 36.4677 74.932 36.9044 74.3069C37.3346 73.6819 37.9472 73.2131 38.7359 72.9006C39.5245 72.5881 40.45 72.4188 41.5123 72.4058C42.1837 72.4058 42.7442 72.4513 43.1874 72.5425C43.6306 72.6336 44.0998 72.7639 44.5821 72.9397C45.0644 73.1154 45.5141 73.2457 45.9313 73.3303C46.1138 73.3433 46.2702 73.3498 46.4005 73.3498C46.5309 73.3498 46.6547 73.3433 46.759 73.3303C46.9219 73.3043 47.0979 73.2131 47.2934 73.0634L47.5998 72.8159L48.3819 74.8669C48.2711 75.0882 48.0755 75.238 47.7888 75.3161C47.6128 75.3682 47.4368 75.4007 47.2739 75.4007C47.1892 75.4007 47.1175 75.3942 47.0458 75.3812L46.7199 75.3421C46.8372 75.85 46.9024 76.2797 46.9024 76.6378C46.9024 76.7355 46.8959 76.8266 46.8828 76.9243C46.8568 77.1261 46.8046 77.3475 46.7329 77.5689C46.6612 77.7967 46.5569 78.0441 46.4201 78.3176C46.2832 78.5911 46.1007 78.8515 45.8791 79.0989C45.6575 79.3463 45.3903 79.5742 45.084 79.7891C44.7776 80.0039 44.4127 80.1732 43.976 80.3099C43.5393 80.4467 43.0635 80.5248 42.5421 80.5378H42.2619C41.5971 80.5508 41.193 80.5704 41.0496 80.5964C40.9062 80.6224 40.8345 80.7006 40.8345 80.8373C40.8345 80.974 40.9518 81.0652 41.1799 81.1108C41.4146 81.1563 41.7861 81.1759 42.301 81.1759C45.9117 81.1759 47.7171 82.3348 47.7171 84.6461C47.7171 85.8246 47.1826 86.7557 46.1138 87.4393C45.0449 88.1229 43.5132 88.481 41.5189 88.5071H41.2647C40.8345 88.5071 40.45 88.481 40.0915 88.4224C39.6483 88.3508 39.2638 88.2466 38.9379 88.0904C38.612 87.9341 38.3252 87.7779 38.0711 87.6086C37.8234 87.4393 37.6083 87.2244 37.4193 86.9705C37.2368 86.7166 37.0804 86.4757 36.95 86.2413C36.8197 86.0069 36.7089 85.7335 36.6111 85.4079C36.5134 85.0889 36.4351 84.8024 36.3895 84.568C36.3439 84.3336 36.2852 84.0341 36.2266 83.6956H36.207ZM39.544 76.742C39.5897 77.2498 39.8113 77.66 40.2153 77.9725C40.5608 78.246 40.9583 78.3827 41.4015 78.3827C41.4667 78.3827 41.5319 78.3762 41.6101 78.3632C42.138 78.3111 42.5486 78.0832 42.8484 77.6861C43.1222 77.3149 43.2656 76.8917 43.2656 76.4164V76.2927C43.2265 75.7719 43.0309 75.3552 42.6855 75.0427C42.3857 74.7822 42.0272 74.652 41.6101 74.652C41.5189 74.652 41.4341 74.6585 41.3429 74.6715C40.7824 74.7236 40.3131 74.958 39.9286 75.3682C39.5766 75.7393 39.4006 76.156 39.4006 76.6183C39.4984 76.6573 39.5506 76.7029 39.5506 76.742H39.544Z" fill="white"/>
<path d="M52.1123 82.4781C51.1281 81.4038 50.6328 80.0886 50.6328 78.526C50.6328 76.9634 51.1281 75.6482 52.1123 74.5674C53.0965 73.4866 54.3544 72.9462 55.8729 72.9462C57.763 72.9462 58.9232 72.9593 59.3468 72.9853L59.3273 66.1294H63.0032V83.7803H59.3664V82.5888C58.4604 83.5915 57.3003 84.0863 55.8729 84.0863C54.3544 84.0863 53.0965 83.5524 52.1123 82.4781ZM55.2016 76.7421C54.7324 77.2043 54.4912 77.8033 54.4912 78.526C54.4912 79.2487 54.7193 79.8412 55.169 80.3035C55.6188 80.7658 56.2184 80.9936 56.9549 80.9936C57.574 80.9936 58.0954 80.8179 58.5386 80.4598C58.9753 80.1017 59.2491 79.6329 59.3598 79.0404V77.9921C59.236 77.4192 58.9492 76.9504 58.506 76.5858C58.0628 76.2212 57.5414 76.0389 56.9549 76.0389C56.2575 76.0389 55.6709 76.2733 55.1951 76.7356L55.2016 76.7421Z" fill="white"/>
<path d="M65.4043 73.252H69.5951L72.5345 78.6494L75.0438 73.252H79.2346L70.9508 89.1189H66.76L70.3968 82.1393L65.4043 73.252Z" fill="white"/>
<path d="M84.9883 83.7804V66.8457H89.8243C92.1316 66.8457 94.1064 67.6465 95.7358 69.2547C97.3652 70.8629 98.1799 72.8747 98.1799 75.3033C98.1799 77.7318 97.3652 79.7632 95.7423 81.3714C94.1194 82.9796 92.1446 83.7869 89.8243 83.7869H84.9883V83.7804ZM88.8532 80.2906C90.828 80.2906 92.2293 79.8609 93.0636 78.9949C93.8978 78.1355 94.3149 76.905 94.3149 75.3228C94.3149 73.7407 93.8978 72.5036 93.0636 71.6377C92.2293 70.7717 90.8215 70.3355 88.8532 70.3355V80.2906Z" fill="white"/>
<path d="M102.842 82.4386C101.682 81.3383 101.102 80.0231 101.102 78.5061C101.102 76.989 101.669 75.6804 102.809 74.5865C103.943 73.4927 105.312 72.9458 106.896 72.9458C108.479 72.9458 109.894 73.4992 110.956 74.5996C112.019 75.6999 112.546 77.2104 112.546 79.1246H104.966C104.966 79.5478 105.116 79.9515 105.41 80.3226C105.703 80.6937 106.068 80.9737 106.511 81.1625C106.759 81.2667 107.039 81.3253 107.352 81.3253C107.587 81.3253 107.834 81.2927 108.088 81.2276C108.688 81.0844 109.268 80.7393 109.816 80.2119L112.449 81.2927C111.354 83.1678 109.529 84.1054 106.98 84.1054C105.384 84.1054 104.008 83.552 102.848 82.4516L102.842 82.4386ZM104.986 77.2755H108.994C108.91 76.7026 108.688 76.2273 108.33 75.8627C107.965 75.4915 107.521 75.3092 107.006 75.3092C106.42 75.3092 105.944 75.5046 105.579 75.9017C105.214 76.2989 105.019 76.7546 104.993 77.2755H104.986Z" fill="white"/>
<path d="M114.898 82.654L116.378 80.2059C116.867 80.5444 117.33 80.8049 117.766 80.9872C118.19 81.1825 118.535 81.2932 118.822 81.3192C118.92 81.3323 119.024 81.3388 119.141 81.3388C119.298 81.3518 119.441 81.3388 119.585 81.2802C119.806 81.2281 119.969 81.1434 120.067 81.0263C120.165 80.9091 120.217 80.7788 120.217 80.6356C120.217 80.4012 120.106 80.1668 119.884 79.9389C119.663 79.7111 119.383 79.5092 119.044 79.3334C118.711 79.1576 118.34 78.9623 117.942 78.754C117.545 78.5456 117.173 78.3373 116.834 78.1354C116.495 77.9336 116.202 77.6927 115.967 77.4127C115.733 77.1328 115.615 76.8333 115.615 76.5207C115.615 76.0845 115.733 75.6418 115.961 75.1925C116.195 74.7368 116.547 74.3266 117.03 73.949C117.492 73.5909 118.053 73.3044 118.698 73.1026C119.122 72.9723 119.611 72.9072 120.178 72.9072C120.451 72.9072 120.738 72.9202 121.038 72.9528C121.944 73.057 122.889 73.3565 123.873 73.8448L122.68 76.345C122.159 76.1106 121.69 75.9413 121.266 75.8371C120.842 75.7329 120.504 75.6808 120.262 75.6808C120.021 75.6808 119.813 75.7199 119.656 75.7915C119.493 75.8632 119.389 75.9478 119.337 76.0389C119.285 76.1301 119.259 76.2278 119.259 76.3319C119.259 76.5533 119.422 76.7747 119.748 76.996C120.073 77.2174 120.477 77.4323 120.947 77.6406C121.423 77.849 121.898 78.0768 122.368 78.3242C122.837 78.5717 123.241 78.8842 123.58 79.2683C123.912 79.646 124.082 80.0561 124.082 80.5054C124.082 81.1109 123.893 81.6708 123.521 82.1982C123.15 82.7256 122.635 83.1423 121.996 83.4483C121.357 83.7543 120.653 83.9626 119.884 84.0733C119.65 84.0994 119.415 84.1124 119.167 84.1124C118.594 84.1124 118.001 84.0278 117.369 83.865C116.463 83.6306 115.641 83.2269 114.905 82.654H114.898Z" fill="white"/>
<path d="M126.455 83.78V72.985H130.092V83.78H126.455ZM127.087 70.8885C126.748 70.5435 126.585 70.1333 126.585 69.658C126.585 69.1827 126.755 68.7725 127.087 68.4274C127.426 68.0824 127.824 67.9131 128.3 67.9131C128.775 67.9131 129.173 68.0824 129.512 68.4274C129.851 68.7725 130.014 69.1827 130.014 69.658C130.014 70.1333 129.844 70.5435 129.512 70.8885C129.173 71.2336 128.769 71.4029 128.3 71.4029C127.83 71.4029 127.426 71.2336 127.087 70.8885Z" fill="white"/>
<path d="M132.742 83.6956C133.348 84.6136 134.326 85.2712 135.682 85.6684C136.568 85.9158 137.402 86.0395 138.178 86.0395C138.523 86.0395 138.862 86.0134 139.195 85.9548C140.127 85.766 140.596 85.4079 140.596 84.887C140.596 84.4638 140.342 84.2034 139.833 84.1057C139.364 83.9951 138.543 83.943 137.37 83.943C136.346 83.943 135.486 83.7542 134.776 83.3765C134.065 82.9989 133.713 82.5041 133.713 81.8855C133.713 81.7228 133.733 81.5665 133.778 81.4103C133.824 81.254 133.876 81.1238 133.935 81.0131C133.994 80.9024 134.039 80.7852 134.078 80.6485C134.117 80.5118 134.137 80.3815 134.143 80.2578C134.15 80.1276 134.117 79.9714 134.039 79.7825C133.961 79.5937 133.844 79.3854 133.694 79.1575C133.622 79.0598 133.537 78.9361 133.44 78.7799C133.342 78.6236 133.211 78.3176 133.042 77.8553C132.873 77.3996 132.788 76.9568 132.788 76.5336C132.788 75.6742 133.003 74.932 133.44 74.3069C133.87 73.6819 134.482 73.2131 135.271 72.9006C136.06 72.5881 136.985 72.4188 138.047 72.4058C138.719 72.4058 139.279 72.4513 139.723 72.5425C140.166 72.6336 140.635 72.7639 141.117 72.9397C141.6 73.1154 142.049 73.2457 142.466 73.3303C142.649 73.3433 142.805 73.3498 142.936 73.3498C143.066 73.3498 143.19 73.3433 143.294 73.3303C143.457 73.3043 143.633 73.2131 143.829 73.0634L144.135 72.8159L144.917 74.8669C144.806 75.0882 144.611 75.238 144.324 75.3161C144.148 75.3682 143.972 75.4007 143.809 75.4007C143.724 75.4007 143.653 75.3942 143.581 75.3812L143.255 75.3421C143.372 75.85 143.438 76.2797 143.438 76.6378C143.438 76.7355 143.431 76.8266 143.418 76.9243C143.392 77.1261 143.34 77.3475 143.268 77.5689C143.196 77.7967 143.092 78.0441 142.955 78.3176C142.818 78.5911 142.636 78.8515 142.414 79.0989C142.193 79.3463 141.925 79.5742 141.619 79.7891C141.313 80.0039 140.948 80.1732 140.511 80.3099C140.074 80.4467 139.599 80.5248 139.077 80.5378H138.797C138.132 80.5508 137.728 80.5704 137.585 80.5964C137.441 80.6224 137.37 80.7006 137.37 80.8373C137.37 80.974 137.487 81.0652 137.715 81.1108C137.95 81.1563 138.321 81.1759 138.836 81.1759C142.447 81.1759 144.252 82.3348 144.252 84.6461C144.252 85.8246 143.718 86.7557 142.649 87.4393C141.58 88.1229 140.048 88.481 138.054 88.5071H137.8C137.37 88.5071 136.985 88.481 136.627 88.4224C136.183 88.3508 135.799 88.2466 135.473 88.0904C135.147 87.9341 134.86 87.7779 134.606 87.6086C134.359 87.4393 134.143 87.2244 133.954 86.9705C133.772 86.7166 133.616 86.4757 133.485 86.2413C133.355 86.0069 133.244 85.7335 133.146 85.4079C133.049 85.0889 132.97 84.8024 132.925 84.568C132.879 84.3336 132.82 84.0341 132.762 83.6956H132.742ZM136.073 76.742C136.118 77.2498 136.34 77.66 136.744 77.9725C137.089 78.246 137.487 78.3827 137.93 78.3827C137.995 78.3827 138.061 78.3762 138.139 78.3632C138.667 78.3111 139.077 78.0832 139.377 77.6861C139.651 77.3149 139.794 76.8917 139.794 76.4164V76.2927C139.755 75.7719 139.56 75.3552 139.214 75.0427C138.914 74.7822 138.556 74.652 138.139 74.652C138.047 74.652 137.963 74.6585 137.872 74.6715C137.311 74.7236 136.842 74.958 136.457 75.3682C136.105 75.7393 135.929 76.156 135.929 76.6183C136.027 76.6573 136.079 76.7029 136.079 76.742H136.073Z" fill="white"/>
<path d="M147.232 83.7801V73.1088H150.172V73.7078C150.915 73.2 151.919 72.946 153.183 72.946C155.171 72.946 156.618 73.3302 157.517 74.105C158.417 74.8798 158.866 76.1429 158.866 77.8943V83.7866H155.229V78.7928C155.229 77.7576 155.073 77.0153 154.767 76.5791C154.46 76.1429 153.932 75.9215 153.183 75.9215C152.433 75.9215 151.879 76.1364 151.567 76.5791C151.254 77.0153 151.097 77.751 151.097 78.7928V83.7866H147.232V83.7801Z" fill="white"/>
<path d="M161.357 82.654L162.837 80.2059C163.326 80.5444 163.788 80.8049 164.225 80.9872C164.649 81.1825 164.994 81.2932 165.281 81.3192C165.379 81.3323 165.483 81.3388 165.6 81.3388C165.757 81.3518 165.9 81.3388 166.044 81.2802C166.265 81.2281 166.428 81.1434 166.526 81.0263C166.624 80.9091 166.676 80.7788 166.676 80.6356C166.676 80.4012 166.565 80.1668 166.343 79.9389C166.122 79.7111 165.842 79.5092 165.503 79.3334C165.17 79.1576 164.799 78.9623 164.401 78.754C164.004 78.5456 163.632 78.3373 163.293 78.1354C162.954 77.9336 162.661 77.6927 162.426 77.4127C162.192 77.1328 162.074 76.8333 162.074 76.5207C162.074 76.0845 162.192 75.6418 162.42 75.1925C162.654 74.7368 163.006 74.3266 163.489 73.949C163.951 73.5909 164.512 73.3044 165.157 73.1026C165.581 72.9723 166.07 72.9072 166.637 72.9072C166.91 72.9072 167.197 72.9202 167.497 72.9528C168.403 73.057 169.348 73.3565 170.332 73.8448L169.139 76.345C168.618 76.1106 168.149 75.9413 167.725 75.8371C167.301 75.7329 166.963 75.6808 166.721 75.6808C166.48 75.6808 166.272 75.7199 166.115 75.7915C165.952 75.8632 165.848 75.9478 165.796 76.0389C165.744 76.1301 165.718 76.2278 165.718 76.3319C165.718 76.5533 165.881 76.7747 166.206 76.996C166.532 77.2174 166.936 77.4323 167.406 77.6406C167.882 77.849 168.357 78.0768 168.827 78.3242C169.296 78.5717 169.7 78.8842 170.039 79.2683C170.371 79.646 170.541 80.0561 170.541 80.5054C170.541 81.1109 170.352 81.6708 169.98 82.1982C169.609 82.7256 169.094 83.1423 168.455 83.4483C167.816 83.7543 167.112 83.9626 166.343 84.0733C166.109 84.0994 165.874 84.1124 165.626 84.1124C165.053 84.1124 164.46 84.0278 163.828 83.865C162.922 83.6306 162.1 83.2269 161.364 82.654H161.357Z" fill="white"/>
</svg>
