<svg width="89" height="89" viewBox="0 0 89 89" fill="none" xmlns="http://www.w3.org/2000/svg">
<rect width="38" height="33" transform="translate(24 27)" fill="#F7F7F7"/>
<path fill-rule="evenodd" clip-rule="evenodd" d="M31.615 19.6289H56.452C63.4796 19.6289 69.1763 25.3256 69.1763 32.3532V57.1903C69.1763 64.2179 63.4796 69.9146 56.452 69.9146H31.615C24.5873 69.9146 18.8906 64.2179 18.8906 57.1903V32.3532C18.8906 25.3256 24.5873 19.6289 31.615 19.6289ZM42.6814 42.0157C45.2586 37.0537 48.4589 30.8915 57.1136 30.8915C57.4406 30.8915 57.7637 30.9569 58.0637 31.08C58.3637 31.2031 58.6407 31.3878 58.8715 31.6185C59.1023 31.8493 59.2869 32.1224 59.41 32.4263C59.5331 32.7263 59.5985 33.0533 59.5985 33.3764C59.5985 33.7034 59.5331 34.0265 59.41 34.3265C59.2869 34.6265 59.1023 34.9035 58.8715 35.1343C58.6407 35.3651 58.3676 35.5497 58.0637 35.6728C57.7598 35.7959 57.4367 35.8613 57.1136 35.8613C51.8554 35.8613 49.8167 39.0616 47.0857 44.3275L45.4009 47.5009L45.3932 47.5124C42.8161 52.4744 39.6157 58.6443 30.9572 58.6443C30.2994 58.6443 29.6648 58.3827 29.1993 57.9173C28.7339 57.4519 28.4723 56.8172 28.4723 56.1594C28.4723 55.5017 28.7339 54.867 29.1993 54.4016C29.6648 53.9361 30.2994 53.6746 30.9572 53.6746C36.2154 53.6746 38.2541 50.4742 40.989 45.2083L42.6699 42.035L42.6814 42.0157Z" fill="#00DDB3"/>
</svg>
