<svg width="24" height="25" viewBox="0 0 24 25" fill="none" xmlns="http://www.w3.org/2000/svg">
<g id="fluent:mail-edit-24-regular">
<path id="Vector" d="M18.75 3.77246H5.25L5.066 3.77746C4.23719 3.82446 3.45779 4.18683 2.88767 4.79023C2.31755 5.39363 1.99995 6.19232 2 7.02246V16.5225L2.005 16.7065C2.052 17.5353 2.41437 18.3147 3.01777 18.8848C3.62117 19.4549 4.41986 19.7725 5.25 19.7725H11.717C11.901 19.3505 12.162 18.9655 12.49 18.6375L12.855 18.2725H5.25L5.106 18.2665C4.6683 18.2303 4.26019 18.0309 3.96268 17.7079C3.66517 17.3848 3.50002 16.9617 3.5 16.5225V9.14646L11.65 13.4365L11.747 13.4785C11.8448 13.5135 11.9488 13.5279 12.0524 13.5207C12.156 13.5134 12.257 13.4848 12.349 13.4365L20.5 9.14546V11.7795C21.0129 11.7458 21.5265 11.8325 22 12.0325V7.02246L21.995 6.83846C21.948 6.00965 21.5856 5.23025 20.9822 4.66013C20.3788 4.09002 19.5801 3.77241 18.75 3.77246ZM5.25 5.27246H18.75L18.893 5.27846C19.3309 5.31436 19.7392 5.51366 20.037 5.83675C20.3347 6.15985 20.5 6.58311 20.5 7.02246V7.45046L12 11.9255L3.5 7.45146V7.02246L3.506 6.87846C3.54214 6.44076 3.74154 6.03265 4.06461 5.73514C4.38768 5.43763 4.81081 5.27248 5.25 5.27246ZM19.1 13.4425L13.197 19.3445C12.8536 19.689 12.6097 20.1198 12.491 20.5915L12.033 22.4225C11.9875 22.6046 11.9899 22.7955 12.04 22.9765C12.0902 23.1574 12.1864 23.3223 12.3192 23.455C12.452 23.5878 12.617 23.6838 12.798 23.7338C12.979 23.7839 13.1699 23.7861 13.352 23.7405L15.182 23.2835C15.6541 23.1646 16.0854 22.9203 16.43 22.5765L22.332 16.6745C22.7441 16.2425 22.9709 15.6665 22.9639 15.0696C22.9569 14.4726 22.7166 13.9021 22.2945 13.48C21.8723 13.0579 21.3018 12.8176 20.7049 12.8106C20.1079 12.8036 19.5319 13.0304 19.1 13.4425Z" fill="#121212"/>
</g>
</svg>
