<svg width="84" height="85" viewBox="0 0 84 85" fill="none" xmlns="http://www.w3.org/2000/svg">
<g id="Market Research Icon">
<rect y="0.772461" width="84" height="84" rx="20" fill="#F0F2F5"/>
<g id="Group">
<g id="Group_2">
<path id="Vector" d="M64.9498 66.7723H18.4706C18.2108 66.7723 18 66.5618 18 66.3017C18 66.0415 18.2108 65.8311 18.4706 65.8311H64.9498C65.2097 65.8311 65.4204 66.0415 65.4204 66.3017C65.4204 66.5618 65.2097 66.7723 64.9498 66.7723Z" fill="#121212"/>
<g id="Group_3">
<path id="Vector_2" fill-rule="evenodd" clip-rule="evenodd" d="M57.3168 30.1968L55.5595 29.5624C55.3152 29.4742 55.1886 29.2044 55.277 28.9599C55.365 28.7154 55.6348 28.5872 55.8795 28.6773L58.7051 29.6976C58.9494 29.7859 59.076 30.0557 58.9877 30.3001L57.9677 33.1255C57.8985 33.3172 57.7177 33.4362 57.5251 33.4362C57.4721 33.4362 57.4181 33.4275 57.3654 33.4082C57.1209 33.3199 56.9942 33.0501 57.0825 32.8057L57.7165 31.049L48.2924 35.4737L47.913 35.6519L47.6585 35.7714C37.4928 40.5442 23.9635 46.8964 23.6683 47.0352C23.6038 47.0656 23.5355 47.0798 23.4684 47.0798C23.2917 47.0798 23.1224 46.98 23.0424 46.8095C22.9317 46.5742 23.0328 46.294 23.2681 46.1832C23.5443 46.0533 35.4078 40.4833 45.2605 35.8573L57.3168 30.1968ZM29.1152 64.8909V52.5001C29.1152 52.2413 28.9081 52.0296 28.6446 52.0295H22.7245C22.4657 52.0295 22.2539 52.2412 22.2539 52.5001V64.8909H29.1152ZM39.8024 64.8909V49.1307C39.8024 48.8718 39.5906 48.6601 39.3319 48.6601H33.4071C33.1482 48.6601 32.9364 48.8718 32.9364 49.1307V64.8909H39.8024ZM50.485 64.8909V44.9376C50.485 44.6788 50.2732 44.467 50.0143 44.467H44.0895C43.8307 44.467 43.6189 44.6788 43.6189 44.9376V64.8909H50.485ZM61.1675 64.891V39.7235C61.1675 39.4647 60.9557 39.2529 60.697 39.2529H54.7768C54.5133 39.2529 54.3062 39.4647 54.3062 39.7235V64.891H61.1675Z" fill="#121212"/>
</g>
</g>
</g>
<g id="Vector_3">
<path d="M24.8426 33.0879C24.7672 33.0879 24.6919 33.0691 24.6214 33.0314L22.4095 31.8691L20.193 33.0314C20.0377 33.116 19.8447 33.1019 19.6989 32.9984C19.5531 32.8902 19.4824 32.7114 19.5107 32.5372L19.9342 30.0713L18.1412 28.3254C18.0142 28.2031 17.9671 28.0149 18.0236 27.8455C18.08 27.676 18.226 27.549 18.4047 27.5255L20.8801 27.1631L21.986 24.9184C22.0661 24.7584 22.2307 24.6595 22.4096 24.6595C22.5885 24.6595 22.7531 24.7584 22.8284 24.9184L23.9389 27.1632L26.4143 27.5256C26.5884 27.5491 26.739 27.6761 26.7907 27.8456C26.8473 28.0149 26.8002 28.2032 26.6731 28.3255L24.8849 30.0714L25.3038 32.5374C25.3367 32.7161 25.2614 32.8903 25.1202 32.9985C25.0355 33.0549 24.9367 33.0879 24.8426 33.0879Z" fill="#FFD02F"/>
<path d="M29.3368 26.6502L29.7603 24.1843L27.972 22.443C27.8402 22.316 27.7932 22.1278 27.8497 21.9583C27.9062 21.7889 28.0521 21.6618 28.2309 21.6383L30.7062 21.2759L31.8122 19.036C31.8922 18.876 32.0569 18.7725 32.2357 18.7725C32.4146 18.7725 32.5793 18.8713 32.6592 19.036L33.7652 21.276L36.2405 21.6384C36.4193 21.6619 36.5652 21.789 36.6217 21.9584C36.6734 22.1278 36.6311 22.316 36.4994 22.4384L34.7111 24.1843L35.1298 26.6502C35.1628 26.829 35.0876 27.0079 34.9464 27.1114C34.8616 27.1724 34.7675 27.2007 34.6686 27.2007C34.5933 27.2007 34.5181 27.182 34.4474 27.149L32.2357 25.9819L30.0192 27.149C29.8638 27.229 29.6709 27.2149 29.525 27.1114C29.3791 27.0079 29.3086 26.829 29.3368 26.6502Z" fill="#FFD02F"/>
<path d="M39.1675 32.5374L39.591 30.0714L37.7981 28.3254C37.6663 28.2031 37.6238 28.0149 37.6757 27.8455C37.7321 27.676 37.878 27.549 38.0568 27.5255L40.5322 27.1631L41.6381 24.9184C41.7181 24.7584 41.8828 24.6595 42.0616 24.6595C42.2404 24.6595 42.4051 24.7584 42.4852 24.9184L43.5911 27.1631L46.0664 27.5255C46.2452 27.549 46.391 27.676 46.4476 27.8455C46.5041 28.0148 46.457 28.2031 46.3252 28.3254L44.537 30.0713L44.9605 32.5372C44.9887 32.716 44.9181 32.8902 44.7723 32.9984C44.6264 33.102 44.4335 33.1161 44.2735 33.0314L42.0617 31.8691L39.8499 33.0314C39.7793 33.0692 39.704 33.0879 39.6287 33.0879C39.5299 33.0879 39.4358 33.055 39.3511 32.9985C39.2052 32.8903 39.1345 32.7115 39.1675 32.5374Z" fill="#FFD02F"/>
</g>
</g>
</svg>
