<svg width="89" height="89" viewBox="0 0 89 89" fill="none" xmlns="http://www.w3.org/2000/svg">
<path fill-rule="evenodd" clip-rule="evenodd" d="M21.2498 54.3026C18.1042 51.1837 18.1042 46.1268 21.2499 43.0078L29.7938 34.5365C32.4531 31.8999 36.509 31.4921 39.6002 33.3132C40.5565 33.8765 40.5481 35.1686 39.7616 35.9484C38.9753 36.7281 37.6914 36.661 36.624 36.3515C35.2571 35.9551 33.7198 36.2913 32.6418 37.3603L24.0979 45.8315C22.525 47.3911 22.525 49.9194 24.0978 51.479C25.6707 53.0385 28.2209 53.0385 29.7937 51.479L46.8813 34.5366C50.0272 31.4176 55.1273 31.4176 58.2731 34.5366L66.8171 43.0078C69.9628 46.1267 69.9628 51.1837 66.8171 54.3026C63.6713 57.4216 58.5711 57.4216 55.4253 54.3026L52.5774 51.479L49.0175 55.0086C46.3582 57.6453 42.3023 58.053 39.2109 56.2319C38.2548 55.6686 38.2632 54.3765 39.0497 53.5967C39.836 52.817 41.1198 52.884 42.1873 53.1936C43.5542 53.59 45.0915 53.2538 46.1695 52.1849L49.8312 48.5544C51.3479 47.0506 53.8069 47.0506 55.3237 48.5544L58.2733 51.479C59.8462 53.0384 62.3962 53.0384 63.9691 51.479C65.5419 49.9194 65.5419 47.3911 63.9691 45.8315L55.4251 37.3603C53.8522 35.8009 51.3022 35.8009 49.7293 37.3604L32.6417 54.3027C29.4959 57.4217 24.3956 57.4217 21.2498 54.3026Z" fill="black"/>
</svg>
