<svg width="89" height="89" viewBox="0 0 89 89" fill="none" xmlns="http://www.w3.org/2000/svg">
<path d="M18.8906 32.2003C18.8906 25.2582 24.52 19.6289 31.4621 19.6289H56.6049C63.5492 19.6289 69.1763 25.2582 69.1763 32.2003V57.3432C69.1763 64.2875 63.547 69.9146 56.6049 69.9146H31.4621C24.52 69.9146 18.8906 64.2853 18.8906 57.3432V32.2003Z" fill="#FFD02F"/>
<path fill-rule="evenodd" clip-rule="evenodd" d="M52.3213 29.2139H47.7562L51.5604 35.8987L43.1912 29.2139H38.6262L42.8108 37.383L34.0611 29.2139H29.4961L34.0611 39.6127L29.4961 60.4082H34.0611L42.8108 38.1284L38.6262 60.4082H43.1912L51.5604 36.6419L47.7562 60.4082H52.3213L60.6905 34.4122L52.3213 29.2139Z" fill="#050038"/>
</svg>
