<svg width="84" height="85" viewBox="0 0 84 85" fill="none" xmlns="http://www.w3.org/2000/svg">
<g id="Persona Icon">
<rect y="0.772461" width="84" height="84" rx="20" fill="#F0F2F5"/>
<g id="Group">
<rect id="Rectangle" x="17" y="17.7725" width="50" height="50" rx="2" fill="white" stroke="#121212" stroke-width="2"/>
<path id="Rectangle_2" d="M22.8828 53.1279C22.8828 52.5756 23.3305 52.1279 23.8828 52.1279H39.7811C40.3334 52.1279 40.7811 52.5756 40.7811 53.1279V56.0093C40.7811 56.5616 40.3334 57.0093 39.7811 57.0093H23.8828C23.3305 57.0093 22.8828 56.5616 22.8828 56.0093V53.1279Z" fill="#121212"/>
<rect id="Rectangle_3" x="22.8828" y="58.6367" width="17.8983" height="4.88136" rx="1" fill="#121212"/>
<rect id="Rectangle_4" x="55.4238" y="26.9082" width="8.94915" height="1.62712" fill="#121212"/>
<rect id="Rectangle_5" x="32.6445" y="22.0264" width="34.1695" height="1.62712" fill="#121212"/>
<rect id="Rectangle_6" x="55.4238" y="32.6025" width="8.94915" height="1.62712" fill="#121212"/>
<rect id="Rectangle_7" x="55.4238" y="38.2979" width="8.94915" height="1.62712" fill="#121212"/>
<rect id="Rectangle_8" x="55.4238" y="43.9932" width="8.94915" height="1.62712" fill="#121212"/>
<rect id="Rectangle_9" x="55.4238" y="49.6875" width="8.94915" height="1.62712" fill="#121212"/>
<rect id="Rectangle_10" x="50.543" y="26.9082" width="3.25424" height="1.62712" fill="#121212"/>
<rect id="Rectangle_11" x="29.3906" y="22.0264" width="1.62712" height="1.62712" fill="#121212"/>
<rect id="Rectangle_12" x="26.1348" y="22.0264" width="1.62712" height="1.62712" fill="#121212"/>
<rect id="Rectangle_13" x="22.8828" y="22.0264" width="1.62712" height="1.62712" fill="#121212"/>
<rect id="Rectangle_14" x="50.543" y="32.6025" width="3.25424" height="1.62712" fill="#121212"/>
<rect id="Rectangle_15" x="50.543" y="38.2979" width="3.25424" height="1.62712" fill="#121212"/>
<rect id="Rectangle_16" x="50.543" y="43.9932" width="3.25424" height="1.62712" fill="#121212"/>
<rect id="Rectangle_17" x="50.543" y="49.6875" width="3.25424" height="1.62712" fill="#121212"/>
<rect id="Rectangle_18" x="46.4746" y="61.0771" width="4.88136" height="1.62712" fill="#121212"/>
<rect id="Rectangle_19" x="35.084" y="53.7559" width="4.0678" height="1.62712" fill="white"/>
<rect id="Rectangle_20" x="30.2031" y="60.2637" width="8.94915" height="1.62712" fill="white"/>
<rect id="Rectangle_21" x="43.2207" y="63.5186" width="11.3898" height="1.62712" transform="rotate(-90 43.2207 63.5186)" fill="#121212"/>
<rect id="Rectangle_22" x="52.9844" y="61.0771" width="4.88136" height="1.62712" fill="#121212"/>
<rect id="Rectangle_23" x="59.4922" y="61.0771" width="4.88136" height="1.62712" fill="#121212"/>
<ellipse id="Ellipse" cx="48.9153" cy="57.01" rx="2.44068" ry="2.44068" fill="#121212"/>
<ellipse id="Ellipse_2" cx="55.4251" cy="57.01" rx="2.44068" ry="2.44068" fill="#121212"/>
<ellipse id="Ellipse_3" cx="61.9329" cy="57.01" rx="2.44068" ry="2.44068" fill="#121212"/>
<g id="Rectangle_24">
<mask id="path-28-inside-1_1361_5728" fill="white">
<rect x="22.8828" y="25.2812" width="25.2203" height="25.2203" rx="1"/>
</mask>
<rect x="22.8828" y="25.2812" width="25.2203" height="25.2203" rx="1" stroke="#121212" stroke-width="4" mask="url(#path-28-inside-1_1361_5728)"/>
</g>
<path id="Vector" d="M29.7958 44.0436C28.5754 44.0436 27.7619 49.3317 27.7619 49.3317H26.1348L27.3551 44.4503C27.7619 43.6368 27.9394 43.4139 28.1687 43.23C28.3979 43.0461 33.05 41.1961 33.4568 41.1961C33.8636 41.1961 33.8636 40.7894 33.4568 40.3826C33.05 39.9758 32.6432 39.569 31.4229 38.7554C30.2026 37.9419 29.389 37.5351 28.9822 36.3148C28.5754 35.0944 28.5754 34.2809 28.5754 33.8741C28.5754 33.4673 28.9822 31.0266 29.7958 30.2131C30.6093 29.3995 31.8297 28.586 33.05 28.5859C34.2704 28.5859 36.2703 28.4717 38.3382 28.5859C38.3382 28.5859 39.9653 28.5859 40.7788 29.3995C41.5924 30.2131 41.1856 29.8063 41.9992 31.0266C42.8127 32.247 42.8127 33.4673 42.8127 33.8741C42.8127 34.2809 42.8127 35.0944 42.406 36.3148C41.9992 37.5351 40.7788 38.3487 40.7788 38.3487C40.7788 38.3487 39.1517 39.1622 38.7449 39.569C38.3382 39.9758 37.5246 40.7894 37.9314 41.1961C38.3382 41.6029 41.9992 42.8622 42.406 43.0461C42.8126 43.23 43.2193 43.6366 43.6259 44.0432L43.6263 44.0436C44.0331 44.4503 45.2534 49.3317 45.2534 49.3317H43.2195V48.9249C43.2195 48.9249 42.8127 46.5079 42.406 45.4791C41.9992 44.4503 41.5924 44.0436 41.1856 44.0436C40.7788 44.0436 39.1517 46.8911 38.7449 46.8911C38.3382 46.8911 36.3043 43.6368 36.3043 45.2639V47.7046H34.6771V45.2639C34.6771 43.6368 33.05 46.891 32.2365 46.8911C31.4229 46.8911 31.0161 44.0436 29.7958 44.0436Z" fill="#121212"/>
<path id="Vector_2" d="M37.1186 33.417C35.8982 33.8238 33.0508 34.6373 33.0508 34.6373V37.4848C33.0508 37.8916 33.0508 37.8916 33.4576 38.2983C33.8643 38.7051 34.6779 39.1119 34.6779 39.5187V41.5526C34.6779 41.9594 35.4915 42.3661 35.4915 42.3661L36.305 41.5526L36.7118 39.1119C36.7118 39.1119 37.9321 38.7051 37.9321 37.8916V34.2306C37.9321 33.8238 37.1186 33.417 37.1186 33.417Z" fill="#E37300"/>
<rect id="Rectangle_25" x="30.2031" y="47.6543" width="1.62712" height="2.44068" fill="#121212"/>
<rect id="Rectangle_26" x="39.9648" y="47.6543" width="1.62712" height="2.44068" fill="#121212"/>
</g>
</g>
</svg>
