<svg width="92" height="85" viewBox="0 0 92 85" fill="none" xmlns="http://www.w3.org/2000/svg">
<g id="Prototype Icon">
<rect x="0.5" y="0.772461" width="91" height="84" rx="20" fill="#F0F2F5"/>
<g id="Group">
<g id="Group_2">
<g id="Group_3">
<g id="Vector">
<path fill-rule="evenodd" clip-rule="evenodd" d="M54.2825 52.6608C54.2782 52.6614 54.274 52.6619 54.2698 52.6624C54.2667 52.6628 54.2635 52.6632 54.2604 52.6636C54.2678 52.6627 54.2751 52.6618 54.2825 52.6608Z" fill="#121212"/>
<path fill-rule="evenodd" clip-rule="evenodd" d="M58.6291 40.2325C60.0844 40.2325 61.2684 39.1396 61.2684 37.7962V21.2087C61.2684 19.8654 60.0845 18.7725 58.6291 18.7725H49.6441C48.1889 18.7725 47.0049 19.8654 47.0049 21.2087V26.2393C46.771 26.2249 46.532 26.2995 46.3531 26.4646C46.0241 26.7682 46.0241 27.2606 46.3531 27.5641L47.6107 28.7249H45.0956V21.2087C45.0956 19.8654 43.9117 18.7725 42.4563 18.7725H33.4713C32.016 18.7725 30.832 19.8654 30.832 21.2087V37.7962C30.832 39.1396 32.016 40.2325 33.4713 40.2325H37.1215V45.3124H33.4713C32.016 45.3124 30.832 46.4054 30.832 47.7487V64.3362C30.832 65.6795 32.016 66.7725 33.4713 66.7725H42.4563C43.9116 66.7725 45.0956 65.6795 45.0956 64.3362V47.7487C45.0956 46.4054 43.9116 45.3124 42.4563 45.3124H38.8061V40.2325H42.4563C43.9116 40.2325 45.0956 39.1396 45.0956 37.7962V30.28H47.6106L46.353 31.4408C46.024 31.7445 46.024 32.2368 46.353 32.5403C46.5175 32.6921 46.7332 32.7681 46.9487 32.7681C46.966 32.7681 46.9832 32.767 47.0006 32.7659L47.0048 32.7656V37.7961C47.0048 39.1395 48.1889 40.2324 49.6441 40.2324H53.2943V45.3123H49.6441C48.1889 45.3123 47.0048 46.4053 47.0048 47.7486V64.3361C47.0048 65.6794 48.1889 66.7724 49.6441 66.7724H58.6291C60.0844 66.7724 61.2684 65.6794 61.2684 64.3361V47.7487C61.2684 46.4054 60.0844 45.3124 58.6291 45.3124H54.9789V40.2325H58.6291ZM43.4109 47.7487C43.4109 47.2627 42.9827 46.8675 42.4563 46.8675H38.8059V50.0183L40.0633 48.8575C40.3923 48.5538 40.9256 48.5538 41.2547 48.8575C41.5836 49.161 41.5836 49.6533 41.2547 49.957L38.5592 52.4451L38.5559 52.4479C38.5372 52.4651 38.5178 52.4813 38.4975 52.4967C38.488 52.5038 38.4781 52.51 38.4684 52.5167L38.4625 52.5209C38.4522 52.5282 38.4419 52.5354 38.4311 52.5421C38.4197 52.5491 38.4078 52.5552 38.396 52.5617C38.3842 52.5683 38.3726 52.5751 38.3606 52.5812C38.3485 52.5871 38.3361 52.5921 38.3238 52.5975C38.3112 52.603 38.2987 52.6088 38.2858 52.6138C38.2738 52.6184 38.2615 52.6221 38.2493 52.6261C38.2356 52.6307 38.2221 52.6355 38.2081 52.6395C38.1957 52.6429 38.1833 52.6454 38.1708 52.6483C38.1567 52.6516 38.1428 52.6552 38.1283 52.6579C38.1139 52.6605 38.0992 52.6621 38.0846 52.664C38.072 52.6658 38.0596 52.668 38.0468 52.6691C38.0192 52.6716 37.9915 52.6729 37.9637 52.6729C37.936 52.6729 37.9083 52.6716 37.8807 52.6691C37.868 52.6679 37.8555 52.6657 37.8429 52.664C37.8283 52.6621 37.8137 52.6606 37.7992 52.6579C37.7849 52.6552 37.7708 52.6516 37.7567 52.6483C37.7442 52.6454 37.7318 52.6428 37.7194 52.6395C37.7055 52.6355 37.692 52.6307 37.6783 52.6261C37.666 52.622 37.6536 52.6184 37.6416 52.6138C37.6286 52.609 37.6163 52.6032 37.6037 52.5976C37.5913 52.5922 37.5788 52.5872 37.5668 52.5812C37.5548 52.5752 37.5432 52.5684 37.5314 52.5618C37.5196 52.5554 37.5077 52.5492 37.4963 52.5421C37.4834 52.5342 37.4714 52.5254 37.459 52.5168C37.4493 52.5101 37.4394 52.5038 37.4299 52.4967C37.4096 52.4812 37.3902 52.4649 37.3715 52.4479L37.3682 52.4451L34.6727 49.957C34.3438 49.6535 34.3438 49.1611 34.6727 48.8575C35.0017 48.5538 35.535 48.5538 35.864 48.8575L37.1215 50.0183V46.8675H33.4713C32.9448 46.8675 32.5166 47.2628 32.5166 47.7487V64.3362C32.5166 64.8221 32.9449 65.2174 33.4713 65.2174H42.4563C42.9827 65.2174 43.4109 64.8221 43.4109 64.3362V47.7487ZM37.0092 29.5024C37.0092 29.9883 37.4375 30.3837 37.9638 30.3837C38.4902 30.3837 38.9185 29.9884 38.9185 29.5024C38.9185 29.0164 38.4902 28.6212 37.9638 28.6212C37.4375 28.6212 37.0092 29.0165 37.0092 29.5024ZM42.4563 38.6775C42.9827 38.6775 43.4109 38.2821 43.4109 37.7962L43.4108 30.28H40.4645C40.2015 30.9988 39.5848 31.568 38.8061 31.8108V38.6775H42.4563ZM40.4646 28.725H43.4109L43.411 21.2087C43.411 20.7228 42.9828 20.3275 42.4564 20.3275H33.4714C32.9449 20.3275 32.5167 20.7228 32.5167 21.2087V37.7962C32.5167 38.2821 32.945 38.6775 33.4714 38.6775H37.1216V31.8108C36.0782 31.4855 35.3246 30.5741 35.3246 29.5025C35.3246 28.1592 36.5087 27.0662 37.9639 27.0662C39.1247 27.0662 40.1122 27.7619 40.4646 28.725ZM48.6896 37.7962C48.6896 38.2821 49.1178 38.6775 49.6442 38.6775H53.2943V31.8108C52.2509 31.4855 51.4973 30.5741 51.4973 29.5025C51.4973 28.1592 52.6814 27.0662 54.1367 27.0662C55.5919 27.0662 56.776 28.1592 56.776 29.5025C56.776 30.574 56.0224 31.4855 54.979 31.8108V38.6775H58.6292C59.1557 38.6775 59.5839 38.2821 59.5839 37.7962V21.2087C59.5839 20.7228 59.1556 20.3275 58.6292 20.3275H49.6442C49.1177 20.3275 48.6896 20.7228 48.6896 21.2087V27.5217L50.2399 28.9528C50.5689 29.2562 50.5689 29.7486 50.2399 30.0523L48.6896 31.4834V37.7962ZM59.5838 47.7487C59.5838 47.2627 59.1555 46.8675 58.6291 46.8675H54.9788V50.0183L56.2363 48.8575C56.5652 48.5538 57.0985 48.5538 57.4276 48.8575C57.7565 49.161 57.7565 49.6533 57.4276 49.957L54.7321 52.4451L54.7288 52.4479C54.7101 52.4651 54.6907 52.4813 54.6704 52.4967C54.6609 52.5038 54.651 52.51 54.6413 52.5167C54.6289 52.5254 54.6168 52.5342 54.604 52.5421C54.5926 52.5491 54.5807 52.5552 54.5689 52.5617L54.5565 52.5687L54.5514 52.5716C54.5455 52.5749 54.5395 52.5781 54.5335 52.5812C54.5214 52.5871 54.509 52.5921 54.4967 52.5975C54.4841 52.603 54.4716 52.6088 54.4587 52.6138C54.4467 52.6184 54.4345 52.6221 54.4222 52.6261C54.4085 52.6307 54.395 52.6355 54.381 52.6395C54.3686 52.6429 54.3562 52.6454 54.3437 52.6483C54.3296 52.6516 54.3157 52.6552 54.3012 52.6579C54.295 52.659 54.2887 52.6599 54.2825 52.6608L54.2698 52.6624L54.2604 52.6636L54.2575 52.664C54.2449 52.6658 54.2325 52.668 54.2197 52.6691C54.1921 52.6716 54.1644 52.6729 54.1367 52.6729C54.1089 52.6729 54.0812 52.6716 54.0536 52.6691C54.0409 52.6679 54.0284 52.6657 54.0158 52.664C54.0012 52.6621 53.9866 52.6606 53.9721 52.6579C53.9578 52.6552 53.9437 52.6516 53.9296 52.6483C53.9171 52.6454 53.9047 52.6428 53.8923 52.6395C53.8784 52.6355 53.8649 52.6307 53.8512 52.6261C53.8389 52.622 53.8265 52.6184 53.8145 52.6138C53.8015 52.609 53.7892 52.6032 53.7766 52.5976C53.7642 52.5922 53.7517 52.5872 53.7397 52.5812C53.7277 52.5752 53.7161 52.5684 53.7043 52.5618C53.6925 52.5554 53.6806 52.5492 53.6692 52.5421C53.6563 52.5342 53.6443 52.5254 53.6319 52.5168C53.6222 52.5101 53.6123 52.5038 53.6028 52.4967C53.5825 52.4812 53.5631 52.4649 53.5444 52.4479L53.5411 52.4451L50.8456 49.957C50.5167 49.6535 50.5167 49.1611 50.8456 48.8575C51.1745 48.5538 51.7078 48.5538 52.0368 48.8575L53.2943 50.0183V46.8675H49.6441C49.1176 46.8675 48.6895 47.2628 48.6895 47.7487V64.3362C48.6895 64.8221 49.1177 65.2174 49.6441 65.2174H58.6291C59.1556 65.2174 59.5838 64.8221 59.5838 64.3362V47.7487ZM53.182 29.5024C53.182 29.9883 53.6103 30.3837 54.1367 30.3837C54.6631 30.3837 55.0913 29.9884 55.0913 29.5024C55.0913 29.0164 54.6631 28.6212 54.1367 28.6212C53.6103 28.6212 53.182 29.0165 53.182 29.5024Z" fill="#121212"/>
<path d="M54.1367 30.3837C53.6103 30.3837 53.182 29.9883 53.182 29.5024C53.182 29.0165 53.6103 28.6212 54.1367 28.6212C54.6631 28.6212 55.0913 29.0164 55.0913 29.5024C55.0913 29.9884 54.6631 30.3837 54.1367 30.3837Z" fill="#0800FF"/>
<path d="M37.9638 30.3837C37.4375 30.3837 37.0092 29.9883 37.0092 29.5024C37.0092 29.0165 37.4375 28.6212 37.9638 28.6212C38.4902 28.6212 38.9185 29.0164 38.9185 29.5024C38.9185 29.9884 38.4902 30.3837 37.9638 30.3837Z" fill="#0800FF"/>
<path d="M49.6442 38.6775C49.1178 38.6775 48.6896 38.2821 48.6896 37.7962V31.4834L50.2399 30.0523C50.5689 29.7486 50.5689 29.2562 50.2399 28.9528L48.6896 27.5217V21.2087C48.6896 20.7228 49.1177 20.3275 49.6442 20.3275H58.6292C59.1556 20.3275 59.5839 20.7228 59.5839 21.2087V37.7962C59.5839 38.2821 59.1557 38.6775 58.6292 38.6775H54.979V31.8108C56.0224 31.4855 56.776 30.574 56.776 29.5025C56.776 28.1592 55.5919 27.0662 54.1367 27.0662C52.6814 27.0662 51.4973 28.1592 51.4973 29.5025C51.4973 30.5741 52.2509 31.4855 53.2943 31.8108V38.6775H49.6442Z" fill="white"/>
<path d="M43.4109 28.725H40.4646C40.1122 27.7619 39.1247 27.0662 37.9639 27.0662C36.5087 27.0662 35.3246 28.1592 35.3246 29.5025C35.3246 30.5741 36.0782 31.4855 37.1216 31.8108V38.6775H33.4714C32.945 38.6775 32.5167 38.2821 32.5167 37.7962V21.2087C32.5167 20.7228 32.9449 20.3275 33.4714 20.3275H42.4564C42.9828 20.3275 43.411 20.7228 43.411 21.2087L43.4109 28.725Z" fill="white"/>
<path d="M43.4109 37.7962C43.4109 38.2821 42.9827 38.6775 42.4563 38.6775H38.8061V31.8108C39.5848 31.568 40.2015 30.9988 40.4645 30.28H43.4108L43.4109 37.7962Z" fill="white"/>
<path d="M42.4563 46.8675C42.9827 46.8675 43.4109 47.2627 43.4109 47.7487V64.3362C43.4109 64.8221 42.9827 65.2174 42.4563 65.2174H33.4713C32.9449 65.2174 32.5166 64.8221 32.5166 64.3362V47.7487C32.5166 47.2628 32.9448 46.8675 33.4713 46.8675H37.1215V50.0183L35.864 48.8575C35.535 48.5538 35.0017 48.5538 34.6727 48.8575C34.3438 49.1611 34.3438 49.6535 34.6727 49.957L37.3682 52.4451L37.3715 52.4479C37.3902 52.4649 37.4096 52.4812 37.4299 52.4967C37.4394 52.5038 37.4493 52.5101 37.459 52.5168C37.4714 52.5254 37.4834 52.5342 37.4963 52.5421C37.5077 52.5492 37.5196 52.5554 37.5314 52.5618C37.5432 52.5684 37.5548 52.5752 37.5668 52.5812C37.5788 52.5872 37.5913 52.5922 37.6037 52.5976C37.6163 52.6032 37.6286 52.609 37.6416 52.6138C37.6536 52.6184 37.666 52.622 37.6783 52.6261C37.692 52.6307 37.7055 52.6355 37.7194 52.6395C37.7318 52.6428 37.7442 52.6454 37.7567 52.6483C37.7708 52.6516 37.7849 52.6552 37.7992 52.6579C37.8137 52.6606 37.8283 52.6621 37.8429 52.664C37.8555 52.6657 37.868 52.6679 37.8807 52.6691C37.9083 52.6716 37.936 52.6729 37.9637 52.6729C37.9915 52.6729 38.0192 52.6716 38.0468 52.6691C38.0596 52.668 38.072 52.6658 38.0846 52.664C38.0992 52.6621 38.1139 52.6605 38.1283 52.6579C38.1428 52.6552 38.1567 52.6516 38.1708 52.6483C38.1833 52.6454 38.1957 52.6429 38.2081 52.6395C38.2221 52.6355 38.2356 52.6307 38.2493 52.6261C38.2615 52.6221 38.2738 52.6184 38.2858 52.6138C38.2987 52.6088 38.3112 52.603 38.3238 52.5975C38.3361 52.5921 38.3485 52.5871 38.3606 52.5812C38.3726 52.5751 38.3842 52.5683 38.396 52.5617C38.4078 52.5552 38.4197 52.5491 38.4311 52.5421C38.4419 52.5354 38.4522 52.5282 38.4625 52.5209L38.4684 52.5167C38.4781 52.51 38.488 52.5038 38.4975 52.4967C38.5178 52.4813 38.5372 52.4651 38.5559 52.4479L38.5592 52.4451L41.2547 49.957C41.5836 49.6533 41.5836 49.161 41.2547 48.8575C40.9256 48.5538 40.3923 48.5538 40.0633 48.8575L38.8059 50.0183V46.8675H42.4563Z" fill="white"/>
<path d="M58.6291 46.8675C59.1555 46.8675 59.5838 47.2627 59.5838 47.7487V64.3362C59.5838 64.8221 59.1556 65.2174 58.6291 65.2174H49.6441C49.1177 65.2174 48.6895 64.8221 48.6895 64.3362V47.7487C48.6895 47.2628 49.1176 46.8675 49.6441 46.8675H53.2943V50.0183L52.0368 48.8575C51.7078 48.5538 51.1745 48.5538 50.8456 48.8575C50.5167 49.1611 50.5167 49.6535 50.8456 49.957L53.5411 52.4451L53.5444 52.4479C53.5631 52.4649 53.5825 52.4812 53.6028 52.4967C53.6123 52.5038 53.6222 52.5101 53.6319 52.5168C53.6443 52.5254 53.6563 52.5342 53.6692 52.5421C53.6806 52.5492 53.6925 52.5554 53.7043 52.5618C53.7161 52.5684 53.7277 52.5752 53.7397 52.5812C53.7517 52.5872 53.7642 52.5922 53.7766 52.5976C53.7892 52.6032 53.8015 52.609 53.8145 52.6138C53.8265 52.6184 53.8389 52.622 53.8512 52.6261C53.8649 52.6307 53.8784 52.6355 53.8923 52.6395C53.9047 52.6428 53.9171 52.6454 53.9296 52.6483C53.9437 52.6516 53.9578 52.6552 53.9721 52.6579C53.9866 52.6606 54.0012 52.6621 54.0158 52.664C54.0284 52.6657 54.0409 52.6679 54.0536 52.6691C54.0812 52.6716 54.1089 52.6729 54.1367 52.6729C54.1644 52.6729 54.1921 52.6716 54.2197 52.6691C54.2325 52.668 54.2449 52.6658 54.2575 52.664L54.2604 52.6636L54.2698 52.6624L54.2825 52.6608C54.2887 52.6599 54.295 52.659 54.3012 52.6579C54.3157 52.6552 54.3296 52.6516 54.3437 52.6483C54.3562 52.6454 54.3686 52.6429 54.381 52.6395C54.395 52.6355 54.4085 52.6307 54.4222 52.6261C54.4345 52.6221 54.4467 52.6184 54.4587 52.6138C54.4716 52.6088 54.4841 52.603 54.4967 52.5975C54.509 52.5921 54.5214 52.5871 54.5335 52.5812C54.5395 52.5781 54.5455 52.5749 54.5514 52.5716L54.5565 52.5687L54.5689 52.5617C54.5807 52.5552 54.5926 52.5491 54.604 52.5421C54.6168 52.5342 54.6289 52.5254 54.6413 52.5167C54.651 52.51 54.6609 52.5038 54.6704 52.4967C54.6907 52.4813 54.7101 52.4651 54.7288 52.4479L54.7321 52.4451L57.4276 49.957C57.7565 49.6533 57.7565 49.161 57.4276 48.8575C57.0985 48.5538 56.5652 48.5538 56.2363 48.8575L54.9788 50.0183V46.8675H58.6291Z" fill="white"/>
</g>
</g>
</g>
<g id="Group_4">
<g id="Group_5">
<g id="Vector_2">
<path d="M54.1374 53.6055C52.6821 53.6055 51.498 54.6984 51.498 56.0417C51.498 57.3851 52.6821 58.478 54.1374 58.478C55.5926 58.478 56.7767 57.3851 56.7767 56.0417C56.7767 54.6984 55.5926 53.6055 54.1374 53.6055ZM54.1374 56.923C53.611 56.923 53.1827 56.5277 53.1827 56.0417C53.1827 55.5557 53.611 55.1605 54.1374 55.1605C54.6637 55.1605 55.092 55.5558 55.092 56.0417C55.092 56.5277 54.6637 56.923 54.1374 56.923Z" fill="#121212"/>
<path d="M54.1374 56.923C53.611 56.923 53.1827 56.5277 53.1827 56.0417C53.1827 55.5557 53.611 55.1605 54.1374 55.1605C54.6637 55.1605 55.092 55.5558 55.092 56.0417C55.092 56.5277 54.6637 56.923 54.1374 56.923Z" fill="#0800FF"/>
</g>
</g>
</g>
<g id="Group_6">
<g id="Group_7">
<g id="Vector_3">
<path d="M37.9518 53.6064C36.4965 53.6064 35.3125 54.6994 35.3125 56.0427C35.3125 57.3861 36.4965 58.479 37.9518 58.479C39.4071 58.479 40.5911 57.3861 40.5911 56.0427C40.5911 54.6994 39.4072 53.6064 37.9518 53.6064ZM37.9518 56.924C37.4254 56.924 36.9971 56.5287 36.9971 56.0427C36.9971 55.5567 37.4254 55.1615 37.9518 55.1615C38.4782 55.1615 38.9065 55.5568 38.9065 56.0427C38.9065 56.5286 38.4782 56.924 37.9518 56.924Z" fill="#121212"/>
<path d="M37.9518 56.924C37.4254 56.924 36.9971 56.5287 36.9971 56.0427C36.9971 55.5567 37.4254 55.1615 37.9518 55.1615C38.4782 55.1615 38.9065 55.5568 38.9065 56.0427C38.9065 56.5286 38.4782 56.924 37.9518 56.924Z" fill="#0800FF"/>
</g>
</g>
</g>
</g>
</g>
</svg>
