<svg width="84" height="85" viewBox="0 0 84 85" fill="none" xmlns="http://www.w3.org/2000/svg">
<rect y="0.772461" width="84" height="84" rx="20" fill="#F0F2F5"/>
<path d="M65.8 41.1975C65.8 39.6225 64.525 38.2725 62.875 38.2725H54.25V21.2475C54.25 19.8975 53.125 18.7725 51.775 18.7725H21.55C20.125 18.7725 19 19.8975 19 21.2475V43.8975C19 45.2475 20.125 46.3725 21.475 46.3725H31.75V51.1725H27.55C27.1 51.1725 26.8 51.4725 26.8 51.9225C26.8 52.3725 27.1 52.6725 27.55 52.6725H37.225V56.2725C37.225 57.8475 38.5 59.1975 40.15 59.1975H47.95V64.1475C47.95 65.5725 49.15 66.7725 50.575 66.7725H57.7C59.125 66.7725 60.325 65.5725 60.325 64.1475V59.1975H62.875C64.45 59.1975 65.8 57.9225 65.8 56.2725V41.1975ZM20.5 43.8975V21.2475C20.5 20.7225 20.95 20.2725 21.55 20.2725H51.85C52.375 20.2725 52.825 20.7225 52.825 21.2475V38.3475H50.65V22.8975C50.65 22.4475 50.35 22.1475 49.9 22.1475H23.425C22.975 22.1475 22.675 22.4475 22.675 22.8975V42.2475C22.675 42.6975 22.975 42.9975 23.425 42.9975H37.225V44.8725C32.725 44.8725 24.175 44.8725 21.55 44.8725C20.95 44.8725 20.5 44.4225 20.5 43.8975ZM49.15 38.3475H40.15C38.575 38.3475 37.225 39.6225 37.225 41.2725V41.4975H24.175V23.6475H49.15V38.3475ZM33.325 51.1725V46.3725H37.225V51.1725H33.325ZM58.825 51.3975H49.45V51.1725C49.45 50.5725 49.975 50.0475 50.575 50.0475H57.7C58.3 50.0475 58.825 50.5725 58.825 51.1725V51.3975ZM49.45 52.8975H58.825C58.825 53.1975 58.825 62.1975 58.825 62.1225H49.45C49.45 61.9725 49.45 52.4475 49.45 52.8975ZM60.325 51.1725C60.325 49.7475 59.125 48.5475 57.7 48.5475H50.575C49.15 48.5475 47.95 49.7475 47.95 51.1725V54.6225H41.575V42.9225H61.375V54.6225H60.25V51.1725H60.325ZM57.7 65.2725H50.575C49.975 65.2725 49.45 64.7475 49.45 64.1475V63.6225H58.825V64.1475C58.825 64.7475 58.3 65.2725 57.7 65.2725ZM64.3 56.2725C64.3 57.0225 63.7 57.6975 62.875 57.6975H60.325V56.1225H62.2C62.65 56.1225 62.95 55.8225 62.95 55.3725V42.1725C62.95 41.7225 62.65 41.4225 62.2 41.4225H40.825C40.375 41.4225 40.075 41.7225 40.075 42.1725V55.3725C40.075 55.8225 40.375 56.1225 40.825 56.1225H47.95V57.6975H40.15C39.4 57.6975 38.725 57.0975 38.725 56.2725C38.725 55.7475 38.725 40.2225 38.725 41.1975C38.725 40.4475 39.325 39.7725 40.15 39.7725C67.225 39.7725 35.725 39.7725 62.875 39.7725C63.625 39.7725 64.3 40.3725 64.3 41.1975V56.2725Z" fill="#121212"/>
<path d="M49.15 38.3475H40.15C38.575 38.3475 37.225 39.6225 37.225 41.2725V41.4975H24.175V23.6475H49.15V38.3475Z" fill="white"/>
<path d="M60.325 51.1725C60.325 49.7475 59.125 48.5475 57.7 48.5475H50.575C49.15 48.5475 47.95 49.7475 47.95 51.1725V54.6225H41.575V42.9225H61.375V54.6225H60.25V51.1725H60.325Z" fill="white"/>
<path d="M49.45 52.8975H58.825V62.1225H49.45V52.8975Z" fill="white"/>
<path d="M20.5 43.8975V21.2475C20.5 20.7225 20.95 20.2725 21.55 20.2725H51.85C52.375 20.2725 52.825 20.7225 52.825 21.2475V38.3475H50.65V22.8975C50.65 22.4475 50.35 22.1475 49.9 22.1475H23.425C22.975 22.1475 22.675 22.4475 22.675 22.8975V42.2475C22.675 42.6975 22.975 42.9975 23.425 42.9975H37.225V44.8725H21.55C20.95 44.8725 20.5 44.4225 20.5 43.8975Z" fill="#696969"/>
<path d="M64.3 56.2725C64.3 57.0225 63.7 57.6975 62.875 57.6975H60.325V56.1225H62.2C62.65 56.1225 62.95 55.8225 62.95 55.3725V42.1725C62.95 41.7225 62.65 41.4225 62.2 41.4225H40.825C40.375 41.4225 40.075 41.7225 40.075 42.1725V55.3725C40.075 55.8225 40.375 56.1225 40.825 56.1225H47.95V57.6975H40.15C39.4 57.6975 38.725 57.0975 38.725 56.2725V41.1975C38.725 40.4475 39.325 39.7725 40.15 39.7725H62.875C63.625 39.7725 64.3 40.3725 64.3 41.1975V56.2725Z" fill="#696969"/>
<path d="M57.7 65.2725H50.575C49.975 65.2725 49.45 64.7475 49.45 64.1475V63.6225H58.825V64.1475C58.825 64.7475 58.3 65.2725 57.7 65.2725Z" fill="#696969"/>
<path d="M58.825 51.3975H49.45V51.1725C49.45 50.5725 49.975 50.0475 50.575 50.0475H57.7C58.3 50.0475 58.825 50.5725 58.825 51.1725V51.3975Z" fill="#696969"/>
<path d="M29.6868 33.7725H28.701V30.8634H29.7067C29.9955 30.8634 30.2436 30.9216 30.451 31.0381C30.6593 31.1536 30.8194 31.3198 30.9311 31.5367C31.0429 31.7535 31.0987 32.013 31.0987 32.3151C31.0987 32.6181 31.0424 32.8785 30.9297 33.0963C30.8179 33.3141 30.6565 33.4813 30.4453 33.5977C30.2351 33.7142 29.9822 33.7725 29.6868 33.7725ZM29.228 33.3165H29.6612C29.8639 33.3165 30.0329 33.2796 30.1683 33.2057C30.3037 33.1309 30.4055 33.0196 30.4737 32.8719C30.5419 32.7232 30.576 32.5376 30.576 32.3151C30.576 32.0925 30.5419 31.9079 30.4737 31.7611C30.4055 31.6134 30.3047 31.503 30.1712 31.4301C30.0386 31.3563 29.8738 31.3193 29.6768 31.3193H29.228V33.3165ZM32.5426 33.8151C32.3239 33.8151 32.1349 33.7696 31.9759 33.6787C31.8177 33.5869 31.696 33.4571 31.6108 33.2895C31.5256 33.1209 31.483 32.9226 31.483 32.6943C31.483 32.4699 31.5256 32.2729 31.6108 32.1034C31.697 31.933 31.8172 31.8004 31.9716 31.7057C32.1259 31.6101 32.3073 31.5622 32.5156 31.5622C32.6501 31.5622 32.777 31.584 32.8963 31.6276C33.0166 31.6702 33.1226 31.7365 33.2145 31.8264C33.3073 31.9164 33.3802 32.031 33.4332 32.1702C33.4863 32.3084 33.5128 32.4732 33.5128 32.6645V32.8222H31.7244V32.4756H33.0199C33.0189 32.3771 32.9976 32.2895 32.956 32.2128C32.9143 32.1352 32.8561 32.0741 32.7812 32.0296C32.7074 31.9851 32.6212 31.9628 32.5227 31.9628C32.4176 31.9628 32.3253 31.9884 32.2457 32.0395C32.1662 32.0897 32.1042 32.156 32.0597 32.2384C32.0161 32.3198 31.9938 32.4093 31.9929 32.5068V32.8094C31.9929 32.9363 32.0161 33.0452 32.0625 33.1361C32.1089 33.2261 32.1738 33.2952 32.2571 33.3435C32.3404 33.3908 32.438 33.4145 32.5497 33.4145C32.6245 33.4145 32.6922 33.4041 32.7528 33.3833C32.8134 33.3615 32.866 33.3298 32.9105 33.2881C32.955 33.2464 32.9886 33.1948 33.0114 33.1333L33.4915 33.1872C33.4612 33.3141 33.4034 33.4249 33.3182 33.5196C33.2339 33.6134 33.1259 33.6863 32.9943 33.7384C32.8627 33.7895 32.7121 33.8151 32.5426 33.8151ZM35.6722 32.1673L35.2035 32.2185C35.1902 32.1711 35.167 32.1266 35.1339 32.085C35.1017 32.0433 35.0581 32.0097 35.0032 31.9841C34.9483 31.9585 34.881 31.9458 34.8015 31.9458C34.6945 31.9458 34.6045 31.969 34.5316 32.0154C34.4596 32.0618 34.4241 32.1219 34.4251 32.1958C34.4241 32.2592 34.4473 32.3108 34.4947 32.3506C34.543 32.3904 34.6225 32.423 34.7333 32.4486L35.1055 32.5281C35.3119 32.5727 35.4653 32.6432 35.5657 32.7398C35.667 32.8364 35.7182 32.9628 35.7191 33.1191C35.7182 33.2564 35.6779 33.3776 35.5984 33.4827C35.5198 33.5869 35.4104 33.6683 35.2702 33.727C35.1301 33.7857 34.9691 33.8151 34.7873 33.8151C34.5202 33.8151 34.3053 33.7592 34.1424 33.6475C33.9795 33.5348 33.8825 33.378 33.8512 33.1773L34.3526 33.129C34.3754 33.2275 34.4237 33.3018 34.4975 33.352C34.5714 33.4022 34.6675 33.4273 34.7859 33.4273C34.908 33.4273 35.006 33.4022 35.0799 33.352C35.1547 33.3018 35.1921 33.2398 35.1921 33.1659C35.1921 33.1034 35.168 33.0518 35.1197 33.0111C35.0723 32.9704 34.9985 32.9391 34.8981 32.9173L34.5259 32.8392C34.3166 32.7957 34.1618 32.7223 34.0614 32.6191C33.9611 32.5149 33.9113 32.3833 33.9123 32.2242C33.9113 32.0897 33.9478 31.9732 34.0217 31.8747C34.0965 31.7753 34.2002 31.6986 34.3327 31.6446C34.4663 31.5897 34.6201 31.5622 34.7944 31.5622C35.0501 31.5622 35.2513 31.6167 35.3981 31.7256C35.5458 31.8345 35.6372 31.9817 35.6722 32.1673ZM36.6119 33.0878L36.6104 32.4671H36.6928L37.4769 31.5906H38.0778L37.1133 32.6645H37.0067L36.6119 33.0878ZM36.1431 33.7725V30.8634H36.6573V33.7725H36.1431ZM37.5124 33.7725L36.8022 32.7796L37.1488 32.4173L38.1275 33.7725H37.5124ZM39.5099 31.5906V31.9884H38.2557V31.5906H39.5099ZM38.5653 31.0679H39.0795V33.1162C39.0795 33.1853 39.09 33.2384 39.1108 33.2753C39.1326 33.3113 39.161 33.3359 39.196 33.3492C39.2311 33.3624 39.2699 33.3691 39.3125 33.3691C39.3447 33.3691 39.3741 33.3667 39.4006 33.3619C39.428 33.3572 39.4489 33.353 39.4631 33.3492L39.5497 33.7512C39.5223 33.7606 39.483 33.771 39.4318 33.7824C39.3816 33.7938 39.3201 33.8004 39.2472 33.8023C39.1184 33.8061 39.0024 33.7867 38.8991 33.7441C38.7959 33.7005 38.714 33.6333 38.6534 33.5423C38.5938 33.4514 38.5644 33.3378 38.5653 33.2014V31.0679ZM40.8683 33.8151C40.6552 33.8151 40.4705 33.7682 40.3143 33.6744C40.158 33.5807 40.0368 33.4495 39.9506 33.281C39.8654 33.1124 39.8228 32.9155 39.8228 32.6901C39.8228 32.4647 39.8654 32.2673 39.9506 32.0977C40.0368 31.9282 40.158 31.7966 40.3143 31.7029C40.4705 31.6091 40.6552 31.5622 40.8683 31.5622C41.0813 31.5622 41.266 31.6091 41.4222 31.7029C41.5785 31.7966 41.6992 31.9282 41.7844 32.0977C41.8706 32.2673 41.9137 32.4647 41.9137 32.6901C41.9137 32.9155 41.8706 33.1124 41.7844 33.281C41.6992 33.4495 41.5785 33.5807 41.4222 33.6744C41.266 33.7682 41.0813 33.8151 40.8683 33.8151ZM40.8711 33.4031C40.9866 33.4031 41.0832 33.3714 41.1609 33.308C41.2385 33.2436 41.2963 33.1574 41.3342 33.0494C41.373 32.9415 41.3924 32.8212 41.3924 32.6887C41.3924 32.5551 41.373 32.4344 41.3342 32.3264C41.2963 32.2175 41.2385 32.1309 41.1609 32.0665C41.0832 32.0021 40.9866 31.9699 40.8711 31.9699C40.7527 31.9699 40.6542 32.0021 40.5756 32.0665C40.498 32.1309 40.4397 32.2175 40.4009 32.3264C40.363 32.4344 40.3441 32.5551 40.3441 32.6887C40.3441 32.8212 40.363 32.9415 40.4009 33.0494C40.4397 33.1574 40.498 33.2436 40.5756 33.308C40.6542 33.3714 40.7527 33.4031 40.8711 33.4031ZM42.3501 34.5906V31.5906H42.8558V31.9514H42.8857C42.9122 31.8984 42.9496 31.8421 42.9979 31.7824C43.0462 31.7218 43.1115 31.6702 43.1939 31.6276C43.2763 31.584 43.3814 31.5622 43.5092 31.5622C43.6778 31.5622 43.8298 31.6053 43.9652 31.6915C44.1016 31.7767 44.2095 31.9031 44.2891 32.0708C44.3696 32.2374 44.4098 32.442 44.4098 32.6844C44.4098 32.924 44.3705 33.1276 44.2919 33.2952C44.2133 33.4628 44.1063 33.5906 43.9709 33.6787C43.8355 33.7668 43.6821 33.8108 43.5107 33.8108C43.3857 33.8108 43.282 33.79 43.1996 33.7483C43.1172 33.7066 43.0509 33.6565 43.0007 33.5977C42.9515 33.5381 42.9131 33.4817 42.8857 33.4287H42.8643V34.5906H42.3501ZM42.8544 32.6816C42.8544 32.8227 42.8743 32.9462 42.9141 33.0523C42.9548 33.1584 43.013 33.2412 43.0888 33.3009C43.1655 33.3596 43.2583 33.3889 43.3672 33.3889C43.4808 33.3889 43.576 33.3586 43.6527 33.298C43.7294 33.2365 43.7872 33.1527 43.826 33.0466C43.8658 32.9396 43.8857 32.8179 43.8857 32.6816C43.8857 32.5461 43.8662 32.4259 43.8274 32.3208C43.7886 32.2156 43.7308 32.1333 43.6541 32.0736C43.5774 32.0139 43.4818 31.9841 43.3672 31.9841C43.2573 31.9841 43.1641 32.013 43.0874 32.0708C43.0107 32.1285 42.9524 32.2095 42.9126 32.3137C42.8738 32.4178 42.8544 32.5405 42.8544 32.6816Z" fill="#121212"/>
<path d="M45.1122 44.3051V43.8634H47.4332V44.3051H46.5341V46.7725H46.0114V44.3051H45.1122ZM48.1889 46.8165C48.0507 46.8165 47.9261 46.7919 47.8153 46.7426C47.7055 46.6924 47.6184 46.6186 47.554 46.521C47.4905 46.4235 47.4588 46.3032 47.4588 46.1602C47.4588 46.0371 47.4815 45.9353 47.527 45.8548C47.5724 45.7744 47.6345 45.71 47.7131 45.6617C47.7917 45.6134 47.8802 45.5769 47.9787 45.5523C48.0781 45.5267 48.1809 45.5083 48.2869 45.4969C48.4148 45.4836 48.5185 45.4718 48.598 45.4614C48.6776 45.45 48.7353 45.433 48.7713 45.4102C48.8082 45.3866 48.8267 45.3501 48.8267 45.3009V45.2923C48.8267 45.1853 48.795 45.1025 48.7315 45.0438C48.6681 44.9851 48.5767 44.9557 48.4574 44.9557C48.3314 44.9557 48.2315 44.9832 48.1577 45.0381C48.0848 45.093 48.0355 45.1579 48.0099 45.2327L47.5298 45.1645C47.5677 45.0319 47.6302 44.9211 47.7173 44.8321C47.8045 44.7422 47.911 44.6749 48.0369 44.6304C48.1629 44.585 48.3021 44.5622 48.4545 44.5622C48.5597 44.5622 48.6643 44.5745 48.7685 44.5992C48.8726 44.6238 48.9678 44.6645 49.054 44.7213C49.1402 44.7772 49.2093 44.8534 49.2614 44.95C49.3144 45.0466 49.3409 45.1673 49.3409 45.3122V46.7725H48.8466V46.4727H48.8295C48.7983 46.5334 48.7543 46.5902 48.6974 46.6432C48.6416 46.6953 48.571 46.7374 48.4858 46.7696C48.4015 46.8009 48.3026 46.8165 48.1889 46.8165ZM48.3224 46.4387C48.4257 46.4387 48.5152 46.4183 48.5909 46.3776C48.6667 46.3359 48.7249 46.281 48.7656 46.2128C48.8073 46.1446 48.8281 46.0703 48.8281 45.9898V45.7327C48.812 45.7459 48.7846 45.7583 48.7457 45.7696C48.7079 45.781 48.6652 45.7909 48.6179 45.7994C48.5705 45.808 48.5237 45.8155 48.4773 45.8222C48.4309 45.8288 48.3906 45.8345 48.3565 45.8392C48.2798 45.8496 48.2112 45.8667 48.1506 45.8904C48.09 45.914 48.0421 45.9472 48.0071 45.9898C47.9721 46.0315 47.9545 46.0854 47.9545 46.1517C47.9545 46.2464 47.9891 46.3179 48.0582 46.3662C48.1274 46.4145 48.2154 46.4387 48.3224 46.4387ZM49.8807 46.7725V43.8634H50.3949V44.9514H50.4162C50.4427 44.8984 50.4801 44.8421 50.5284 44.7824C50.5767 44.7218 50.642 44.6702 50.7244 44.6276C50.8068 44.584 50.9119 44.5622 51.0398 44.5622C51.2083 44.5622 51.3603 44.6053 51.4957 44.6915C51.6321 44.7767 51.7401 44.9031 51.8196 45.0708C51.9001 45.2374 51.9403 45.442 51.9403 45.6844C51.9403 45.924 51.901 46.1276 51.8224 46.2952C51.7438 46.4628 51.6368 46.5906 51.5014 46.6787C51.366 46.7668 51.2126 46.8108 51.0412 46.8108C50.9162 46.8108 50.8125 46.79 50.7301 46.7483C50.6477 46.7066 50.5814 46.6565 50.5312 46.5977C50.482 46.5381 50.4437 46.4817 50.4162 46.4287H50.3864V46.7725H49.8807ZM50.3849 45.6816C50.3849 45.8227 50.4048 45.9462 50.4446 46.0523C50.4853 46.1584 50.5436 46.2412 50.6193 46.3009C50.696 46.3596 50.7888 46.3889 50.8977 46.3889C51.0114 46.3889 51.1065 46.3586 51.1832 46.298C51.2599 46.2365 51.3177 46.1527 51.3565 46.0466C51.3963 45.9396 51.4162 45.8179 51.4162 45.6816C51.4162 45.5461 51.3968 45.4259 51.358 45.3208C51.3191 45.2156 51.2614 45.1333 51.1847 45.0736C51.108 45.0139 51.0123 44.9841 50.8977 44.9841C50.7879 44.9841 50.6946 45.013 50.6179 45.0708C50.5412 45.1285 50.483 45.2095 50.4432 45.3137C50.4044 45.4178 50.3849 45.5405 50.3849 45.6816ZM52.8917 43.8634V46.7725H52.3775V43.8634H52.8917ZM54.3864 46.8151C54.1676 46.8151 53.9787 46.7696 53.8196 46.6787C53.6615 46.5869 53.5398 46.4571 53.4545 46.2895C53.3693 46.1209 53.3267 45.9226 53.3267 45.6943C53.3267 45.4699 53.3693 45.2729 53.4545 45.1034C53.5407 44.933 53.661 44.8004 53.8153 44.7057C53.9697 44.6101 54.151 44.5622 54.3594 44.5622C54.4938 44.5622 54.6207 44.584 54.7401 44.6276C54.8603 44.6702 54.9664 44.7365 55.0582 44.8264C55.151 44.9164 55.224 45.031 55.277 45.1702C55.33 45.3084 55.3565 45.4732 55.3565 45.6645V45.8222H53.5682V45.4756H54.8636C54.8627 45.3771 54.8414 45.2895 54.7997 45.2128C54.758 45.1352 54.6998 45.0741 54.625 45.0296C54.5511 44.9851 54.465 44.9628 54.3665 44.9628C54.2614 44.9628 54.169 44.9884 54.0895 45.0395C54.0099 45.0897 53.9479 45.156 53.9034 45.2384C53.8598 45.3198 53.8376 45.4093 53.8366 45.5068V45.8094C53.8366 45.9363 53.8598 46.0452 53.9062 46.1361C53.9527 46.2261 54.0175 46.2952 54.1009 46.3435C54.1842 46.3908 54.2817 46.4145 54.3935 46.4145C54.4683 46.4145 54.536 46.4041 54.5966 46.3833C54.6572 46.3615 54.7098 46.3298 54.7543 46.2881C54.7988 46.2464 54.8324 46.1948 54.8551 46.1333L55.3352 46.1872C55.3049 46.3141 55.2472 46.4249 55.1619 46.5196C55.0777 46.6134 54.9697 46.6863 54.8381 46.7384C54.7064 46.7895 54.5559 46.8151 54.3864 46.8151ZM56.881 44.5906V44.9884H55.6268V44.5906H56.881ZM55.9364 44.0679H56.4506V46.1162C56.4506 46.1853 56.4611 46.2384 56.4819 46.2753C56.5037 46.3113 56.5321 46.3359 56.5671 46.3492C56.6022 46.3624 56.641 46.3691 56.6836 46.3691C56.7158 46.3691 56.7451 46.3667 56.7717 46.3619C56.7991 46.3572 56.82 46.353 56.8342 46.3492L56.9208 46.7512C56.8933 46.7606 56.854 46.771 56.8029 46.7824C56.7527 46.7938 56.6912 46.8004 56.6183 46.8023C56.4895 46.8061 56.3735 46.7867 56.2702 46.7441C56.167 46.7005 56.0851 46.6333 56.0245 46.5423C55.9648 46.4514 55.9355 46.3378 55.9364 46.2014V44.0679Z" fill="#121212"/>
<path d="M51.019 56.8179H51.3983L51.7988 57.7952H51.8159L52.2164 56.8179H52.5957V58.2725H52.2974V57.3257H52.2853L51.9089 58.2654H51.7058L51.3294 57.3222H51.3173V58.2725H51.019V56.8179ZM53.3363 58.2938C53.226 58.2938 53.1306 58.2703 53.0501 58.2235C52.9701 58.1761 52.9083 58.1103 52.8647 58.026C52.8211 57.9413 52.7994 57.843 52.7994 57.7313C52.7994 57.6186 52.8211 57.5201 52.8647 57.4358C52.9083 57.3511 52.9701 57.2852 53.0501 57.2384C53.1306 57.191 53.226 57.1673 53.3363 57.1673C53.4466 57.1673 53.5418 57.191 53.6218 57.2384C53.7023 57.2852 53.7643 57.3511 53.8079 57.4358C53.8514 57.5201 53.8732 57.6186 53.8732 57.7313C53.8732 57.843 53.8514 57.9413 53.8079 58.026C53.7643 58.1103 53.7023 58.1761 53.6218 58.2235C53.5418 58.2703 53.4466 58.2938 53.3363 58.2938ZM53.3377 58.0594C53.3879 58.0594 53.4298 58.0452 53.4634 58.0168C53.497 57.9879 53.5224 57.9486 53.5394 57.8989C53.5569 57.8492 53.5657 57.7926 53.5657 57.7291C53.5657 57.6657 53.5569 57.6091 53.5394 57.5594C53.5224 57.5097 53.497 57.4704 53.4634 57.4415C53.4298 57.4126 53.3879 57.3982 53.3377 57.3982C53.2871 57.3982 53.2444 57.4126 53.2099 57.4415C53.1758 57.4704 53.15 57.5097 53.1325 57.5594C53.1154 57.6091 53.1069 57.6657 53.1069 57.7291C53.1069 57.7926 53.1154 57.8492 53.1325 57.8989C53.15 57.9486 53.1758 57.9879 53.2099 58.0168C53.2444 58.0452 53.2871 58.0594 53.3377 58.0594ZM54.0756 58.2725V56.8179H54.3782V57.3648H54.3874C54.4007 57.3354 54.4199 57.3056 54.445 57.2753C54.4705 57.2445 54.5037 57.219 54.5444 57.1986C54.5856 57.1778 54.6367 57.1673 54.6978 57.1673C54.7773 57.1673 54.8507 57.1882 54.918 57.2298C54.9852 57.271 55.0389 57.3333 55.0792 57.4166C55.1194 57.4995 55.1396 57.6034 55.1396 57.7284C55.1396 57.8501 55.1199 57.9529 55.0806 58.0367C55.0418 58.12 54.9888 58.1832 54.9215 58.2263C54.8548 58.2689 54.7799 58.2902 54.6971 58.2902C54.6384 58.2902 54.5884 58.2805 54.5472 58.2611C54.5065 58.2417 54.4731 58.2173 54.4471 58.1879C54.421 58.1581 54.4012 58.128 54.3874 58.0977H54.3739V58.2725H54.0756ZM54.3718 57.727C54.3718 57.7919 54.3808 57.8485 54.3988 57.8968C54.4168 57.945 54.4428 57.9827 54.4769 58.0097C54.511 58.0362 54.5524 58.0494 54.6012 58.0494C54.6504 58.0494 54.6921 58.036 54.7262 58.009C54.7603 57.9815 54.7861 57.9436 54.8036 57.8953C54.8216 57.8466 54.8306 57.7905 54.8306 57.727C54.8306 57.664 54.8219 57.6086 54.8043 57.5608C54.7868 57.513 54.761 57.4756 54.7269 57.4486C54.6928 57.4216 54.6509 57.4081 54.6012 57.4081C54.552 57.4081 54.5103 57.4211 54.4762 57.4472C54.4426 57.4732 54.4168 57.5102 54.3988 57.558C54.3808 57.6058 54.3718 57.6621 54.3718 57.727ZM55.3414 58.2725V57.1816H55.644V58.2725H55.3414ZM55.4934 57.0409C55.4484 57.0409 55.4099 57.026 55.3777 56.9962C55.3459 56.9659 55.3301 56.9297 55.3301 56.8875C55.3301 56.8459 55.3459 56.8101 55.3777 56.7803C55.4099 56.75 55.4484 56.7348 55.4934 56.7348C55.5384 56.7348 55.5768 56.75 55.6085 56.7803C55.6407 56.8101 55.6568 56.8459 55.6568 56.8875C55.6568 56.9297 55.6407 56.9659 55.6085 56.9962C55.5768 57.026 55.5384 57.0409 55.4934 57.0409ZM56.1889 56.8179V58.2725H55.8864V56.8179H56.1889ZM56.9284 58.2938C56.8162 58.2938 56.7196 58.271 56.6387 58.2256C56.5582 58.1797 56.4962 58.1148 56.4526 58.031C56.409 57.9467 56.3873 57.847 56.3873 57.732C56.3873 57.6198 56.409 57.5213 56.4526 57.4365C56.4962 57.3518 56.5575 57.2857 56.6365 57.2384C56.7161 57.191 56.8094 57.1673 56.9164 57.1673C56.9883 57.1673 57.0553 57.1789 57.1174 57.2021C57.1799 57.2249 57.2343 57.2592 57.2807 57.3051C57.3276 57.3511 57.3641 57.4088 57.3901 57.4784C57.4161 57.5476 57.4292 57.6285 57.4292 57.7213V57.8044H56.508V57.6169H57.1444C57.1444 57.5734 57.1349 57.5348 57.1159 57.5012C57.097 57.4675 57.0707 57.4413 57.0371 57.4223C57.004 57.4029 56.9654 57.3932 56.9213 57.3932C56.8754 57.3932 56.8347 57.4039 56.7992 57.4252C56.7641 57.446 56.7367 57.4742 56.7168 57.5097C56.6969 57.5447 56.6867 57.5838 56.6863 57.6269V57.8051C56.6863 57.8591 56.6962 57.9057 56.7161 57.945C56.7364 57.9843 56.7651 58.0146 56.802 58.036C56.839 58.0573 56.8828 58.0679 56.9334 58.0679C56.967 58.0679 56.9978 58.0632 57.0257 58.0537C57.0537 58.0442 57.0776 58.03 57.0975 58.0111C57.1174 57.9922 57.1325 57.969 57.1429 57.9415L57.4228 57.96C57.4086 58.0272 57.3794 58.0859 57.3354 58.1361C57.2918 58.1858 57.2355 58.2246 57.1664 58.2526C57.0977 58.28 57.0184 58.2938 56.9284 58.2938Z" fill="#121212"/>
</svg>
