<svg xmlns="http://www.w3.org/2000/svg" width="268" height="435" fill="none" xmlns:v="https://vecta.io/nano"><style><![CDATA[.B{color-interpolation-filters:sRGB}.C{flood-opacity:0}]]></style><g filter="url(#A)"><g clip-path="url(#D)"><rect x="2.145" y="2.867" width="263.35" height="429.375" rx="10" fill="#fafbfc"/><path opacity=".85" d="M78.082 39.121c-1.145 0-2.113-.172-2.903-.515-.779-.343-1.368-.824-1.769-1.443-.401-.63-.607-1.351-.618-2.164h3.143c0 .355.08.664.24.927s.406.469.739.618.767.223 1.305.223c.595 0 1.065-.103 1.408-.309.355-.217.532-.527.532-.927 0-.263-.046-.481-.137-.653-.08-.172-.223-.309-.429-.412-.195-.115-.469-.212-.824-.292l-1.34-.24c-.721-.114-1.357-.269-1.906-.464-.538-.206-.99-.458-1.357-.756s-.641-.653-.824-1.065-.275-.893-.275-1.443c0-.813.2-1.511.601-2.095.412-.595.99-1.048 1.735-1.357.756-.321 1.654-.481 2.697-.481.996 0 1.855.16 2.576.481.733.309 1.3.744 1.7 1.305.412.561.618 1.214.618 1.958h-3.091c-.023-.355-.126-.636-.309-.842a1.39 1.39 0 0 0-.687-.464c-.275-.092-.573-.137-.893-.137a2.59 2.59 0 0 0-.945.155 1.46 1.46 0 0 0-.618.429c-.137.172-.206.383-.206.635 0 .344.092.601.275.773.195.172.504.303.927.395l1.649.292a13.97 13.97 0 0 1 1.529.326c.504.137.962.344 1.374.618s.744.653.996 1.134.378 1.105.378 1.872-.2 1.448-.601 2.044c-.389.584-.973 1.042-1.752 1.374s-1.758.498-2.937.498zm6.659-.172V26.429h2.903v4.843h.137c.24-.595.613-1.036 1.116-1.322a3.37 3.37 0 0 1 1.718-.447c.458 0 .882.069 1.271.206a2.61 2.61 0 0 1 1.048.67c.298.298.527.693.687 1.185.172.481.258 1.065.258 1.752v5.633h-2.903v-4.998c0-.47-.057-.859-.172-1.168-.103-.309-.269-.538-.498-.687-.218-.16-.509-.241-.876-.241-.389 0-.716.092-.979.275s-.464.418-.601.704-.206.59-.206.91v5.204h-2.903zm15.038.172c-.71 0-1.351-.103-1.924-.309-.573-.218-1.071-.532-1.494-.945-.412-.424-.733-.933-.962-1.529-.218-.595-.326-1.271-.326-2.027 0-.962.183-1.798.55-2.508.366-.721.899-1.282 1.597-1.683.71-.412 1.563-.618 2.559-.618.71 0 1.351.109 1.924.326.572.206 1.065.521 1.477.945.412.412.727.916.945 1.511.229.584.343 1.26.343 2.027 0 .95-.183 1.786-.55 2.508s-.898 1.288-1.597 1.7c-.698.401-1.546.601-2.542.601zm0-2.353c.355 0 .664-.086.928-.258s.469-.441.618-.807.223-.83.223-1.391c0-.424-.046-.79-.137-1.099-.08-.321-.2-.578-.361-.773a1.29 1.29 0 0 0-.549-.447c-.206-.103-.447-.155-.722-.155-.355 0-.67.092-.945.275-.263.172-.469.441-.618.807-.137.355-.206.819-.206 1.391 0 .424.04.796.12 1.116.08.309.195.567.344.773.16.195.349.338.567.429a1.97 1.97 0 0 0 .739.137zm5.969 5.049l.017-12.143h2.783l.103 1.511h.172c.206-.504.555-.91 1.047-1.219s1.088-.464 1.786-.464c.55 0 1.048.097 1.495.292a2.99 2.99 0 0 1 1.15.893c.332.401.584.905.756 1.511.172.595.258 1.3.258 2.113 0 1.076-.155 1.969-.464 2.679-.298.71-.721 1.242-1.271 1.597s-1.191.532-1.924.532c-.458 0-.875-.069-1.253-.206s-.704-.332-.979-.584c-.264-.263-.464-.561-.601-.893h-.172v4.38h-2.903zm4.775-5.032c.366 0 .687-.086.962-.258s.486-.441.635-.807c.16-.366.241-.836.241-1.408 0-.584-.081-1.053-.241-1.408-.149-.366-.36-.636-.635-.807s-.596-.258-.962-.258c-.424 0-.773.103-1.048.309a1.87 1.87 0 0 0-.601.756c-.126.309-.189.641-.189.996v.824c0 .263.035.521.103.773.08.24.189.458.327.653.148.195.337.349.566.464a1.94 1.94 0 0 0 .842.172zm6.073 5.032l.017-12.143h2.782l.103 1.511h.172c.206-.504.555-.91 1.048-1.219s1.087-.464 1.786-.464c.549 0 1.047.097 1.494.292s.83.492 1.151.893c.332.401.584.905.755 1.511.172.595.258 1.3.258 2.113 0 1.076-.154 1.969-.464 2.679-.297.71-.721 1.242-1.271 1.597s-1.19.532-1.923.532c-.458 0-.876-.069-1.254-.206s-.704-.332-.979-.584a2.73 2.73 0 0 1-.601-.893h-.172v4.38h-2.902zm4.774-5.032c.367 0 .687-.086.962-.258s.487-.441.636-.807c.16-.366.24-.836.24-1.408 0-.584-.08-1.053-.24-1.408-.149-.366-.361-.636-.636-.807s-.595-.258-.962-.258c-.423 0-.773.103-1.047.309-.264.195-.464.447-.602.756-.125.309-.188.641-.188.996v.824a2.91 2.91 0 0 0 .103.773c.08.24.189.458.326.653a1.61 1.61 0 0 0 .567.464c.24.114.521.172.841.172zm6.073 2.164v-9.274h2.903v9.274h-2.903zm0-10.356v-2.164h2.903v2.164h-2.903zm4.725 10.356v-9.274h2.8l.103 1.597h.137c.241-.595.613-1.036 1.117-1.322.515-.298 1.087-.447 1.717-.447.458 0 .882.069 1.271.206.401.137.75.361 1.048.67.298.298.527.693.687 1.185.172.481.257 1.065.257 1.752v5.633h-2.902v-4.998c0-.47-.057-.859-.172-1.168-.103-.309-.269-.538-.498-.687-.217-.16-.509-.241-.876-.241-.389 0-.715.092-.979.275s-.464.418-.601.704-.206.59-.206.91v5.204h-2.903zm14.849 3.04c-.847 0-1.574-.12-2.181-.361s-1.082-.584-1.425-1.031a2.63 2.63 0 0 1-.567-1.511h2.799a.76.76 0 0 0 .224.447c.137.126.309.223.515.292.206.08.447.12.721.12.458 0 .819-.063 1.082-.189.275-.126.47-.315.584-.567s.172-.555.172-.91v-1.46h-.154c-.184.47-.516.847-.997 1.134s-1.042.429-1.683.429c-.538 0-1.03-.092-1.477-.275-.435-.195-.813-.475-1.133-.841s-.567-.824-.739-1.374c-.172-.561-.258-1.214-.258-1.958 0-.996.149-1.821.447-2.473.309-.653.733-1.139 1.271-1.46.55-.332 1.185-.498 1.906-.498.63 0 1.185.143 1.666.429s.813.658.997 1.116h.154l.103-1.374h2.8v8.038c0 .79-.115 1.46-.344 2.009-.217.55-.544.99-.979 1.323-.423.332-.933.572-1.528.721-.584.149-1.243.223-1.976.223zm.189-5.805c.378 0 .693-.08.945-.24.252-.172.441-.384.567-.636a1.93 1.93 0 0 0 .223-.824v-1.099c-.023-.298-.103-.573-.24-.824a1.59 1.59 0 0 0-.55-.618c-.24-.16-.555-.24-.945-.24-.343 0-.647.08-.91.24s-.469.407-.618.739c-.149.321-.223.739-.223 1.254 0 .527.074.956.223 1.288s.355.578.618.739c.263.149.567.223.91.223zm10.03 2.765V26.429h9.258v2.628h-6.681l.498-.498v3.71l-.498-.498h5.994v2.473h-5.994l.498-.498v5.204h-3.075zm10.472 0V26.429h2.903v12.521h-2.903zm8.916.172c-.71 0-1.351-.103-1.923-.309a4.3 4.3 0 0 1-1.494-.945c-.413-.424-.733-.933-.962-1.529-.218-.595-.327-1.271-.327-2.027 0-.962.184-1.798.55-2.508.366-.721.899-1.282 1.597-1.683.71-.412 1.563-.618 2.559-.618.71 0 1.351.109 1.924.326.572.206 1.065.521 1.477.945.412.412.727.916.945 1.511.229.584.343 1.26.343 2.027 0 .95-.183 1.786-.549 2.508s-.899 1.288-1.598 1.7c-.698.401-1.545.601-2.542.601zm0-2.353c.355 0 .664-.086.928-.258s.469-.441.618-.807.223-.83.223-1.391c0-.424-.045-.79-.137-1.099-.08-.321-.2-.578-.361-.773a1.29 1.29 0 0 0-.549-.447c-.206-.103-.447-.155-.722-.155-.355 0-.669.092-.944.275-.264.172-.47.441-.619.807-.137.355-.206.819-.206 1.391 0 .424.04.796.121 1.116.08.309.194.567.343.773a1.46 1.46 0 0 0 .567.429 1.97 1.97 0 0 0 .738.137zm7.004 2.181l-2.113-9.274h2.989l1.254 6.372h.12l1.116-6.372h3.143l1.065 6.406h.086l1.288-6.406h2.868l-2.147 9.274h-3.795l-1.031-5.565h-.103l-1.013 5.565h-3.727z" fill="#121212"/><g filter="url(#B)"><path transform="translate(55.101 71.566)" fill="#ffd966" d="M0 0h157.438v157.438H0z"/><path d="M86.76 156.312v-11.103h4.38c.842 0 1.56.161 2.152.483s1.045.761 1.355 1.328.472 1.215.472 1.952-.159 1.388-.477 1.952-.779 1.003-1.382 1.317-1.326.472-2.179.472h-2.792v-1.882h2.412c.452 0 .824-.077 1.117-.233s.517-.377.661-.656.222-.605.222-.97-.074-.69-.222-.965-.365-.493-.661-.645-.672-.233-1.128-.233h-1.583v9.183H86.76zm9.536 0v-8.327h2.239v1.453h.087c.152-.517.407-.907.764-1.171s.77-.401 1.236-.401a3.36 3.36 0 0 1 .374.022c.134.014.251.034.352.059v2.05c-.108-.033-.258-.062-.45-.087s-.366-.038-.525-.038a1.85 1.85 0 0 0-.911.222 1.64 1.64 0 0 0-.629.607c-.152.261-.228.561-.228.9v4.711h-2.31zm9.316.163c-.842 0-1.57-.179-2.185-.537s-1.082-.863-1.415-1.507-.499-1.397-.499-2.25c0-.86.167-1.612.499-2.255a3.63 3.63 0 0 1 1.415-1.507c.615-.361 1.343-.542 2.185-.542s1.569.181 2.179.542a3.62 3.62 0 0 1 1.421 1.507c.332.643.499 1.395.499 2.255 0 .853-.167 1.603-.499 2.25s-.806 1.146-1.421 1.507c-.61.358-1.337.537-2.179.537zm.011-1.789c.383 0 .703-.108.959-.325s.45-.521.58-.9.201-.812.201-1.296-.067-.916-.201-1.296-.323-.679-.58-.9-.576-.33-.959-.33-.712.11-.976.33-.457.521-.591.9-.195.812-.195 1.296.065.916.195 1.296.331.679.591.9.589.325.976.325zm8.352 1.762c-.632 0-1.205-.163-1.718-.488s-.915-.811-1.215-1.447-.444-1.424-.444-2.353c0-.954.154-1.748.461-2.38s.715-1.112 1.225-1.426a3.14 3.14 0 0 1 1.686-.477c.466 0 .855.079 1.166.238s.567.351.759.586.343.459.444.683h.071v-4.175h2.304v11.103h-2.277v-1.333h-.098c-.108.231-.262.461-.461.688a2.29 2.29 0 0 1-.764.559c-.311.148-.69.222-1.139.222zm.732-1.838c.373 0 .687-.101.944-.303s.459-.494.596-.862.211-.801.211-1.296-.068-.925-.206-1.29-.336-.647-.596-.846-.576-.298-.949-.298c-.379 0-.699.103-.959.309s-.457.491-.591.856-.201.788-.201 1.269.067.912.201 1.285.334.658.591.867.58.309.959.309zm10.94-1.843v-4.782h2.31v8.327h-2.218V154.8h-.086c-.188.488-.501.88-.938 1.176s-.963.445-1.589.445c-.556 0-1.046-.127-1.469-.38a2.61 2.61 0 0 1-.992-1.078c-.235-.467-.354-1.025-.358-1.676v-5.302h2.31v4.89c.003.492.135.88.396 1.166s.609.428 1.046.428a1.66 1.66 0 0 0 .781-.19c.242-.13.437-.321.585-.574s.226-.566.222-.938zm7.614 3.708c-.853 0-1.586-.181-2.201-.542s-1.08-.871-1.409-1.518-.488-1.391-.488-2.234c0-.853.164-1.601.493-2.244a3.67 3.67 0 0 1 1.415-1.513c.611-.365 1.337-.547 2.179-.547.727 0 1.363.132 1.909.396s.977.634 1.296 1.111.493 1.037.525 1.681h-2.179c-.061-.416-.224-.75-.488-1.003s-.602-.385-1.025-.385c-.357 0-.67.097-.937.292s-.47.472-.619.841-.222.815-.222 1.339c0 .531.072.983.217 1.355s.356.656.624.851a1.54 1.54 0 0 0 .937.293 1.52 1.52 0 0 0 .711-.163c.213-.108.388-.265.525-.471s.234-.461.277-.754h2.179c-.036.636-.209 1.197-.52 1.681s-.732.856-1.274 1.128-1.184.406-1.925.406zm9.322-8.49v1.735h-5.015v-1.735h5.015zm-3.876-1.995h2.309v7.764c0 .213.033.379.098.498s.155.197.271.244a1.12 1.12 0 0 0 .412.071 1.98 1.98 0 0 0 .325-.027l.25-.049.363 1.718c-.116.037-.278.078-.488.125a3.83 3.83 0 0 1-.765.092c-.556.022-1.044-.052-1.463-.222a2.05 2.05 0 0 1-.971-.791c-.231-.358-.345-.81-.341-1.356v-8.067zm8.347 10.322v-11.103h4.38c.842 0 1.56.161 2.152.483a3.27 3.27 0 0 1 1.356 1.328c.314.564.471 1.215.471 1.952s-.159 1.388-.477 1.952-.779 1.003-1.382 1.317-1.327.472-2.18.472h-2.792v-1.882h2.413c.452 0 .824-.077 1.117-.233a1.54 1.54 0 0 0 .661-.656c.148-.282.222-.605.222-.97s-.074-.69-.222-.965-.365-.493-.661-.645-.673-.233-1.128-.233h-1.583v9.183h-2.347zm11.686.158c-.531 0-1.004-.092-1.42-.277s-.745-.464-.987-.829-.358-.828-.358-1.377c0-.463.085-.851.255-1.166a2.07 2.07 0 0 1 .694-.759 3.39 3.39 0 0 1 .998-.434 7.71 7.71 0 0 1 1.182-.206l1.171-.141c.296-.047.511-.115.645-.206a.45.45 0 0 0 .2-.401v-.032c0-.344-.108-.609-.325-.797s-.517-.282-.911-.282c-.415 0-.746.092-.992.276s-.408.409-.488.683l-2.136-.173a2.91 2.91 0 0 1 .64-1.312c.318-.372.728-.658 1.231-.857s1.091-.303 1.756-.303a5.34 5.34 0 0 1 1.328.162c.427.109.805.277 1.133.505s.595.52.787.878.287.779.287 1.274v5.616h-2.19v-1.154h-.065a2.36 2.36 0 0 1-.537.688 2.48 2.48 0 0 1-.808.461c-.314.109-.678.163-1.09.163zm.662-1.594c.34 0 .64-.067.9-.201s.464-.321.612-.553.223-.493.223-.786v-.884c-.073.047-.172.091-.299.131l-.417.103-.466.081-.423.06c-.271.039-.508.103-.71.189a1.13 1.13 0 0 0-.472.353c-.112.144-.168.325-.168.542 0 .314.114.555.342.721s.524.244.878.244zm9.266 4.733c-.748 0-1.39-.103-1.925-.309s-.954-.479-1.268-.83a2.54 2.54 0 0 1-.613-1.182l2.136-.287c.065.166.168.322.309.466s.327.26.559.347.52.136.856.136c.503 0 .916-.123 1.242-.369s.493-.649.493-1.22v-1.523h-.098a2.2 2.2 0 0 1-.455.656c-.202.206-.463.374-.781.504s-.697.195-1.138.195a3.42 3.42 0 0 1-1.708-.433c-.51-.293-.916-.74-1.22-1.34s-.45-1.366-.45-2.287c0-.944.154-1.732.461-2.364s.716-1.106 1.225-1.421 1.076-.471 1.686-.471c.467 0 .857.079 1.171.238s.568.351.759.586a3.06 3.06 0 0 1 .45.683h.087v-1.399h2.293v8.409c0 .708-.173 1.301-.52 1.778s-.828.835-1.442 1.073-1.314.364-2.109.364zm.049-5.151c.372 0 .686-.092.943-.276s.459-.456.596-.802.212-.77.212-1.258-.069-.911-.206-1.269-.336-.641-.597-.84-.576-.298-.948-.298c-.38 0-.7.103-.96.309s-.457.484-.591.845-.2.779-.2 1.253c0 .48.066.896.2 1.247s.335.616.591.807.58.282.96.282zm9.35 2.017c-.857 0-1.594-.173-2.212-.52s-1.088-.846-1.42-1.486-.499-1.404-.499-2.282c0-.857.166-1.609.499-2.255s.8-1.152 1.404-1.513 1.319-.542 2.136-.542c.549 0 1.061.088 1.534.265s.893.436 1.247.787.636.791.835 1.322.298 1.146.298 1.854v.635h-7.032v-1.431h4.858c0-.333-.072-.628-.217-.884a1.55 1.55 0 0 0-.602-.602c-.253-.148-.547-.222-.883-.222-.351 0-.662.081-.933.244s-.477.374-.629.645-.229.566-.233.894v1.361c0 .412.076.768.228 1.068a1.66 1.66 0 0 0 .656.694c.282.163.616.244 1.003.244a2.2 2.2 0 0 0 .705-.108 1.47 1.47 0 0 0 .547-.326c.152-.144.268-.321.347-.531l2.136.141a2.91 2.91 0 0 1-.667 1.345c-.332.379-.762.675-1.29.889s-1.129.314-1.816.314z" fill="#262a36"/></g><g filter="url(#C)"><path transform="translate(55.101 251.902)" fill="#ffd966" d="M0 0h157.438v157.438H0z"/><path d="M95.393 336.648h-2.515l3.833-11.103h3.025l3.827 11.103h-2.515l-2.781-8.565h-.087l-2.787 8.565zm-.157-4.364h5.942v1.833h-5.942v-1.833zm11.996 4.5c-.633 0-1.206-.163-1.719-.488s-.914-.811-1.214-1.447-.445-1.424-.445-2.353c0-.955.154-1.748.461-2.38s.716-1.112 1.225-1.426 1.076-.477 1.686-.477c.467 0 .855.079 1.166.238s.567.351.759.586.343.459.445.683h.07v-4.175h2.304v11.103h-2.277v-1.333h-.097a2.98 2.98 0 0 1-.461.688c-.195.224-.45.411-.765.559s-.69.222-1.138.222zm.732-1.838c.372 0 .686-.101.943-.303s.459-.494.596-.862.212-.801.212-1.296-.069-.925-.206-1.29-.336-.647-.597-.846-.576-.298-.948-.298c-.38 0-.7.103-.96.309s-.457.491-.591.856-.2.788-.2 1.269.066.912.2 1.285.335.657.591.867.58.309.96.309zm8.668 1.838c-.632 0-1.205-.163-1.718-.488s-.915-.811-1.215-1.447-.444-1.424-.444-2.353c0-.955.153-1.748.46-2.38s.716-1.112 1.226-1.426a3.14 3.14 0 0 1 1.686-.477c.466 0 .855.079 1.165.238s.568.351.759.586a2.93 2.93 0 0 1 .445.683h.07v-4.175h2.304v11.103h-2.277v-1.333h-.097a2.98 2.98 0 0 1-.461.688 2.29 2.29 0 0 1-.764.559c-.311.148-.691.222-1.139.222zm.732-1.838c.372 0 .687-.101.943-.303s.459-.494.597-.862.211-.801.211-1.296-.069-.925-.206-1.29-.336-.647-.596-.846-.577-.298-.949-.298c-.379 0-.699.103-.96.309s-.457.491-.59.856-.201.788-.201 1.269.067.912.201 1.285.334.657.59.867c.261.206.581.309.96.309zm13.257-6.625v1.735h-5.014v-1.735h5.014zm-3.876-1.995h2.31v7.764c0 .213.032.379.097.498a.54.54 0 0 0 .271.244 1.12 1.12 0 0 0 .412.071 1.99 1.99 0 0 0 .326-.027l.249-.049.363 1.718c-.116.037-.278.078-.488.125s-.464.081-.764.092c-.557.022-1.045-.052-1.464-.222a2.04 2.04 0 0 1-.97-.792c-.232-.357-.346-.809-.342-1.355v-8.067zm8.748 10.485c-.842 0-1.57-.179-2.184-.537a3.66 3.66 0 0 1-1.415-1.507c-.333-.647-.499-1.397-.499-2.25 0-.86.166-1.612.499-2.255s.804-1.149 1.415-1.507 1.342-.542 2.184-.542 1.569.18 2.18.542 1.088.86 1.42 1.507.499 1.395.499 2.255c0 .853-.166 1.603-.499 2.25s-.806 1.146-1.42 1.507-1.337.537-2.18.537zm.011-1.789c.383 0 .703-.108.96-.325s.45-.521.58-.9.201-.812.201-1.296-.067-.916-.201-1.296-.324-.679-.58-.9-.577-.33-.96-.33-.712.11-.976.33-.457.521-.591.9-.195.812-.195 1.296.065.916.195 1.296.331.679.591.9.59.325.976.325zm18.352-5.589h-2.374c-.044-.308-.132-.581-.266-.819s-.305-.448-.515-.618-.452-.3-.726-.39-.566-.136-.884-.136c-.575 0-1.075.143-1.502.428s-.757.694-.992 1.236-.352 1.193-.352 1.963c0 .791.117 1.456.352 1.995s.571.945.998 1.22.919.412 1.48.412c.314 0 .605-.042.872-.125a2.29 2.29 0 0 0 .722-.363c.209-.163.383-.36.52-.591s.239-.495.293-.792l2.374.011c-.061.51-.215 1.001-.46 1.475s-.57.891-.982 1.263-.896.662-1.464.878c-.563.214-1.201.32-1.913.32-.991 0-1.876-.224-2.657-.672s-1.391-1.097-1.843-1.946-.672-1.878-.672-3.085.227-2.241.683-3.09 1.073-1.497 1.854-1.941 1.659-.672 2.635-.672a5.69 5.69 0 0 1 1.789.271c.553.18 1.042.444 1.469.791s.773.765 1.041 1.263.444 1.07.52 1.714zm3.71 7.373c-.532 0-1.005-.093-1.421-.277a2.29 2.29 0 0 1-.987-.829c-.238-.369-.357-.828-.357-1.377 0-.463.085-.852.254-1.166s.402-.567.694-.759a3.4 3.4 0 0 1 .998-.434 7.71 7.71 0 0 1 1.182-.206l1.171-.141c.296-.047.511-.115.645-.206s.201-.224.201-.401v-.032c0-.344-.109-.609-.326-.797s-.517-.282-.911-.282c-.415 0-.746.092-.992.276s-.408.409-.488.683l-2.136-.173a2.91 2.91 0 0 1 .64-1.312c.318-.372.728-.658 1.231-.857s1.091-.303 1.756-.303c.463 0 .906.054 1.329.162s.804.277 1.133.505a2.45 2.45 0 0 1 .786.878c.191.354.287.779.287 1.274v5.616h-2.19v-1.154H160a2.36 2.36 0 0 1-.537.688 2.48 2.48 0 0 1-.808.461c-.314.108-.677.163-1.089.163zm.661-1.594c.34 0 .64-.067.9-.201s.464-.321.613-.553.222-.493.222-.786v-.884c-.072.047-.172.091-.298.131l-.418.103-.466.081-.423.059a2.85 2.85 0 0 0-.71.19 1.13 1.13 0 0 0-.472.353c-.112.144-.168.325-.168.542 0 .314.114.555.342.721s.524.244.878.244zm5.514 1.436v-8.327h2.24v1.453h.086c.152-.517.407-.907.765-1.171a2.01 2.01 0 0 1 1.236-.401c.115 0 .24.007.374.022s.251.034.352.059v2.05c-.108-.033-.258-.062-.45-.087a3.92 3.92 0 0 0-.526-.038c-.339 0-.643.074-.91.222s-.474.347-.629.607-.228.56-.228.9v4.711h-2.31zm10.789-8.327v1.735h-5.015v-1.735h5.015zm-3.877-1.995h2.31v7.764c0 .213.032.379.097.498a.54.54 0 0 0 .272.244c.119.047.256.071.412.071a1.99 1.99 0 0 0 .325-.027l.249-.049.363 1.718a6.04 6.04 0 0 1-.487.125c-.21.051-.465.081-.765.092-.556.022-1.044-.052-1.464-.222s-.739-.434-.97-.792-.345-.809-.342-1.355v-8.067z" fill="#262a36"/></g></g></g><defs><filter id="A" x=".145" y=".867" width="267.35" height="433.375" filterUnits="userSpaceOnUse" class="B"><feFlood result="A" class="C"/><feColorMatrix in="SourceAlpha" values="0 0 0 0 0 0 0 0 0 0 0 0 0 0 0 0 0 0 127 0" result="B"/><feOffset/><feGaussianBlur stdDeviation="1"/><feComposite in2="B" operator="out"/><feColorMatrix values="0 0 0 0 0 0 0 0 0 0 0 0 0 0 0 0 0 0 0.25 0"/><feBlend in2="A"/><feBlend in="SourceGraphic"/></filter><filter id="B" x="51.285" y="71.566" width="165.071" height="165.071" filterUnits="userSpaceOnUse" class="B"><feFlood result="A" class="C"/><feColorMatrix in="SourceAlpha" values="0 0 0 0 0 0 0 0 0 0 0 0 0 0 0 0 0 0 127 0" result="B"/><feOffset dy="3.81667"/><feGaussianBlur stdDeviation="1.908"/><feComposite in2="B" operator="out"/><feColorMatrix values="0 0 0 0 0 0 0 0 0 0 0 0 0 0 0 0 0 0 0.25 0"/><feBlend in2="A"/><feBlend in="SourceGraphic"/></filter><filter id="C" x="51.284" y="251.902" width="165.071" height="165.071" filterUnits="userSpaceOnUse" class="B"><feFlood result="A" class="C"/><feColorMatrix in="SourceAlpha" values="0 0 0 0 0 0 0 0 0 0 0 0 0 0 0 0 0 0 127 0" result="B"/><feOffset dy="3.81667"/><feGaussianBlur stdDeviation="1.908"/><feComposite in2="B" operator="out"/><feColorMatrix values="0 0 0 0 0 0 0 0 0 0 0 0 0 0 0 0 0 0 0.25 0"/><feBlend in2="A"/><feBlend in="SourceGraphic"/></filter><clipPath id="D"><rect x="2.145" y="2.867" width="263.35" height="429.375" rx="10" fill="#fff"/></clipPath></defs></svg>