<svg xmlns="http://www.w3.org/2000/svg" width="268" height="435" fill="none" xmlns:v="https://vecta.io/nano"><style><![CDATA[.B{color-interpolation-filters:sRGB}.C{flood-opacity:0}]]></style><g filter="url(#A)"><g clip-path="url(#D)"><rect x="2.505" y="2.867" width="263.35" height="429.375" rx="10" fill="#fafbfc"/><path opacity=".85" d="M44.691 38.949V26.429h6.355c.756 0 1.414.08 1.975.241s1.025.401 1.391.721c.378.309.658.687.842 1.134s.275.967.275 1.563c0 .733-.195 1.374-.584 1.924-.389.538-.916.887-1.58 1.048v.12c.618.126 1.082.384 1.391.773s.464.933.464 1.632v1.889l.017.739a2.6 2.6 0 0 0 .189.738h-3.092c-.069-.149-.12-.349-.155-.601-.034-.263-.052-.555-.052-.876v-1.357c0-.332-.051-.607-.155-.824-.092-.229-.263-.406-.515-.532s-.613-.189-1.082-.189h-2.611v4.38h-3.074zm3.074-6.801h2.834c.641 0 1.093-.155 1.357-.464.275-.309.412-.698.412-1.168 0-.389-.074-.693-.223-.91a1.27 1.27 0 0 0-.618-.498 2.54 2.54 0 0 0-.928-.155h-2.834v3.195zm13.199 6.973c-.71 0-1.351-.103-1.924-.309a4.31 4.31 0 0 1-1.494-.945c-.412-.424-.733-.933-.962-1.529-.218-.595-.326-1.271-.326-2.027 0-.962.183-1.798.55-2.508.366-.721.899-1.282 1.597-1.683.71-.412 1.563-.618 2.559-.618.71 0 1.351.109 1.924.326a3.85 3.85 0 0 1 1.477.945c.412.412.727.916.945 1.511.229.584.344 1.26.344 2.027 0 .95-.183 1.786-.55 2.508s-.899 1.288-1.597 1.7c-.699.401-1.546.601-2.542.601zm0-2.353a1.66 1.66 0 0 0 .927-.258c.263-.172.469-.441.618-.807s.223-.83.223-1.391c0-.424-.046-.79-.137-1.099-.08-.321-.2-.578-.361-.773-.149-.206-.332-.355-.55-.447-.206-.103-.447-.155-.721-.155-.355 0-.67.092-.945.275-.263.172-.47.441-.618.807-.137.355-.206.819-.206 1.391 0 .424.04.796.12 1.116.08.309.195.567.343.773.16.195.349.338.567.429a1.97 1.97 0 0 0 .739.137zm9.181 2.353c-.721 0-1.328-.137-1.821-.412a2.73 2.73 0 0 1-1.116-1.237c-.24-.55-.361-1.208-.361-1.975v-5.822h2.903v5.032c0 .447.052.824.154 1.133.115.298.286.527.515.687s.527.24.893.24c.378 0 .698-.092.962-.275s.464-.418.601-.704.206-.595.206-.927v-5.187h2.903v9.274h-2.8l-.103-1.614h-.12c-.229.584-.595 1.03-1.099 1.34-.504.298-1.076.447-1.718.447zm10.832-.172c-.687 0-1.219-.097-1.597-.292-.366-.206-.624-.492-.773-.859-.137-.366-.206-.796-.206-1.288v-4.5h-1.597v-2.336H78.4v-2.456l2.903-.258v2.714h1.786v2.336h-1.786v3.967c0 .252.063.424.189.515.126.08.298.12.515.12h1.082v2.336h-2.112zm3.374 0v-9.274h2.903v9.274H84.35zm0-10.356v-2.164h2.903v2.164H84.35zm4.725 10.356v-9.274h2.799l.103 1.597h.137c.24-.595.613-1.036 1.116-1.322a3.37 3.37 0 0 1 1.718-.447c.458 0 .882.069 1.271.206a2.61 2.61 0 0 1 1.048.67c.298.298.527.693.687 1.185.172.481.258 1.065.258 1.752v5.633H95.31v-4.998c0-.47-.057-.859-.172-1.168-.103-.309-.269-.538-.498-.687-.218-.16-.51-.241-.876-.241-.389 0-.716.092-.979.275s-.464.418-.601.704-.206.59-.206.91v5.204h-2.903zm15.038.172c-.996 0-1.844-.195-2.542-.584a4.11 4.11 0 0 1-1.615-1.666c-.366-.71-.55-1.54-.55-2.49 0-.996.189-1.861.567-2.593s.91-1.294 1.597-1.683c.698-.401 1.506-.601 2.422-.601 1.11 0 2.015.24 2.713.721.699.47 1.203 1.116 1.512 1.941s.406 1.763.292 2.817h-6.252c0 .412.074.767.223 1.065a1.75 1.75 0 0 0 .653.67c.275.149.601.223.979.223.412 0 .761-.086 1.048-.258.297-.183.486-.418.566-.704h2.731a3.12 3.12 0 0 1-.687 1.649c-.389.47-.899.836-1.528 1.099s-1.34.395-2.13.395zm-1.855-5.651l-.24-.275h3.915l-.274.258c.023-.389-.035-.716-.172-.979a1.39 1.39 0 0 0-.601-.601c-.252-.137-.55-.206-.893-.206-.355 0-.664.074-.928.223s-.464.361-.601.635c-.137.263-.206.578-.206.945zm11.247 5.479V26.429h4.655l2.112 7.488h.138l2.078-7.488h4.654v12.521h-2.988v-4.483l.034-4.826h-.12l-2.525 9.309h-2.387l-2.542-9.309h-.154l.051 4.843v4.465h-3.006zm18.865.172c-.549 0-1.048-.097-1.494-.292a3.3 3.3 0 0 1-1.168-.91c-.321-.401-.567-.899-.738-1.494-.172-.607-.258-1.311-.258-2.113 0-1.076.149-1.969.446-2.679.31-.721.739-1.254 1.289-1.597.549-.355 1.19-.532 1.923-.532.47 0 .888.069 1.254.206.378.137.698.332.962.584a2.6 2.6 0 0 1 .635.893h.155l.103-1.511h2.799v9.274h-2.902v-1.511h-.155c-.217.504-.572.91-1.065 1.219s-1.087.464-1.786.464zm1.134-2.336c.435 0 .784-.097 1.047-.292a1.85 1.85 0 0 0 .584-.773c.138-.321.206-.653.206-.996V33.9c0-.355-.068-.687-.206-.996-.126-.321-.32-.578-.584-.773s-.612-.292-1.047-.292c-.367 0-.687.086-.962.258s-.492.441-.653.807c-.149.355-.223.824-.223 1.408 0 .573.074 1.042.223 1.408.161.366.378.636.653.807s.595.258.962.258zm6.57 2.164v-9.274h2.8l.103 1.597h.137c.241-.595.613-1.036 1.117-1.322a3.37 3.37 0 0 1 1.717-.447c.458 0 .882.069 1.271.206.401.137.75.361 1.048.67.298.298.527.693.687 1.185.172.481.258 1.065.258 1.752v5.633h-2.903v-4.998c0-.47-.057-.859-.172-1.168-.103-.309-.269-.538-.498-.687-.217-.16-.509-.241-.876-.241-.389 0-.715.092-.979.275s-.463.418-.601.704-.206.59-.206.91v5.204h-2.903zm13.991.172c-.55 0-1.048-.097-1.494-.292a3.3 3.3 0 0 1-1.168-.91c-.321-.401-.567-.899-.739-1.494-.172-.607-.257-1.311-.257-2.113 0-1.076.148-1.969.446-2.679.309-.721.739-1.254 1.288-1.597.55-.355 1.191-.532 1.924-.532a3.56 3.56 0 0 1 1.254.206c.377.137.698.332.961.584a2.6 2.6 0 0 1 .636.893h.154l.104-1.511h2.799v9.274h-2.903v-1.511h-.154c-.218.504-.573.91-1.065 1.219s-1.088.464-1.786.464zm1.133-2.336c.436 0 .785-.097 1.048-.292.263-.206.458-.464.584-.773a2.51 2.51 0 0 0 .206-.996V33.9a2.43 2.43 0 0 0-.206-.996c-.126-.321-.321-.578-.584-.773s-.612-.292-1.048-.292c-.366 0-.687.086-.961.258s-.493.441-.653.807c-.149.355-.223.824-.223 1.408 0 .573.074 1.042.223 1.408.16.366.378.636.653.807s.595.258.961.258zm10.422 5.204c-.847 0-1.574-.12-2.181-.361s-1.082-.584-1.426-1.031c-.343-.435-.532-.939-.567-1.511h2.8a.76.76 0 0 0 .223.447c.138.126.309.223.516.292a1.98 1.98 0 0 0 .721.12c.458 0 .819-.063 1.082-.189a1.13 1.13 0 0 0 .584-.567c.114-.252.172-.555.172-.91v-1.46h-.155c-.183.47-.515.847-.996 1.134s-1.042.429-1.683.429c-.538 0-1.031-.092-1.477-.275-.435-.195-.813-.475-1.134-.841s-.567-.824-.738-1.374c-.172-.561-.258-1.214-.258-1.958 0-.996.149-1.821.447-2.473.309-.653.732-1.139 1.27-1.46.55-.332 1.186-.498 1.907-.498.63 0 1.185.143 1.666.429s.813.658.996 1.116h.155l.103-1.374h2.799v8.038c0 .79-.114 1.46-.343 2.009-.218.55-.544.99-.979 1.323-.424.332-.933.572-1.529.721-.584.149-1.242.223-1.975.223zm.189-5.805c.378 0 .693-.08.945-.24.251-.172.44-.384.566-.636a1.93 1.93 0 0 0 .224-.824v-1.099a2.02 2.02 0 0 0-.241-.824c-.126-.252-.309-.458-.549-.618s-.556-.24-.945-.24c-.344 0-.647.08-.91.24s-.47.407-.619.739c-.148.321-.223.739-.223 1.254 0 .527.075.956.223 1.288s.355.578.619.739c.263.149.566.223.91.223zm10.411 2.937c-.996 0-1.843-.195-2.542-.584-.698-.401-1.236-.956-1.614-1.666-.367-.71-.55-1.54-.55-2.49 0-.996.189-1.861.567-2.593s.91-1.294 1.597-1.683c.699-.401 1.506-.601 2.422-.601 1.111 0 2.015.24 2.714.721.698.47 1.202 1.116 1.511 1.941s.407 1.763.292 2.817h-6.252c0 .412.075.767.224 1.065.16.286.377.51.652.67.275.149.601.223.979.223.412 0 .762-.086 1.048-.258.298-.183.487-.418.567-.704h2.73c-.068.618-.297 1.168-.687 1.649-.389.47-.898.836-1.528 1.099s-1.34.395-2.13.395zm-1.855-5.651l-.24-.275h3.916l-.275.258c.023-.389-.034-.716-.172-.979s-.338-.464-.601-.601c-.252-.137-.55-.206-.893-.206a1.85 1.85 0 0 0-.927.223c-.264.149-.464.361-.602.635-.137.263-.206.578-.206.945zm7.589 5.479v-9.274h2.817l.086 1.597h.137c.218-.595.573-1.036 1.065-1.322.504-.298 1.054-.447 1.649-.447.63 0 1.208.149 1.735.447s.916.819 1.168 1.563h.137c.206-.675.578-1.179 1.116-1.511.55-.332 1.168-.498 1.855-.498.596 0 1.128.126 1.598.378.469.241.841.641 1.116 1.202.286.561.429 1.305.429 2.233v5.633h-2.902v-4.998c0-.47-.052-.859-.155-1.168-.091-.309-.246-.538-.464-.687-.206-.16-.48-.241-.824-.241-.355 0-.658.092-.91.275-.241.183-.424.418-.55.704s-.189.59-.189.91v5.204h-2.92v-4.998c0-.47-.045-.859-.137-1.168s-.246-.538-.464-.687c-.206-.16-.481-.241-.824-.241-.355 0-.658.092-.91.275a1.9 1.9 0 0 0-.567.704c-.126.286-.189.59-.189.91v5.204h-2.903zm20.808.172c-.996 0-1.843-.195-2.542-.584-.698-.401-1.236-.956-1.614-1.666-.367-.71-.55-1.54-.55-2.49 0-.996.189-1.861.567-2.593s.91-1.294 1.597-1.683c.699-.401 1.506-.601 2.422-.601 1.111 0 2.015.24 2.714.721.698.47 1.202 1.116 1.511 1.941s.406 1.763.292 2.817h-6.252c0 .412.075.767.224 1.065.16.286.377.51.652.67.275.149.601.223.979.223.412 0 .762-.086 1.048-.258.298-.183.486-.418.567-.704h2.73c-.068.618-.297 1.168-.687 1.649-.389.47-.898.836-1.528 1.099s-1.34.395-2.13.395zm-1.855-5.651l-.24-.275h3.916l-.275.258c.023-.389-.034-.716-.172-.979s-.338-.464-.601-.601c-.252-.137-.55-.206-.893-.206-.355 0-.664.074-.928.223a1.47 1.47 0 0 0-.601.635c-.137.263-.206.578-.206.945zm7.589 5.479v-9.274h2.8l.103 1.597h.137c.241-.595.613-1.036 1.117-1.322.515-.298 1.087-.447 1.717-.447.458 0 .882.069 1.271.206.401.137.75.361 1.048.67.298.298.527.693.687 1.185.172.481.257 1.065.257 1.752v5.633h-2.902v-4.998c0-.47-.057-.859-.172-1.168-.103-.309-.269-.538-.498-.687-.218-.16-.509-.241-.876-.241-.389 0-.716.092-.979.275s-.464.418-.601.704-.206.59-.206.91v5.204h-2.903zm13.877 0c-.687 0-1.22-.097-1.598-.292-.366-.206-.624-.492-.773-.859-.137-.366-.206-.796-.206-1.288v-4.5H218.2v-2.336h1.597v-2.456l2.903-.258v2.714h1.786v2.336H222.7v3.967c0 .252.063.424.189.515.126.08.297.12.515.12h1.082v2.336h-2.112z" fill="#121212"/><g filter="url(#B)"><path transform="translate(55.461 71.566)" fill="#ffd966" d="M0 0h157.438v157.438H0z"/><path d="M108.009 148.798a2.42 2.42 0 0 0-.319-.699c-.138-.206-.306-.379-.505-.52s-.419-.255-.672-.331-.526-.114-.829-.114c-.568 0-1.067.141-1.497.423s-.759.692-.997 1.231-.358 1.189-.358 1.962.117 1.431.352 1.974.568.956.998 1.241.938.423 1.523.423c.532 0 .985-.094 1.361-.282s.669-.461.868-.808.303-.757.303-1.23l.477.07h-2.862v-1.767h4.646v1.398c0 .976-.206 1.815-.618 2.516a4.21 4.21 0 0 1-1.703 1.615c-.722.376-1.55.564-2.483.564-1.04 0-1.955-.229-2.743-.688s-1.402-1.119-1.843-1.968-.656-1.865-.656-3.036c0-.9.13-1.702.39-2.407s.633-1.309 1.106-1.8a4.77 4.77 0 0 1 1.654-1.122 5.35 5.35 0 0 1 2.044-.385c.629 0 1.214.092 1.756.276s1.023.437 1.442.77a4.18 4.18 0 0 1 1.036 1.187 4.05 4.05 0 0 1 .515 1.507h-2.386zm6.213-3.589v11.103h-2.31v-11.103h2.31zm5.307 11.266c-.842 0-1.57-.179-2.185-.537-.61-.361-1.082-.863-1.415-1.507s-.498-1.397-.498-2.25c0-.86.166-1.612.498-2.255s.805-1.149 1.415-1.507c.615-.361 1.343-.542 2.185-.542s1.569.181 2.18.542 1.087.86 1.42 1.507.499 1.395.499 2.255c0 .853-.167 1.603-.499 2.25a3.66 3.66 0 0 1-1.42 1.507c-.611.358-1.338.537-2.18.537zm.011-1.789c.383 0 .703-.108.96-.325s.45-.521.58-.9a3.91 3.91 0 0 0 .2-1.296 3.91 3.91 0 0 0-.2-1.296c-.13-.379-.324-.679-.58-.9s-.577-.33-.96-.33-.712.11-.976.33-.457.521-.591.9-.195.812-.195 1.296.065.916.195 1.296.331.679.591.9.589.325.976.325zm6.718 1.626l-2.266-8.327h2.337l1.29 5.595h.076l1.344-5.595h2.294l1.366 5.563h.07l1.269-5.563h2.331l-2.261 8.327h-2.445l-1.431-5.237h-.103l-1.431 5.237h-2.44zm16.226-5.475v1.832h-5.064v-1.832h5.064zm6.092-2.852v1.735h-5.015v-1.735h5.015zm-3.876-1.995h2.309v7.764c0 .213.033.379.098.498s.155.197.271.244.256.071.412.071a1.98 1.98 0 0 0 .325-.027l.249-.049.364 1.718a6.2 6.2 0 0 1-.488.125 3.83 3.83 0 0 1-.765.092c-.556.022-1.044-.052-1.463-.222s-.74-.434-.971-.791-.345-.81-.341-1.356v-8.067zm5.075 10.322v-8.327h2.309v8.327h-2.309zm1.16-9.4c-.343 0-.638-.114-.884-.342s-.363-.508-.363-.829.121-.591.363-.819.541-.347.884-.347.636.116.878.347.369.501.369.819-.123.598-.369.829-.534.342-.878.342zm5.004 4.586v4.814h-2.31v-8.327h2.201v1.469h.098a2.32 2.32 0 0 1 .927-1.149c.434-.285.96-.428 1.578-.428.578 0 1.082.126 1.512.379s.765.615 1.003 1.085.358 1.022.358 1.669v5.302h-2.31v-4.89c.004-.509-.126-.907-.39-1.192s-.627-.434-1.09-.434c-.31 0-.585.067-.824.201a1.39 1.39 0 0 0-.553.585c-.13.253-.197.558-.2.916zm10.677 4.977c-.857 0-1.594-.173-2.212-.52s-1.088-.846-1.421-1.486-.498-1.404-.498-2.282c0-.857.166-1.609.498-2.255s.801-1.152 1.405-1.513 1.319-.542 2.136-.542c.549 0 1.06.088 1.534.265s.893.436 1.247.787.636.791.835 1.322.298 1.146.298 1.854v.635h-7.032v-1.431h4.858c0-.333-.072-.628-.217-.884s-.345-.457-.602-.602-.547-.222-.883-.222c-.351 0-.662.081-.933.244s-.477.374-.629.645-.229.566-.233.894v1.361c0 .412.076.768.228 1.068a1.66 1.66 0 0 0 .656.694c.282.163.616.244 1.003.244a2.2 2.2 0 0 0 .705-.108 1.47 1.47 0 0 0 .547-.326c.152-.144.268-.321.347-.531l2.136.141a2.92 2.92 0 0 1-.667 1.345c-.332.379-.762.675-1.29.889s-1.129.314-1.816.314z" fill="#262a36"/></g><g filter="url(#C)"><path transform="translate(55.461 251.902)" fill="#ffd966" d="M0 0h157.438v157.438H0z"/><path d="M81.383 336.648v-11.103h4.38c.838 0 1.554.15 2.147.45s1.05.718 1.361 1.264.472 1.18.472 1.913-.159 1.372-.477 1.903-.779.933-1.382 1.215-1.326.423-2.179.423h-2.933v-1.887h2.553c.448 0 .82-.062 1.117-.184s.517-.308.661-.553.222-.552.222-.917-.074-.679-.222-.932-.367-.445-.667-.575-.67-.2-1.122-.2H83.73v9.183h-2.347zm5.996-5.052l2.759 5.052h-2.591l-2.7-5.052h2.532zm7.302 5.215c-.842 0-1.57-.179-2.185-.537s-1.082-.863-1.415-1.507-.499-1.397-.499-2.25c0-.86.166-1.612.499-2.255a3.63 3.63 0 0 1 1.415-1.507c.614-.362 1.343-.542 2.185-.542s1.569.18 2.179.542a3.62 3.62 0 0 1 1.42 1.507c.332.643.499 1.395.499 2.255 0 .853-.166 1.603-.499 2.25s-.806 1.146-1.42 1.507-1.337.537-2.179.537zm.011-1.789c.383 0 .703-.108.96-.325s.45-.521.58-.9.201-.812.201-1.296-.067-.916-.201-1.296-.323-.679-.58-.9-.577-.33-.96-.33-.712.11-.976.33-.457.521-.591.9a3.99 3.99 0 0 0-.195 1.296 3.99 3.99 0 0 0 .195 1.296c.134.379.331.679.591.9s.589.325.976.325zm10.624-1.919v-4.782h2.31v8.327h-2.218v-1.512h-.086c-.188.488-.501.88-.938 1.176s-.963.445-1.589.445c-.556 0-1.046-.127-1.469-.38a2.61 2.61 0 0 1-.992-1.078c-.235-.467-.354-1.025-.358-1.676v-5.302h2.31v4.89c.003.492.135.88.395 1.166s.609.428 1.047.428c.278 0 .538-.063.78-.19a1.48 1.48 0 0 0 .586-.574c.152-.253.226-.566.222-.938zm8.281-4.782v1.735h-5.015v-1.735h5.015zm-3.876-1.995h2.309v7.764c0 .213.033.379.098.498s.155.197.271.244a1.12 1.12 0 0 0 .412.071 1.98 1.98 0 0 0 .325-.027l.25-.049.363 1.718c-.116.037-.278.078-.488.125s-.464.081-.764.092c-.557.022-1.045-.052-1.464-.222s-.739-.434-.971-.792-.345-.809-.341-1.355v-8.067zm5.075 10.322v-8.327h2.31v8.327h-2.31zm1.16-9.4a1.25 1.25 0 0 1-.883-.342c-.242-.231-.364-.508-.364-.829s.122-.591.364-.819.54-.347.883-.347a1.23 1.23 0 0 1 .879.347 1.08 1.08 0 0 1 .368.819 1.1 1.1 0 0 1-.368.829c-.243.228-.535.342-.879.342zm5.004 4.586v4.814h-2.31v-8.327h2.202v1.469h.097a2.32 2.32 0 0 1 .927-1.149c.434-.285.96-.428 1.578-.428.578 0 1.082.126 1.512.379s.765.615 1.003 1.085.358 1.022.358 1.669v5.302h-2.309v-4.89c.003-.509-.127-.907-.391-1.192s-.627-.434-1.089-.434c-.311 0-.586.067-.824.201s-.42.328-.553.585-.197.558-.201.916zm10.677 4.977c-.857 0-1.594-.173-2.212-.52s-1.088-.846-1.42-1.486-.499-1.404-.499-2.282c0-.857.166-1.609.499-2.256s.8-1.151 1.404-1.512 1.319-.542 2.136-.542c.549 0 1.061.088 1.534.265s.893.436 1.247.786.636.792.835 1.323.298 1.146.298 1.854v.635h-7.031v-1.432h4.857c0-.332-.072-.627-.217-.883a1.55 1.55 0 0 0-.602-.602c-.253-.148-.547-.222-.883-.222-.351 0-.662.081-.933.244s-.477.374-.629.645a1.83 1.83 0 0 0-.233.894v1.361c0 .412.076.768.228 1.068s.374.531.656.694.616.244 1.003.244a2.19 2.19 0 0 0 .705-.108 1.46 1.46 0 0 0 .547-.326c.152-.144.268-.321.347-.531l2.136.141a2.91 2.91 0 0 1-.667 1.345c-.332.379-.762.675-1.29.889s-1.129.314-1.816.314zm8.295-.163v-11.103h4.446c.817 0 1.498.121 2.044.364s.956.578 1.23 1.008.412.918.412 1.475c0 .433-.086.815-.26 1.144a2.25 2.25 0 0 1-.715.802c-.3.206-.644.352-1.03.439v.108c.422.019.818.138 1.187.358a2.54 2.54 0 0 1 .905.927c.232.394.347.864.347 1.41 0 .589-.146 1.115-.439 1.578s-.717.822-1.285 1.089-1.267.401-2.098.401h-4.744zm2.348-1.919h1.914c.654 0 1.131-.124 1.431-.374s.45-.589.45-1.008c0-.307-.074-.578-.222-.813a1.51 1.51 0 0 0-.635-.553c-.271-.134-.594-.201-.97-.201h-1.968v2.949zm0-4.537h1.74c.322 0 .607-.056.857-.169s.451-.278.596-.487.222-.461.222-.754c0-.401-.142-.725-.428-.97s-.683-.369-1.204-.369h-1.783v2.749zm12.737 2.911v-4.782h2.31v8.327h-2.218v-1.512h-.087a2.45 2.45 0 0 1-.937 1.176c-.434.297-.964.445-1.589.445-.557 0-1.046-.127-1.469-.38s-.754-.612-.992-1.078-.354-1.025-.358-1.676v-5.302h2.309v4.89c.004.492.136.88.396 1.166s.609.428 1.047.428c.278 0 .538-.063.78-.19s.438-.321.586-.574.226-.566.222-.938zm3.852 3.545v-8.327h2.309v8.327h-2.309zm1.16-9.4c-.344 0-.638-.114-.884-.342s-.363-.508-.363-.829.121-.591.363-.819.54-.347.884-.347.636.116.878.347.369.501.369.819-.123.598-.369.829-.535.342-.878.342zm5.003-1.703v11.103h-2.309v-11.103h2.309zm4.614 11.239c-.633 0-1.206-.163-1.719-.488s-.914-.811-1.214-1.447-.445-1.424-.445-2.353c0-.955.154-1.748.461-2.38s.715-1.112 1.225-1.426a3.14 3.14 0 0 1 1.686-.477c.466 0 .855.079 1.166.238s.567.351.759.586.343.459.444.683h.071v-4.175h2.304v11.103h-2.277v-1.333h-.098c-.108.231-.262.461-.461.688a2.29 2.29 0 0 1-.764.559c-.311.148-.69.222-1.138.222zm.731-1.838c.373 0 .687-.101.944-.303s.459-.494.596-.862.212-.801.212-1.296-.069-.925-.206-1.29-.337-.647-.597-.846-.576-.298-.949-.298c-.379 0-.699.103-.959.309s-.457.491-.591.856-.201.788-.201 1.269.067.912.201 1.285.334.657.591.867.58.309.959.309zm9.395 1.865c-.856 0-1.594-.173-2.212-.52a3.57 3.57 0 0 1-1.42-1.486c-.333-.643-.499-1.404-.499-2.282 0-.857.166-1.609.499-2.256a3.69 3.69 0 0 1 1.404-1.512c.607-.362 1.319-.542 2.136-.542a4.34 4.34 0 0 1 1.534.265 3.41 3.41 0 0 1 1.247.786c.358.351.636.792.835 1.323s.298 1.146.298 1.854v.635h-7.031v-1.432h4.857c0-.332-.072-.627-.216-.883a1.56 1.56 0 0 0-.602-.602 1.72 1.72 0 0 0-.884-.222c-.35 0-.661.081-.932.244a1.71 1.71 0 0 0-.629.645 1.81 1.81 0 0 0-.233.894v1.361c0 .412.076.768.227 1.068a1.67 1.67 0 0 0 .656.694c.282.163.617.244 1.003.244a2.19 2.19 0 0 0 .705-.108c.213-.073.396-.181.548-.326a1.42 1.42 0 0 0 .347-.531l2.136.141a2.93 2.93 0 0 1-.667 1.345c-.333.379-.763.675-1.29.889s-1.13.314-1.817.314zm5.024-.163v-8.327h2.239v1.453h.087c.152-.517.407-.907.764-1.171s.77-.401 1.237-.401c.115 0 .24.007.374.022s.251.034.352.059v2.05c-.108-.033-.258-.062-.45-.087a3.93 3.93 0 0 0-.526-.038 1.85 1.85 0 0 0-.911.222c-.264.145-.473.347-.629.607s-.227.56-.227.9v4.711h-2.31z" fill="#262a36"/></g></g></g><defs><filter id="A" x=".505" y=".867" width="267.35" height="433.375" filterUnits="userSpaceOnUse" class="B"><feFlood result="A" class="C"/><feColorMatrix in="SourceAlpha" values="0 0 0 0 0 0 0 0 0 0 0 0 0 0 0 0 0 0 127 0" result="B"/><feOffset/><feGaussianBlur stdDeviation="1"/><feComposite in2="B" operator="out"/><feColorMatrix values="0 0 0 0 0 0 0 0 0 0 0 0 0 0 0 0 0 0 0.25 0"/><feBlend in2="A"/><feBlend in="SourceGraphic"/></filter><filter id="B" x="51.644" y="71.566" width="165.071" height="165.071" filterUnits="userSpaceOnUse" class="B"><feFlood result="A" class="C"/><feColorMatrix in="SourceAlpha" values="0 0 0 0 0 0 0 0 0 0 0 0 0 0 0 0 0 0 127 0" result="B"/><feOffset dy="3.81667"/><feGaussianBlur stdDeviation="1.908"/><feComposite in2="B" operator="out"/><feColorMatrix values="0 0 0 0 0 0 0 0 0 0 0 0 0 0 0 0 0 0 0.25 0"/><feBlend in2="A"/><feBlend in="SourceGraphic"/></filter><filter id="C" x="51.644" y="251.902" width="165.071" height="165.071" filterUnits="userSpaceOnUse" class="B"><feFlood result="A" class="C"/><feColorMatrix in="SourceAlpha" values="0 0 0 0 0 0 0 0 0 0 0 0 0 0 0 0 0 0 127 0" result="B"/><feOffset dy="3.81667"/><feGaussianBlur stdDeviation="1.908"/><feComposite in2="B" operator="out"/><feColorMatrix values="0 0 0 0 0 0 0 0 0 0 0 0 0 0 0 0 0 0 0.25 0"/><feBlend in2="A"/><feBlend in="SourceGraphic"/></filter><clipPath id="D"><rect x="2.505" y="2.867" width="263.35" height="429.375" rx="10" fill="#fff"/></clipPath></defs></svg>