<svg xmlns="http://www.w3.org/2000/svg" width="268" height="435" fill="none" xmlns:v="https://vecta.io/nano"><style><![CDATA[.B{color-interpolation-filters:sRGB}.C{flood-opacity:0}]]></style><g filter="url(#A)"><g clip-path="url(#D)"><rect x="2.265" y="2.867" width="263.35" height="429.375" rx="10" fill="#fafbfc"/><path opacity=".85" d="M47.441 38.949V26.429h3.074v12.521h-3.074zm5.155 0v-9.274h2.8l.103 1.597h.137c.24-.595.612-1.036 1.116-1.322a3.37 3.37 0 0 1 1.718-.447c.458 0 .882.069 1.271.206a2.61 2.61 0 0 1 1.048.67c.298.298.527.693.687 1.185.172.481.258 1.065.258 1.752v5.633H58.83v-4.998c0-.47-.057-.859-.172-1.168-.103-.309-.269-.538-.498-.687-.218-.16-.51-.241-.876-.241-.389 0-.716.092-.979.275s-.464.418-.601.704-.206.59-.206.91v5.204h-2.903zm14.849 3.04c-.847 0-1.574-.12-2.181-.361s-1.082-.584-1.426-1.031c-.343-.435-.532-.939-.567-1.511h2.799a.76.76 0 0 0 .223.447 1.41 1.41 0 0 0 .515.292c.206.08.447.12.721.12.458 0 .819-.063 1.082-.189a1.13 1.13 0 0 0 .584-.567c.115-.252.172-.555.172-.91v-1.46h-.154c-.183.47-.515.847-.996 1.134s-1.042.429-1.683.429c-.538 0-1.031-.092-1.477-.275a3.26 3.26 0 0 1-1.133-.841c-.321-.366-.567-.824-.739-1.374-.172-.561-.258-1.214-.258-1.958 0-.996.149-1.821.447-2.473.309-.653.733-1.139 1.271-1.46.55-.332 1.185-.498 1.906-.498.63 0 1.185.143 1.666.429s.813.658.996 1.116h.154l.103-1.374h2.799v8.038c0 .79-.114 1.46-.343 2.009-.218.55-.544.99-.979 1.323-.424.332-.933.572-1.529.721-.584.149-1.242.223-1.975.223zm.189-5.805c.378 0 .693-.08.945-.24.252-.172.441-.384.567-.636a1.93 1.93 0 0 0 .223-.824v-1.099c-.023-.298-.103-.573-.24-.824-.126-.252-.309-.458-.55-.618s-.555-.24-.945-.24c-.344 0-.647.08-.91.24s-.469.407-.618.739c-.149.321-.223.739-.223 1.254 0 .527.074.956.223 1.288s.355.578.618.739c.263.149.567.223.91.223zm6.371 2.765v-9.274h2.628l.12 1.408h.103c.206-.584.527-.985.962-1.202.447-.218.95-.326 1.511-.326h.275.258v2.731h-.258c-.092-.011-.2-.017-.326-.017-.584 0-1.048.086-1.391.258-.344.16-.59.395-.739.704-.149.298-.229.67-.24 1.116v4.603h-2.903zm10.912.172c-.996 0-1.843-.195-2.542-.584a4.11 4.11 0 0 1-1.614-1.666c-.366-.71-.55-1.54-.55-2.49 0-.996.189-1.861.567-2.593s.91-1.294 1.597-1.683c.698-.401 1.506-.601 2.422-.601 1.111 0 2.015.24 2.714.721.698.47 1.202 1.116 1.511 1.941s.406 1.763.292 2.817h-6.252c0 .412.074.767.223 1.065.16.286.378.51.653.67.275.149.601.223.979.223.412 0 .761-.086 1.048-.258.298-.183.487-.418.567-.704h2.731c-.069.618-.298 1.168-.687 1.649-.389.47-.899.836-1.529 1.099s-1.34.395-2.13.395zm-1.855-5.651l-.24-.275h3.916l-.275.258c.023-.389-.034-.716-.172-.979s-.338-.464-.601-.601c-.252-.137-.55-.206-.893-.206-.355 0-.664.074-.928.223s-.464.361-.601.635c-.137.263-.206.578-.206.945zm10.9 5.651c-.55 0-1.048-.097-1.494-.292-.447-.206-.836-.51-1.168-.91-.321-.401-.567-.899-.738-1.494-.172-.607-.258-1.311-.258-2.113 0-1.076.149-1.969.447-2.679.309-.721.739-1.254 1.288-1.597.55-.355 1.191-.532 1.924-.532.469 0 .887.069 1.254.206.378.137.698.332.962.584a2.6 2.6 0 0 1 .636.893h.154v-4.757h2.903l-.017 12.521h-2.782l-.103-1.511h-.154a2.67 2.67 0 0 1-1.065 1.219c-.492.309-1.088.464-1.786.464zm1.134-2.336c.435 0 .784-.097 1.048-.292.263-.206.458-.464.584-.773.137-.321.206-.653.206-.996V33.9a2.43 2.43 0 0 0-.12-.773 1.94 1.94 0 0 0-.326-.653c-.137-.195-.326-.349-.567-.464-.229-.114-.504-.172-.824-.172-.366 0-.687.086-.962.258s-.492.441-.653.807c-.149.355-.223.824-.223 1.408 0 .573.075 1.042.223 1.408.16.366.378.636.653.807s.595.258.962.258zm6.571 2.164v-9.274h2.902v9.274h-2.902zm0-10.356v-2.164h2.902v2.164h-2.902zm8.916 10.528c-.996 0-1.844-.195-2.542-.584-.698-.401-1.237-.956-1.614-1.666-.367-.71-.55-1.54-.55-2.49 0-.996.189-1.861.567-2.593s.91-1.294 1.597-1.683c.698-.401 1.506-.601 2.422-.601 1.11 0 2.015.24 2.713.721.699.47 1.203 1.116 1.512 1.941s.406 1.763.292 2.817h-6.252c0 .412.074.767.223 1.065a1.75 1.75 0 0 0 .653.67c.275.149.601.223.979.223.412 0 .761-.086 1.048-.258.297-.183.486-.418.566-.704h2.731a3.12 3.12 0 0 1-.687 1.649c-.389.47-.899.836-1.528 1.099s-1.34.395-2.13.395zm-1.855-5.651l-.24-.275h3.915l-.274.258c.023-.389-.035-.716-.172-.979a1.39 1.39 0 0 0-.601-.601c-.252-.137-.55-.206-.893-.206-.355 0-.664.074-.928.223s-.464.361-.601.635c-.137.263-.206.578-.206.945zm7.589 5.479v-9.274h2.8l.103 1.597h.137c.24-.595.613-1.036 1.116-1.322.516-.298 1.088-.447 1.718-.447.458 0 .882.069 1.271.206.401.137.75.361 1.048.67.297.298.526.693.687 1.185.171.481.257 1.065.257 1.752v5.633h-2.902v-4.998c0-.47-.058-.859-.172-1.168-.103-.309-.269-.538-.498-.687-.218-.16-.51-.241-.876-.241-.389 0-.716.092-.979.275a1.78 1.78 0 0 0-.601.704 2.07 2.07 0 0 0-.206.91v5.204h-2.903zm13.876 0c-.687 0-1.219-.097-1.597-.292-.366-.206-.624-.492-.773-.859-.137-.366-.206-.796-.206-1.288v-4.5h-1.597v-2.336h1.597v-2.456l2.903-.258v2.714h1.786v2.336h-1.786v3.967c0 .252.063.424.188.515.126.08.298.12.516.12h1.082v2.336h-2.113zm7.032 0V26.429h9.275v2.628h-6.836l.636-.653v3.624l-.636-.653h5.977v2.456h-5.977l.636-.653v3.796l-.636-.653h6.887v2.628h-9.326zm13.984.172c-.549 0-1.047-.097-1.494-.292a3.31 3.31 0 0 1-1.168-.91c-.32-.401-.567-.899-.738-1.494-.172-.607-.258-1.311-.258-2.113 0-1.076.149-1.969.447-2.679.309-.721.738-1.254 1.288-1.597.549-.355 1.191-.532 1.923-.532.47 0 .888.069 1.254.206.378.137.699.332.962.584.275.252.487.55.635.893h.155v-4.757h2.903l-.018 12.521h-2.782l-.103-1.511h-.155c-.217.504-.572.91-1.064 1.219s-1.088.464-1.787.464zm1.134-2.336c.435 0 .784-.097 1.048-.292.263-.206.458-.464.584-.773a2.51 2.51 0 0 0 .206-.996V33.9c0-.275-.04-.532-.121-.773-.068-.24-.177-.458-.326-.653a1.42 1.42 0 0 0-.567-.464c-.229-.114-.503-.172-.824-.172-.366 0-.687.086-.962.258s-.492.441-.653.807c-.148.355-.223.824-.223 1.408 0 .573.075 1.042.223 1.408.161.366.378.636.653.807s.596.258.962.258zm9.782 2.336c-.721 0-1.328-.137-1.82-.412-.492-.286-.865-.698-1.116-1.237-.241-.55-.361-1.208-.361-1.975v-5.822h2.902v5.032c0 .447.052.824.155 1.133a1.44 1.44 0 0 0 .515.687c.229.16.527.24.893.24.378 0 .699-.092.962-.275s.464-.418.601-.704.206-.595.206-.927v-5.187h2.903v9.274h-2.8l-.103-1.614h-.12c-.229.584-.595 1.03-1.099 1.34-.504.298-1.076.447-1.718.447zm11.558 0c-.71 0-1.352-.114-1.924-.343s-1.065-.555-1.477-.979-.727-.927-.945-1.511c-.217-.595-.326-1.26-.326-1.992 0-.973.195-1.815.584-2.525.389-.721.939-1.277 1.649-1.666.71-.401 1.545-.601 2.507-.601.825 0 1.552.154 2.182.464.641.298 1.145.721 1.511 1.271.378.538.572 1.168.584 1.889h-2.817a1.46 1.46 0 0 0-.292-.704c-.137-.183-.315-.321-.532-.412-.206-.103-.435-.155-.687-.155-.39 0-.716.103-.979.309-.264.195-.458.475-.584.842s-.189.801-.189 1.305c0 .561.074 1.025.223 1.391.149.355.349.624.601.807.264.172.567.258.911.258.309 0 .572-.057.79-.172a1.32 1.32 0 0 0 .532-.464c.126-.195.206-.418.241-.67h2.816c-.034.733-.246 1.374-.635 1.924-.378.55-.888.979-1.529 1.288-.641.298-1.38.447-2.215.447zm8.743 0c-.549 0-1.047-.097-1.494-.292a3.31 3.31 0 0 1-1.168-.91c-.32-.401-.566-.899-.738-1.494-.172-.607-.258-1.311-.258-2.113 0-1.076.149-1.969.447-2.679.309-.721.738-1.254 1.288-1.597.549-.355 1.191-.532 1.923-.532.47 0 .888.069 1.254.206.378.137.699.332.962.584.275.252.487.55.635.893h.155l.103-1.511h2.8v9.274h-2.903v-1.511h-.155c-.217.504-.572.91-1.064 1.219s-1.088.464-1.787.464zm1.134-2.336c.435 0 .784-.097 1.048-.292.263-.206.458-.464.584-.773a2.51 2.51 0 0 0 .206-.996V33.9a2.43 2.43 0 0 0-.206-.996c-.126-.321-.321-.578-.584-.773s-.613-.292-1.048-.292c-.366 0-.687.086-.962.258s-.492.441-.652.807c-.149.355-.224.824-.224 1.408 0 .573.075 1.042.224 1.408.16.366.377.636.652.807s.596.258.962.258zm9.851 2.164c-.687 0-1.219-.097-1.597-.292-.367-.206-.624-.492-.773-.859-.137-.366-.206-.796-.206-1.288v-4.5h-1.597v-2.336h1.597v-2.456l2.902-.258v2.714h1.787v2.336h-1.787v3.967c0 .252.063.424.189.515.126.08.298.12.516.12h1.082v2.336h-2.113zm3.374 0v-9.274h2.903v9.274h-2.903zm0-10.356v-2.164h2.903v2.164h-2.903zm8.916 10.528c-.71 0-1.351-.103-1.923-.309-.573-.218-1.071-.532-1.495-.945-.412-.424-.733-.933-.962-1.529-.217-.595-.326-1.271-.326-2.027 0-.962.183-1.798.55-2.508.366-.721.899-1.282 1.597-1.683.71-.412 1.563-.618 2.559-.618.71 0 1.351.109 1.924.326.572.206 1.065.521 1.477.945a4.08 4.08 0 0 1 .944 1.511c.229.584.344 1.26.344 2.027 0 .95-.183 1.786-.55 2.508s-.899 1.288-1.597 1.7c-.698.401-1.546.601-2.542.601zm0-2.353c.355 0 .664-.086.928-.258s.469-.441.618-.807.223-.83.223-1.391c0-.424-.046-.79-.137-1.099-.08-.321-.201-.578-.361-.773-.149-.206-.332-.355-.55-.447-.206-.103-.446-.155-.721-.155-.355 0-.67.092-.945.275-.263.172-.469.441-.618.807-.137.355-.206.819-.206 1.391 0 .424.04.796.12 1.116.08.309.195.567.344.773a1.46 1.46 0 0 0 .567.429 1.97 1.97 0 0 0 .738.137zm5.969 2.181v-9.274h2.8l.103 1.597h.137c.24-.595.613-1.036 1.116-1.322.516-.298 1.088-.447 1.718-.447.458 0 .882.069 1.271.206.401.137.75.361 1.048.67.297.298.526.693.687 1.185.171.481.257 1.065.257 1.752v5.633h-2.902v-4.998c0-.47-.058-.859-.172-1.168-.103-.309-.269-.538-.498-.687-.218-.16-.51-.241-.876-.241-.389 0-.716.092-.979.275s-.464.418-.601.704a2.07 2.07 0 0 0-.206.91v5.204h-2.903z" fill="#121212"/><g filter="url(#B)"><path transform="translate(55.221 71.566)" fill="#ffd966" d="M0 0h157.438v157.438H0z"/><path d="M100.971 133.76v11.103h-2.347V133.76h2.347zm3.892 6.289v4.814h-2.309v-8.327h2.201v1.469h.097a2.33 2.33 0 0 1 .927-1.149c.434-.286.96-.428 1.578-.428.578 0 1.082.126 1.513.379s.764.615 1.003 1.084.357 1.023.357 1.67v5.302h-2.309v-4.89c.003-.509-.127-.907-.391-1.193s-.627-.433-1.089-.433c-.311 0-.586.067-.824.2s-.42.329-.553.586-.197.558-.201.916zm10.634 8.11c-.748 0-1.39-.103-1.925-.309s-.954-.478-1.268-.829a2.55 2.55 0 0 1-.613-1.182l2.136-.287c.065.166.168.321.309.466s.327.26.558.347.521.136.857.136c.502 0 .916-.123 1.242-.369s.493-.649.493-1.22v-1.523h-.098a2.2 2.2 0 0 1-.455.656c-.202.206-.463.374-.781.504s-.697.195-1.138.195c-.626 0-1.195-.145-1.708-.434s-.916-.739-1.22-1.339-.45-1.366-.45-2.288c0-.943.154-1.731.461-2.363s.716-1.106 1.225-1.421a3.17 3.17 0 0 1 1.686-.471c.467 0 .857.079 1.171.238s.568.351.759.586a3.06 3.06 0 0 1 .45.683h.087v-1.399h2.293v8.409c0 .708-.173 1.301-.52 1.778s-.828.835-1.442 1.073-1.314.363-2.109.363zm.049-5.15c.372 0 .686-.092.943-.276s.459-.456.596-.803.212-.77.212-1.257-.069-.911-.206-1.269-.336-.642-.597-.84-.576-.299-.948-.299c-.38 0-.7.103-.96.309s-.457.485-.591.846-.2.779-.2 1.253c0 .48.066.896.2 1.246a1.8 1.8 0 0 0 .591.808c.26.188.58.282.96.282zm5.555 1.854v-8.327h2.239v1.453h.087c.151-.517.406-.907.764-1.171s.77-.401 1.236-.401c.116 0 .24.007.374.021a2.8 2.8 0 0 1 .353.06v2.049c-.109-.032-.259-.061-.45-.086a3.93 3.93 0 0 0-.526-.038c-.34 0-.644.074-.911.222s-.474.347-.629.607a1.75 1.75 0 0 0-.228.9v4.711h-2.309zm9.349.163c-.857 0-1.594-.174-2.212-.521a3.56 3.56 0 0 1-1.421-1.485c-.332-.643-.498-1.404-.498-2.282 0-.857.166-1.609.498-2.256a3.69 3.69 0 0 1 1.404-1.512c.608-.362 1.32-.542 2.136-.542a4.35 4.35 0 0 1 1.535.265c.477.174.892.436 1.247.786s.636.792.835 1.323.298 1.146.298 1.854v.635h-7.032v-1.432h4.858c0-.332-.073-.627-.217-.883a1.55 1.55 0 0 0-.602-.602c-.253-.148-.547-.222-.884-.222-.35 0-.661.081-.932.244s-.477.374-.629.645a1.82 1.82 0 0 0-.233.894v1.361c0 .412.076.768.228 1.068s.374.531.656.694.616.244 1.003.244a2.16 2.16 0 0 0 .704-.109 1.45 1.45 0 0 0 .548-.325 1.41 1.41 0 0 0 .347-.531l2.136.141c-.108.513-.331.961-.667 1.344s-.762.676-1.29.889-1.13.315-1.816.315zm8.092-.027a3.15 3.15 0 0 1-1.719-.488c-.509-.329-.914-.812-1.214-1.448s-.444-1.424-.444-2.353c0-.954.153-1.747.46-2.38s.716-1.111 1.226-1.425a3.14 3.14 0 0 1 1.686-.477c.466 0 .854.079 1.165.238s.568.351.759.586.344.459.445.683h.07v-4.175h2.304v11.103h-2.277v-1.333h-.097a3 3 0 0 1-.461.688c-.195.224-.45.41-.764.559s-.691.222-1.139.222zm.732-1.838c.372 0 .687-.101.943-.304s.459-.493.597-.862.211-.8.211-1.295-.069-.926-.206-1.291-.336-.647-.596-.845-.577-.299-.949-.299c-.38 0-.699.103-.96.309s-.457.492-.591.857-.2.788-.2 1.269.067.912.2 1.285c.138.368.335.657.591.867s.58.309.96.309zm5.6 1.702v-8.327h2.309v8.327h-2.309zm1.16-9.4c-.343 0-.638-.114-.884-.342s-.363-.508-.363-.829.121-.591.363-.819.541-.347.884-.347.636.116.878.347.369.5.369.819-.123.598-.369.829-.535.342-.878.342zm6.489 9.563c-.856 0-1.594-.174-2.212-.521s-1.088-.845-1.42-1.485-.499-1.404-.499-2.282c0-.857.166-1.609.499-2.256s.8-1.151 1.404-1.512 1.319-.542 2.136-.542c.549 0 1.061.088 1.534.265s.893.436 1.247.786.636.792.835 1.323.298 1.146.298 1.854v.635h-7.031v-1.432h4.857c0-.332-.072-.627-.217-.883s-.345-.458-.601-.602a1.72 1.72 0 0 0-.884-.222c-.351 0-.662.081-.933.244s-.477.374-.628.645a1.82 1.82 0 0 0-.234.894v1.361c0 .412.076.768.228 1.068a1.67 1.67 0 0 0 .656.694c.282.163.616.244 1.003.244.257 0 .492-.036.705-.109s.396-.18.547-.325.268-.321.347-.531l2.136.141a2.91 2.91 0 0 1-.666 1.344c-.333.38-.763.676-1.291.889s-1.129.315-1.816.315zm7.334-4.977v4.814h-2.31v-8.327h2.201v1.469h.098a2.32 2.32 0 0 1 .927-1.149c.433-.286.959-.428 1.577-.428.579 0 1.083.126 1.513.379s.764.615 1.003 1.084.358 1.023.358 1.67v5.302h-2.31v-4.89c.004-.509-.126-.907-.39-1.193s-.627-.433-1.09-.433c-.311 0-.585.067-.824.2a1.4 1.4 0 0 0-.553.586c-.13.253-.197.558-.2.916zm11.311-3.513v1.735h-5.015v-1.735h5.015zm-3.876-1.995h2.309v7.763c0 .214.033.38.098.499s.155.197.271.244.256.071.412.071c.108 0 .217-.009.325-.028l.249-.048.364 1.718-.488.125c-.21.051-.465.081-.765.092-.556.022-1.044-.052-1.463-.222a2.04 2.04 0 0 1-.971-.792c-.231-.357-.345-.809-.341-1.355v-8.067zm-64.49 33.322V156.76h2.347v4.581h4.766v-4.581h2.342v11.103h-2.342v-4.586h-4.766v4.586h-2.347zm11.041 0v-8.327h2.31v8.327h-2.31zm1.161-9.4c-.344 0-.638-.114-.884-.342s-.363-.508-.363-.829.121-.591.363-.819.54-.347.884-.347.636.116.878.347.369.5.369.819-.123.598-.369.829-.535.342-.878.342zm6.445 12.696c-.748 0-1.389-.103-1.924-.309s-.954-.478-1.269-.829-.519-.745-.612-1.182l2.136-.287c.065.166.168.321.309.466s.327.26.558.347.52.136.857.136c.502 0 .916-.123 1.241-.369s.493-.649.493-1.22v-1.523h-.097c-.101.231-.253.45-.456.656s-.462.374-.78.504-.698.195-1.139.195c-.625 0-1.194-.145-1.707-.434s-.917-.739-1.22-1.339-.45-1.366-.45-2.288c0-.943.153-1.731.461-2.363s.715-1.106 1.225-1.421a3.17 3.17 0 0 1 1.686-.471c.466 0 .856.079 1.171.238s.567.351.759.586.345.459.45.683h.087v-1.399h2.293v8.409c0 .708-.174 1.301-.521 1.778s-.827.835-1.442 1.073-1.314.363-2.109.363zm.049-5.15c.372 0 .687-.092.943-.276s.459-.456.597-.803.211-.77.211-1.257-.068-.911-.206-1.269-.336-.642-.596-.84-.577-.299-.949-.299c-.379 0-.699.103-.959.309a1.85 1.85 0 0 0-.591.846c-.134.362-.201.779-.201 1.253 0 .48.067.896.201 1.246a1.8 1.8 0 0 0 .591.808c.26.188.58.282.959.282zm7.865-2.96v4.814h-2.31V156.76h2.245v4.245h.097c.188-.491.492-.876.911-1.155s.945-.422 1.578-.422c.578 0 1.082.126 1.512.379s.77.609 1.009 1.079.361 1.025.358 1.675v5.302h-2.31v-4.89c.004-.513-.126-.912-.39-1.198s-.626-.428-1.095-.428c-.315 0-.593.067-.835.2s-.427.329-.564.586-.203.558-.206.916zm9.221-6.289v11.103h-2.309V156.76h2.309zm1.545 11.103v-8.327h2.31v8.327h-2.31zm1.16-9.4c-.343 0-.638-.114-.884-.342s-.363-.508-.363-.829.121-.591.363-.819.541-.347.884-.347.636.116.878.347.369.5.369.819-.123.598-.369.829-.534.342-.878.342zm6.446 12.696c-.748 0-1.39-.103-1.925-.309s-.954-.478-1.268-.829a2.55 2.55 0 0 1-.613-1.182l2.136-.287c.065.166.168.321.309.466s.327.26.558.347.521.136.857.136c.502 0 .916-.123 1.242-.369s.493-.649.493-1.22v-1.523h-.098a2.2 2.2 0 0 1-.455.656c-.202.206-.463.374-.781.504s-.697.195-1.138.195c-.626 0-1.195-.145-1.708-.434s-.916-.739-1.22-1.339-.45-1.366-.45-2.288c0-.943.154-1.731.461-2.363s.716-1.106 1.225-1.421 1.076-.471 1.686-.471c.467 0 .857.079 1.171.238s.568.351.759.586a3.06 3.06 0 0 1 .45.683h.087v-1.399h2.293v8.409c0 .708-.173 1.301-.52 1.778s-.828.835-1.442 1.073-1.314.363-2.109.363zm.049-5.15c.372 0 .686-.092.943-.276s.459-.456.596-.803.212-.77.212-1.257-.069-.911-.206-1.269-.336-.642-.597-.84-.576-.299-.948-.299c-.38 0-.7.103-.96.309s-.457.485-.591.846-.2.779-.2 1.253c0 .48.066.896.2 1.246a1.8 1.8 0 0 0 .591.808c.26.188.58.282.96.282zm7.864-2.96v4.814h-2.309V156.76h2.244v4.245h.098a2.36 2.36 0 0 1 .911-1.155c.419-.281.945-.422 1.577-.422.579 0 1.083.126 1.513.379s.77.609 1.008 1.079.362 1.025.358 1.675v5.302h-2.309v-4.89c.003-.513-.127-.912-.391-1.198s-.625-.428-1.095-.428c-.314 0-.593.067-.835.2a1.43 1.43 0 0 0-.564.586c-.133.253-.202.558-.206.916zm11.342-3.513v1.735h-5.015v-1.735h5.015zm-3.877-1.995h2.31v7.763c0 .214.032.38.097.499a.54.54 0 0 0 .271.244c.12.047.257.071.412.071a1.89 1.89 0 0 0 .326-.028l.249-.048.363 1.718a6.42 6.42 0 0 1-.488.125c-.209.051-.464.081-.764.092-.557.022-1.045-.052-1.464-.222s-.739-.434-.97-.792-.345-.809-.342-1.355v-8.067z" fill="#262a36"/></g><g filter="url(#C)"><path transform="translate(55.221 251.902)" fill="#ffd966" d="M0 0h157.438v157.438H0z"/><path d="M80.487 325.199v-11.103h4.381c.842 0 1.56.161 2.152.483s1.044.76 1.355 1.328.472 1.214.472 1.952-.159 1.388-.477 1.951-.779 1.003-1.382 1.318-1.326.471-2.179.471h-2.792v-1.881h2.412c.452 0 .824-.078 1.117-.233s.517-.378.661-.656.222-.605.222-.97a2 2 0 0 0-.222-.965c-.145-.279-.365-.494-.661-.646s-.672-.233-1.128-.233h-1.583v9.184h-2.348zm9.536 0v-8.327h2.239v1.453h.087c.152-.517.407-.907.764-1.171s.77-.401 1.236-.401c.116 0 .24.007.374.021s.251.035.352.06v2.049a3.06 3.06 0 0 0-.45-.086c-.192-.026-.367-.038-.526-.038-.34 0-.643.074-.911.222s-.473.347-.629.607-.228.56-.228.9v4.711h-2.309zm9.316.163c-.842 0-1.57-.179-2.185-.537s-1.082-.864-1.415-1.507-.499-1.397-.499-2.25c0-.86.166-1.612.499-2.255s.804-1.15 1.415-1.507 1.343-.542 2.185-.542 1.569.18 2.18.542 1.087.86 1.42 1.507.499 1.395.499 2.255c0 .853-.167 1.603-.499 2.25s-.806 1.146-1.42 1.507-1.338.537-2.18.537zm.011-1.789c.383 0 .703-.109.96-.325s.45-.521.58-.9a3.91 3.91 0 0 0 .2-1.296 3.91 3.91 0 0 0-.2-1.296c-.13-.379-.324-.679-.58-.9s-.577-.331-.96-.331-.712.111-.976.331-.457.521-.591.9a3.99 3.99 0 0 0-.195 1.296 3.99 3.99 0 0 0 .195 1.296c.134.379.331.679.591.9s.589.325.976.325zm8.353 1.762c-.633 0-1.206-.163-1.719-.488s-.914-.812-1.214-1.448-.445-1.424-.445-2.353c0-.954.154-1.747.461-2.38s.716-1.111 1.225-1.425a3.14 3.14 0 0 1 1.686-.477c.466 0 .855.079 1.166.238s.567.351.759.586.343.459.444.683h.071v-4.175h2.304v11.103h-2.277v-1.333h-.098c-.108.231-.262.46-.46.688s-.45.41-.765.558-.69.223-1.138.223zm.732-1.838c.372 0 .686-.101.943-.304s.459-.493.596-.862.212-.8.212-1.295-.069-.926-.206-1.291-.337-.647-.597-.845-.576-.299-.948-.299c-.38 0-.7.103-.96.309s-.457.492-.591.857-.201.788-.201 1.269.067.912.201 1.284.334.658.591.868.58.309.96.309zm10.94-1.843v-4.782h2.309v8.327h-2.217v-1.512h-.087c-.188.488-.501.88-.938 1.176s-.963.445-1.588.445c-.557 0-1.047-.127-1.47-.38s-.753-.612-.992-1.079-.354-1.024-.358-1.675v-5.302h2.31v4.89c.004.492.136.88.396 1.166s.609.428 1.046.428c.278 0 .539-.063.781-.19s.437-.321.585-.574.226-.566.223-.938zm7.614 3.708c-.853 0-1.587-.181-2.202-.542a3.67 3.67 0 0 1-1.409-1.518c-.325-.647-.488-1.392-.488-2.234 0-.853.164-1.601.493-2.244a3.67 3.67 0 0 1 1.415-1.513c.611-.365 1.338-.547 2.18-.547.726 0 1.362.131 1.908.395s.978.635 1.296 1.112.493 1.037.526 1.68h-2.18c-.061-.415-.224-.75-.488-1.003s-.602-.385-1.024-.385c-.358 0-.671.098-.938.293s-.47.472-.618.84-.223.816-.223 1.34c0 .531.073.983.217 1.355s.356.656.624.851.58.293.938.293a1.52 1.52 0 0 0 .71-.163c.213-.108.388-.265.526-.471s.233-.461.276-.754h2.18c-.037.636-.21 1.196-.521 1.681s-.732.856-1.274 1.127-1.184.407-1.924.407zm9.321-8.49v1.735h-5.015v-1.735h5.015zm-3.876-1.995h2.309v7.763c0 .214.033.38.098.499s.155.197.271.244a1.12 1.12 0 0 0 .412.071 1.97 1.97 0 0 0 .325-.028l.25-.048.363 1.718-.488.125c-.21.051-.464.081-.764.092-.557.022-1.045-.052-1.464-.222s-.739-.434-.971-.792-.345-.809-.341-1.355v-8.067zm8.347 10.322v-11.103h2.347v9.168h4.76v1.935h-7.107zm8.313 0v-8.327h2.31v8.327h-2.31zm1.16-9.4a1.25 1.25 0 0 1-.883-.342c-.243-.231-.364-.508-.364-.83a1.08 1.08 0 0 1 .364-.818c.245-.231.54-.347.883-.347a1.23 1.23 0 0 1 .879.347c.245.228.368.5.368.818a1.1 1.1 0 0 1-.368.83c-.243.228-.535.342-.879.342zm9.623 3.448l-2.114.13a1.09 1.09 0 0 0-.234-.488 1.24 1.24 0 0 0-.471-.353 1.61 1.61 0 0 0-.689-.135c-.358 0-.659.076-.905.227s-.369.347-.369.597a.64.64 0 0 0 .239.504c.159.137.432.248.818.331l1.508.303c.809.167 1.413.434 1.81.803s.597.853.597 1.453c0 .545-.161 1.024-.483 1.436s-.755.734-1.312.965-1.191.342-1.914.342c-1.102 0-1.98-.23-2.634-.689s-1.032-1.091-1.144-1.886l2.271-.12c.069.337.235.593.499.77s.602.26 1.014.26c.405 0 .73-.077.976-.233s.376-.363.379-.612c-.003-.21-.092-.382-.265-.515s-.441-.242-.803-.315l-1.442-.287c-.813-.163-1.419-.445-1.816-.846s-.591-.912-.591-1.534c0-.535.145-.996.434-1.383s.703-.684 1.23-.894 1.153-.314 1.865-.314c1.052 0 1.88.222 2.483.666.608.445.962 1.05 1.063 1.817zm5.768-2.375v1.735h-5.015v-1.735h5.015zm-3.876-1.995h2.309v7.763c0 .214.033.38.098.499s.155.197.271.244.256.071.412.071a1.98 1.98 0 0 0 .325-.028l.249-.048.364 1.718-.488.125c-.21.051-.465.081-.765.092-.556.022-1.044-.052-1.463-.222a2.04 2.04 0 0 1-.971-.792c-.231-.358-.345-.809-.341-1.355v-8.067zm5.075 10.322v-8.327h2.31v8.327h-2.31zm1.16-9.4c-.343 0-.638-.114-.884-.342s-.363-.508-.363-.83.121-.59.363-.818.541-.347.884-.347.636.116.878.347.369.5.369.818a1.1 1.1 0 0 1-.369.83c-.242.228-.534.342-.878.342zm5.004 4.586v4.814h-2.31v-8.327h2.201v1.469h.098a2.32 2.32 0 0 1 .927-1.149c.434-.286.96-.428 1.578-.428.578 0 1.082.126 1.512.379s.765.614 1.003 1.084.358 1.023.358 1.67v5.302h-2.31v-4.89c.004-.509-.126-.907-.39-1.193s-.627-.433-1.09-.433c-.31 0-.585.067-.824.2a1.4 1.4 0 0 0-.553.586c-.13.253-.197.558-.2.916zm10.633 8.11c-.748 0-1.389-.103-1.924-.309s-.954-.478-1.269-.829-.518-.745-.612-1.182l2.136-.287c.065.166.168.321.309.466s.327.26.558.347.521.135.857.135c.502 0 .916-.122 1.241-.368s.494-.649.494-1.22v-1.523h-.098a2.2 2.2 0 0 1-.455.656 2.3 2.3 0 0 1-.781.504c-.318.13-.698.195-1.139.195-.625 0-1.194-.145-1.707-.434s-.917-.739-1.22-1.339-.45-1.366-.45-2.288c0-.943.153-1.731.461-2.363s.715-1.106 1.225-1.421a3.17 3.17 0 0 1 1.686-.471c.466 0 .857.079 1.171.238s.567.351.759.586.345.459.45.683h.087v-1.399h2.293v8.409c0 .708-.174 1.301-.521 1.778s-.827.835-1.442 1.073-1.313.363-2.109.363zm.049-5.15c.373 0 .687-.092.944-.276s.459-.456.596-.803.211-.77.211-1.258-.068-.91-.206-1.268-.336-.642-.596-.84-.576-.299-.949-.299c-.379 0-.699.103-.959.309a1.85 1.85 0 0 0-.591.846c-.134.362-.201.779-.201 1.252 0 .481.067.897.201 1.247a1.8 1.8 0 0 0 .591.808c.26.188.58.282.959.282zm-98.912 19.303c0-1.345.179-2.583.537-3.714s.913-2.179 1.653-3.144h2.207c-.282.357-.544.795-.786 1.312a11.69 11.69 0 0 0-.634 1.691 14.7 14.7 0 0 0-.423 1.908c-.101.655-.152 1.303-.152 1.947a13.33 13.33 0 0 0 .26 2.597 14.01 14.01 0 0 0 .716 2.428c.304.748.643 1.361 1.019 1.838h-2.207c-.741-.965-1.292-2.013-1.653-3.144s-.537-2.371-.537-3.719zm14.762-5.552v11.103h-2.028l-4.83-6.988H92.6v6.988h-2.347v-11.103h2.06l4.793 6.983h.098v-6.983h2.337zm1.591 11.103v-8.327h2.309v8.327h-2.309zm1.16-9.4c-.344 0-.638-.114-.884-.342s-.363-.508-.363-.83.121-.59.363-.818.54-.347.884-.347.636.116.878.347.369.5.369.818a1.1 1.1 0 0 1-.369.83c-.242.228-.535.342-.878.342zm5.068 9.557c-.531 0-1.004-.092-1.42-.276a2.28 2.28 0 0 1-.987-.83c-.238-.368-.358-.827-.358-1.377 0-.462.085-.851.255-1.165s.401-.568.694-.759.625-.336.998-.434a7.71 7.71 0 0 1 1.182-.206l1.171-.141c.296-.047.511-.115.645-.206s.2-.224.2-.401v-.033c0-.343-.108-.609-.325-.797s-.517-.281-.911-.281c-.415 0-.746.092-.992.276s-.408.408-.488.683l-2.136-.173c.109-.506.322-.944.64-1.312s.728-.658 1.231-.857 1.091-.303 1.756-.303c.463 0 .905.054 1.328.162s.805.277 1.133.504c.333.228.595.521.787.879s.287.778.287 1.274v5.616h-2.19v-1.155h-.065a2.35 2.35 0 0 1-.537.689c-.224.195-.494.349-.808.461s-.678.162-1.09.162zm.662-1.593a1.94 1.94 0 0 0 .9-.201c.26-.137.464-.322.612-.553s.223-.493.223-.786v-.884a1.22 1.22 0 0 1-.299.13l-.417.103-.466.082-.423.059a2.85 2.85 0 0 0-.71.19c-.203.087-.36.204-.472.352s-.168.326-.168.543c0 .314.114.554.342.721.231.162.524.244.878.244zm9.277 1.599c-.853 0-1.587-.181-2.201-.542s-1.081-.871-1.41-1.518-.488-1.392-.488-2.234c0-.853.165-1.601.494-2.244s.804-1.151 1.415-1.513 1.337-.547 2.179-.547c.726 0 1.362.131 1.908.395s.978.635 1.296 1.112.493 1.037.526 1.68h-2.18c-.061-.415-.224-.75-.487-1.003s-.602-.385-1.025-.385c-.358 0-.671.098-.938.293s-.47.472-.618.84-.222.816-.222 1.34c0 .531.072.983.217 1.355s.356.656.623.851.58.293.938.293c.264 0 .5-.054.71-.163s.389-.265.526-.471.233-.461.276-.754h2.18c-.036.636-.21 1.196-.521 1.681s-.732.856-1.274 1.127-1.183.407-1.924.407zm4.892-.163v-8.327h2.31v8.327h-2.31zm1.16-9.4a1.25 1.25 0 0 1-.883-.342c-.242-.231-.364-.508-.364-.83s.122-.59.364-.818.54-.347.883-.347a1.23 1.23 0 0 1 .879.347c.245.228.368.5.368.818a1.1 1.1 0 0 1-.368.83c-.243.228-.535.342-.879.342zm5.004 4.586v4.814h-2.31v-8.327h2.202v1.469h.097a2.32 2.32 0 0 1 .927-1.149c.434-.286.96-.428 1.578-.428.578 0 1.082.126 1.512.379s.765.614 1.003 1.084.358 1.023.358 1.67v5.302h-2.309v-4.89c.003-.509-.127-.907-.391-1.193s-.627-.433-1.089-.433c-.311 0-.586.067-.824.2s-.42.329-.553.586-.197.558-.201.916zm9.257 4.971c-.532 0-1.005-.092-1.421-.276s-.744-.464-.986-.83-.358-.827-.358-1.377c0-.462.085-.851.255-1.165a2.05 2.05 0 0 1 .693-.759c.293-.192.626-.336.998-.434a7.71 7.71 0 0 1 1.182-.206l1.171-.141c.296-.047.511-.115.645-.206s.201-.224.201-.401v-.033c0-.343-.109-.609-.326-.797s-.517-.281-.91-.281c-.416 0-.747.092-.993.276s-.408.408-.488.683l-2.136-.173c.109-.506.322-.944.64-1.312s.728-.658 1.231-.857 1.091-.303 1.756-.303c.463 0 .906.054 1.329.162s.804.277 1.133.504a2.46 2.46 0 0 1 .786.879c.191.354.287.778.287 1.274v5.616h-2.19v-1.155h-.065a2.35 2.35 0 0 1-.537.689 2.48 2.48 0 0 1-.808.461c-.314.108-.677.162-1.089.162zm.661-1.593c.34 0 .64-.067.9-.201s.464-.322.613-.553.222-.493.222-.786v-.884a1.21 1.21 0 0 1-.298.13l-.418.103-.466.082-.423.059a2.85 2.85 0 0 0-.71.19c-.202.087-.36.204-.472.352s-.168.326-.168.543c0 .314.114.554.342.721.231.162.524.244.878.244zm5.515 1.436v-8.327h2.201v1.469h.097c.174-.488.463-.873.868-1.155s.889-.422 1.453-.422c.571 0 1.057.142 1.458.428s.669.665.802 1.149h.087c.17-.477.477-.858.922-1.144s.977-.433 1.588-.433c.777 0 1.408.247 1.892.742s.732 1.189.732 2.093v5.6h-2.304v-5.145c0-.462-.123-.809-.369-1.041s-.553-.347-.921-.347c-.42 0-.747.134-.982.402s-.352.612-.352 1.046v5.085h-2.239v-5.193c0-.409-.117-.734-.352-.976s-.537-.364-.917-.364a1.27 1.27 0 0 0-.694.196c-.202.126-.363.305-.482.536a1.71 1.71 0 0 0-.179.803v4.998h-2.309zm13.619 0v-8.327h2.31v8.327h-2.31zm1.16-9.4a1.25 1.25 0 0 1-.883-.342c-.243-.231-.364-.508-.364-.83a1.08 1.08 0 0 1 .364-.818c.245-.231.54-.347.883-.347a1.23 1.23 0 0 1 .879.347c.245.228.368.5.368.818a1.1 1.1 0 0 1-.368.83c-.243.228-.535.342-.879.342zm5.763 9.536c-.633 0-1.206-.163-1.719-.488s-.914-.812-1.214-1.448-.445-1.424-.445-2.353c0-.954.154-1.747.461-2.38s.716-1.111 1.225-1.425 1.076-.477 1.686-.477c.467 0 .855.079 1.166.238s.567.351.759.586.343.459.445.683h.07v-4.175h2.304v11.103h-2.277v-1.333h-.097a3 3 0 0 1-.461.688c-.195.224-.45.41-.765.558s-.69.223-1.138.223zm.732-1.838c.372 0 .686-.101.943-.304s.459-.493.596-.862.212-.8.212-1.295-.069-.926-.206-1.291-.336-.647-.597-.845-.576-.299-.948-.299c-.38 0-.7.103-.96.309s-.457.492-.591.857-.2.788-.2 1.269.066.912.2 1.284.335.658.591.868.58.309.96.309zm9.395 1.865c-.857 0-1.594-.174-2.212-.521a3.56 3.56 0 0 1-1.421-1.485c-.332-.643-.498-1.404-.498-2.282 0-.857.166-1.609.498-2.256a3.69 3.69 0 0 1 1.404-1.512c.608-.362 1.32-.542 2.136-.542a4.35 4.35 0 0 1 1.535.265c.477.174.892.436 1.247.786s.636.792.835 1.323.298 1.146.298 1.854v.635h-7.032v-1.432h4.858c0-.332-.073-.627-.217-.883a1.55 1.55 0 0 0-.602-.602c-.253-.148-.547-.222-.884-.222-.35 0-.661.081-.932.243a1.72 1.72 0 0 0-.629.646 1.82 1.82 0 0 0-.233.894v1.361c0 .412.076.768.228 1.068s.374.531.656.694.616.244 1.003.244a2.16 2.16 0 0 0 .704-.109 1.45 1.45 0 0 0 .548-.325c.152-.144.267-.322.347-.531l2.136.141c-.108.513-.331.961-.667 1.344s-.762.676-1.29.889-1.13.315-1.816.315zm8.916-4.614c0 1.348-.181 2.588-.542 3.719a10.16 10.16 0 0 1-1.648 3.145h-2.207a6.72 6.72 0 0 0 .786-1.312c.243-.517.454-1.081.635-1.692s.321-1.25.423-1.908.151-1.308.151-1.952c0-.856-.088-1.72-.265-2.591a13.26 13.26 0 0 0-.716-2.429c-.3-.748-.638-1.361-1.014-1.838h2.207a10.16 10.16 0 0 1 1.648 3.145c.361 1.131.542 2.369.542 3.713z" fill="#262a36"/></g></g></g><defs><filter id="A" x=".265" y=".867" width="267.35" height="433.375" filterUnits="userSpaceOnUse" class="B"><feFlood result="A" class="C"/><feColorMatrix in="SourceAlpha" values="0 0 0 0 0 0 0 0 0 0 0 0 0 0 0 0 0 0 127 0" result="B"/><feOffset/><feGaussianBlur stdDeviation="1"/><feComposite in2="B" operator="out"/><feColorMatrix values="0 0 0 0 0 0 0 0 0 0 0 0 0 0 0 0 0 0 0.25 0"/><feBlend in2="A"/><feBlend in="SourceGraphic"/></filter><filter id="B" x="51.405" y="71.566" width="165.071" height="165.071" filterUnits="userSpaceOnUse" class="B"><feFlood result="A" class="C"/><feColorMatrix in="SourceAlpha" values="0 0 0 0 0 0 0 0 0 0 0 0 0 0 0 0 0 0 127 0" result="B"/><feOffset dy="3.81667"/><feGaussianBlur stdDeviation="1.908"/><feComposite in2="B" operator="out"/><feColorMatrix values="0 0 0 0 0 0 0 0 0 0 0 0 0 0 0 0 0 0 0.25 0"/><feBlend in2="A"/><feBlend in="SourceGraphic"/></filter><filter id="C" x="51.404" y="251.902" width="165.071" height="165.071" filterUnits="userSpaceOnUse" class="B"><feFlood result="A" class="C"/><feColorMatrix in="SourceAlpha" values="0 0 0 0 0 0 0 0 0 0 0 0 0 0 0 0 0 0 127 0" result="B"/><feOffset dy="3.81667"/><feGaussianBlur stdDeviation="1.908"/><feComposite in2="B" operator="out"/><feColorMatrix values="0 0 0 0 0 0 0 0 0 0 0 0 0 0 0 0 0 0 0.25 0"/><feBlend in2="A"/><feBlend in="SourceGraphic"/></filter><clipPath id="D"><rect x="2.265" y="2.867" width="263.35" height="429.375" rx="10" fill="#fff"/></clipPath></defs></svg>