<svg xmlns="http://www.w3.org/2000/svg" width="268" height="435" fill="none" xmlns:v="https://vecta.io/nano"><style><![CDATA[.B{color-interpolation-filters:sRGB}.C{flood-opacity:0}]]></style><g filter="url(#A)"><g clip-path="url(#D)"><rect x="2.385" y="2.867" width="263.35" height="429.375" rx="10" fill="#fafbfc"/><path opacity=".85" d="M59.178 38.949V26.429h5.53a5.95 5.95 0 0 1 1.855.275 3.74 3.74 0 0 1 1.425.824c.401.355.71.79.927 1.305s.326 1.105.326 1.769c0 .836-.177 1.574-.532 2.216-.355.63-.87 1.122-1.546 1.477s-1.494.532-2.456.532h-2.714v-2.37h2.164c.332 0 .641-.046.927-.137.298-.092.538-.263.721-.515.195-.252.292-.613.292-1.082s-.097-.824-.292-1.065a1.4 1.4 0 0 0-.721-.498c-.286-.092-.595-.137-.927-.137h-2.267l.361-.378v10.305h-3.074zm11.227 0v-9.274h2.628l.12 1.408h.103c.206-.584.527-.985.962-1.202.447-.218.95-.326 1.511-.326h.275.258v2.731h-.258c-.092-.011-.2-.017-.326-.017-.584 0-1.048.086-1.391.258-.344.16-.59.395-.739.704-.149.298-.229.67-.24 1.116v4.603h-2.903zm10.912.172c-.71 0-1.351-.103-1.924-.309a4.31 4.31 0 0 1-1.494-.945c-.412-.424-.733-.933-.962-1.529-.218-.595-.326-1.271-.326-2.027 0-.962.183-1.798.55-2.508.366-.721.899-1.282 1.597-1.683.71-.412 1.563-.618 2.559-.618.71 0 1.351.109 1.924.326a3.85 3.85 0 0 1 1.477.945c.412.412.727.916.945 1.511.229.584.343 1.26.343 2.027 0 .95-.183 1.786-.55 2.508s-.899 1.288-1.597 1.7c-.698.401-1.546.601-2.542.601zm0-2.353a1.66 1.66 0 0 0 .928-.258c.263-.172.469-.441.618-.807s.223-.83.223-1.391c0-.424-.046-.79-.137-1.099-.08-.321-.2-.578-.361-.773a1.29 1.29 0 0 0-.55-.447c-.206-.103-.447-.155-.721-.155-.355 0-.67.092-.945.275-.263.172-.469.441-.618.807-.137.355-.206.819-.206 1.391 0 .424.04.796.12 1.116.08.309.195.567.344.773.16.195.349.338.567.429a1.97 1.97 0 0 0 .739.137zm9.28 2.353c-.55 0-1.048-.097-1.494-.292-.447-.206-.836-.51-1.168-.91-.321-.401-.567-.899-.739-1.494-.172-.607-.258-1.311-.258-2.113 0-1.076.149-1.969.447-2.679.309-.721.739-1.254 1.288-1.597.55-.355 1.191-.532 1.924-.532.469 0 .887.069 1.254.206a2.71 2.71 0 0 1 .962.584 2.6 2.6 0 0 1 .636.893h.155v-4.757h2.903l-.017 12.521h-2.782l-.103-1.511h-.155c-.218.504-.573.91-1.065 1.219s-1.088.464-1.786.464zm1.133-2.336c.435 0 .784-.097 1.048-.292.263-.206.458-.464.584-.773.137-.321.206-.653.206-.996V33.9c0-.275-.04-.532-.12-.773-.069-.24-.178-.458-.326-.653-.137-.195-.326-.349-.567-.464-.229-.114-.504-.172-.824-.172-.366 0-.687.086-.962.258s-.492.441-.653.807c-.149.355-.223.824-.223 1.408 0 .573.074 1.042.223 1.408.16.366.378.636.653.807s.595.258.962.258zm9.782 2.336c-.721 0-1.328-.137-1.82-.412-.492-.286-.865-.698-1.116-1.237-.241-.55-.361-1.208-.361-1.975v-5.822h2.903v5.032c0 .447.052.824.155 1.133a1.44 1.44 0 0 0 .515.687c.229.16.527.24.893.24.378 0 .698-.092.962-.275s.463-.418.601-.704a2.12 2.12 0 0 0 .206-.927v-5.187h2.903v9.274h-2.8l-.103-1.614h-.12c-.229.584-.596 1.03-1.099 1.34-.504.298-1.077.447-1.718.447zm11.557 0c-.71 0-1.351-.114-1.923-.343s-1.065-.555-1.477-.979-.728-.927-.945-1.511c-.218-.595-.326-1.26-.326-1.992 0-.973.194-1.815.584-2.525a4.05 4.05 0 0 1 1.648-1.666c.71-.401 1.546-.601 2.508-.601.824 0 1.551.154 2.181.464.641.298 1.145.721 1.511 1.271.378.538.573 1.168.584 1.889h-2.816a1.46 1.46 0 0 0-.292-.704 1.27 1.27 0 0 0-.533-.412c-.206-.103-.435-.155-.687-.155-.389 0-.715.103-.979.309-.263.195-.458.475-.584.842s-.189.801-.189 1.305c0 .561.075 1.025.224 1.391.149.355.349.624.601.807.263.172.567.258.91.258.309 0 .573-.057.79-.172.229-.115.407-.269.533-.464a1.61 1.61 0 0 0 .24-.67h2.817c-.035.733-.246 1.374-.636 1.924-.378.55-.887.979-1.528 1.288-.641.298-1.38.447-2.216.447zm8.881-.172c-.687 0-1.219-.097-1.597-.292-.366-.206-.624-.492-.773-.859-.137-.366-.206-.796-.206-1.288v-4.5h-1.597v-2.336h1.597v-2.456l2.903-.258v2.714h1.786v2.336h-1.786v3.967c0 .252.063.424.189.515.126.08.297.12.515.12h1.082v2.336h-2.113zm7.033 0V26.429h5.478c1.26 0 2.319.263 3.178.79.87.527 1.528 1.26 1.975 2.198s.67 2.032.67 3.28c0 .928-.126 1.775-.378 2.542s-.63 1.431-1.134 1.992c-.492.55-1.099.973-1.82 1.271s-1.552.447-2.491.447h-5.478zm3.074-2.611h1.889c.447 0 .859-.051 1.237-.155a2.43 2.43 0 0 0 1.013-.584c.298-.275.527-.653.687-1.134.172-.481.258-1.093.258-1.838 0-.939-.143-1.666-.43-2.181-.274-.527-.652-.893-1.133-1.099-.47-.206-1.014-.309-1.632-.309h-1.889v7.299zm9.595 2.611v-9.274h2.902v9.274h-2.902zm0-10.356v-2.164h2.902v2.164h-2.902zm8.505 10.528c-1.385 0-2.456-.286-3.211-.859s-1.128-1.322-1.117-2.25h2.868c.012.424.161.727.447.91.298.172.658.258 1.082.258.458 0 .796-.074 1.013-.223.229-.149.344-.343.344-.584 0-.252-.063-.435-.189-.55-.126-.126-.321-.218-.584-.275-.252-.057-.578-.109-.979-.155l-1.443-.275c-.446-.114-.841-.275-1.185-.481a2.37 2.37 0 0 1-.824-.824c-.206-.343-.309-.779-.309-1.305 0-.676.177-1.237.532-1.683s.842-.779 1.46-.996c.63-.218 1.362-.326 2.198-.326.813 0 1.517.12 2.113.361.607.229 1.076.561 1.408.996s.51.962.533 1.58h-2.834c-.012-.218-.069-.395-.172-.532-.103-.149-.252-.263-.447-.343-.183-.08-.412-.12-.687-.12-.4 0-.704.075-.91.223a.64.64 0 0 0-.292.55.65.65 0 0 0 .189.481c.126.114.321.206.584.275l1.013.172a13.07 13.07 0 0 1 1.392.24 4.68 4.68 0 0 1 1.202.447c.355.195.635.475.841.842.218.366.327.842.327 1.426 0 1.053-.39 1.821-1.168 2.301-.767.481-1.832.721-3.195.721zm9.899 0c-.71 0-1.351-.114-1.924-.343s-1.065-.555-1.477-.979-.727-.927-.944-1.511c-.218-.595-.327-1.26-.327-1.992 0-.973.195-1.815.584-2.525.389-.721.939-1.277 1.649-1.666.71-.401 1.546-.601 2.508-.601.824 0 1.551.154 2.181.464.641.298 1.145.721 1.511 1.271.378.538.573 1.168.584 1.889h-2.817a1.45 1.45 0 0 0-.292-.704 1.26 1.26 0 0 0-.532-.412c-.206-.103-.435-.155-.687-.155-.389 0-.716.103-.979.309-.263.195-.458.475-.584.842s-.189.801-.189 1.305c0 .561.075 1.025.223 1.391.149.355.35.624.602.807.263.172.566.258.91.258.309 0 .572-.057.79-.172a1.32 1.32 0 0 0 .532-.464c.126-.195.206-.418.241-.67h2.816c-.034.733-.246 1.374-.635 1.924-.378.55-.887.979-1.529 1.288-.641.298-1.379.447-2.215.447zm9.791 0c-.71 0-1.351-.103-1.923-.309-.573-.218-1.071-.532-1.495-.945-.412-.424-.732-.933-.961-1.529-.218-.595-.327-1.271-.327-2.027 0-.962.184-1.798.55-2.508.366-.721.899-1.282 1.597-1.683.71-.412 1.563-.618 2.559-.618.71 0 1.351.109 1.924.326.572.206 1.065.521 1.477.945.412.412.727.916.945 1.511.229.584.343 1.26.343 2.027 0 .95-.183 1.786-.55 2.508s-.898 1.288-1.597 1.7c-.698.401-1.546.601-2.542.601zm0-2.353c.355 0 .664-.086.928-.258s.469-.441.618-.807.223-.83.223-1.391c0-.424-.045-.79-.137-1.099-.08-.321-.2-.578-.361-.773a1.29 1.29 0 0 0-.549-.447c-.206-.103-.447-.155-.722-.155a1.66 1.66 0 0 0-.944.275c-.264.172-.47.441-.619.807-.137.355-.206.819-.206 1.391 0 .424.04.796.121 1.116.08.309.194.567.343.773a1.46 1.46 0 0 0 .567.429 1.97 1.97 0 0 0 .738.137zm7.695 2.181l-3.091-9.274h3.126l1.168 4.586.566 2.319h.086l.55-2.301 1.185-4.603h3.126l-3.092 9.274h-3.624zm11.35.172c-.996 0-1.843-.195-2.542-.584-.698-.401-1.237-.956-1.614-1.666-.367-.71-.55-1.54-.55-2.49 0-.996.189-1.861.567-2.593s.91-1.294 1.597-1.683c.699-.401 1.506-.601 2.422-.601 1.11 0 2.015.24 2.713.721.699.47 1.203 1.116 1.512 1.941s.406 1.763.292 2.817h-6.252c0 .412.074.767.223 1.065a1.75 1.75 0 0 0 .653.67c.275.149.601.223.979.223.412 0 .761-.086 1.048-.258.297-.183.486-.418.566-.704h2.731c-.068.618-.297 1.168-.687 1.649-.389.47-.899.836-1.528 1.099s-1.34.395-2.13.395zm-1.855-5.651l-.24-.275h3.916l-.275.258c.023-.389-.035-.716-.172-.979s-.338-.464-.601-.601c-.252-.137-.55-.206-.893-.206-.355 0-.664.074-.928.223a1.47 1.47 0 0 0-.601.635c-.137.263-.206.578-.206.945zm7.589 5.479v-9.274h2.628l.12 1.408h.103c.206-.584.527-.985.962-1.202.447-.218.95-.326 1.511-.326h.275.258v2.731h-.258a2.67 2.67 0 0 0-.326-.017c-.584 0-1.048.086-1.391.258-.344.16-.59.395-.739.704-.149.298-.229.67-.24 1.116v4.603h-2.903zm6.735 2.868v-2.37h1.134c.252 0 .464-.034.635-.103.172-.057.315-.154.43-.292.126-.126.223-.292.292-.498l.378-1.031v1.288l-3.762-9.137h3.195l1.477 4.654.258.928h.085l.224-.928 1.391-4.654h3.109l-3.487 9.515c-.24.698-.544 1.237-.91 1.614-.355.389-.762.653-1.22.79-.458.149-.967.223-1.528.223h-1.701z" fill="#121212"/><g filter="url(#B)"><path transform="translate(55.341 71.566)" fill="#ffd966" d="M0 0h157.438v157.438H0z"/><path d="M76.797 136.953c-.043-.437-.23-.777-.558-1.019s-.775-.363-1.339-.363c-.383 0-.707.054-.97.163-.264.104-.466.251-.607.439s-.206.401-.206.64c-.007.198.034.372.125.52a1.31 1.31 0 0 0 .385.385c.163.105.351.197.564.276s.441.141.683.196l.998.238c.484.109.929.253 1.334.434s.755.403 1.052.667a2.76 2.76 0 0 1 .688.932c.166.358.251.768.255 1.231-.004.679-.177 1.268-.52 1.767s-.831.88-1.475 1.155-1.411.407-2.315.407c-.896 0-1.677-.138-2.342-.413s-1.178-.681-1.55-1.219-.562-1.213-.58-2.012h2.272c.025.373.132.683.32.933s.446.432.764.558.685.185 1.09.185c.397 0 .743-.058 1.035-.174a1.59 1.59 0 0 0 .688-.482c.163-.206.244-.443.244-.711 0-.249-.074-.459-.222-.629s-.358-.314-.64-.433-.62-.228-1.025-.326l-1.209-.303c-.936-.228-1.675-.584-2.217-1.068s-.811-1.137-.808-1.957c-.004-.673.175-1.26.537-1.762s.866-.895 1.502-1.177 1.359-.423 2.169-.423c.824 0 1.543.141 2.158.423s1.099.674 1.442 1.177.52 1.084.531 1.745h-2.25zm7.427 8.073c-.856 0-1.594-.174-2.212-.521s-1.088-.845-1.42-1.485-.499-1.404-.499-2.282c0-.857.166-1.609.499-2.256s.801-1.151 1.404-1.512 1.319-.542 2.136-.542c.549 0 1.061.088 1.534.265s.893.436 1.247.786.636.792.835 1.323.298 1.146.298 1.854v.635h-7.032v-1.432h4.858c0-.332-.072-.627-.217-.883a1.55 1.55 0 0 0-.602-.602c-.253-.148-.547-.222-.884-.222-.351 0-.661.081-.932.244a1.71 1.71 0 0 0-.629.645 1.82 1.82 0 0 0-.233.894v1.361c0 .412.076.768.228 1.068a1.67 1.67 0 0 0 .656.694c.282.163.616.244 1.003.244.257 0 .491-.036.705-.109s.396-.18.547-.325.267-.321.347-.531l2.136.141c-.108.513-.331.961-.667 1.344s-.763.676-1.29.889-1.129.315-1.816.315zm5.024-.163v-8.327h2.239v1.453h.087c.152-.517.407-.907.764-1.171s.77-.401 1.236-.401c.116 0 .24.007.374.021s.251.035.352.06v2.049a3.06 3.06 0 0 0-.45-.086c-.191-.026-.367-.038-.526-.038-.34 0-.643.074-.911.222a1.64 1.64 0 0 0-.629.607c-.152.26-.228.56-.228.9v4.711h-2.309zm11.282-3.545v-4.782h2.309v8.327h-2.217v-1.512h-.087c-.188.488-.5.88-.938 1.176s-.963.445-1.588.445c-.557 0-1.046-.127-1.469-.38s-.754-.612-.992-1.079-.354-1.024-.358-1.675v-5.302h2.31v4.89c.004.492.136.88.396 1.166s.609.428 1.046.428c.278 0 .539-.063.781-.19s.437-.321.585-.574.226-.566.223-.938zm3.851 3.545v-8.327h2.201v1.469h.098a2.31 2.31 0 0 1 .867-1.155c.405-.281.889-.422 1.453-.422.571 0 1.057.142 1.459.428s.668.665.802 1.149h.087a2.22 2.22 0 0 1 .921-1.144c.449-.289.978-.433 1.589-.433.777 0 1.408.247 1.892.742s.732 1.189.732 2.093v5.6h-2.304v-5.145c0-.462-.123-.809-.369-1.041s-.553-.347-.922-.347c-.419 0-.746.134-.981.402s-.352.612-.352 1.046v5.085h-2.239v-5.193c0-.409-.118-.734-.353-.976s-.536-.364-.916-.364c-.257 0-.488.066-.694.196s-.363.305-.482.536-.179.496-.179.803v4.998h-2.31zm18.456-11.623l-3.578 13.293h-1.99l3.578-13.293h1.99zm.428 2.456v-1.936h9.118v1.936h-3.399v9.167h-2.32v-9.167h-3.399zm9.407 9.167v-8.327h2.239v1.453h.086c.152-.517.407-.907.765-1.171s.77-.401 1.236-.401c.116 0 .24.007.374.021a2.75 2.75 0 0 1 .352.06v2.049a3.04 3.04 0 0 0-.45-.086c-.191-.026-.366-.038-.525-.038-.34 0-.644.074-.911.222s-.474.347-.629.607a1.75 1.75 0 0 0-.228.9v4.711h-2.309zm9.349.163c-.857 0-1.594-.174-2.212-.521a3.56 3.56 0 0 1-1.421-1.485c-.332-.643-.499-1.404-.499-2.282 0-.857.167-1.609.499-2.256a3.69 3.69 0 0 1 1.404-1.512c.608-.362 1.32-.542 2.136-.542a4.35 4.35 0 0 1 1.535.265c.477.174.892.436 1.247.786s.636.792.834 1.323.299 1.146.299 1.854v.635h-7.032v-1.432h4.858c0-.332-.073-.627-.217-.883a1.55 1.55 0 0 0-.602-.602 1.72 1.72 0 0 0-.884-.222c-.35 0-.661.081-.932.244a1.71 1.71 0 0 0-.629.645 1.81 1.81 0 0 0-.233.894v1.361c0 .412.076.768.228 1.068a1.67 1.67 0 0 0 .655.694c.282.163.617.244 1.003.244.257 0 .492-.036.705-.109s.396-.18.548-.325a1.41 1.41 0 0 0 .347-.531l2.136.141c-.109.513-.331.961-.667 1.344s-.763.676-1.29.889-1.13.315-1.816.315zm7.398-.005c-.531 0-1.005-.093-1.42-.277s-.745-.464-.987-.829-.358-.828-.358-1.377c0-.463.085-.852.255-1.166s.401-.568.694-.759.625-.336.997-.434a7.71 7.71 0 0 1 1.182-.206l1.171-.141c.297-.047.512-.115.645-.206s.201-.224.201-.401v-.033c0-.343-.108-.609-.325-.796s-.517-.282-.911-.282c-.416 0-.746.092-.992.276a1.27 1.27 0 0 0-.488.683l-2.136-.173c.108-.506.321-.944.64-1.312s.728-.658 1.23-.857 1.092-.303 1.757-.303a5.35 5.35 0 0 1 1.328.162c.426.109.804.277 1.133.504s.595.521.786.879.287.779.287 1.274v5.616h-2.19v-1.154h-.065c-.134.26-.312.489-.537.688s-.493.349-.807.461-.678.163-1.09.163zm.661-1.594c.34 0 .64-.067.9-.201s.465-.322.613-.553.222-.493.222-.786v-.884c-.072.047-.171.091-.298.13l-.417.103-.467.082-.422.059a2.86 2.86 0 0 0-.711.19c-.202.087-.359.204-.471.352s-.168.326-.168.543c0 .314.113.554.341.721s.524.244.878.244zm9.944-6.891v1.735h-5.015v-1.735h5.015zm-3.876-1.995h2.309v7.763c0 .214.033.38.098.499s.155.197.271.244a1.12 1.12 0 0 0 .412.071 1.87 1.87 0 0 0 .325-.028l.25-.048.363 1.718-.488.125c-.21.051-.464.081-.764.092-.557.022-1.045-.052-1.464-.222s-.739-.434-.971-.792-.345-.809-.341-1.355v-8.067zm5.075 10.322v-8.327h2.201v1.469h.098a2.31 2.31 0 0 1 .867-1.155c.405-.281.89-.422 1.453-.422.571 0 1.058.142 1.459.428s.668.665.802 1.149h.087a2.22 2.22 0 0 1 .921-1.144c.449-.289.978-.433 1.589-.433.777 0 1.408.247 1.892.742s.732 1.189.732 2.093v5.6h-2.304v-5.145c0-.462-.123-.809-.369-1.041s-.553-.347-.921-.347c-.42 0-.747.134-.982.402s-.352.612-.352 1.046v5.085h-2.239v-5.193c0-.409-.118-.734-.353-.976s-.536-.364-.916-.364c-.256 0-.488.066-.694.196s-.363.305-.482.536-.179.496-.179.803v4.998h-2.31zm17.415.163c-.857 0-1.594-.174-2.212-.521a3.55 3.55 0 0 1-1.42-1.485c-.333-.643-.499-1.404-.499-2.282 0-.857.166-1.609.499-2.256s.8-1.151 1.404-1.512 1.319-.542 2.136-.542c.549 0 1.06.088 1.534.265s.893.436 1.247.786.636.792.835 1.323.298 1.146.298 1.854v.635h-7.032v-1.432h4.858c0-.332-.072-.627-.217-.883a1.54 1.54 0 0 0-.602-.602c-.253-.148-.547-.222-.883-.222-.351 0-.662.081-.933.244s-.477.374-.629.645a1.82 1.82 0 0 0-.233.894v1.361c0 .412.076.768.228 1.068s.374.531.656.694.616.244 1.003.244c.256 0 .491-.036.705-.109s.395-.18.547-.325.268-.321.347-.531l2.136.141c-.108.513-.331.961-.667 1.344s-.762.676-1.29.889-1.129.315-1.816.315zm7.333-4.977v4.814h-2.309v-8.327h2.201v1.469h.097a2.33 2.33 0 0 1 .927-1.149c.434-.286.96-.428 1.578-.428.578 0 1.083.126 1.513.379s.764.615 1.003 1.084.357 1.023.357 1.67v5.302h-2.309v-4.89c.004-.509-.127-.907-.39-1.193s-.627-.433-1.09-.433c-.311 0-.586.067-.824.2a1.4 1.4 0 0 0-.553.586c-.13.253-.197.558-.201.916zm11.312-3.513v1.735h-5.015v-1.735h5.015zm-3.877-1.995h2.31v7.763c0 .214.032.38.097.499s.156.197.272.244.256.071.412.071c.108 0 .216-.009.325-.028l.249-.048.363 1.718a6.5 6.5 0 0 1-.487.125c-.21.051-.465.081-.765.092-.557.022-1.044-.052-1.464-.222-.415-.17-.739-.434-.97-.792s-.345-.809-.342-1.355v-8.067zM66.995 167.863V156.76h4.381c.838 0 1.554.15 2.147.45s1.05.718 1.361 1.263.472 1.18.472 1.914-.159 1.372-.477 1.903-.779.933-1.382 1.214-1.326.423-2.179.423h-2.933v-1.886h2.553c.448 0 .82-.062 1.117-.185s.517-.307.661-.553.222-.551.222-.916-.074-.679-.222-.932-.367-.445-.667-.575-.671-.201-1.122-.201h-1.583v9.184h-2.348zm5.996-5.052l2.76 5.052h-2.591l-2.7-5.052h2.532zm7.335 5.215c-.857 0-1.594-.174-2.212-.521a3.56 3.56 0 0 1-1.42-1.485c-.333-.643-.499-1.404-.499-2.282 0-.857.166-1.609.499-2.256s.801-1.151 1.404-1.512 1.319-.542 2.136-.542c.549 0 1.061.088 1.534.265s.893.436 1.247.786.636.792.835 1.323.298 1.146.298 1.854v.635h-7.032v-1.432h4.858c0-.332-.072-.627-.217-.883s-.345-.458-.602-.602-.548-.222-.884-.222c-.351 0-.661.081-.933.244a1.71 1.71 0 0 0-.629.645c-.152.267-.229.565-.233.894v1.361c0 .412.076.768.228 1.068a1.67 1.67 0 0 0 .656.694c.282.163.616.244 1.003.244.257 0 .492-.036.705-.109s.396-.18.548-.325.267-.321.347-.531l2.136.141c-.109.513-.331.961-.667 1.344s-.763.676-1.29.889-1.129.315-1.816.315zm8.786 0c-.853 0-1.587-.181-2.201-.542s-1.081-.871-1.409-1.518-.488-1.392-.488-2.234c0-.853.164-1.601.493-2.244a3.67 3.67 0 0 1 1.415-1.513c.611-.365 1.337-.547 2.179-.547.727 0 1.363.132 1.908.395s.978.635 1.296 1.112.493 1.037.526 1.68h-2.179c-.061-.415-.224-.75-.488-1.003s-.602-.385-1.025-.385a1.55 1.55 0 0 0-.938.293c-.264.192-.47.472-.618.841s-.222.815-.222 1.339c0 .531.072.983.217 1.355s.356.656.623.851a1.55 1.55 0 0 0 .938.293c.264 0 .501-.054.71-.163s.389-.265.526-.471.233-.461.276-.754h2.179c-.036.636-.21 1.196-.52 1.681s-.732.856-1.274 1.127-1.184.407-1.925.407zm8.655 0c-.842 0-1.57-.179-2.185-.537a3.67 3.67 0 0 1-1.415-1.507c-.332-.647-.499-1.397-.499-2.25 0-.86.166-1.612.499-2.255a3.63 3.63 0 0 1 1.415-1.507c.614-.362 1.343-.542 2.185-.542s1.569.18 2.179.542a3.62 3.62 0 0 1 1.421 1.507c.332.643.498 1.395.498 2.255 0 .853-.166 1.603-.498 2.25s-.806 1.146-1.421 1.507-1.337.537-2.179.537zm.011-1.789c.383 0 .703-.109.96-.325.257-.221.45-.521.58-.9s.201-.812.201-1.296-.067-.916-.201-1.296-.323-.679-.58-.9-.577-.33-.96-.33-.712.11-.976.33-.457.521-.591.9a3.99 3.99 0 0 0-.195 1.296 3.99 3.99 0 0 0 .195 1.296c.134.379.331.679.591.9a1.49 1.49 0 0 0 .976.325zm5.284 1.626v-8.327h2.201v1.469h.097c.174-.488.463-.873.868-1.155s.889-.422 1.453-.422c.571 0 1.057.142 1.458.428a2.02 2.02 0 0 1 .803 1.149h.086c.17-.477.477-.858.922-1.144s.978-.433 1.588-.433c.777 0 1.408.247 1.892.742s.732 1.189.732 2.093v5.6h-2.304v-5.145c0-.462-.123-.809-.368-1.041s-.553-.347-.922-.347c-.419 0-.746.134-.981.402s-.353.612-.353 1.046v5.085h-2.239v-5.193c0-.409-.117-.734-.352-.976s-.537-.364-.916-.364c-.257 0-.488.066-.694.196s-.364.305-.483.536-.179.496-.179.803v4.998h-2.309zm13.619 0v-8.327h2.201v1.469h.098a2.31 2.31 0 0 1 .867-1.155c.405-.281.89-.422 1.453-.422.571 0 1.058.142 1.459.428s.668.665.802 1.149h.087a2.22 2.22 0 0 1 .921-1.144c.449-.289.978-.433 1.589-.433.777 0 1.408.247 1.892.742s.732 1.189.732 2.093v5.6h-2.304v-5.145c0-.462-.123-.809-.369-1.041s-.553-.347-.921-.347c-.42 0-.747.134-.982.402s-.352.612-.352 1.046v5.085h-2.239v-5.193c0-.409-.118-.734-.353-.976s-.536-.364-.916-.364c-.256 0-.488.066-.694.196s-.363.305-.482.536-.179.496-.179.803v4.998h-2.31zm17.415.163c-.857 0-1.594-.174-2.212-.521a3.55 3.55 0 0 1-1.42-1.485c-.333-.643-.499-1.404-.499-2.282 0-.857.166-1.609.499-2.256s.8-1.151 1.404-1.512 1.319-.542 2.136-.542c.549 0 1.06.088 1.534.265s.893.436 1.247.786.636.792.835 1.323.298 1.146.298 1.854v.635h-7.032v-1.432h4.858c0-.332-.072-.627-.217-.883a1.54 1.54 0 0 0-.602-.602c-.253-.148-.547-.222-.883-.222-.351 0-.662.081-.933.244s-.477.374-.629.645a1.82 1.82 0 0 0-.233.894v1.361c0 .412.076.768.228 1.068s.374.531.656.694.616.244 1.003.244c.256 0 .491-.036.705-.109s.395-.18.547-.325.268-.321.347-.531l2.136.141c-.108.513-.331.961-.667 1.344s-.762.676-1.29.889-1.129.315-1.816.315zm7.333-4.977v4.814h-2.309v-8.327h2.201v1.469h.097a2.33 2.33 0 0 1 .927-1.149c.434-.286.96-.428 1.578-.428.578 0 1.083.126 1.513.379s.764.615 1.003 1.084.357 1.023.357 1.67v5.302h-2.309v-4.89c.004-.509-.127-.907-.39-1.193s-.627-.433-1.09-.433c-.311 0-.586.067-.824.2a1.4 1.4 0 0 0-.553.586c-.13.253-.197.558-.201.916zm9.951 4.95c-.633 0-1.205-.163-1.719-.488s-.914-.812-1.214-1.448-.445-1.424-.445-2.353c0-.954.154-1.747.461-2.38s.716-1.111 1.225-1.425c.514-.318 1.076-.477 1.686-.477.467 0 .855.079 1.166.238s.567.351.759.586.343.459.445.683h.07v-4.175h2.304v11.103h-2.277v-1.333h-.097a3 3 0 0 1-.461.688c-.195.224-.45.41-.765.559s-.69.222-1.138.222zm.732-1.838c.372 0 .686-.101.943-.304s.459-.493.596-.862.212-.8.212-1.295-.069-.926-.206-1.291-.336-.647-.596-.845-.577-.299-.949-.299c-.38 0-.7.103-.96.309s-.457.492-.591.857-.2.788-.2 1.269.067.912.2 1.285c.138.368.335.657.591.867s.58.309.96.309zm7.974 1.86c-.531 0-1.004-.093-1.42-.277s-.745-.464-.987-.829-.358-.828-.358-1.377c0-.463.085-.852.255-1.166s.401-.568.694-.759.625-.336.998-.434.769-.166 1.182-.206l1.171-.141c.296-.047.511-.115.645-.206s.2-.224.2-.401v-.033c0-.343-.108-.609-.325-.796s-.517-.282-.911-.282c-.415 0-.746.092-.992.276s-.408.409-.488.683l-2.136-.173c.109-.506.322-.944.64-1.312s.728-.658 1.23-.857 1.092-.303 1.757-.303c.463 0 .905.054 1.328.162s.804.277 1.133.504.595.521.786.879.288.779.288 1.274v5.616h-2.19v-1.154h-.066a2.34 2.34 0 0 1-.536.688c-.224.195-.494.349-.808.461a3.35 3.35 0 0 1-1.09.163zm.662-1.594c.339 0 .639-.067.9-.201s.464-.322.612-.553.223-.493.223-.786v-.884a1.22 1.22 0 0 1-.299.13l-.417.103-.466.082-.423.059a2.85 2.85 0 0 0-.71.19c-.203.087-.36.204-.472.352s-.168.326-.168.543c0 .314.114.554.341.721s.524.244.879.244zm9.944-6.891v1.735h-5.015v-1.735h5.015zm-3.877-1.995h2.31v7.763c0 .214.032.38.097.499a.54.54 0 0 0 .271.244c.12.047.257.071.412.071a1.89 1.89 0 0 0 .326-.028l.249-.048.363 1.718a6.42 6.42 0 0 1-.488.125c-.209.051-.464.081-.764.092-.557.022-1.045-.052-1.464-.222s-.739-.434-.97-.792-.345-.809-.342-1.355v-8.067zm5.076 10.322v-8.327h2.309v8.327h-2.309zm1.16-9.4c-.344 0-.638-.114-.884-.342s-.363-.508-.363-.829.121-.591.363-.819.54-.347.884-.347.636.116.878.347.369.5.369.819-.123.598-.369.829-.535.342-.878.342zm6.456 9.563c-.842 0-1.57-.179-2.185-.537a3.68 3.68 0 0 1-1.415-1.507c-.332-.647-.498-1.397-.498-2.25 0-.86.166-1.612.498-2.255s.805-1.149 1.415-1.507 1.343-.542 2.185-.542 1.569.18 2.18.542 1.088.86 1.42 1.507.499 1.395.499 2.255c0 .853-.166 1.603-.499 2.25a3.66 3.66 0 0 1-1.42 1.507c-.611.358-1.338.537-2.18.537zm.011-1.789c.383 0 .703-.109.96-.325.256-.221.45-.521.58-.9s.2-.812.2-1.296-.066-.916-.2-1.296-.324-.679-.58-.9-.577-.33-.96-.33-.712.11-.976.33-.457.521-.591.9-.195.812-.195 1.296.065.916.195 1.296.331.679.591.9c.264.216.589.325.976.325zm7.594-3.188v4.814h-2.31v-8.327h2.201v1.469h.098a2.32 2.32 0 0 1 .927-1.149c.434-.286.96-.428 1.578-.428.578 0 1.082.126 1.512.379a2.58 2.58 0 0 1 1.003 1.084c.239.467.358 1.023.358 1.67v5.302h-2.31v-4.89c.004-.509-.126-.907-.39-1.193s-.627-.433-1.09-.433c-.31 0-.585.067-.824.2a1.4 1.4 0 0 0-.553.586c-.13.253-.197.558-.2.916zm13.81-1.138l-2.114.13a1.09 1.09 0 0 0-.233-.488c-.119-.148-.277-.266-.472-.353s-.421-.135-.688-.135c-.358 0-.66.076-.906.228s-.368.347-.368.596a.64.64 0 0 0 .238.504c.159.137.432.248.819.331l1.507.303c.81.167 1.413.434 1.811.803s.596.853.596 1.453a2.27 2.27 0 0 1-.482 1.436c-.318.412-.756.734-1.312.965s-1.191.342-1.914.342c-1.102 0-1.981-.23-2.635-.689a2.68 2.68 0 0 1-1.144-1.886l2.272-.12c.068.337.235.593.499.77s.601.261 1.013.261c.405 0 .73-.078.976-.234s.376-.363.38-.612c-.004-.21-.092-.381-.266-.515s-.441-.242-.802-.315l-1.442-.287c-.814-.163-1.419-.445-1.817-.846s-.59-.912-.59-1.534c0-.535.144-.996.433-1.382s.703-.685 1.231-.895 1.153-.314 1.865-.314c1.052 0 1.879.222 2.483.666s.961 1.05 1.062 1.817z" fill="#262a36"/></g><g filter="url(#C)"><path transform="translate(55.341 251.902)" fill="#ffd966" d="M0 0h157.438v157.438H0z"/><path d="M93.582 324.668v-11.103h2.348v9.168h4.76v1.935h-7.107zm12.108.163c-.857 0-1.594-.174-2.212-.521s-1.088-.846-1.42-1.485-.499-1.404-.499-2.283c0-.856.166-1.608.499-2.255s.8-1.151 1.404-1.513 1.319-.542 2.136-.542c.549 0 1.061.089 1.534.266a3.39 3.39 0 0 1 1.247.786c.358.351.636.792.835 1.323s.298 1.146.298 1.854v.634h-7.032v-1.431h4.858c0-.332-.072-.627-.217-.884s-.345-.457-.602-.601-.547-.223-.883-.223c-.351 0-.662.082-.933.244s-.477.374-.629.645-.229.566-.233.895v1.361c0 .412.076.768.228 1.068s.374.531.656.694.616.244 1.003.244a2.2 2.2 0 0 0 .705-.109c.213-.072.395-.181.547-.325s.268-.322.347-.531l2.136.141c-.108.513-.33.961-.667 1.344s-.762.676-1.29.889-1.129.315-1.816.315zm7.398-.006c-.531 0-1.004-.092-1.42-.276s-.745-.465-.987-.83-.358-.827-.358-1.377c0-.462.085-.851.255-1.165s.401-.568.694-.759a3.35 3.35 0 0 1 .998-.434 7.59 7.59 0 0 1 1.182-.206l1.171-.141c.296-.047.511-.116.645-.206a.45.45 0 0 0 .2-.401v-.033c0-.343-.108-.609-.325-.797s-.517-.282-.911-.282c-.415 0-.746.092-.992.277s-.408.408-.488.683l-2.136-.174a2.91 2.91 0 0 1 .64-1.312 3.07 3.07 0 0 1 1.231-.856c.506-.203 1.091-.304 1.756-.304.463 0 .906.054 1.328.163.427.108.805.276 1.133.504a2.46 2.46 0 0 1 .787.878c.191.355.287.779.287 1.274v5.617h-2.19v-1.155h-.065c-.134.26-.313.49-.537.689a2.48 2.48 0 0 1-.808.461c-.314.108-.678.162-1.09.162zm.662-1.594a1.95 1.95 0 0 0 .9-.2 1.6 1.6 0 0 0 .612-.553c.149-.232.223-.494.223-.786v-.884a1.26 1.26 0 0 1-.299.13l-.417.103-.466.081-.423.06a2.85 2.85 0 0 0-.71.19c-.203.086-.36.204-.472.352s-.168.325-.168.542c0 .315.114.555.342.721s.524.244.878.244zm5.514 1.437v-8.327h2.239v1.453h.087c.152-.517.407-.908.765-1.171s.769-.402 1.236-.402c.115 0 .24.008.374.022s.251.034.352.06v2.049c-.108-.032-.258-.061-.45-.087a4.09 4.09 0 0 0-.526-.038c-.339 0-.643.074-.911.223s-.473.347-.628.607a1.75 1.75 0 0 0-.228.9v4.711h-2.31zm8.251-4.814v4.814h-2.309v-8.327h2.201v1.469h.098c.184-.484.493-.868.927-1.149s.959-.429 1.577-.429c.578 0 1.083.127 1.513.38a2.58 2.58 0 0 1 1.003 1.084c.238.466.358 1.023.358 1.67v5.302h-2.31v-4.89c.004-.51-.126-.907-.39-1.193s-.627-.434-1.09-.434c-.311 0-.586.067-.824.201a1.4 1.4 0 0 0-.553.586c-.13.253-.197.558-.201.916zm10.154-6.289h2.895l3.058 7.46h.13l3.057-7.46h2.895v11.103h-2.277v-7.227h-.092l-2.873 7.173h-1.551l-2.873-7.2h-.092v7.254h-2.277v-11.103zm17.383 11.266c-.842 0-1.57-.179-2.185-.537-.61-.362-1.082-.864-1.415-1.507s-.498-1.397-.498-2.25c0-.86.166-1.612.498-2.255a3.64 3.64 0 0 1 1.415-1.508c.615-.361 1.343-.542 2.185-.542s1.569.181 2.18.542a3.62 3.62 0 0 1 1.42 1.508c.333.643.499 1.395.499 2.255 0 .853-.166 1.603-.499 2.25s-.806 1.145-1.42 1.507-1.338.537-2.18.537zm.011-1.789c.383 0 .703-.109.96-.326s.45-.52.58-.9a3.9 3.9 0 0 0 .2-1.295c0-.485-.067-.917-.2-1.296s-.324-.68-.58-.9-.577-.331-.96-.331-.712.11-.976.331-.457.52-.591.9-.195.811-.195 1.296.065.916.195 1.295.331.68.591.9.589.326.976.326zm5.284 1.626v-8.327h2.239v1.453h.087c.152-.517.407-.908.764-1.171s.77-.402 1.236-.402c.116 0 .241.008.375.022s.251.034.352.06v2.049c-.108-.032-.258-.061-.45-.087s-.367-.038-.526-.038a1.84 1.84 0 0 0-.911.223c-.264.144-.473.347-.629.607a1.76 1.76 0 0 0-.227.9v4.711h-2.31zm9.349.163c-.857 0-1.594-.174-2.212-.521s-1.088-.846-1.42-1.485-.499-1.404-.499-2.283c0-.856.166-1.608.499-2.255s.8-1.151 1.404-1.513 1.319-.542 2.136-.542c.549 0 1.061.089 1.534.266a3.39 3.39 0 0 1 1.247.786c.358.351.636.792.835 1.323s.298 1.146.298 1.854v.634h-7.031v-1.431h4.857c0-.332-.072-.627-.217-.884s-.345-.457-.602-.601-.547-.223-.883-.223c-.351 0-.662.082-.933.244s-.477.374-.629.645-.229.566-.233.895v1.361c0 .412.076.768.228 1.068s.374.531.656.694.616.244 1.003.244a2.19 2.19 0 0 0 .705-.109 1.46 1.46 0 0 0 .547-.325c.152-.145.268-.322.347-.531l2.136.141c-.108.513-.33.961-.667 1.344-.332.38-.762.676-1.29.889s-1.129.315-1.816.315zM66.518 347.668v-11.103h4.38c.838 0 1.554.15 2.147.45s1.05.717 1.361 1.263.472 1.18.472 1.914-.159 1.371-.477 1.903c-.318.527-.779.932-1.383 1.214s-1.326.423-2.179.423h-2.933v-1.887h2.553c.448 0 .82-.061 1.117-.184s.517-.307.661-.553.222-.551.222-.916-.074-.68-.222-.933a1.36 1.36 0 0 0-.667-.574c-.296-.134-.67-.201-1.122-.201h-1.583v9.184h-2.347zm5.996-5.053l2.76 5.053h-2.591l-2.7-5.053h2.532zm7.335 5.216c-.857 0-1.594-.174-2.212-.521s-1.088-.846-1.42-1.485-.499-1.404-.499-2.283c0-.856.166-1.608.499-2.255a3.69 3.69 0 0 1 1.404-1.513c.607-.361 1.319-.542 2.136-.542.549 0 1.061.089 1.534.266a3.39 3.39 0 0 1 1.247.786c.358.351.636.792.835 1.323s.298 1.146.298 1.854v.634h-7.032v-1.431h4.858c0-.332-.072-.627-.217-.884a1.55 1.55 0 0 0-.602-.601c-.253-.149-.548-.223-.884-.223-.351 0-.661.082-.933.244a1.71 1.71 0 0 0-.629.645c-.152.268-.23.566-.233.895v1.361c0 .412.076.768.228 1.068a1.67 1.67 0 0 0 .656.694c.282.162.616.244 1.003.244a2.19 2.19 0 0 0 .705-.109c.213-.072.396-.181.548-.325a1.42 1.42 0 0 0 .347-.531l2.136.141c-.108.513-.331.961-.667 1.344s-.763.676-1.29.889-1.129.315-1.816.315zm8.786 0c-.853 0-1.587-.181-2.201-.543s-1.081-.871-1.41-1.518-.488-1.391-.488-2.233c0-.853.164-1.601.493-2.245a3.66 3.66 0 0 1 1.415-1.512c.611-.365 1.337-.548 2.179-.548.726 0 1.363.132 1.908.396a3.19 3.19 0 0 1 1.296 1.111c.318.478.493 1.038.526 1.681h-2.179c-.061-.416-.224-.75-.488-1.003s-.602-.385-1.025-.385a1.55 1.55 0 0 0-.938.293c-.264.191-.47.472-.618.84s-.222.815-.222 1.339c0 .532.072.983.217 1.356s.356.656.624.851a1.55 1.55 0 0 0 .938.293 1.53 1.53 0 0 0 .71-.163 1.37 1.37 0 0 0 .526-.472c.141-.209.233-.461.276-.753h2.179c-.036.636-.21 1.196-.52 1.68s-.732.857-1.274 1.128-1.184.407-1.925.407zm8.655 0c-.842 0-1.57-.179-2.185-.537a3.68 3.68 0 0 1-1.415-1.507c-.333-.647-.499-1.397-.499-2.25 0-.86.166-1.612.499-2.255s.804-1.15 1.415-1.508 1.343-.542 2.185-.542 1.569.181 2.179.542a3.62 3.62 0 0 1 1.42 1.508c.333.643.499 1.395.499 2.255 0 .853-.166 1.603-.499 2.25s-.806 1.145-1.42 1.507-1.337.537-2.179.537zm.011-1.789c.383 0 .703-.109.96-.326s.45-.52.58-.9.201-.811.201-1.295-.067-.917-.201-1.296-.323-.68-.58-.9-.576-.331-.96-.331-.712.11-.976.331-.457.52-.591.9-.195.811-.195 1.296a3.98 3.98 0 0 0 .195 1.295c.134.38.331.68.591.9s.589.326.976.326zm5.284 1.626v-8.327h2.201v1.469h.097c.174-.488.463-.873.868-1.155s.889-.423 1.453-.423c.571 0 1.057.143 1.458.429a2.01 2.01 0 0 1 .802 1.149h.087c.17-.477.477-.858.922-1.144s.977-.434 1.588-.434c.777 0 1.408.248 1.892.743s.732 1.189.732 2.093v5.6h-2.304v-5.145c0-.463-.123-.81-.369-1.041s-.553-.347-.921-.347c-.419 0-.747.134-.981.401s-.353.613-.353 1.047v5.085h-2.239v-5.194c0-.408-.117-.733-.352-.976s-.537-.363-.917-.363a1.27 1.27 0 0 0-.693.195 1.34 1.34 0 0 0-.483.537c-.119.228-.179.495-.179.802v4.999h-2.309zm13.619 0v-8.327h2.201v1.469h.098c.173-.488.462-.873.867-1.155s.889-.423 1.453-.423c.571 0 1.057.143 1.459.429s.668.665.802 1.149h.087a2.22 2.22 0 0 1 .921-1.144c.448-.289.978-.434 1.589-.434.777 0 1.408.248 1.892.743s.732 1.189.732 2.093v5.6h-2.304v-5.145c0-.463-.123-.81-.369-1.041s-.553-.347-.922-.347c-.419 0-.746.134-.981.401s-.352.613-.352 1.047v5.085h-2.239v-5.194c0-.408-.118-.733-.353-.976s-.536-.363-.916-.363c-.257 0-.488.065-.694.195s-.363.306-.482.537-.179.495-.179.802v4.999h-2.31zm17.415.163c-.857 0-1.594-.174-2.212-.521s-1.088-.846-1.421-1.485-.498-1.404-.498-2.283c0-.856.166-1.608.498-2.255s.801-1.151 1.404-1.513c.608-.361 1.32-.542 2.137-.542a4.35 4.35 0 0 1 1.534.266 3.4 3.4 0 0 1 1.247.786c.358.351.636.792.835 1.323s.298 1.146.298 1.854v.634h-7.032v-1.431h4.858c0-.332-.072-.627-.217-.884a1.55 1.55 0 0 0-.602-.601c-.253-.149-.547-.223-.884-.223-.35 0-.661.082-.932.244s-.477.374-.629.645-.229.566-.233.895v1.361c0 .412.076.768.228 1.068s.374.531.656.694.616.244 1.003.244a2.19 2.19 0 0 0 .704-.109c.214-.072.396-.181.548-.325s.267-.322.347-.531l2.136.141c-.108.513-.331.961-.667 1.344s-.762.676-1.29.889-1.13.315-1.816.315zm7.333-4.977v4.814h-2.309v-8.327h2.201v1.469h.097c.185-.484.494-.868.927-1.149s.96-.429 1.578-.429c.578 0 1.082.127 1.513.38s.764.614 1.002 1.084.358 1.023.358 1.67v5.302h-2.309v-4.89c.003-.51-.127-.907-.391-1.193s-.627-.434-1.089-.434c-.311 0-.586.067-.824.201s-.42.329-.553.586-.197.558-.201.916zm9.951 4.95c-.633 0-1.206-.163-1.719-.488s-.914-.812-1.214-1.448-.445-1.424-.445-2.353c0-.954.154-1.747.461-2.38s.716-1.111 1.225-1.426a3.14 3.14 0 0 1 1.686-.477c.467 0 .855.08 1.166.239s.567.35.759.585.343.459.444.683h.071v-4.174h2.304v11.103h-2.277v-1.334h-.098c-.108.232-.262.461-.46.689s-.45.41-.765.558-.69.223-1.138.223zm.732-1.838c.372 0 .686-.102.943-.304s.459-.493.596-.862.212-.801.212-1.296-.069-.925-.206-1.29-.336-.647-.597-.846-.576-.298-.948-.298c-.38 0-.7.103-.96.309s-.457.492-.591.857-.201.788-.201 1.268.067.913.201 1.285.334.658.591.868.58.309.96.309zm7.974 1.859c-.531 0-1.005-.092-1.42-.276s-.745-.465-.987-.83-.358-.827-.358-1.377c0-.462.085-.851.255-1.165s.401-.568.694-.759.625-.337.997-.434a7.59 7.59 0 0 1 1.182-.206l1.171-.141c.297-.047.512-.116.645-.206s.201-.224.201-.401v-.033c0-.343-.108-.609-.325-.797s-.517-.282-.911-.282c-.416 0-.746.092-.992.277s-.409.408-.488.683l-2.136-.174a2.9 2.9 0 0 1 .64-1.312c.318-.372.728-.657 1.23-.856s1.092-.304 1.757-.304c.462 0 .905.054 1.328.163s.804.276 1.133.504a2.45 2.45 0 0 1 .786.878c.192.355.288.779.288 1.274v5.617h-2.191v-1.155h-.065c-.133.26-.312.49-.536.689s-.494.349-.808.461-.678.162-1.09.162zm.662-1.594c.339 0 .639-.067.899-.2.261-.138.465-.322.613-.553a1.43 1.43 0 0 0 .222-.786v-.884a1.23 1.23 0 0 1-.298.13l-.417.103-.467.081-.422.06a2.87 2.87 0 0 0-.711.19 1.13 1.13 0 0 0-.471.352c-.112.145-.168.325-.168.542 0 .315.114.555.341.721s.524.244.879.244zm9.943-6.89v1.735H165.2v-1.735h5.014zm-3.876-1.995h2.31v7.763c0 .213.032.38.097.499s.156.197.271.244a1.12 1.12 0 0 0 .412.07 1.99 1.99 0 0 0 .326-.027l.249-.049.363 1.719-.488.125a3.96 3.96 0 0 1-.764.092c-.557.022-1.045-.053-1.464-.222a2.04 2.04 0 0 1-.97-.792c-.232-.358-.346-.81-.342-1.355v-8.067zm5.075 10.322v-8.327h2.31v8.327h-2.31zm1.161-9.401c-.344 0-.638-.114-.884-.341a1.11 1.11 0 0 1-.363-.83c0-.318.121-.591.363-.818a1.24 1.24 0 0 1 .884-.347 1.22 1.22 0 0 1 .878.347c.246.227.369.5.369.818a1.1 1.1 0 0 1-.369.83c-.242.227-.535.341-.878.341zm6.456 9.564c-.842 0-1.57-.179-2.185-.537a3.68 3.68 0 0 1-1.415-1.507c-.332-.647-.498-1.397-.498-2.25 0-.86.166-1.612.498-2.255s.804-1.15 1.415-1.508 1.343-.542 2.185-.542 1.569.181 2.18.542 1.087.861 1.42 1.508.499 1.395.499 2.255c0 .853-.167 1.603-.499 2.25a3.67 3.67 0 0 1-1.42 1.507c-.611.358-1.338.537-2.18.537zm.011-1.789c.383 0 .703-.109.96-.326s.45-.52.58-.9a3.9 3.9 0 0 0 .2-1.295c0-.485-.067-.917-.2-1.296s-.324-.68-.58-.9-.577-.331-.96-.331-.712.11-.976.331-.457.52-.591.9-.195.811-.195 1.296.065.916.195 1.295.331.68.591.9.589.326.976.326zm7.594-3.188v4.814h-2.31v-8.327h2.201v1.469h.098c.184-.484.493-.868.927-1.149s.959-.429 1.577-.429c.579 0 1.083.127 1.513.38a2.58 2.58 0 0 1 1.003 1.084c.239.466.358 1.023.358 1.67v5.302h-2.31v-4.89c.004-.51-.126-.907-.39-1.193s-.627-.434-1.09-.434c-.311 0-.585.067-.824.201a1.4 1.4 0 0 0-.553.586c-.13.253-.197.558-.2.916zm13.81-1.139l-2.114.13a1.1 1.1 0 0 0-.233-.488 1.24 1.24 0 0 0-.472-.352c-.191-.09-.421-.135-.688-.135-.358 0-.66.075-.906.227s-.368.347-.368.597c0 .198.079.366.238.504s.432.247.819.33l1.507.304c.81.166 1.413.434 1.811.802s.596.853.596 1.453a2.27 2.27 0 0 1-.482 1.437c-.319.412-.756.734-1.312.965s-1.191.342-1.914.342c-1.103 0-1.981-.23-2.635-.689a2.68 2.68 0 0 1-1.144-1.887l2.272-.119c.068.336.235.593.498.77s.602.26 1.014.26c.405 0 .73-.077.976-.233s.376-.363.38-.612a.64.64 0 0 0-.266-.516c-.174-.137-.441-.242-.802-.314l-1.443-.287c-.813-.163-1.418-.445-1.816-.846s-.591-.913-.591-1.534c0-.535.145-.996.434-1.383s.703-.685 1.231-.894 1.153-.315 1.865-.315c1.051 0 1.879.223 2.483.667s.961 1.05 1.062 1.816z" fill="#262a36"/></g></g></g><defs><filter id="A" x=".385" y=".867" width="267.35" height="433.375" filterUnits="userSpaceOnUse" class="B"><feFlood result="A" class="C"/><feColorMatrix in="SourceAlpha" values="0 0 0 0 0 0 0 0 0 0 0 0 0 0 0 0 0 0 127 0" result="B"/><feOffset/><feGaussianBlur stdDeviation="1"/><feComposite in2="B" operator="out"/><feColorMatrix values="0 0 0 0 0 0 0 0 0 0 0 0 0 0 0 0 0 0 0.25 0"/><feBlend in2="A"/><feBlend in="SourceGraphic"/></filter><filter id="B" x="51.525" y="71.566" width="165.071" height="165.071" filterUnits="userSpaceOnUse" class="B"><feFlood result="A" class="C"/><feColorMatrix in="SourceAlpha" values="0 0 0 0 0 0 0 0 0 0 0 0 0 0 0 0 0 0 127 0" result="B"/><feOffset dy="3.81667"/><feGaussianBlur stdDeviation="1.908"/><feComposite in2="B" operator="out"/><feColorMatrix values="0 0 0 0 0 0 0 0 0 0 0 0 0 0 0 0 0 0 0.25 0"/><feBlend in2="A"/><feBlend in="SourceGraphic"/></filter><filter id="C" x="51.524" y="251.902" width="165.071" height="165.071" filterUnits="userSpaceOnUse" class="B"><feFlood result="A" class="C"/><feColorMatrix in="SourceAlpha" values="0 0 0 0 0 0 0 0 0 0 0 0 0 0 0 0 0 0 127 0" result="B"/><feOffset dy="3.81667"/><feGaussianBlur stdDeviation="1.908"/><feComposite in2="B" operator="out"/><feColorMatrix values="0 0 0 0 0 0 0 0 0 0 0 0 0 0 0 0 0 0 0.25 0"/><feBlend in2="A"/><feBlend in="SourceGraphic"/></filter><clipPath id="D"><rect x="2.385" y="2.867" width="263.35" height="429.375" rx="10" fill="#fff"/></clipPath></defs></svg>