<svg width="41" height="40" viewBox="0 0 41 40" fill="none" xmlns="http://www.w3.org/2000/svg">
<path id="Vector" d="M20.2695 0C18.8695 0 17.7695 1.1 17.7695 2.5C17.7695 3.9 18.8695 5 20.2695 5C21.6695 5 22.7695 3.9 22.7695 2.5C22.7695 1.1 21.6695 0 20.2695 0ZM7.76953 5C6.36953 5 5.26953 6.1 5.26953 7.5C5.26953 8.9 6.36953 10 7.76953 10C9.16953 10 10.2695 8.9 10.2695 7.5C10.2695 6.1 9.16953 5 7.76953 5ZM32.7695 5C31.3695 5 30.2695 6.1 30.2695 7.5C30.2695 8.9 31.3695 10 32.7695 10C34.1695 10 35.2695 8.9 35.2695 7.5C35.2695 6.1 34.1695 5 32.7695 5ZM20.2695 10C14.7695 10 10.2695 14.5 10.2695 20C10.2695 25.5 14.7695 30 20.2695 30C25.7695 30 30.2695 25.5 30.2695 20C30.2695 14.5 25.7695 10 20.2695 10ZM2.76953 17.5C1.36953 17.5 0.269531 18.6 0.269531 20C0.269531 21.4 1.36953 22.5 2.76953 22.5C4.16953 22.5 5.26953 21.4 5.26953 20C5.26953 18.6 4.16953 17.5 2.76953 17.5ZM37.7695 17.5C36.3695 17.5 35.2695 18.6 35.2695 20C35.2695 21.4 36.3695 22.5 37.7695 22.5C39.1695 22.5 40.2695 21.4 40.2695 20C40.2695 18.6 39.1695 17.5 37.7695 17.5ZM7.76953 30C6.36953 30 5.26953 31.1 5.26953 32.5C5.26953 33.9 6.36953 35 7.76953 35C9.16953 35 10.2695 33.9 10.2695 32.5C10.2695 31.1 9.16953 30 7.76953 30ZM32.7695 30C31.3695 30 30.2695 31.1 30.2695 32.5C30.2695 33.9 31.3695 35 32.7695 35C34.1695 35 35.2695 33.9 35.2695 32.5C35.2695 31.1 34.1695 30 32.7695 30ZM20.2695 35C18.8695 35 17.7695 36.1 17.7695 37.5C17.7695 38.9 18.8695 40 20.2695 40C21.6695 40 22.7695 38.9 22.7695 37.5C22.7695 36.1 21.6695 35 20.2695 35Z" fill="#121212"/>
</svg>
