<svg width="84" height="85" viewBox="0 0 84 85" fill="none" xmlns="http://www.w3.org/2000/svg">
<g id="User Research Icon">
<rect y="0.772461" width="84" height="84" rx="20" fill="#F0F2F5"/>
<g id="Vector">
<path d="M56.5276 53.3152C57.5371 51.091 57.8537 48.6145 57.4362 46.208C57.0188 43.8014 55.8866 41.5762 54.187 39.822C54.7173 39.0475 55.0199 38.1398 55.0604 37.202C55.0595 35.4926 54.6025 33.8145 53.7367 32.3407C52.8708 30.8669 51.6274 29.6508 50.1347 28.8179C50.8834 27.9266 51.362 26.8401 51.5144 25.6862C51.6668 24.5322 51.4865 23.3587 50.9949 22.3037C50.5032 21.2486 49.7206 20.3558 48.739 19.7303C47.7574 19.1048 46.6176 18.7725 45.4536 18.7725C44.2896 18.7725 43.1498 19.1048 42.1682 19.7303C41.1866 20.3558 40.404 21.2486 39.9123 22.3037C39.4207 23.3587 39.2404 24.5322 39.3928 25.6862C39.5452 26.8401 40.0238 27.9266 40.7725 28.8179C40.1476 29.1711 39.5621 29.5897 39.0258 30.0668C38.7316 29.0531 38.2115 28.1193 37.5047 27.3354C36.7979 26.5516 35.9226 25.9381 34.9447 25.541C33.9667 25.1438 32.9116 24.9735 31.8583 25.0426C30.8051 25.1117 29.7812 25.4186 28.8636 25.9401C27.946 26.4617 27.1585 27.1844 26.5602 28.0539C25.9619 28.9234 25.5683 29.9172 25.4092 30.9606C25.25 32.004 25.3293 33.07 25.6411 34.0783C25.9529 35.0867 26.4891 36.0113 27.2095 36.7828C25.3476 37.729 23.7828 39.1705 22.6873 40.9486C21.5917 42.7268 21.0079 44.7726 21 46.8612C21 47.1494 21.1223 53.8479 32.3535 53.8479C33.1045 53.8479 33.8207 53.8479 34.5019 53.7518C35.5111 55.7951 37.0714 57.5157 39.0065 58.7194C40.9416 59.923 43.1747 60.5619 45.4536 60.5639C47.1651 60.5658 48.8569 60.1994 50.4142 59.4897L56.3966 65.4983C57.2151 66.3143 58.3237 66.7725 59.4795 66.7725C60.6353 66.7725 61.7439 66.3143 62.5624 65.4983C63.3784 64.6798 63.8366 63.5712 63.8366 62.4154C63.8366 61.2596 63.3784 60.151 62.5624 59.3325L56.5276 53.3152ZM51.3661 37.6823C49.5602 36.6597 45.4462 36.1109 45.4462 36.1109C45.4462 36.1109 41.3283 36.6293 39.5149 37.6387C39.4352 37.4903 39.3764 37.3316 39.3402 37.167C39.3402 35.5457 39.9843 33.9907 41.1308 32.8442C42.2773 31.6977 43.8322 31.0536 45.4536 31.0536C47.075 31.0536 48.63 31.6977 49.7764 32.8442C50.9229 33.9907 51.567 35.5457 51.567 37.167C51.5278 37.3484 51.46 37.5223 51.3661 37.6823ZM45.4536 22.2416C45.9718 22.2416 46.4784 22.3953 46.9092 22.6832C47.3401 22.9711 47.6759 23.3803 47.8742 23.859C48.0725 24.3377 48.1244 24.8645 48.0233 25.3728C47.9222 25.881 47.6727 26.3479 47.3062 26.7143C46.9398 27.0807 46.473 27.3302 45.9648 27.4313C45.4565 27.5324 44.9297 27.4805 44.451 27.2822C43.9722 27.0839 43.563 26.7481 43.2751 26.3173C42.9872 25.8864 42.8336 25.3798 42.8336 24.8616C42.8336 24.1668 43.1096 23.5004 43.601 23.009C44.0923 22.5177 44.7587 22.2416 45.4536 22.2416ZM28.8601 32.0143C28.8601 31.3234 29.065 30.648 29.4488 30.0735C29.8327 29.499 30.3783 29.0513 31.0166 28.7869C31.6549 28.5225 32.3573 28.4533 33.035 28.5881C33.7126 28.7229 34.3351 29.0556 34.8236 29.5441C35.3122 30.0327 35.6449 30.6552 35.7797 31.3328C35.9145 32.0104 35.8453 32.7128 35.5809 33.3512C35.3165 33.9895 34.8688 34.5351 34.2943 34.919C33.7198 35.3028 33.0444 35.5077 32.3535 35.5077C31.427 35.5077 30.5384 35.1396 29.8833 34.4845C29.2281 33.8294 28.8601 32.9408 28.8601 32.0143ZM32.3535 50.3545C24.7903 50.3545 24.4934 46.9572 24.4934 46.8612C24.4936 45.4695 24.8634 44.1029 25.5648 42.9009C26.2662 41.699 27.2742 40.7048 28.4857 40.02C29.6972 39.3352 31.0688 38.9844 32.4603 39.0033C33.8518 39.0222 35.2133 39.4102 36.4058 40.1277C34.3636 42.3745 33.2304 45.3008 33.2268 48.3371C33.2314 49.0045 33.2898 49.6704 33.4015 50.3283C33.0638 50.3458 32.7144 50.3545 32.3535 50.3545ZM36.7202 48.3371C36.7202 46.6098 37.2324 44.9213 38.192 43.4851C39.1517 42.0489 40.5156 40.9295 42.1115 40.2685C43.7073 39.6075 45.4633 39.4345 47.1574 39.7715C48.8515 40.1085 50.4077 40.9402 51.6291 42.1616C52.8505 43.383 53.6823 44.9392 54.0192 46.6333C54.3562 48.3274 54.1833 50.0834 53.5223 51.6792C52.8612 53.2751 51.7418 54.639 50.3056 55.5987C48.8694 56.5583 47.1809 57.0705 45.4536 57.0705C43.1374 57.0705 40.916 56.1504 39.2781 54.5126C37.6403 52.8747 36.7202 50.6534 36.7202 48.3371ZM60.0472 63.0355C59.9656 63.1164 59.8688 63.1805 59.7624 63.2239C59.656 63.2674 59.542 63.2894 59.4271 63.2887C59.201 63.2855 58.985 63.1947 58.8245 63.0355L53.3748 57.5683C53.8146 57.1758 54.2261 56.7526 54.6062 56.302L60.0472 61.7604C60.1344 61.8421 60.204 61.9408 60.2515 62.0505C60.2991 62.1601 60.3236 62.2784 60.3236 62.3979C60.3236 62.5175 60.2991 62.6357 60.2515 62.7454C60.204 62.855 60.1344 62.9538 60.0472 63.0355Z" fill="#121212"/>
<path d="M36.7202 48.3371C36.7202 46.6098 37.2324 44.9213 38.192 43.4851C39.1517 42.0489 40.5156 40.9295 42.1115 40.2685C43.7073 39.6075 45.4633 39.4345 47.1574 39.7715C48.8515 40.1085 50.4077 40.9402 51.6291 42.1616C52.8505 43.383 53.6823 44.9392 54.0192 46.6333C54.3562 48.3274 54.1833 50.0834 53.5223 51.6792C52.8612 53.2751 51.7418 54.639 50.3056 55.5987C48.8694 56.5583 47.1809 57.0705 45.4536 57.0705C43.1374 57.0705 40.916 56.1504 39.2781 54.5126C37.6403 52.8747 36.7202 50.6534 36.7202 48.3371Z" fill="#D9D9D9"/>
<path d="M45.4536 22.2416C45.9718 22.2416 46.4784 22.3953 46.9092 22.6832C47.3401 22.9711 47.6759 23.3803 47.8742 23.859C48.0725 24.3377 48.1244 24.8645 48.0233 25.3728C47.9222 25.881 47.6727 26.3479 47.3062 26.7143C46.9398 27.0807 46.473 27.3302 45.9648 27.4313C45.4565 27.5324 44.9297 27.4805 44.451 27.2822C43.9722 27.0839 43.563 26.7481 43.2751 26.3173C42.9872 25.8864 42.8336 25.3798 42.8336 24.8616C42.8336 24.1668 43.1096 23.5004 43.601 23.009C44.0923 22.5177 44.7587 22.2416 45.4536 22.2416Z" fill="#E37300"/>
<path d="M28.8601 32.0143C28.8601 31.3234 29.065 30.648 29.4488 30.0735C29.8327 29.499 30.3783 29.0513 31.0166 28.7869C31.6549 28.5225 32.3573 28.4533 33.035 28.5881C33.7126 28.7229 34.3351 29.0556 34.8236 29.5441C35.3122 30.0327 35.6449 30.6552 35.7797 31.3328C35.9145 32.0104 35.8453 32.7128 35.5809 33.3512C35.3165 33.9895 34.8688 34.5351 34.2943 34.919C33.7198 35.3028 33.0444 35.5077 32.3535 35.5077C31.427 35.5077 30.5384 35.1396 29.8833 34.4845C29.2281 33.8294 28.8601 32.9408 28.8601 32.0143Z" fill="#E37300"/>
<path d="M32.3535 50.3545C24.7903 50.3545 24.4934 46.9572 24.4934 46.8612C24.4936 45.4695 24.8634 44.1029 25.5648 42.9009C26.2662 41.699 27.2742 40.7048 28.4857 40.02C29.6972 39.3352 31.0688 38.9844 32.4603 39.0033C33.8518 39.0222 35.2133 39.4102 36.4058 40.1277C34.3636 42.3745 33.2304 45.3008 33.2268 48.3371C33.2314 49.0045 33.2898 49.6704 33.4015 50.3283C33.0638 50.3458 32.7144 50.3545 32.3535 50.3545Z" fill="white"/>
<path d="M51.3661 37.6823C49.5602 36.6597 45.4462 36.1109 45.4462 36.1109C45.4462 36.1109 41.3283 36.6293 39.5149 37.6387C39.4352 37.4903 39.3764 37.3316 39.3402 37.167C39.3402 35.5457 39.9843 33.9907 41.1308 32.8442C42.2773 31.6977 43.8322 31.0536 45.4536 31.0536C47.075 31.0536 48.63 31.6977 49.7764 32.8442C50.9229 33.9907 51.567 35.5457 51.567 37.167C51.5278 37.3484 51.46 37.5223 51.3661 37.6823Z" fill="white"/>
<path d="M60.0472 63.0355C59.9656 63.1164 59.8688 63.1805 59.7624 63.2239C59.656 63.2674 59.542 63.2894 59.4271 63.2887C59.201 63.2855 58.985 63.1947 58.8245 63.0355L53.3748 57.5683C53.8146 57.1758 54.2261 56.7526 54.6062 56.302L60.0472 61.7604C60.1344 61.8421 60.204 61.9408 60.2515 62.0505C60.2991 62.1601 60.3236 62.2784 60.3236 62.3979C60.3236 62.5175 60.2991 62.6357 60.2515 62.7454C60.204 62.855 60.1344 62.9538 60.0472 63.0355Z" fill="#2C2C2C"/>
</g>
</g>
</svg>
