<svg width="55" height="25" viewBox="0 0 55 25" fill="none" xmlns="http://www.w3.org/2000/svg">
<g clip-path="url(#clip0_2033_8956)">
<path d="M12.7 12.5931C11.0042 12.5931 9.55257 11.9888 8.34513 10.7813C7.13647 9.5739 6.53337 8.12227 6.53337 6.42643C6.53337 4.7306 7.1377 3.27897 8.34513 2.07153C9.55257 0.862865 11.0042 0.259766 12.7 0.259766C14.3959 0.259766 15.8475 0.864099 17.0549 2.07153C18.2636 3.27897 18.8667 4.7306 18.8667 6.42643C18.8667 8.12227 18.2624 9.5739 17.0549 10.7813C15.8475 11.99 14.3959 12.5931 12.7 12.5931ZM0.366699 24.9264V20.6098C0.366699 19.7366 0.592399 18.9324 1.04257 18.1998C1.47262 17.4863 2.09266 16.9064 2.83337 16.525C4.37939 15.7457 6.00874 15.1441 7.69023 14.7317C9.33051 14.3344 11.0123 14.134 12.7 14.1348C14.3959 14.1348 16.067 14.3333 17.7111 14.7317C19.3551 15.1301 20.9732 15.7282 22.5667 16.5237C23.3082 16.9056 23.9287 17.4864 24.3587 18.2011C24.8077 18.9324 25.0334 19.7366 25.0334 20.6098V24.9264H0.366699ZM54.6334 8.16543L52.8944 6.42643L46 13.3208L39.1057 6.42643L37.3667 8.16543L44.261 15.0598L37.3667 21.9541L39.1057 23.6931L46 16.7988L52.8944 23.6931L54.6334 21.9541L47.739 15.0598L54.6334 8.16543Z" fill="#333333"/>
</g>
<defs>
<clipPath id="clip0_2033_8956">
<rect width="54.2667" height="24.6667" fill="white" transform="translate(0.366699 0.259766)"/>
</clipPath>
</defs>
</svg>
