<svg width="55" height="25" viewBox="0 0 55 25" fill="none" xmlns="http://www.w3.org/2000/svg">
<g clip-path="url(#clip0_2031_8955)">
<path d="M12.7 12.6029C11.0042 12.6029 9.55257 11.9985 8.34513 10.7911C7.13647 9.58366 6.53337 8.13203 6.53337 6.4362C6.53337 4.74036 7.1377 3.28873 8.34513 2.0813C9.55257 0.872631 11.0042 0.269531 12.7 0.269531C14.3959 0.269531 15.8475 0.873864 17.0549 2.0813C18.2636 3.28873 18.8667 4.74036 18.8667 6.4362C18.8667 8.13203 18.2624 9.58366 17.0549 10.7911C15.8475 11.9998 14.3959 12.6029 12.7 12.6029ZM0.366699 24.9362V20.6195C0.366699 19.7463 0.592399 18.9422 1.04257 18.2096C1.47262 17.496 2.09266 16.9161 2.83337 16.5347C4.37939 15.7554 6.00874 15.1539 7.69023 14.7415C9.33051 14.3441 11.0123 14.1437 12.7 14.1445C14.3959 14.1445 16.067 14.3431 17.7111 14.7415C19.3551 15.1398 20.9732 15.738 22.5667 16.5335C23.3082 16.9154 23.9287 17.4962 24.3587 18.2108C24.8077 18.9422 25.0334 19.7463 25.0334 20.6195V24.9362H0.366699ZM54.6334 8.1752L52.8944 6.4362L46 13.3305L39.1057 6.4362L37.3667 8.1752L44.261 15.0695L37.3667 21.9639L39.1057 23.7029L46 16.8085L52.8944 23.7029L54.6334 21.9639L47.739 15.0695L54.6334 8.1752Z" fill="#333333"/>
</g>
<defs>
<clipPath id="clip0_2031_8955">
<rect width="54.2667" height="24.6667" fill="white" transform="translate(0.366699 0.269531)"/>
</clipPath>
</defs>
</svg>
