<svg width="84" height="85" viewBox="0 0 84 85" fill="none" xmlns="http://www.w3.org/2000/svg">
<g id="Visual Design">
<rect y="0.772461" width="84" height="84" rx="20" fill="#F0F2F5"/>
<g id="Group">
<path id="Vector" d="M45.6397 62.8975H39.8047C39.6721 62.8975 39.5449 62.9501 39.4511 63.0439C39.3574 63.1377 39.3047 63.2649 39.3047 63.3975C39.3047 63.5301 39.3574 63.6572 39.4511 63.751C39.5449 63.8448 39.6721 63.8975 39.8047 63.8975H45.6397C45.7723 63.8975 45.8995 63.8448 45.9932 63.751C46.087 63.6572 46.1397 63.5301 46.1397 63.3975C46.1397 63.2649 46.087 63.1377 45.9932 63.0439C45.8995 62.9501 45.7723 62.8975 45.6397 62.8975Z" fill="#121212"/>
<g id="Vector_2">
<path d="M58.29 39.8725H57.18V21.1075C57.18 20.8008 57.1196 20.4972 57.0023 20.2139C56.8849 19.9306 56.7129 19.6732 56.4961 19.4564C56.2793 19.2395 56.0219 19.0675 55.7386 18.9502C55.4553 18.8329 55.1516 18.7725 54.845 18.7725H30.515C29.8957 18.7725 29.3018 19.0185 28.8639 19.4564C28.426 19.8943 28.18 20.4882 28.18 21.1075V25.2725H25.58C25.4474 25.2725 25.3202 25.3251 25.2264 25.4189C25.1327 25.5127 25.08 25.6399 25.08 25.7725V42.7725C25.08 42.9051 25.1327 43.0322 25.2264 43.126C25.3202 43.2198 25.4474 43.2725 25.58 43.2725H28.18V47.7375H25.5C25.3674 47.7375 25.2402 47.7901 25.1464 47.8839C25.0527 47.9777 25 48.1049 25 48.2375V56.1475C25 56.2801 25.0527 56.4072 25.1464 56.501C25.2402 56.5948 25.3674 56.6475 25.5 56.6475H28.18V64.4375C28.18 65.0567 28.426 65.6507 28.8639 66.0886C29.3018 66.5265 29.8957 66.7725 30.515 66.7725H54.845C55.1516 66.7725 55.4553 66.7121 55.7386 66.5947C56.0219 66.4774 56.2793 66.3054 56.4961 66.0886C56.7129 65.8717 56.8849 65.6143 57.0023 65.331C57.1196 65.0477 57.18 64.7441 57.18 64.4375V48.8075H58.29C58.4226 48.8075 58.5498 48.7548 58.6436 48.661C58.7373 48.5672 58.79 48.4401 58.79 48.3075V40.3725C58.79 40.2399 58.7373 40.1127 58.6436 40.0189C58.5498 39.9251 58.4226 39.8725 58.29 39.8725ZM29.18 21.1075C29.1813 20.7538 29.3224 20.415 29.5725 20.1649C29.8225 19.9149 30.1613 19.7738 30.515 19.7725H54.845C55.1987 19.7738 55.5375 19.9149 55.7875 20.1649C56.0376 20.415 56.1787 20.7538 56.18 21.1075V22.0325C55.7906 21.7542 55.3236 21.6055 54.845 21.6075H30.515C30.0364 21.6055 29.5694 21.7542 29.18 22.0325V21.1075ZM26.08 26.2725H39.305V33.8875L37.68 32.2725C37.6335 32.2256 37.5782 32.1884 37.5173 32.163C37.4564 32.1376 37.391 32.1246 37.325 32.1246C37.259 32.1246 37.1936 32.1376 37.1327 32.163C37.0718 32.1884 37.0165 32.2256 36.97 32.2725L35.47 33.7725L32.68 30.9475C32.5863 30.8543 32.4596 30.8021 32.3275 30.8021C32.1954 30.8021 32.0687 30.8543 31.975 30.9475L26.08 36.8475V26.2725ZM39.305 37.5575L36.18 34.4525L37.31 33.3225L39.31 35.3225L39.305 37.5575ZM26.08 42.2725V38.2725L32.335 32.0225L39.305 38.9725V42.2725H26.08ZM26 55.6675V48.7175H39.39V55.6475L26 55.6675ZM56.18 64.4375C56.1787 64.7911 56.0376 65.1299 55.7875 65.38C55.5375 65.6301 55.1987 65.7711 54.845 65.7725H30.515C30.1613 65.7711 29.8225 65.6301 29.5725 65.38C29.3224 65.1299 29.1813 64.7911 29.18 64.4375V60.7725C29.571 61.0468 30.0373 61.1935 30.515 61.1925H54.845C55.3227 61.1935 55.789 61.0468 56.18 60.7725V64.4375ZM56.18 58.8575C56.1787 59.2107 56.0374 59.5489 55.7872 59.7982C55.537 60.0475 55.1982 60.1875 54.845 60.1875H30.515C30.1618 60.1875 29.823 60.0475 29.5728 59.7982C29.3226 59.5489 29.1813 59.2107 29.18 58.8575V56.6475H39.89C40.0226 56.6475 40.1498 56.5948 40.2436 56.501C40.3373 56.4072 40.39 56.2801 40.39 56.1475V48.2175C40.39 48.0849 40.3373 47.9577 40.2436 47.8639C40.1498 47.7701 40.0226 47.7175 39.89 47.7175H29.18V43.2725H39.805C39.9376 43.2725 40.0648 43.2198 40.1586 43.126C40.2523 43.0322 40.305 42.9051 40.305 42.7725V25.7725C40.305 25.6399 40.2523 25.5127 40.1586 25.4189C40.0648 25.3251 39.9376 25.2725 39.805 25.2725H29.18V23.9375C29.1813 23.5843 29.3226 23.246 29.5728 22.9967C29.823 22.7474 30.1618 22.6075 30.515 22.6075H54.845C55.1982 22.6075 55.537 22.7474 55.7872 22.9967C56.0374 23.246 56.1787 23.5843 56.18 23.9375V39.8725H43.9C43.7674 39.8725 43.6402 39.9251 43.5464 40.0189C43.4527 40.1127 43.4 40.2399 43.4 40.3725V48.3075C43.4 48.4401 43.4527 48.5672 43.5464 48.661C43.6402 48.7548 43.7674 48.8075 43.9 48.8075H56.18V58.8575ZM57.79 47.8075H44.4V40.8725H57.79V47.8075Z" fill="#121212"/>
<path d="M56.18 58.8575C56.1787 59.2107 56.0374 59.5489 55.7872 59.7982C55.537 60.0475 55.1982 60.1875 54.845 60.1875H30.515C30.1618 60.1875 29.823 60.0475 29.5728 59.7982C29.3226 59.5489 29.1813 59.2107 29.18 58.8575V56.6475H39.89C40.0226 56.6475 40.1498 56.5948 40.2436 56.501C40.3373 56.4072 40.39 56.2801 40.39 56.1475V48.2175C40.39 48.0849 40.3373 47.9577 40.2436 47.8639C40.1498 47.7701 40.0226 47.7175 39.89 47.7175H29.18V43.2725H39.805C39.9376 43.2725 40.0648 43.2198 40.1586 43.126C40.2523 43.0322 40.305 42.9051 40.305 42.7725V25.7725C40.305 25.6399 40.2523 25.5127 40.1586 25.4189C40.0648 25.3251 39.9376 25.2725 39.805 25.2725H29.18V23.9375C29.1813 23.5843 29.3226 23.246 29.5728 22.9967C29.823 22.7474 30.1618 22.6075 30.515 22.6075H54.845C55.1982 22.6075 55.537 22.7474 55.7872 22.9967C56.0374 23.246 56.1787 23.5843 56.18 23.9375V39.8725H43.9C43.7674 39.8725 43.6402 39.9251 43.5464 40.0189C43.4527 40.1127 43.4 40.2399 43.4 40.3725V48.3075C43.4 48.4401 43.4527 48.5672 43.5464 48.661C43.6402 48.7548 43.7674 48.8075 43.9 48.8075H56.18V58.8575Z" fill="white"/>
<path d="M57.79 47.8075H44.4V40.8725H57.79V47.8075Z" fill="#D9D9D9"/>
<path d="M26 55.6675V48.7175H39.39V55.6475L26 55.6675Z" fill="#D9D9D9"/>
<path d="M26.08 26.2725H39.305V33.8875L37.68 32.2725C37.6335 32.2256 37.5782 32.1884 37.5173 32.163C37.4564 32.1376 37.391 32.1246 37.325 32.1246C37.259 32.1246 37.1936 32.1376 37.1327 32.163C37.0718 32.1884 37.0165 32.2256 36.97 32.2725L35.47 33.7725L32.68 30.9475C32.5863 30.8543 32.4596 30.8021 32.3275 30.8021C32.1954 30.8021 32.0687 30.8543 31.975 30.9475L26.08 36.8475V26.2725Z" fill="#29ABE2"/>
<path d="M26.08 42.2725V38.2725L32.335 32.0225L39.305 38.9725V42.2725H26.08Z" fill="#34A853"/>
<path d="M39.305 37.5575L36.18 34.4525L37.31 33.3225L39.31 35.3225L39.305 37.5575Z" fill="#34A853"/>
<path d="M29.18 21.1075C29.1813 20.7538 29.3224 20.415 29.5725 20.1649C29.8225 19.9149 30.1613 19.7738 30.515 19.7725H54.845C55.1987 19.7738 55.5375 19.9149 55.7875 20.1649C56.0376 20.415 56.1787 20.7538 56.18 21.1075V22.0325C55.7906 21.7542 55.3236 21.6055 54.845 21.6075H30.515C30.0364 21.6055 29.5694 21.7542 29.18 22.0325V21.1075Z" fill="#121212"/>
<path d="M56.18 64.4375C56.1787 64.7911 56.0376 65.1299 55.7875 65.38C55.5375 65.6301 55.1987 65.7711 54.845 65.7725H30.515C30.1613 65.7711 29.8225 65.6301 29.5725 65.38C29.3224 65.1299 29.1813 64.7911 29.18 64.4375V60.7725C29.571 61.0468 30.0373 61.1935 30.515 61.1925H54.845C55.3227 61.1935 55.789 61.0468 56.18 60.7725V64.4375Z" fill="#121212"/>
</g>
<g id="Vector_3">
<path d="M48.7647 33.6075C49.3254 33.6075 49.8735 33.4412 50.3397 33.1297C50.8059 32.8182 51.1693 32.3754 51.3839 31.8574C51.5985 31.3394 51.6546 30.7694 51.5452 30.2194C51.4358 29.6695 51.1658 29.1643 50.7693 28.7679C50.3729 28.3714 49.8677 28.1014 49.3178 27.992C48.7678 27.8826 48.1978 27.9387 47.6798 28.1533C47.1618 28.3679 46.719 28.7312 46.4075 29.1975C46.096 29.6637 45.9297 30.2118 45.9297 30.7725C45.931 31.524 46.2301 32.2443 46.7615 32.7757C47.2929 33.3071 48.0132 33.6062 48.7647 33.6075ZM48.7647 28.9375C49.1276 28.9375 49.4824 29.0451 49.7842 29.2468C50.0859 29.4484 50.3211 29.735 50.46 30.0703C50.5989 30.4056 50.6352 30.7745 50.5644 31.1305C50.4936 31.4864 50.3189 31.8134 50.0622 32.07C49.8056 32.3267 49.4786 32.5014 49.1227 32.5722C48.7667 32.643 48.3978 32.6067 48.0625 32.4678C47.7272 32.3289 47.4406 32.0937 47.2389 31.792C47.0373 31.4902 46.9297 31.1354 46.9297 30.7725C46.9297 30.2858 47.123 29.8191 47.4671 29.475C47.8113 29.1308 48.278 28.9375 48.7647 28.9375Z" fill="#121212"/>
<path d="M48.7647 28.9375C49.1276 28.9375 49.4824 29.0451 49.7842 29.2468C50.0859 29.4484 50.3211 29.735 50.46 30.0703C50.5989 30.4056 50.6352 30.7745 50.5644 31.1305C50.4936 31.4864 50.3189 31.8134 50.0622 32.07C49.8056 32.3267 49.4786 32.5014 49.1227 32.5722C48.7667 32.643 48.3978 32.6067 48.0625 32.4678C47.7272 32.3289 47.4406 32.0937 47.2389 31.792C47.0373 31.4902 46.9297 31.1354 46.9297 30.7725C46.9297 30.2858 47.123 29.8191 47.4671 29.475C47.8113 29.1308 48.278 28.9375 48.7647 28.9375Z" fill="#E37300"/>
</g>
<path id="Vector_4" d="M45.7656 36.1874V35.7324H51.7656V36.1874C51.7656 36.32 51.8183 36.4472 51.9121 36.541C52.0058 36.6347 52.133 36.6874 52.2656 36.6874H54.1806C54.3132 36.6874 54.4404 36.6347 54.5342 36.541C54.6279 36.4472 54.6806 36.32 54.6806 36.1874V34.2724C54.6806 34.1398 54.6279 34.0126 54.5342 33.9189C54.4404 33.8251 54.3132 33.7724 54.1806 33.7724H53.7206V27.7724H54.1806C54.3132 27.7724 54.4404 27.7197 54.5342 27.626C54.6279 27.5322 54.6806 27.405 54.6806 27.2724V25.3574C54.6806 25.2248 54.6279 25.0976 54.5342 25.0039C54.4404 24.9101 54.3132 24.8574 54.1806 24.8574H52.2656C52.133 24.8574 52.0058 24.9101 51.9121 25.0039C51.8183 25.0976 51.7656 25.2248 51.7656 25.3574V25.8124H45.7656V25.3574C45.7656 25.2248 45.7129 25.0976 45.6192 25.0039C45.5254 24.9101 45.3982 24.8574 45.2656 24.8574H43.3456C43.213 24.8574 43.0858 24.9101 42.9921 25.0039C42.8983 25.0976 42.8456 25.2248 42.8456 25.3574V27.2724C42.8456 27.405 42.8983 27.5322 42.9921 27.626C43.0858 27.7197 43.213 27.7724 43.3456 27.7724H43.8056V33.7724H43.3456C43.213 33.7724 43.0858 33.8251 42.9921 33.9189C42.8983 34.0126 42.8456 34.1398 42.8456 34.2724V36.1874C42.8456 36.32 42.8983 36.4472 42.9921 36.541C43.0858 36.6347 43.213 36.6874 43.3456 36.6874H45.2656C45.3982 36.6874 45.5254 36.6347 45.6192 36.541C45.7129 36.4472 45.7656 36.32 45.7656 36.1874ZM53.6806 35.6874H52.7656V34.7724H53.6806V35.6874ZM53.6806 25.8574V26.7724H52.7656V25.8574H53.6806ZM43.8456 25.8574H44.7656V26.7724H43.8456V25.8574ZM44.8056 27.7724H45.2656C45.3982 27.7724 45.5254 27.7197 45.6192 27.626C45.7129 27.5322 45.7656 27.405 45.7656 27.2724V26.8124H51.7656V27.2724C51.7656 27.405 51.8183 27.5322 51.9121 27.626C52.0058 27.7197 52.133 27.7724 52.2656 27.7724H52.7206V33.7724H52.2656C52.133 33.7724 52.0058 33.8251 51.9121 33.9189C51.8183 34.0126 51.7656 34.1398 51.7656 34.2724V34.7324H45.7656V34.2724C45.7656 34.1398 45.7129 34.0126 45.6192 33.9189C45.5254 33.8251 45.3982 33.7724 45.2656 33.7724H44.8056V27.7724ZM43.8456 35.6874V34.7724H44.7656V35.6874H43.8456ZM30.6806 40.3524H34.6806C34.8132 40.3524 34.9404 40.2997 35.0342 40.206C35.1279 40.1122 35.1806 39.985 35.1806 39.8524C35.1806 39.7198 35.1279 39.5926 35.0342 39.4989C34.9404 39.4051 34.8132 39.3524 34.6806 39.3524H30.6806C30.548 39.3524 30.4208 39.4051 30.3271 39.4989C30.2333 39.5926 30.1806 39.7198 30.1806 39.8524C30.1806 39.985 30.2333 40.1122 30.3271 40.206C30.4208 40.2997 30.548 40.3524 30.6806 40.3524ZM55.7756 42.3424H46.4206C46.288 42.3424 46.1608 42.3951 46.0671 42.4889C45.9733 42.5826 45.9206 42.7098 45.9206 42.8424C45.9206 42.975 45.9733 43.1022 46.0671 43.196C46.1608 43.2897 46.288 43.3424 46.4206 43.3424H55.7756C55.9082 43.3424 56.0354 43.2897 56.1292 43.196C56.2229 43.1022 56.2756 42.975 56.2756 42.8424C56.2756 42.7098 56.2229 42.5826 56.1292 42.4889C56.0354 42.3951 55.9082 42.3424 55.7756 42.3424ZM50.1806 45.2174H46.4206C46.288 45.2174 46.1608 45.2701 46.0671 45.3639C45.9733 45.4576 45.9206 45.5848 45.9206 45.7174C45.9206 45.85 45.9733 45.9772 46.0671 46.071C46.1608 46.1647 46.288 46.2174 46.4206 46.2174H50.1806C50.3132 46.2174 50.4404 46.1647 50.5342 46.071C50.6279 45.9772 50.6806 45.85 50.6806 45.7174C50.6806 45.5848 50.6279 45.4576 50.5342 45.3639C50.4404 45.2701 50.3132 45.2174 50.1806 45.2174ZM55.7756 45.2174H52.4906C52.358 45.2174 52.2308 45.2701 52.1371 45.3639C52.0433 45.4576 51.9906 45.5848 51.9906 45.7174C51.9906 45.85 52.0433 45.9772 52.1371 46.071C52.2308 46.1647 52.358 46.2174 52.4906 46.2174H55.7756C55.9082 46.2174 56.0354 46.1647 56.1292 46.071C56.2229 45.9772 56.2756 45.85 56.2756 45.7174C56.2756 45.5848 56.2229 45.4576 56.1292 45.3639C56.0354 45.2701 55.9082 45.2174 55.7756 45.2174ZM28.0156 51.1824H37.3706C37.5032 51.1824 37.6304 51.1297 37.7242 51.036C37.8179 50.9422 37.8706 50.815 37.8706 50.6824C37.8706 50.5498 37.8179 50.4226 37.7242 50.3289C37.6304 50.2351 37.5032 50.1824 37.3706 50.1824H28.0156C27.883 50.1824 27.7558 50.2351 27.6621 50.3289C27.5683 50.4226 27.5156 50.5498 27.5156 50.6824C27.5156 50.815 27.5683 50.9422 27.6621 51.036C27.7558 51.1297 27.883 51.1824 28.0156 51.1824ZM31.7756 54.0574C31.9082 54.0574 32.0354 54.0047 32.1292 53.911C32.2229 53.8172 32.2756 53.69 32.2756 53.5574C32.2756 53.4248 32.2229 53.2976 32.1292 53.2039C32.0354 53.1101 31.9082 53.0574 31.7756 53.0574H28.0156C27.883 53.0574 27.7558 53.1101 27.6621 53.2039C27.5683 53.2976 27.5156 53.4248 27.5156 53.5574C27.5156 53.69 27.5683 53.8172 27.6621 53.911C27.7558 54.0047 27.883 54.0574 28.0156 54.0574H31.7756ZM37.3706 53.0574H34.0906C33.958 53.0574 33.8308 53.1101 33.7371 53.2039C33.6433 53.2976 33.5906 53.4248 33.5906 53.5574C33.5906 53.69 33.6433 53.8172 33.7371 53.911C33.8308 54.0047 33.958 54.0574 34.0906 54.0574H37.3706C37.5032 54.0574 37.6304 54.0047 37.7242 53.911C37.8179 53.8172 37.8706 53.69 37.8706 53.5574C37.8706 53.4248 37.8179 53.2976 37.7242 53.2039C37.6304 53.1101 37.5032 53.0574 37.3706 53.0574ZM43.4006 54.0474V56.1474C43.4006 56.28 43.4533 56.4072 43.5471 56.501C43.6408 56.5947 43.768 56.6474 43.9006 56.6474C44.0332 56.6474 44.1604 56.5947 44.2542 56.501C44.3479 56.4072 44.4006 56.28 44.4006 56.1474V55.5974H54.1806V56.1474C54.1806 56.28 54.2333 56.4072 54.3271 56.501C54.4208 56.5947 54.548 56.6474 54.6806 56.6474C54.8132 56.6474 54.9404 56.5947 55.0342 56.501C55.1279 56.4072 55.1806 56.28 55.1806 56.1474V54.0474C55.1806 53.9148 55.1279 53.7876 55.0342 53.6939C54.9404 53.6001 54.8132 53.5474 54.6806 53.5474C54.548 53.5474 54.4208 53.6001 54.3271 53.6939C54.2333 53.7876 54.1806 53.9148 54.1806 54.0474V54.5974H44.4006V54.0474C44.4006 53.9148 44.3479 53.7876 44.2542 53.6939C44.1604 53.6001 44.0332 53.5474 43.9006 53.5474C43.768 53.5474 43.6408 53.6001 43.5471 53.6939C43.4533 53.7876 43.4006 53.9148 43.4006 54.0474Z" fill="#121212"/>
</g>
</g>
</svg>
