<svg width="24" height="25" viewBox="0 0 24 25" fill="none" xmlns="http://www.w3.org/2000/svg">
<g id="ic:baseline-whatsapp">
<path id="Vector" d="M19.0508 5.68252C18.134 4.75645 17.042 4.02219 15.8384 3.52257C14.6349 3.02295 13.3439 2.76798 12.0408 2.77252C6.58078 2.77252 2.13078 7.22252 2.13078 12.6825C2.13078 14.4325 2.59078 16.1325 3.45078 17.6325L2.05078 22.7725L7.30078 21.3925C8.75078 22.1825 10.3808 22.6025 12.0408 22.6025C17.5008 22.6025 21.9508 18.1525 21.9508 12.6925C21.9508 10.0425 20.9208 7.55252 19.0508 5.68252ZM12.0408 20.9225C10.5608 20.9225 9.11078 20.5225 7.84078 19.7725L7.54078 19.5925L4.42078 20.4125L5.25078 17.3725L5.05078 17.0625C4.22853 15.7495 3.79192 14.2318 3.79078 12.6825C3.79078 8.14252 7.49078 4.44252 12.0308 4.44252C14.2308 4.44252 16.3008 5.30252 17.8508 6.86252C18.6183 7.62648 19.2265 8.53518 19.6402 9.53595C20.0539 10.5367 20.2648 11.6096 20.2608 12.6925C20.2808 17.2325 16.5808 20.9225 12.0408 20.9225ZM16.5608 14.7625C16.3108 14.6425 15.0908 14.0425 14.8708 13.9525C14.6408 13.8725 14.4808 13.8325 14.3108 14.0725C14.1408 14.3225 13.6708 14.8825 13.5308 15.0425C13.3908 15.2125 13.2408 15.2325 12.9908 15.1025C12.7408 14.9825 11.9408 14.7125 11.0008 13.8725C10.2608 13.2125 9.77078 12.4025 9.62078 12.1525C9.48078 11.9025 9.60078 11.7725 9.73078 11.6425C9.84078 11.5325 9.98078 11.3525 10.1008 11.2125C10.2208 11.0725 10.2708 10.9625 10.3508 10.8025C10.4308 10.6325 10.3908 10.4925 10.3308 10.3725C10.2708 10.2525 9.77078 9.03252 9.57078 8.53252C9.37078 8.05252 9.16078 8.11252 9.01078 8.10252H8.53078C8.36078 8.10252 8.10078 8.16252 7.87078 8.41252C7.65078 8.66252 7.01078 9.26252 7.01078 10.4825C7.01078 11.7025 7.90078 12.8825 8.02078 13.0425C8.14078 13.2125 9.77078 15.7125 12.2508 16.7825C12.8408 17.0425 13.3008 17.1925 13.6608 17.3025C14.2508 17.4925 14.7908 17.4625 15.2208 17.4025C15.7008 17.3325 16.6908 16.8025 16.8908 16.2225C17.1008 15.6425 17.1008 15.1525 17.0308 15.0425C16.9608 14.9325 16.8108 14.8825 16.5608 14.7625Z" fill="#121212"/>
</g>
</svg>
