<svg width="84" height="85" viewBox="0 0 84 85" fill="none" xmlns="http://www.w3.org/2000/svg">
<g id="Wireframe Icon">
<rect y="0.772461" width="84" height="84" rx="20" fill="#F0F2F5"/>
<rect id="Rectangle" x="18" y="19.7725" width="49" height="46" fill="white"/>
<g id="Group ">
<path id="Vector" d="M66.9574 66.7725H17.8398C17.3793 66.7725 17 66.4 17 65.9326V19.6123C17 19.1517 17.3725 18.7725 17.8398 18.7725H66.9642C67.4247 18.7725 67.804 19.145 67.804 19.6123V65.9394C67.7972 66.3999 67.4247 66.7725 66.9574 66.7725ZM18.6729 65.0995H66.1175V20.4522H18.6729V65.0995Z" fill="#121212"/>
<g id="Vector_2">
<path d="M66.9574 28.3831H17.8398C17.3793 28.3831 17 28.0106 17 27.5432C17 27.0759 17.3725 26.7034 17.8398 26.7034H66.9642C67.4247 26.7034 67.804 27.0759 67.804 27.5432C67.804 28.0106 67.4247 28.3831 66.9574 28.3831ZM54.739 24.4209H53.7772C53.3166 24.4209 52.9374 24.0484 52.9374 23.5811C52.9374 23.1137 53.3099 22.7412 53.7772 22.7412H54.739C55.1995 22.7412 55.5788 23.1137 55.5788 23.5811C55.5788 24.0484 55.1995 24.4209 54.739 24.4209ZM61.0988 24.4209H58.4031C57.9426 24.4209 57.5633 24.0484 57.5633 23.5811C57.5633 23.1137 57.9358 22.7412 58.4031 22.7412H61.0988C61.5593 22.7412 61.9386 23.1137 61.9386 23.5811C61.9386 24.0484 61.5593 24.4209 61.0988 24.4209ZM39.3237 45.9048H23.8001C23.3327 45.9048 22.9602 46.2773 22.9602 46.7446V53.6598C22.9602 53.6733 22.9602 53.6937 22.967 53.7072C22.9873 54.1475 23.353 54.4997 23.8001 54.4997H39.3237C39.7707 54.4997 40.1364 54.1475 40.1568 53.7072C40.1635 53.6937 40.1635 53.6801 40.1635 53.6598V46.7446C40.1635 46.2773 39.791 45.9048 39.3237 45.9048ZM24.6399 52.82V47.5845H38.4906V52.82H24.6399ZM60.4012 53.0638H44.8775C44.417 53.0638 44.0377 52.6913 44.0377 52.2239C44.0377 51.7634 44.4102 51.3841 44.8775 51.3841H60.4012C60.8617 51.3841 61.241 51.7566 61.241 52.2239C61.241 52.6913 60.8685 53.0638 60.4012 53.0638ZM55.6601 49.0135H44.8775C44.417 49.0135 44.0377 48.641 44.0377 48.1737C44.0377 47.7131 44.4102 47.3339 44.8775 47.3339H55.6601C56.1206 47.3339 56.4999 47.7064 56.4999 48.1737C56.4999 48.641 56.1206 49.0135 55.6601 49.0135ZM60.9972 43.6155H23.8001C23.3395 43.6155 22.9602 43.243 22.9602 42.7756V32.0879C22.9602 31.6273 23.3327 31.2481 23.8001 31.2481H61.004C61.4645 31.2481 61.8438 31.6206 61.8438 32.0879V42.7756C61.837 43.2362 61.4645 43.6155 60.9972 43.6155ZM24.6331 41.9358H60.1573V32.9278H24.6331V41.9358Z" fill="#121212"/>
<path d="M24.6331 41.9358H60.1573V32.9278H24.6331V41.9358Z" fill="#D9D9D9"/>
<path d="M24.6399 52.82V47.5845H38.4906V52.82H24.6399Z" fill="#D9D9D9"/>
</g>
<path id="Vector_3" d="M23.8012 43.616C23.4355 43.616 23.2933 43.3315 23.1849 42.9658C23.0562 42.5188 23.1239 42.0988 23.571 41.9702L60.7749 31.2824C61.2151 31.1537 61.2016 31.892 61.3302 32.339C61.4589 32.786 61.6824 32.7657 61.2354 32.8944L24.0315 43.5821C23.9502 43.6024 23.8757 43.616 23.8012 43.616Z" fill="#121212"/>
<path id="Vector_4" d="M60.9973 43.6159C60.9228 43.6159 60.8416 43.6023 60.7671 43.582L23.5699 32.8943C23.1229 32.7656 23.0891 32.3795 23.2177 31.9393C23.3464 31.4923 23.5903 31.1604 24.0373 31.2823L61.2276 41.97C61.6746 42.0987 61.2683 42.5593 61.1396 43.0063C61.0312 43.372 61.3631 43.6159 60.9973 43.6159Z" fill="#121212"/>
<g id="Group">
<path id="Vector_5" d="M40.1634 46.8262C40.1634 47.1445 39.9805 47.4493 39.6689 47.5915L38.4904 48.1198L27.9246 52.8202L24.1588 54.4931H23.7999C23.3529 54.4931 22.9871 54.141 22.9668 53.7007C22.9736 53.3959 23.1564 53.1047 23.4544 52.9692L24.6329 52.4409L35.5577 47.5847L38.9781 46.0608C39.398 45.8779 39.8924 46.0676 40.0821 46.4875C40.143 46.5959 40.1634 46.711 40.1634 46.8262Z" fill="#121212"/>
</g>
<g id="Group_2">
<path id="Vector_6" d="M40.1555 53.7075C40.1352 54.1477 39.7695 54.4999 39.3225 54.4999H38.9635L35.1977 52.827L24.6319 48.1266L23.4534 47.5983C23.1419 47.4628 22.959 47.1513 22.959 46.8329C22.959 46.7178 22.9793 46.6026 23.0335 46.4875C23.2231 46.0676 23.7176 45.8779 24.1375 46.0608L27.5578 47.5847L38.4826 52.4477L39.6611 52.976C39.9659 53.1115 40.1488 53.3959 40.1555 53.7075Z" fill="#121212"/>
</g>
<g id="Group_3">
<path id="Vector_7" d="M40.2645 59.0918H32.7871C32.3265 59.0918 31.9473 58.7193 31.9473 58.252C31.9473 57.7914 32.3198 57.4121 32.7871 57.4121H40.2712C40.7318 57.4121 41.1111 57.7846 41.1111 58.252C41.1043 58.7193 40.7318 59.0918 40.2645 59.0918ZM40.2645 62.5663H32.7871C32.3265 62.5663 31.9473 62.1938 31.9473 61.7265C31.9473 61.2659 32.3198 60.8866 32.7871 60.8866H40.2712C40.7318 60.8866 41.1111 61.2592 41.1111 61.7265C41.1043 62.1938 40.7318 62.5663 40.2645 62.5663ZM60.9965 59.0918H53.5192C53.0586 59.0918 52.6793 58.7193 52.6793 58.252C52.6793 57.7914 53.0518 57.4121 53.5192 57.4121H61.0033C61.4638 57.4121 61.8431 57.7846 61.8431 58.252C61.8364 58.7193 61.4638 59.0918 60.9965 59.0918ZM60.9965 62.5663H53.5192C53.0586 62.5663 52.6793 62.1938 52.6793 61.7265C52.6793 61.2659 53.0518 60.8866 53.5192 60.8866H61.0033C61.4638 60.8866 61.8431 61.2592 61.8431 61.7265C61.8364 62.1938 61.4638 62.5663 60.9965 62.5663Z" fill="#121212"/>
<g id="Group_4">
<g id="Vector_8">
<path d="M26.1626 63.1963C24.3949 63.1963 22.959 61.7604 22.959 59.9927C22.959 58.2249 24.3949 56.7891 26.1626 56.7891C27.9303 56.7891 29.3662 58.2249 29.3662 59.9927C29.3662 61.7536 27.9303 63.1963 26.1626 63.1963ZM26.1626 58.462C25.3227 58.462 24.6387 59.1461 24.6387 59.9859C24.6387 60.8257 25.3227 61.5098 26.1626 61.5098C27.0024 61.5098 27.6865 60.8257 27.6865 59.9859C27.6865 59.1461 27.0024 58.462 26.1626 58.462Z" fill="#121212"/>
<path d="M26.1626 58.462C25.3227 58.462 24.6387 59.1461 24.6387 59.9859C24.6387 60.8257 25.3227 61.5098 26.1626 61.5098C27.0024 61.5098 27.6865 60.8257 27.6865 59.9859C27.6865 59.1461 27.0024 58.462 26.1626 58.462Z" fill="#D9D9D9"/>
</g>
</g>
<g id="Group_5">
<g id="Vector_9">
<path d="M46.895 63.1963C45.1273 63.1963 43.6914 61.7604 43.6914 59.9927C43.6914 58.2249 45.1273 56.7891 46.895 56.7891C48.6628 56.7891 50.0986 58.2249 50.0986 59.9927C50.0919 61.7536 48.656 63.1963 46.895 63.1963ZM46.895 58.462C46.0552 58.462 45.3711 59.1461 45.3711 59.9859C45.3711 60.8257 46.0552 61.5098 46.895 61.5098C47.7349 61.5098 48.4189 60.8257 48.4189 59.9859C48.4189 59.1461 47.7349 58.462 46.895 58.462Z" fill="#121212"/>
<path d="M46.895 58.462C46.0552 58.462 45.3711 59.1461 45.3711 59.9859C45.3711 60.8257 46.0552 61.5098 46.895 61.5098C47.7349 61.5098 48.4189 60.8257 48.4189 59.9859C48.4189 59.1461 47.7349 58.462 46.895 58.462Z" fill="#D9D9D9"/>
</g>
</g>
</g>
<g id="Group_6">
<path id="Vector_10" d="M48.7246 28.3833C48.2641 28.3833 47.8848 28.0108 47.8848 27.5434V19.6123C47.8848 19.1517 48.2573 18.7725 48.7246 18.7725C49.1852 18.7725 49.5645 19.145 49.5645 19.6123V27.5502C49.5645 28.0108 49.1852 28.3833 48.7246 28.3833Z" fill="#121212"/>
</g>
</g>
</g>
</svg>
